<svg xmlns="http://www.w3.org/2000/svg" xmlns:xlink="http://www.w3.org/1999/xlink" width="465.293" height="367.287" viewBox="0 0 465.293 367.287">
  <defs>
    <clipPath id="clip-path">
      <rect id="Rectangle_1009" data-name="Rectangle 1009" width="465" height="367.287" transform="translate(0 0)" fill="none"/>
    </clipPath>
  </defs>
  <g id="Group_1421" data-name="Group 1421" transform="translate(-674.707 -459.171)">
    <path id="Path_1123" data-name="Path 1123" d="M411.313,314.393a50.7,50.7,0,0,0-73.625-40.738,67.811,67.811,0,0,0-97.319-57.88c.042-.565.085-1.116.085-1.68a21.773,21.773,0,0,0-21.774-21.76,21.507,21.507,0,0,0-8.7,1.822,74.47,74.47,0,0,0-86.39-96.3c-1.864.409-3.7.875-5.521,1.412A35.172,35.172,0,0,0,59.032,78.523,36.25,36.25,0,0,0,55.05,83a35.583,35.583,0,0,0,.48-4.476c.014-.466.028-.946.028-1.426a33.443,33.443,0,0,0-.268-4.307,35.637,35.637,0,0,0-.748-4.109c-.014-.042-.014-.071-.028-.113A33.805,33.805,0,0,0,53.5,65.221,35.242,35.242,0,0,0,28.771,42.953a25.8,25.8,0,0,0,.254-29.371A25.993,25.993,0,0,0,15.5,3.486a23.887,23.887,0,0,0-2.711-.692,25.389,25.389,0,0,0-5.112-.508,26.222,26.222,0,0,0-6.453.8A16.808,16.808,0,0,0,0,0V351.374H441.023a31.377,31.377,0,0,0-29.71-36.982" transform="translate(674.707 470)" fill="#e2e6e7" opacity="0.5"/>
    <g id="Group_806" data-name="Group 806" transform="translate(675 459.169)">
      <g id="Group_582" data-name="Group 582" transform="translate(0 0.002)" clip-path="url(#clip-path)">
        <path id="Path_757" data-name="Path 757" d="M40.281,878.8l-4.706-2.669a26.275,26.275,0,0,1-4.421,5.332,3.293,3.293,0,0,1-4.5-.063l-.151-.145a3.285,3.285,0,0,1,.086-4.821,19.192,19.192,0,0,0,3.973-4.848c1.6-2.823,1.607-5.374-.375-6.5-1.882-1.068-3.97-.156-7.287,2.807-4.789,4.289-9.316,6.5-14.121,3.776C4.417,869.2,2.74,864.192,4.706,858.3L0,855.633l2.753-4.855,4.359,2.472a24.284,24.284,0,0,1,3.215-4.15,3.293,3.293,0,1,1,4.631,4.682,17.5,17.5,0,0,0-3.085,4c-1.826,3.22-1.029,5.046.358,5.833,1.635.927,3.658-.217,7.631-3.529,5.423-4.715,9.5-5.547,13.954-3.019,4.409,2.5,6.4,7.756,4.164,14.014l5.053,2.865Z" transform="translate(34.725 -718.028)" fill="#fae0b2"/>
        <path id="Path_758" data-name="Path 758" d="M735.746,960.356c11.867-15.971,21.4-16.11,21.4-16.11s4.325-28.059.875-39.995-19.056-1.469-19.056-1.469,20.689-40.555,12.2-45.111c-15.806-8.485-40.7,34.532-40.7,34.532s5.832-18.935-5.346-18.865c-16.857.106-18.315,43.521-18.315,43.521s-3.324-8.554-13.724-3.653c-11.2,5.278-14.237,37.064-14.873,61.626h59.052c8.448-5.174,15.349-10.247,18.492-14.477" transform="translate(-469.108 -610.482)" fill="#466eb6"/>
        <path id="Path_759" data-name="Path 759" d="M709.451,888.536s.694-21.576-10.484-21.506c-16.857.106-15.243,49.62-15.243,49.62s-7.042-14.009-17.442-9.109c-11.415,5.378-12.77,40.51-12.323,67.082h19.616L748.09,857.461c-15.806-8.485-38.639,31.074-38.639,31.074" transform="translate(-466.033 -610.272)" fill="#355389"/>
        <path id="Path_760" data-name="Path 760" d="M1166.792,1111s53.813,6.2,66.848,1.63,4.4-11.866,4.4-11.866,27.567-3.521,30.227-11.726-10.384-8.258-10.384-8.258,27.671-15.267,24.565-21.188c-5.786-11.027-36.835,4.019-36.835,4.019s10.719-8.617,4.265-12.925c-9.732-6.5-27.46,17.9-27.46,17.9s1.417-6.211-6.469-7.439c-14.148-2.2-49.159,49.856-49.159,49.856" transform="translate(-831.585 -748.053)" fill="#466eb6"/>
        <path id="Path_761" data-name="Path 761" d="M1228.718,1045.28c7.885,1.229,6.484,12.022,6.484,12.022s18.334-29.095,28.067-22.6c6.454,4.308-2.339,16.443-2.339,16.443s28.516-13.861,34.3-2.834l-110.506,47.956c4.057-6.1,30.777-53.048,43.992-50.99" transform="translate(-844.367 -736.771)" fill="#355389"/>
        <path id="Path_762" data-name="Path 762" d="M1145.136,929.664s48.967-34.071,56.012-49.049-6.446-13.73-6.446-13.73,20.143-26.525,15.363-35.69-15.781,1.942-15.781,1.942,10.189-36.48,2.518-38.8c-14.287-4.315-28.264,41.88-28.264,41.88s-5.336-25.557-14.44-23.658c-13.728,2.864-.03,40.649-.03,40.649s-4.05-12.308-11.723-6.6c-13.768,10.244,2.791,83.052,2.791,83.052" transform="translate(-810.263 -565.933)" fill="#466eb6"/>
        <path id="Path_763" data-name="Path 763" d="M1103.05,847.007a19.479,19.479,0,0,0,10.383-12.695s.058-21.365,13.787-24.229c9.1-1.9,15.476,15.265,15.476,15.265s13.919-35.518,28.206-31.2L1119.087,928.9c-1.806-8.591-26.336-77.018-16.037-81.89" transform="translate(-784.363 -565.737)" fill="#355389"/>
        <path id="Path_764" data-name="Path 764" d="M853.969,1238.16H755.225a5.7,5.7,0,1,1,0-11.4h98.744a5.7,5.7,0,1,1,0,11.4" transform="translate(-534.193 -874.324)" fill="#f48c7f"/>
        <path id="Path_765" data-name="Path 765" d="M914.084,1199.648H815.34a5.7,5.7,0,1,1,0-11.4h98.744a5.7,5.7,0,1,1,0,11.4" transform="translate(-577.038 -846.876)" fill="#f47458"/>
        <path id="Path_766" data-name="Path 766" d="M865.992,1163.16H767.248a5.7,5.7,0,1,1,0-11.4h98.744a5.7,5.7,0,1,1,0,11.4" transform="translate(-542.762 -820.87)" fill="#f48c7f"/>
        <path id="Path_767" data-name="Path 767" d="M825.915,1123.634H727.171a5.7,5.7,0,0,1,0-11.4h98.744a5.7,5.7,0,1,1,0,11.4" transform="translate(-514.199 -792.7)" fill="#f47458"/>
        <path id="Path_768" data-name="Path 768" d="M1083.536,983.663a49.371,49.371,0,1,1-49.371-49.371,49.371,49.371,0,0,1,49.371,49.371" transform="translate(-701.874 -665.881)" fill="#fae0b2"/>
        <path id="Path_769" data-name="Path 769" d="M1095.3,1003.366a41.429,41.429,0,1,1-41.429-41.429,41.428,41.428,0,0,1,41.429,41.429" transform="translate(-721.576 -685.584)" fill="#f7cc7f"/>
        <path id="Path_770" data-name="Path 770" d="M1094.821,1060.491l2.357-6.5a33.573,33.573,0,0,1-7.665-4.432,4.209,4.209,0,0,1-.883-5.689l.151-.221a4.2,4.2,0,0,1,6.1-.923,24.52,24.52,0,0,0,6.96,3.971c3.9,1.414,7.117.876,8.109-1.861.943-2.6-.652-5.038-5.1-8.585-6.43-5.119-10.185-10.352-7.778-16.991,2.184-6.023,8.139-9.207,15.984-7.989l2.357-6.5,6.708,2.432-2.184,6.023a31.046,31.046,0,0,1,5.918,3.165,4.209,4.209,0,1,1-4.911,6.838,22.365,22.365,0,0,0-5.7-3.032c-4.448-1.613-6.58-.218-7.275,1.7-.819,2.259,1.055,4.564,6.079,8.864,7.1,5.828,9.023,10.783,6.789,16.943-2.209,6.091-8.406,9.729-16.774,8.245l-2.531,6.981Z" transform="translate(-775.356 -716.108)" fill="#fff"/>
        <path id="Path_771" data-name="Path 771" d="M255.059,808.241s-76.721-37.828-89.915-57.558,6.2-20.848,6.2-20.848-34.237-33.3-29.42-47.315,22.791-.623,22.791-.623-22.253-49.543-11.873-54.47c19.334-9.176,46.456,43.55,46.456,43.55s-5.829-22.9,7.485-22.161c20.078,1.123,19.248,52.936,19.248,52.936s2.268-19.866,14.369-13.413c21.713,11.578,14.656,119.9,14.656,119.9" transform="translate(-100.821 -446.41)" fill="#355389"/>
        <path id="Path_772" data-name="Path 772" d="M273.011,680.325c-9.45-5.244-18.862,10.083-18.862,10.083s.953-40.469-19.125-41.591c-13.314-.744-7.485,22.161-7.485,22.161s-27.123-52.726-46.456-43.55L283.387,807.4c.723-12.568,8.344-116.687-10.376-127.074" transform="translate(-129.06 -446.41)" fill="#466eb6"/>
        <path id="Path_773" data-name="Path 773" d="M189.716,1060.857s-62.747,7.793-78.994.848-4.6-15.523-4.6-15.523-34.885-6.857-37.577-17.557,13.963-9.65,13.963-9.65-34.012-21.86-29.539-29.15c8.331-13.58,46.673,8.287,46.673,8.287S86.7,986.193,95.3,981.247c12.98-7.459,33.516,25.2,33.516,25.2s-1.276-8.049,8.894-8.941c18.248-1.6,52,63.354,52,63.354" transform="translate(-37.46 -698.557)" fill="#355389"/>
        <path id="Path_774" data-name="Path 774" d="M139.13,977.016c-10.17.892-9.306,14.789-9.306,14.789s-20.908-38.708-33.887-31.25c-8.607,4.946,1.576,21.188,1.576,21.188S62.3,961.607,53.971,975.186l136.941,70.685c-4.656-8.133-34.737-70.35-51.782-68.855" transform="translate(-38.466 -683.919)" fill="#466eb6"/>
        <path id="Path_775" data-name="Path 775" d="M75.564,1267.943h0a1.764,1.764,0,0,0,1.764,1.764H517.092a1.764,1.764,0,0,0,0-3.528H77.328a1.764,1.764,0,0,0-1.764,1.764" transform="translate(-53.855 -902.42)" fill="#13375b"/>
        <path id="Path_776" data-name="Path 776" d="M1088.36,204.386l-2.237,5.576-9.37-2.608-4.277,7.75-7.331-.806-.408,3.711,9.805,1.078,4.052-7.344,9.747,2.713,3.366-8.391Z" transform="translate(-758.851 -145.669)" fill="#466eb6"/>
        <path id="Path_777" data-name="Path 777" d="M1248.771,602.853l2.3-5.715a29.931,29.931,0,0,1-6.686-4.187,3.75,3.75,0,0,1-.607-5.093l.141-.192a3.742,3.742,0,0,1,5.456-.63,21.849,21.849,0,0,0,6.073,3.754c3.429,1.381,6.309,1,7.278-1.4.921-2.286-.422-4.506-4.268-7.8-5.565-4.76-8.744-9.537-6.392-15.373,2.133-5.294,7.536-7.942,14.481-6.611l2.3-5.715,5.9,2.376-2.133,5.294a27.636,27.636,0,0,1,5.17,3,3.75,3.75,0,1,1-4.587,5.934,19.92,19.92,0,0,0-4.983-2.879c-3.91-1.576-5.852-.4-6.531,1.284-.8,1.985.8,4.1,5.134,8.083,6.14,5.411,7.694,9.884,5.513,15.3-2.157,5.355-7.79,8.4-15.193,6.815l-2.473,6.137Z" transform="translate(-885.936 -394.761)" fill="#96d9c9"/>
        <path id="Path_778" data-name="Path 778" d="M514,1224.709H398.022a8.367,8.367,0,0,1,0-16.734H514a8.367,8.367,0,1,1,0,16.734" transform="translate(-277.711 -860.938)" fill="#fae0b2"/>
        <path id="Path_779" data-name="Path 779" d="M591.545,1167.057H482.359a8.367,8.367,0,0,1,0-16.733H591.545a8.367,8.367,0,1,1,0,16.733" transform="translate(-337.82 -819.849)" fill="#f7cc7f"/>
        <path id="Path_780" data-name="Path 780" d="M549.638,1108.775H445.193a8.176,8.176,0,0,1-8.176-8.176v-.387a8.177,8.177,0,0,1,8.176-8.176H549.638a8.176,8.176,0,0,1,8.176,8.176v.387a8.176,8.176,0,0,1-8.176,8.176" transform="translate(-311.467 -778.307)" fill="#fae0b2"/>
        <path id="Path_781" data-name="Path 781" d="M548.413,1050.684H443.48a8.035,8.035,0,0,1-8.035-8.035v-.662a8.035,8.035,0,0,1,8.035-8.036H548.413a8.036,8.036,0,0,1,8.036,8.036v.662a8.036,8.036,0,0,1-8.036,8.035" transform="translate(-310.346 -736.909)" fill="#f7cc7f"/>
        <path id="Path_782" data-name="Path 782" d="M557.236,995.863h-105.9a8.367,8.367,0,1,1,0-16.733h105.9a8.367,8.367,0,0,1,0,16.733" transform="translate(-315.712 -697.837)" fill="#fae0b2"/>
        <path id="Path_783" data-name="Path 783" d="M541.326,938.353H435.431a8.367,8.367,0,1,1,0-16.733H541.326a8.367,8.367,0,1,1,0,16.733" transform="translate(-304.373 -656.849)" fill="#f7cc7f"/>
        <path id="Path_784" data-name="Path 784" d="M571.274,825.832H469.842a8.2,8.2,0,0,1-8.2-8.2v-.33a8.2,8.2,0,0,1,8.2-8.2H571.274a8.2,8.2,0,0,1,8.2,8.2v.33a8.2,8.2,0,0,1-8.2,8.2" transform="translate(-329.016 -576.654)" fill="#f7cc7f"/>
        <path id="Path_785" data-name="Path 785" d="M613.172,881.834H515.726a8.051,8.051,0,0,1-8.051-8.051v-.632a8.051,8.051,0,0,1,8.051-8.051h97.446a8.051,8.051,0,0,1,8.051,8.051v.632a8.051,8.051,0,0,1-8.051,8.051" transform="translate(-361.826 -616.568)" fill="#fae0b2"/>
        <path id="Path_786" data-name="Path 786" d="M277.895,945.6a49.125,49.125,0,1,1-69.417,2.807,49.126,49.126,0,0,1,69.417-2.807" transform="translate(-139.309 -664.667)" fill="#f48c7f"/>
        <path id="Path_787" data-name="Path 787" d="M292.143,971.016a41.223,41.223,0,1,1-58.25,2.355,41.223,41.223,0,0,1,58.25-2.355" transform="translate(-158.915 -684.271)" fill="#f7cc7f"/>
        <path id="Path_788" data-name="Path 788" d="M329.628,1043.993a3.271,3.271,0,0,1-.158,4.156,32.175,32.175,0,0,1-9.57,7.125,25.866,25.866,0,0,1-19.826,1.661,23.834,23.834,0,0,1-11.1-8.275l-3.623,1.779a2.484,2.484,0,0,1-3.325-1.135l-.046-.094a2.484,2.484,0,0,1,1.135-3.325l2.974-1.46c-.6-.977-1.007-1.581-1.281-2.139a24.44,24.44,0,0,1-1.318-3.389l-3.066,1.505a2.484,2.484,0,0,1-2.189-4.46l3.717-1.825a25.517,25.517,0,0,1,.516-13.746,27.446,27.446,0,0,1,14.14-15.59,28.048,28.048,0,0,1,9.465-2.857,3.351,3.351,0,0,1,3.678,2.849l.008.056a3.359,3.359,0,0,1-2.882,3.8,24.042,24.042,0,0,0-7.351,2.325,17.882,17.882,0,0,0-9.239,10.071,14.909,14.909,0,0,0-.252,9.118l20.907-10.264a2.484,2.484,0,0,1,2.189,4.46l-21.836,10.72c.408,1.068.817,2.136,1.137,2.786.41.836.821,1.672,1.461,2.742l21.883-10.743a2.536,2.536,0,1,1,2.236,4.553l-20.953,10.287a15.782,15.782,0,0,0,6.908,4.911,17.463,17.463,0,0,0,13.943-1.195,27.35,27.35,0,0,0,6.844-4.79,3.272,3.272,0,0,1,4.871.375" transform="translate(-197.312 -714.071)" fill="#fff"/>
        <path id="Path_789" data-name="Path 789" d="M358.265,557.824a2.6,2.6,0,0,1-.446,3.269,25.517,25.517,0,0,1-8.1,4.888,20.516,20.516,0,0,1-15.78-.217,18.9,18.9,0,0,1-8.122-7.388l-3,1.125a1.971,1.971,0,0,1-2.537-1.153l-.029-.077a1.971,1.971,0,0,1,1.152-2.537l2.46-.923c-.395-.817-.673-1.326-.846-1.787a19.322,19.322,0,0,1-.779-2.777l-2.537.952a1.97,1.97,0,1,1-1.385-3.69l3.075-1.154a20.232,20.232,0,0,1,1.467-10.812,21.77,21.77,0,0,1,12.365-11.218,22.25,22.25,0,0,1,7.693-1.526,2.658,2.658,0,0,1,2.684,2.533l0,.045a2.665,2.665,0,0,1-2.569,2.781,19.077,19.077,0,0,0-5.982,1.269,14.184,14.184,0,0,0-8.07,7.239,11.827,11.827,0,0,0-.9,7.179l17.3-6.492a1.97,1.97,0,1,1,1.385,3.69l-18.066,6.78c.24.874.481,1.749.683,2.287.26.692.519,1.384.942,2.277l18.1-6.8a2.012,2.012,0,1,1,1.414,3.767L332.5,555.867a12.518,12.518,0,0,0,5.076,4.409,13.851,13.851,0,0,0,11.1.131,21.7,21.7,0,0,0,5.773-3.254,2.6,2.6,0,0,1,3.817.671" transform="translate(-225.954 -372.605)" fill="#86b1f2"/>
        <path id="Path_790" data-name="Path 790" d="M1007.7,394.9l5.519-2.794,5.43,2.963a.85.85,0,0,0,1.247-.877l-.951-6.112,4.5-4.249a.85.85,0,0,0-.449-1.457l-6.107-.984-2.652-5.589a.85.85,0,0,0-1.524-.024l-2.823,5.5-6.134.795a.85.85,0,0,0-.494,1.443l4.363,4.385-1.14,6.08a.85.85,0,0,0,1.22.915" transform="translate(-714.858 -267.49)" fill="#f7cc7f"/>
        <path id="Path_791" data-name="Path 791" d="M579.246,15.233l-5.7.579L571.6,6.737l-8.444-.182L560.586,0l-3.317,1.3,3.432,8.765,8,.173,2.024,9.44,8.583-.871Z" transform="translate(-397.172 -0.002)" fill="#50bfa5"/>
        <path id="Path_792" data-name="Path 792" d="M1024.967,501.547l6.1,2.013s9.675-3.135,10.628-5.107,1.222-6.757,2.6-6.887a4.168,4.168,0,0,1,4.671,3.592c.46,2.377-3.021,9.247-2.477,9.978.341.458,3.814,1.715,6.368,2.592a4.755,4.755,0,0,1,3.148,3.837v.005a2.619,2.619,0,0,1-1.636,2.814l-1.756.678.561,1.813a2.618,2.618,0,0,1-1.655,3.247l-1.358.455.434,1.1a2.617,2.617,0,0,1-1.689,3.46l-1.187.345.049.317a2.613,2.613,0,0,1-1.9,2.925l-1.179.309-16.252-5.364a11.586,11.586,0,0,1-4.12-2.392l-5.4-2.849a1.341,1.341,0,0,1-.628-1.63l5-14.409a1.337,1.337,0,0,1,1.674-.846" transform="translate(-725.692 -350.331)" fill="#fae0b2"/>
        <path id="Path_793" data-name="Path 793" d="M229.411,360.517c-.079-.225-1.99-3.493-4.458-7.043-11.476-16.533-28.493-32.469-48.45-31.87l-.014-.121c9.023-.99,17.863,1.413,25.624,5.7,12.8,6.9,25.277,20.054,32.1,30.163Z" transform="translate(-125.786 -228.967)" fill="#f7cc7f"/>
        <path id="Path_794" data-name="Path 794" d="M816.753,331.857a9.381,9.381,0,0,0,.55-3.916,68.3,68.3,0,0,0-.856-8.933c-.245-.816,10.687-4.242,10.687-4.242s17.54-.9,20.15-2.855,4.808-2.764,3.59-.734a48.672,48.672,0,0,1-8.485,9.79c-1.142.734-14.766,4.161-15.011,4.161s-.163,8.566-.163,8.566Z" transform="translate(-581.888 -220.937)" fill="#f7a491"/>
        <path id="Path_795" data-name="Path 795" d="M708.077,370.529s-11.357-1.93-11.564-.8c-4.589,25.127-5.367,33.432-5.874,33.693-1.729.889-26.447-20.8-30.532-22.224a17.033,17.033,0,0,0-6.118-.506c-4.859.143-3.22.027-5.782.153l0,.005-.217.015.026,4.57c5.475,4.926,18.008,79.535,19.063,79.485,1.179-.055,25.951,6.179,25.514,4.092-.071-.339-16.794-14.024-21.537-33.774-1.592-6.63-2.378-13.769-3.241-20.018,5.5,2.76,27,13.339,30.408,11.942,10.6-4.348,9.851-56.637,9.851-56.637" transform="translate(-461.832 -263.259)" fill="#3c8f7c"/>
        <path id="Path_796" data-name="Path 796" d="M1005.626,814.506s23.048,18.054,23.816,21.254c1.108,4.61,22.213-1.45,17.123-2.389-1.171-.216-4.918-1.167-5.226-1.331-1.648-.881-22.156-25.594-22.156-25.594Z" transform="translate(-716.721 -574.764)" fill="#f7a491"/>
        <path id="Path_797" data-name="Path 797" d="M1113.49,897.194l-14.715-1.2s-4.206,3.482-12.29,3.645a18.837,18.837,0,0,0-.678,8.009c.106.745.23,3,.981,2.944,2.719-.185,9.962-1.987,18.215-3.638,0,0,11.092-2.349,17.5-6.182s-9.012-3.58-9.012-3.58" transform="translate(-773.749 -638.586)" fill="#184655"/>
        <path id="Path_798" data-name="Path 798" d="M631.708,655.2a100.745,100.745,0,0,0,35.544-1.53c21.6-5.053,45.482-9.725,52.48-5.656,5.633,3.275,40.806,56.424,40.806,56.424l-13.583,9.912-38.729-43.368s-49.412,18.231-60.509,16.211c-25.275-4.6-25.634-24.786-16.008-31.992" transform="translate(-446.071 -460.739)" fill="#b75742"/>
        <path id="Path_799" data-name="Path 799" d="M664.62,639.536,681.508,659.6l-31.327,9.545-4.012-18.889Z" transform="translate(-460.532 -455.805)" fill="#b75742"/>
        <path id="Path_800" data-name="Path 800" d="M825.669,958.618s-1.027,27.875-1.663,32.6c-.633,4.7,11.829,18.856,10.237,13.932-.367-1.133-1.311-4.882-1.312-5.231-.008-1.869,4.622-33.668,4.622-33.668Z" transform="translate(-587.261 -683.218)" fill="#f7a491"/>
        <path id="Path_801" data-name="Path 801" d="M809.563,1094.819l-5.937-13.518s-5.062-2.047-9.046-9.082a18.838,18.838,0,0,0-7.369,3.209c-.6.447-4.727,3.462-4.44,4.157,1.057,2.56,6.67,8.043,12.808,14.032a165.142,165.142,0,0,0,15.116,10.833c6.416,3.816-1.132-9.631-1.132-9.631" transform="translate(-557.879 -764.183)" fill="#184655"/>
        <path id="Path_802" data-name="Path 802" d="M686.461,665.925c-5.9-7.87-53.533-15.344-53.533-15.344l-13.281-25.527-29.369,18.111s2.936,23.37,5.139,29.614c2.937,8.321,22.674,8.745,34.729,8.621,11.091-.114,31.351,2.148,31.351,2.148L654.645,744s13.469,3.065,17.254,2.57c.428-.056,21.9-70.853,14.562-80.642" transform="translate(-420.698 -445.483)" fill="#f47458"/>
        <path id="Path_803" data-name="Path 803" d="M604.763,409.523l-16.57.908s-.379.134-.494.155c-1.35.25-.124,48.537,1.08,66.572s3.645,25.611,3.645,25.611,22.473-3.99,29.369-6.667c2.862-1.111,9.79-9.771,9.79-9.771s-7.077-9.515-10.642-24.969c-2.75-11.92-6.141-33.049-8.081-37.46-4.457-10.129-8.1-14.379-8.1-14.379" transform="translate(-418.438 -291.872)" fill="#fff"/>
        <path id="Path_804" data-name="Path 804" d="M591.36,356.2l-.471,14.63s10.726,18.482,16.233,15.906c4.621-2.161.519-16.22.519-16.22s-.8-3.224-1.91-6.927a26.816,26.816,0,0,1-1.372-7.448c.116-5-13,.058-13,.058" transform="translate(-421.133 -252.255)" fill="#f7a491"/>
        <path id="Path_805" data-name="Path 805" d="M605.559,245.675s5.466,8.24,5.874,15.174a35.959,35.959,0,0,1-1.061,11.666l-17.54-20.966Z" transform="translate(-422.519 -175.096)" fill="#184655"/>
        <path id="Path_806" data-name="Path 806" d="M651.122,283.273c.247,2.428-.7,4.513-2.108,4.657s-2.756-1.707-3-4.136.7-4.513,2.108-4.657,2.756,1.708,3,4.136" transform="translate(-460.391 -198.939)" fill="#f48c7f"/>
        <path id="Path_807" data-name="Path 807" d="M572.719,260.48c-.4-.086-.363,20.1,5.488,24.849s16.033,5.167,19.007.382c3.289-5.292.16-26.56-8.541-31.078s-15.953,5.847-15.953,5.847" transform="translate(-408.079 -180.668)" fill="#f7a491"/>
        <path id="Path_808" data-name="Path 808" d="M541.488,222.854c-4.466,3.916-6.629,6.777-9.651,13.738-3.716,8.561,3.656,17.43,9.838,20.955s6.706,7.851,6.706,7.851l.245-2.692a7.262,7.262,0,0,0-.959-4.548c-.526-1.125-2.216-4.979-2.876-6-1.739-2.683-2.082-3.264-1.224-5.813.661-1.963-.1-6.289.918-9.525l8.321-1.795s5.207-1.252,7.837-4.285c7.55-8.711-7.377-18.423-19.156-7.891" transform="translate(-378.332 -155.559)" fill="#184655"/>
        <path id="Path_809" data-name="Path 809" d="M568.87,316.086c1.025,2.215.812,4.494-.476,5.09s-3.162-.717-4.187-2.932-.812-4.494.476-5.09,3.162.717,4.187,2.931" transform="translate(-401.655 -223.087)" fill="#f7a491"/>
        <path id="Path_810" data-name="Path 810" d="M128.756,277.517l-1.35-9.3,6.895-6.384a1.291,1.291,0,0,0-.659-2.22l-9.261-1.59-3.94-8.53a1.291,1.291,0,0,0-2.315-.059l-4.373,8.316-9.33,1.112a1.291,1.291,0,0,0-.772,2.183l6.558,6.729-1.826,9.217a1.291,1.291,0,0,0,1.838,1.409l8.426-4.157,8.2,4.585a1.291,1.291,0,0,0,1.908-1.313" transform="translate(-73.611 -177.285)" fill="#f7cc7f"/>
        <path id="Path_811" data-name="Path 811" d="M383.535,68.593c.946,3.885,2.651,10.026,2.651,10.026-.135,1.688-.634,8.713-1.227,17.324l12.656-5.065s-.152-14.03.413-14.889c.477-.726,1.28.18,5.159-5.371a10.838,10.838,0,0,0,1.33-4.466s.231-3.524-.561-3.852a1.643,1.643,0,0,0-1.985.807c-.287.609-.213,2.027-.5,2.636s-2.117,1.343-2.888,1.3.1-10.424.1-10.424.43-2.945.649-3.909c.186-.822.934-3.231.934-3.231s.878-3.5-.207-3.762c-.64-.157-2.27,2.683-3.388,5.7-1.2,3.246-1.886,6.688-2.23,6.642-.808-.109-.38-5.8-.38-5.8a18.243,18.243,0,0,0,.785-3.84c.76-1.508,1.265-4.306-.074-4.538-.247-.043-2.012,3.512-2.012,3.512s-.694,2.5-1.1,3.672c-.713,2.063-.821,5.321-1.193,6.757-.31,1.195-.589.7-.717.754a30.017,30.017,0,0,1,.271-3.875,22.841,22.841,0,0,1,.288-3.757,27.445,27.445,0,0,0,.542-3.966c.217-2.946-1.638-2.644-2.278.049-.244,1.026-.5,2.145-.757,3.281-1,4.415-.968,8.669-1.444,8.7-.618.046-.211-7.7-.211-7.7s-.949-4.287-1.891-.308a34.706,34.706,0,0,0-.964,8.547c.1,1.127-.715,5.157.231,9.043" transform="translate(-273.02 -31.274)" fill="#f8a492"/>
        <path id="Path_812" data-name="Path 812" d="M430.743,245.241s-16.405-.773-20.643-2.69c-2.569-1.163-23.678-18.172-23.678-18.172l.237-45.54-14.845-1.129s-7.7,50.336-5.032,55.846c2.754,5.69,33.651,29.114,39.83,39.279,3.56,5.856,10.984,85.5,12.108,86.214,7.995,4.161,32.683,8.316,32.1,5.792-16.071-69.751-20.078-119.6-20.078-119.6" transform="translate(-261.01 -126.657)" fill="#3c8f7c"/>
        <path id="Path_813" data-name="Path 813" d="M773.025,49.557A49.371,49.371,0,1,1,723.655.186a49.37,49.37,0,0,1,49.37,49.371" transform="translate(-480.57 -0.133)" fill="#fae0b2"/>
        <path id="Path_814" data-name="Path 814" d="M784.785,69.26a41.428,41.428,0,1,1-41.428-41.429A41.429,41.429,0,0,1,784.785,69.26" transform="translate(-500.272 -19.836)" fill="#f7cc7f"/>
        <path id="Path_815" data-name="Path 815" d="M784.311,126.386l2.357-6.5A33.59,33.59,0,0,1,779,115.451a4.21,4.21,0,0,1-.883-5.689l.151-.221a4.2,4.2,0,0,1,6.1-.922,24.523,24.523,0,0,0,6.96,3.971c3.9,1.414,7.117.876,8.109-1.861.943-2.6-.652-5.037-5.1-8.585-6.43-5.119-10.185-10.352-7.778-16.991,2.184-6.023,8.14-9.207,15.984-7.989l2.358-6.5,6.707,2.432-2.183,6.023a31.066,31.066,0,0,1,5.918,3.165,4.209,4.209,0,1,1-4.911,6.838,22.378,22.378,0,0,0-5.7-3.033c-4.449-1.613-6.58-.217-7.275,1.7-.819,2.259,1.055,4.564,6.079,8.864,7.1,5.828,9.022,10.783,6.789,16.943-2.209,6.091-8.407,9.73-16.774,8.245l-2.531,6.981Z" transform="translate(-554.053 -50.361)" fill="#fff"/>
        <path id="Path_816" data-name="Path 816" d="M841.73,315.578s4.568-1.958,5.792-2.366,5.14-1.142,5.14-1.142,6.078-6.241,7.628-6.4-3.549,6.812-3.549,6.812l-2.121,2.04s3.427-2.937,4.079-3.345,5.792-7.832,7.1-7.342-2.2,5.71-3.916,8.484-9.545,4.487-9.545,4.487Z" transform="translate(-599.91 -216.527)" fill="#f7a491"/>
        <path id="Path_817" data-name="Path 817" d="M939.489,414.934c-.009,1.224-27.752,1.561-33.5,26.162l-3.7-1.215c8.24-25.008,35.709-24,37.054-24.921a.106.106,0,0,0,.025-.026Z" transform="translate(-643.071 -295.728)" fill="#f7cc7f"/>
        <path id="Path_818" data-name="Path 818" d="M1438.132,869.983l.953-3.281a13.658,13.658,0,0,0,10.817-9.307,29.243,29.243,0,0,0,1.007-4.688l-6.758-1.964,1.2-4.133,6.1,1.773a45.557,45.557,0,0,1,1.337-7.3c2.251-7.742,9.033-11.249,16.316-9.132a17.383,17.383,0,0,1,4.874,2.19,2.4,2.4,0,0,1-2.637,4.019,14.613,14.613,0,0,0-3.591-1.55c-5.118-1.488-8.247,1.445-9.6,6.1a36.666,36.666,0,0,0-1.254,7.249l9.448,2.746-1.2,4.133-8.922-2.594a23.876,23.876,0,0,1-2.4,7.272,14.241,14.241,0,0,1-6.587,5.77l-.038.131,17.243,5.012a2.4,2.4,0,0,1,1.637,2.979l-.051.173a2.4,2.4,0,0,1-2.979,1.637Z" transform="translate(-1024.973 -592.511)" fill="#f7cc7f"/>
      </g>
    </g>
  </g>
</svg>
