<svg xmlns="http://www.w3.org/2000/svg" xmlns:xlink="http://www.w3.org/1999/xlink" width="441.531" height="351.374" viewBox="0 0 441.531 351.374">
  <defs>
    <clipPath id="clip-path">
      <rect id="Rectangle_1206" data-name="Rectangle 1206" width="220.101" height="248.065" fill="none"/>
    </clipPath>
    <clipPath id="clip-path-2">
      <rect id="Rectangle_1207" data-name="Rectangle 1207" width="118.18" height="248.065" fill="none"/>
    </clipPath>
    <clipPath id="clip-path-3">
      <rect id="Rectangle_1208" data-name="Rectangle 1208" width="192.183" height="28.76" fill="none"/>
    </clipPath>
    <clipPath id="clip-path-4">
      <rect id="Rectangle_1209" data-name="Rectangle 1209" width="62.806" height="137.902" fill="none"/>
    </clipPath>
  </defs>
  <g id="Group_1422" data-name="Group 1422" transform="translate(-674.707 -505)">
    <path id="Path_1123" data-name="Path 1123" d="M411.313,314.393a50.7,50.7,0,0,0-73.625-40.738,67.811,67.811,0,0,0-97.319-57.88c.042-.565.085-1.116.085-1.68a21.773,21.773,0,0,0-21.774-21.76,21.507,21.507,0,0,0-8.7,1.822,74.47,74.47,0,0,0-86.39-96.3c-1.864.409-3.7.875-5.521,1.412A35.172,35.172,0,0,0,59.032,78.523,36.25,36.25,0,0,0,55.05,83a35.583,35.583,0,0,0,.48-4.476c.014-.466.028-.946.028-1.426a33.443,33.443,0,0,0-.268-4.307,35.637,35.637,0,0,0-.748-4.109c-.014-.042-.014-.071-.028-.113A33.805,33.805,0,0,0,53.5,65.221,35.242,35.242,0,0,0,28.771,42.953a25.8,25.8,0,0,0,.254-29.371A25.993,25.993,0,0,0,15.5,3.486a23.887,23.887,0,0,0-2.711-.692,25.389,25.389,0,0,0-5.112-.508,26.222,26.222,0,0,0-6.453.8A16.808,16.808,0,0,0,0,0V351.374H441.023a31.377,31.377,0,0,0-29.71-36.982" transform="translate(674.707 505)" fill="#e2e6e7" opacity="0.5"/>
    <g id="Group_805" data-name="Group 805" transform="translate(705.809 512)">
      <g id="Group_810" data-name="Group 810" transform="translate(0)">
        <g id="Group_803" data-name="Group 803">
          <g id="Group_811" data-name="Group 811">
            <path id="Path_1016" data-name="Path 1016" d="M1003.866,618.049l8.235,1.354a3.514,3.514,0,0,1,1.693.767,2.937,2.937,0,0,1,.973,1.5,2.372,2.372,0,0,1,.079.535,2.4,2.4,0,0,1-.03.5L995.871,737.527a3.025,3.025,0,0,1-3.469,2.28c-.055-.007-.109-.015-.164-.024L984,738.429l-.162-.03a3.02,3.02,0,0,1-2.552-3.27L1000.234,620.3a2.436,2.436,0,0,1,.131-.482,2.391,2.391,0,0,1,.247-.481,2.94,2.94,0,0,1,1.4-1.109,3.512,3.512,0,0,1,1.85-.185" transform="translate(-631.616 -397.795)" fill="#ffb93e"/>
            <path id="Path_1017" data-name="Path 1017" d="M1005.895,781.644l-10.15,61.516c-.218,1.321-1.738,2.189-3.419,1.982-.055-.007-.109-.015-.164-.023l-8.235-1.354-.162-.03c-1.659-.342-2.82-1.652-2.6-2.972l8.9-53.961c4.435-.155,10.7-1.188,15.829-5.156" transform="translate(-631.539 -503.129)" fill="#ffa412"/>
            <rect id="Rectangle_1102" data-name="Rectangle 1102" width="1.323" height="14.778" transform="translate(366.558 235.004) rotate(-80.622)" fill="#ffa412"/>
            <rect id="Rectangle_1103" data-name="Rectangle 1103" width="1.323" height="14.778" transform="translate(365.828 239.424) rotate(-80.638)" fill="#ffa412"/>
            <rect id="Rectangle_1104" data-name="Rectangle 1104" width="1.322" height="14.778" transform="translate(364.954 244.72) rotate(-80.636)" fill="#ffa412"/>
            <rect id="Rectangle_1105" data-name="Rectangle 1105" width="1.323" height="14.778" transform="translate(363.615 252.841) rotate(-80.638)" fill="#ffa412"/>
            <rect id="Rectangle_1106" data-name="Rectangle 1106" width="1.323" height="14.777" transform="translate(362.198 261.427) rotate(-80.638)" fill="#ffa412"/>
            <rect id="Rectangle_1107" data-name="Rectangle 1107" width="1.323" height="14.778" transform="translate(360.026 274.59) rotate(-80.636)" fill="#ffa412"/>
            <rect id="Rectangle_1108" data-name="Rectangle 1108" width="1.323" height="14.778" transform="translate(357.992 286.913) rotate(-80.622)" fill="#ffa412"/>
            <rect id="Rectangle_1109" data-name="Rectangle 1109" width="1.323" height="14.778" transform="translate(356.176 297.921) rotate(-80.638)" fill="#ffa412"/>
            <rect id="Rectangle_1110" data-name="Rectangle 1110" width="1.323" height="14.778" transform="translate(367.251 230.801) rotate(-80.636)" fill="#ffa412"/>
            <rect id="Rectangle_1111" data-name="Rectangle 1111" width="1.323" height="14.778" transform="translate(367.709 228.023) rotate(-80.638)" fill="#ffa412"/>
            <rect id="Rectangle_1112" data-name="Rectangle 1112" width="1.322" height="14.778" transform="translate(368.152 225.34) rotate(-80.636)" fill="#ffa412"/>
            <path id="Path_1018" data-name="Path 1018" d="M1034.141,624.414l14.582,2.4.134-.816a2.442,2.442,0,0,0,.03-.5l-14.481-2.381a2.436,2.436,0,0,0-.132.482Z" transform="translate(-665.657 -401.089)" fill="#ffa412"/>
            <path id="Path_1019" data-name="Path 1019" d="M1035.581,619.764l14.154,2.327a2.939,2.939,0,0,0-.973-1.5l-11.779-1.937a2.94,2.94,0,0,0-1.4,1.109" transform="translate(-666.584 -398.217)" fill="#ffa412"/>
            <path id="Path_1020" data-name="Path 1020" d="M1045.791,618.049l8.235,1.354a3.515,3.515,0,0,1,1.693.767,2.937,2.937,0,0,1,.973,1.5,2.372,2.372,0,0,1,.079.535,2.412,2.412,0,0,1-.03.5L1037.8,737.527a3.025,3.025,0,0,1-3.469,2.28c-.054-.007-.109-.015-.164-.024l-8.235-1.354-.162-.03a3.021,3.021,0,0,1-2.553-3.27L1042.159,620.3a2.42,2.42,0,0,1,.131-.482,2.384,2.384,0,0,1,.247-.481,2.939,2.939,0,0,1,1.4-1.109,3.511,3.511,0,0,1,1.85-.185" transform="translate(-658.602 -397.795)" fill="#ffb93e"/>
            <path id="Path_1021" data-name="Path 1021" d="M1047.821,781.644l-10.15,61.516c-.218,1.321-1.738,2.189-3.419,1.982-.054-.007-.109-.015-.164-.023l-8.235-1.354-.163-.03c-1.659-.342-2.819-1.652-2.6-2.972l8.9-53.961c4.435-.155,10.7-1.188,15.829-5.156" transform="translate(-658.526 -503.129)" fill="#ffa412"/>
            <rect id="Rectangle_1113" data-name="Rectangle 1113" width="1.323" height="14.778" transform="translate(381.496 235.004) rotate(-80.622)" fill="#ffa412"/>
            <rect id="Rectangle_1114" data-name="Rectangle 1114" width="1.323" height="14.778" transform="translate(380.767 239.424) rotate(-80.638)" fill="#ffa412"/>
            <rect id="Rectangle_1115" data-name="Rectangle 1115" width="1.322" height="14.778" transform="translate(379.893 244.72) rotate(-80.636)" fill="#ffa412"/>
            <rect id="Rectangle_1116" data-name="Rectangle 1116" width="1.323" height="14.778" transform="translate(378.554 252.841) rotate(-80.638)" fill="#ffa412"/>
            <rect id="Rectangle_1117" data-name="Rectangle 1117" width="1.323" height="14.777" transform="translate(377.137 261.427) rotate(-80.638)" fill="#ffa412"/>
            <rect id="Rectangle_1118" data-name="Rectangle 1118" width="1.322" height="14.778" transform="translate(374.965 274.59) rotate(-80.636)" fill="#ffa412"/>
            <rect id="Rectangle_1119" data-name="Rectangle 1119" width="1.323" height="14.778" transform="translate(372.931 286.915) rotate(-80.638)" fill="#ffa412"/>
            <rect id="Rectangle_1120" data-name="Rectangle 1120" width="1.323" height="14.778" transform="translate(371.115 297.921) rotate(-80.638)" fill="#ffa412"/>
            <rect id="Rectangle_1121" data-name="Rectangle 1121" width="1.323" height="14.777" transform="translate(382.19 230.801) rotate(-80.636)" fill="#ffa412"/>
            <rect id="Rectangle_1122" data-name="Rectangle 1122" width="1.323" height="14.778" transform="translate(382.648 228.023) rotate(-80.638)" fill="#ffa412"/>
            <rect id="Rectangle_1123" data-name="Rectangle 1123" width="1.322" height="14.778" transform="translate(383.091 225.34) rotate(-80.636)" fill="#ffa412"/>
            <path id="Path_1022" data-name="Path 1022" d="M1076.067,624.414l14.582,2.4.135-.816a2.459,2.459,0,0,0,.03-.5l-14.48-2.381a2.428,2.428,0,0,0-.132.482Z" transform="translate(-692.644 -401.089)" fill="#ffa412"/>
            <path id="Path_1023" data-name="Path 1023" d="M1077.507,619.764l14.154,2.327a2.936,2.936,0,0,0-.973-1.5l-11.778-1.937a2.94,2.94,0,0,0-1.4,1.109" transform="translate(-693.571 -398.217)" fill="#ffa412"/>
            <path id="Path_1024" data-name="Path 1024" d="M712.88,921.184l-.015,8.345a3.518,3.518,0,0,1-.486,1.795,2.937,2.937,0,0,1-1.324,1.2,2.375,2.375,0,0,1-.516.164,2.408,2.408,0,0,1-.5.051l-116.376-.276a3.024,3.024,0,0,1-2.807-3.058c0-.055,0-.11,0-.165l.015-8.345c0-.055,0-.11,0-.165a3.02,3.02,0,0,1,2.818-3.044l116.376.276a2.521,2.521,0,0,1,1.011.219,2.936,2.936,0,0,1,1.319,1.207,3.509,3.509,0,0,1,.48,1.8" transform="translate(-380.323 -590.696)" fill="#ffb93e"/>
            <path id="Path_1025" data-name="Path 1025" d="M655.712,932.608l-62.347-.148c-1.339,0-2.439-1.364-2.505-3.057,0-.055,0-.11,0-.165l.015-8.346c0-.055,0-.11,0-.165.071-1.692,1.177-3.048,2.516-3.045l54.691.13c.865,4.352,2.89,10.373,7.63,14.8" transform="translate(-380.323 -590.694)" fill="#ffa412"/>
            <rect id="Rectangle_1124" data-name="Rectangle 1124" width="14.778" height="1.323" transform="matrix(0.002, -1, 1, 0.002, 317.048, 342.012)" fill="#ffa412"/>
            <rect id="Rectangle_1125" data-name="Rectangle 1125" width="14.778" height="1.323" transform="matrix(0.002, -1, 1, 0.002, 312.57, 342.002)" fill="#ffa412"/>
            <rect id="Rectangle_1126" data-name="Rectangle 1126" width="14.778" height="1.323" transform="matrix(0.003, -1, 1, 0.003, 307.199, 341.989)" fill="#ffa412"/>
            <rect id="Rectangle_1127" data-name="Rectangle 1127" width="14.778" height="1.323" transform="matrix(0.002, -1, 1, 0.002, 298.972, 341.97)" fill="#ffa412"/>
            <rect id="Rectangle_1128" data-name="Rectangle 1128" width="14.778" height="1.322" transform="matrix(0.002, -1, 1, 0.002, 290.269, 341.949)" fill="#ffa412"/>
            <rect id="Rectangle_1129" data-name="Rectangle 1129" width="14.778" height="1.323" transform="matrix(0.002, -1, 1, 0.002, 276.928, 341.917)" fill="#ffa412"/>
            <rect id="Rectangle_1130" data-name="Rectangle 1130" width="14.778" height="1.323" transform="translate(264.436 341.888) rotate(-89.861)" fill="#ffa412"/>
            <rect id="Rectangle_1131" data-name="Rectangle 1131" width="14.778" height="1.323" transform="matrix(0.003, -1, 1, 0.003, 253.28, 341.861)" fill="#ffa412"/>
            <rect id="Rectangle_1132" data-name="Rectangle 1132" width="14.778" height="1.323" transform="translate(321.309 342.023) rotate(-89.861)" fill="#ffa412"/>
            <rect id="Rectangle_1133" data-name="Rectangle 1133" width="14.778" height="1.323" transform="matrix(0.002, -1, 1, 0.002, 324.127, 342.03)" fill="#ffa412"/>
            <rect id="Rectangle_1134" data-name="Rectangle 1134" width="14.778" height="1.323" transform="matrix(0.002, -1, 1, 0.002, 326.844, 342.036)" fill="#ffa412"/>
            <path id="Path_1026" data-name="Path 1026" d="M923.058,918.454l-.027,14.778.826,0a2.427,2.427,0,0,0,.5-.05l.027-14.675a2.443,2.443,0,0,0-.5-.052Z" transform="translate(-594.138 -591.192)" fill="#ffa412"/>
            <path id="Path_1027" data-name="Path 1027" d="M928.217,919.075l-.026,14.344a2.939,2.939,0,0,0,1.324-1.2l.021-11.937a2.936,2.936,0,0,0-1.319-1.207" transform="translate(-597.459 -591.591)" fill="#ffa412"/>
            <path id="Path_1028" data-name="Path 1028" d="M678.036,879.627l-.016,8.345a3.52,3.52,0,0,1-.485,1.795,2.939,2.939,0,0,1-1.324,1.2,2.527,2.527,0,0,1-1.012.215l-116.377-.277a3.024,3.024,0,0,1-2.807-3.057c0-.055,0-.11,0-.165l.015-8.345c0-.055,0-.11,0-.165a3.02,3.02,0,0,1,2.818-3.044l116.376.276q.113,0,.223.011a.776.776,0,0,1,.095.011c.034,0,.07.009.1.016s.05.009.075.015a2.4,2.4,0,0,1,.514.166l.073.034c.023.011.048.023.071.036l.142.078.081.052c.025.016.048.03.072.048.045.03.088.062.132.1s.1.081.145.123.073.066.109.1a.026.026,0,0,1,.006.007c.023.023.048.048.071.073a2.874,2.874,0,0,1,.2.24c.02.025.039.05.056.075s.036.051.054.078c.036.053.072.109.1.164a3.513,3.513,0,0,1,.48,1.8" transform="translate(-357.895 -563.947)" fill="#ffb93e"/>
            <path id="Path_1029" data-name="Path 1029" d="M620.867,891.052,558.52,890.9c-1.339,0-2.439-1.364-2.5-3.057,0-.055,0-.11,0-.165l.015-8.346c0-.055,0-.11,0-.165.072-1.693,1.176-3.048,2.516-3.045l54.689.13c.025.12.049.241.076.364.906,4.319,2.945,10.132,7.555,14.432" transform="translate(-357.894 -563.946)" fill="#ffa412"/>
            <rect id="Rectangle_1135" data-name="Rectangle 1135" width="14.778" height="1.323" transform="translate(304.631 327.205) rotate(-89.861)" fill="#ffa412"/>
            <rect id="Rectangle_1136" data-name="Rectangle 1136" width="14.778" height="1.322" transform="matrix(0.002, -1, 1, 0.002, 300.154, 327.194)" fill="#ffa412"/>
            <rect id="Rectangle_1137" data-name="Rectangle 1137" width="14.778" height="1.323" transform="matrix(0.002, -1, 1, 0.002, 294.785, 327.181)" fill="#ffa412"/>
            <rect id="Rectangle_1138" data-name="Rectangle 1138" width="14.778" height="1.322" transform="matrix(0.002, -1, 1, 0.002, 286.556, 327.162)" fill="#ffa412"/>
            <rect id="Rectangle_1139" data-name="Rectangle 1139" width="14.777" height="1.323" transform="translate(277.855 327.141) rotate(-89.876)" fill="#ffa412"/>
            <rect id="Rectangle_1140" data-name="Rectangle 1140" width="14.778" height="1.322" transform="translate(264.51 327.109) rotate(-89.846)" fill="#ffa412"/>
            <rect id="Rectangle_1141" data-name="Rectangle 1141" width="14.778" height="1.323" transform="matrix(0.002, -1, 1, 0.002, 252.02, 327.08)" fill="#ffa412"/>
            <rect id="Rectangle_1142" data-name="Rectangle 1142" width="14.778" height="1.323" transform="translate(240.868 327.054) rotate(-89.876)" fill="#ffa412"/>
            <rect id="Rectangle_1143" data-name="Rectangle 1143" width="14.778" height="1.323" transform="matrix(0.002, -1, 1, 0.002, 308.893, 327.215)" fill="#ffa412"/>
            <rect id="Rectangle_1144" data-name="Rectangle 1144" width="14.778" height="1.322" transform="matrix(0.002, -1, 1, 0.002, 311.709, 327.222)" fill="#ffa412"/>
            <rect id="Rectangle_1145" data-name="Rectangle 1145" width="14.778" height="1.323" transform="matrix(0.002, -1, 1, 0.002, 314.428, 327.228)" fill="#ffa412"/>
            <path id="Path_1030" data-name="Path 1030" d="M888.212,876.9l-.027,14.778h.827a2.41,2.41,0,0,0,.5-.05l.027-14.675a2.422,2.422,0,0,0-.5-.053Z" transform="translate(-571.708 -564.441)" fill="#ffa412"/>
            <path id="Path_1031" data-name="Path 1031" d="M893.373,877.519l-.026,14.344a2.94,2.94,0,0,0,1.324-1.2l.021-11.937a2.936,2.936,0,0,0-1.319-1.207" transform="translate(-575.03 -564.842)" fill="#ffa412"/>
            <path id="Path_1032" data-name="Path 1032" d="M694.984,839.217l-.015,8.345a3.512,3.512,0,0,1-.486,1.794,2.937,2.937,0,0,1-1.323,1.2,2.517,2.517,0,0,1-1.013.215L575.772,850.5a2.513,2.513,0,0,1-1.3-.367,3.27,3.27,0,0,1-1.5-2.546c-.005-.048-.008-.1-.009-.144s0-.11,0-.166l.015-8.345c0-.055,0-.11,0-.165a3.02,3.02,0,0,1,2.818-3.044l116.376.276a2.469,2.469,0,0,1,.5.053,2.362,2.362,0,0,1,.515.166,2.939,2.939,0,0,1,1.319,1.207,3.51,3.51,0,0,1,.479,1.8" transform="translate(-368.805 -537.936)" fill="#ffb93e"/>
            <path id="Path_1033" data-name="Path 1033" d="M637.816,850.641l-62.347-.148a2.07,2.07,0,0,1-1.157-.367,3.344,3.344,0,0,1-1.338-2.546c0-.048-.008-.1-.009-.144s0-.111,0-.166l.015-8.345c0-.055,0-.11,0-.165.072-1.692,1.178-3.048,2.516-3.045l54.691.13c.842,4.233,2.78,10.046,7.248,14.431q.188.184.382.365" transform="translate(-368.804 -537.934)" fill="#ffa412"/>
            <path id="Path_1034" data-name="Path 1034" d="M702.883,797.762l-.015,8.345a3.509,3.509,0,0,1-.486,1.794,2.932,2.932,0,0,1-1.324,1.2,2.374,2.374,0,0,1-.515.164,2.419,2.419,0,0,1-.5.051L583.67,809.04a3.024,3.024,0,0,1-2.807-3.057c0-.055,0-.11,0-.166l.015-8.345c0-.055,0-.11,0-.165a3.08,3.08,0,0,1,2.485-3.022,2.291,2.291,0,0,1,.334-.022l116.376.276a2.4,2.4,0,0,1,.5.053,2.373,2.373,0,0,1,.515.167,2.937,2.937,0,0,1,1.319,1.207,3.511,3.511,0,0,1,.479,1.8" transform="translate(-373.888 -511.252)" fill="#ffb93e"/>
            <path id="Path_1035" data-name="Path 1035" d="M645.715,809.185l-62.348-.148c-1.338,0-2.439-1.364-2.5-3.057,0-.055,0-.11,0-.166l.015-8.345c0-.055,0-.11,0-.165a3.008,3.008,0,0,1,2.219-3.022,1.848,1.848,0,0,1,.3-.023l54.69.13c0,.007,0,.016,0,.023.868,4.348,2.894,10.357,7.625,14.773" transform="translate(-373.888 -511.25)" fill="#ffa412"/>
            <path id="Path_1036" data-name="Path 1036" d="M678.947,756.3l-.015,8.345a3.512,3.512,0,0,1-.486,1.794,2.935,2.935,0,0,1-1.324,1.2,2.4,2.4,0,0,1-.515.165c-.055.01-.109.021-.163.028l-.092.01c-.03,0-.061.005-.092.007-.05,0-.1,0-.15,0l-116.376-.276a3.024,3.024,0,0,1-2.807-3.057c0-.055,0-.11,0-.165l.015-8.345c0-.056,0-.111,0-.166s0-.091.008-.135a3.137,3.137,0,0,1,2.116-2.811c.028-.009.058-.016.086-.023a2.466,2.466,0,0,1,.609-.075l116.376.276c.086,0,.17.006.252.013l.113.015h0c.043.007.087.016.13.026a2.354,2.354,0,0,1,.515.166,2.936,2.936,0,0,1,1.319,1.207,3.511,3.511,0,0,1,.48,1.8" transform="translate(-358.481 -484.561)" fill="#ffb93e"/>
            <path id="Path_1037" data-name="Path 1037" d="M621.778,767.721l-62.347-.148c-1.338,0-2.439-1.364-2.5-3.057,0-.055,0-.11,0-.165l.015-8.345c0-.055,0-.11,0-.166s.005-.09.008-.135a3.075,3.075,0,0,1,1.955-2.831.789.789,0,0,1,.108-.028,1.938,1.938,0,0,1,.445-.051l54.691.13c.006.035.014.069.021.105.875,4.336,2.9,10.283,7.583,14.668l.025.023" transform="translate(-358.481 -484.56)" fill="#ffa412"/>
            <path id="Path_1038" data-name="Path 1038" d="M678.335,715.116l-.015,8.345a3.51,3.51,0,0,1-.485,1.794,2.94,2.94,0,0,1-1.324,1.2,2.332,2.332,0,0,1-.4.137h0c-.037.01-.073.02-.11.026a2.376,2.376,0,0,1-.5.05l-116.376-.276a2.184,2.184,0,0,1-.365-.03,1.108,1.108,0,0,1-.138-.025,3.117,3.117,0,0,1-2.3-3c0-.055,0-.11,0-.165l.015-8.345c0-.056,0-.11,0-.165a3.02,3.02,0,0,1,2.818-3.044l116.376.276c.074,0,.149,0,.222.011l.095.011a1.035,1.035,0,0,1,.1.016c.025,0,.05.009.074.015a2.361,2.361,0,0,1,.515.166l.073.034c.024.01.048.023.072.036.048.025.095.052.141.078s.1.064.153.1.088.062.132.1.1.081.144.123.073.066.109.1a.02.02,0,0,1,.006.007c.024.023.049.048.072.073a3.039,3.039,0,0,1,.2.24c.02.025.038.05.056.075l.054.079c.036.053.071.109.1.164a3.506,3.506,0,0,1,.479,1.8" transform="translate(-358.087 -458.054)" fill="#ffb93e"/>
            <path id="Path_1039" data-name="Path 1039" d="M621.167,726.54l-62.347-.148c-.05,0-.1,0-.148-.006s-.107-.011-.16-.02a3.014,3.014,0,0,1-2.2-3.031c0-.055,0-.11,0-.165l.015-8.345c0-.055,0-.11,0-.165.072-1.693,1.176-3.048,2.516-3.045l54.689.13c.024.12.05.242.076.365.9,4.283,2.913,10.036,7.444,14.326.037.036.074.069.112.105" transform="translate(-358.087 -458.053)" fill="#ffa412"/>
            <path id="Path_1040" data-name="Path 1040" d="M695.284,674.7l-.015,8.346a3.516,3.516,0,0,1-.486,1.794,2.937,2.937,0,0,1-1.324,1.2,2.511,2.511,0,0,1-1.012.215l-116.376-.277a2.517,2.517,0,0,1-1.3-.367,3.271,3.271,0,0,1-1.5-2.546c0-.048-.007-.1-.009-.144s0-.11,0-.165l.015-8.345c0-.055,0-.11,0-.165a3.02,3.02,0,0,1,2.819-3.044l116.376.276a2.413,2.413,0,0,1,.5.053,2.355,2.355,0,0,1,.515.167,2.934,2.934,0,0,1,1.319,1.207,3.516,3.516,0,0,1,.479,1.8" transform="translate(-368.997 -432.043)" fill="#ffb93e"/>
            <path id="Path_1041" data-name="Path 1041" d="M638.115,686.129l-62.347-.147a2.07,2.07,0,0,1-1.157-.368,3.344,3.344,0,0,1-1.338-2.546c0-.048-.008-.1-.009-.144s0-.11,0-.165l.015-8.345c0-.055,0-.11,0-.165.072-1.693,1.178-3.048,2.516-3.045l54.691.13c.842,4.233,2.78,10.046,7.248,14.431q.189.184.382.365" transform="translate(-368.996 -432.041)" fill="#ffa412"/>
            <path id="Path_1042" data-name="Path 1042" d="M722.049,633.294l-.015,8.346a3.517,3.517,0,0,1-.486,1.794,2.937,2.937,0,0,1-1.324,1.2,2.509,2.509,0,0,1-1.013.214l-116.376-.276a3.024,3.024,0,0,1-2.807-3.058c0-.055,0-.11,0-.165l.015-8.345c0-.055,0-.111,0-.165a3.082,3.082,0,0,1,2.485-3.022,2.355,2.355,0,0,1,.333-.022l116.376.277a2.525,2.525,0,0,1,1.011.219,2.939,2.939,0,0,1,1.32,1.207,3.513,3.513,0,0,1,.479,1.8" transform="translate(-386.225 -405.387)" fill="#ffb93e"/>
            <path id="Path_1043" data-name="Path 1043" d="M664.881,644.719l-62.348-.148c-1.338,0-2.439-1.364-2.5-3.057,0-.055,0-.11,0-.165l.015-8.345c0-.055,0-.11,0-.165a3.01,3.01,0,0,1,2.219-3.023,1.808,1.808,0,0,1,.3-.022l54.691.13c0,.007,0,.016,0,.023.868,4.351,2.893,10.358,7.625,14.773" transform="translate(-386.225 -405.386)" fill="#ffa412"/>
            <path id="Path_1044" data-name="Path 1044" d="M679.245,591.784l-.015,8.345a3.513,3.513,0,0,1-.486,1.794,2.936,2.936,0,0,1-1.324,1.2,2.389,2.389,0,0,1-.515.164c-.054.01-.109.021-.163.028s-.088.011-.132.014l-.065.006c-.045,0-.09,0-.137,0l-116.376-.277a3.023,3.023,0,0,1-2.807-3.057c0-.055,0-.11,0-.166l.015-8.345c0-.055,0-.11,0-.165a3.021,3.021,0,0,1,2.819-3.044l116.375.276c.05,0,.1,0,.15.006a2.446,2.446,0,0,1,.347.047,2.547,2.547,0,0,1,.759.292c.05.029.1.057.145.089a.044.044,0,0,1,.016.01c.048.032.095.066.141.1a.13.13,0,0,1,.024.018,1.435,1.435,0,0,1,.125.105,2.5,2.5,0,0,1,.28.28,1.13,1.13,0,0,1,.079.094.109.109,0,0,1,.014.018.679.679,0,0,1,.048.061.058.058,0,0,1,.009.013c.028.037.056.077.083.118.039.057.076.114.112.174a3.513,3.513,0,0,1,.48,1.8" transform="translate(-358.673 -378.668)" fill="#ffb93e"/>
            <path id="Path_1045" data-name="Path 1045" d="M622.077,603.208l-62.347-.148c-1.338,0-2.44-1.364-2.5-3.057,0-.055,0-.11,0-.166l.015-8.345c0-.055,0-.11,0-.165.072-1.692,1.178-3.048,2.517-3.045l54.69.13c.022.112.045.226.071.341.9,4.314,2.934,10.125,7.534,14.431l.025.023" transform="translate(-358.673 -378.666)" fill="#ffa412"/>
            <path id="Path_1046" data-name="Path 1046" d="M703.331,551.325l-.015,8.346a3.514,3.514,0,0,1-.486,1.794,2.937,2.937,0,0,1-1.324,1.2,2.522,2.522,0,0,1-1.012.215L584.118,562.6a2.5,2.5,0,0,1-1.257-.344,3.258,3.258,0,0,1-1.542-2.582c0-.043-.006-.087-.007-.132s0-.11,0-.165l.016-8.345c0-.056,0-.11,0-.165a3.08,3.08,0,0,1,2.484-3.022,2.255,2.255,0,0,1,.334-.022l116.376.276a2.507,2.507,0,0,1,1.011.219,2.942,2.942,0,0,1,1.319,1.207,3.515,3.515,0,0,1,.479,1.8" transform="translate(-374.177 -352.625)" fill="#ffb93e"/>
            <path id="Path_1047" data-name="Path 1047" d="M646.163,562.75l-62.348-.148a2.051,2.051,0,0,1-1.121-.344,3.331,3.331,0,0,1-1.376-2.581c0-.043-.006-.087-.007-.131s0-.11,0-.165l.015-8.345c0-.055,0-.11,0-.165a3.01,3.01,0,0,1,2.219-3.023,1.8,1.8,0,0,1,.3-.022l54.69.13c0,.007,0,.016.005.023.845,4.239,2.791,10.052,7.267,14.431.116.116.236.23.357.342" transform="translate(-374.177 -352.624)" fill="#ffa412"/>
            <path id="Path_1048" data-name="Path 1048" d="M679.395,509.86l-.015,8.346a3.51,3.51,0,0,1-.486,1.794,2.934,2.934,0,0,1-1.324,1.2,2.393,2.393,0,0,1-.515.164c-.054.01-.109.021-.164.028l-.092.011c-.03,0-.061,0-.092.007-.05,0-.1.005-.15.005l-116.376-.277a3.024,3.024,0,0,1-2.807-3.057c0-.055,0-.11,0-.166l.015-8.345c0-.055,0-.11,0-.166a3.02,3.02,0,0,1,2.818-3.044l116.376.276a2.463,2.463,0,0,1,.5.053,2.387,2.387,0,0,1,.515.167,2.935,2.935,0,0,1,1.319,1.207,3.509,3.509,0,0,1,.48,1.8" transform="translate(-358.77 -325.935)" fill="#ffb93e"/>
            <path id="Path_1049" data-name="Path 1049" d="M622.226,521.284l-62.348-.148c-1.338,0-2.439-1.364-2.5-3.057,0-.055,0-.111,0-.166l.015-8.345c0-.055,0-.11,0-.166.072-1.692,1.178-3.048,2.516-3.045l54.691.13c.864,4.346,2.883,10.352,7.6,14.773l.025.023" transform="translate(-358.769 -325.933)" fill="#ffa412"/>
            <rect id="Rectangle_1146" data-name="Rectangle 1146" width="14.778" height="1.322" transform="matrix(0.002, -1, 1, 0.002, 310.671, 312.806)" fill="#ffa412"/>
            <rect id="Rectangle_1147" data-name="Rectangle 1147" width="14.778" height="1.323" transform="translate(306.196 312.795) rotate(-89.876)" fill="#ffa412"/>
            <rect id="Rectangle_1148" data-name="Rectangle 1148" width="14.778" height="1.323" transform="translate(300.827 312.783) rotate(-89.876)" fill="#ffa412"/>
            <rect id="Rectangle_1149" data-name="Rectangle 1149" width="14.778" height="1.322" transform="matrix(0.002, -1, 1, 0.002, 292.595, 312.763)" fill="#ffa412"/>
            <rect id="Rectangle_1150" data-name="Rectangle 1150" width="14.778" height="1.323" transform="translate(283.892 312.742) rotate(-89.861)" fill="#ffa412"/>
            <rect id="Rectangle_1151" data-name="Rectangle 1151" width="14.778" height="1.322" transform="matrix(0.002, -1, 1, 0.002, 270.551, 312.711)" fill="#ffa412"/>
            <rect id="Rectangle_1152" data-name="Rectangle 1152" width="14.778" height="1.323" transform="translate(258.061 312.681) rotate(-89.876)" fill="#ffa412"/>
            <rect id="Rectangle_1153" data-name="Rectangle 1153" width="14.778" height="1.322" transform="matrix(0.002, -1, 1, 0.002, 246.905, 312.654)" fill="#ffa412"/>
            <rect id="Rectangle_1154" data-name="Rectangle 1154" width="14.778" height="1.323" transform="matrix(0.002, -1, 1, 0.002, 314.933, 312.816)" fill="#ffa412"/>
            <rect id="Rectangle_1155" data-name="Rectangle 1155" width="14.778" height="1.322" transform="translate(317.75 312.823) rotate(-89.876)" fill="#ffa412"/>
            <rect id="Rectangle_1156" data-name="Rectangle 1156" width="14.778" height="1.323" transform="matrix(0.002, -1, 1, 0.002, 320.467, 312.829)" fill="#ffa412"/>
            <path id="Path_1050" data-name="Path 1050" d="M905.162,836.486l-.026,14.778.826,0a2.426,2.426,0,0,0,.5-.05l.027-14.675a2.477,2.477,0,0,0-.5-.053Z" transform="translate(-582.619 -538.43)" fill="#ffa412"/>
            <path id="Path_1051" data-name="Path 1051" d="M910.322,837.107l-.026,14.344a2.942,2.942,0,0,0,1.324-1.2l.021-11.937a2.938,2.938,0,0,0-1.32-1.207" transform="translate(-585.94 -538.83)" fill="#ffa412"/>
            <rect id="Rectangle_1157" data-name="Rectangle 1157" width="14.778" height="1.323" transform="matrix(0.002, -1, 1, 0.002, 273.366, 297.939)" fill="#ffa412"/>
            <rect id="Rectangle_1158" data-name="Rectangle 1158" width="14.778" height="1.323" transform="matrix(0.002, -1, 1, 0.002, 260.874, 297.909)" fill="#ffa412"/>
            <rect id="Rectangle_1159" data-name="Rectangle 1159" width="14.778" height="1.323" transform="translate(249.72 297.883) rotate(-89.861)" fill="#ffa412"/>
            <path id="Path_1052" data-name="Path 1052" d="M890.975,730.566,891,715.788l-1.16,0c.062-.008.123-.016.184-.029l.027-14.674a2.388,2.388,0,0,0-.245-.039l.026-14.32h.515l-.026,14.2a2.939,2.939,0,0,0,1.324-1.2l.021-11.937a3,3,0,0,0-1.048-1.058h.462l.027-14.778-1.323,0-.026,14.453a2.439,2.439,0,0,0-.422-.041l-.827,0-.027,14.778h.245l-.027,14.672.826,0c.051,0,.1,0,.15-.007l-.027,14.763Z" transform="translate(-571.901 -432.518)" fill="#ffa412"/>
            <rect id="Rectangle_1160" data-name="Rectangle 1160" width="14.778" height="1.323" transform="translate(320.563 298.051) rotate(-89.861)" fill="#ffa412"/>
            <rect id="Rectangle_1161" data-name="Rectangle 1161" width="14.778" height="1.323" transform="translate(323.279 298.057) rotate(-89.845)" fill="#ffa412"/>
            <path id="Path_1053" data-name="Path 1053" d="M913.061,795.03l-.027,14.778.826,0a2.422,2.422,0,0,0,.5-.051l.026-14.674a2.4,2.4,0,0,0-.5-.053Z" transform="translate(-587.703 -511.746)" fill="#ffa412"/>
            <path id="Path_1054" data-name="Path 1054" d="M918.219,795.651l-.026,14.344a2.936,2.936,0,0,0,1.324-1.2l.022-11.937a2.937,2.937,0,0,0-1.319-1.207" transform="translate(-591.023 -512.146)" fill="#ffa412"/>
            <path id="Path_1055" data-name="Path 1055" d="M854.808,741.762l.027-14.778h-.244l.027-14.672-1.323,0-.027,14.778h.244l-.027,14.649-1.29,0-.027,14.778,1.323,0,.027-14.754Z" transform="translate(-548.524 -458.5)" fill="#ffa412"/>
            <path id="Path_1056" data-name="Path 1056" d="M829.188,726.919h-.245l.027-14.672-1.323,0-.027,14.778h.244l-.027,14.672h.326l-.027,14.755,1.323,0,.027-14.778h-.326Z" transform="translate(-532.723 -458.457)" fill="#ffa412"/>
            <path id="Path_1057" data-name="Path 1057" d="M894.283,754.186l-.026,14.344a2.939,2.939,0,0,0,1.324-1.2l.022-11.937a2.94,2.94,0,0,0-1.319-1.207" transform="translate(-575.616 -485.455)" fill="#ffa412"/>
            <path id="Path_1058" data-name="Path 1058" d="M805.873,712.191l-1.323,0-.027,14.778h.244l-.026,14.649h-.147l-.027,14.778,1.323,0,.027-14.755h.146l.027-14.778h-.244Z" transform="translate(-517.856 -458.422)" fill="#ffa412"/>
            <path id="Path_1059" data-name="Path 1059" d="M781.449,712.133l-1.323,0-.027,14.778h.245l-.027,14.672,1.323,0,.027-14.778h-.244Z" transform="translate(-502.135 -458.384)" fill="#ffa412"/>
            <path id="Path_1060" data-name="Path 1060" d="M744.007,712.044l-1.323,0-.027,14.778h.244l-.026,14.672,1.323,0,.027-14.778h-.244Z" transform="translate(-478.034 -458.328)" fill="#ffa412"/>
            <path id="Path_1061" data-name="Path 1061" d="M708.95,711.961l-1.323,0-.027,14.778h.244l-.027,14.672,1.323,0,.027-14.778h-.245Z" transform="translate(-455.469 -458.274)" fill="#ffa412"/>
            <path id="Path_1062" data-name="Path 1062" d="M677.645,711.887l-1.323,0-.027,14.778h.245l-.027,14.673,1.323,0,.027-14.777h-.244Z" transform="translate(-435.319 -458.226)" fill="#ffa412"/>
            <path id="Path_1063" data-name="Path 1063" d="M868.563,712.34l-1.323,0-.027,14.778h.244l-.027,14.649h-.183l-.027,14.778,1.323,0,.027-14.755h.184l.027-14.777h-.245Z" transform="translate(-558.209 -458.518)" fill="#ffa412"/>
            <path id="Path_1064" data-name="Path 1064" d="M874.589,686.317l-1.064,0,.026-14.413-1.323,0-.027,14.778,1.064,0-.026,14.413h.244l-.026,14.672,1.322,0,.027-14.777h-.244Z" transform="translate(-561.42 -432.488)" fill="#ffa412"/>
            <rect id="Rectangle_1162" data-name="Rectangle 1162" width="14.778" height="1.322" transform="matrix(0.002, -1, 1, 0.002, 306.3, 254.177)" fill="#ffa412"/>
            <path id="Path_1065" data-name="Path 1065" d="M843.359,686.246h-.644l-.026,14.778h.244l-.027,14.672,1.323,0,.027-14.778h-.245l.026-14.308h.644l.027-14.777-1.323,0Z" transform="translate(-542.422 -432.446)" fill="#ffa412"/>
            <rect id="Rectangle_1163" data-name="Rectangle 1163" width="14.778" height="1.323" transform="translate(292.7 254.145) rotate(-89.845)" fill="#ffa412"/>
            <rect id="Rectangle_1164" data-name="Rectangle 1164" width="14.778" height="1.323" transform="translate(283.999 254.124) rotate(-89.861)" fill="#ffa412"/>
            <rect id="Rectangle_1165" data-name="Rectangle 1165" width="14.778" height="1.322" transform="matrix(0.002, -1, 1, 0.002, 270.658, 254.092)" fill="#ffa412"/>
            <rect id="Rectangle_1166" data-name="Rectangle 1166" width="14.778" height="1.323" transform="translate(258.168 254.063) rotate(-89.876)" fill="#ffa412"/>
            <rect id="Rectangle_1167" data-name="Rectangle 1167" width="14.778" height="1.323" transform="translate(247.012 254.037) rotate(-89.861)" fill="#ffa412"/>
            <path id="Path_1066" data-name="Path 1066" d="M881.356,686.34h-.479l-.027,14.777h.245l-.027,14.649-1.24,0-.027,14.778,1.323,0,.027-14.755,1.24,0,.027-14.778h-.244l.026-14.308h.479l.027-14.777-1.323,0Z" transform="translate(-566.312 -432.507)" fill="#ffa412"/>
            <rect id="Rectangle_1168" data-name="Rectangle 1168" width="14.778" height="1.323" transform="matrix(0.002, -1, 1, 0.002, 320.574, 254.211)" fill="#ffa412"/>
            <path id="Path_1067" data-name="Path 1067" d="M906.757,686.7l.027-14.675a2.445,2.445,0,0,0-.5-.053l-.827,0-.027,14.778.827,0a2.422,2.422,0,0,0,.5-.051" transform="translate(-582.811 -432.538)" fill="#ffa412"/>
            <path id="Path_1068" data-name="Path 1068" d="M911.918,685.74l.022-11.937a2.941,2.941,0,0,0-1.32-1.207l-.026,14.344a2.933,2.933,0,0,0,1.324-1.2" transform="translate(-586.132 -432.937)" fill="#ffa412"/>
            <rect id="Rectangle_1169" data-name="Rectangle 1169" width="14.778" height="1.322" transform="translate(320.315 239.432) rotate(-89.862)" fill="#ffa412"/>
            <rect id="Rectangle_1170" data-name="Rectangle 1170" width="14.778" height="1.322" transform="matrix(0.002, -1, 1, 0.002, 302.239, 239.389)" fill="#ffa412"/>
            <rect id="Rectangle_1171" data-name="Rectangle 1171" width="14.778" height="1.323" transform="translate(293.537 239.369) rotate(-89.861)" fill="#ffa412"/>
            <rect id="Rectangle_1172" data-name="Rectangle 1172" width="14.778" height="1.322" transform="matrix(0.002, -1, 1, 0.002, 280.195, 239.337)" fill="#ffa412"/>
            <rect id="Rectangle_1173" data-name="Rectangle 1173" width="14.778" height="1.323" transform="matrix(0.002, -1, 1, 0.002, 267.704, 239.307)" fill="#ffa412"/>
            <rect id="Rectangle_1174" data-name="Rectangle 1174" width="14.778" height="1.323" transform="translate(256.552 239.281) rotate(-89.876)" fill="#ffa412"/>
            <rect id="Rectangle_1175" data-name="Rectangle 1175" width="14.778" height="1.323" transform="translate(324.577 239.442) rotate(-89.862)" fill="#ffa412"/>
            <rect id="Rectangle_1176" data-name="Rectangle 1176" width="14.778" height="1.322" transform="matrix(0.002, -1, 1, 0.002, 327.393, 239.449)" fill="#ffa412"/>
            <rect id="Rectangle_1177" data-name="Rectangle 1177" width="14.778" height="1.322" transform="matrix(0.002, -1, 1, 0.002, 330.111, 239.455)" fill="#ffa412"/>
            <path id="Path_1069" data-name="Path 1069" d="M932.228,630.565l-.026,14.778.826,0a2.437,2.437,0,0,0,.5-.051l.027-14.675a2.47,2.47,0,0,0-.5-.052Z" transform="translate(-600.041 -405.883)" fill="#ffa412"/>
            <path id="Path_1070" data-name="Path 1070" d="M937.388,631.186l-.026,14.344a2.945,2.945,0,0,0,1.324-1.2l.021-11.937a2.936,2.936,0,0,0-1.32-1.207" transform="translate(-603.362 -406.283)" fill="#ffa412"/>
            <path id="Path_1071" data-name="Path 1071" d="M853.881,551.022l1.323,0,.027-14.778-1.29,0,.026-14.414,1.29,0,.027-14.778-1.323,0-.027,14.754-1.29,0-.027,14.778,1.29,0Z" transform="translate(-548.813 -326.381)" fill="#ffa412"/>
            <rect id="Rectangle_1178" data-name="Rectangle 1178" width="14.777" height="1.323" transform="matrix(0.003, -1, 1, 0.003, 300.584, 224.63)" fill="#ffa412"/>
            <rect id="Rectangle_1179" data-name="Rectangle 1179" width="14.778" height="1.323" transform="matrix(0.002, -1, 1, 0.002, 278.284, 224.578)" fill="#ffa412"/>
            <rect id="Rectangle_1180" data-name="Rectangle 1180" width="14.778" height="1.322" transform="matrix(0.002, -1, 1, 0.002, 264.943, 224.546)" fill="#ffa412"/>
            <rect id="Rectangle_1181" data-name="Rectangle 1181" width="14.778" height="1.323" transform="matrix(0.002, -1, 1, 0.002, 252.452, 224.516)" fill="#ffa412"/>
            <rect id="Rectangle_1182" data-name="Rectangle 1182" width="14.778" height="1.323" transform="translate(241.297 224.49) rotate(-89.861)" fill="#ffa412"/>
            <path id="Path_1072" data-name="Path 1072" d="M867.842,551.05l1.171,0-.027,14.755,1.323,0,.027-14.778-1.171,0,.027-14.754h-.183l.026-14.414h.183l.027-14.778-1.323,0-.027,14.755h-.182l-.027,14.778h.183Z" transform="translate(-558.512 -326.399)" fill="#ffa412"/>
            <rect id="Rectangle_1183" data-name="Rectangle 1183" width="14.778" height="1.322" transform="matrix(0.002, -1, 1, 0.002, 312.145, 224.658)" fill="#ffa412"/>
            <path id="Path_1073" data-name="Path 1073" d="M885.6,536.659h.233l.027-14.778-1.16,0c.061-.008.123-.016.184-.028l.027-14.675a2.391,2.391,0,0,0-.5-.053l-.826,0-.027,14.778.826,0c.051,0,.1,0,.15-.007l-.027,14.429c-.049,0-.1-.008-.15-.009l-.827,0-.027,14.755h-.723l.027-14.755-1.24,0,.026-14.414,1.24,0,.027-14.778-1.323,0-.027,14.755-1.24,0-.027,14.778,1.24,0-.026,14.437,1.005,0-.027,14.755,1.323,0,.027-14.755h.543a2.421,2.421,0,0,0,.5-.051l.026-14.385h.515l-.026,14.22a2.932,2.932,0,0,0,1.323-1.2l.022-11.937a2.984,2.984,0,0,0-1.092-1.082" transform="translate(-566.599 -326.422)" fill="#ffa412"/>
            <rect id="Rectangle_1184" data-name="Rectangle 1184" width="14.778" height="1.322" transform="translate(273.527 210.13) rotate(-89.876)" fill="#ffa412"/>
            <rect id="Rectangle_1185" data-name="Rectangle 1185" width="14.778" height="1.323" transform="matrix(0.002, -1, 1, 0.002, 261.034, 210.1)" fill="#ffa412"/>
            <rect id="Rectangle_1186" data-name="Rectangle 1186" width="14.778" height="1.323" transform="translate(249.879 210.074) rotate(-89.861)" fill="#ffa412"/>
            <rect id="Rectangle_1187" data-name="Rectangle 1187" width="14.778" height="1.322" transform="matrix(0.002, -1, 1, 0.002, 320.723, 210.242)" fill="#ffa412"/>
            <rect id="Rectangle_1188" data-name="Rectangle 1188" width="14.778" height="1.322" transform="translate(323.441 210.248) rotate(-89.862)" fill="#ffa412"/>
            <path id="Path_1074" data-name="Path 1074" d="M913.509,548.595l-.027,14.778h.827a2.426,2.426,0,0,0,.5-.05l.026-14.675a2.44,2.44,0,0,0-.5-.053Z" transform="translate(-587.991 -353.12)" fill="#ffa412"/>
            <path id="Path_1075" data-name="Path 1075" d="M919.965,562.359l.022-11.937a2.944,2.944,0,0,0-1.319-1.207l-.026,14.344a2.932,2.932,0,0,0,1.323-1.2" transform="translate(-591.312 -353.52)" fill="#ffa412"/>
            <rect id="Rectangle_1189" data-name="Rectangle 1189" width="14.778" height="1.323" transform="translate(300.639 195.439) rotate(-89.862)" fill="#ffa412"/>
            <path id="Path_1076" data-name="Path 1076" d="M829.933,506.99l-1.323,0-.027,14.778h.326l-.026,14.413h-.326l-.027,14.778,1.322,0,.027-14.437h.326l.027-14.777h-.326Z" transform="translate(-533.309 -326.338)" fill="#ffa412"/>
            <path id="Path_1077" data-name="Path 1077" d="M805.27,521.686h-.147l-.027,14.778h.146l-.026,14.437,1.323,0,.027-14.778h-.146l.026-14.413h.146l.026-14.778-1.322,0Z" transform="translate(-518.225 -326.303)" fill="#ffa412"/>
            <rect id="Rectangle_1190" data-name="Rectangle 1190" width="14.778" height="1.323" transform="matrix(0.002, -1, 1, 0.002, 278.338, 195.387)" fill="#ffa412"/>
            <rect id="Rectangle_1191" data-name="Rectangle 1191" width="14.778" height="1.323" transform="matrix(0.002, -1, 1, 0.002, 264.996, 195.355)" fill="#ffa412"/>
            <rect id="Rectangle_1192" data-name="Rectangle 1192" width="14.778" height="1.323" transform="matrix(0.003, -1, 1, 0.003, 252.502, 195.325)" fill="#ffa412"/>
            <rect id="Rectangle_1193" data-name="Rectangle 1193" width="14.778" height="1.323" transform="translate(241.352 195.299) rotate(-89.876)" fill="#ffa412"/>
            <rect id="Rectangle_1194" data-name="Rectangle 1194" width="14.778" height="1.323" transform="translate(312.192 195.466) rotate(-89.846)" fill="#ffa412"/>
            <path id="Path_1078" data-name="Path 1078" d="M894.732,507.751l-.026,14.344a2.94,2.94,0,0,0,1.324-1.2l.021-11.937a2.934,2.934,0,0,0-1.319-1.207" transform="translate(-575.905 -326.83)" fill="#ffa412"/>
            <path id="Path_1079" data-name="Path 1079" d="M960.042,618.219l8.217,1.459a3.512,3.512,0,0,1,1.683.789,2.938,2.938,0,0,1,.954,1.511,2.378,2.378,0,0,1,.072.536,2.424,2.424,0,0,1-.036.5L950.518,737.585a3.023,3.023,0,0,1-3.5,2.235c-.054-.008-.109-.016-.164-.026l-8.217-1.459-.162-.032a3.02,3.02,0,0,1-2.51-3.3l20.413-114.573c.013-.074.03-.146.049-.217.007-.031.017-.062.027-.092s.021-.067.034-.1.018-.047.027-.071a2.415,2.415,0,0,1,.253-.478c.015-.023.029-.043.046-.066s.031-.043.048-.064c.033-.042.067-.084.1-.125.021-.024.042-.048.065-.071s.038-.042.06-.062c.037-.039.077-.077.117-.114s.1-.083.146-.121.078-.061.119-.09a.048.048,0,0,1,.008,0l.084-.057a2.827,2.827,0,0,1,.272-.159c.028-.015.056-.03.084-.042s.057-.026.086-.04c.059-.026.119-.051.179-.074a3.511,3.511,0,0,1,1.853-.161" transform="translate(-602.44 -397.899)" fill="#ffb93e"/>
            <path id="Path_1080" data-name="Path 1080" d="M961.32,781.891l-10.936,61.381c-.235,1.319-1.766,2.167-3.444,1.938-.055-.008-.109-.016-.163-.026l-8.217-1.459c-.054-.009-.108-.02-.162-.032-1.655-.364-2.8-1.686-2.563-3.006l9.593-53.841.372-.011c4.411-.145,10.489-1.147,15.522-4.944" transform="translate(-602.359 -503.289)" fill="#ffa412"/>
            <rect id="Rectangle_1195" data-name="Rectangle 1195" width="1.322" height="14.778" transform="matrix(0.176, -0.984, 0.984, 0.176, 351.72, 234.995)" fill="#ffa412"/>
            <rect id="Rectangle_1196" data-name="Rectangle 1196" width="1.322" height="14.778" transform="translate(350.934 239.407) rotate(-79.915)" fill="#ffa412"/>
            <rect id="Rectangle_1197" data-name="Rectangle 1197" width="1.323" height="14.778" transform="translate(349.993 244.691) rotate(-79.902)" fill="#ffa412"/>
            <rect id="Rectangle_1198" data-name="Rectangle 1198" width="1.323" height="14.778" transform="translate(348.549 252.793) rotate(-79.902)" fill="#ffa412"/>
            <rect id="Rectangle_1199" data-name="Rectangle 1199" width="1.322" height="14.778" transform="matrix(0.175, -0.985, 0.985, 0.175, 347.023, 261.362)" fill="#ffa412"/>
            <rect id="Rectangle_1200" data-name="Rectangle 1200" width="1.322" height="14.778" transform="translate(344.682 274.495) rotate(-79.899)" fill="#ffa412"/>
            <rect id="Rectangle_1201" data-name="Rectangle 1201" width="1.322" height="14.778" transform="matrix(0.175, -0.985, 0.985, 0.175, 342.491, 286.795)" fill="#ffa412"/>
            <rect id="Rectangle_1202" data-name="Rectangle 1202" width="1.323" height="14.778" transform="translate(340.535 297.773) rotate(-79.886)" fill="#ffa412"/>
            <rect id="Rectangle_1203" data-name="Rectangle 1203" width="1.323" height="14.778" transform="translate(352.468 230.802) rotate(-79.903)" fill="#ffa412"/>
            <rect id="Rectangle_1204" data-name="Rectangle 1204" width="1.323" height="14.778" transform="translate(352.961 228.03) rotate(-79.9)" fill="#ffa412"/>
            <rect id="Rectangle_1205" data-name="Rectangle 1205" width="1.322" height="14.778" transform="translate(353.438 225.353) rotate(-79.903)" fill="#ffa412"/>
            <path id="Path_1081" data-name="Path 1081" d="M992.919,624.471l14.55,2.584.145-.814a2.431,2.431,0,0,0,.037-.5L993.2,623.177a2.416,2.416,0,0,0-.138.48Z" transform="translate(-639.123 -401.127)" fill="#ffa412"/>
            <path id="Path_1082" data-name="Path 1082" d="M994.423,619.865l14.123,2.508a2.936,2.936,0,0,0-.954-1.511l-11.753-2.087a2.946,2.946,0,0,0-1.417,1.091" transform="translate(-640.091 -398.293)" fill="#ffa412"/>
            <path id="Path_1083" data-name="Path 1083" d="M792.52,105.422a51.224,51.224,0,1,0-20.131,69.589,51.225,51.225,0,0,0,20.131-69.589" transform="translate(-448.276 -50.797)" fill="#e2810e"/>
            <path id="Path_1084" data-name="Path 1084" d="M781.537,111.476a51.224,51.224,0,1,0-20.131,69.589,51.225,51.225,0,0,0,20.131-69.589" transform="translate(-441.207 -54.694)" fill="#ffb93e"/>
            <path id="Path_1085" data-name="Path 1085" d="M745.78,192.56a46.658,46.658,0,1,1,22.452-5.791,46.707,46.707,0,0,1-22.452,5.791m-.141-90.571a44.022,44.022,0,1,0,12.258,1.75,43.651,43.651,0,0,0-12.258-1.75" transform="translate(-449.939 -63.856)" fill="#ffa412"/>
            <path id="Path_1086" data-name="Path 1086" d="M803.36,178.156a7.7,7.7,0,0,0-1.4-2.32,5.63,5.63,0,0,0-2.09-1.417,10.625,10.625,0,0,0-2.983-.664,28.048,28.048,0,0,0-4.069-.027,73.65,73.65,0,0,1-7.482.01,23.261,23.261,0,0,1-6.22-1.128,13.68,13.68,0,0,1-4.884-2.861,15.426,15.426,0,0,1-4.539-10.816,12.971,12.971,0,0,1,1.227-5.265,16.2,16.2,0,0,1,3.344-4.66,21.6,21.6,0,0,1,5.3-3.774l-2.914-7.177,5.777-2.346,2.955,7.278a19.377,19.377,0,0,1,6.3-.644,14.643,14.643,0,0,1,10.23,5.047,19.482,19.482,0,0,1,3.414,5.665l-10.434,4.237q-1.634-4.024-4.232-5.295a6.593,6.593,0,0,0-5.594-.053,8.387,8.387,0,0,0-2.614,1.59,5.677,5.677,0,0,0-1.428,2.025,5.292,5.292,0,0,0-.363,2.316,7.8,7.8,0,0,0,.579,2.461,7.142,7.142,0,0,0,1.273,2.1,5.272,5.272,0,0,0,2,1.356,10.636,10.636,0,0,0,3,.657,35.856,35.856,0,0,0,4.262.086q4.032-.113,7.462.1a23.487,23.487,0,0,1,6.215,1.168,13.194,13.194,0,0,1,8.316,8.052,14.094,14.094,0,0,1,1.122,5.716,12.807,12.807,0,0,1-1.259,5.239,15.635,15.635,0,0,1-3.414,4.59,23.316,23.316,0,0,1-5.359,3.738l2.711,6.674-5.741,2.331-2.7-6.64a26.144,26.144,0,0,1-6.326,1.045,16.58,16.58,0,0,1-6.143-.885,14.825,14.825,0,0,1-5.407-3.373,18.05,18.05,0,0,1-4.106-6.381l10.435-4.237a11.124,11.124,0,0,0,2.282,3.7,7.19,7.19,0,0,0,2.822,1.824,6.976,6.976,0,0,0,3.09.308,11.951,11.951,0,0,0,3.063-.795,9.993,9.993,0,0,0,2.8-1.645,6.662,6.662,0,0,0,1.658-2.08,5.305,5.305,0,0,0,.557-2.356,6.463,6.463,0,0,0-.5-2.473" transform="translate(-495.432 -87.355)" fill="#ffa412"/>
            <g id="Group_792" data-name="Group 792" transform="translate(183.591 95.801)" opacity="0.2">
              <g id="Group_791" data-name="Group 791">
                <g id="Group_790" data-name="Group 790" clip-path="url(#clip-path)">
                  <path id="Path_1087" data-name="Path 1087" d="M735.344,320.974V498.136a18.846,18.846,0,0,1-18.788,18.791H534.45a19.125,19.125,0,0,1-12.931-5.036,19.369,19.369,0,0,1-4.115-5.345c-.057-.108-.111-.216-.164-.326a18.931,18.931,0,0,1-1.948-7.177c-.034-.437-.048-.877-.048-1.323V322.11a29.074,29.074,0,0,1,13.512-24.477l.021-.012a25.176,25.176,0,0,0,10.442-28.76H711.37a25.172,25.172,0,0,0,9.589,28.188s0,0,.006,0c.434.3.877.593,1.329.865l0,0a27.018,27.018,0,0,1,13.048,23.053" transform="translate(-515.243 -268.862)" fill="#ed9f4a"/>
                </g>
              </g>
            </g>
            <g id="Group_795" data-name="Group 795" transform="translate(285.512 95.801)" opacity="0.2">
              <g id="Group_794" data-name="Group 794">
                <g id="Group_793" data-name="Group 793" clip-path="url(#clip-path-2)">
                  <path id="Path_1088" data-name="Path 1088" d="M919.462,320.974V498.136A18.852,18.852,0,0,1,902,516.879c-.437.033-.88.048-1.326.048H820.488a19.263,19.263,0,0,1-19.206-19.207V322.11a29.074,29.074,0,0,1,13.512-24.477,25.171,25.171,0,0,0,10.465-28.772h70.229a25.174,25.174,0,0,0,10.926,29.059,27.018,27.018,0,0,1,13.048,23.053" transform="translate(-801.282 -268.862)" fill="#ed9f4a"/>
                </g>
              </g>
            </g>
            <g id="Group_798" data-name="Group 798" transform="translate(197.124 95.801)" opacity="0.6">
              <g id="Group_797" data-name="Group 797">
                <g id="Group_796" data-name="Group 796" clip-path="url(#clip-path-3)">
                  <path id="Path_1089" data-name="Path 1089" d="M745.405,297.051c-5.624-3.367-29.983-15.3-91.932-14.8-70.956.58-99.38,14.922-100.251,15.367a25.176,25.176,0,0,0,10.441-28.76H735.817a25.172,25.172,0,0,0,9.589,28.188" transform="translate(-553.223 -268.863)" fill="#ed9f4a"/>
                </g>
              </g>
            </g>
            <path id="Path_1090" data-name="Path 1090" d="M751.533,262.786v8.035a1.441,1.441,0,0,1-1.436,1.44H573.021a1.442,1.442,0,0,1-1.439-1.44v-8.035a1.444,1.444,0,0,1,1.439-1.44H750.1a1.443,1.443,0,0,1,1.436,1.44" transform="translate(-367.916 -168.224)" fill="#2b478b"/>
            <path id="Path_1091" data-name="Path 1091" d="M950.334,262.786v8.035a1.441,1.441,0,0,1-1.436,1.44H881.87a1.444,1.444,0,0,1-1.439-1.44v-8.035a1.446,1.446,0,0,1,1.439-1.44H948.9a1.443,1.443,0,0,1,1.436,1.44" transform="translate(-566.717 -168.224)" fill="#233862"/>
            <path id="Path_1092" data-name="Path 1092" d="M706.318,361.33s-4.564,6.425-8.749,6.515-10.55-2.978-10.55-2.978-3.842-8.562-1.236-11.912a5.593,5.593,0,0,1,5.346.879,8.2,8.2,0,0,1,1.415,1.355,4.489,4.489,0,0,0,2.2,1.489c2.986.909,6.53-1.228,7.855.834a14,14,0,0,0,2.308,2.732,10.536,10.536,0,0,0,1.415,1.087" transform="translate(-440.842 -226.981)" fill="#f9ddbf"/>
            <path id="Path_1093" data-name="Path 1093" d="M578.061,435.161s16.132-39.088,45.169-39.832c0,0,26.8,2.978,28.292,39.832Z" transform="translate(-372.087 -254.466)" fill="#f9ddbf"/>
            <path id="Path_1094" data-name="Path 1094" d="M682.4,389.54s11.639,2.588,15.23,1.067c0,0,.543-4.867-4.359-4.184-3.355.467-5.54-1.146-6.826-1.8-1.819-.926-4.529,2.88-4.046,4.917" transform="translate(-439.21 -247.483)" fill="#f1a34f"/>
            <path id="Path_1095" data-name="Path 1095" d="M705.453,363.874c-.745.558-3.031-7.87-3.031-7.87a8.191,8.191,0,0,1,1.415,1.355,4.49,4.49,0,0,0,2.2,1.489c.008.246.141,4.482-.58,5.025" transform="translate(-452.136 -229.153)" fill="#e5c1a1"/>
            <path id="Path_1096" data-name="Path 1096" d="M729.6,369.058c-.164.1-5.547,3.32-6.276,3.32-.745,0,3.968-6.053,3.968-6.053a14.011,14.011,0,0,0,2.308,2.732" transform="translate(-465.536 -235.797)" fill="#e5c1a1"/>
            <path id="Path_1097" data-name="Path 1097" d="M622.28,445.083c-.3-.255,11.416-17.248,14.643-17.372s10.475,3.722,15.723,4.219,10.336-.993,11.328,2.109,3.723,14.1,2.048,15.861-37.3.686-43.742-4.817" transform="translate(-400.546 -275.307)" fill="#e5c1a1"/>
            <g id="Group_801" data-name="Group 801" transform="translate(265.544 200.927)" opacity="0.5">
              <g id="Group_800" data-name="Group 800">
                <g id="Group_799" data-name="Group 799" clip-path="url(#clip-path-4)">
                  <path id="Path_1098" data-name="Path 1098" d="M770.342,693.449c-.934.491-1.873.955-2.819,1.4-.9.521-1.817,1.033-2.75,1.52a75.066,75.066,0,0,1-13.254,5.426,19.356,19.356,0,0,1-4.115-5.345c-.718.383-1.436.751-2.16,1.11V563.9a76.084,76.084,0,0,1,9.819,1.975,72.14,72.14,0,0,1,43.92,33.269c19.428,33.575,6.6,75.8-28.64,94.308" transform="translate(-745.243 -563.897)" fill="#e2810e"/>
                </g>
              </g>
            </g>
            <path id="Path_1099" data-name="Path 1099" d="M603,579.916a72.873,72.873,0,1,0-28.639,99,72.873,72.873,0,0,0,28.639-99" transform="translate(-300.142 -349.01)" fill="#e2810e"/>
            <path id="Path_1100" data-name="Path 1100" d="M561.47,685.939q-1.348.821-2.739,1.589c-.314.174-.628.344-.943.509-.718.383-1.436.751-2.161,1.11a72.875,72.875,0,0,1-67.257-129.259q1.4-.772,2.822-1.475,1.378-.687,2.777-1.308a72.775,72.775,0,0,1,21.874-5.881A72.886,72.886,0,0,1,561.47,685.939" transform="translate(-290.084 -354.553)" fill="#ffb93e"/>
            <path id="Path_1101" data-name="Path 1101" d="M536.485,703.924a66.668,66.668,0,0,1-18.546-2.646,65.995,65.995,0,1,1,18.546,2.646m-54.772-36.285a62.434,62.434,0,1,0-5.3-47.491,62.025,62.025,0,0,0,5.3,47.491" transform="translate(-302.507 -367.588)" fill="#ffa412"/>
            <path id="Path_1102" data-name="Path 1102" d="M633.223,677.271c-.144-.359-.3-.706-.452-1.047a19.126,19.126,0,0,0-4.42-6.315,19.733,19.733,0,0,0-6.958-4.094,33.3,33.3,0,0,0-8.841-1.661q-4.88-.3-10.618-.138a51.1,51.1,0,0,1-6.063-.123,15.2,15.2,0,0,1-4.268-.934,7.48,7.48,0,0,1-2.849-1.93,10.154,10.154,0,0,1-1.81-2.987,11.074,11.074,0,0,1-.823-3.5,7.513,7.513,0,0,1,.518-3.295,8.058,8.058,0,0,1,2.032-2.879,11.867,11.867,0,0,1,3.717-2.263,9.378,9.378,0,0,1,7.961.075q3.694,1.809,6.018,7.532l14.847-6.027a27.755,27.755,0,0,0-4.86-8.059,20.826,20.826,0,0,0-14.553-7.18,27.512,27.512,0,0,0-8.96.916l-4.2-10.354-8.218,3.337,4.145,10.211a30.808,30.808,0,0,0-7.545,5.369,23.05,23.05,0,0,0-4.755,6.629,18.475,18.475,0,0,0-1.747,7.491,21.94,21.94,0,0,0,6.458,15.385,19.437,19.437,0,0,0,6.949,4.07,32.893,32.893,0,0,0,8.846,1.6,104.514,104.514,0,0,0,10.645-.012,39.43,39.43,0,0,1,5.791.039,15.106,15.106,0,0,1,4.244.943,8.032,8.032,0,0,1,2.972,2.017,10.936,10.936,0,0,1,2,3.3,9.157,9.157,0,0,1,.709,3.519,7.509,7.509,0,0,1-.793,3.352,9.47,9.47,0,0,1-2.358,2.959,14.238,14.238,0,0,1-3.987,2.34,17.149,17.149,0,0,1-4.357,1.131,9.953,9.953,0,0,1-4.4-.44,10.225,10.225,0,0,1-4.013-2.595,15.769,15.769,0,0,1-3.247-5.267l-14.844,6.027a25.636,25.636,0,0,0,5.839,9.077,21.083,21.083,0,0,0,7.691,4.8,23.534,23.534,0,0,0,8.739,1.26,37.087,37.087,0,0,0,9-1.488l3.833,9.448L624.4,714.2l-3.854-9.493a33.169,33.169,0,0,0,7.622-5.321,22.5,22.5,0,0,0,4.6-6.006c.089-.174.176-.347.26-.524a18.261,18.261,0,0,0,1.789-7.451,20.061,20.061,0,0,0-1.6-8.131" transform="translate(-367.227 -401.018)" fill="#ffa412"/>
            <path id="Path_1103" data-name="Path 1103" d="M455.385,34.936c.222-.893-19.41,8.873-20.406,9.977-9.207,10.214-6.582,23.541-1.313,23.67,3.379.082,2.724,5.7,2.724,5.7l37.643-15.924S469.5,31.93,455.385,34.936" transform="translate(-276.064 -22.334)" fill="#01161e"/>
            <path id="Path_1104" data-name="Path 1104" d="M421.41,14.664S422.755,0,406.371,0c0,0,4.965,1.347,7.533,4.04,0,0-10.451-6.135-21.823,3.291s-4.306,33.069-7.764,37.558-16.925,5.387-15.279,19.9,42.74,32.693,40.1,44.7c0,0,16.1-23.674,4.589-34.477,0,0,5.613,5.287,6.185,11.572,0,0,1.523-12.27-6.285-16.195-6.909-3.473-12.569-16.175-11.97-18.444S421.41,14.664,421.41,14.664" transform="translate(-237.453)" fill="#01161e"/>
            <path id="Path_1105" data-name="Path 1105" d="M423.116,213.653c-2.526-12.167-18.3-15.939-25.765-6a13.18,13.18,0,0,0-2.594,6.392c-1.7,13.81,20.376,70.059,23.538,75.152,5.757,9.272,39.656,41.057,39.656,41.057l6.247-3.786s-24.044-40.706-27.768-44.515c-4.3-4.4-8.518-45.2-13.315-68.3" transform="translate(-254.037 -130.001)" fill="#ed985f"/>
            <path id="Path_1106" data-name="Path 1106" d="M565.611,541.265s9.118-5.987,12.57-5.6,13.443,3.261,13.564,4.729-11.131,2.385-11.887,3.188-8.4,5.9-11.167,4.3-3.08-6.62-3.08-6.62" transform="translate(-364.073 -344.785)" fill="#ed985f"/>
            <path id="Path_1107" data-name="Path 1107" d="M252.314,925.773H218.33s-.815-5.179.96-9.109c1.7-3.771,4.125-3.891.31-9.8,2.16,2.224,9.1,3.143,14.015,2.482.6.976,3.881,7.524,5.892,8.968,2.221,1.6,12.124,1.027,12.808,7.459" transform="translate(-140.414 -583.731)" fill="#233862"/>
            <path id="Path_1108" data-name="Path 1108" d="M446.072,213.585a37.839,37.839,0,0,1,3.474,4.365c.723,1.052,14.388,64.758,15.065,66.048.514.98,23.5,43.278,23.886,44.344,0,0,2.267,2.984-15.648,5.745,0,0-37-20.014-36.875-85.881.014-7.554,9.235-34.622,10.1-34.621" transform="translate(-280.628 -137.481)" fill="#19356d"/>
            <path id="Path_1109" data-name="Path 1109" d="M409.637,187.292c-20.7-4.752-7.476-33.843-6.276-33.331,2.868-.584,9.168-5.621,14.8-15.457l.761.66,12.715,11.148s-2.939,4.336-5.412,8.582c-1.931,3.325-3.574,6.6-3.313,7.725,1.024.805-7.757,21.942-13.279,20.673" transform="translate(-256.248 -89.152)" fill="#ffb27d"/>
            <path id="Path_1110" data-name="Path 1110" d="M468.84,151.513s-2.941,4.33-5.412,8.582c-7.906-4.873-7.914-14.661-7.3-19.731Z" transform="translate(-293.447 -90.35)" fill="#ed985f"/>
            <path id="Path_1111" data-name="Path 1111" d="M468.239,116.038s-19.195-10.681-12.36-22.532,8.962-21.212,21.507-14.893,12.3,12.2,10.977,16.713-14.954,23.186-20.124,20.713" transform="translate(-292.494 -49.292)" fill="#ffb27d"/>
            <path id="Path_1112" data-name="Path 1112" d="M487.962,85.513c-.879-5.262-3.552-5.765-5.416-5.413-7.089-11.723-18.67-7.148-18.67-7.148a26.136,26.136,0,0,1-15.129,9.087s2.228,4.145,11.405,6.71a15.684,15.684,0,0,0,9.054-.724,51.237,51.237,0,0,1-13.026,4.91c12.094,1.107,23.6-9.95,24.8-11.133.558,1.713,1.536,5.3.95,7.923-.8,3.564-3.96,10.02-2.029,10.855,0,0,9.383-7.177,8.065-15.068" transform="translate(-288.849 -46.392)" fill="#01161e"/>
            <path id="Path_1113" data-name="Path 1113" d="M34.628,925.33H.643s-.815-5.179.96-9.109c1.7-3.771,4.365-5.484,3.727-10.047a12.24,12.24,0,0,0,10.592,4.052c.6.976,3.886,6.2,5.9,7.644,2.221,1.6,12.124,1.027,12.808,7.46" transform="translate(-0.294 -583.287)" fill="#233862"/>
            <path id="Path_1114" data-name="Path 1114" d="M166.925,182.8s1.065-2.469-7.027-8.9c-12.126-9.637-16.941-7.6-16.941-7.6S3.125,198.824,16.527,262.551c3.358,19.724,12.418,51.2,11.8,66.707-.226,5.622-9.83,29.883-11.8,33.542C-2.8,398.754-.018,434.339-.018,434.339H99.843s27.235-54.819,19.921-98.179c-4.558-19.489-34.237-48.121-23.177-89.493,3.792-4.064,19.234,1.583,28.612-1.2,4.989-1.478,4.9-13.318,13.837-14.294,6.279-.682,12.417-1.517,16.789-3.043,12.868-4.489,11.1-45.33,11.1-45.33" transform="translate(0.001 -106.931)" fill="#2b478b"/>
            <path id="Path_1115" data-name="Path 1115" d="M348.314,261.725c-9.546,9.844-8.441,11.9-13.431,14.18-2.543-32.262,2.388-62.322,2.388-62.322s9.086,36.974,11.043,48.143" transform="translate(-209.278 -137.479)" fill="#19356d"/>
            <path id="Path_1116" data-name="Path 1116" d="M372.133,197.557s-22.4,2.213-24.192,16.766,21.473,73.827,24.8,79.194c6.066,9.771,41.788,43.265,41.788,43.265l6.584-3.99s-25.338-42.895-29.261-46.909c-6.159-6.3-12.14-83.284-19.724-88.325" transform="translate(-223.899 -127.164)" fill="#ffb27d"/>
            <path id="Path_1117" data-name="Path 1117" d="M399.067,325.6c.058.331.321-.8,13.585-7.53,0,0-29.76-43.1-29.862-44.742-.911-14.631-6.138-86.916-20.373-85.422-15.836,1.661-25.213,6.649-25.612,14.23-.342,6.51,18.375,68.124,23.672,85.411.872,2.846,38.589,38.053,38.589,38.053" transform="translate(-216.792 -120.94)" fill="#2b478b"/>
            <path id="Path_1118" data-name="Path 1118" d="M529.3,562.672s8.034-7.378,11.5-7.554,13.792,1.051,14.149,2.481-10.6,4.147-11.218,5.062-7.336,7.18-10.328,6.047-4.106-6.037-4.106-6.037" transform="translate(-340.7 -357.308)" fill="#ffb27d"/>
          </g>
        </g>
      </g>
    </g>
  </g>
</svg>
