<svg xmlns="http://www.w3.org/2000/svg" xmlns:xlink="http://www.w3.org/1999/xlink" width="2129.725" height="879.92" viewBox="0 0 2129.725 879.92">
  <defs>
    <clipPath id="clip-path">
      <rect id="Rectangle_119" data-name="Rectangle 119" width="916.459" height="603.02" fill="none"/>
    </clipPath>
    <clipPath id="clip-path-3">
      <rect id="Rectangle_108" data-name="Rectangle 108" width="77.626" height="72.106" fill="none"/>
    </clipPath>
    <clipPath id="clip-path-4">
      <rect id="Rectangle_110" data-name="Rectangle 110" width="23.424" height="38.37" fill="none"/>
    </clipPath>
    <clipPath id="clip-path-5">
      <rect id="Rectangle_112" data-name="Rectangle 112" width="36.181" height="30.621" fill="none"/>
    </clipPath>
    <clipPath id="clip-path-6">
      <rect id="Rectangle_115" data-name="Rectangle 115" width="79.204" height="48.767" fill="none"/>
    </clipPath>
    <clipPath id="clip-path-7">
      <rect id="Rectangle_117" data-name="Rectangle 117" width="84.586" height="58.2" fill="none"/>
    </clipPath>
  </defs>
  <g id="Group_1467" data-name="Group 1467" transform="translate(109.156 -134)">
    <g id="Group_45" data-name="Group 45" transform="translate(-108.94)">
      <path id="Path_1" data-name="Path 1" d="M1119.725,783.462c-6.036-64.641-65.235-115.417-137.464-115.417a148.046,148.046,0,0,0-62.966,13.9c-4.536-89.694-85.417-161.162-184.517-161.162a197.6,197.6,0,0,0-80.418,16.926c.115-1.407.231-2.781.231-4.188,0-29.945-26.562-54.225-59.276-54.225a63.2,63.2,0,0,0-23.679,4.54,171.491,171.491,0,0,0,10.417-58.624c0-102.468-90.759-185.547-202.7-185.547a220.31,220.31,0,0,0-42.9,4.187c-5.074,1.02-10.072,2.182-15.031,3.519-3-20.234-13.531-38.285-28.946-51.692a95.632,95.632,0,0,0-21.95-14.286,103.478,103.478,0,0,0-87.836,0A95.874,95.874,0,0,0,160.7,195.677a93.513,93.513,0,0,0-10.84,11.154,81.452,81.452,0,0,0,1.306-11.154c.038-1.161.077-2.357.077-3.554a76.388,76.388,0,0,0-.73-10.733,82.061,82.061,0,0,0-2.038-10.24c-.038-.106-.038-.177-.077-.281a79.024,79.024,0,0,0-2.768-8.34c-10.763-27.411-36.019-48.489-67.31-55.492a59.858,59.858,0,0,0,.692-73.192A70.548,70.548,0,0,0,42.19,8.686,69.977,69.977,0,0,0,34.81,6.963,75.294,75.294,0,0,0,20.895,5.7,77.642,77.642,0,0,0,3.327,7.7,39.869,39.869,0,0,0,0,0V875.62H1200.6a71.329,71.329,0,0,0,1.384-14.146c0-42.19-36.558-76.534-82.264-78.012" transform="translate(0.002 134)" fill="#b9ecfc"/>
      <path id="Path_2" data-name="Path 2" d="M2232.435,413.44a40.281,40.281,0,0,0,1.833,11.978c-25.236,4-44.365,23.175-44.365,46.24a41.359,41.359,0,0,0,2.427,13.959,55.776,55.776,0,0,0-41.3-1.941,50.858,50.858,0,0,0-13.042,6.763c-20.079-19.749-49.415-32.212-82.129-32.212-60.506,0-109.553,42.6-109.553,95.163a83.994,83.994,0,0,0,8.223,36.206v.012c.772,1.637,1.6,3.252,2.481,4.846a94.356,94.356,0,0,0,13.551,18.614c-6.966,3.172-12.258,8.734-14.436,15.435a51.32,51.32,0,0,0-19.927-.456,47.318,47.318,0,0,0-4.667,1.048,44.525,44.525,0,0,0-23.3,15.111,34.5,34.5,0,0,0,.429,43.932c-19.8,4.209-35.788,16.861-42.585,33.324v.007a45.925,45.925,0,0,0-1.755,5.017c-.014.051-.033.1-.045.161a46.4,46.4,0,0,0-1.749,12.594c0,.718.02,1.433.054,2.137a45.957,45.957,0,0,0,.811,6.7,55.93,55.93,0,0,0-6.859-6.7,61.256,61.256,0,0,0-13.9-8.592,68.858,68.858,0,0,0-55.595,0,61.163,61.163,0,0,0-13.886,8.592c-9.759,8.042-16.425,18.885-18.324,31.039q-4.679-1.212-9.5-2.114a146.575,146.575,0,0,0-27.154-2.514c-70.828,0-128.247,49.879-128.247,111.4a97.952,97.952,0,0,0,6.593,35.2,42.241,42.241,0,0,0-14.993-2.724c-20.711,0-37.5,14.585-37.5,32.576,0,.844.074,1.672.146,2.5a130.93,130.93,0,0,0-50.884-10.163c-62.729,0-113.909,42.914-116.779,96.788a97.7,97.7,0,0,0-39.843-8.351c-45.689,0-83.157,30.484-86.981,69.312-28.915.877-52.061,21.508-52.061,46.844a40.7,40.7,0,0,0,.891,8.494H2284.658V367.543c-28.9.286-52.224,20.724-52.224,45.9" transform="translate(-155.161 -139.663)" fill="#ecfbff"/>
      <path id="Path_3" data-name="Path 3" d="M2119.621,804.885c-18.536,7.447-32.746,21.989-38.47,39.815a12.8,12.8,0,0,0-.746,1.467,18.938,18.938,0,0,0-13.236-5.278,18.214,18.214,0,0,0-16.063,8.942,60.605,60.605,0,0,0-39.348-14.1c-18.763.029-35.413,8.209-45.818,20.816a98.087,98.087,0,0,0-37.852-7.505c-.813.029-1.626.029-2.439.058-2.991-10.232-13.3-17.8-25.592-17.8a26.843,26.843,0,0,0-3.122.176,85.752,85.752,0,0,0-27.738-26.593,98.071,98.071,0,0,0-100.06,0,86.152,86.152,0,0,0-25.688,23.573,23.712,23.712,0,0,0-17.5-7.389,24.164,24.164,0,0,0-11.934,3.079,88.561,88.561,0,0,0-4.1-19.263c-.162-.41-.292-.821-.422-1.2-13.918-40.168-55.509-69.311-104.645-69.281a119.609,119.609,0,0,0-37.982,6.128c-31.835,10.642-56.713,34.244-66.695,63.71a38.071,38.071,0,0,0-16.423-3.665c-12.39,0-23.284,5.776-29.592,14.455-16.292-14.572-38.7-23.573-63.444-23.573-31.673.029-59.475,14.806-75.475,37.118-4.91-12.344-17.982-21.168-33.331-21.168a37.227,37.227,0,0,0-26.179,10.466,11.33,11.33,0,0,0-9.657-5.043,11.931,11.931,0,0,0-6.5,1.907c-3.154-11.787-12.259-21.433-24.291-26.27a47.451,47.451,0,0,0-34.99,0c-11.8,4.749-20.812,14.16-24.129,25.624a11.662,11.662,0,0,0-8.292-3.372,11.292,11.292,0,0,0-9.95,5.542,37.248,37.248,0,0,0-24.293-8.737,36.7,36.7,0,0,0-28.322,12.871,60.79,60.79,0,0,0-23.381-4.633c-.519.03-1.008.03-1.528.03-1.853-6.333-8.226-10.995-15.8-10.995a14.507,14.507,0,0,0-1.951.117,52.742,52.742,0,0,0-17.1-16.447,60.724,60.724,0,0,0-61.882,0,53.513,53.513,0,0,0-15.869,14.57,14.642,14.642,0,0,0-10.8-4.573,15.123,15.123,0,0,0-7.382,1.906,53.816,53.816,0,0,0-2.537-11.9c-.1-.235-.162-.5-.259-.733C918.226,762.9,892.5,744.9,862.132,744.9a74.1,74.1,0,0,0-23.446,3.812c-19.707,6.568-35.055,21.168-41.234,39.375a22.081,22.081,0,0,0-3.67-1.384c-12.485-11.865-30.125-19.275-49.7-19.275a74.3,74.3,0,0,0-31.273,6.8c-2.254-43.89-42.424-78.853-91.661-78.853a99.511,99.511,0,0,0-39.939,8.281c.058-.675.114-1.349.114-2.036,0-14.657-13.179-26.54-29.436-26.54a32.065,32.065,0,0,0-11.767,2.22,82.5,82.5,0,0,0,5.174-28.679c0-50.121-45.069-90.757-100.661-90.757a111.017,111.017,0,0,0-21.313,2.048q-3.782.736-7.459,1.723a41.5,41.5,0,0,0-14.383-25.288,47.724,47.724,0,0,0-10.9-7,52.25,52.25,0,0,0-43.635,0,47.87,47.87,0,0,0-10.911,7,44.549,44.549,0,0,0-5.381,5.46,39.008,39.008,0,0,0,.637-5.46c.025-.574.041-1.157.041-1.74a39.218,39.218,0,0,0-1.372-10.262c-.01-.046-.026-.089-.037-.131a38.2,38.2,0,0,0-1.376-4.087v-.005c-5.336-13.411-17.881-23.72-33.424-27.15a28.941,28.941,0,0,0,.337-35.791,34.881,34.881,0,0,0-18.286-12.31,35.872,35.872,0,0,0-3.664-.854,38.845,38.845,0,0,0-15.641.371,21.128,21.128,0,0,0-11.33-12.574,76.894,76.894,0,0,0,10.636-15.166c.688-1.3,1.341-2.613,1.947-3.948v-.009a70.582,70.582,0,0,0,6.453-29.5c0-42.818-38.5-77.529-85.988-77.529-25.677,0-48.7,10.155-64.463,26.244a39.456,39.456,0,0,0-10.237-5.51,42.289,42.289,0,0,0-32.415,1.581,34.842,34.842,0,0,0,1.9-11.372c0-18.792-15.014-34.415-34.822-37.672a33.94,33.94,0,0,0,1.439-9.758c0-20.509-18.306-37.158-40.991-37.392V868.977H0v96.9h2129.5V801.689a73.708,73.708,0,0,0-9.885,3.2" transform="translate(0.002 43.879)" fill="#d8f4fd"/>
      <path id="Path_5" data-name="Path 5" d="M1627.443,961.657H815.052a43.627,43.627,0,0,1,23.155-12.16,27.827,27.827,0,0,1,8.843-1.448,28.179,28.179,0,0,1,15.908,5.009,45.448,45.448,0,0,1,10.279,6.9c6.533-10.419,17.138-17.2,29.117-17.191a31.111,31.111,0,0,1,8.742,1.259c4.068-17.764,18.076-30.862,34.716-30.848,10.533.015,20,5.269,26.557,13.629a11.1,11.1,0,0,1,9.8-6.583,10.229,10.229,0,0,1,6.592,2.477c3.219-15.309,12.47-27.888,24.678-34.178a38.41,38.41,0,0,1,35.517,0c11.985,6.184,21.108,18.422,24.48,33.36a10.653,10.653,0,0,1,8.432-4.4c4.413,0,8.226,2.932,10.078,7.2,6.429-7.038,15.1-11.355,24.662-11.342,11.785.015,22.221,6.591,28.758,16.736a50.007,50.007,0,0,1,23.742-6.031c.514.014,1.022.021,1.524.042,1.876-8.234,8.343-14.315,16.06-14.315a13.934,13.934,0,0,1,1.962.147,62.83,62.83,0,0,1,17.386-21.4,50.215,50.215,0,0,1,62.779,0,62.246,62.246,0,0,1,16.114,18.975,13.552,13.552,0,0,1,10.968-5.961,12.786,12.786,0,0,1,7.489,2.477,90.335,90.335,0,0,1,2.578-15.49c.084-.323.163-.644.255-.952,8.728-32.311,34.825-55.748,65.649-55.72a60.267,60.267,0,0,1,23.819,4.926c19.982,8.563,35.57,27.544,41.842,51.235a19.692,19.692,0,0,1,10.309-2.939c7.772,0,14.6,4.625,18.559,11.615,10.207-11.706,24.269-18.947,39.795-18.94,25.074.028,46.3,18.94,53.652,45.092a55.352,55.352,0,0,1,11.133-1.154c24.636,0,45.975,16.246,56.46,39.972" transform="translate(501.581 48.033)" fill="#ecfbff"/>
      <path id="Path_6" data-name="Path 6" d="M10.784,967.716H1168.832a66.186,66.186,0,0,0-33.007-14.831,45.8,45.8,0,0,0-12.607-1.767,45.012,45.012,0,0,0-22.676,6.11,66.45,66.45,0,0,0-14.653,8.414,51.515,51.515,0,0,0-53.965-19.43,51.38,51.38,0,0,0-87.343-21,16.152,16.152,0,0,0-23.367-5.008,62.4,62.4,0,0,0-120.7-1,16.144,16.144,0,0,0-26.387,3.413,51.47,51.47,0,0,0-76.151,6.58,80.975,80.975,0,0,0-33.844-7.356c-.733.017-1.458.025-2.174.051a23.638,23.638,0,0,0-22.893-17.459,23.107,23.107,0,0,0-2.8.18,80.868,80.868,0,0,0-137.244-2.953,20.422,20.422,0,0,0-26.31-4.249,95.647,95.647,0,0,0-3.676-18.893c-.121-.392-.233-.785-.363-1.16a98.272,98.272,0,0,0-187.18.538,31.831,31.831,0,0,0-41.152,10.581,80.865,80.865,0,0,0-133.206,31.9,91.668,91.668,0,0,0-15.869-1.407,90.417,90.417,0,0,0-80.483,48.751" transform="translate(-11 41.427)" fill="#ecfbff"/>
    </g>
    <g id="Group_24" data-name="Group 24" transform="translate(326.073 410.9)">
      <g id="Group_40" data-name="Group 40" clip-path="url(#clip-path)">
        <path id="Path_7" data-name="Path 7" d="M128.441,462.369h-33.8l-.02-75.8,33.8-.1Z" transform="translate(659.77 137.331)" fill="#0e8934"/>
        <g id="Group_39" data-name="Group 39">
          <g id="Group_38" data-name="Group 38" clip-path="url(#clip-path)">
            <path id="Path_8" data-name="Path 8" d="M163.333,401.257s-2.036-7.33-17.366-19.36a32.785,32.785,0,0,1-11.882-32.3c.005-.03.012-.06.018-.089,0,0,0,8.147,11.02,12.938s21.085,20.126,18.21,38.814" transform="translate(571.787 124.195)" fill="#2dd782"/>
            <path id="Path_9" data-name="Path 9" d="M140.621,353.921c2.463,1.74,3.333,9.231,3.884,11.77,2.815,12.931-1.083,27.275,4.207,39.618,4.848,11.316,14.551,17.779,26.409,20.49,0,0-4.258-8.163-5.446-21.433a69.353,69.353,0,0,0-29.055-50.445" transform="translate(550.748 125.764)" fill="#0e8934"/>
            <path id="Path_10" data-name="Path 10" d="M153.858,357.481s3.952,1.51,15.005,3.841a40.349,40.349,0,0,1,31.211,31.5l.011.061s-5.776-.2-17-4.99c-13.656-5.833-23.3-16.77-29.217-30.391l-.007-.016" transform="translate(507.844 127.029)" fill="#2dd782"/>
            <path id="Path_11" data-name="Path 11" d="M109.759,255.28a.669.669,0,0,1-.377-.061c-.18-.088-.457-.225-.632-.319-4.814-2.577-7.529-7.252-8.392-12.513a12.617,12.617,0,0,1,1.824-8.5c1.407-2.48,3.491-4.652,4.158-7.492.489-2.083.175-4.282.6-6.374l.019-.094s9.887,6.7,11.594,18.374a18.173,18.173,0,0,1-1.942,11.175c-1.419,2.66-3.635,5.387-6.851,5.8" transform="translate(661.898 78.152)" fill="#0e8934"/>
            <path id="Path_12" data-name="Path 12" d="M139.533,247.93a1.009,1.009,0,0,0,.511-.267c.215-.21.546-.537.752-.752,5.66-5.958,7.328-13.923,6.076-21.848-.733-4.634-3.208-8.189-6.625-11.276-3.182-2.879-7.187-5-9.483-8.741-1.683-2.746-2.276-6.034-3.871-8.826l-.07-.123s-10.963,14.243-7.879,31.737A27.357,27.357,0,0,0,127,242.884c3.287,3.129,7.742,5.978,12.53,5.046" transform="translate(608.725 69.682)" fill="#0e8934"/>
            <path id="Path_13" data-name="Path 13" d="M174.308,407.049h-4.82a73.7,73.7,0,0,0-.922-14.913,18.643,18.643,0,0,0-10.123-13.96,143.054,143.054,0,0,0-14.731-6.559c-9.55-3.368-8.417-17.691-17.965-24.7-9.669-7.1-10.3-11.951-9.081-14.806a4.408,4.408,0,0,1,5.318-2.479c27.272,8.1,39.087,28.012,44.089,41.353,4.048,8.96,8.747,22.468,8.234,36.066" transform="translate(584.616 117.065)" fill="#0e8934"/>
            <path id="Path_14" data-name="Path 14" d="M11.957,296.35S45.083,269.4,77.645,277.262c12.488,3.016,27.546,14.254,27.64,28.2.1,13.868-13.36,11.314-22.413,7.431-11.389-4.885-20.619-13.539-32.718-16.843a64.413,64.413,0,0,0-17.758-2.09c-4.63.062-16.764-.6-20.439,2.385" transform="translate(794.969 98.013)" fill="#2dd782"/>
            <path id="Path_15" data-name="Path 15" d="M135.274,252.31c0,31.94-25.17,36.926-42.26,37.969a43.928,43.928,0,0,0-23.343,8.385c-1.059.755-2.116,1.526-3.188,2.3-7.252,5.257-14.655,10.515-21.864,16.015-.935.68-1.766,1.391-2.583,2.114a26.349,26.349,0,0,0-2.448,2.223l-2.266,2.4c-.739.816-1.374,1.738-2.07,2.6l-1.011,1.313c-.333.439-.6.922-.923,1.374L31.5,331.783l-1.6,2.9c-.545.951-1.057,1.934-1.51,2.947a123.734,123.734,0,0,0-8.522,24.491,251.112,251.112,0,0,0-5.863,38.906c-.18,2.372-.347,4.684-.483,6.935-.8,13.552-.74,24.9-.575,32.816.091,3.99.226,7.1.332,9.216H9.9c-.089-2.131-.21-5.242-.271-9.155-.121-7.978-.121-19.4.77-33.074a283.969,283.969,0,0,1,5.062-39.07c.5-2.4,1.042-4.821,1.645-7.252a125.934,125.934,0,0,1,8.869-25.006,32.3,32.3,0,0,1,1.572-3.036l1.693-2.991,1.888-2.887c.332-.482.634-.968.966-1.434l1.073-1.376c.74-.892,1.4-1.843,2.19-2.705l2.4-2.539a34.7,34.7,0,0,1,2.613-2.341c.893-.771,1.8-1.528,2.705-2.177,7.284-5.5,14.746-10.728,22.015-15.924,7.3-5.2,14.4-10.366,21.046-15.654a197.594,197.594,0,0,0,18.267-16.226,119.551,119.551,0,0,0,13.915-16.8c8.627-12.934,12.267-27.046,16.68-41.762Z" transform="translate(768.212 74.119)" fill="#2dd782"/>
            <path id="Path_16" data-name="Path 16" d="M61.13,358.659s-12.212-32.844,12.632-49.265c0,0,9.685-8,27.371-12.21,0,0,16,50.107-40,61.476" transform="translate(734.426 105.602)" fill="#0e8934"/>
            <path id="Path_17" data-name="Path 17" d="M101.862,336.9s-.319,1.1-.786,3.037c-.228.951-.543,2.116-.831,3.475-.3,1.345-.634,2.871-1.012,4.532s-.7,3.475-1.088,5.379c-.363,1.919-.816,3.929-1.133,6.029-.363,2.1-.725,4.276-1.1,6.466s-.665,4.458-.981,6.709-.619,4.488-.922,6.693c-.3,2.221-.454,4.412-.7,6.512-.03.226-.046.453-.06.68-.2,1.873-.363,3.687-.545,5.424-.091.77-.15,1.525-.211,2.266-.076,1.1-.137,2.175-.2,3.188-.18,2.9-.333,5.378-.438,7.267H86.9c.211-1.949.5-4.578.831-7.69.182-1.723.348-3.566.68-5.516.287-1.949.59-4,.922-6.133s.6-4.322,1.012-6.527c.408-2.221.831-4.473,1.255-6.723s.8-4.5,1.312-6.694c.485-2.207.968-4.367,1.42-6.466s.984-4.095,1.437-6c.483-1.919.907-3.716,1.359-5.378s.877-3.159,1.24-4.5.74-2.507,1.011-3.474c.575-1.934.937-3.008.937-3.008Z" transform="translate(696.814 119.555)" fill="#0e8934"/>
            <path id="Path_18" data-name="Path 18" d="M76.6,386.992s4.832-22.213,22.819-27.322a2.295,2.295,0,0,1,2.846,2.784c-1.429,5.477-6.647,16.284-25.665,24.539" transform="translate(710.296 127.776)" fill="#0e8934"/>
            <path id="Path_19" data-name="Path 19" d="M67.442,295.134a8.4,8.4,0,0,0-8.159,5.575c-3.9,10.894-9.322,32.531-12.042,72.419-.664,9.669-1.164,20.412-1.45,32.333-.333,13.9-.363,29.387,0,46.655v2.312H36.875c-.028-1.736-.075-3.565-.119-5.454-.5-25.7-.439-64.212,3.414-86.68,5.832-33.89-3.822-89.747-8.234-104a2.091,2.091,0,0,1,.165-1.677,2.174,2.174,0,0,1,1.328-1.027l.061-.015a2.052,2.052,0,0,1,2.494,1.48c2.539,10.334,13.795,57.837,11.557,76.662.408-3.112,2.857-20.472,8.055-35.747a23.8,23.8,0,0,0,.5-13.7c-20.215-77.812,80.652-88.161,80.652-88.161,3.158,92.014-48.757,99.6-69.3,99.024m-19.929,38.86c-.016.076-.016.152-.031.226,0,0,.015-.075.031-.226" transform="translate(736.432 69.687)" fill="#0e8934"/>
            <path id="Path_20" data-name="Path 20" d="M140.989,266.023s18.263,15.721,17.361,43.71c.118-3.632-4.181-9.654-6.167-12.365-13.352-18.24-31.559-14.605-50.93-10.356Z" transform="translate(620.844 94.53)" fill="#0e8934"/>
            <path id="Path_21" data-name="Path 21" d="M101.96,332.733a2.029,2.029,0,0,1,2.247-2.284c7.086.835,26.977,5.762,33.394,34.64,0,0-30.236,8.1-35.641-32.356" transform="translate(640.691 117.418)" fill="#0e8934"/>
            <path id="Path_22" data-name="Path 22" d="M102.925,305.375s21.9,8.983,21.9,30.318c0,0-16.843,5.053-21.9-30.318" transform="translate(652.14 108.513)" fill="#0e8934"/>
            <path id="Path_23" data-name="Path 23" d="M125.553,288s57.528-12.114,65.688,37.616c0,0-20.559,9.791-40.423,0C131.11,315.9,125.553,288,125.553,288" transform="translate(555.051 101.876)" fill="#2dd782"/>
            <path id="Path_24" data-name="Path 24" d="M110.425,307.839l.541.272c.369.184.859.47,1.5.833a57.466,57.466,0,0,1,4.993,3.387c.969.782,2.06,1.588,3.119,2.544,1.088.928,2.2,1.944,3.307,3.044,1.148,1.06,2.205,2.277,3.338,3.462,1.1,1.217,2.15,2.506,3.223,3.78,1,1.331,2.033,2.639,2.984,3.975.912,1.359,1.835,2.685,2.685,4,.8,1.34,1.58,2.636,2.316,3.867s1.312,2.457,1.906,3.559,1.132,2.12,1.529,3.054c.422.926.787,1.732,1.091,2.4l.95,2.091-4.218,1.644s-.29-.745-.8-2.049c-.255-.653-.562-1.446-.916-2.357-.331-.922-.8-1.914-1.3-3.006s-1.012-2.293-1.637-3.52-1.315-2.5-2.014-3.834c-.768-1.293-1.56-2.628-2.366-3.986-.842-1.334-1.769-2.644-2.656-3.982-.964-1.281-1.91-2.582-2.9-3.814-1.027-1.2-1.982-2.437-3.031-3.516-1.007-1.124-2.026-2.162-3.026-3.116-.973-.985-1.979-1.816-2.875-2.627a55.68,55.68,0,0,0-4.622-3.528c-.583-.375-1.048-.682-1.357-.857s-.492-.285-.492-.285Z" transform="translate(623.881 109.389)" fill="#0e8934"/>
            <path id="Path_25" data-name="Path 25" d="M114.086,283.34s38.038-62.422,103.872-12.191c0,0-45.84,43.889-103.872,12.191" transform="translate(543.875 89.404)" fill="#2dd782"/>
            <path id="Path_26" data-name="Path 26" d="M134.2,442.386H121c10.259-107.862-16.847-210.362-16.847-210.362L107.035,230c15.456,61.825,19.808,137.566,21,181.02a104.371,104.371,0,0,0,1.571,15.336,92.249,92.249,0,0,0,2.478,10.577,34.814,34.814,0,0,0,2.116,5.454" transform="translate(641.101 81.729)" fill="#0e8934"/>
            <path id="Path_27" data-name="Path 27" d="M24.276,353.987a38.48,38.48,0,0,1-8.56,1.762A123.962,123.962,0,0,1,0,357.054l.878-.836c7.793-7.407,17.731-8.695,26.623-2.665Z" transform="translate(888.958 124.277)" fill="#2dd782"/>
            <path id="Path_28" data-name="Path 28" d="M28.889,388.282a17.03,17.03,0,0,0,1.395-5.486c.611-3.856.923-9.978-.076-19.324a27.544,27.544,0,0,1,3.531-16.516,22.991,22.991,0,0,1,5.238-6.351,26.472,26.472,0,0,1,3.322-2.422,23.454,23.454,0,0,1,3.642-1.533l.075-.024a5.032,5.032,0,0,0-.846.694,7.377,7.377,0,0,0-1.62,2.372c-1.045,2.407-1.7,6.056.21,11.518,3.72,10.653-.828,23.308-14.871,37.074" transform="translate(831.29 119.617)" fill="#2dd782"/>
            <path id="Path_29" data-name="Path 29" d="M56.244,416.449a18.811,18.811,0,0,0,1.049-5.851,93.875,93.875,0,0,0-1.456-20.265,32.378,32.378,0,0,1-.247-9.237,33.672,33.672,0,0,1,2.518-8.7,33.136,33.136,0,0,1,4.736-7.687,31.045,31.045,0,0,1,6.942-5.958l.077-.047a11.088,11.088,0,0,0-2.414,4.219c-1.007,2.776-1.187,7.121,1.077,12.636a26.415,26.415,0,0,1,1.912,9.285,36.779,36.779,0,0,1-1.084,10.645,37.569,37.569,0,0,1-4.714,10.821,41.428,41.428,0,0,1-8.4,10.142" transform="translate(770.947 127.462)" fill="#2dd782"/>
            <path id="Path_30" data-name="Path 30" d="M12.715,391.445s6.407-4.047,25.662-2.139a36.2,36.2,0,0,0,17.424-2.5,31.425,31.425,0,0,0,12.9-9.951l.049-.064s-5.088,3.193-16.694.462a35.343,35.343,0,0,0-19.221.55,41.508,41.508,0,0,0-10.12,4.844,55.22,55.22,0,0,0-10,8.8" transform="translate(830.474 133.675)" fill="#2dd782"/>
            <path id="Path_31" data-name="Path 31" d="M40.014,425.354s6.128-4.82,25.559-4.8a34.482,34.482,0,0,0,17.106-4.581,31.561,31.561,0,0,0,12.273-12.1l.042-.075s-4.744,4.157-16.652,2.529c-12.5-1.765-29.293,1.872-38.328,19.029" transform="translate(767.233 143.487)" fill="#2dd782"/>
            <path id="Path_32" data-name="Path 32" d="M77.932,392.052s7.822-5.009,11.651-1.67a2.973,2.973,0,0,1,.08,4.42c-2.06,1.9-6.637,4.3-15.929,2.461Z" transform="translate(725.919 138.312)" fill="#0e8934"/>
            <path id="Path_33" data-name="Path 33" d="M82.277,450.811s1.134-1.53,1.606-5.473a37.084,37.084,0,0,0-.014-7.861,79.569,79.569,0,0,0-1.884-12.21,34.625,34.625,0,0,1,.851-18.644,35.042,35.042,0,0,1,10.535-15.254l.065-.056a12.005,12.005,0,0,0-1.98,4.671c-.659,3.032-.66,7.476,2.017,12.944a23.423,23.423,0,0,1,1.647,17.618,49.5,49.5,0,0,1-4.675,10.833,134.948,134.948,0,0,1-8.169,13.433" transform="translate(710.414 139.051)" fill="#2dd782"/>
            <path id="Path_34" data-name="Path 34" d="M18.192,469.8a606.151,606.151,0,0,1,65.932-80.868,385.674,385.674,0,0,1,28.218-26.385c3.5-2.857,6.184-5.108,8.056-6.527l2.876-2.113.972,1.018-2.873,2.1c-1.854,1.507-4.576,3.716-8.039,6.529-6.946,5.767-16.692,14.655-28.159,26.342-19.535,19.9-43.076,48.784-64.89,81.829Z" transform="translate(767.557 125.758)" fill="#0e8934"/>
            <path id="Path_35" data-name="Path 35" d="M66.509,438.842l16.745-37.8.168.611c1.612-16.406,8.486-25.215,17.844-31.062,10.191-6.369,11.02-12.938,11.02-12.938.007.03.012.06.019.089a32.789,32.789,0,0,1-11.884,32.3c-9.356,7.342-13.746,12.919-15.757,16.163l.026.095s-.457.7-1.172,1.976a8.716,8.716,0,0,0-.461,1.125c0-.1.005-.192.005-.294a79.674,79.674,0,0,0-9.378,39.775Z" transform="translate(713.356 127.091)" fill="#0e8934"/>
            <path id="Path_36" data-name="Path 36" d="M151.637,401.608a34.927,34.927,0,0,1,21.283,29.937,52.172,52.172,0,0,0,3.418,6.522,28.665,28.665,0,0,0,2.745,3.773,14.457,14.457,0,0,0,2.829,2.623,5.792,5.792,0,0,0,1.235.718,2.64,2.64,0,0,0,.968.378l.838.229-.717,3.589L182.9,448.9a5.112,5.112,0,0,1-1.4-.7,8.913,8.913,0,0,1-1.593-1.141,17.492,17.492,0,0,1-3.093-3.439,31.206,31.206,0,0,1-2.6-4.364,56.1,56.1,0,0,1-2.783-6.678c-1.983-1.228-5.892-3.605-12.048-7.152C148.247,419,142.306,408.447,139.512,395.9l0-.015s3.113,1.931,12.128,5.726" transform="translate(575.054 140.674)" fill="#0e8934"/>
            <path id="Path_37" data-name="Path 37" d="M232.015,196.279a3.07,3.07,0,0,0,2.181-.9,3.076,3.076,0,0,0,0-4.372,3.2,3.2,0,0,0-4.371,0,3.089,3.089,0,0,0,2.19,5.275" transform="translate(371.082 67.566)" fill="#01baef"/>
            <path id="Path_38" data-name="Path 38" d="M291.127,473.313a3.088,3.088,0,1,0-.478.037,2.856,2.856,0,0,0,.478-.037m-2.438-15.161a3.051,3.051,0,1,0-.545.056,2.827,2.827,0,0,0,.545-.056m-2.789-15.1a3.074,3.074,0,1,0-.617.065,2.823,2.823,0,0,0,.617-.065m-3.148-15.013a3.1,3.1,0,0,0,2.33-3.708h-.011a3.093,3.093,0,1,0-3.009,3.783,3.423,3.423,0,0,0,.69-.075M279.208,413.1a3.077,3.077,0,1,0-.774.1,3.178,3.178,0,0,0,.774-.1m-3.951-14.829a3.1,3.1,0,1,0-.863.119,3.088,3.088,0,0,0,.863-.119m-4.4-14.7a3.091,3.091,0,1,0-3.9-1.987,3.064,3.064,0,0,0,2.938,2.135,3.169,3.169,0,0,0,.957-.148m-4.878-14.552a3.059,3.059,0,1,0-1.05.194,3.021,3.021,0,0,0,1.05-.194M260.6,354.655a3.079,3.079,0,1,0-1.159.229,3.035,3.035,0,0,0,1.159-.229m-5.919-14.148a3.121,3.121,0,1,0-1.271.267,3.1,3.1,0,0,0,1.271-.267m-6.5-13.9a3.084,3.084,0,1,0-1.389.332,3.1,3.1,0,0,0,1.389-.332m-7.106-13.6a3.1,3.1,0,1,0-1.518.4,3.088,3.088,0,0,0,1.518-.4m-7.75-13.246a3.09,3.09,0,1,0-1.648.478,3.077,3.077,0,0,0,1.648-.478m-8.414-12.822a3.086,3.086,0,1,0-1.793.58,3.082,3.082,0,0,0,1.793-.58m-9.12-12.335a3.094,3.094,0,1,0-1.934.682,3.087,3.087,0,0,0,1.934-.682m-9.832-11.772a3.089,3.089,0,1,0-2.089.81,3.085,3.085,0,0,0,2.089-.81M195.4,251.708a3.113,3.113,0,1,0-2.238.949,3.094,3.094,0,0,0,2.238-.949m-11.286-10.4a3.086,3.086,0,1,0-2.375,1.114,3.093,3.093,0,0,0,2.375-1.114m-11.974-9.582a3.093,3.093,0,1,0-4.318.7,3.135,3.135,0,0,0,1.805.581,3.075,3.075,0,0,0,2.513-1.281M159.5,223.019a3.088,3.088,0,1,0-4.252,1.021,3.131,3.131,0,0,0,1.62.451,3.059,3.059,0,0,0,2.632-1.472m-13.255-7.742a3.092,3.092,0,1,0-4.16,1.326,3.009,3.009,0,0,0,1.418.35,3.073,3.073,0,0,0,2.742-1.675m-13.789-6.728a3.095,3.095,0,1,0-4.058,1.639,3.134,3.134,0,0,0,1.2.239,3.086,3.086,0,0,0,2.853-1.877m-14.266-5.69a3.09,3.09,0,1,0-3.921,1.944,3.144,3.144,0,0,0,.995.165,3.1,3.1,0,0,0,2.926-2.109m-14.654-4.6a3.091,3.091,0,1,0-3.764,2.217,3.141,3.141,0,0,0,.773.1,3.093,3.093,0,0,0,2.991-2.319m-14.948-3.525a3.094,3.094,0,1,0-3.6,2.476,2.905,2.905,0,0,0,.561.056,3.094,3.094,0,0,0,3.037-2.532m-15.169-2.449A3.094,3.094,0,1,0,70,195.017c.11.009.23.019.34.019a3.1,3.1,0,0,0,3.075-2.753m-48.767,2.522h0a3.095,3.095,0,1,0-.332.018c.111,0,.221-.008.332-.018m33.45-3.9a3.091,3.091,0,1,0-3.212,2.964v.009h.127A3.093,3.093,0,0,0,58.1,190.9m-18.364,2.891a3.142,3.142,0,1,0-.092,0Z" transform="translate(593.939 66.665)" fill="#01baef"/>
            <path id="Path_39" data-name="Path 39" d="M22.684,411.458a3.091,3.091,0,0,0,2.19-5.274,3.2,3.2,0,0,0-4.371,0,3.088,3.088,0,0,0,2.181,5.274" transform="translate(864.13 144.029)" fill="#01baef"/>
            <path id="Path_40" data-name="Path 40" d="M226.881,213.966a3.085,3.085,0,0,0,2.181-5.275,3.182,3.182,0,0,0-4.371,0,3.093,3.093,0,0,0,2.19,5.275" transform="translate(383.176 73.848)" fill="#01baef"/>
            <path id="Path_41" data-name="Path 41" d="M248.929,467.666a3.06,3.06,0,1,0-.507.046,3.3,3.3,0,0,0,.507-.046M246.388,452.5a3.106,3.106,0,1,0-.552.046,2.819,2.819,0,0,0,.552-.046m-2.77-15.132a3.1,3.1,0,1,0-.59.054,3.214,3.214,0,0,0,.59-.054m-3-15.078a3.109,3.109,0,1,0-.644.065,3.8,3.8,0,0,0,.644-.065m-3.268-15.031a3.084,3.084,0,0,0,2.31-3.71h.011a3.094,3.094,0,1,0-3.021,3.783,3.059,3.059,0,0,0,.7-.073M233.8,392.288a3.1,3.1,0,1,0-.764.092,3.132,3.132,0,0,0,.764-.092M229.93,377.4a3.093,3.093,0,1,0-3.8-2.154v-.008a3.091,3.091,0,0,0,2.972,2.273,3.172,3.172,0,0,0,.828-.111m-4.206-14.791a3.111,3.111,0,1,0-.893.129,3,3,0,0,0,.893-.129m-4.576-14.682a3.1,3.1,0,1,0-.976.157,2.982,2.982,0,0,0,.976-.157m-5-14.543a3.076,3.076,0,1,0-1.068.194,3.089,3.089,0,0,0,1.068-.194m-5.467-14.368a3.092,3.092,0,1,0-1.168.229,3.046,3.046,0,0,0,1.168-.229M204.7,304.862a3.111,3.111,0,1,0-1.289.276,3.213,3.213,0,0,0,1.289-.276m-6.582-13.9a3.091,3.091,0,1,0-4.169-1.334v.008a3.1,3.1,0,0,0,2.751,1.677,3.01,3.01,0,0,0,1.418-.351m-7.254-13.549a3.1,3.1,0,1,0-1.564.424,3.092,3.092,0,0,0,1.564-.424m-8.036-13.108a3.094,3.094,0,0,0,.829-4.3h-.009a3.091,3.091,0,1,0-2.549,4.832,3.059,3.059,0,0,0,1.729-.534m-8.92-12.518a3.083,3.083,0,1,0-1.923.682,3.031,3.031,0,0,0,1.923-.682m-9.941-11.717a3.1,3.1,0,0,0,.047-4.382v.009a3.084,3.084,0,1,0-.047,4.372m-11.119-10.614a3.1,3.1,0,1,0-2.41,1.16,3.087,3.087,0,0,0,2.41-1.16M140.432,220.4a3.089,3.089,0,1,0-4.215,1.17,3.173,3.173,0,0,0,1.527.4,3.07,3.07,0,0,0,2.688-1.565m-13.77-6.811a3.1,3.1,0,1,0-3.884,2.006,3.019,3.019,0,0,0,.939.148,3.1,3.1,0,0,0,2.945-2.154" transform="translate(501.463 74.465)" fill="#01baef"/>
            <path id="Path_42" data-name="Path 42" d="M121.933,413.027a3.091,3.091,0,0,0,2.19-5.274,3.2,3.2,0,0,0-4.371,0,3.088,3.088,0,0,0,2.181,5.274" transform="translate(630.364 144.586)" fill="#01baef"/>
            <path id="Path_43" data-name="Path 43" d="M229.7,204.343a3.091,3.091,0,0,0,2.181-5.283,3.2,3.2,0,0,0-4.371,0,3.152,3.152,0,0,0-.9,2.19,3.1,3.1,0,0,0,3.093,3.093" transform="translate(376.536 70.428)" fill="#01baef"/>
            <path id="Path_44" data-name="Path 44" d="M270.047,464.217a3.052,3.052,0,1,0-.552.056,2.834,2.834,0,0,0,.552-.056m-2.78-14.912a3.125,3.125,0,1,0-.617.056,3.513,3.513,0,0,0,.617-.056m-3.093-14.856a3.1,3.1,0,1,0-.682.073,3.533,3.533,0,0,0,.682-.073m-3.424-14.783a3.09,3.09,0,1,0-.745.092,3.05,3.05,0,0,0,.745-.092m-3.775-14.691a3.109,3.109,0,1,0-.828.11,3.282,3.282,0,0,0,.828-.11m-4.161-14.59a3.089,3.089,0,1,0-.911.138,3.122,3.122,0,0,0,.911-.138m-4.574-14.46a3.089,3.089,0,1,0-.993.165,3.091,3.091,0,0,0,.993-.165m-5.007-14.314a3.109,3.109,0,1,0-1.087.194,3.229,3.229,0,0,0,1.087-.194m-5.486-14.147a3.087,3.087,0,1,0-1.187.239,3.011,3.011,0,0,0,1.187-.239m-5.992-13.926a3.1,3.1,0,1,0-1.3.285,3.138,3.138,0,0,0,1.3-.285M225.22,319.85a3.091,3.091,0,1,0-4.169-1.324v-.009a3.087,3.087,0,0,0,2.751,1.675,3.153,3.153,0,0,0,1.418-.342m-7.135-13.383a3.078,3.078,0,1,0-1.537.413,3.1,3.1,0,0,0,1.537-.413m-7.759-13.034a3.087,3.087,0,1,0-1.666.5,3,3,0,0,0,1.666-.5m-8.422-12.6a3.091,3.091,0,1,0-4.317-.682,3.1,3.1,0,0,0,4.317.682m-9.14-12.1a3.089,3.089,0,1,0-4.355-.405,3.119,3.119,0,0,0,2.384,1.124,3.06,3.06,0,0,0,1.971-.718m-9.876-11.5a3.092,3.092,0,1,0-4.372-.119,3.07,3.07,0,0,0,2.246.966,3.1,3.1,0,0,0,2.127-.847m-10.65-10.8a3.087,3.087,0,1,0-2.282,1.014,3.086,3.086,0,0,0,2.282-1.014M160.8,236.475a3.092,3.092,0,1,0-4.336.534v.009a3.106,3.106,0,0,0,4.336-.544m-12.2-9.012a3.1,3.1,0,1,0-2.6,1.4,3.09,3.09,0,0,0,2.6-1.4m-12.933-7.925a3.087,3.087,0,1,0-2.742,1.648,3.1,3.1,0,0,0,2.742-1.648m-13.621-6.7a3.092,3.092,0,1,0-4.032,1.686,3.128,3.128,0,0,0,1.178.229,3.09,3.09,0,0,0,2.854-1.915m-14.2-5.356a3.088,3.088,0,1,0-3.838,2.08,2.938,2.938,0,0,0,.884.129,3.085,3.085,0,0,0,2.955-2.209M93.169,203.6a3.089,3.089,0,1,0-3.6,2.476,3,3,0,0,0,.571.056,3.082,3.082,0,0,0,3.028-2.532M78.146,201.34a3.089,3.089,0,0,0-2.881-3.285h-.008a3.09,3.09,0,1,0-.4,6.167,1.722,1.722,0,0,0,.2.008,3.089,3.089,0,0,0,3.082-2.89" transform="translate(546.333 70.375)" fill="#01baef"/>
            <path id="Path_45" data-name="Path 45" d="M73.144,407.319a3.1,3.1,0,0,0,3.093-3.093,3.155,3.155,0,0,0-.9-2.19,3.2,3.2,0,0,0-4.371,0,3.118,3.118,0,0,0-.912,2.19,3.115,3.115,0,0,0,3.093,3.093" transform="translate(745.279 142.554)" fill="#01baef"/>
            <path id="Path_46" data-name="Path 46" d="M357.411,173.853l37.3,4.586a.7.7,0,0,1,.375.165c4.26,3.63,7.815,3.463,11.133,4.47a74.85,74.85,0,0,0,8.2,1.3l9.063-21.672a1.955,1.955,0,0,0-1.115-2.318c-1.782-1-11.632.033-13.242.9-1.6.835-2.875-2.651-4.219-1.865-2.3,1.372-9.017,7.487-9.017,7.487l-36.642-5.064Z" transform="translate(8.505 56.607)" fill="#f69772"/>
            <rect id="Rectangle_107" data-name="Rectangle 107" width="8.375" height="17.575" transform="translate(398.208 237.397) rotate(-171.123)" fill="#fff"/>
            <path id="Path_47" data-name="Path 47" d="M425.864,71.531l17.694,107.425,89.324,12.761-3.19,21.268-99.928-7.8a13.263,13.263,0,0,1-11.675-9.422L385.071,85.377Z" transform="translate(-138.327 25.418)" fill="#e8f1f2"/>
            <path id="Path_48" data-name="Path 48" d="M681.072,345.763l-49.025,17.075a12.259,12.259,0,0,0-5.206,3.516c-3.387,3.893-3.024,7.328-4.141,11.657a38.043,38.043,0,0,0-1.136,9.342L615.2,393.11l-3-8.381,7.185-32.912L674.9,328.579Z" transform="translate(-594.354 116.759)" fill="#f69772"/>
            <path id="Path_49" data-name="Path 49" d="M679.8,346.036s-12.874-3.455-25.025,1.438L677.6,411.112a3.106,3.106,0,0,0,5.958-.386c.568-2.61.226-6.128-2.43-10.637a6.848,6.848,0,0,1-.9-4.313l1.753-14.2-4.641-1.01Z" transform="translate(-654.777 122.541)" fill="#192853"/>
            <path id="Path_50" data-name="Path 50" d="M669.992,293.065l31.2-17.724-4.784,50.515-149.6,53.359-18.816,6.933-11.5-25.436s123.187-59.193,153.5-67.647" transform="translate(-484.757 97.841)" fill="#e8f1f2"/>
            <path id="Path_51" data-name="Path 51" d="M530.667,380.308l-.492,51.911a12.255,12.255,0,0,0,1.551,6.087c2.521,4.5,5.875,5.322,9.574,7.837a38.038,38.038,0,0,0,8.407,4.225l3.271,7.93-8.9,0-28.549-17.882-3.116-60.1Z" transform="translate(-331.008 135.14)" fill="#f69772"/>
            <path id="Path_52" data-name="Path 52" d="M500.233,424.659s-7.6,10.95-7.1,24.038l67.607.019a3.106,3.106,0,0,0,1.65-5.739c-2.266-1.416-5.691-2.281-10.833-1.305a6.849,6.849,0,0,1-4.363-.611l-12.777-6.447-2.518,4.027Z" transform="translate(-315.719 150.9)" fill="#192853"/>
            <path id="Path_53" data-name="Path 53" d="M445.638,59.859,459.7,90.1l.655-.838.965-1.223.328-.419L474.771,70.8l3.105-3.963,2.492-12.052-3.921-13.307-20.9,5.759Z" transform="translate(-167.901 14.739)" fill="#f69772"/>
            <path id="Path_54" data-name="Path 54" d="M460.78,418.888l139.95-249.007c1.468-3.636,2.807-7.593,4.115-11.836,2.361-7.624,4.562-16.013,6.763-24.5,1.4-5.392,2.839-10.783,4.275-16.047,1.18-4.306,2.392-8.486,3.733-12.473a78.779,78.779,0,0,1,13.59-25.106,74.454,74.454,0,0,1,18.662-16.43c4.755-2.967,11.8-7.209,19.047-9.761,8.006-2.743,23.542-3.636,29.381,1.818,3.956,3.765,3.956,13.877,5.55,20.992a17.255,17.255,0,0,0,1.531,4.5q.634,1.212,1.167,2.46a42.418,42.418,0,0,1,4.936,26.562c-4.029,27.789-85.7,415.589-85.7,415.589l-1.437,20H598.433S455.995,449.992,460.78,418.888" transform="translate(-421.809 18.319)" fill="#fafdfd"/>
            <g id="Group_25" data-name="Group 25" transform="translate(190.916 75.499)" style="mix-blend-mode: multiply;isolation: isolate">
              <g id="Group_24-2" data-name="Group 24">
                <g id="Group_23" data-name="Group 23" clip-path="url(#clip-path-3)">
                  <path id="Path_55" data-name="Path 55" d="M483.072,108.329s1.679.114.525-.595c1.439-3.321.52-9.91,2.168-13.377,1.271-2.621,2.578-5.275,3.935-7.9C499.081,71.436,510.424,62.49,521.04,57.2l5-1.491,29.626,23.113s.785,16.621-19.631,23.227l-48.176,11.031c-2.4,3.106-9.815,14.735-9.815,14.735Z" transform="translate(-478.046 -55.705)" fill="#e8f1f2"/>
                </g>
              </g>
            </g>
            <path id="Path_56" data-name="Path 56" d="M643.083,131.909l-17.175,13.454-1.092,13.308s-.489,3.148-2.656,4.7a44.739,44.739,0,0,0-2.894,4.17s-.411,2.476-4.475,2.781l-3.579,1.8s-1.3,1.351-2.849-.815a5.131,5.131,0,0,1,1.056-3.024,2.979,2.979,0,0,1-2.333-4.042s-4.086-1.723-2.75-5.253a2.949,2.949,0,0,1-1.391-4.21c-5.492-2.5-.222-9.321,2.783-11.06l12.241-7.086,16.859-14.608Z" transform="translate(-540.577 43.363)" fill="#f69772"/>
            <rect id="Rectangle_109" data-name="Rectangle 109" width="17.575" height="8.376" transform="matrix(-0.653, -0.757, 0.757, -0.653, 89.611, 189.208)" fill="#fff"/>
            <path id="Path_57" data-name="Path 57" d="M649.74,94.773c12.116-2.861,18.289-15.779,13.853-27.41s-17.4-16.272-28.945-11.611L549.091,90.3a54.726,54.726,0,0,0-13.472,8.425l-58.106,52.4,14.155,16.423,64.467-50.678Z" transform="translate(-395.765 19.175)" fill="#fafdfd"/>
            <g id="Group_28" data-name="Group 28" transform="translate(283.45 63.991)" opacity="0.5" style="mix-blend-mode: multiply;isolation: isolate">
              <g id="Group_27" data-name="Group 27">
                <g id="Group_26" data-name="Group 26" clip-path="url(#clip-path-4)">
                  <path id="Path_58" data-name="Path 58" d="M449.776,65.183l10.283,20.4,13.125-16.823s.361-18.79-5.05-21.547c0,0,1.711,10.1-8.029,11.172,0,0-10.752-1.255-10.329,6.8" transform="translate(-449.763 -47.214)" fill="#f69772"/>
                </g>
              </g>
            </g>
            <path id="Path_59" data-name="Path 59" d="M424.986,21.2A13.517,13.517,0,0,0,437.551,35.27a12.988,12.988,0,1,0,1.214-25.944c-7.288-.342-13.445,4.706-13.78,11.87" transform="translate(-110.892 3.308)" fill="#062e40"/>
            <path id="Path_60" data-name="Path 60" d="M430.634,36.976c-.249,5.317,1.269,9.708,3.387,9.807s4.039-4.131,4.288-9.448-1.267-9.708-3.387-9.809-4.039,4.131-4.288,9.449" transform="translate(-105.498 9.781)" fill="#fff"/>
            <path id="Path_61" data-name="Path 61" d="M432.822,17.087l-1.793,38.349,14.865.287,6.6.371L452,73.888h.005a9.783,9.783,0,0,0,1.369.984l.146.095a10.684,10.684,0,0,0,15.47-5.648c.946-2.669,1.827-5.341,2.579-7.7,1.393-4.4,2.327-7.671,2.327-7.671l4.3.2a1.491,1.491,0,0,0,1.5-1.91l-3.68-12.458a47.189,47.189,0,0,0-1.236-20.733Z" transform="translate(-147.491 6.072)" fill="#f69772"/>
            <path id="Path_62" data-name="Path 62" d="M482.3,18.258l4.885,13.816-4.469,14.639-4.94-.23-10.459-.491s.506,14.086-9.462,15.561L458.159,55a8.041,8.041,0,0,0-1.372-4.885c-4.666-6.915-17.969-28.373-7.029-33.375Z" transform="translate(-174.596 5.947)" fill="#062e40"/>
            <path id="Path_63" data-name="Path 63" d="M434.173,22.679l.217-4.645a7.37,7.37,0,0,1,7.708-7.018,15.116,15.116,0,0,0,7.991-1.858l8.92-4.91a34.249,34.249,0,0,1,18.12-4.21l1.046.049a9.409,9.409,0,0,1,8.926,9.978l-.7,15.058Z" transform="translate(-159.106 0)" fill="#062e40"/>
            <path id="Path_64" data-name="Path 64" d="M436.1,36.72c-.249,5.318,1.267,9.71,3.387,9.809s4.039-4.132,4.287-9.449-1.266-9.708-3.387-9.807S436.344,31.4,436.1,36.72" transform="translate(-118.359 9.69)" fill="#fff"/>
            <rect id="Rectangle_111" data-name="Rectangle 111" width="31.143" height="2.989" transform="matrix(-0.999, -0.047, 0.047, -0.999, 330.179, 47.859)" fill="#fff"/>
            <path id="Path_65" data-name="Path 65" d="M437.626,74.324a9.493,9.493,0,0,1,1.4-11.752c.039-.039,7.957-7.614.283-15.092a26.321,26.321,0,0,1,3.4-8.807l5.229.245s-.554,15.288,15.351,15.02a1.521,1.521,0,0,1,.56.009c.018,0,.033,0,.053,0l-.005.015a1.529,1.529,0,0,1,1.121,1.06,1.548,1.548,0,0,1-1.072,1.91c-.045,6.446-.771,15.742-6.235,20.188-5.806,4.725-15.939,3.844-20.065-2.77l-.018-.027" transform="translate(-139.819 13.742)" fill="#01161e"/>
            <path id="Path_66" data-name="Path 66" d="M463.849,41.593l.234-5.027a6.064,6.064,0,0,0-1.472-4.253,4.635,4.635,0,0,0-5.461-1.5s-8.316,2.346-2.643,11.836c.018.03.038.06.056.088l4.429,6.731a2.39,2.39,0,0,0,1.88,1.071l.171.008a2.387,2.387,0,0,0,2.494-2.27Z" transform="translate(-160.961 10.824)" fill="#f69772"/>
            <path id="Path_67" data-name="Path 67" d="M466.1,50.915l-7.491,2.017,15.821,42.711,5.954-11.7Z" transform="translate(-185.503 18.092)" fill="#e8f1f2"/>
            <path id="Path_68" data-name="Path 68" d="M329.532,210.542l-59.767,19.076-36.18,11.548L250.6,211.344l6.128-.8,70.643-9.254Z" transform="translate(270.338 71.527)" fill="#2c518d"/>
            <path id="Path_69" data-name="Path 69" d="M249.6,228.458l-27.486-15.107,17.3-26.159Z" transform="translate(365.815 66.517)" fill="#2c518d"/>
            <path id="Path_70" data-name="Path 70" d="M234.73,227.773a2.586,2.586,0,0,1-5.018,1.258l-10.226-40.808a2.586,2.586,0,0,1,5.018-1.258Z" transform="translate(384.279 65.741)" fill="#617daa"/>
            <g id="Group_31" data-name="Group 31" transform="translate(503.924 282.072)" opacity="0.5" style="mix-blend-mode: multiply;isolation: isolate">
              <g id="Group_30" data-name="Group 30">
                <g id="Group_29" data-name="Group 29" clip-path="url(#clip-path-5)">
                  <path id="Path_71" data-name="Path 71" d="M313.862,227.192l-36.18,11.549,17.011-29.822,6.129-.8c-1.574,5.589-.842,13.75,13.04,19.074" transform="translate(-277.681 -208.118)" fill="#2c518d"/>
                </g>
              </g>
            </g>
            <rect id="Rectangle_113" data-name="Rectangle 113" width="87.698" height="104.739" transform="translate(497.349 328.989) rotate(-150.297)" fill="#2c518d"/>
            <g id="Group_34" data-name="Group 34" transform="translate(420.97 280.582)" opacity="0.5" style="mix-blend-mode: multiply;isolation: isolate">
              <g id="Group_33" data-name="Group 33">
                <g id="Group_32" data-name="Group 32" clip-path="url(#clip-path-6)">
                  <rect id="Rectangle_114" data-name="Rectangle 114" width="87.697" height="6.115" transform="translate(76.173 48.767) rotate(-150.297)" fill="#2c518d"/>
                </g>
              </g>
            </g>
            <rect id="Rectangle_116" data-name="Rectangle 116" width="100.758" height="10.076" transform="matrix(-0.869, -0.496, 0.496, -0.869, 496.275, 343.987)" fill="#617daa"/>
            <path id="Path_72" data-name="Path 72" d="M389.125,258.971l-81.39-46.43.789-1.384a2.886,2.886,0,0,1,3.937-1.076l76.376,43.572a2.883,2.883,0,0,1,1.076,3.935Z" transform="translate(109.077 74.516)" fill="#2c518d"/>
            <g id="Group_37" data-name="Group 37" transform="translate(466.142 191.966)" opacity="0.5" style="mix-blend-mode: multiply;isolation: isolate">
              <g id="Group_36" data-name="Group 36">
                <g id="Group_35" data-name="Group 35" clip-path="url(#clip-path-7)">
                  <path id="Path_73" data-name="Path 73" d="M354.431,185.09,319.39,165.1l-12.682-7.235-28.45-16.23-8.413,14.746L298.3,172.61l-.3.525a7.3,7.3,0,0,0,12.682,7.235l.3-.525,35.042,19.991Z" transform="translate(-269.846 -141.636)" fill="#2c518d"/>
                </g>
              </g>
            </g>
            <path id="Path_74" data-name="Path 74" d="M373.57,155.628a13.464,13.464,0,0,0-19.564,7.812l-12.443,41.314a8.571,8.571,0,0,0,15.652,6.718L378.594,174a13.482,13.482,0,0,0-5.024-18.368m4.437-7.78a22.42,22.42,0,0,1,8.365,30.585L364.992,215.91a17.526,17.526,0,0,1-32.005-13.739l12.442-41.314a22.422,22.422,0,0,1,32.578-13.009" transform="translate(76.837 51.49)" fill="#2c518d"/>
            <path id="Path_75" data-name="Path 75" d="M271.056,143.939l81.388,46.43-.789,1.384a2.885,2.885,0,0,1-3.936,1.076l-76.378-43.57a2.886,2.886,0,0,1-1.076-3.936Z" transform="translate(198.225 51.148)" fill="#2c518d"/>
            <path id="Path_76" data-name="Path 76" d="M332.292,185.119l-39.427-39.984a14.347,14.347,0,0,0-20.352-.077,34.1,34.1,0,0,0-2.35,2.613Z" transform="translate(218.004 50.055)" fill="#2c518d"/>
            <path id="Path_77" data-name="Path 77" d="M353.9,190.663a3.793,3.793,0,0,1-5.175,1.415l-80.928-46.167a3.794,3.794,0,0,1,3.76-6.591l80.928,46.167a3.793,3.793,0,0,1,1.415,5.176" transform="translate(201.705 49.329)" fill="#617daa"/>
            <path id="Path_78" data-name="Path 78" d="M293.007,179.457a6.22,6.22,0,0,1-10.8-6.164l26.012-45.6,10.8,6.163Z" transform="translate(216.07 45.377)" fill="#2c518d"/>
            <path id="Path_79" data-name="Path 79" d="M308.036,165.745a3.235,3.235,0,1,1-1.208-4.412,3.234,3.234,0,0,1,1.208,4.412" transform="translate(198.694 57.178)" fill="#fff"/>
            <path id="Path_80" data-name="Path 80" d="M351.558,164.8s4.259-7.35,18.064-6.645a21.586,21.586,0,0,0,10.147-1.819s2.341-.911,3.253.556a1.064,1.064,0,0,1,.108.889c-.308.949-1.422,3.307-5.114,4.634a56.554,56.554,0,0,1-6.945,1.983s-10.175,9.1-19.514.4" transform="translate(56.795 55.453)" fill="#f69772"/>
            <path id="Path_81" data-name="Path 81" d="M364.3,179.389c2.358.165,4.2-1.721,3.836-3.387a3.213,3.213,0,0,0-1.054-1.743c1.893,1,3.937-.473,4.469-1.532a4.191,4.191,0,0,0-.218-4,2.878,2.878,0,0,0,2.186-1.54c1.053-2.868-.777-4.321-2.116-4.65a34.2,34.2,0,0,0-3.761-.767c-1.973-.43-3.949-.82-4.934-.237a3.39,3.39,0,0,0-.946,4.614,3.131,3.131,0,0,0-3.978,3.319,3.339,3.339,0,0,0,1.023,1.794c-2.629-.469-3.857.239-4.543,1.422a4.074,4.074,0,0,0,.11,4.042,2.875,2.875,0,0,0-2.243,1.491c-1.2,2.983.664,4.4,2.017,4.755a25.218,25.218,0,0,0,4.9,1.011l.023-.022c1.8.332,3.531.568,4.412.026a3.39,3.39,0,0,0,.823-4.6" transform="translate(65.9 57.297)" fill="#f69772"/>
          </g>
        </g>
      </g>
    </g>
  </g>
</svg>
