<svg xmlns="http://www.w3.org/2000/svg" xmlns:xlink="http://www.w3.org/1999/xlink" width="1920.216" height="879.92" viewBox="0 0 1920.216 879.92">
  <defs>
    <clipPath id="clip-path">
      <rect id="Rectangle_119" data-name="Rectangle 119" width="870.714" height="572.92" fill="none"/>
    </clipPath>
    <clipPath id="clip-path-3">
      <rect id="Rectangle_108" data-name="Rectangle 108" width="73.751" height="68.507" fill="none"/>
    </clipPath>
    <clipPath id="clip-path-4">
      <rect id="Rectangle_110" data-name="Rectangle 110" width="22.255" height="36.455" fill="none"/>
    </clipPath>
    <clipPath id="clip-path-5">
      <rect id="Rectangle_112" data-name="Rectangle 112" width="34.375" height="29.093" fill="none"/>
    </clipPath>
    <clipPath id="clip-path-6">
      <rect id="Rectangle_115" data-name="Rectangle 115" width="75.25" height="46.332" fill="none"/>
    </clipPath>
    <clipPath id="clip-path-7">
      <rect id="Rectangle_117" data-name="Rectangle 117" width="80.364" height="55.295" fill="none"/>
    </clipPath>
  </defs>
  <g id="Group_1467" data-name="Group 1467" transform="translate(0.216 -134)">
    <g id="Group_45" data-name="Group 45">
      <path id="Path_1" data-name="Path 1" d="M1107.318,783.462c-5.969-64.641-64.512-115.417-135.941-115.417a145.049,145.049,0,0,0-62.268,13.9c-4.486-89.694-84.47-161.162-182.472-161.162a193.567,193.567,0,0,0-79.527,16.926c.114-1.407.228-2.781.228-4.188,0-29.945-26.268-54.225-58.619-54.225a61.893,61.893,0,0,0-23.417,4.54,173.21,173.21,0,0,0,10.3-58.624c0-102.468-89.753-185.547-200.453-185.547a215.536,215.536,0,0,0-42.424,4.187c-5.018,1.02-9.96,2.182-14.864,3.519-2.965-20.234-13.381-38.285-28.625-51.692a94.471,94.471,0,0,0-21.707-14.286,101.305,101.305,0,0,0-86.863,0,94.708,94.708,0,0,0-21.745,14.286,93.046,93.046,0,0,0-10.72,11.154,82.329,82.329,0,0,0,1.292-11.154c.038-1.161.076-2.357.076-3.554a77.231,77.231,0,0,0-.722-10.733,82.875,82.875,0,0,0-2.015-10.24c-.038-.106-.038-.177-.076-.281a79.647,79.647,0,0,0-2.737-8.34c-10.644-27.411-35.62-48.489-66.564-55.492a60.39,60.39,0,0,0,.684-73.192A69.755,69.755,0,0,0,41.723,8.686a68.556,68.556,0,0,0-7.3-1.724A73.658,73.658,0,0,0,20.663,5.7,75.969,75.969,0,0,0,3.29,7.7,40.1,40.1,0,0,0,0,0V875.62H1187.3a72.1,72.1,0,0,0,1.369-14.146c0-42.19-36.153-76.534-81.352-78.012" transform="translate(0 134)" fill="#b9ecfc"/>
      <path id="Path_2" data-name="Path 2" d="M2220.968,413.44a40.7,40.7,0,0,0,1.813,11.978c-24.957,4-43.874,23.175-43.874,46.24a41.772,41.772,0,0,0,2.4,13.959,54.592,54.592,0,0,0-40.841-1.941,50.1,50.1,0,0,0-12.9,6.763c-19.856-19.749-48.868-32.212-81.219-32.212-59.836,0-108.339,42.6-108.339,95.163a84.776,84.776,0,0,0,8.132,36.206v.012c.763,1.637,1.587,3.252,2.454,4.846a94.323,94.323,0,0,0,13.4,18.614,26.184,26.184,0,0,0-14.276,15.435,50.2,50.2,0,0,0-19.706-.456,46.358,46.358,0,0,0-4.616,1.048A43.993,43.993,0,0,0,1900.36,644.2a34.8,34.8,0,0,0,.424,43.932c-19.583,4.209-35.391,16.861-42.113,33.324v.007a46.262,46.262,0,0,0-1.735,5.017c-.013.051-.033.1-.044.161a46.877,46.877,0,0,0-1.729,12.594c0,.718.019,1.433.053,2.137a46.442,46.442,0,0,0,.8,6.7,55.607,55.607,0,0,0-6.783-6.7,60.469,60.469,0,0,0-13.746-8.592,67.4,67.4,0,0,0-54.979,0,60.38,60.38,0,0,0-13.733,8.592c-9.651,8.042-16.243,18.885-18.121,31.039q-4.627-1.212-9.4-2.114a143.393,143.393,0,0,0-26.854-2.514c-70.043,0-126.826,49.879-126.826,111.4a98.92,98.92,0,0,0,6.52,35.2,41.362,41.362,0,0,0-14.827-2.724c-20.482,0-37.086,14.585-37.086,32.576,0,.844.073,1.672.144,2.5a128.239,128.239,0,0,0-50.32-10.163c-62.034,0-112.647,42.914-115.485,96.788a95.706,95.706,0,0,0-39.4-8.351c-45.183,0-82.235,30.484-86.017,69.312-28.595.877-51.484,21.508-51.484,46.844a41.137,41.137,0,0,0,.881,8.494H2272.613V367.543c-28.582.286-51.645,20.724-51.645,45.9" transform="translate(-352.624 -139.663)" fill="#ecfbff"/>
      <path id="Path_3" data-name="Path 3" d="M1911.087,804.885A62.769,62.769,0,0,0,1876.4,844.7a13.33,13.33,0,0,0-.673,1.467,16.171,16.171,0,0,0-26.417,3.664,51.521,51.521,0,0,0-76.787,6.714,80.957,80.957,0,0,0-34.128-7.505c-.733.029-1.466.029-2.2.058a23.882,23.882,0,0,0-23.074-17.8,21.846,21.846,0,0,0-2.815.176,81.555,81.555,0,0,0-25.009-26.593,81.172,81.172,0,0,0-113.377,23.573,20.434,20.434,0,0,0-15.774-7.389,20.138,20.138,0,0,0-10.76,3.079,96.967,96.967,0,0,0-3.7-19.263c-.146-.41-.263-.821-.38-1.2a98.777,98.777,0,0,0-188.728.557,31.542,31.542,0,0,0-14.807-3.665,31.876,31.876,0,0,0-26.68,14.455,81.046,81.046,0,0,0-125.252,13.545,31.89,31.89,0,0,0-53.655-10.7,10.013,10.013,0,0,0-14.571-3.136,38.781,38.781,0,0,0-75.2-.646,10.007,10.007,0,0,0-16.447,2.17,31.792,31.792,0,0,0-47.439,4.134,50.172,50.172,0,0,0-21.081-4.633c-.468.03-.909.03-1.378.03A14.752,14.752,0,0,0,941.823,804.8a11.812,11.812,0,0,0-1.759.117,50.152,50.152,0,0,0-85.524-1.877,12.619,12.619,0,0,0-16.39-2.667,58.924,58.924,0,0,0-2.287-11.9c-.088-.235-.146-.5-.234-.733A61.046,61.046,0,0,0,719,788.085a18.735,18.735,0,0,0-3.309-1.384,61.762,61.762,0,0,0-73.005-12.472A82.676,82.676,0,0,0,524.03,703.657c.052-.675.1-1.349.1-2.036a26.526,26.526,0,0,0-37.149-24.32A90.778,90.778,0,0,0,381.675,559.913q-3.409.736-6.725,1.723a42.87,42.87,0,0,0-76.828-19.828,43.086,43.086,0,0,0,.574-5.46c.023-.574.037-1.157.037-1.74a42.44,42.44,0,0,0-.322-5.26,41.8,41.8,0,0,0-.915-5c-.009-.046-.023-.089-.033-.131a41.15,41.15,0,0,0-1.241-4.087v-.005a42.944,42.944,0,0,0-30.136-27.15,31.47,31.47,0,0,0-16.183-48.1,29.688,29.688,0,0,0-3.3-.854,31.655,31.655,0,0,0-14.1.371,20.527,20.527,0,0,0-10.215-12.574,77.5,77.5,0,0,0,9.59-15.166c.62-1.3,1.209-2.613,1.755-3.948v-.009A77.523,77.523,0,0,0,103.8,331.911a34.66,34.66,0,0,0-38.456-3.929,38.333,38.333,0,0,0-29.679-49.044,37.382,37.382,0,0,0,1.3-9.758A37.392,37.392,0,0,0,0,231.788V868.977H0v96.9H1920V801.689a61.905,61.905,0,0,0-8.913,3.2" transform="translate(0 43.879)" fill="#d8f4fd"/>
      <path id="Path_5" data-name="Path 5" d="M1618.441,961.657H815.052a42.989,42.989,0,0,1,22.9-12.16,27.242,27.242,0,0,1,8.745-1.448,27.654,27.654,0,0,1,15.732,5.009,44.915,44.915,0,0,1,10.165,6.9c6.461-10.419,16.948-17.2,28.795-17.191a30.449,30.449,0,0,1,8.645,1.259c4.023-17.764,17.876-30.862,34.331-30.848,10.417.015,19.774,5.269,26.263,13.629,1.914-3.932,5.531-6.583,9.692-6.583a10.05,10.05,0,0,1,6.519,2.477c3.184-15.309,12.332-27.888,24.4-34.178a37.612,37.612,0,0,1,35.123,0c11.852,6.184,20.874,18.422,24.208,33.36a10.5,10.5,0,0,1,8.339-4.4c4.364,0,8.135,2.932,9.967,7.2,6.358-7.038,14.936-11.355,24.389-11.342,11.655.015,21.974,6.591,28.44,16.736a49.02,49.02,0,0,1,23.479-6.031c.509.014,1.011.021,1.507.042,1.855-8.234,8.25-14.315,15.882-14.315a13.629,13.629,0,0,1,1.94.147,62.694,62.694,0,0,1,17.194-21.4,49.229,49.229,0,0,1,62.083,0,62.07,62.07,0,0,1,15.936,18.975,13.364,13.364,0,0,1,10.847-5.961,12.551,12.551,0,0,1,7.406,2.477,91.268,91.268,0,0,1,2.55-15.49c.084-.323.161-.644.252-.952,8.632-32.311,34.439-55.748,64.921-55.72a59.034,59.034,0,0,1,23.556,4.926c19.761,8.563,35.176,27.544,41.378,51.235a19.314,19.314,0,0,1,10.194-2.939c7.686,0,14.439,4.625,18.354,11.615,10.094-11.706,24-18.947,39.354-18.94,24.8.028,45.79,18.94,53.058,45.092a54.154,54.154,0,0,1,11.009-1.154c24.363,0,45.465,16.246,55.835,39.972" transform="translate(301.08 48.033)" fill="#ecfbff"/>
      <path id="Path_6" data-name="Path 6" d="M10.784,967.716H1156a65.116,65.116,0,0,0-32.641-14.831,44.822,44.822,0,0,0-12.467-1.767,44.137,44.137,0,0,0-22.425,6.11,65.532,65.532,0,0,0-14.491,8.414,50.569,50.569,0,0,0-53.367-19.43,50.577,50.577,0,0,0-86.376-21,15.865,15.865,0,0,0-23.108-5.008,61.719,61.719,0,0,0-34.79-41.686,61.685,61.685,0,0,0-50.066,0A61.724,61.724,0,0,0,791.76,919.2a15.869,15.869,0,0,0-26.095,3.413,50.528,50.528,0,0,0-75.307,6.58,79.332,79.332,0,0,0-33.469-7.356c-.724.017-1.442.025-2.15.051a23.42,23.42,0,0,0-22.64-17.459,22.6,22.6,0,0,0-2.764.18,80.106,80.106,0,0,0-24.508-26.1,79.566,79.566,0,0,0-88.5,0,80.079,80.079,0,0,0-22.715,23.142,20.034,20.034,0,0,0-26.019-4.249,96.6,96.6,0,0,0-3.635-18.893c-.119-.392-.231-.785-.359-1.16a96.879,96.879,0,0,0-185.106.538,31.249,31.249,0,0,0-40.7,10.581,79.562,79.562,0,0,0-131.73,31.9,89.2,89.2,0,0,0-95.284,47.343" transform="translate(-11 41.427)" fill="#ecfbff"/>
    </g>
    <g id="Group_24" data-name="Group 24" transform="translate(371.818 441)">
      <g id="Group_40" data-name="Group 40" clip-path="url(#clip-path)">
        <path id="Path_7" data-name="Path 7" d="M126.753,458.58H94.644l-.019-72.012,32.111-.1Z" transform="translate(622.114 111.185)" fill="#0e8934"/>
        <g id="Group_39" data-name="Group 39">
          <g id="Group_38" data-name="Group 38" clip-path="url(#clip-path)">
            <path id="Path_8" data-name="Path 8" d="M161.84,398.674s-1.934-6.964-16.5-18.393a31.148,31.148,0,0,1-11.289-30.691c.005-.028.012-.057.017-.085,0,0,0,7.74,10.47,12.292s20.033,19.121,17.3,36.877" transform="translate(536.586 100.55)" fill="#2dd782"/>
            <path id="Path_9" data-name="Path 9" d="M140.621,353.921c2.34,1.653,3.166,8.77,3.691,11.182,2.675,12.286-1.029,25.914,4,37.641,4.606,10.751,13.825,16.892,25.091,19.467,0,0-4.046-7.756-5.174-20.364a65.891,65.891,0,0,0-27.6-47.927" transform="translate(516.238 101.82)" fill="#0e8934"/>
            <path id="Path_10" data-name="Path 10" d="M153.858,357.481s3.755,1.435,14.256,3.649a38.335,38.335,0,0,1,29.653,29.923l.01.058s-5.488-.188-16.154-4.741c-12.975-5.542-22.139-15.933-27.759-28.874l-.006-.016" transform="translate(474.815 102.844)" fill="#2dd782"/>
            <path id="Path_11" data-name="Path 11" d="M109.282,253.516a.635.635,0,0,1-.358-.058c-.171-.084-.434-.214-.6-.3-4.574-2.448-7.153-6.89-7.973-11.888a11.987,11.987,0,0,1,1.733-8.071c1.337-2.356,3.317-4.419,3.951-7.118.465-1.979.166-4.068.569-6.056l.018-.089s9.394,6.361,11.015,17.457a17.266,17.266,0,0,1-1.845,10.617c-1.348,2.528-3.454,5.119-6.509,5.509" transform="translate(623.857 63.273)" fill="#0e8934"/>
            <path id="Path_12" data-name="Path 12" d="M138.478,245.343a.959.959,0,0,0,.485-.254c.2-.2.519-.51.715-.715,5.377-5.661,6.963-13.228,5.773-20.758-.7-4.4-3.048-7.78-6.294-10.714-3.024-2.735-6.829-4.748-9.01-8.3-1.6-2.609-2.162-5.733-3.678-8.385l-.067-.117s-10.416,13.532-7.485,30.153a25.991,25.991,0,0,0,7.657,14.3c3.123,2.973,7.355,5.68,11.9,4.794" transform="translate(572.431 56.415)" fill="#0e8934"/>
            <path id="Path_13" data-name="Path 13" d="M171.408,403.175h-4.579a70.021,70.021,0,0,0-.876-14.169,17.713,17.713,0,0,0-9.618-13.263,135.908,135.908,0,0,0-14-6.231c-9.073-3.2-8-16.808-17.068-23.469-9.186-6.746-9.79-11.355-8.628-14.067a4.188,4.188,0,0,1,5.053-2.355c25.911,7.694,37.136,26.614,41.889,39.289,3.846,8.513,8.311,21.346,7.823,34.266" transform="translate(549.634 94.778)" fill="#0e8934"/>
            <path id="Path_14" data-name="Path 14" d="M11.957,295.326s31.472-25.6,62.409-18.136c11.865,2.865,26.171,13.543,26.26,26.8.091,13.176-12.693,10.75-21.295,7.06-10.82-4.641-19.59-12.863-31.085-16a61.2,61.2,0,0,0-16.871-1.986c-4.4.059-15.927-.573-19.418,2.266" transform="translate(754.691 79.353)" fill="#2dd782"/>
            <path id="Path_15" data-name="Path 15" d="M129,250.128c0,30.346-23.914,35.083-40.15,36.073a41.735,41.735,0,0,0-22.178,7.967c-1.006.717-2.01,1.45-3.029,2.183-6.89,4.995-13.924,9.99-20.773,15.215-.889.646-1.678,1.321-2.454,2.009a25.034,25.034,0,0,0-2.326,2.112l-2.153,2.282c-.7.775-1.306,1.651-1.966,2.47l-.961,1.248c-.317.417-.574.876-.877,1.306l-1.723,2.642-1.521,2.756c-.518.9-1,1.838-1.434,2.8a117.559,117.559,0,0,0-8.1,23.269,238.578,238.578,0,0,0-5.571,36.964c-.171,2.253-.33,4.45-.458,6.589-.761,12.876-.7,23.656-.546,31.178.086,3.791.215,6.748.315,8.756H9.883c-.085-2.024-.2-4.981-.258-8.7-.115-7.579-.115-18.432.731-31.424a269.794,269.794,0,0,1,4.81-37.12c.474-2.283.99-4.58,1.563-6.89a119.649,119.649,0,0,1,8.427-23.758,30.688,30.688,0,0,1,1.494-2.884l1.608-2.842,1.794-2.743c.315-.458.6-.919.918-1.362l1.02-1.307c.7-.847,1.334-1.751,2.081-2.57l2.283-2.412a32.967,32.967,0,0,1,2.483-2.224c.849-.733,1.71-1.451,2.57-2.068,6.92-5.224,14.01-10.192,20.916-15.129,6.933-4.938,13.679-9.848,20-14.873a187.728,187.728,0,0,0,17.356-15.416,113.583,113.583,0,0,0,13.221-15.962c8.2-12.288,11.655-25.7,15.848-39.678Z" transform="translate(729.389 60.008)" fill="#2dd782"/>
            <path id="Path_16" data-name="Path 16" d="M60.98,355.59s-11.6-31.2,12-46.806c0,0,9.2-7.6,26-11.6,0,0,15.2,47.606-38.006,58.407" transform="translate(694.865 85.497)" fill="#0e8934"/>
            <path id="Path_17" data-name="Path 17" d="M101.115,336.878s-.3,1.048-.747,2.886c-.216.9-.516,2.01-.789,3.3-.288,1.277-.6,2.727-.962,4.306s-.661,3.3-1.034,5.111c-.345,1.823-.775,3.733-1.077,5.728-.345,1.995-.689,4.063-1.048,6.144s-.632,4.235-.932,6.374-.588,4.264-.876,6.359c-.288,2.111-.431,4.191-.661,6.187-.028.215-.044.43-.057.646-.187,1.78-.345,3.5-.518,5.153-.086.731-.143,1.449-.2,2.153-.072,1.048-.13,2.067-.187,3.029-.171,2.756-.317,5.11-.416,6.9H86.9c.2-1.852.474-4.35.789-7.306.173-1.637.331-3.388.646-5.241.273-1.852.56-3.8.876-5.827s.574-4.107.962-6.2c.388-2.111.789-4.249,1.192-6.387s.76-4.279,1.246-6.36c.461-2.1.919-4.149,1.349-6.144s.935-3.89,1.365-5.7c.458-1.823.861-3.531,1.292-5.11s.833-3,1.178-4.279.7-2.382.961-3.3c.546-1.838.89-2.857.89-2.857Z" transform="translate(657.695 96.793)" fill="#0e8934"/>
            <path id="Path_18" data-name="Path 18" d="M76.6,385.624s4.591-21.1,21.68-25.959a2.18,2.18,0,0,1,2.7,2.645c-1.357,5.2-6.315,15.472-24.384,23.314" transform="translate(671.017 103.449)" fill="#0e8934"/>
            <path id="Path_19" data-name="Path 19" d="M65.665,290.191a7.986,7.986,0,0,0-7.752,5.3c-3.7,10.35-8.857,30.907-11.441,68.8-.631,9.186-1.106,19.393-1.378,30.719-.317,13.205-.345,27.92,0,44.326v2.2h-8.47c-.027-1.65-.071-3.387-.113-5.182-.475-24.417-.417-61.007,3.244-82.353,5.541-32.2-3.631-85.267-7.823-98.8a1.986,1.986,0,0,1,.157-1.593,2.066,2.066,0,0,1,1.262-.976l.058-.014a1.949,1.949,0,0,1,2.369,1.406c2.412,9.819,13.106,54.95,10.98,72.836.388-2.957,2.714-19.451,7.653-33.963a22.609,22.609,0,0,0,.473-13.02c-19.206-73.928,76.627-83.761,76.627-83.761,3,87.421-46.323,94.627-65.845,94.081M46.73,327.112c-.015.072-.015.144-.03.215,0,0,.014-.071.03-.215" transform="translate(698.084 56.419)" fill="#0e8934"/>
            <path id="Path_20" data-name="Path 20" d="M139.006,266.023s17.352,14.936,16.494,41.528c.112-3.451-3.973-9.172-5.859-11.748-12.685-17.33-29.984-13.876-48.388-9.839Z" transform="translate(584.801 76.533)" fill="#0e8934"/>
            <path id="Path_21" data-name="Path 21" d="M101.959,332.619a1.928,1.928,0,0,1,2.135-2.17c6.732.793,25.63,5.474,31.727,32.911,0,0-28.727,7.694-33.862-30.741" transform="translate(603.623 95.064)" fill="#0e8934"/>
            <path id="Path_22" data-name="Path 22" d="M102.925,305.375s20.8,8.535,20.8,28.8c0,0-16,4.8-20.8-28.8" transform="translate(614.451 87.854)" fill="#0e8934"/>
            <path id="Path_23" data-name="Path 23" d="M125.553,287.931s54.656-11.509,62.409,35.739c0,0-19.533,9.3-38.405,0-18.724-9.228-24-35.739-24-35.739" transform="translate(521.078 82.48)" fill="#2dd782"/>
            <path id="Path_24" data-name="Path 24" d="M110.388,307.839l.514.259c.35.175.816.447,1.424.792a54.594,54.594,0,0,1,4.744,3.218c.921.743,1.957,1.509,2.963,2.417,1.034.882,2.092,1.847,3.142,2.892,1.091,1.007,2.1,2.163,3.172,3.289,1.04,1.156,2.042,2.381,3.062,3.591.946,1.264,1.932,2.507,2.835,3.777.867,1.292,1.744,2.551,2.551,3.8.764,1.274,1.5,2.5,2.2,3.674s1.247,2.335,1.811,3.382,1.075,2.014,1.453,2.9c.4.88.748,1.646,1.037,2.277l.9,1.987-4.007,1.562s-.276-.708-.76-1.947c-.242-.621-.534-1.374-.87-2.239-.314-.876-.764-1.818-1.236-2.856s-.962-2.179-1.556-3.344-1.249-2.38-1.914-3.643c-.73-1.228-1.482-2.5-2.248-3.787-.8-1.267-1.68-2.512-2.524-3.783-.916-1.217-1.814-2.453-2.756-3.624-.976-1.14-1.883-2.315-2.879-3.34-.957-1.068-1.925-2.054-2.875-2.96-.925-.936-1.88-1.726-2.731-2.5a52.9,52.9,0,0,0-4.391-3.352c-.554-.357-1-.648-1.289-.814s-.467-.27-.467-.27Z" transform="translate(587.264 88.563)" fill="#0e8934"/>
            <path id="Path_25" data-name="Path 25" d="M114.086,281.756s36.139-59.306,98.687-11.583c0,0-43.552,41.7-98.687,11.583" transform="translate(511.033 72.383)" fill="#2dd782"/>
            <path id="Path_26" data-name="Path 26" d="M132.7,431.784H120.155c9.747-102.478-16.006-199.861-16.006-199.861L106.891,230c14.685,58.739,18.82,130.7,19.954,171.984a99.158,99.158,0,0,0,1.492,14.57,87.644,87.644,0,0,0,2.354,10.049,33.075,33.075,0,0,0,2.01,5.182" transform="translate(603.901 66.169)" fill="#0e8934"/>
            <path id="Path_27" data-name="Path 27" d="M23.064,353.775a36.559,36.559,0,0,1-8.133,1.674A117.774,117.774,0,0,1,0,356.689l.834-.794c7.4-7.037,16.846-8.261,25.294-2.532Z" transform="translate(844.586 100.617)" fill="#2dd782"/>
            <path id="Path_28" data-name="Path 28" d="M28.889,385.7a16.18,16.18,0,0,0,1.325-5.213c.581-3.663.877-9.48-.072-18.36A26.169,26.169,0,0,1,33.5,346.439a21.844,21.844,0,0,1,4.977-6.034,25.15,25.15,0,0,1,3.156-2.3,22.283,22.283,0,0,1,3.46-1.456l.071-.023a4.781,4.781,0,0,0-.8.659,7.009,7.009,0,0,0-1.539,2.253c-.993,2.287-1.615,5.753.2,10.943,3.535,10.121-.787,22.144-14.129,35.224" transform="translate(788.354 96.844)" fill="#2dd782"/>
            <path id="Path_29" data-name="Path 29" d="M56.2,413.566a17.872,17.872,0,0,0,1-5.559,89.188,89.188,0,0,0-1.383-19.254,30.762,30.762,0,0,1-.234-8.776,31.991,31.991,0,0,1,2.393-8.268,31.482,31.482,0,0,1,4.5-7.3,29.5,29.5,0,0,1,6.6-5.661l.073-.045a10.534,10.534,0,0,0-2.293,4.009c-.957,2.637-1.128,6.766,1.024,12.005a25.1,25.1,0,0,1,1.817,8.822,34.943,34.943,0,0,1-1.03,10.114,35.694,35.694,0,0,1-4.479,10.281,39.36,39.36,0,0,1-7.979,9.636" transform="translate(729.701 103.195)" fill="#2dd782"/>
            <path id="Path_30" data-name="Path 30" d="M12.715,390.683s6.087-3.845,24.381-2.032a34.389,34.389,0,0,0,16.555-2.375,29.857,29.857,0,0,0,12.258-9.454l.046-.06s-4.834,3.034-15.861.439a33.579,33.579,0,0,0-18.262.523,39.435,39.435,0,0,0-9.615,4.6,52.463,52.463,0,0,0-9.5,8.357" transform="translate(788.387 108.226)" fill="#2dd782"/>
            <path id="Path_31" data-name="Path 31" d="M40.014,424.278s5.822-4.579,24.283-4.564a32.761,32.761,0,0,0,16.252-4.352,29.986,29.986,0,0,0,11.66-11.5l.04-.071s-4.507,3.949-15.821,2.4c-11.875-1.677-27.831,1.778-36.415,18.079" transform="translate(726.939 116.169)" fill="#2dd782"/>
            <path id="Path_32" data-name="Path 32" d="M77.722,391.911s7.431-4.759,11.069-1.586a2.824,2.824,0,0,1,.076,4.2c-1.957,1.8-6.306,4.087-15.134,2.338Z" transform="translate(686.004 111.98)" fill="#0e8934"/>
            <path id="Path_33" data-name="Path 33" d="M82.218,447.841s1.078-1.454,1.526-5.2a35.233,35.233,0,0,0-.013-7.469,75.6,75.6,0,0,0-1.79-11.6,32.9,32.9,0,0,1,.809-17.713,33.293,33.293,0,0,1,10.009-14.493l.062-.053a11.406,11.406,0,0,0-1.881,4.437c-.626,2.881-.627,7.1,1.916,12.3a22.254,22.254,0,0,1,1.565,16.739,47.026,47.026,0,0,1-4.441,10.292,128.212,128.212,0,0,1-7.761,12.762" transform="translate(670.905 112.578)" fill="#2dd782"/>
            <path id="Path_34" data-name="Path 34" d="M18.192,464.012a575.9,575.9,0,0,1,62.641-76.831,366.429,366.429,0,0,1,26.81-25.068c3.324-2.714,5.876-4.853,7.654-6.2l2.732-2.008.923.967-2.73,2c-1.762,1.432-4.347,3.531-7.637,6.2-6.6,5.479-15.859,13.924-26.753,25.028-18.56,18.907-40.925,46.349-61.651,77.744Z" transform="translate(728.336 101.815)" fill="#0e8934"/>
            <path id="Path_35" data-name="Path 35" d="M66.509,434.789l15.909-35.911.16.581c1.531-15.588,8.062-23.956,16.954-29.511C109.214,363.9,110,357.655,110,357.655c.006.028.012.057.018.085a31.152,31.152,0,0,1-11.29,30.692c-8.889,6.975-13.06,12.274-14.971,15.356l.024.09s-.434.664-1.114,1.877a8.281,8.281,0,0,0-.438,1.069c0-.1.005-.183.005-.279a75.7,75.7,0,0,0-8.91,37.79Z" transform="translate(674.429 102.895)" fill="#0e8934"/>
            <path id="Path_36" data-name="Path 36" d="M151.031,401.323a33.184,33.184,0,0,1,20.221,28.443,49.567,49.567,0,0,0,3.248,6.2,27.233,27.233,0,0,0,2.608,3.585,13.735,13.735,0,0,0,2.687,2.492,5.5,5.5,0,0,0,1.173.682,2.508,2.508,0,0,0,.919.359l.8.218-.681,3.41-1.266-.453a4.857,4.857,0,0,1-1.329-.67,8.469,8.469,0,0,1-1.513-1.084,16.618,16.618,0,0,1-2.939-3.267,29.648,29.648,0,0,1-2.467-4.146,53.3,53.3,0,0,1-2.644-6.344c-1.884-1.167-5.6-3.425-11.446-6.8-10.587-6.1-16.231-16.127-18.887-28.051l0-.014a95.893,95.893,0,0,0,11.522,5.44" transform="translate(539.387 113.892)" fill="#0e8934"/>
            <path id="Path_37" data-name="Path 37" d="M231.86,195.973a2.917,2.917,0,0,0,2.072-.858,2.922,2.922,0,0,0,0-4.154,3.042,3.042,0,0,0-4.153,0,2.935,2.935,0,0,0,2.081,5.012" transform="translate(341.133 54.702)" fill="#01baef"/>
            <path id="Path_38" data-name="Path 38" d="M277.655,459.052a2.933,2.933,0,1,0-.455.035,2.712,2.712,0,0,0,.455-.035m-2.317-14.4a2.9,2.9,0,1,0-.518.053,2.684,2.684,0,0,0,.518-.053m-2.65-14.342a2.92,2.92,0,1,0-.586.062,2.681,2.681,0,0,0,.586-.062M269.7,416.041a2.95,2.95,0,0,0,2.214-3.523h-.01a2.938,2.938,0,1,0-2.859,3.594,3.251,3.251,0,0,0,.655-.071m-3.366-14.193a2.923,2.923,0,1,0-.735.1,3.019,3.019,0,0,0,.735-.1m-3.754-14.089a2.948,2.948,0,1,0-.82.113,2.934,2.934,0,0,0,.82-.113m-4.18-13.966a2.937,2.937,0,1,0-3.7-1.888,2.911,2.911,0,0,0,2.792,2.028,3.01,3.01,0,0,0,.909-.14m-4.634-13.826a2.907,2.907,0,1,0-1,.184,2.871,2.871,0,0,0,1-.184m-5.116-13.651a2.925,2.925,0,1,0-1.1.218,2.883,2.883,0,0,0,1.1-.218m-5.623-13.442a2.965,2.965,0,1,0-1.208.254,2.95,2.95,0,0,0,1.208-.254m-6.174-13.205a2.93,2.93,0,1,0-1.32.315,2.946,2.946,0,0,0,1.32-.315M230.1,306.752a2.948,2.948,0,1,0-1.442.376,2.934,2.934,0,0,0,1.442-.376m-7.363-12.585a2.936,2.936,0,1,0-1.566.455,2.924,2.924,0,0,0,1.566-.455m-7.994-12.182a2.932,2.932,0,1,0-1.7.551,2.928,2.928,0,0,0,1.7-.551m-8.665-11.719a2.94,2.94,0,1,0-1.838.648,2.933,2.933,0,0,0,1.838-.648m-9.341-11.185a2.935,2.935,0,1,0-1.984.77,2.931,2.931,0,0,0,1.984-.77m-10.03-10.573a2.957,2.957,0,1,0-2.126.9,2.94,2.94,0,0,0,2.126-.9m-10.723-9.882a2.932,2.932,0,1,0-2.256,1.059,2.939,2.939,0,0,0,2.256-1.059m-11.377-9.1a2.938,2.938,0,1,0-4.1.664,2.979,2.979,0,0,0,1.715.552,2.921,2.921,0,0,0,2.387-1.217M152.6,221.251a2.934,2.934,0,1,0-4.039.97,2.975,2.975,0,0,0,1.539.429,2.907,2.907,0,0,0,2.5-1.4M140,213.9a2.937,2.937,0,1,0-3.952,1.259,2.859,2.859,0,0,0,1.347.332A2.919,2.919,0,0,0,140,213.9M126.9,207.5a2.94,2.94,0,1,0-3.855,1.557,2.978,2.978,0,0,0,1.145.227A2.932,2.932,0,0,0,126.9,207.5M113.349,202.1a2.936,2.936,0,1,0-3.725,1.847,2.987,2.987,0,0,0,.945.157,2.94,2.94,0,0,0,2.78-2m-13.923-4.372a2.937,2.937,0,1,0-3.576,2.107,2.984,2.984,0,0,0,.734.1,2.938,2.938,0,0,0,2.842-2.2m-14.2-3.349a2.939,2.939,0,1,0-3.419,2.353,2.76,2.76,0,0,0,.533.053,2.939,2.939,0,0,0,2.886-2.405M70.813,192.05a2.94,2.94,0,1,0-3.245,2.6c.1.009.219.018.323.018a2.942,2.942,0,0,0,2.922-2.615m-46.332,2.4h0a2.94,2.94,0,1,0-.315.017c.106,0,.21-.008.315-.017m31.78-3.709a2.936,2.936,0,1,0-3.052,2.816v.009h.121a2.939,2.939,0,0,0,2.931-2.825m-17.447,2.747a2.985,2.985,0,1,0-.088,0Z" transform="translate(563.233 53.973)" fill="#01baef"/>
            <path id="Path_39" data-name="Path 39" d="M22.53,411.152a2.936,2.936,0,0,0,2.081-5.01,3.039,3.039,0,0,0-4.153,0,2.934,2.934,0,0,0,2.072,5.01" transform="translate(820.019 116.608)" fill="#01baef"/>
            <path id="Path_40" data-name="Path 40" d="M226.727,213.659a2.931,2.931,0,0,0,2.072-5.012,3.024,3.024,0,0,0-4.153,0,2.939,2.939,0,0,0,2.081,5.012" transform="translate(352.879 59.789)" fill="#01baef"/>
            <path id="Path_41" data-name="Path 41" d="M242.524,454.782a2.907,2.907,0,1,0-.482.044,3.135,3.135,0,0,0,.482-.044M240.11,440.37a2.951,2.951,0,1,0-.524.044,2.679,2.679,0,0,0,.524-.044m-2.632-14.377a2.943,2.943,0,1,0-.56.052,3.054,3.054,0,0,0,.56-.052m-2.851-14.326a2.954,2.954,0,1,0-.612.062,3.61,3.61,0,0,0,.612-.062m-3.1-14.28a2.931,2.931,0,0,0,2.194-3.524h.01a2.94,2.94,0,1,0-2.87,3.594,2.906,2.906,0,0,0,.666-.07m-3.375-14.22a2.95,2.95,0,1,0-.726.088,2.976,2.976,0,0,0,.726-.088m-3.674-14.141a2.939,2.939,0,1,0-3.611-2.046v-.008a2.937,2.937,0,0,0,2.824,2.159,3.013,3.013,0,0,0,.787-.106m-4-14.053a2.955,2.955,0,1,0-.849.122,2.854,2.854,0,0,0,.849-.122m-4.347-13.95a2.945,2.945,0,1,0-.927.149,2.834,2.834,0,0,0,.927-.149m-4.749-13.817a2.923,2.923,0,1,0-1.015.184,2.935,2.935,0,0,0,1.015-.184m-5.195-13.651a2.938,2.938,0,1,0-1.11.218,2.894,2.894,0,0,0,1.11-.218M200.5,300.1a2.956,2.956,0,1,0-1.225.263,3.052,3.052,0,0,0,1.225-.263M194.25,286.9a2.937,2.937,0,1,0-3.961-1.267v.008a2.949,2.949,0,0,0,2.614,1.593,2.86,2.86,0,0,0,1.347-.334m-6.892-12.873a2.941,2.941,0,1,0-1.486.4,2.938,2.938,0,0,0,1.486-.4m-7.635-12.453a2.94,2.94,0,0,0,.788-4.083H180.5a2.937,2.937,0,1,0-2.422,4.591,2.906,2.906,0,0,0,1.643-.507m-8.474-11.893a2.93,2.93,0,1,0-1.827.648,2.88,2.88,0,0,0,1.827-.648M161.8,238.548a2.943,2.943,0,0,0,.045-4.163v.009a2.93,2.93,0,1,0-.045,4.154M151.24,228.464a2.943,2.943,0,1,0-2.29,1.1,2.933,2.933,0,0,0,2.29-1.1m-11.8-8.606a2.935,2.935,0,1,0-4,1.111,3.015,3.015,0,0,0,1.451.376,2.917,2.917,0,0,0,2.553-1.487m-13.083-6.471a2.942,2.942,0,1,0-3.691,1.906,2.868,2.868,0,0,0,.892.14,2.943,2.943,0,0,0,2.8-2.046" transform="translate(470.412 60.288)" fill="#01baef"/>
            <path id="Path_42" data-name="Path 42" d="M121.778,412.721a2.936,2.936,0,0,0,2.081-5.01,3.039,3.039,0,0,0-4.153,0,2.934,2.934,0,0,0,2.072,5.01" transform="translate(592.967 117.059)" fill="#01baef"/>
            <path id="Path_43" data-name="Path 43" d="M229.546,204.037a2.936,2.936,0,0,0,2.072-5.019,3.039,3.039,0,0,0-4.153,0,2.994,2.994,0,0,0-.858,2.081,2.941,2.941,0,0,0,2.939,2.939" transform="translate(346.43 57.02)" fill="#01baef"/>
            <path id="Path_44" data-name="Path 44" d="M260.16,450.932a2.9,2.9,0,1,0-.524.053,2.693,2.693,0,0,0,.524-.053m-2.641-14.167a2.969,2.969,0,1,0-.586.053,3.339,3.339,0,0,0,.586-.053M254.58,422.65a2.945,2.945,0,1,0-.648.07,3.357,3.357,0,0,0,.648-.07m-3.253-14.045a2.936,2.936,0,1,0-.708.088,2.9,2.9,0,0,0,.708-.088m-3.586-13.957a2.954,2.954,0,1,0-.787.1,3.118,3.118,0,0,0,.787-.1m-3.953-13.862a2.935,2.935,0,1,0-.865.131,2.966,2.966,0,0,0,.865-.131m-4.346-13.738a2.934,2.934,0,1,0-.944.157,2.937,2.937,0,0,0,.944-.157m-4.757-13.6a2.954,2.954,0,1,0-1.033.184,3.068,3.068,0,0,0,1.033-.184m-5.213-13.441a2.933,2.933,0,1,0-1.128.227,2.861,2.861,0,0,0,1.128-.227m-5.693-13.231a2.941,2.941,0,1,0-1.234.27,2.982,2.982,0,0,0,1.234-.27M217.57,313.77a2.937,2.937,0,1,0-3.961-1.258V312.5a2.933,2.933,0,0,0,2.614,1.592,3,3,0,0,0,1.347-.325m-6.778-12.715a2.924,2.924,0,1,0-1.46.393,2.945,2.945,0,0,0,1.46-.393m-7.372-12.384a2.932,2.932,0,1,0-1.583.473,2.849,2.849,0,0,0,1.583-.473m-8-11.972a2.936,2.936,0,1,0-4.1-.648,2.943,2.943,0,0,0,4.1.648m-8.684-11.5a2.935,2.935,0,1,0-4.137-.385,2.964,2.964,0,0,0,2.265,1.068,2.908,2.908,0,0,0,1.872-.682m-9.383-10.923a2.938,2.938,0,1,0-4.154-.113,2.917,2.917,0,0,0,2.134.918,2.948,2.948,0,0,0,2.02-.8m-10.119-10.258a2.933,2.933,0,1,0-2.168.963,2.932,2.932,0,0,0,2.168-.963m-10.862-9.462a2.938,2.938,0,1,0-4.119.507v.009a2.951,2.951,0,0,0,4.119-.516m-11.588-8.562a2.948,2.948,0,1,0-2.466,1.33,2.936,2.936,0,0,0,2.466-1.33M132.5,218.466a2.932,2.932,0,1,0-2.6,1.566,2.942,2.942,0,0,0,2.6-1.566M119.554,212.1a2.937,2.937,0,1,0-3.831,1.6,2.972,2.972,0,0,0,1.119.218,2.936,2.936,0,0,0,2.712-1.819m-13.495-5.089a2.934,2.934,0,1,0-3.647,1.977,2.791,2.791,0,0,0,.84.122,2.931,2.931,0,0,0,2.807-2.1m-13.948-3.682a2.935,2.935,0,1,0-3.419,2.353,2.855,2.855,0,0,0,.542.053,2.929,2.929,0,0,0,2.877-2.405m-14.273-2.152a2.935,2.935,0,0,0-2.738-3.121h-.008a2.936,2.936,0,1,0-.377,5.859,1.637,1.637,0,0,0,.194.008,2.935,2.935,0,0,0,2.928-2.745" transform="translate(515.47 56.977)" fill="#01baef"/>
            <path id="Path_45" data-name="Path 45" d="M72.99,407.012a2.943,2.943,0,0,0,2.939-2.939,3,3,0,0,0-.858-2.081,3.037,3.037,0,0,0-4.153,0,2.962,2.962,0,0,0-.867,2.081,2.959,2.959,0,0,0,2.939,2.939" transform="translate(704.582 115.414)" fill="#01baef"/>
            <path id="Path_46" data-name="Path 46" d="M357.411,173.126l35.441,4.358a.666.666,0,0,1,.357.157c4.047,3.448,7.425,3.29,10.577,4.247a71.114,71.114,0,0,0,7.787,1.231l8.611-20.59a1.858,1.858,0,0,0-1.06-2.2c-1.693-.954-11.051.031-12.581.859-1.516.793-2.731-2.519-4.009-1.772-2.184,1.3-8.567,7.113-8.567,7.113l-34.813-4.811Z" transform="translate(-9.76 45.83)" fill="#f69772"/>
            <rect id="Rectangle_107" data-name="Rectangle 107" width="7.957" height="16.698" transform="translate(378.331 225.548) rotate(-171.123)" fill="#fff"/>
            <path id="Path_47" data-name="Path 47" d="M423.828,71.531l16.811,102.063L525.5,185.717l-3.031,20.206-94.94-7.411a12.6,12.6,0,0,1-11.092-8.952L385.071,84.686Z" transform="translate(-150.643 20.579)" fill="#e8f1f2"/>
            <path id="Path_48" data-name="Path 48" d="M677.634,344.906l-46.578,16.222a11.647,11.647,0,0,0-4.946,3.34c-3.218,3.7-2.873,6.963-3.934,11.075a36.145,36.145,0,0,0-1.079,8.876l-6.042,5.469-2.855-7.963,6.826-31.269,52.748-22.077Z" transform="translate(-595.245 94.53)" fill="#f69772"/>
            <path id="Path_49" data-name="Path 49" d="M678.551,345.977s-12.232-3.282-23.776,1.366L676.459,407.8a2.951,2.951,0,0,0,5.661-.367c.54-2.48.215-5.822-2.309-10.106a6.506,6.506,0,0,1-.855-4.1l1.665-13.495-4.409-.959Z" transform="translate(-654.777 99.211)" fill="#192853"/>
            <path id="Path_50" data-name="Path 50" d="M662.33,292.18l29.644-16.839-4.546,47.994-142.134,50.7-17.877,6.587L516.491,356.45s117.038-56.239,145.839-64.27" transform="translate(-486.341 79.213)" fill="#e8f1f2"/>
            <path id="Path_51" data-name="Path 51" d="M529.755,380.308l-.467,49.32a11.643,11.643,0,0,0,1.473,5.783c2.4,4.279,5.582,5.057,9.1,7.445a36.138,36.138,0,0,0,7.988,4.014l3.107,7.534-8.459,0-27.124-16.99-2.96-57.1Z" transform="translate(-340.063 109.412)" fill="#f69772"/>
            <path id="Path_52" data-name="Path 52" d="M499.877,424.659s-7.22,10.4-6.746,22.839l64.233.018a2.951,2.951,0,0,0,1.567-5.452c-2.153-1.346-5.407-2.167-10.293-1.24a6.507,6.507,0,0,1-4.145-.581l-12.139-6.126-2.393,3.826Z" transform="translate(-324.573 122.171)" fill="#192853"/>
            <path id="Path_53" data-name="Path 53" d="M445.638,58.941,459,87.674l.622-.8.917-1.162.312-.4,12.469-15.983,2.95-3.765,2.368-11.45-3.725-12.643-19.856,5.471Z" transform="translate(-181.765 11.933)" fill="#f69772"/>
            <path id="Path_54" data-name="Path 54" d="M460.775,400.552,593.739,163.975c1.395-3.455,2.667-7.214,3.909-11.245,2.243-7.243,4.334-15.214,6.426-23.276,1.334-5.122,2.7-10.245,4.061-15.246,1.122-4.091,2.273-8.062,3.546-11.851A74.846,74.846,0,0,1,624.593,78.5a70.737,70.737,0,0,1,17.73-15.609c4.517-2.819,11.215-6.849,18.1-9.274,7.606-2.606,22.367-3.455,27.915,1.727,3.759,3.577,3.759,13.185,5.273,19.944a16.394,16.394,0,0,0,1.455,4.274q.6,1.151,1.109,2.337a40.3,40.3,0,0,1,4.69,25.236c-3.828,26.4-81.42,394.845-81.42,394.845l-1.365,19h-26.52S456.228,430.1,460.775,400.552" transform="translate(-423.748 14.831)" fill="#fafdfd"/>
            <g id="Group_25" data-name="Group 25" transform="translate(181.387 71.731)" style="mix-blend-mode: multiply;isolation: isolate">
              <g id="Group_24-2" data-name="Group 24">
                <g id="Group_23" data-name="Group 23" clip-path="url(#clip-path-3)">
                  <path id="Path_55" data-name="Path 55" d="M482.821,105.7s1.6.108.5-.565c1.367-3.155.494-9.416,2.06-12.71,1.208-2.49,2.449-5.012,3.738-7.5,8.913-14.271,19.69-22.772,29.777-27.8l4.752-1.416,28.148,21.959s.746,15.791-18.651,22.067l-45.771,10.481c-2.279,2.951-9.325,14-9.325,14Z" transform="translate(-478.046 -55.705)" fill="#e8f1f2"/>
                </g>
              </g>
            </g>
            <path id="Path_56" data-name="Path 56" d="M640.96,131.416,624.642,144.2,623.6,156.843a7.537,7.537,0,0,1-2.524,4.464,42.5,42.5,0,0,0-2.749,3.962s-.39,2.353-4.252,2.642l-3.4,1.714s-1.236,1.284-2.707-.774a4.875,4.875,0,0,1,1-2.873,2.831,2.831,0,0,1-2.216-3.84s-3.882-1.637-2.613-4.991a2.8,2.8,0,0,1-1.321-4c-5.218-2.376-.211-8.855,2.644-10.508l11.63-6.732,16.018-13.879Z" transform="translate(-543.571 35.107)" fill="#f69772"/>
            <rect id="Rectangle_109" data-name="Rectangle 109" width="16.698" height="7.958" transform="matrix(-0.653, -0.757, 0.757, -0.653, 85.138, 179.764)" fill="#fff"/>
            <path id="Path_57" data-name="Path 57" d="M641.144,92.736c11.511-2.718,17.376-14.991,13.162-26.042s-16.533-15.46-27.5-11.032L545.518,88.49a51.993,51.993,0,0,0-12.8,8l-55.206,49.786,13.449,15.6,61.249-48.148Z" transform="translate(-399.846 15.524)" fill="#fafdfd"/>
            <g id="Group_28" data-name="Group 28" transform="translate(269.302 60.797)" opacity="0.5" style="mix-blend-mode: multiply;isolation: isolate">
              <g id="Group_27" data-name="Group 27">
                <g id="Group_26" data-name="Group 26" clip-path="url(#clip-path-4)">
                  <path id="Path_58" data-name="Path 58" d="M449.775,64.286l9.77,19.382,12.47-15.983s.343-17.853-4.8-20.472c0,0,1.625,9.592-7.628,10.614,0,0-10.215-1.192-9.814,6.458" transform="translate(-449.763 -47.214)" fill="#f69772"/>
                </g>
              </g>
            </g>
            <path id="Path_59" data-name="Path 59" d="M424.985,20.6a12.842,12.842,0,0,0,11.938,13.371,12.34,12.34,0,1,0,1.154-24.649C431.153,9,425.3,13.8,424.985,20.6" transform="translate(-126.569 2.678)" fill="#062e40"/>
            <path id="Path_60" data-name="Path 60" d="M430.633,36.5c-.237,5.052,1.205,9.224,3.218,9.318s3.837-3.925,4.074-8.977-1.2-9.224-3.218-9.319-3.837,3.925-4.074,8.978" transform="translate(-121.726 7.919)" fill="#fff"/>
            <path id="Path_61" data-name="Path 61" d="M432.733,17.087l-1.7,36.435,14.123.273,6.274.353-.471,16.9h.005a9.3,9.3,0,0,0,1.3.935l.139.09a10.151,10.151,0,0,0,14.7-5.366c.9-2.535,1.736-5.075,2.451-7.315,1.324-4.181,2.211-7.288,2.211-7.288l4.085.192a1.416,1.416,0,0,0,1.424-1.814l-3.5-11.836a44.834,44.834,0,0,0-1.174-19.7Z" transform="translate(-161.644 4.916)" fill="#f69772"/>
            <path id="Path_62" data-name="Path 62" d="M480.464,18.182,485.1,31.309l-4.245,13.908L476.165,45l-9.937-.466s.48,13.383-8.989,14.784l.291-6.23a7.64,7.64,0,0,0-1.3-4.641c-4.434-6.57-17.072-26.957-6.678-31.709Z" transform="translate(-188.12 4.815)" fill="#062e40"/>
            <path id="Path_63" data-name="Path 63" d="M434.173,21.547l.206-4.413a7,7,0,0,1,7.323-6.668A14.362,14.362,0,0,0,449.294,8.7l8.474-4.665a32.54,32.54,0,0,1,17.215-4l.994.046a8.939,8.939,0,0,1,8.481,9.48l-.67,14.306Z" transform="translate(-172.836 0)" fill="#062e40"/>
            <path id="Path_64" data-name="Path 64" d="M436.094,36.248c-.237,5.053,1.2,9.225,3.218,9.319s3.837-3.926,4.073-8.978-1.2-9.224-3.218-9.318-3.836,3.925-4.073,8.977" transform="translate(-134.217 7.845)" fill="#fff"/>
            <rect id="Rectangle_111" data-name="Rectangle 111" width="29.588" height="2.84" transform="matrix(-0.999, -0.047, 0.047, -0.999, 313.698, 45.47)" fill="#fff"/>
            <path id="Path_65" data-name="Path 65" d="M437.555,72.544a9.019,9.019,0,0,1,1.33-11.166c.037-.037,7.56-7.234.269-14.338a25.007,25.007,0,0,1,3.228-8.367l4.968.233s-.527,14.525,14.584,14.27a1.445,1.445,0,0,1,.532.009c.017,0,.031,0,.05,0l-.005.014a1.453,1.453,0,0,1,1.065,1.007,1.471,1.471,0,0,1-1.019,1.814c-.042,6.124-.733,14.957-5.923,19.18-5.516,4.489-15.143,3.652-19.063-2.632l-.017-.026" transform="translate(-154.613 11.126)" fill="#01161e"/>
            <path id="Path_66" data-name="Path 66" d="M463.284,41.037l.223-4.776a5.761,5.761,0,0,0-1.4-4.041,4.4,4.4,0,0,0-5.188-1.428s-7.9,2.229-2.511,11.245c.017.028.036.057.053.084l4.208,6.395a2.27,2.27,0,0,0,1.786,1.017l.162.008a2.268,2.268,0,0,0,2.369-2.157Z" transform="translate(-175.514 8.763)" fill="#f69772"/>
            <path id="Path_67" data-name="Path 67" d="M465.728,50.915l-7.117,1.916L473.643,93.41,479.3,82.3Z" transform="translate(-199.135 14.648)" fill="#e8f1f2"/>
            <path id="Path_68" data-name="Path 68" d="M324.743,210.08,267.959,228.2l-34.374,10.971,16.163-28.333,5.822-.76,67.117-8.792Z" transform="translate(245.185 57.91)" fill="#2c518d"/>
            <path id="Path_69" data-name="Path 69" d="M248.23,226.4l-26.114-14.353,16.439-24.854Z" transform="translate(336.469 53.853)" fill="#2c518d"/>
            <path id="Path_70" data-name="Path 70" d="M233.965,225.639a2.457,2.457,0,0,1-4.767,1.195l-9.716-38.771a2.457,2.457,0,0,1,4.767-1.195Z" transform="translate(354.146 53.225)" fill="#617daa"/>
            <g id="Group_31" data-name="Group 31" transform="translate(478.77 267.992)" opacity="0.5" style="mix-blend-mode: multiply;isolation: isolate">
              <g id="Group_30" data-name="Group 30">
                <g id="Group_29" data-name="Group 29" clip-path="url(#clip-path-5)">
                  <path id="Path_71" data-name="Path 71" d="M312.056,226.24l-34.374,10.972,16.162-28.333,5.823-.761c-1.495,5.31-.8,13.064,12.389,18.122" transform="translate(-277.681 -208.118)" fill="#2c518d"/>
                </g>
              </g>
            </g>
            <rect id="Rectangle_113" data-name="Rectangle 113" width="83.32" height="99.511" transform="translate(472.524 312.568) rotate(-150.297)" fill="#2c518d"/>
            <g id="Group_34" data-name="Group 34" transform="translate(399.957 266.577)" opacity="0.5" style="mix-blend-mode: multiply;isolation: isolate">
              <g id="Group_33" data-name="Group 33">
                <g id="Group_32" data-name="Group 32" clip-path="url(#clip-path-6)">
                  <rect id="Rectangle_114" data-name="Rectangle 114" width="83.32" height="5.81" transform="translate(72.371 46.332) rotate(-150.297)" fill="#2c518d"/>
                </g>
              </g>
            </g>
            <rect id="Rectangle_116" data-name="Rectangle 116" width="95.729" height="9.573" transform="matrix(-0.869, -0.496, 0.496, -0.869, 471.503, 326.817)" fill="#617daa"/>
            <path id="Path_72" data-name="Path 72" d="M385.063,256.511,307.736,212.4l.749-1.315a2.742,2.742,0,0,1,3.741-1.022l72.564,41.4a2.739,2.739,0,0,1,1.022,3.738Z" transform="translate(88.272 60.329)" fill="#2c518d"/>
            <g id="Group_37" data-name="Group 37" transform="translate(442.875 182.384)" opacity="0.5" style="mix-blend-mode: multiply;isolation: isolate">
              <g id="Group_36" data-name="Group 36">
                <g id="Group_35" data-name="Group 35" clip-path="url(#clip-path-7)">
                  <path id="Path_73" data-name="Path 73" d="M350.209,182.921l-33.292-18.992-12.049-6.874-27.03-15.42-7.993,14.01,27.03,15.419-.283.5a6.936,6.936,0,0,0,12.049,6.874l.283-.5,33.293,18.993Z" transform="translate(-269.846 -141.636)" fill="#2c518d"/>
                </g>
              </g>
            </g>
            <path id="Path_74" data-name="Path 74" d="M371.507,155.093a12.792,12.792,0,0,0-18.588,7.422L341.1,201.766a8.143,8.143,0,0,0,14.87,6.383l20.313-35.606a12.809,12.809,0,0,0-4.773-17.451m4.216-7.391a21.3,21.3,0,0,1,7.948,29.058l-20.313,35.606a16.652,16.652,0,0,1-30.408-13.053l11.821-39.251A21.3,21.3,0,0,1,375.723,147.7" transform="translate(56.418 41.687)" fill="#2c518d"/>
            <path id="Path_75" data-name="Path 75" d="M271,143.939l77.326,44.112-.749,1.315a2.741,2.741,0,0,1-3.739,1.022l-72.565-41.4a2.742,2.742,0,0,1-1.022-3.739Z" transform="translate(174.859 41.41)" fill="#2c518d"/>
            <path id="Path_76" data-name="Path 76" d="M329.191,182.91l-37.459-37.988a13.631,13.631,0,0,0-19.336-.073,32.406,32.406,0,0,0-2.233,2.483Z" transform="translate(193.637 40.525)" fill="#2c518d"/>
            <path id="Path_77" data-name="Path 77" d="M349.5,188.075a3.6,3.6,0,0,1-4.916,1.344L267.7,145.557a3.6,3.6,0,0,1,3.572-6.262l76.888,43.863a3.6,3.6,0,0,1,1.344,4.918" transform="translate(178.366 39.938)" fill="#617daa"/>
            <path id="Path_78" data-name="Path 78" d="M292.427,176.874a5.909,5.909,0,0,1-10.265-5.856L306.875,127.7l10.264,5.855Z" transform="translate(191.239 36.738)" fill="#2c518d"/>
            <path id="Path_79" data-name="Path 79" d="M307.735,165.5a3.073,3.073,0,1,1-1.147-4.191,3.072,3.072,0,0,1,1.147,4.191" transform="translate(173.703 46.292)" fill="#fff"/>
            <path id="Path_80" data-name="Path 80" d="M351.558,164.361s4.046-6.983,17.162-6.314a20.509,20.509,0,0,0,9.641-1.728s2.224-.865,3.09.528a1.011,1.011,0,0,1,.1.845c-.292.9-1.351,3.142-4.858,4.4a53.733,53.733,0,0,1-6.6,1.884s-9.667,8.646-18.54.382" transform="translate(36.412 44.895)" fill="#f69772"/>
            <path id="Path_81" data-name="Path 81" d="M363.669,178.484c2.241.157,3.994-1.635,3.644-3.218a3.053,3.053,0,0,0-1-1.656c1.8.953,3.741-.449,4.245-1.455a3.982,3.982,0,0,0-.207-3.8,2.735,2.735,0,0,0,2.077-1.463c1-2.725-.738-4.105-2.01-4.418a32.494,32.494,0,0,0-3.573-.729c-1.875-.408-3.752-.779-4.687-.225a3.221,3.221,0,0,0-.9,4.383,2.975,2.975,0,0,0-3.779,3.154,3.172,3.172,0,0,0,.972,1.7c-2.5-.446-3.665.227-4.316,1.351a3.87,3.87,0,0,0,.1,3.84,2.732,2.732,0,0,0-2.131,1.416c-1.136,2.834.631,4.177,1.916,4.517a23.959,23.959,0,0,0,4.651.961l.022-.021c1.707.315,3.354.54,4.191.024a3.22,3.22,0,0,0,.782-4.37" transform="translate(45.053 46.389)" fill="#f69772"/>
          </g>
        </g>
      </g>
    </g>
  </g>
</svg>
