<svg xmlns="http://www.w3.org/2000/svg" xmlns:xlink="http://www.w3.org/1999/xlink" width="2012.493" height="946.333" viewBox="0 0 2012.493 946.333">
  <defs>
    <clipPath id="clip-path">
      <rect id="Rectangle_119" data-name="Rectangle 119" width="955.209" height="604.4" fill="none"/>
    </clipPath>
    <clipPath id="clip-path-3">
      <rect id="Rectangle_108" data-name="Rectangle 108" width="80.908" height="72.271" fill="none"/>
    </clipPath>
    <clipPath id="clip-path-4">
      <rect id="Rectangle_110" data-name="Rectangle 110" width="24.415" height="38.458" fill="none"/>
    </clipPath>
    <clipPath id="clip-path-5">
      <rect id="Rectangle_112" data-name="Rectangle 112" width="37.711" height="30.691" fill="none"/>
    </clipPath>
    <clipPath id="clip-path-6">
      <rect id="Rectangle_115" data-name="Rectangle 115" width="82.552" height="48.878" fill="none"/>
    </clipPath>
    <clipPath id="clip-path-7">
      <rect id="Rectangle_117" data-name="Rectangle 117" width="88.162" height="58.333" fill="none"/>
    </clipPath>
  </defs>
  <g id="Group_1467" data-name="Group 1467" transform="translate(15068.709 4284)">
    <g id="Group_45" data-name="Group 45" transform="translate(-15068.709 -4284)">
      <path id="Path_1" data-name="Path 1" d="M81.352,846.393A136.485,136.485,0,0,1,279.561,736.72c4.486-96.9,84.47-174.107,182.472-174.107A181.452,181.452,0,0,1,541.56,580.9c-.114-1.52-.228-3-.228-4.524a58.617,58.617,0,0,1,58.619-58.581,57.9,57.9,0,0,1,23.417,4.9,200.641,200.641,0,0,1-10.3-63.333c0-110.7,89.753-200.451,200.453-200.451a200.077,200.077,0,0,1,42.424,4.523c5.018,1.1,9.96,2.357,14.864,3.8a94.689,94.689,0,0,1,158.94-55.844,97.586,97.586,0,0,1,10.72,12.05,95.79,95.79,0,0,1-1.292-12.05c-.038-1.254-.076-2.546-.076-3.839a90.03,90.03,0,0,1,.722-11.6,95.95,95.95,0,0,1,2.015-11.062c.038-.114.038-.191.076-.3a90.967,90.967,0,0,1,2.737-9.01,94.876,94.876,0,0,1,66.564-59.949,69.448,69.448,0,0,1-.684-79.071,69.976,69.976,0,0,1,36.418-27.181,64.311,64.311,0,0,1,7.3-1.862,68.35,68.35,0,0,1,13.761-1.368,70.592,70.592,0,0,1,17.373,2.167A45.255,45.255,0,0,1,1188.67,0V945.953H1.369a84.471,84.471,0,0,1,79.983-99.56" transform="translate(823.607)" fill="#b9ecfc"/>
      <path id="Path_2" data-name="Path 2" d="M1249.269,417.568a48.047,48.047,0,0,1-1.812,13.055c24.957,4.357,43.874,25.259,43.874,50.4a49.229,49.229,0,0,1-2.4,15.215,50.446,50.446,0,0,1,40.841-2.116,48.822,48.822,0,0,1,12.9,7.371,110.166,110.166,0,0,1,81.219-35.109c59.836,0,108.339,46.436,108.339,103.72a99.379,99.379,0,0,1-8.132,39.462v.013c-.763,1.784-1.587,3.545-2.454,5.281a103.075,103.075,0,0,1-13.4,20.288,27.752,27.752,0,0,1,14.276,16.823,46.146,46.146,0,0,1,19.706-.5,43.135,43.135,0,0,1,4.616,1.143,43.925,43.925,0,0,1,23.039,16.47,40.609,40.609,0,0,1-.424,47.883c19.583,4.588,35.391,18.377,42.113,36.32v.007a53.563,53.563,0,0,1,1.735,5.468c.013.056.033.112.044.175a55.4,55.4,0,0,1,1.729,13.727c0,.782-.019,1.561-.053,2.329a54.974,54.974,0,0,1-.8,7.3,58.284,58.284,0,0,1,6.783-7.3,59.956,59.956,0,0,1,13.746-9.365,62.349,62.349,0,0,1,54.979,0,59.873,59.873,0,0,1,13.733,9.365,56.425,56.425,0,0,1,18.121,33.83q4.627-1.321,9.4-2.3a131.943,131.943,0,0,1,26.854-2.74c70.043,0,126.826,54.364,126.826,121.418a116.437,116.437,0,0,1-6.52,38.366,38.359,38.359,0,0,1,14.827-2.969c20.482,0,37.086,15.9,37.086,35.505,0,.92-.073,1.822-.144,2.724a119.182,119.182,0,0,1,50.32-11.077c62.034,0,112.647,46.773,115.485,105.491a89.058,89.058,0,0,1,39.4-9.1c45.183,0,82.235,33.226,86.017,75.545,28.595.956,51.484,23.442,51.484,51.056a48.734,48.734,0,0,1-.881,9.258H1197.624V367.543c28.582.312,51.645,22.587,51.645,50.025" transform="translate(-1197.613 -273.663)" fill="#ecfbff"/>
      <path id="Path_3" data-name="Path 3" d="M9.341,804.885A63.776,63.776,0,0,1,45.693,844.7a13.065,13.065,0,0,1,.705,1.467,17.39,17.39,0,0,1,12.507-5.278,17.042,17.042,0,0,1,15.179,8.942,55.714,55.714,0,0,1,80.477,6.714,88.283,88.283,0,0,1,35.768-7.505c.768.029,1.536.029,2.3.058,2.827-10.232,12.568-17.8,24.183-17.8a23.981,23.981,0,0,1,2.95.176,83.272,83.272,0,0,1,26.211-26.593,88.305,88.305,0,0,1,94.552,0,83.352,83.352,0,0,1,24.274,23.573,22.19,22.19,0,0,1,27.809-4.31,93.021,93.021,0,0,1,3.873-19.263c.153-.41.276-.821.4-1.2,13.152-40.168,52.453-69.311,98.885-69.281a107.376,107.376,0,0,1,35.891,6.128c30.083,10.642,53.59,34.244,63.023,63.71a34.334,34.334,0,0,1,15.519-3.665,33.834,33.834,0,0,1,27.962,14.455,86.956,86.956,0,0,1,59.951-23.573c29.929.029,56.2,14.806,71.32,37.118,4.64-12.344,16.992-21.168,31.5-21.168a34.188,34.188,0,0,1,24.737,10.466,10.559,10.559,0,0,1,9.125-5.043,10.83,10.83,0,0,1,6.146,1.907,39.292,39.292,0,0,1,22.954-26.27,42.55,42.55,0,0,1,33.064,0,39.467,39.467,0,0,1,22.8,25.624,10.718,10.718,0,0,1,7.835-3.372,10.565,10.565,0,0,1,9.4,5.542,34.378,34.378,0,0,1,49.719,4.134,54.713,54.713,0,0,1,22.094-4.633c.49.03.953.03,1.444.03a15.351,15.351,0,0,1,14.934-10.995,12.964,12.964,0,0,1,1.844.117,51.227,51.227,0,0,1,16.163-16.447,54.676,54.676,0,0,1,58.475,0,51.775,51.775,0,0,1,15,14.57,13.485,13.485,0,0,1,10.2-4.573,13.681,13.681,0,0,1,6.976,1.906,56.531,56.531,0,0,1,2.4-11.9c.092-.235.153-.5.245-.733,8.112-24.834,32.419-42.836,61.119-42.836a66.524,66.524,0,0,1,22.155,3.812c18.622,6.568,33.125,21.168,38.964,39.375a20.163,20.163,0,0,1,3.468-1.384,66.035,66.035,0,0,1,46.962-19.275,66.975,66.975,0,0,1,29.551,6.8c2.13-43.89,40.088-78.853,86.615-78.853a89.628,89.628,0,0,1,37.741,8.281c-.054-.675-.108-1.349-.108-2.036,0-14.657,12.453-26.54,27.816-26.54a28.84,28.84,0,0,1,11.119,2.22A86.786,86.786,0,0,1,1497,648.622c0-50.121,42.588-90.757,95.12-90.757a99.322,99.322,0,0,1,20.14,2.048q3.573.736,7.048,1.723a42.125,42.125,0,0,1,13.591-25.288,44.884,44.884,0,0,1,10.3-7,46.911,46.911,0,0,1,41.233,0,45.016,45.016,0,0,1,10.311,7,43.458,43.458,0,0,1,5.085,5.46,41.186,41.186,0,0,1-.6-5.46c-.024-.574-.039-1.157-.039-1.74a40.517,40.517,0,0,1,.338-5.26,40.065,40.065,0,0,1,.959-5c.009-.046.024-.089.035-.131a39.75,39.75,0,0,1,1.3-4.087v-.005a44.321,44.321,0,0,1,31.584-27.15,30.275,30.275,0,0,1-.319-35.791,32.953,32.953,0,0,1,17.279-12.31,32.33,32.33,0,0,1,3.463-.854,34.73,34.73,0,0,1,14.78.371,20.761,20.761,0,0,1,10.706-12.574,77.086,77.086,0,0,1-10.051-15.166c-.65-1.3-1.267-2.613-1.839-3.948v-.009a74.059,74.059,0,0,1-6.1-29.5c0-42.818,36.378-77.529,81.254-77.529a82.754,82.754,0,0,1,60.914,26.244,36.678,36.678,0,0,1,9.674-5.51,37.942,37.942,0,0,1,30.631,1.581,36.683,36.683,0,0,1-1.8-11.372c0-18.792,14.188-34.415,32.9-37.672a35.774,35.774,0,0,1-1.359-9.758c0-20.509,17.3-37.158,38.734-37.392V868.977h0v96.9H0V801.689a66.956,66.956,0,0,1,9.341,3.2" transform="translate(0 -19.788)" fill="#d8f4fd"/>
      <path id="Path_5" data-name="Path 5" d="M815.052,961.657h803.389a42.989,42.989,0,0,0-22.9-12.16,27.242,27.242,0,0,0-8.745-1.448,27.654,27.654,0,0,0-15.732,5.009,44.915,44.915,0,0,0-10.165,6.9c-6.461-10.419-16.948-17.2-28.795-17.191a30.449,30.449,0,0,0-8.645,1.259c-4.023-17.764-17.876-30.862-34.331-30.848-10.417.015-19.774,5.269-26.263,13.629-1.914-3.932-5.531-6.583-9.692-6.583a10.05,10.05,0,0,0-6.519,2.477c-3.184-15.309-12.332-27.888-24.4-34.178a37.612,37.612,0,0,0-35.123,0c-11.852,6.184-20.874,18.422-24.208,33.36a10.5,10.5,0,0,0-8.339-4.4c-4.364,0-8.135,2.932-9.967,7.2-6.358-7.038-14.936-11.355-24.389-11.342-11.655.015-21.974,6.591-28.44,16.736a49.02,49.02,0,0,0-23.479-6.031c-.509.014-1.011.021-1.507.042-1.855-8.234-8.25-14.315-15.882-14.315a13.629,13.629,0,0,0-1.94.147,62.694,62.694,0,0,0-17.194-21.4,49.229,49.229,0,0,0-62.083,0,62.07,62.07,0,0,0-15.936,18.975,13.364,13.364,0,0,0-10.847-5.961,12.551,12.551,0,0,0-7.406,2.477,91.268,91.268,0,0,0-2.55-15.49c-.084-.323-.161-.644-.252-.952-8.632-32.311-34.439-55.748-64.921-55.72a59.034,59.034,0,0,0-23.556,4.926c-19.761,8.563-35.176,27.544-41.378,51.235a19.314,19.314,0,0,0-10.194-2.939c-7.686,0-14.439,4.625-18.354,11.615-10.094-11.706-24-18.947-39.354-18.94-24.8.028-45.79,18.94-53.058,45.092a54.154,54.154,0,0,0-11.009-1.154c-24.363,0-45.465,16.246-55.835,39.972" transform="translate(-814.573 -15.634)" fill="#ecfbff"/>
      <path id="Path_6" data-name="Path 6" d="M1156,967.716H10.784a65.116,65.116,0,0,1,32.641-14.831,44.822,44.822,0,0,1,12.467-1.767,44.137,44.137,0,0,1,22.425,6.11,65.532,65.532,0,0,1,14.491,8.414,50.569,50.569,0,0,1,53.367-19.43,50.577,50.577,0,0,1,86.376-21,15.865,15.865,0,0,1,23.108-5.008,61.719,61.719,0,0,1,34.79-41.686,61.685,61.685,0,0,1,50.066,0,61.724,61.724,0,0,1,34.51,40.688,15.869,15.869,0,0,1,26.095,3.413,50.528,50.528,0,0,1,75.307,6.58,79.332,79.332,0,0,1,33.469-7.356c.724.017,1.442.025,2.15.051a23.42,23.42,0,0,1,22.64-17.459,22.6,22.6,0,0,1,2.764.18,80.106,80.106,0,0,1,24.508-26.1,79.566,79.566,0,0,1,88.5,0,80.08,80.08,0,0,1,22.715,23.142,20.034,20.034,0,0,1,26.019-4.249,96.6,96.6,0,0,1,3.635-18.893c.119-.392.231-.785.359-1.16a96.879,96.879,0,0,1,185.106.538,31.249,31.249,0,0,1,40.7,10.581,79.562,79.562,0,0,1,131.73,31.9A89.2,89.2,0,0,1,1156,967.716" transform="translate(856.493 -22.24)" fill="#ecfbff"/>
    </g>
    <g id="Group_24" data-name="Group 24" transform="translate(-14411.171 -3942.48)">
      <g id="Group_40" data-name="Group 40" clip-path="url(#clip-path)">
        <path id="Path_7" data-name="Path 7" d="M94.624,462.542H129.85l.021-75.969-35.227-.1Z" transform="translate(39.047 138.53)" fill="#0e8934"/>
        <g id="Group_39" data-name="Group 39">
          <g id="Group_38" data-name="Group 38" clip-path="url(#clip-path)">
            <path id="Path_8" data-name="Path 8" d="M133.947,401.376s2.122-7.347,18.1-19.4a32.2,32.2,0,0,0,12.385-32.377c-.006-.03-.013-.06-.018-.09,0,0,0,8.166-11.486,12.968s-21.977,20.172-18.98,38.9" transform="translate(55.06 125.279)" fill="#2dd782"/>
            <path id="Path_9" data-name="Path 9" d="M176.58,353.921c-2.567,1.744-3.474,9.252-4.049,11.8-2.934,12.961,1.129,27.337-4.385,39.709-5.053,11.342-15.166,17.82-27.525,20.537,0,0,4.439-8.182,5.676-21.483a69.008,69.008,0,0,1,30.283-50.56" transform="translate(58.027 126.862)" fill="#0e8934"/>
            <path id="Path_10" data-name="Path 10" d="M202.039,357.481s-4.119,1.513-15.639,3.85c-16.418,3.331-29.214,15.75-32.531,31.568l-.011.061s6.021-.2,17.722-5c14.234-5.847,24.288-16.808,30.453-30.46l.007-.016" transform="translate(63.49 128.138)" fill="#2dd782"/>
            <path id="Path_11" data-name="Path 11" d="M109.573,255.361a.722.722,0,0,0,.393-.061c.188-.088.476-.226.658-.319a16.773,16.773,0,0,0,8.747-12.541,12.253,12.253,0,0,0-1.9-8.515c-1.466-2.486-3.639-4.662-4.334-7.51-.51-2.088-.182-4.291-.624-6.389l-.02-.094s-10.305,6.711-12.084,18.416a17.612,17.612,0,0,0,2.024,11.2c1.479,2.667,3.789,5.4,7.141,5.811" transform="translate(41.351 78.834)" fill="#0e8934"/>
            <path id="Path_12" data-name="Path 12" d="M126.456,248.048a1.066,1.066,0,0,1-.533-.268c-.225-.211-.569-.538-.784-.754-5.9-5.972-7.638-13.955-6.333-21.9.764-4.645,3.344-8.208,6.905-11.3,3.317-2.885,7.491-5.009,9.884-8.761,1.754-2.752,2.372-6.048,4.034-8.846l.073-.124s11.427,14.276,8.212,31.809a27.117,27.117,0,0,1-8.4,15.086c-3.426,3.137-8.069,5.992-13.06,5.057" transform="translate(48.857 70.29)" fill="#0e8934"/>
            <path id="Path_13" data-name="Path 13" d="M116.245,407.227h5.023a71.075,71.075,0,0,1,.961-14.947,18.753,18.753,0,0,1,10.551-13.992,152.165,152.165,0,0,1,15.354-6.574c9.954-3.376,8.773-17.732,18.725-24.759,10.078-7.117,10.74-11.979,9.465-14.84a4.652,4.652,0,0,0-5.543-2.485c-28.425,8.117-40.739,28.076-45.954,41.448-4.22,8.981-9.117,22.519-8.582,36.148" transform="translate(47.952 118.087)" fill="#0e8934"/>
            <path id="Path_14" data-name="Path 14" d="M109.231,296.4S74.7,269.387,40.765,277.265c-13.016,3.022-28.711,14.287-28.808,28.269-.1,13.9,13.924,11.34,23.361,7.448,11.871-4.9,21.491-13.57,34.1-16.881a69.683,69.683,0,0,1,18.509-2.095c4.826.062,17.473-.6,21.3,2.391" transform="translate(4.934 98.869)" fill="#2dd782"/>
            <path id="Path_15" data-name="Path 15" d="M9.572,252.41c0,32.013,26.234,37.011,44.046,38.056a46.941,46.941,0,0,1,24.33,8.4c1.1.757,2.205,1.53,3.323,2.3,7.559,5.269,15.275,10.539,22.789,16.051.975.682,1.841,1.394,2.693,2.119a27.12,27.12,0,0,1,2.551,2.228l2.362,2.407c.77.818,1.432,1.742,2.157,2.605l1.054,1.316c.348.44.63.924.962,1.377l1.89,2.788,1.668,2.907a32.9,32.9,0,0,1,1.574,2.953,120.855,120.855,0,0,1,8.883,24.547,242.71,242.71,0,0,1,6.111,39c.188,2.377.362,4.695.5,6.951.835,13.583.771,24.956.6,32.891-.095,4-.236,7.118-.346,9.237h3.527c.093-2.135.219-5.255.283-9.176.126-8,.126-19.445-.8-33.15a274.262,274.262,0,0,0-5.276-39.16c-.52-2.409-1.086-4.832-1.715-7.269a123.057,123.057,0,0,0-9.244-25.063,31.94,31.94,0,0,0-1.639-3.043l-1.764-3-1.968-2.893c-.346-.484-.661-.97-1.007-1.437L116,324.979c-.771-.894-1.463-1.847-2.283-2.711l-2.5-2.544a35.738,35.738,0,0,0-2.724-2.346c-.931-.773-1.876-1.531-2.82-2.182-7.592-5.511-15.37-10.752-22.946-15.96-7.606-5.21-15.007-10.389-21.936-15.69a203.572,203.572,0,0,1-19.04-16.263,120.985,120.985,0,0,1-14.5-16.839c-8.992-12.964-12.786-27.108-17.386-41.858Z" transform="translate(3.95 74.766)" fill="#2dd782"/>
            <path id="Path_16" data-name="Path 16" d="M102.028,358.8s12.728-32.919-13.166-49.378c0,0-10.095-8.019-28.528-12.238,0,0-16.676,50.222,41.694,61.616" transform="translate(23.987 106.524)" fill="#0e8934"/>
            <path id="Path_17" data-name="Path 17" d="M86.9,336.9s.332,1.106.819,3.044c.237.954.566,2.121.866,3.483.316,1.348.661,2.877,1.055,4.543s.725,3.483,1.134,5.392c.379,1.924.85,3.938,1.181,6.042.379,2.1.756,4.286,1.15,6.481.41,2.21.694,4.468,1.023,6.724s.646,4.5.961,6.708c.316,2.227.473,4.422.725,6.527.031.227.048.454.062.682.2,1.877.379,3.7.568,5.437.095.772.157,1.528.22,2.271.079,1.106.143,2.18.2,3.2.188,2.907.348,5.39.456,7.284h5.166c-.22-1.953-.52-4.589-.866-7.708-.189-1.727-.363-3.574-.709-5.529-.3-1.953-.615-4.012-.961-6.147s-.63-4.332-1.055-6.542c-.425-2.227-.866-4.483-1.308-6.738s-.833-4.514-1.367-6.709c-.506-2.212-1.009-4.377-1.48-6.481s-1.026-4.1-1.5-6.013c-.5-1.924-.945-3.725-1.417-5.39s-.914-3.167-1.293-4.514-.771-2.513-1.054-3.482c-.6-1.939-.976-3.014-.976-3.014Z" transform="translate(35.861 120.599)" fill="#0e8934"/>
            <path id="Path_18" data-name="Path 18" d="M103.429,387.055s-5.036-22.264-23.783-27.385a2.454,2.454,0,0,0-2.322.568,2.238,2.238,0,0,0-.644,2.222c1.489,5.49,6.928,16.322,26.75,24.595" transform="translate(31.61 128.891)" fill="#0e8934"/>
            <path id="Path_19" data-name="Path 19" d="M104.211,295.361a8.759,8.759,0,0,1,8.5,5.587c4.063,10.919,9.716,32.605,12.551,72.585.692,9.691,1.213,20.458,1.512,32.407.348,13.931.379,29.454,0,46.762v2.318h9.292c.03-1.74.078-3.573.124-5.466.521-25.759.458-64.359-3.558-86.878-6.079-33.968,3.984-89.952,8.582-104.234a2.024,2.024,0,0,0-.172-1.68,2.256,2.256,0,0,0-1.384-1.03l-.064-.015a2.163,2.163,0,0,0-1.623.227A2.036,2.036,0,0,0,137,257.2c-2.646,10.358-14.378,57.969-12.046,76.838-.425-3.119-2.978-20.519-8.4-35.829a22.98,22.98,0,0,1-.518-13.735c21.07-77.99-84.063-88.363-84.063-88.363-3.291,92.225,50.819,99.827,72.235,99.251m20.772,38.949c.017.076.017.152.032.227,0,0-.016-.075-.032-.227" transform="translate(13.136 70.295)" fill="#0e8934"/>
            <path id="Path_20" data-name="Path 20" d="M119.382,266.023a57.074,57.074,0,0,0-18.095,43.81c-.123-3.641,4.358-9.676,6.428-12.393,13.916-18.282,32.894-14.639,53.083-10.38Z" transform="translate(41.782 95.355)" fill="#0e8934"/>
            <path id="Path_21" data-name="Path 21" d="M139.09,332.739a1.984,1.984,0,0,0-.589-1.7,2.165,2.165,0,0,0-1.753-.594c-7.385.837-28.117,5.775-34.806,34.719,0,0,31.515,8.117,37.148-32.43" transform="translate(42.066 118.444)" fill="#0e8934"/>
            <path id="Path_22" data-name="Path 22" d="M125.746,305.375s-22.821,9-22.821,30.387c0,0,17.555,5.064,22.821-30.387" transform="translate(42.472 109.461)" fill="#0e8934"/>
            <path id="Path_23" data-name="Path 23" d="M194.019,288s-59.96-12.142-68.466,37.7c0,0,21.429,9.813,42.132,0,20.541-9.735,26.333-37.7,26.333-37.7" transform="translate(51.81 102.765)" fill="#2dd782"/>
            <path id="Path_24" data-name="Path 24" d="M144.591,307.839l-.564.273c-.384.185-.9.471-1.562.835a60.09,60.09,0,0,0-5.2,3.395c-1.01.784-2.147,1.592-3.251,2.55-1.134.931-2.3,1.948-3.447,3.051-1.2,1.062-2.3,2.282-3.479,3.469-1.141,1.22-2.24,2.512-3.359,3.789-1.038,1.334-2.119,2.645-3.111,3.984-.951,1.363-1.913,2.691-2.8,4.007-.838,1.344-1.647,2.642-2.414,3.876-.752,1.242-1.367,2.463-1.986,3.567s-1.18,2.125-1.593,3.061c-.439.928-.821,1.736-1.137,2.4l-.99,2.1,4.4,1.648s.3-.747.833-2.054c.266-.655.586-1.449.955-2.362.345-.924.838-1.918,1.356-3.013s1.055-2.3,1.706-3.528c.667-1.221,1.37-2.51,2.1-3.843.8-1.3,1.626-2.634,2.466-4,.877-1.337,1.844-2.65,2.769-3.991,1-1.284,1.99-2.588,3.023-3.823,1.071-1.2,2.065-2.443,3.159-3.524,1.05-1.126,2.112-2.167,3.154-3.123,1.014-.988,2.062-1.82,3-2.633a57.872,57.872,0,0,1,4.817-3.536c.607-.376,1.092-.683,1.414-.859s.513-.285.513-.285Z" transform="translate(45.265 110.344)" fill="#0e8934"/>
            <path id="Path_25" data-name="Path 25" d="M222.35,283.413S182.7,220.848,114.086,271.193c0,0,47.779,43.989,108.264,12.219" transform="translate(47.078 90.185)" fill="#2dd782"/>
            <path id="Path_26" data-name="Path 26" d="M104.149,442.872h13.763c-10.692-108.109,17.559-210.843,17.559-210.843L132.464,230c-16.11,61.967-20.646,137.881-21.89,181.434a100.731,100.731,0,0,1-1.637,15.371,89.489,89.489,0,0,1-2.582,10.6,34.1,34.1,0,0,1-2.205,5.466" transform="translate(42.977 82.442)" fill="#0e8934"/>
            <path id="Path_27" data-name="Path 27" d="M3.362,354a41.492,41.492,0,0,0,8.922,1.766,134.242,134.242,0,0,0,16.38,1.308l-.915-.838c-8.123-7.424-18.48-8.714-27.749-2.671Z" transform="translate(0 125.363)" fill="#2dd782"/>
            <path id="Path_28" data-name="Path 28" d="M46.739,388.4a16.572,16.572,0,0,1-1.454-5.5c-.637-3.865-.962-10,.079-19.369a26.738,26.738,0,0,0-3.68-16.554,23.268,23.268,0,0,0-5.46-6.366,27.572,27.572,0,0,0-3.462-2.428,24.98,24.98,0,0,0-3.8-1.536l-.078-.025a5.221,5.221,0,0,1,.881.7,7.4,7.4,0,0,1,1.688,2.377c1.089,2.413,1.771,6.07-.219,11.544-3.878,10.677.863,23.361,15.5,37.159" transform="translate(11.921 120.662)" fill="#2dd782"/>
            <path id="Path_29" data-name="Path 29" d="M70.195,416.581a18.231,18.231,0,0,1-1.093-5.864A90.546,90.546,0,0,1,70.618,390.4a31.223,31.223,0,0,0,.257-9.258,33.013,33.013,0,0,0-7.561-16.428,32.046,32.046,0,0,0-7.236-5.972L56,358.7a11.053,11.053,0,0,1,2.516,4.229c1.05,2.782,1.237,7.137-1.123,12.665A25.6,25.6,0,0,0,55.4,384.9a35.507,35.507,0,0,0,1.13,10.669,36.924,36.924,0,0,0,4.913,10.846,41.924,41.924,0,0,0,8.753,10.165" transform="translate(22.848 128.575)" fill="#2dd782"/>
            <path id="Path_30" data-name="Path 30" d="M71.121,391.48s-6.678-4.056-26.747-2.144a39.1,39.1,0,0,1-18.161-2.5,32.62,32.62,0,0,1-13.447-9.974l-.051-.064s5.3,3.2,17.4.463a38.25,38.25,0,0,1,20.034.552A44.042,44.042,0,0,1,60.7,382.663a56.94,56.94,0,0,1,10.424,8.816" transform="translate(5.247 134.842)" fill="#2dd782"/>
            <path id="Path_31" data-name="Path 31" d="M97.318,425.4s-6.387-4.831-26.64-4.814A37.049,37.049,0,0,1,52.849,416a32.319,32.319,0,0,1-12.792-12.127l-.044-.075s4.944,4.166,17.356,2.535C70.4,404.562,87.9,408.207,97.318,425.4" transform="translate(16.512 144.739)" fill="#2dd782"/>
            <path id="Path_32" data-name="Path 32" d="M86.944,392.058s-8.152-5.021-12.143-1.674a2.938,2.938,0,0,0-1.068,2.2,2.9,2.9,0,0,0,.985,2.229c2.147,1.9,6.918,4.312,16.6,2.467Z" transform="translate(30.426 139.52)" fill="#0e8934"/>
            <path id="Path_33" data-name="Path 33" d="M95.535,450.948s-1.182-1.534-1.674-5.485a35.752,35.752,0,0,1,.014-7.879,76.913,76.913,0,0,1,1.964-12.238,33.432,33.432,0,0,0-.887-18.687,35.131,35.131,0,0,0-10.981-15.289l-.068-.056a11.828,11.828,0,0,1,2.064,4.681c.687,3.039.688,7.493-2.1,12.973a22.668,22.668,0,0,0-1.716,17.659,48.621,48.621,0,0,0,4.872,10.858,134.366,134.366,0,0,0,8.514,13.464" transform="translate(33.467 140.265)" fill="#2dd782"/>
            <path id="Path_34" data-name="Path 34" d="M128.731,470.062a613.118,613.118,0,0,0-68.72-81.053C48.048,377.272,37.863,368.342,30.6,362.564c-3.646-2.864-6.446-5.12-8.4-6.542l-3-2.118-1.013,1.02,2.995,2.107c1.933,1.511,4.769,3.725,8.378,6.544,7.24,5.78,17.4,14.689,29.349,26.4,20.361,19.946,44.9,48.9,67.634,82.016Z" transform="translate(7.507 126.856)" fill="#0e8934"/>
            <path id="Path_35" data-name="Path 35" d="M114.925,439.027,97.472,401.143l-.175.613c-1.68-16.444-8.845-25.273-18.6-31.133-10.622-6.383-11.486-12.968-11.486-12.968-.007.03-.013.06-.02.09a32.207,32.207,0,0,0,12.386,32.379c9.752,7.359,14.327,12.949,16.423,16.2l-.027.1s.476.7,1.222,1.981a8.538,8.538,0,0,1,.48,1.127c0-.1-.006-.193-.006-.295,3.366,5.987,10.54,21.065,9.774,39.866Z" transform="translate(27.445 128.2)" fill="#0e8934"/>
            <path id="Path_36" data-name="Path 36" d="M174.232,401.621a35.114,35.114,0,0,0-22.183,30.005,51.607,51.607,0,0,1-3.563,6.537,28.8,28.8,0,0,1-2.861,3.782,14.865,14.865,0,0,1-2.948,2.629,6.1,6.1,0,0,1-1.287.72,2.817,2.817,0,0,1-1.009.379l-.873.23.747,3.6,1.389-.478a5.416,5.416,0,0,0,1.458-.706,9.3,9.3,0,0,0,1.66-1.144,17.79,17.79,0,0,0,3.224-3.446,31.046,31.046,0,0,0,2.707-4.374,55.055,55.055,0,0,0,2.9-6.693c2.067-1.231,6.141-3.614,12.557-7.169,11.615-6.434,17.807-17.013,20.719-29.592l0-.015s-3.245,1.936-12.64,5.739" transform="translate(23.56 141.903)" fill="#0e8934"/>
            <path id="Path_37" data-name="Path 37" d="M232.147,196.293a3.266,3.266,0,0,1-2.273-.9,3,3,0,0,1,0-4.382,3.435,3.435,0,0,1,4.556,0,3.025,3.025,0,0,1,0,4.382,3.307,3.307,0,0,1-2.283.9" transform="translate(94.465 68.156)" fill="#01baef"/>
            <path id="Path_38" data-name="Path 38" d="M23.962,473.967a3.124,3.124,0,0,1-2.7-3.533,3.22,3.22,0,0,1,3.676-2.593,3.118,3.118,0,0,1,2.7,3.543A3.178,3.178,0,0,1,24.46,474a3.093,3.093,0,0,1-.5-.037m2.541-15.2a3.108,3.108,0,0,1-2.606-3.588,3.218,3.218,0,0,1,3.739-2.51,3.117,3.117,0,0,1,2.611,3.589,3.2,3.2,0,0,1-3.176,2.565,3.062,3.062,0,0,1-.568-.056m2.907-15.13A3.091,3.091,0,0,1,26.889,440a3.222,3.222,0,0,1,3.8-2.428,3.107,3.107,0,0,1,2.523,3.654,3.2,3.2,0,0,1-3.156,2.482,3.056,3.056,0,0,1-.643-.065m3.282-15.048a3.111,3.111,0,0,1-2.428-3.717h.011a3.227,3.227,0,0,1,3.857-2.335,3.113,3.113,0,0,1,2.428,3.718,3.212,3.212,0,0,1-3.149,2.409,3.7,3.7,0,0,1-.719-.075m3.693-14.973a3.091,3.091,0,0,1-2.321-3.772,3.239,3.239,0,0,1,3.924-2.233A3.1,3.1,0,0,1,40.31,411.4a3.215,3.215,0,0,1-3.119,2.324,3.437,3.437,0,0,1-.807-.1M40.5,398.758a3.08,3.08,0,0,1-2.2-3.838,3.236,3.236,0,0,1,3.991-2.112,3.079,3.079,0,0,1,2.2,3.838,3.193,3.193,0,0,1-3.091,2.232,3.352,3.352,0,0,1-.9-.12m4.585-14.734a3.08,3.08,0,0,1-2.072-3.9,3.247,3.247,0,0,1,4.059-1.991,3.065,3.065,0,0,1,2.074,3.9,3.184,3.184,0,0,1-3.063,2.14,3.425,3.425,0,0,1-1-.148m5.084-14.586a3.074,3.074,0,0,1-1.938-3.967,3.262,3.262,0,0,1,4.135-1.854,3.064,3.064,0,0,1,1.928,3.967,3.209,3.209,0,0,1-3.03,2.049,3.262,3.262,0,0,1-1.095-.194m5.612-14.4A3.063,3.063,0,0,1,54,351.006a3.285,3.285,0,0,1,4.2-1.716,3.061,3.061,0,0,1,1.774,4.04,3.225,3.225,0,0,1-2.985,1.937,3.273,3.273,0,0,1-1.208-.23m6.169-14.181a3.064,3.064,0,0,1-1.612-4.105,3.29,3.29,0,0,1,4.269-1.55,3.066,3.066,0,0,1,1.613,4.105,3.251,3.251,0,0,1-2.945,1.818,3.356,3.356,0,0,1-1.325-.268m6.774-13.931a3.053,3.053,0,0,1-1.43-4.169,3.3,3.3,0,0,1,4.337-1.367,3.041,3.041,0,0,1,1.418,4.161,3.237,3.237,0,0,1-2.878,1.708,3.349,3.349,0,0,1-1.448-.333M76.134,313.3a3.033,3.033,0,0,1-1.219-4.225,3.283,3.283,0,0,1,4.393-1.172,3.037,3.037,0,0,1,1.221,4.217,3.245,3.245,0,0,1-2.813,1.577,3.345,3.345,0,0,1-1.582-.4m8.078-13.276a3.016,3.016,0,0,1-1-4.271,3.285,3.285,0,0,1,4.441-.959,3.016,3.016,0,0,1,1,4.271,3.249,3.249,0,0,1-2.724,1.439,3.3,3.3,0,0,1-1.718-.48m8.77-12.851a3.014,3.014,0,0,1-.747-4.317,3.3,3.3,0,0,1,4.5-.729,3.025,3.025,0,0,1,.75,4.327,3.27,3.27,0,0,1-2.63,1.3,3.3,3.3,0,0,1-1.869-.581m9.506-12.363a3.014,3.014,0,0,1-.487-4.354,3.3,3.3,0,0,1,4.528-.47,3.007,3.007,0,0,1,.489,4.354,3.315,3.315,0,0,1-4.529.47m10.247-11.8a3.01,3.01,0,0,1-.2-4.373,3.3,3.3,0,0,1,4.546-.2,3.01,3.01,0,0,1,.212,4.373,3.257,3.257,0,0,1-2.38,1.015,3.3,3.3,0,0,1-2.177-.812m11-11.154a3.018,3.018,0,0,1,.1-4.381,3.314,3.314,0,0,1,4.556.092,3.017,3.017,0,0,1-.086,4.381,3.337,3.337,0,0,1-4.567-.092M135.5,241.43a3.019,3.019,0,0,1,.4-4.363,3.315,3.315,0,0,1,4.539.387,3.03,3.03,0,0,1-.4,4.373,3.311,3.311,0,0,1-2.062.72,3.25,3.25,0,0,1-2.475-1.117m12.481-9.6a3.014,3.014,0,0,1,.73-4.327,3.3,3.3,0,0,1,4.5.7,3.032,3.032,0,0,1-.729,4.327,3.358,3.358,0,0,1-1.882.583,3.247,3.247,0,0,1-2.619-1.284m13.173-8.727a3.033,3.033,0,0,1,1.055-4.263,3.29,3.29,0,0,1,4.431,1.024,3.022,3.022,0,0,1-1.055,4.261,3.362,3.362,0,0,1-1.688.452,3.219,3.219,0,0,1-2.743-1.475m13.816-7.759a3.038,3.038,0,0,1,1.382-4.179A3.293,3.293,0,0,1,180.7,212.5a3.037,3.037,0,0,1-1.391,4.17,3.277,3.277,0,0,1-4.335-1.329m14.372-6.743a3.064,3.064,0,0,1,1.707-4.069,3.28,3.28,0,0,1,4.231,1.642,3.072,3.072,0,0,1-1.708,4.069,3.381,3.381,0,0,1-1.256.239,3.224,3.224,0,0,1-2.974-1.881m14.87-5.7a3.071,3.071,0,0,1,2.014-3.93,3.26,3.26,0,0,1,4.088,1.947,3.073,3.073,0,0,1-2.016,3.931,3.4,3.4,0,0,1-1.037.166,3.218,3.218,0,0,1-3.05-2.114m15.274-4.612A3.09,3.09,0,0,1,221.8,194.5a3.243,3.243,0,0,1,3.926,2.224,3.091,3.091,0,0,1-2.314,3.782,3.4,3.4,0,0,1-.805.1,3.2,3.2,0,0,1-3.118-2.324m15.58-3.533a3.107,3.107,0,0,1,2.591-3.608,3.205,3.205,0,0,1,3.751,2.482,3.107,3.107,0,0,1-2.591,3.608,3.143,3.143,0,0,1-.585.056,3.193,3.193,0,0,1-3.166-2.538m15.81-2.455a3.133,3.133,0,0,1,2.849-3.422,3.185,3.185,0,0,1,3.561,2.739,3.131,3.131,0,0,1-2.851,3.423c-.114.009-.24.019-.355.019a3.185,3.185,0,0,1-3.205-2.759m50.829,2.528h0a3.138,3.138,0,0,1-2.868-3.414,3.194,3.194,0,0,1,3.549-2.749,3.133,3.133,0,0,1,2.87,3.4,3.187,3.187,0,0,1-3.205,2.777c-.116,0-.23-.008-.346-.018M266.84,190.91a3.224,3.224,0,1,1,3.348,2.971v.01h-.133a3.169,3.169,0,0,1-3.215-2.98m19.14,2.9a3.283,3.283,0,1,1,.1,0Z" transform="translate(8.76 67.247)" fill="#01baef"/>
            <path id="Path_39" data-name="Path 39" d="M22.815,411.472a3.342,3.342,0,0,1-2.283-.9,3.02,3.02,0,0,1,0-4.381,3.432,3.432,0,0,1,4.556,0,3,3,0,0,1,0,4.381,3.315,3.315,0,0,1-2.273.9" transform="translate(8.084 145.286)" fill="#01baef"/>
            <path id="Path_40" data-name="Path 40" d="M227.012,213.98a3.285,3.285,0,0,1-2.273-.913,2.991,2.991,0,0,1,0-4.374,3.414,3.414,0,0,1,4.556,0,3.012,3.012,0,0,1,0,4.374,3.312,3.312,0,0,1-2.283.913" transform="translate(92.346 74.493)" fill="#01baef"/>
            <path id="Path_41" data-name="Path 41" d="M123.317,468.256a3.1,3.1,0,0,1-2.657-3.552,3.215,3.215,0,0,1,3.7-2.565,3.119,3.119,0,0,1,2.659,3.562,3.185,3.185,0,0,1-3.176,2.6,3.571,3.571,0,0,1-.528-.046m2.649-15.2a3.113,3.113,0,0,1-2.6-3.6,3.215,3.215,0,0,1,3.732-2.509,3.118,3.118,0,0,1,2.609,3.6,3.19,3.19,0,0,1-3.166,2.555,3.054,3.054,0,0,1-.575-.046m2.887-15.167a3.108,3.108,0,0,1-2.553-3.635,3.225,3.225,0,0,1,3.78-2.453,3.1,3.1,0,0,1,2.543,3.634,3.181,3.181,0,0,1-3.156,2.509,3.476,3.476,0,0,1-.615-.054m3.128-15.113a3.115,3.115,0,0,1-2.485-3.681,3.233,3.233,0,0,1,3.818-2.388,3.11,3.11,0,0,1,2.495,3.672,3.21,3.21,0,0,1-3.157,2.463,4.113,4.113,0,0,1-.671-.065m3.406-15.065a3.09,3.09,0,0,1-2.407-3.718h-.011a3.232,3.232,0,0,1,3.866-2.324,3.1,3.1,0,0,1,2.418,3.718,3.2,3.2,0,0,1-3.136,2.4,3.31,3.31,0,0,1-.73-.073m3.7-15a3.083,3.083,0,0,1-2.331-3.763,3.225,3.225,0,0,1,3.914-2.243A3.091,3.091,0,0,1,143,390.465a3.2,3.2,0,0,1-3.119,2.334,3.387,3.387,0,0,1-.8-.092m4.03-14.918a3.08,3.08,0,0,1-2.245-3.809,3.239,3.239,0,0,1,3.961-2.168,3.086,3.086,0,0,1,2.245,3.819v-.008a3.2,3.2,0,0,1-3.1,2.278,3.43,3.43,0,0,1-.863-.111m4.383-14.825a3.077,3.077,0,0,1-2.147-3.866,3.234,3.234,0,0,1,4.018-2.066,3.089,3.089,0,0,1,2.15,3.865,3.3,3.3,0,0,1-4.02,2.067m4.769-14.716a3.071,3.071,0,0,1-2.034-3.921,3.252,3.252,0,0,1,4.077-1.956,3.067,3.067,0,0,1,2.034,3.922,3.289,3.289,0,0,1-4.077,1.955m5.21-14.576a3.064,3.064,0,0,1-1.91-3.976,3.266,3.266,0,0,1,4.145-1.837,3.053,3.053,0,0,1,1.9,3.978,3.2,3.2,0,0,1-3.02,2.029,3.359,3.359,0,0,1-1.113-.194m5.7-14.4a3.062,3.062,0,0,1-1.766-4.041,3.266,3.266,0,0,1,4.2-1.7,3.061,3.061,0,0,1,1.766,4.041A3.23,3.23,0,0,1,164.4,319.5a3.286,3.286,0,0,1-1.218-.23m6.235-14.19a3.067,3.067,0,0,1-1.592-4.115,3.283,3.283,0,0,1,4.278-1.521,3.054,3.054,0,0,1,1.593,4.105,3.255,3.255,0,0,1-2.935,1.808,3.462,3.462,0,0,1-1.343-.277m6.86-13.931a3.025,3.025,0,0,1-1.382-4.169,3.277,3.277,0,0,1,4.337-1.338,3.04,3.04,0,0,1,1.39,4.17v.008a3.285,3.285,0,0,1-4.345,1.329m7.561-13.58a3.034,3.034,0,0,1-1.143-4.244,3.294,3.294,0,0,1,4.413-1.1,3.024,3.024,0,0,1,1.143,4.234,3.24,3.24,0,0,1-2.783,1.532,3.35,3.35,0,0,1-1.63-.425m8.376-13.138a3.028,3.028,0,0,1-.865-4.308h.01a3.3,3.3,0,0,1,4.471-.821,3.026,3.026,0,0,1,.855,4.308,3.3,3.3,0,0,1-4.471.82m9.3-12.547a3.015,3.015,0,0,1-.5-4.354,3.308,3.308,0,0,1,4.529-.481,3.015,3.015,0,0,1,.5,4.355,3.276,3.276,0,0,1-2.523,1.163,3.239,3.239,0,0,1-2-.683m10.362-11.744a3.022,3.022,0,0,1-.049-4.392v.01a3.308,3.308,0,0,1,4.557-.056,3.018,3.018,0,0,1,.048,4.382,3.323,3.323,0,0,1-4.556.056M223.46,229.5a3.014,3.014,0,0,1,.507-4.354,3.306,3.306,0,0,1,4.529.48,3.036,3.036,0,0,1-.509,4.363,3.32,3.32,0,0,1-2.016.674,3.251,3.251,0,0,1-2.512-1.163m12.941-9.079a3.036,3.036,0,0,1,1.208-4.225A3.3,3.3,0,0,1,242,217.37a3.037,3.037,0,0,1-1.209,4.226,3.412,3.412,0,0,1-1.592.4,3.225,3.225,0,0,1-2.8-1.569m14.353-6.826a3.079,3.079,0,0,1,2.1-3.893,3.261,3.261,0,0,1,4.05,2.011,3.082,3.082,0,0,1-2.1,3.893,3.262,3.262,0,0,1-.979.148,3.219,3.219,0,0,1-3.07-2.159" transform="translate(49.773 75.116)" fill="#01baef"/>
            <path id="Path_42" data-name="Path 42" d="M122.065,413.041a3.28,3.28,0,0,1-2.283-.9,3.02,3.02,0,0,1,0-4.381,3.432,3.432,0,0,1,4.556,0,3,3,0,0,1,0,4.381,3.272,3.272,0,0,1-2.273.9" transform="translate(49.04 145.849)" fill="#01baef"/>
            <path id="Path_43" data-name="Path 43" d="M229.831,204.357a3.315,3.315,0,0,1-2.273-.9,3.01,3.01,0,0,1,0-4.39,3.432,3.432,0,0,1,4.556,0,3.1,3.1,0,0,1,.941,2.2,3.061,3.061,0,0,1-.941,2.187,3.312,3.312,0,0,1-2.283.913" transform="translate(93.51 71.043)" fill="#01baef"/>
            <path id="Path_44" data-name="Path 44" d="M74.616,464.827a3.1,3.1,0,0,1-2.6-3.6,3.218,3.218,0,0,1,3.744-2.5,3.116,3.116,0,0,1,2.6,3.6,3.192,3.192,0,0,1-3.167,2.555,3.072,3.072,0,0,1-.575-.056m2.9-14.946a3.108,3.108,0,0,1-2.523-3.653,3.217,3.217,0,0,1,3.8-2.426,3.118,3.118,0,0,1,2.523,3.653,3.2,3.2,0,0,1-3.156,2.482,3.8,3.8,0,0,1-.643-.056m3.224-14.89a3.1,3.1,0,0,1-2.435-3.709,3.222,3.222,0,0,1,3.845-2.343,3.1,3.1,0,0,1,2.438,3.709,3.2,3.2,0,0,1-3.137,2.417,3.825,3.825,0,0,1-.711-.073m3.568-14.817a3.1,3.1,0,0,1-2.351-3.755,3.233,3.233,0,0,1,3.906-2.26,3.1,3.1,0,0,1,2.349,3.764,3.2,3.2,0,0,1-3.128,2.343,3.3,3.3,0,0,1-.777-.092m3.934-14.724a3.089,3.089,0,0,1-2.245-3.81,3.254,3.254,0,0,1,3.971-2.168,3.1,3.1,0,0,1,2.246,3.819,3.209,3.209,0,0,1-3.109,2.27,3.549,3.549,0,0,1-.863-.11m4.337-14.624a3.068,3.068,0,0,1-2.13-3.865,3.233,3.233,0,0,1,4.02-2.058,3.081,3.081,0,0,1,2.14,3.874,3.21,3.21,0,0,1-3.081,2.187,3.373,3.373,0,0,1-.949-.139m4.768-14.493a3.072,3.072,0,0,1-2.014-3.931,3.243,3.243,0,0,1,4.087-1.936,3.063,3.063,0,0,1,2.016,3.93,3.213,3.213,0,0,1-3.053,2.1,3.359,3.359,0,0,1-1.035-.166m5.218-14.347a3.08,3.08,0,0,1-1.88-3.994,3.256,3.256,0,0,1,4.155-1.809,3.069,3.069,0,0,1,1.882,3.987,3.233,3.233,0,0,1-3.023,2.01,3.487,3.487,0,0,1-1.133-.194m5.718-14.18a3.058,3.058,0,0,1-1.735-4.05,3.273,3.273,0,0,1,4.21-1.671,3.044,3.044,0,0,1,1.738,4.05,3.284,3.284,0,0,1-4.213,1.671m6.245-13.958a3.049,3.049,0,0,1-1.572-4.116,3.273,3.273,0,0,1,4.277-1.512,3.045,3.045,0,0,1,1.574,4.115,3.229,3.229,0,0,1-2.926,1.8,3.382,3.382,0,0,1-1.353-.285m6.812-13.72a3.036,3.036,0,0,1-1.38-4.169,3.28,3.28,0,0,1,4.335-1.338,3.043,3.043,0,0,1,1.39,4.18v-.009a3.236,3.236,0,0,1-2.868,1.679,3.393,3.393,0,0,1-1.478-.342m7.436-13.413a3.043,3.043,0,0,1-1.191-4.234,3.292,3.292,0,0,1,4.4-1.136,3.022,3.022,0,0,1,1.18,4.226,3.246,3.246,0,0,1-2.791,1.558,3.332,3.332,0,0,1-1.6-.414m8.087-13.064a3.03,3.03,0,0,1-.969-4.28,3.3,3.3,0,0,1,4.461-.922,3.028,3.028,0,0,1,.959,4.29,3.257,3.257,0,0,1-2.715,1.411,3.216,3.216,0,0,1-1.736-.5m8.778-12.629a3.021,3.021,0,0,1-.709-4.327,3.3,3.3,0,0,1,4.5-.683,3.021,3.021,0,0,1,.709,4.327,3.316,3.316,0,0,1-4.5.683m9.527-12.132a3.009,3.009,0,0,1-.431-4.354,3.3,3.3,0,0,1,4.537-.416,3.021,3.021,0,0,1,.432,4.363,3.3,3.3,0,0,1-2.485,1.126,3.268,3.268,0,0,1-2.054-.72m10.294-11.524a3.028,3.028,0,0,1-.124-4.381,3.317,3.317,0,0,1,4.556-.121,3.012,3.012,0,0,1,.126,4.382,3.263,3.263,0,0,1-2.341.969,3.306,3.306,0,0,1-2.216-.849m11.1-10.821a3.011,3.011,0,0,1,.212-4.373,3.3,3.3,0,0,1,4.546.194,3.022,3.022,0,0,1-.2,4.382,3.308,3.308,0,0,1-2.178.812,3.26,3.26,0,0,1-2.379-1.016m11.916-9.982a3.021,3.021,0,0,1,.565-4.355,3.309,3.309,0,0,1,4.519.545A3.01,3.01,0,0,1,193,237.1v.01a3.323,3.323,0,0,1-1.978.645,3.255,3.255,0,0,1-2.541-1.19m12.712-9.032a3.027,3.027,0,0,1,.949-4.29,3.312,3.312,0,0,1,4.461.9,3.044,3.044,0,0,1-.951,4.29,3.293,3.293,0,0,1-1.755.5,3.24,3.24,0,0,1-2.705-1.4m13.48-7.943a3.045,3.045,0,0,1,1.352-4.188,3.286,3.286,0,0,1,4.357,1.291,3.05,3.05,0,0,1-1.353,4.188,3.335,3.335,0,0,1-1.5.361,3.254,3.254,0,0,1-2.858-1.652m14.2-6.718a3.059,3.059,0,0,1,1.757-4.05,3.274,3.274,0,0,1,4.2,1.689,3.076,3.076,0,0,1-1.756,4.051,3.375,3.375,0,0,1-1.228.23,3.225,3.225,0,0,1-2.975-1.919m14.8-5.369a3.08,3.08,0,0,1,2.168-3.857,3.245,3.245,0,0,1,4,2.085,3.079,3.079,0,0,1-2.167,3.857,3.266,3.266,0,0,1-4-2.085m15.3-3.884A3.107,3.107,0,0,1,261.553,200a3.215,3.215,0,0,1,3.751,2.49,3.108,3.108,0,0,1-2.581,3.608,3.252,3.252,0,0,1-.595.056,3.181,3.181,0,0,1-3.156-2.538m15.658-2.27a3.14,3.14,0,0,1,3-3.293h.008a3.186,3.186,0,0,1,3.426,2.888,3.149,3.149,0,0,1-3.012,3.293,1.871,1.871,0,0,1-.213.008,3.17,3.17,0,0,1-3.212-2.9" transform="translate(29.696 70.99)" fill="#01baef"/>
            <path id="Path_45" data-name="Path 45" d="M73.275,407.333a3.307,3.307,0,0,1-2.283-.914,3.063,3.063,0,0,1-.941-2.186,3.1,3.1,0,0,1,.941-2.2,3.429,3.429,0,0,1,4.556,0,3.066,3.066,0,0,1,.951,2.2,3.028,3.028,0,0,1-.951,2.186,3.281,3.281,0,0,1-2.273.914" transform="translate(28.907 143.799)" fill="#01baef"/>
            <path id="Path_46" data-name="Path 46" d="M426.336,173.886l-38.88,4.6a.745.745,0,0,0-.391.166c-4.44,3.638-8.145,3.471-11.6,4.48a80.9,80.9,0,0,1-8.542,1.3l-9.446-21.722a1.937,1.937,0,0,1,1.163-2.323c1.858-1.007,12.123.033,13.8.906,1.663.837,3-2.657,4.4-1.869,2.4,1.375,9.4,7.5,9.4,7.5l38.191-5.075Z" transform="translate(147.486 57.102)" fill="#f69772"/>
            <path id="Path_3197" data-name="Path 3197" d="M.15.067,8.871.118,8.978,17.75.257,17.7Z" transform="translate(537.179 220.493) rotate(-8.877)" fill="#fff"/>
            <path id="Path_47" data-name="Path 47" d="M496.614,71.531,478.172,179.2l-93.1,12.79,3.325,21.317L492.55,205.49a13.717,13.717,0,0,0,12.169-9.444L539.132,85.409Z" transform="translate(158.9 25.64)" fill="#e8f1f2"/>
            <path id="Path_48" data-name="Path 48" d="M612.2,345.8l51.1,17.114a12.814,12.814,0,0,1,5.426,3.524c3.53,3.9,3.152,7.345,4.316,11.684a36.73,36.73,0,0,1,1.184,9.364l6.628,5.769,3.132-8.4L676.5,351.87l-57.866-23.291Z" transform="translate(252.625 117.778)" fill="#f69772"/>
            <path id="Path_49" data-name="Path 49" d="M658.934,346.039s13.419-3.463,26.083,1.441l-23.788,63.783a3.241,3.241,0,0,1-3.256,2.055,3.2,3.2,0,0,1-2.954-2.443c-.592-2.616-.236-6.142,2.533-10.661a6.646,6.646,0,0,0,.938-4.323l-1.827-14.237,4.837-1.012Z" transform="translate(270.194 123.611)" fill="#192853"/>
            <path id="Path_50" data-name="Path 50" d="M549.012,293.105l-32.521-17.764,4.987,50.631L677.4,379.452l19.612,6.948L709,360.907s-128.4-59.329-159.991-67.8" transform="translate(213.131 98.695)" fill="#e8f1f2"/>
            <path id="Path_51" data-name="Path 51" d="M535.663,380.308l.513,52.03a11.914,11.914,0,0,1-1.616,6.1c-2.628,4.514-6.124,5.335-9.979,7.854a40.344,40.344,0,0,1-8.763,4.234l-3.409,7.948,9.28,0,29.756-17.923,3.248-60.242Z" transform="translate(211.446 136.32)" fill="#f69772"/>
            <path id="Path_52" data-name="Path 52" d="M559.412,424.659s7.921,10.975,7.4,24.093l-70.466.019a3.221,3.221,0,0,1-3.112-2.252,3.057,3.057,0,0,1,1.393-3.5c2.362-1.42,5.932-2.286,11.291-1.308a7.393,7.393,0,0,0,4.547-.613l13.317-6.462,2.625,4.036Z" transform="translate(203.482 152.218)" fill="#192853"/>
            <path id="Path_53" data-name="Path 53" d="M481.837,59.9,467.181,90.212l-.682-.84-1.006-1.225-.342-.42L451.472,70.866l-3.236-3.972-2.6-12.079,4.087-13.337,21.783,5.772Z" transform="translate(183.893 14.868)" fill="#f69772"/>
            <path id="Path_54" data-name="Path 54" d="M724.5,419.729,578.63,170.152c-1.53-3.645-2.926-7.61-4.289-11.863-2.461-7.641-4.755-16.05-7.049-24.555-1.463-5.4-2.959-10.808-4.455-16.084-1.23-4.316-2.493-8.505-3.89-12.5a78.067,78.067,0,0,0-14.165-25.164A76.742,76.742,0,0,0,525.33,63.517c-4.956-2.974-12.3-7.226-19.852-9.784-8.345-2.75-24.538-3.645-30.623,1.822-4.123,3.774-4.123,13.909-5.785,21.04a16.849,16.849,0,0,1-1.6,4.509q-.661,1.214-1.216,2.466a41.132,41.132,0,0,0-5.145,26.623c4.2,27.852,89.321,416.541,89.321,416.541l1.5,20.048h29.094S729.485,450.9,724.5,419.729" transform="translate(190.093 18.479)" fill="#fafdfd"/>
            <g id="Group_25" data-name="Group 25" transform="translate(675.312 75.672)" style="mix-blend-mode: multiply;isolation: isolate">
              <g id="Group_24-2" data-name="Group 24">
                <g id="Group_23" data-name="Group 23" clip-path="url(#clip-path-3)">
                  <path id="Path_55" data-name="Path 55" d="M553.716,108.449s-1.75.114-.547-.6c-1.5-3.328-.542-9.933-2.26-13.408-1.325-2.627-2.687-5.287-4.1-7.917-9.778-15.056-21.6-24.023-32.666-29.329l-5.213-1.494L478.05,78.871s-.818,16.659,20.461,23.28l50.213,11.056c2.5,3.114,10.23,14.769,10.23,14.769Z" transform="translate(-478.046 -55.705)" fill="#e8f1f2"/>
                </g>
              </g>
            </g>
            <path id="Path_56" data-name="Path 56" d="M600.551,131.932l17.9,13.485,1.139,13.339a7.854,7.854,0,0,0,2.769,4.71,44.858,44.858,0,0,1,3.016,4.18s.428,2.482,4.665,2.788l3.731,1.808s1.356,1.354,2.969-.816a5,5,0,0,0-1.1-3.031,3,3,0,0,0,2.431-4.051s4.259-1.727,2.866-5.265a2.924,2.924,0,0,0,1.449-4.219c5.724-2.506.232-9.342-2.9-11.085l-12.759-7.1L609.155,122.03Z" transform="translate(247.818 43.741)" fill="#f69772"/>
            <path id="Path_3198" data-name="Path 3198" d="M.24.476,18.155.823l.166,8.587L.405,9.063Z" transform="matrix(0.653, -0.757, 0.757, 0.653, 854.681, 184.03)" fill="#fff"/>
            <path id="Path_57" data-name="Path 57" d="M493.449,94.866a20.214,20.214,0,0,1-14.439-27.473c4.625-11.658,18.137-16.31,30.169-11.638l89.175,34.632A57.43,57.43,0,0,1,612.4,98.832l60.563,52.522-14.754,16.46L591.013,117.02Z" transform="translate(197.046 19.342)" fill="#fafdfd"/>
            <g id="Group_28" data-name="Group 28" transform="translate(635.36 64.138)" opacity="0.5" style="mix-blend-mode: multiply;isolation: isolate">
              <g id="Group_27" data-name="Group 27">
                <g id="Group_26" data-name="Group 26" clip-path="url(#clip-path-4)">
                  <path id="Path_58" data-name="Path 58" d="M474.166,65.224,463.449,85.672l-13.68-16.861s-.376-18.833,5.264-21.6c0,0-1.783,10.119,8.368,11.2,0,0,11.207-1.258,10.766,6.813" transform="translate(-449.764 -47.214)" fill="#f69772"/>
                </g>
              </g>
            </g>
            <path id="Path_59" data-name="Path 59" d="M452.47,21.224a13.752,13.752,0,0,1-13.1,14.106c-7.6.342-14.038-5.2-14.386-12.382s5.525-13.28,13.121-13.621,14.014,4.717,14.362,11.9" transform="translate(175.365 3.337)" fill="#062e40"/>
            <path id="Path_60" data-name="Path 60" d="M438.635,37c.26,5.329-1.322,9.731-3.53,9.83s-4.21-4.141-4.47-9.47,1.321-9.731,3.53-9.831,4.21,4.141,4.47,9.471" transform="translate(177.691 9.866)" fill="#fff"/>
            <path id="Path_61" data-name="Path 61" d="M479.949,17.087l1.869,38.437-15.494.288-6.883.372.517,17.834h-.006a10.2,10.2,0,0,1-1.427.986l-.153.1a11.517,11.517,0,0,1-8.524,1.1,10.977,10.977,0,0,1-7.6-6.761c-.986-2.675-1.9-5.354-2.688-7.717-1.452-4.411-2.426-7.689-2.426-7.689l-4.481.2a1.57,1.57,0,0,1-1.3-.572,1.447,1.447,0,0,1-.267-1.342l3.835-12.487a45.572,45.572,0,0,1,1.288-20.78Z" transform="translate(177.865 6.125)" fill="#f69772"/>
            <path id="Path_62" data-name="Path 62" d="M450.64,18.262,445.549,32.11l4.657,14.673,5.149-.231,10.9-.492s-.527,14.118,9.862,15.6l-.319-6.572a7.833,7.833,0,0,1,1.43-4.9c4.864-6.931,18.729-28.438,7.326-33.452Z" transform="translate(183.856 5.999)" fill="#062e40"/>
            <path id="Path_63" data-name="Path 63" d="M489.35,22.731l-.226-4.655a7.572,7.572,0,0,0-8.034-7.034,16.269,16.269,0,0,1-8.329-1.862l-9.3-4.922A36.86,36.86,0,0,0,444.579.038l-1.091.049a9.575,9.575,0,0,0-9.3,10l.735,15.092Z" transform="translate(179.162 0)" fill="#062e40"/>
            <path id="Path_64" data-name="Path 64" d="M444.095,36.741c.26,5.331-1.321,9.732-3.53,9.831s-4.21-4.142-4.468-9.471,1.319-9.731,3.53-9.83,4.208,4.141,4.468,9.47" transform="translate(179.944 9.775)" fill="#fff"/>
            <path id="Path_3202" data-name="Path 3202" d="M.008.074,32.465.132l.006,3L.014,3.07Z" transform="translate(610.913 44.903) rotate(-2.679)" fill="#fff"/>
            <path id="Path_65" data-name="Path 65" d="M464.811,74.406a9.244,9.244,0,0,0-1.459-11.779c-.041-.039-8.294-7.632-.3-15.126a25.78,25.78,0,0,0-3.542-8.827l-5.45.246s.578,15.323-16,15.054a1.647,1.647,0,0,0-.583.01c-.018,0-.034,0-.055,0l.006.015a1.569,1.569,0,0,0-1.168,1.062,1.545,1.545,0,0,0,1.117,1.914c.047,6.461.8,15.778,6.5,20.234,6.052,4.736,16.613,3.853,20.913-2.777l.018-.027" transform="translate(180 13.862)" fill="#01161e"/>
            <path id="Path_66" data-name="Path 66" d="M452.778,41.619l-.244-5.038a5.934,5.934,0,0,1,1.534-4.263,4.945,4.945,0,0,1,5.692-1.507s8.668,2.351,2.755,11.863c-.018.03-.04.06-.058.088l-4.617,6.746a2.513,2.513,0,0,1-1.959,1.073l-.178.008a2.452,2.452,0,0,1-2.6-2.275Z" transform="translate(186.736 10.918)" fill="#f69772"/>
            <path id="Path_67" data-name="Path 67" d="M473.5,50.915l7.808,2.021-16.49,42.809-6.206-11.722Z" transform="translate(189.247 18.25)" fill="#e8f1f2"/>
            <path id="Path_68" data-name="Path 68" d="M233.586,210.563l62.294,19.12,37.709,11.574-17.732-29.89-6.387-.8-73.63-9.275Z" transform="translate(96.389 72.152)" fill="#2c518d"/>
            <path id="Path_69" data-name="Path 69" d="M222.115,228.552l28.649-15.141L232.73,187.191Z" transform="translate(91.656 67.098)" fill="#2c518d"/>
            <path id="Path_70" data-name="Path 70" d="M219.489,227.871a2.587,2.587,0,0,0,1.961,3.145,2.7,2.7,0,0,0,3.269-1.884l10.658-40.9a2.585,2.585,0,0,0-1.959-3.145,2.706,2.706,0,0,0-3.27,1.884Z" transform="translate(90.539 66.315)" fill="#617daa"/>
            <g id="Group_31" data-name="Group 31" transform="translate(392.268 282.717)" opacity="0.5" style="mix-blend-mode: multiply;isolation: isolate">
              <g id="Group_30" data-name="Group 30">
                <g id="Group_29" data-name="Group 29" clip-path="url(#clip-path-5)">
                  <path id="Path_71" data-name="Path 71" d="M277.682,227.235l37.709,11.575-17.73-29.89-6.388-.8c1.64,5.6.877,13.781-13.591,19.117" transform="translate(-277.682 -208.118)" fill="#2c518d"/>
                </g>
              </g>
            </g>
            <path id="Path_3199" data-name="Path 3199" d="M2.534,2.057l90.545,1.51,1.8,106.007-90.545-1.51Z" transform="translate(379.518 238.027) rotate(-29.703)" fill="#2c518d"/>
            <g id="Group_34" data-name="Group 34" transform="translate(433.887 281.224)" opacity="0.5" style="mix-blend-mode: multiply;isolation: isolate">
              <g id="Group_33" data-name="Group 33">
                <g id="Group_32" data-name="Group 32" clip-path="url(#clip-path-6)">
                  <path id="Path_3200" data-name="Path 3200" d="M.222,1.968l90.544,1.51.105,6.189L.327,8.157Z" transform="translate(-1.167 41.955) rotate(-29.703)" fill="#2c518d"/>
                </g>
              </g>
            </g>
            <path id="Path_3201" data-name="Path 3201" d="M.327,2.264,104.356,4l.173,10.2L.5,12.462Z" transform="matrix(0.869, -0.496, 0.496, 0.869, 431.341, 334.198)" fill="#617daa"/>
            <path id="Path_72" data-name="Path 72" d="M308.954,259.083l84.831-46.536-.822-1.387a3.074,3.074,0,0,0-4.1-1.079l-79.606,43.671a2.831,2.831,0,0,0-1.122,3.944Z" transform="translate(126.988 75.167)" fill="#2c518d"/>
            <g id="Group_37" data-name="Group 37" transform="translate(381.195 192.405)" opacity="0.5" style="mix-blend-mode: multiply;isolation: isolate">
              <g id="Group_36" data-name="Group 36">
                <g id="Group_35" data-name="Group 35" clip-path="url(#clip-path-7)">
                  <path id="Path_73" data-name="Path 73" d="M269.845,185.19l36.523-20.036,13.218-7.251,29.653-16.267,8.768,14.78-29.653,16.266.311.526a7.168,7.168,0,0,1-2.839,9.98,7.775,7.775,0,0,1-10.379-2.729l-.311-.526-36.524,20.037Z" transform="translate(-269.844 -141.636)" fill="#2c518d"/>
                </g>
              </g>
            </g>
            <path id="Path_74" data-name="Path 74" d="M348.659,155.653a14.455,14.455,0,0,1,12.159-.811,13.636,13.636,0,0,1,8.233,8.641l12.97,41.408a8.412,8.412,0,0,1-4.128,9.938,9.137,9.137,0,0,1-12.186-3.2l-22.285-37.562a13.237,13.237,0,0,1,5.237-18.41m-4.625-7.8a22.013,22.013,0,0,0-8.719,30.655L357.6,216.072a18.664,18.664,0,0,0,24.918,6.554,17.283,17.283,0,0,0,8.441-20.325L377.99,160.894A22.831,22.831,0,0,0,364.279,146.5a24.192,24.192,0,0,0-20.245,1.35" transform="translate(137.099 51.94)" fill="#2c518d"/>
            <path id="Path_75" data-name="Path 75" d="M354.717,143.939l-84.83,46.536.822,1.387a3.073,3.073,0,0,0,4.1,1.079l79.607-43.67a2.834,2.834,0,0,0,1.122-3.945Z" transform="translate(111.369 51.595)" fill="#2c518d"/>
            <path id="Path_76" data-name="Path 76" d="M270.163,185.22l41.094-40.076a15.377,15.377,0,0,1,21.212-.077,34.681,34.681,0,0,1,2.45,2.619Z" transform="translate(111.483 50.492)" fill="#2c518d"/>
            <path id="Path_77" data-name="Path 77" d="M266.4,190.782a4.04,4.04,0,0,0,5.394,1.418l84.349-46.273a3.723,3.723,0,0,0,1.475-5.187,4.039,4.039,0,0,0-5.393-1.42l-84.349,46.273a3.724,3.724,0,0,0-1.475,5.188" transform="translate(109.715 49.76)" fill="#617daa"/>
            <path id="Path_78" data-name="Path 78" d="M308.494,179.576a6.623,6.623,0,0,0,8.843,2.326,6.107,6.107,0,0,0,2.418-8.5l-27.112-45.7-11.26,6.177Z" transform="translate(116.113 45.773)" fill="#2c518d"/>
            <path id="Path_79" data-name="Path 79" d="M302.436,165.756a3.444,3.444,0,0,0,4.6,1.209,3.176,3.176,0,0,0,1.259-4.422,3.444,3.444,0,0,0-4.6-1.209,3.174,3.174,0,0,0-1.259,4.422" transform="translate(124.617 57.677)" fill="#fff"/>
            <path id="Path_80" data-name="Path 80" d="M384.519,164.817s-4.438-7.367-18.828-6.66a23.314,23.314,0,0,1-10.576-1.823s-2.44-.913-3.39.557a1.031,1.031,0,0,0-.113.891c.321.951,1.482,3.315,5.33,4.645a60.753,60.753,0,0,0,7.239,1.987s10.6,9.121,20.339.4" transform="translate(145.071 55.937)" fill="#f69772"/>
            <path id="Path_81" data-name="Path 81" d="M361.677,179.431c-2.458.166-4.382-1.725-4-3.395a3.2,3.2,0,0,1,1.1-1.747,3.753,3.753,0,0,1-4.657-1.535,4.062,4.062,0,0,1,.227-4,2.994,2.994,0,0,1-2.279-1.543c-1.1-2.874.809-4.331,2.205-4.661a36.9,36.9,0,0,1,3.92-.769c2.057-.431,4.116-.822,5.142-.238a3.317,3.317,0,0,1,.986,4.624,3.221,3.221,0,0,1,4.146,3.327,3.318,3.318,0,0,1-1.067,1.8c2.741-.47,4.02.239,4.735,1.425a3.948,3.948,0,0,1-.114,4.051,3,3,0,0,1,2.338,1.494c1.246,2.99-.692,4.407-2.1,4.765a27.2,27.2,0,0,1-5.1,1.013l-.024-.022c-1.873.333-3.68.569-4.6.026a3.313,3.313,0,0,1-.857-4.611" transform="translate(145.147 57.797)" fill="#f69772"/>
          </g>
        </g>
      </g>
    </g>
  </g>
</svg>
