<svg xmlns="http://www.w3.org/2000/svg" xmlns:xlink="http://www.w3.org/1999/xlink" width="2312.521" height="879.92" viewBox="0 0 2312.521 879.92">
  <defs>
    <clipPath id="clip-path">
      <rect id="Rectangle_119" data-name="Rectangle 119" width="955.919" height="671.92" fill="none"/>
    </clipPath>
    <clipPath id="clip-path-3">
      <rect id="Rectangle_108" data-name="Rectangle 108" width="80.968" height="80.344" fill="none"/>
    </clipPath>
    <clipPath id="clip-path-4">
      <rect id="Rectangle_110" data-name="Rectangle 110" width="24.433" height="42.754" fill="none"/>
    </clipPath>
    <clipPath id="clip-path-5">
      <rect id="Rectangle_112" data-name="Rectangle 112" width="37.739" height="34.12" fill="none"/>
    </clipPath>
    <clipPath id="clip-path-6">
      <rect id="Rectangle_115" data-name="Rectangle 115" width="82.614" height="54.339" fill="none"/>
    </clipPath>
    <clipPath id="clip-path-7">
      <rect id="Rectangle_117" data-name="Rectangle 117" width="88.228" height="64.85" fill="none"/>
    </clipPath>
  </defs>
  <g id="Group_1467" data-name="Group 1467" transform="translate(204.907 -134)">
    <g id="Group_45" data-name="Group 45" transform="translate(-204.907 134)">
      <path id="Path_1" data-name="Path 1" d="M1119.725,783.462c-6.036-64.641-65.235-115.417-137.464-115.417a148.046,148.046,0,0,0-62.966,13.9c-4.536-89.694-85.417-161.162-184.517-161.162a197.6,197.6,0,0,0-80.418,16.926c.115-1.407.231-2.781.231-4.188,0-29.945-26.562-54.225-59.276-54.225a63.2,63.2,0,0,0-23.679,4.54,171.491,171.491,0,0,0,10.417-58.624c0-102.468-90.759-185.547-202.7-185.547a220.31,220.31,0,0,0-42.9,4.187c-5.074,1.02-10.072,2.182-15.031,3.519-3-20.234-13.531-38.285-28.946-51.692a95.632,95.632,0,0,0-21.95-14.286,103.478,103.478,0,0,0-87.836,0A95.874,95.874,0,0,0,160.7,195.677a93.513,93.513,0,0,0-10.84,11.154,81.452,81.452,0,0,0,1.306-11.154c.038-1.161.077-2.357.077-3.554a76.388,76.388,0,0,0-.73-10.733,82.061,82.061,0,0,0-2.038-10.24c-.038-.106-.038-.177-.077-.281a79.024,79.024,0,0,0-2.768-8.34c-10.763-27.411-36.019-48.489-67.31-55.492a59.858,59.858,0,0,0,.692-73.192A70.548,70.548,0,0,0,42.19,8.686,69.977,69.977,0,0,0,34.81,6.963,75.294,75.294,0,0,0,20.895,5.7,77.642,77.642,0,0,0,3.327,7.7,39.869,39.869,0,0,0,0,0V875.62H1200.6a71.329,71.329,0,0,0,1.384-14.146c0-42.19-36.558-76.534-82.264-78.012" transform="translate(0.218)" fill="#b9ecfc"/>
      <path id="Path_2" data-name="Path 2" d="M2232.435,413.44a40.281,40.281,0,0,0,1.833,11.978c-25.236,4-44.365,23.175-44.365,46.24a41.359,41.359,0,0,0,2.427,13.959,55.776,55.776,0,0,0-41.3-1.941,50.858,50.858,0,0,0-13.042,6.763c-20.079-19.749-49.415-32.212-82.129-32.212-60.506,0-109.553,42.6-109.553,95.163a83.994,83.994,0,0,0,8.223,36.206v.012c.772,1.637,1.6,3.252,2.481,4.846a94.356,94.356,0,0,0,13.551,18.614c-6.966,3.172-12.258,8.734-14.436,15.435a51.32,51.32,0,0,0-19.927-.456,47.318,47.318,0,0,0-4.667,1.048,44.525,44.525,0,0,0-23.3,15.111,34.5,34.5,0,0,0,.429,43.932c-19.8,4.209-35.788,16.861-42.585,33.324v.007a45.925,45.925,0,0,0-1.755,5.017c-.014.051-.033.1-.045.161a46.4,46.4,0,0,0-1.749,12.594c0,.718.02,1.433.054,2.137a45.957,45.957,0,0,0,.811,6.7,55.93,55.93,0,0,0-6.859-6.7,61.256,61.256,0,0,0-13.9-8.592,68.858,68.858,0,0,0-55.595,0,61.163,61.163,0,0,0-13.886,8.592c-9.759,8.042-16.425,18.885-18.324,31.039q-4.679-1.212-9.5-2.114a146.575,146.575,0,0,0-27.154-2.514c-70.828,0-128.247,49.879-128.247,111.4a97.952,97.952,0,0,0,6.593,35.2,42.241,42.241,0,0,0-14.993-2.724c-20.711,0-37.5,14.585-37.5,32.576,0,.844.074,1.672.146,2.5a130.93,130.93,0,0,0-50.884-10.163c-62.729,0-113.909,42.914-116.779,96.788a97.7,97.7,0,0,0-39.843-8.351c-45.689,0-83.157,30.484-86.981,69.312-28.915.877-52.061,21.508-52.061,46.844a40.7,40.7,0,0,0,.891,8.494H2284.658V367.543c-28.9.286-52.224,20.724-52.224,45.9" transform="translate(27.852 -273.663)" fill="#ecfbff"/>
      <path id="Path_3" data-name="Path 3" d="M2301.569,804.885c-20.127,7.447-35.556,21.989-41.772,39.815a12.5,12.5,0,0,0-.811,1.467,21.527,21.527,0,0,0-14.372-5.278c-7.662,0-14.229,3.636-17.442,8.942-11.158-8.738-26.165-14.1-42.726-14.1-20.374.029-38.453,8.209-49.75,20.816a114.481,114.481,0,0,0-41.1-7.505c-.883.029-1.765.029-2.648.058-3.248-10.232-14.442-17.8-27.789-17.8a31.619,31.619,0,0,0-3.39.176,90.238,90.238,0,0,0-30.119-26.593,114.4,114.4,0,0,0-108.649,0,91.144,91.144,0,0,0-27.893,23.573,26.849,26.849,0,0,0-19-7.389,28.015,28.015,0,0,0-12.958,3.079,82.551,82.551,0,0,0-4.45-19.263c-.176-.41-.317-.821-.458-1.2-15.113-40.168-60.274-69.311-113.628-69.281a140.068,140.068,0,0,0-41.242,6.128c-34.568,10.642-61.581,34.244-72.42,63.71a44.319,44.319,0,0,0-17.832-3.665c-13.454,0-25.282,5.776-32.132,14.455-17.69-14.572-42.019-23.573-68.89-23.573-34.392.029-64.581,14.806-81.954,37.118-5.332-12.344-19.526-21.168-36.192-21.168-11.264.028-21.4,4.045-28.426,10.466a12.622,12.622,0,0,0-10.486-5.043,13.773,13.773,0,0,0-7.062,1.907c-3.425-11.787-13.312-21.433-26.376-26.27a55.648,55.648,0,0,0-37.994,0c-12.818,4.749-22.6,14.16-26.2,25.624a13.24,13.24,0,0,0-9-3.372c-4.731,0-8.828,2.258-10.8,5.542a42.59,42.59,0,0,0-26.378-8.737c-12.6.029-23.762,5.072-30.754,12.871a70.952,70.952,0,0,0-25.388-4.633c-.564.03-1.095.03-1.66.03-2.012-6.333-8.932-10.995-17.16-10.995a17.089,17.089,0,0,0-2.118.117,55.481,55.481,0,0,0-18.573-16.447,70.839,70.839,0,0,0-67.194,0,56.613,56.613,0,0,0-17.232,14.57,16.577,16.577,0,0,0-11.723-4.573,17.534,17.534,0,0,0-8.016,1.906,50.169,50.169,0,0,0-2.754-11.9c-.106-.235-.176-.5-.282-.733C997.047,762.9,969.116,744.9,936.137,744.9a86.767,86.767,0,0,0-25.458,3.812c-21.4,6.568-38.064,21.168-44.773,39.375a25.293,25.293,0,0,0-3.985-1.384c-13.557-11.865-32.711-19.275-53.964-19.275a86.545,86.545,0,0,0-33.957,6.8c-2.447-43.89-46.065-78.853-99.529-78.853a116.038,116.038,0,0,0-43.368,8.281c.063-.675.124-1.349.124-2.036,0-14.657-14.31-26.54-31.963-26.54a37.46,37.46,0,0,0-12.777,2.22,76.723,76.723,0,0,0,5.618-28.679c0-50.121-48.938-90.757-109.3-90.757a130.574,130.574,0,0,0-23.142,2.048q-4.106.736-8.1,1.723c-1.617-9.9-7.3-18.736-15.618-25.288a52.546,52.546,0,0,0-11.836-7,61.178,61.178,0,0,0-47.381,0,52.711,52.711,0,0,0-11.848,7,46.573,46.573,0,0,0-5.843,5.46,36.055,36.055,0,0,0,.691-5.46c.028-.574.045-1.157.045-1.74a36.317,36.317,0,0,0-1.49-10.262c-.011-.046-.028-.089-.04-.131a36.148,36.148,0,0,0-1.495-4.087v-.005c-5.794-13.411-19.416-23.72-36.294-27.15a27.164,27.164,0,0,0,.366-35.791,38.153,38.153,0,0,0-19.856-12.31q-1.947-.519-3.979-.854a45.726,45.726,0,0,0-16.983.371c-1.856-5.458-6.365-9.989-12.3-12.574a77.188,77.188,0,0,0,11.549-15.166c.747-1.3,1.456-2.613,2.114-3.948v-.009a65.928,65.928,0,0,0,7.007-29.5c0-42.818-41.8-77.529-93.369-77.529-27.881,0-52.884,10.155-70,26.244a44.133,44.133,0,0,0-11.116-5.51,49.557,49.557,0,0,0-35.2,1.581,32.362,32.362,0,0,0,2.068-11.372c0-18.792-16.3-34.415-37.811-37.672a31.465,31.465,0,0,0,1.562-9.758c0-20.509-19.877-37.158-44.509-37.392V868.977H0v96.9H2312.3V801.689a85.045,85.045,0,0,0-10.734,3.2" transform="translate(0.218 -90.121)" fill="#d8f4fd"/>
      <path id="Path_5" data-name="Path 5" d="M1627.443,961.657H815.052a43.627,43.627,0,0,1,23.155-12.16,27.827,27.827,0,0,1,8.843-1.448,28.179,28.179,0,0,1,15.908,5.009,45.448,45.448,0,0,1,10.279,6.9c6.533-10.419,17.138-17.2,29.117-17.191a31.111,31.111,0,0,1,8.742,1.259c4.068-17.764,18.076-30.862,34.716-30.848,10.533.015,20,5.269,26.557,13.629a11.1,11.1,0,0,1,9.8-6.583,10.229,10.229,0,0,1,6.592,2.477c3.219-15.309,12.47-27.888,24.678-34.178a38.41,38.41,0,0,1,35.517,0c11.985,6.184,21.108,18.422,24.48,33.36a10.653,10.653,0,0,1,8.432-4.4c4.413,0,8.226,2.932,10.078,7.2,6.429-7.038,15.1-11.355,24.662-11.342,11.785.015,22.221,6.591,28.758,16.736a50.007,50.007,0,0,1,23.742-6.031c.514.014,1.022.021,1.524.042,1.876-8.234,8.343-14.315,16.06-14.315a13.934,13.934,0,0,1,1.962.147,62.83,62.83,0,0,1,17.386-21.4,50.215,50.215,0,0,1,62.779,0,62.246,62.246,0,0,1,16.114,18.975,13.552,13.552,0,0,1,10.968-5.961,12.786,12.786,0,0,1,7.489,2.477,90.335,90.335,0,0,1,2.578-15.49c.084-.323.163-.644.255-.952,8.728-32.311,34.825-55.748,65.649-55.72a60.267,60.267,0,0,1,23.819,4.926c19.982,8.563,35.57,27.544,41.842,51.235a19.692,19.692,0,0,1,10.309-2.939c7.772,0,14.6,4.625,18.559,11.615,10.207-11.706,24.269-18.947,39.795-18.94,25.074.028,46.3,18.94,53.652,45.092a55.352,55.352,0,0,1,11.133-1.154c24.636,0,45.975,16.246,56.46,39.972" transform="translate(684.594 -85.967)" fill="#ecfbff"/>
      <path id="Path_6" data-name="Path 6" d="M10.784,967.716H1168.832a66.186,66.186,0,0,0-33.007-14.831,45.8,45.8,0,0,0-12.607-1.767,45.012,45.012,0,0,0-22.676,6.11,66.45,66.45,0,0,0-14.653,8.414,51.515,51.515,0,0,0-53.965-19.43,51.38,51.38,0,0,0-87.343-21,16.152,16.152,0,0,0-23.367-5.008,62.4,62.4,0,0,0-120.7-1,16.144,16.144,0,0,0-26.387,3.413,51.47,51.47,0,0,0-76.151,6.58,80.975,80.975,0,0,0-33.844-7.356c-.733.017-1.458.025-2.174.051a23.638,23.638,0,0,0-22.893-17.459,23.107,23.107,0,0,0-2.8.18,80.868,80.868,0,0,0-137.244-2.953,20.422,20.422,0,0,0-26.31-4.249,95.647,95.647,0,0,0-3.676-18.893c-.121-.392-.233-.785-.363-1.16a98.272,98.272,0,0,0-187.18.538,31.831,31.831,0,0,0-41.152,10.581,80.865,80.865,0,0,0-133.206,31.9,91.668,91.668,0,0,0-15.869-1.407,90.417,90.417,0,0,0-80.483,48.751" transform="translate(-10.784 -92.573)" fill="#ecfbff"/>
    </g>
    <g id="Group_24" data-name="Group 24" transform="translate(256.437 342)">
      <g id="Group_40" data-name="Group 40" clip-path="url(#clip-path)">
        <path id="Path_7" data-name="Path 7" d="M129.9,471.04H94.645l-.021-84.455,35.253-.113Z" transform="translate(692.252 197.179)" fill="#0e8934"/>
        <g id="Group_39" data-name="Group 39">
          <g id="Group_38" data-name="Group 38" clip-path="url(#clip-path)">
            <path id="Path_8" data-name="Path 8" d="M164.62,407.171S162.5,399,146.507,385.6c-10.17-8.524-14.963-22.463-12.394-35.994.006-.033.013-.066.018-.1,0,0,0,9.078,11.495,14.416s21.993,22.425,18.994,43.249" transform="translate(602.151 178.319)" fill="#2dd782"/>
            <path id="Path_9" data-name="Path 9" d="M140.621,353.921c2.569,1.939,3.476,10.286,4.052,13.115,2.936,14.409-1.13,30.391,4.388,44.145,5.057,12.609,15.178,19.811,27.546,22.831,0,0-4.442-9.1-5.68-23.882-1.89-22.57-12.968-43.11-30.305-56.208" transform="translate(580.516 180.572)" fill="#0e8934"/>
            <path id="Path_10" data-name="Path 10" d="M153.858,357.481s4.122,1.682,15.651,4.28c16.43,3.7,29.235,17.509,32.555,35.094l.011.068s-6.025-.221-17.735-5.561c-14.244-6.5-24.306-18.686-30.475-33.863l-.007-.018" transform="translate(536.335 182.388)" fill="#2dd782"/>
            <path id="Path_11" data-name="Path 11" d="M110.17,259.319a.658.658,0,0,1-.393-.068c-.188-.1-.476-.251-.659-.355-5.021-2.871-7.853-8.081-8.754-13.942a14.843,14.843,0,0,1,1.9-9.466c1.467-2.764,3.642-5.183,4.337-8.348.51-2.321.182-4.771.625-7.1l.02-.1s10.313,7.46,12.093,20.474a21.451,21.451,0,0,1-2.026,12.452c-1.48,2.964-3.792,6-7.146,6.461" transform="translate(694.712 112.211)" fill="#0e8934"/>
            <path id="Path_12" data-name="Path 12" d="M140.444,253.852a1.032,1.032,0,0,0,.533-.3c.225-.234.57-.6.785-.838,5.9-6.639,7.644-15.514,6.338-24.345-.765-5.163-3.346-9.125-6.91-12.565-3.319-3.208-7.5-5.568-9.892-9.739-1.756-3.06-2.374-6.723-4.038-9.834l-.074-.137s-11.435,15.871-8.218,35.363a31.167,31.167,0,0,0,8.406,16.771c3.428,3.487,8.075,6.661,13.07,5.622" transform="translate(640.033 100.049)" fill="#0e8934"/>
            <path id="Path_13" data-name="Path 13" d="M176.81,415.917h-5.027a87.648,87.648,0,0,0-.961-16.617,20.731,20.731,0,0,0-10.559-15.555,144.586,144.586,0,0,0-15.366-7.308c-9.961-3.753-8.779-19.713-18.739-27.525-10.085-7.912-10.748-13.317-9.472-16.5a4.515,4.515,0,0,1,5.547-2.762c28.446,9.023,40.77,31.213,45.988,46.078,4.223,9.984,9.124,25.035,8.588,40.187" transform="translate(614.791 168.082)" fill="#0e8934"/>
            <path id="Path_14" data-name="Path 14" d="M11.957,298.7s34.552-30.027,68.516-21.27c13.026,3.36,28.732,15.883,28.83,31.427.1,15.452-13.935,12.607-23.378,8.28-11.879-5.443-21.507-15.085-34.127-18.767a63.116,63.116,0,0,0-18.522-2.329c-4.829.069-17.486-.672-21.319,2.658" transform="translate(829.713 140.727)" fill="#2dd782"/>
            <path id="Path_15" data-name="Path 15" d="M140.686,257.306c0,35.589-26.254,41.146-44.079,42.307a44.026,44.026,0,0,0-24.348,9.344c-1.1.841-2.207,1.7-3.325,2.56-7.565,5.858-15.286,11.716-22.806,17.845-.975.758-1.842,1.549-2.695,2.356a28.229,28.229,0,0,0-2.553,2.477l-2.364,2.676c-.77.909-1.433,1.936-2.159,2.9L35.3,341.23c-.348.489-.631,1.027-.963,1.531l-1.892,3.1-1.67,3.232c-.568,1.06-1.1,2.155-1.575,3.283a144.307,144.307,0,0,0-8.889,27.289A297.636,297.636,0,0,0,14.2,423.016c-.188,2.643-.362,5.219-.5,7.728-.835,15.1-.772,27.744-.6,36.565.095,4.446.236,7.914.346,10.269H9.913c-.093-2.374-.219-5.841-.283-10.2-.126-8.889-.126-21.617.8-36.854a336.948,336.948,0,0,1,5.28-43.535q.78-4.016,1.716-8.081a146.771,146.771,0,0,1,9.251-27.863,36.947,36.947,0,0,1,1.64-3.383l1.766-3.333,1.969-3.217c.346-.538.662-1.078,1.008-1.6l1.12-1.533c.772-.994,1.465-2.054,2.285-3.014l2.507-2.829A37.122,37.122,0,0,1,41.7,329.53c.932-.859,1.877-1.7,2.822-2.425,7.6-6.127,15.381-11.953,22.963-17.743,7.611-5.792,15.018-11.55,21.952-17.443a211.251,211.251,0,0,0,19.054-18.08,131.713,131.713,0,0,0,14.514-18.721c9-14.412,12.8-30.136,17.4-46.534Z" transform="translate(801.701 106.42)" fill="#2dd782"/>
            <path id="Path_16" data-name="Path 16" d="M61.259,365.683s-12.737-36.6,13.176-54.894c0,0,10.1-8.915,28.55-13.605,0,0,16.689,55.832-41.725,68.5" transform="translate(768.551 151.624)" fill="#0e8934"/>
            <path id="Path_17" data-name="Path 17" d="M102.506,336.952s-.332,1.229-.82,3.384c-.238,1.06-.567,2.357-.867,3.872-.317,1.5-.662,3.2-1.056,5.05s-.725,3.872-1.135,5.994c-.379,2.138-.851,4.378-1.182,6.717-.379,2.339-.756,4.765-1.151,7.205-.41,2.457-.694,4.967-1.024,7.476-.315,2.492-.646,5-.961,7.457-.317,2.475-.474,4.916-.725,7.257-.031.252-.048.5-.062.758-.2,2.087-.379,4.108-.568,6.044-.095.858-.157,1.7-.221,2.525-.079,1.229-.143,2.424-.2,3.552-.188,3.232-.348,5.993-.457,8.1H86.9c.221-2.172.52-5.1.867-8.569.189-1.919.363-3.973.71-6.147.3-2.172.615-4.46.961-6.834.346-2.357.631-4.816,1.056-7.273.426-2.475.867-4.984,1.309-7.491s.834-5.018,1.368-7.459c.506-2.459,1.009-4.866,1.482-7.205s1.026-4.562,1.5-6.684c.5-2.138.946-4.141,1.418-5.992.474-1.835.915-3.52,1.294-5.018s.772-2.794,1.055-3.871c.6-2.155.977-3.351.977-3.351Z" transform="translate(730.558 171.657)" fill="#0e8934"/>
            <path id="Path_18" data-name="Path 18" d="M76.6,390.124s5.04-24.751,23.8-30.444a2.283,2.283,0,0,1,2.324.631,2.671,2.671,0,0,1,.645,2.471c-1.49,6.1-6.933,18.145-26.77,27.342" transform="translate(744.177 183.46)" fill="#0e8934"/>
            <path id="Path_19" data-name="Path 19" d="M68.975,306.449a8.8,8.8,0,0,0-8.51,6.212C56.4,324.8,50.741,348.908,47.9,393.353c-.693,10.774-1.214,22.744-1.513,36.027-.348,15.487-.379,32.744,0,51.986v2.576h-9.3c-.03-1.935-.078-3.972-.124-6.077-.522-28.637-.458-71.549,3.561-96.584,6.083-37.763-3.987-100-8.588-115.878a2.471,2.471,0,0,1,.172-1.868,2.3,2.3,0,0,1,1.385-1.145l.064-.017a1.978,1.978,0,0,1,1.624.252,2.244,2.244,0,0,1,.977,1.4c2.648,11.515,14.389,64.445,12.055,85.422.426-3.467,2.98-22.812,8.4-39.832a28.245,28.245,0,0,0,.519-15.27c-21.085-86.7,84.125-98.234,84.125-98.234,3.294,102.528-50.856,110.979-72.288,110.339m-20.787,43.3c-.017.085-.017.169-.033.252,0,0,.016-.083.033-.252" transform="translate(769.511 100.056)" fill="#0e8934"/>
            <path id="Path_20" data-name="Path 20" d="M142.7,266.023s19.05,17.517,18.108,48.7c.123-4.047-4.361-10.757-6.432-13.778-13.926-20.324-32.918-16.274-53.123-11.539Z" transform="translate(651.936 135.726)" fill="#0e8934"/>
            <path id="Path_21" data-name="Path 21" d="M101.961,333a2.355,2.355,0,0,1,.589-1.885,2.038,2.038,0,0,1,1.754-.66c7.391.93,28.138,6.42,34.832,38.6,0,0-31.538,9.023-37.176-36.053" transform="translate(672.667 168.59)" fill="#0e8934"/>
            <path id="Path_22" data-name="Path 22" d="M102.925,305.375s22.838,10.01,22.838,33.782c0,0-17.568,5.63-22.838-33.782" transform="translate(684.651 155.804)" fill="#0e8934"/>
            <path id="Path_23" data-name="Path 23" d="M125.553,288.144s60-13.5,68.516,41.914c0,0-21.444,10.91-42.164,0-20.557-10.822-26.353-41.914-26.353-41.914" transform="translate(584.355 146.273)" fill="#2dd782"/>
            <path id="Path_24" data-name="Path 24" d="M110.456,307.839l.564.3c.385.205.9.524,1.564.929a59.874,59.874,0,0,1,5.208,3.774c1.011.871,2.149,1.77,3.253,2.835,1.135,1.034,2.3,2.166,3.449,3.392,1.2,1.181,2.3,2.537,3.482,3.857,1.142,1.356,2.242,2.792,3.362,4.212,1.039,1.483,2.121,2.94,3.113,4.429.951,1.515,1.914,2.992,2.8,4.455.838,1.494,1.648,2.937,2.416,4.309.752,1.38,1.368,2.738,1.988,3.966s1.18,2.362,1.595,3.4c.44,1.031.821,1.93,1.138,2.67l.991,2.33-4.4,1.832s-.3-.831-.834-2.283c-.266-.728-.587-1.611-.956-2.626-.345-1.027-.838-2.132-1.357-3.35s-1.056-2.555-1.708-3.922c-.667-1.358-1.371-2.791-2.1-4.272-.8-1.441-1.627-2.928-2.468-4.442-.878-1.486-1.845-2.946-2.771-4.437-1.005-1.427-1.992-2.877-3.025-4.25-1.072-1.337-2.067-2.715-3.161-3.917-1.05-1.252-2.113-2.409-3.157-3.472-1.015-1.1-2.064-2.024-3-2.927a58.636,58.636,0,0,0-4.821-3.931c-.608-.418-1.093-.76-1.415-.954s-.513-.317-.513-.317Z" transform="translate(655.466 157.061)" fill="#0e8934"/>
            <path id="Path_25" data-name="Path 25" d="M114.086,286.967s39.676-69.554,108.345-13.584c0,0-47.814,48.9-108.345,13.584" transform="translate(572.205 128.367)" fill="#2dd782"/>
            <path id="Path_26" data-name="Path 26" d="M135.5,466.653H121.721c10.7-120.187-17.572-234.4-17.572-234.4l3.01-2.256c16.122,68.889,20.661,153.284,21.907,201.7A123.974,123.974,0,0,0,130.7,448.79a108.732,108.732,0,0,0,2.584,11.786,40.423,40.423,0,0,0,2.207,6.077" transform="translate(673.189 117.346)" fill="#0e8934"/>
            <path id="Path_27" data-name="Path 27" d="M25.321,354.472a37.932,37.932,0,0,1-8.929,1.963A121.241,121.241,0,0,1,0,357.89l.916-.932c8.129-8.253,18.494-9.688,27.769-2.969Z" transform="translate(927.234 178.438)" fill="#2dd782"/>
            <path id="Path_28" data-name="Path 28" d="M28.889,394.184a19.972,19.972,0,0,0,1.455-6.113c.638-4.3.963-11.118-.079-21.532a32.426,32.426,0,0,1,3.683-18.4,25.327,25.327,0,0,1,5.464-7.077,27.769,27.769,0,0,1,3.465-2.7,23.635,23.635,0,0,1,3.8-1.708l.078-.027a5.321,5.321,0,0,0-.882.773,8.249,8.249,0,0,0-1.689,2.643c-1.09,2.682-1.773,6.748.219,12.834,3.881,11.87-.864,25.971-15.511,41.31" transform="translate(868.326 171.747)" fill="#2dd782"/>
            <path id="Path_29" data-name="Path 29" d="M56.282,423.047a22.2,22.2,0,0,0,1.094-6.52,111.614,111.614,0,0,0-1.518-22.581,38.511,38.511,0,0,1-.257-10.292,39.488,39.488,0,0,1,2.627-9.7,37.436,37.436,0,0,1,4.939-8.566,33.079,33.079,0,0,1,7.241-6.639l.081-.053a12.519,12.519,0,0,0-2.518,4.7c-1.05,3.093-1.238,7.935,1.124,14.08a31.171,31.171,0,0,1,1.995,10.346,43.669,43.669,0,0,1-1.131,11.861,43.386,43.386,0,0,1-4.917,12.057,45.643,45.643,0,0,1-8.759,11.3" transform="translate(806.526 183.01)" fill="#2dd782"/>
            <path id="Path_30" data-name="Path 30" d="M12.715,393.188s6.683-4.509,26.767-2.383a35.568,35.568,0,0,0,18.175-2.785,33.161,33.161,0,0,0,13.457-11.088l.051-.071s-5.307,3.558-17.413.515a34.607,34.607,0,0,0-20.049.613,42.143,42.143,0,0,0-10.556,5.4,58.951,58.951,0,0,0-10.432,9.8" transform="translate(866.78 191.931)" fill="#2dd782"/>
            <path id="Path_31" data-name="Path 31" d="M40.014,427.817s6.391-5.37,26.66-5.352a35.288,35.288,0,0,0,30.643-18.586l.044-.083s-4.948,4.632-17.369,2.818c-13.037-1.966-30.554,2.086-39.978,21.2" transform="translate(801.991 206.018)" fill="#2dd782"/>
            <path id="Path_32" data-name="Path 32" d="M78.112,392.374s8.158-5.582,12.152-1.861a3.466,3.466,0,0,1,.083,4.925c-2.149,2.113-6.923,4.793-16.615,2.742Z" transform="translate(760.35 198.589)" fill="#0e8934"/>
            <path id="Path_33" data-name="Path 33" d="M82.327,457.609s1.183-1.705,1.675-6.1a44.126,44.126,0,0,0-.014-8.759,94.3,94.3,0,0,0-1.965-13.605,41.105,41.105,0,0,1,.888-20.774,39.2,39.2,0,0,1,10.989-17l.068-.062a13.812,13.812,0,0,0-2.065,5.2c-.687,3.378-.688,8.33,2.1,14.422a27.706,27.706,0,0,1,1.718,19.631,57.212,57.212,0,0,1-4.876,12.071,152.681,152.681,0,0,1-8.52,14.968" transform="translate(744.494 199.649)" fill="#2dd782"/>
            <path id="Path_34" data-name="Path 34" d="M18.192,483.039a668.386,668.386,0,0,1,68.771-90.108,414.183,414.183,0,0,1,29.433-29.4c3.649-3.183,6.451-5.692,8.4-7.273l3-2.354,1.014,1.134-3,2.342c-1.934,1.679-4.773,4.141-8.385,7.275-7.245,6.426-17.411,16.33-29.371,29.352-20.376,22.174-44.93,54.358-67.684,91.179Z" transform="translate(801.389 180.563)" fill="#0e8934"/>
            <path id="Path_35" data-name="Path 35" d="M66.509,448.118,83.975,406l.175.681c1.681-18.281,8.851-28.1,18.613-34.611,10.63-7.1,11.495-14.416,11.495-14.416.007.033.013.066.02.1,2.569,13.531-2.225,27.471-12.4,36-9.759,8.181-14.338,14.4-16.436,18.009l.027.106s-.476.779-1.223,2.2a10.114,10.114,0,0,0-.481,1.253c0-.113.006-.214.006-.328a93.59,93.59,0,0,0-9.781,44.32Z" transform="translate(746.935 182.477)" fill="#0e8934"/>
            <path id="Path_36" data-name="Path 36" d="M152.159,402.263c12.769,5.742,21.313,18.71,22.2,33.357a59.635,59.635,0,0,0,3.565,7.267,31.948,31.948,0,0,0,2.863,4.2,15.51,15.51,0,0,0,2.95,2.922,5.959,5.959,0,0,0,1.288.8,2.65,2.65,0,0,0,1.009.421l.874.255-.748,4-1.39-.532a5.206,5.206,0,0,1-1.459-.785,9.334,9.334,0,0,1-1.661-1.272,19.108,19.108,0,0,1-3.226-3.831,35.351,35.351,0,0,1-2.709-4.863,64.957,64.957,0,0,1-2.9-7.441c-2.068-1.368-6.145-4.017-12.566-7.969-11.623-7.152-17.82-18.914-20.735-32.9l0-.017s3.247,2.152,12.65,6.381" transform="translate(605.821 201.981)" fill="#0e8934"/>
            <path id="Path_37" data-name="Path 37" d="M232.148,196.98a3.1,3.1,0,0,0,2.275-1.006,3.594,3.594,0,0,0,0-4.872,3.185,3.185,0,0,0-4.559,0,3.626,3.626,0,0,0,0,4.872,3.14,3.14,0,0,0,2.285,1.006" transform="translate(396.917 97.011)" fill="#01baef"/>
            <path id="Path_38" data-name="Path 38" d="M302.748,505.957a3.428,3.428,0,0,0,2.7-3.928,3.273,3.273,0,0,0-3.678-2.883,3.422,3.422,0,0,0-2.7,3.939A3.29,3.29,0,0,0,302.249,506a2.791,2.791,0,0,0,.5-.041M300.2,489.064a3.428,3.428,0,0,0,2.608-3.988,3.254,3.254,0,0,0-3.742-2.791,3.439,3.439,0,0,0-2.612,3.99,3.3,3.3,0,0,0,3.178,2.851,2.767,2.767,0,0,0,.568-.062M297.3,472.243a3.428,3.428,0,0,0,2.523-4.05,3.24,3.24,0,0,0-3.8-2.7,3.447,3.447,0,0,0-2.525,4.062,3.287,3.287,0,0,0,3.158,2.759,2.761,2.761,0,0,0,.643-.073m-3.284-16.729a3.472,3.472,0,0,0,2.43-4.132h-.011a3.226,3.226,0,0,0-3.859-2.6,3.474,3.474,0,0,0-2.43,4.133,3.29,3.29,0,0,0,3.151,2.678,3.351,3.351,0,0,0,.72-.083m-3.7-16.645a3.47,3.47,0,0,0,2.323-4.194,3.217,3.217,0,0,0-3.927-2.483,3.486,3.486,0,0,0-2.324,4.206,3.281,3.281,0,0,0,3.121,2.584,3.117,3.117,0,0,0,.807-.113m-4.121-16.523a3.481,3.481,0,0,0,2.2-4.266,3.194,3.194,0,0,0-3.994-2.348A3.479,3.479,0,0,0,282.2,420a3.246,3.246,0,0,0,3.093,2.481,3.041,3.041,0,0,0,.9-.133m-4.589-16.38a3.5,3.5,0,0,0,2.074-4.339,3.183,3.183,0,0,0-4.062-2.214,3.486,3.486,0,0,0-2.075,4.339,3.223,3.223,0,0,0,3.065,2.379,3.111,3.111,0,0,0,1-.165m-5.088-16.215a3.521,3.521,0,0,0,1.94-4.41,3.175,3.175,0,0,0-4.138-2.061,3.51,3.51,0,0,0-1.93,4.41,3.233,3.233,0,0,0,3.032,2.277,2.973,2.973,0,0,0,1.1-.216m-5.617-16.01a3.532,3.532,0,0,0,1.787-4.482,3.175,3.175,0,0,0-4.207-1.907,3.532,3.532,0,0,0-1.776,4.491A3.231,3.231,0,0,0,269.693,374a2.99,2.99,0,0,0,1.209-.255m-6.174-15.765a3.56,3.56,0,0,0,1.613-4.564,3.158,3.158,0,0,0-4.272-1.723,3.561,3.561,0,0,0-1.614,4.564,3.236,3.236,0,0,0,2.948,2.021,3.071,3.071,0,0,0,1.326-.3m-6.779-15.487a3.57,3.57,0,0,0,1.431-4.635,3.14,3.14,0,0,0-4.34-1.519,3.557,3.557,0,0,0-1.419,4.626,3.206,3.206,0,0,0,2.88,1.9,3.079,3.079,0,0,0,1.449-.37m-7.412-15.149a3.569,3.569,0,0,0,1.22-4.7,3.109,3.109,0,0,0-4.4-1.3,3.574,3.574,0,0,0-1.221,4.688,3.192,3.192,0,0,0,2.815,1.753,3.085,3.085,0,0,0,1.583-.441m-8.084-14.759a3.57,3.57,0,0,0,1-4.748,3.093,3.093,0,0,0-4.445-1.066,3.57,3.57,0,0,0-1,4.748,3.174,3.174,0,0,0,2.726,1.6,3.062,3.062,0,0,0,1.719-.533M233.677,298.3a3.587,3.587,0,0,0,.748-4.8,3.088,3.088,0,0,0-4.5-.811,3.6,3.6,0,0,0-.751,4.81,3.171,3.171,0,0,0,2.632,1.447,3.081,3.081,0,0,0,1.87-.646m-9.513-13.744a3.6,3.6,0,0,0,.488-4.84,3.073,3.073,0,0,0-4.531-.523,3.592,3.592,0,0,0-.489,4.84,3.139,3.139,0,0,0,2.515,1.282,3.067,3.067,0,0,0,2.017-.76M213.91,271.433a3.6,3.6,0,0,0,.2-4.861,3.068,3.068,0,0,0-4.549-.225,3.605,3.605,0,0,0-.212,4.861,3.079,3.079,0,0,0,4.561.225m-11.011-12.4a3.616,3.616,0,0,0-.1-4.87,3.081,3.081,0,0,0-4.559.1,3.615,3.615,0,0,0,.086,4.87,3.1,3.1,0,0,0,4.571-.1m-11.772-11.589a3.611,3.611,0,0,0-.4-4.851,3.088,3.088,0,0,0-4.542.43,3.625,3.625,0,0,0,.4,4.861,3.078,3.078,0,0,0,4.541-.441m-12.49-10.677a3.588,3.588,0,0,0-.731-4.81,3.089,3.089,0,0,0-4.5.779,3.612,3.612,0,0,0,.729,4.81,3.1,3.1,0,0,0,4.5-.779m-13.183-9.7a3.586,3.586,0,0,0-1.056-4.739,3.1,3.1,0,0,0-4.435,1.139,3.573,3.573,0,0,0,1.056,4.738,3.11,3.11,0,0,0,1.689.5,3.151,3.151,0,0,0,2.745-1.64m-13.826-8.626a3.557,3.557,0,0,0-1.383-4.645,3.135,3.135,0,0,0-4.349,1.486,3.555,3.555,0,0,0,1.393,4.636,2.978,2.978,0,0,0,1.479.39,3.186,3.186,0,0,0,2.86-1.867m-14.383-7.5a3.546,3.546,0,0,0-1.708-4.523,3.16,3.16,0,0,0-4.234,1.826,3.555,3.555,0,0,0,1.709,4.523,3.088,3.088,0,0,0,1.257.266,3.22,3.22,0,0,0,2.976-2.092m-14.881-6.34a3.5,3.5,0,0,0-2.016-4.369,3.187,3.187,0,0,0-4.091,2.164,3.506,3.506,0,0,0,2.017,4.371,3.09,3.09,0,0,0,1.038.184,3.252,3.252,0,0,0,3.052-2.35m-15.285-5.127a3.472,3.472,0,0,0-2.313-4.206,3.22,3.22,0,0,0-3.929,2.472,3.472,3.472,0,0,0,2.316,4.2,3.079,3.079,0,0,0,.806.113,3.271,3.271,0,0,0,3.12-2.584m-15.592-3.928a3.432,3.432,0,0,0-2.593-4.011,3.236,3.236,0,0,0-3.753,2.759,3.432,3.432,0,0,0,2.593,4.011,2.844,2.844,0,0,0,.585.062,3.292,3.292,0,0,0,3.168-2.821m-15.822-2.729a3.4,3.4,0,0,0-2.851-3.8,3.272,3.272,0,0,0-3.564,3.045,3.4,3.4,0,0,0,2.853,3.806c.115.011.24.021.355.021a3.316,3.316,0,0,0,3.208-3.067M24.8,195.628h0a3.4,3.4,0,0,0,2.87-3.8,3.284,3.284,0,0,0-3.551-3.057,3.4,3.4,0,0,0-2.873,3.785,3.32,3.32,0,0,0,3.208,3.087c.116,0,.23-.009.346-.02m34.89-4.349A3.357,3.357,0,0,0,56.6,187.7a3.322,3.322,0,0,0-3.349,3.3,3.358,3.358,0,0,0,3.092,3.579v.011h.133a3.332,3.332,0,0,0,3.218-3.313M40.535,194.5a3.367,3.367,0,0,0,3.13-3.549,3.235,3.235,0,1,0-3.226,3.549Z" transform="translate(620.426 95.717)" fill="#01baef"/>
            <path id="Path_39" data-name="Path 39" d="M22.817,412.159a3.172,3.172,0,0,0,2.285-1.006,3.62,3.62,0,0,0,0-4.87,3.183,3.183,0,0,0-4.559,0,3.592,3.592,0,0,0,0,4.87,3.148,3.148,0,0,0,2.275,1.006" transform="translate(902.18 206.796)" fill="#01baef"/>
            <path id="Path_40" data-name="Path 40" d="M227.014,214.668a3.122,3.122,0,0,0,2.275-1.015,3.582,3.582,0,0,0,0-4.863,3.167,3.167,0,0,0-4.559,0,3.61,3.61,0,0,0,0,4.863,3.147,3.147,0,0,0,2.285,1.015" transform="translate(409.31 106.031)" fill="#01baef"/>
            <path id="Path_41" data-name="Path 41" d="M254.454,497.156a3.413,3.413,0,0,0,2.659-3.949,3.262,3.262,0,0,0-3.705-2.851,3.431,3.431,0,0,0-2.661,3.96,3.293,3.293,0,0,0,3.178,2.892,3.229,3.229,0,0,0,.529-.051m-2.651-16.9a3.437,3.437,0,0,0,2.6-4,3.251,3.251,0,0,0-3.735-2.789,3.441,3.441,0,0,0-2.611,4,3.292,3.292,0,0,0,3.168,2.841,2.755,2.755,0,0,0,.575-.051m-2.89-16.862a3.442,3.442,0,0,0,2.555-4.041,3.248,3.248,0,0,0-3.783-2.727,3.438,3.438,0,0,0-2.545,4.04,3.275,3.275,0,0,0,3.158,2.789,3.144,3.144,0,0,0,.615-.06m-3.13-16.8a3.464,3.464,0,0,0,2.487-4.093,3.243,3.243,0,0,0-3.821-2.655,3.457,3.457,0,0,0-2.5,4.082,3.3,3.3,0,0,0,3.16,2.738,3.716,3.716,0,0,0,.672-.073m-3.408-16.748a3.451,3.451,0,0,0,2.409-4.133h.011a3.228,3.228,0,0,0-3.869-2.584,3.457,3.457,0,0,0-2.42,4.133,3.279,3.279,0,0,0,3.138,2.666,3,3,0,0,0,.731-.082m-3.705-16.677A3.458,3.458,0,0,0,241,408.983a3.207,3.207,0,0,0-3.917-2.493,3.467,3.467,0,0,0-2.334,4.185,3.264,3.264,0,0,0,3.121,2.594,3.069,3.069,0,0,0,.8-.1m-4.033-16.585a3.472,3.472,0,0,0,2.246-4.235,3.206,3.206,0,0,0-3.964-2.41,3.48,3.48,0,0,0-2.246,4.245v-.009a3.265,3.265,0,0,0,3.1,2.533,3.109,3.109,0,0,0,.864-.124M230.25,380.1a3.488,3.488,0,0,0,2.149-4.3,3.183,3.183,0,0,0-4.021-2.3,3.5,3.5,0,0,0-2.152,4.3,3.264,3.264,0,0,0,3.092,2.442,2.948,2.948,0,0,0,.932-.143m-4.773-16.36a3.5,3.5,0,0,0,2.036-4.359,3.182,3.182,0,0,0-4.08-2.175,3.5,3.5,0,0,0-2.036,4.36,3.255,3.255,0,0,0,3.062,2.348,2.93,2.93,0,0,0,1.018-.175m-5.214-16.2a3.513,3.513,0,0,0,1.911-4.42,3.176,3.176,0,0,0-4.148-2.042,3.5,3.5,0,0,0-1.9,4.422,3.226,3.226,0,0,0,3.022,2.256,3.061,3.061,0,0,0,1.114-.216m-5.7-16.01a3.534,3.534,0,0,0,1.767-4.493,3.156,3.156,0,0,0-4.2-1.888,3.532,3.532,0,0,0-1.767,4.493,3.234,3.234,0,0,0,2.986,2.143,3,3,0,0,0,1.219-.255m-6.24-15.776a3.565,3.565,0,0,0,1.593-4.574,3.148,3.148,0,0,0-4.281-1.691,3.549,3.549,0,0,0-1.595,4.564,3.239,3.239,0,0,0,2.938,2.01,3.171,3.171,0,0,0,1.344-.308m-6.865-15.487a3.541,3.541,0,0,0,1.383-4.635,3.121,3.121,0,0,0-4.34-1.488,3.559,3.559,0,0,0-1.391,4.636v.009a3.217,3.217,0,0,0,2.87,1.868,2.98,2.98,0,0,0,1.479-.391m-7.566-15.1a3.579,3.579,0,0,0,1.144-4.718,3.112,3.112,0,0,0-4.416-1.22,3.567,3.567,0,0,0-1.144,4.707,3.18,3.18,0,0,0,2.785,1.7,3.094,3.094,0,0,0,1.631-.473m-8.382-14.605a3.6,3.6,0,0,0,.865-4.789h-.01a3.1,3.1,0,0,0-4.474-.912,3.594,3.594,0,0,0-.855,4.789,3.178,3.178,0,0,0,2.67,1.507,3.048,3.048,0,0,0,1.8-.595m-9.3-13.948a3.6,3.6,0,0,0,.5-4.84,3.085,3.085,0,0,0-4.532-.535,3.6,3.6,0,0,0-.5,4.842,3.153,3.153,0,0,0,2.525,1.293,3.038,3.038,0,0,0,2.006-.76m-10.37-13.056a3.621,3.621,0,0,0,.049-4.883v.011a3.076,3.076,0,0,0-4.561-.062,3.616,3.616,0,0,0-.048,4.872,3.089,3.089,0,0,0,4.559.062m-11.6-11.826a3.6,3.6,0,0,0-.508-4.84,3.084,3.084,0,0,0-4.532.533,3.627,3.627,0,0,0,.509,4.851,3.091,3.091,0,0,0,4.531-.544m-12.951-10.093a3.575,3.575,0,0,0-1.209-4.7,3.122,3.122,0,0,0-4.4,1.3,3.575,3.575,0,0,0,1.21,4.7,3.117,3.117,0,0,0,4.4-1.3m-14.363-7.589a3.5,3.5,0,0,0-2.1-4.328,3.2,3.2,0,0,0-4.053,2.235,3.5,3.5,0,0,0,2.1,4.328,2.966,2.966,0,0,0,.98.165,3.26,3.26,0,0,0,3.072-2.4" transform="translate(528.248 106.918)" fill="#01baef"/>
            <path id="Path_42" data-name="Path 42" d="M122.066,413.728a3.115,3.115,0,0,0,2.285-1.006,3.62,3.62,0,0,0,0-4.87,3.183,3.183,0,0,0-4.559,0,3.6,3.6,0,0,0,0,4.87,3.108,3.108,0,0,0,2.275,1.006" transform="translate(662.622 207.597)" fill="#01baef"/>
            <path id="Path_43" data-name="Path 43" d="M229.833,205.046a3.148,3.148,0,0,0,2.275-1.006,3.606,3.606,0,0,0,0-4.881,3.183,3.183,0,0,0-4.559,0,3.639,3.639,0,0,0-.942,2.44,3.593,3.593,0,0,0,.942,2.431,3.147,3.147,0,0,0,2.285,1.015" transform="translate(402.506 101.121)" fill="#01baef"/>
            <path id="Path_44" data-name="Path 44" d="M278.576,494.629a3.422,3.422,0,0,0,2.6-4,3.252,3.252,0,0,0-3.746-2.78,3.44,3.44,0,0,0-2.6,4A3.293,3.293,0,0,0,278,494.691a2.776,2.776,0,0,0,.575-.062m-2.9-16.615a3.448,3.448,0,0,0,2.525-4.061,3.235,3.235,0,0,0-3.8-2.7,3.46,3.46,0,0,0-2.525,4.061,3.3,3.3,0,0,0,3.158,2.759,3.437,3.437,0,0,0,.643-.062m-3.226-16.553a3.46,3.46,0,0,0,2.437-4.123,3.223,3.223,0,0,0-3.848-2.605,3.455,3.455,0,0,0-2.44,4.123,3.282,3.282,0,0,0,3.14,2.687,3.46,3.46,0,0,0,.711-.081m-3.571-16.472a3.468,3.468,0,0,0,2.352-4.174,3.217,3.217,0,0,0-3.909-2.513,3.471,3.471,0,0,0-2.351,4.185,3.274,3.274,0,0,0,3.13,2.605,2.99,2.99,0,0,0,.778-.1m-3.937-16.369a3.482,3.482,0,0,0,2.246-4.236,3.22,3.22,0,0,0-3.974-2.41,3.5,3.5,0,0,0-2.248,4.245,3.267,3.267,0,0,0,3.112,2.524,3.218,3.218,0,0,0,.864-.122m-4.34-16.257a3.479,3.479,0,0,0,2.132-4.3,3.181,3.181,0,0,0-4.023-2.288,3.492,3.492,0,0,0-2.142,4.307,3.255,3.255,0,0,0,3.083,2.431,3.065,3.065,0,0,0,.95-.154m-4.771-16.112a3.5,3.5,0,0,0,2.016-4.371,3.171,3.171,0,0,0-4.09-2.152,3.494,3.494,0,0,0-2.017,4.369,3.245,3.245,0,0,0,3.055,2.338,3.057,3.057,0,0,0,1.036-.184M250.608,380.3a3.537,3.537,0,0,0,1.882-4.44,3.162,3.162,0,0,0-4.158-2.012,3.523,3.523,0,0,0-1.883,4.432,3.249,3.249,0,0,0,3.025,2.235,3.176,3.176,0,0,0,1.134-.216m-5.723-15.764a3.533,3.533,0,0,0,1.736-4.5,3.158,3.158,0,0,0-4.213-1.858,3.516,3.516,0,0,0-1.739,4.5,3.228,3.228,0,0,0,2.977,2.123,2.968,2.968,0,0,0,1.238-.266m-6.25-15.517a3.546,3.546,0,0,0,1.573-4.576,3.137,3.137,0,0,0-4.281-1.681,3.541,3.541,0,0,0-1.575,4.574,3.213,3.213,0,0,0,2.928,2,3.1,3.1,0,0,0,1.354-.317m-6.817-15.253a3.555,3.555,0,0,0,1.381-4.635,3.123,3.123,0,0,0-4.339-1.488,3.562,3.562,0,0,0-1.391,4.647v-.011a3.2,3.2,0,0,0,2.87,1.867,3.119,3.119,0,0,0,1.479-.381m-7.442-14.912a3.585,3.585,0,0,0,1.192-4.707,3.114,3.114,0,0,0-4.408-1.263,3.561,3.561,0,0,0-1.18,4.7,3.191,3.191,0,0,0,2.793,1.732,3.076,3.076,0,0,0,1.6-.461m-8.093-14.524a3.59,3.59,0,0,0,.97-4.759,3.107,3.107,0,0,0-4.464-1.025,3.589,3.589,0,0,0-.96,4.769,3.177,3.177,0,0,0,2.717,1.569,2.985,2.985,0,0,0,1.737-.554m-8.785-14.04a3.6,3.6,0,0,0,.71-4.81,3.092,3.092,0,0,0-4.5-.76,3.6,3.6,0,0,0-.71,4.81,3.128,3.128,0,0,0,2.611,1.415,3.04,3.04,0,0,0,1.892-.656M197.965,276.8a3.6,3.6,0,0,0,.431-4.84,3.079,3.079,0,0,0-4.541-.462,3.612,3.612,0,0,0-.433,4.851,3.174,3.174,0,0,0,2.487,1.252,3.071,3.071,0,0,0,2.056-.8m-10.3-12.811a3.628,3.628,0,0,0,.124-4.87,3.084,3.084,0,0,0-4.559-.134,3.608,3.608,0,0,0-.126,4.872,3.083,3.083,0,0,0,4.561.133m-11.109-12.03a3.606,3.606,0,0,0-.212-4.861,3.074,3.074,0,0,0-4.549.216,3.62,3.62,0,0,0,.2,4.872,3.078,3.078,0,0,0,4.561-.227m-11.925-11.1a3.606,3.606,0,0,0-.565-4.842,3.088,3.088,0,0,0-4.522.606,3.593,3.593,0,0,0,.565,4.831v.011a3.1,3.1,0,0,0,4.522-.606m-12.722-10.041a3.587,3.587,0,0,0-.95-4.769,3.112,3.112,0,0,0-4.464,1.006,3.61,3.61,0,0,0,.951,4.769,3.055,3.055,0,0,0,1.756.554,3.159,3.159,0,0,0,2.707-1.56m-13.49-8.83a3.57,3.57,0,0,0-1.353-4.656,3.124,3.124,0,0,0-4.36,1.435,3.576,3.576,0,0,0,1.354,4.656,3.07,3.07,0,0,0,1.5.4,3.213,3.213,0,0,0,2.86-1.836m-14.208-7.468a3.531,3.531,0,0,0-1.759-4.5,3.162,3.162,0,0,0-4.2,1.877,3.552,3.552,0,0,0,1.757,4.5,3.082,3.082,0,0,0,1.228.255,3.229,3.229,0,0,0,2.977-2.134M109.4,208.558a3.486,3.486,0,0,0-2.17-4.287,3.2,3.2,0,0,0-4,2.318,3.486,3.486,0,0,0,2.169,4.287,2.883,2.883,0,0,0,.922.143,3.252,3.252,0,0,0,3.082-2.462M94.082,204.24a3.434,3.434,0,0,0-2.583-4.02,3.246,3.246,0,0,0-3.753,2.768A3.435,3.435,0,0,0,90.329,207a2.94,2.94,0,0,0,.6.062,3.281,3.281,0,0,0,3.158-2.821m-15.669-2.524a3.372,3.372,0,0,0-3.006-3.661H75.4a3.309,3.309,0,0,0-3.428,3.211,3.381,3.381,0,0,0,3.014,3.661,1.682,1.682,0,0,0,.213.009,3.32,3.32,0,0,0,3.215-3.22" transform="translate(572.954 101.045)" fill="#01baef"/>
            <path id="Path_45" data-name="Path 45" d="M73.277,408.021A3.142,3.142,0,0,0,75.562,407a3.6,3.6,0,0,0,.942-2.43,3.643,3.643,0,0,0-.942-2.441,3.18,3.18,0,0,0-4.559,0,3.6,3.6,0,0,0-.951,2.441A3.552,3.552,0,0,0,71,407a3.118,3.118,0,0,0,2.275,1.016" transform="translate(780.385 204.679)" fill="#01baef"/>
            <path id="Path_46" data-name="Path 46" d="M357.411,175.515l38.909,5.111a.709.709,0,0,1,.392.184c4.443,4.044,8.151,3.859,11.612,4.981,2.027.66,6.066,1.053,8.549,1.444l9.453-24.148a2.227,2.227,0,0,0-1.163-2.582c-1.859-1.119-12.132.036-13.812,1.007-1.664.93-3-2.954-4.4-2.078-2.4,1.528-9.405,8.342-9.405,8.342l-38.219-5.642Z" transform="translate(24.26 81.277)" fill="#f69772"/>
            <path id="Path_3197" data-name="Path 3197" d="M0,0,8.75.091,8.94,19.644l-8.75-.091Z" transform="translate(415.353 264.522) rotate(-171.123)" fill="#fff"/>
            <path id="Path_47" data-name="Path 47" d="M427.621,71.531l18.456,119.7,93.17,14.219-3.328,23.7-104.231-8.691a14.072,14.072,0,0,1-12.178-10.5l-34.439-123Z" transform="translate(-127.702 36.495)" fill="#e8f1f2"/>
            <path id="Path_48" data-name="Path 48" d="M684.037,347.727,632.9,366.752a12.781,12.781,0,0,0-5.43,3.917c-3.533,4.337-3.154,8.166-4.319,12.989a45.167,45.167,0,0,0-1.185,10.41l-6.633,6.414-3.134-9.339,7.494-36.672L677.6,328.579Z" transform="translate(-593.586 167.642)" fill="#f69772"/>
            <path id="Path_49" data-name="Path 49" d="M680.878,346.172s-13.429-3.85-26.1,1.6l23.805,70.909a3.243,3.243,0,0,0,3.259,2.285,3.31,3.31,0,0,0,2.956-2.715c.592-2.909.236-6.828-2.535-11.852a8.063,8.063,0,0,1-.939-4.806l1.828-15.827-4.841-1.125Z" transform="translate(-654.777 175.945)" fill="#192853"/>
            <path id="Path_50" data-name="Path 50" d="M676.6,295.09l32.545-19.749-4.99,56.287L548.113,391.083l-19.626,7.725-12-28.342S644.982,304.509,676.6,295.09" transform="translate(-483.391 140.48)" fill="#e8f1f2"/>
            <path id="Path_51" data-name="Path 51" d="M531.453,380.308l-.513,57.842a14.4,14.4,0,0,0,1.617,6.782c2.63,5.018,6.128,5.931,9.986,8.732a38.647,38.647,0,0,0,8.769,4.707l3.411,8.836-9.287,0L515.659,447.28l-3.25-66.971Z" transform="translate(-323.198 194.035)" fill="#f69772"/>
            <path id="Path_52" data-name="Path 52" d="M500.539,424.659s-7.927,12.2-7.406,26.785l70.518.021a3.277,3.277,0,0,0,3.114-2.5,3.573,3.573,0,0,0-1.394-3.89c-2.364-1.578-5.936-2.542-11.3-1.454a6.739,6.739,0,0,1-4.551-.681l-13.327-7.184-2.627,4.487Z" transform="translate(-308.081 216.663)" fill="#192853"/>
            <path id="Path_53" data-name="Path 53" d="M445.638,61.959l14.667,33.7.683-.933,1.007-1.362.342-.467,13.689-18.745,3.239-4.416,2.6-13.429-4.09-14.827-21.8,6.417Z" transform="translate(-155.943 21.162)" fill="#f69772"/>
            <path id="Path_54" data-name="Path 54" d="M460.785,460.859,606.762,183.4c1.531-4.052,2.928-8.46,4.292-13.189,2.463-8.495,4.759-17.843,7.054-27.3,1.465-6.008,2.962-12.015,4.459-17.881,1.231-4.8,2.5-9.455,3.893-13.9A89.8,89.8,0,0,1,640.635,83.16,79.533,79.533,0,0,1,660.1,64.853c4.959-3.306,12.312-8.033,19.867-10.876,8.351-3.057,24.556-4.052,30.646,2.025,4.127,4.2,4.127,15.463,5.789,23.39A20.13,20.13,0,0,0,718,84.4q.662,1.35,1.217,2.741a50.024,50.024,0,0,1,5.149,29.6c-4.2,30.964-89.387,463.074-89.387,463.074l-1.5,22.288H604.365S455.794,495.517,460.785,460.859" transform="translate(-420.136 26.303)" fill="#fafdfd"/>
            <g id="Group_25" data-name="Group 25" transform="translate(199.137 84.126)" style="mix-blend-mode: multiply;isolation: isolate">
              <g id="Group_24-2" data-name="Group 24">
                <g id="Group_23" data-name="Group 23" clip-path="url(#clip-path-3)">
                  <path id="Path_55" data-name="Path 55" d="M483.288,114.342s1.752.127.547-.663c1.5-3.7.543-11.043,2.262-14.906,1.326-2.921,2.689-5.878,4.1-8.8,9.786-16.738,21.617-26.706,32.69-32.605l5.217-1.661,30.9,25.754s.819,18.52-20.476,25.88l-50.25,12.292c-2.5,3.461-10.238,16.419-10.238,16.419Z" transform="translate(-478.046 -55.705)" fill="#e8f1f2"/>
                </g>
              </g>
            </g>
            <path id="Path_56" data-name="Path 56" d="M644.914,133.038,627,148.03l-1.139,14.829s-.51,3.508-2.771,5.236a50.03,50.03,0,0,0-3.018,4.647s-.428,2.759-4.668,3.1l-3.734,2.01s-1.357,1.506-2.972-.908a6,6,0,0,1,1.1-3.369s-3.445-.61-2.433-4.5c0,0-4.262-1.919-2.868-5.854a3.354,3.354,0,0,1-1.45-4.691c-5.728-2.786-.232-10.386,2.9-12.323l12.769-7.9L636.3,122.03Z" transform="translate(-537.995 62.26)" fill="#f69772"/>
            <path id="Path_3198" data-name="Path 3198" d="M0,0,19.05.619l.295,8.991L.295,8.991Z" transform="matrix(-0.653, -0.757, 0.757, -0.653, 93.469, 210.826)" fill="#fff"/>
            <path id="Path_57" data-name="Path 57" d="M657.156,99.436c12.637-3.188,19.077-17.582,14.45-30.542s-18.151-18.132-30.191-12.938l-89.241,38.5a56.663,56.663,0,0,0-14.052,9.387l-60.608,58.389,14.765,18.3,67.243-56.468Z" transform="translate(-392.245 27.531)" fill="#fafdfd"/>
            <g id="Group_28" data-name="Group 28" transform="translate(295.654 71.303)" opacity="0.5" style="mix-blend-mode: multiply;isolation: isolate">
              <g id="Group_27" data-name="Group 27">
                <g id="Group_26" data-name="Group 26" clip-path="url(#clip-path-4)">
                  <path id="Path_58" data-name="Path 58" d="M449.776,67.236,460.5,89.968l13.69-18.745s.376-20.937-5.267-24.009c0,0,1.784,11.25-8.375,12.449,0,0-11.215-1.4-10.774,7.574" transform="translate(-449.763 -47.214)" fill="#f69772"/>
                </g>
              </g>
            </g>
            <path id="Path_59" data-name="Path 59" d="M424.986,22.555c-.351,7.983,5.506,15.3,13.106,15.682s14.048-5.783,14.4-13.766S446.961,9.707,439.36,9.328a13.567,13.567,0,0,0-14.373,13.226" transform="translate(-97.368 4.75)" fill="#062e40"/>
            <path id="Path_60" data-name="Path 60" d="M430.635,38.056c-.26,5.925,1.323,10.818,3.533,10.928s4.213-4.6,4.473-10.528-1.322-10.818-3.533-10.929-4.213,4.6-4.473,10.529" transform="translate(-91.5 14.043)" fill="#fff"/>
            <path id="Path_61" data-name="Path 61" d="M432.9,17.087l-1.87,42.731,15.505.32,6.888.414L452.9,80.378h.006a10.251,10.251,0,0,0,1.428,1.1l.153.106a10.52,10.52,0,0,0,8.53,1.223,11.468,11.468,0,0,0,7.606-7.516c.987-2.974,1.906-5.952,2.69-8.579,1.453-4.9,2.427-8.548,2.427-8.548l4.484.225a1.508,1.508,0,0,0,1.3-.636,1.749,1.749,0,0,0,.267-1.492l-3.838-13.882a56,56,0,0,0-1.289-23.1Z" transform="translate(-135.283 8.718)" fill="#f69772"/>
            <path id="Path_62" data-name="Path 62" d="M483.88,18.432l5.095,15.4-4.661,16.312-5.153-.257-10.91-.547s.527,15.7-9.869,17.339l.319-7.306a9.416,9.416,0,0,0-1.431-5.443C452.4,46.22,438.529,22.31,449.94,16.736Z" transform="translate(-162.929 8.539)" fill="#062e40"/>
            <path id="Path_63" data-name="Path 63" d="M434.173,25.27l.226-5.175a7.9,7.9,0,0,1,8.04-7.82,14.955,14.955,0,0,0,8.335-2.07l9.3-5.471a33.883,33.883,0,0,1,18.9-4.691L480.069.1c5.5.275,9.567,5.248,9.311,11.118l-.735,16.778Z" transform="translate(-147.262 0)" fill="#062e40"/>
            <path id="Path_64" data-name="Path 64" d="M436.1,37.8c-.26,5.926,1.322,10.819,3.533,10.929s4.213-4.6,4.471-10.529-1.32-10.818-3.533-10.928-4.211,4.6-4.472,10.528" transform="translate(-104.679 13.913)" fill="#fff"/>
            <path id="Path_3202" data-name="Path 3202" d="M0,0,32.488.1l.01,3.33L.01,3.33Z" transform="matrix(-0.999, -0.047, 0.047, -0.999, 344.395, 53.327)" fill="#fff"/>
            <path id="Path_65" data-name="Path 65" d="M437.687,78.4a11.122,11.122,0,0,1,1.46-13.095c.041-.044,8.3-8.484.3-16.816a30.562,30.562,0,0,1,3.544-9.813l5.454.273s-.578,17.035,16.012,16.736a1.487,1.487,0,0,1,.584.011c.018,0,.034,0,.055,0l-.006.017a1.644,1.644,0,0,1,1.169,1.181,1.743,1.743,0,0,1-1.118,2.128c-.047,7.183-.8,17.541-6.5,22.495-6.056,5.265-16.625,4.283-20.928-3.087l-.018-.03" transform="translate(-127.058 19.731)" fill="#01161e"/>
            <path id="Path_66" data-name="Path 66" d="M464.337,42.865l.245-5.6a7.049,7.049,0,0,0-1.535-4.739,4.658,4.658,0,0,0-5.7-1.675s-8.674,2.614-2.757,13.189c.018.033.04.066.058.1l4.62,7.5a2.464,2.464,0,0,0,1.961,1.193l.178.009a2.559,2.559,0,0,0,2.6-2.53Z" transform="translate(-148.407 15.54)" fill="#f69772"/>
            <path id="Path_67" data-name="Path 67" d="M466.425,50.915l-7.814,2.247,16.5,47.591,6.21-13.032Z" transform="translate(-173.744 25.977)" fill="#e8f1f2"/>
            <path id="Path_68" data-name="Path 68" d="M333.663,211.6l-62.34,21.256-37.737,12.867,17.745-33.229,6.391-.891,73.685-10.312Z" transform="translate(292.036 102.699)" fill="#2c518d"/>
            <path id="Path_69" data-name="Path 69" d="M250.785,233.173l-28.67-16.833,18.047-29.148Z" transform="translate(391.13 95.506)" fill="#2c518d"/>
            <path id="Path_70" data-name="Path 70" d="M235.389,232.66a2.9,2.9,0,0,1-1.962,3.5,2.69,2.69,0,0,1-3.271-2.095l-10.666-45.471a2.9,2.9,0,0,1,1.961-3.5,2.692,2.692,0,0,1,3.273,2.095Z" transform="translate(410.272 94.391)" fill="#617daa"/>
            <g id="Group_31" data-name="Group 31" transform="translate(525.621 314.301)" opacity="0.5" style="mix-blend-mode: multiply;isolation: isolate">
              <g id="Group_30" data-name="Group 30">
                <g id="Group_29" data-name="Group 29" clip-path="url(#clip-path-5)">
                  <path id="Path_71" data-name="Path 71" d="M315.419,229.371,277.682,242.24l17.743-33.229,6.393-.893c-1.641,6.228-.878,15.321,13.6,21.253" transform="translate(-277.681 -208.118)" fill="#2c518d"/>
                </g>
              </g>
            </g>
            <path id="Path_3199" data-name="Path 3199" d="M0,0,93.007,2.688l3.21,114.875L3.21,114.875Z" transform="translate(518.763 366.579) rotate(-150.297)" fill="#2c518d"/>
            <g id="Group_34" data-name="Group 34" transform="translate(439.096 312.641)" opacity="0.5" style="mix-blend-mode: multiply;isolation: isolate">
              <g id="Group_33" data-name="Group 33">
                <g id="Group_32" data-name="Group 32" clip-path="url(#clip-path-6)">
                  <path id="Path_3200" data-name="Path 3200" d="M0,0,93.006,2.687l.187,6.707L.187,6.707Z" transform="translate(79.453 54.339) rotate(-150.297)" fill="#2c518d"/>
                </g>
              </g>
            </g>
            <path id="Path_3201" data-name="Path 3201" d="M0,0,106.858,3.088l.309,11.051L.309,11.051Z" transform="matrix(-0.869, -0.496, 0.496, -0.869, 517.643, 383.29)" fill="#617daa"/>
            <path id="Path_72" data-name="Path 72" d="M392.63,264.6l-84.894-51.735.823-1.542a2.909,2.909,0,0,1,4.107-1.2l79.665,48.55a3.334,3.334,0,0,1,1.122,4.384Z" transform="translate(127.024 106.99)" fill="#2c518d"/>
            <g id="Group_37" data-name="Group 37" transform="translate(486.213 213.899)" opacity="0.5" style="mix-blend-mode: multiply;isolation: isolate">
              <g id="Group_36" data-name="Group 36">
                <g id="Group_35" data-name="Group 35" clip-path="url(#clip-path-7)">
                  <path id="Path_73" data-name="Path 73" d="M358.073,190.055l-36.55-22.274-13.228-8.061L278.62,141.635l-8.775,16.431,29.675,18.083-.311.584a8.441,8.441,0,0,0,2.842,11.1,7.359,7.359,0,0,0,10.386-3.034l.311-.584L349.3,206.486Z" transform="translate(-269.846 -141.637)" fill="#2c518d"/>
                </g>
              </g>
            </g>
            <path id="Path_74" data-name="Path 74" d="M375.349,156.854a13.183,13.183,0,0,0-12.168-.9,14.6,14.6,0,0,0-8.239,9.606l-12.979,46.034a9.792,9.792,0,0,0,4.131,11.049,8.647,8.647,0,0,0,12.195-3.563l22.3-41.759c3.835-7.186,1.486-16.368-5.241-20.466m4.629-8.669c11.221,6.837,15.125,22.094,8.725,34.079l-22.3,41.759c-5,9.369-16.167,12.631-24.936,7.287-7.4-4.509-10.9-13.882-8.447-22.6L346,162.68a24.438,24.438,0,0,1,13.721-16,22.06,22.06,0,0,1,20.26,1.5" transform="translate(94.45 73.93)" fill="#2c518d"/>
            <path id="Path_75" data-name="Path 75" d="M271.107,143.939,356,195.674l-.823,1.542a2.908,2.908,0,0,1-4.105,1.2l-79.666-48.549a3.337,3.337,0,0,1-1.122-4.386Z" transform="translate(218.38 73.438)" fill="#2c518d"/>
            <path id="Path_76" data-name="Path 76" d="M334.967,190.176l-41.125-44.553a14.3,14.3,0,0,0-21.228-.086,37.263,37.263,0,0,0-2.451,2.912Z" transform="translate(239.022 71.869)" fill="#2c518d"/>
            <path id="Path_77" data-name="Path 77" d="M357.686,196.586a3.824,3.824,0,0,1-5.4,1.577l-84.412-51.442a4.384,4.384,0,0,1-1.476-5.766,3.823,3.823,0,0,1,5.4-1.578l84.412,51.442a4.386,4.386,0,0,1,1.476,5.767" transform="translate(221.838 70.827)" fill="#617daa"/>
            <path id="Path_78" data-name="Path 78" d="M293.508,185.371a6.269,6.269,0,0,1-8.85,2.585,7.191,7.191,0,0,1-2.42-9.454l27.132-50.8,11.269,6.867Z" transform="translate(237.488 65.152)" fill="#2c518d"/>
            <path id="Path_79" data-name="Path 79" d="M308.3,166.3a3.259,3.259,0,0,1-4.6,1.344,3.74,3.74,0,0,1-1.26-4.916,3.26,3.26,0,0,1,4.6-1.344,3.738,3.738,0,0,1,1.26,4.916" transform="translate(220.252 82.096)" fill="#fff"/>
            <path id="Path_80" data-name="Path 80" d="M351.558,165.8s4.442-8.19,18.842-7.4a21.216,21.216,0,0,0,10.584-2.027s2.441-1.015,3.393.619a1.255,1.255,0,0,1,.113.991c-.321,1.057-1.483,3.685-5.334,5.163a56.141,56.141,0,0,1-7.244,2.209s-10.613,10.14-20.354.449" transform="translate(74.378 79.619)" fill="#f69772"/>
            <path id="Path_81" data-name="Path 81" d="M364.836,181.463c2.46.184,4.385-1.918,4-3.774a3.631,3.631,0,0,0-1.1-1.942c1.975,1.118,4.107-.527,4.661-1.707a4.946,4.946,0,0,0-.228-4.452,3.025,3.025,0,0,0,2.28-1.716c1.1-3.2-.81-4.815-2.207-5.182a33.683,33.683,0,0,0-3.923-.855c-2.058-.479-4.119-.914-5.146-.264-1.75,1.105-1.869,3.691-.987,5.141-2.553-.81-4.488,1.8-4.149,3.7a3.788,3.788,0,0,0,1.067,2c-2.743-.523-4.023.266-4.739,1.584a4.807,4.807,0,0,0,.115,4.5,3.008,3.008,0,0,0-2.34,1.661c-1.247,3.324.693,4.9,2.1,5.3a24.852,24.852,0,0,0,5.106,1.127l.024-.024c1.875.37,3.683.633,4.6.029a3.948,3.948,0,0,0,.858-5.126" transform="translate(83.882 82.267)" fill="#f69772"/>
          </g>
        </g>
      </g>
    </g>
  </g>
</svg>
