<svg xmlns="http://www.w3.org/2000/svg" xmlns:xlink="http://www.w3.org/1999/xlink" width="375.216" height="216.687" viewBox="0 0 375.216 216.687">
  <defs>
    <clipPath id="clip-path">
      <rect id="Rectangle_119" data-name="Rectangle 119" width="329.317" height="216.687" fill="none"/>
    </clipPath>
    <clipPath id="clip-path-3">
      <rect id="Rectangle_108" data-name="Rectangle 108" width="27.894" height="25.91" fill="none"/>
    </clipPath>
    <clipPath id="clip-path-4">
      <rect id="Rectangle_110" data-name="Rectangle 110" width="8.417" height="13.788" fill="none"/>
    </clipPath>
    <clipPath id="clip-path-5">
      <rect id="Rectangle_112" data-name="Rectangle 112" width="13.001" height="11.003" fill="none"/>
    </clipPath>
    <clipPath id="clip-path-6">
      <rect id="Rectangle_115" data-name="Rectangle 115" width="28.461" height="17.524" fill="none"/>
    </clipPath>
    <clipPath id="clip-path-7">
      <rect id="Rectangle_117" data-name="Rectangle 117" width="30.395" height="20.913" fill="none"/>
    </clipPath>
  </defs>
  <g id="Group_1595" data-name="Group 1595" transform="translate(0.216 -517)">
    <g id="Group_45" data-name="Group 45" transform="translate(0 413)">
      <path id="Path_1" data-name="Path 1" d="M216.373,165.388a26.67,26.67,0,0,0-38.731-21.43,35.673,35.673,0,0,0-51.2-30.448c.022-.3.045-.587.045-.884a11.454,11.454,0,0,0-11.454-11.447,11.314,11.314,0,0,0-4.576.958,39.175,39.175,0,0,0-45.446-50.66c-.981.215-1.946.461-2.9.743A18.5,18.5,0,0,0,31.054,41.307a19.069,19.069,0,0,0-2.095,2.355,18.719,18.719,0,0,0,.252-2.355c.007-.245.015-.5.015-.75a17.593,17.593,0,0,0-.141-2.266,18.746,18.746,0,0,0-.394-2.162c-.007-.022-.007-.037-.015-.059a17.784,17.784,0,0,0-.535-1.761A18.539,18.539,0,0,0,15.135,22.6a13.57,13.57,0,0,0,.134-15.451A13.674,13.674,0,0,0,8.153,1.834,12.566,12.566,0,0,0,6.727,1.47,13.356,13.356,0,0,0,4.038,1.2a13.794,13.794,0,0,0-3.395.423A8.842,8.842,0,0,0,0,0V184.842H232a16.506,16.506,0,0,0-15.629-19.454" transform="translate(-0.174 134)" fill="#b9ecfc"/>
      <path id="Path_2" data-name="Path 2" d="M1397.589,377.318a9.391,9.391,0,0,0,.354,2.551,10.146,10.146,0,0,0-8.573,9.848,9.62,9.62,0,0,0,.469,2.973,9.857,9.857,0,0,0-7.98-.413,9.543,9.543,0,0,0-2.52,1.44,21.526,21.526,0,0,0-15.87-6.86c-11.692,0-21.17,9.074-21.17,20.267a19.421,19.421,0,0,0,1.589,7.711v0c.149.349.31.693.479,1.032a20.143,20.143,0,0,0,2.619,3.964,5.423,5.423,0,0,0-2.79,3.287,9.017,9.017,0,0,0-3.851-.1,8.433,8.433,0,0,0-.9.223,8.584,8.584,0,0,0-4.5,3.218,7.935,7.935,0,0,0,.083,9.357,11.558,11.558,0,0,0-8.229,7.1h0a10.465,10.465,0,0,0-.339,1.068c0,.011-.006.022-.009.034a10.829,10.829,0,0,0-.338,2.682c0,.153,0,.305.01.455a10.748,10.748,0,0,0,.157,1.427,11.387,11.387,0,0,0-1.325-1.427,11.716,11.716,0,0,0-2.686-1.83,12.183,12.183,0,0,0-10.743,0,11.7,11.7,0,0,0-2.683,1.83,11.026,11.026,0,0,0-3.541,6.61q-.9-.258-1.836-.45a25.784,25.784,0,0,0-5.247-.535c-13.687,0-24.782,10.623-24.782,23.725a22.753,22.753,0,0,0,1.274,7.5,7.5,7.5,0,0,0-2.9-.58,7.1,7.1,0,0,0-7.247,6.938c0,.18.014.356.028.532a23.289,23.289,0,0,0-9.833-2.164c-12.122,0-22.012,9.14-22.566,20.613a17.4,17.4,0,0,0-7.7-1.779c-8.829,0-16.069,6.492-16.808,14.762a10.2,10.2,0,0,0-10.06,9.977,9.518,9.518,0,0,0,.172,1.809H1407.68V367.543a9.994,9.994,0,0,0-10.092,9.775" transform="translate(-1032.682 -215.199)" fill="#ecfbff"/>
      <path id="Path_3" data-name="Path 3" d="M373.432,343.773a12.265,12.265,0,0,0-6.778,7.78,2.6,2.6,0,0,0-.132.287,3.16,3.16,0,0,0-5.162.716,10.067,10.067,0,0,0-15,1.312,15.819,15.819,0,0,0-6.669-1.466c-.143.006-.286.006-.43.011a4.667,4.667,0,0,0-4.509-3.477,4.267,4.267,0,0,0-.55.034,15.936,15.936,0,0,0-4.887-5.2,15.861,15.861,0,0,0-22.154,4.606,3.993,3.993,0,0,0-3.082-1.444,3.935,3.935,0,0,0-2.1.6,18.95,18.95,0,0,0-.722-3.764c-.029-.08-.051-.16-.074-.235a19.3,19.3,0,0,0-36.878.109,6.163,6.163,0,0,0-2.893-.716,6.229,6.229,0,0,0-5.213,2.825,15.837,15.837,0,0,0-24.475,2.647,6.231,6.231,0,0,0-10.484-2.091,1.957,1.957,0,0,0-2.847-.613,7.578,7.578,0,0,0-14.7-.126,1.955,1.955,0,0,0-3.214.424,6.212,6.212,0,0,0-9.27.808,9.8,9.8,0,0,0-4.119-.905c-.091.006-.178.006-.269.006a2.883,2.883,0,0,0-2.784-2.148,2.306,2.306,0,0,0-.344.023,9.8,9.8,0,0,0-16.712-.367,2.466,2.466,0,0,0-3.2-.521,11.515,11.515,0,0,0-.447-2.326c-.017-.046-.029-.1-.046-.143a11.928,11.928,0,0,0-22.79.069,3.663,3.663,0,0,0-.647-.27,12.069,12.069,0,0,0-14.265-2.437,16.155,16.155,0,0,0-23.185-13.79c.01-.132.02-.264.02-.4a5.183,5.183,0,0,0-7.259-4.752A17.738,17.738,0,0,0,74.58,295.9q-.666.144-1.314.337a8.377,8.377,0,0,0-15.012-3.874,8.419,8.419,0,0,0,.112-1.067c0-.112.007-.226.007-.34a8.293,8.293,0,0,0-.063-1.028,8.169,8.169,0,0,0-.179-.977c0-.009,0-.017-.006-.026a8.043,8.043,0,0,0-.243-.8h0a8.391,8.391,0,0,0-5.889-5.305,6.149,6.149,0,0,0-3.162-9.4,5.806,5.806,0,0,0-.646-.167,6.185,6.185,0,0,0-2.756.072,4.011,4.011,0,0,0-2-2.457,15.143,15.143,0,0,0,1.874-2.964c.121-.253.236-.511.343-.771v0a15.148,15.148,0,0,0-25.369-15.785,6.773,6.773,0,0,0-7.514-.768A7.49,7.49,0,0,0,6.968,241a7.3,7.3,0,0,0,.253-1.907A7.307,7.307,0,0,0,0,231.788V356.3H0v18.934H375.174V343.148a12.1,12.1,0,0,0-1.742.625" transform="translate(-0.174 -56.363)" fill="#d8f4fd"/>
      <path id="Path_5" data-name="Path 5" d="M972.037,857.215H815.052a8.4,8.4,0,0,1,4.474-2.376,5.324,5.324,0,0,1,1.709-.283,5.4,5.4,0,0,1,3.074.979,8.776,8.776,0,0,1,1.986,1.348,6.682,6.682,0,0,1,5.627-3.359,5.95,5.95,0,0,1,1.689.246c.786-3.471,3.493-6.03,6.708-6.028a6.524,6.524,0,0,1,5.132,2.663,2.145,2.145,0,0,1,1.894-1.286,1.964,1.964,0,0,1,1.274.484,9.653,9.653,0,0,1,4.769-6.679,7.35,7.35,0,0,1,6.863,0,9.624,9.624,0,0,1,4.73,6.519,2.052,2.052,0,0,1,1.629-.86,2.172,2.172,0,0,1,1.948,1.407,6.4,6.4,0,0,1,4.766-2.216,6.657,6.657,0,0,1,5.557,3.27,9.579,9.579,0,0,1,4.588-1.179c.1,0,.2,0,.294.008a3.344,3.344,0,0,1,3.1-2.8,2.658,2.658,0,0,1,.379.029,12.251,12.251,0,0,1,3.36-4.181,9.62,9.62,0,0,1,12.131,0,12.13,12.13,0,0,1,3.114,3.708,2.611,2.611,0,0,1,2.119-1.165,2.452,2.452,0,0,1,1.447.484,17.832,17.832,0,0,1,.5-3.027c.016-.063.031-.126.049-.186,1.687-6.314,6.729-10.893,12.686-10.888a11.536,11.536,0,0,1,4.6.963,14.8,14.8,0,0,1,8.085,10.011,3.774,3.774,0,0,1,1.992-.574,4.167,4.167,0,0,1,3.586,2.27,10.15,10.15,0,0,1,7.69-3.7c4.845.005,8.948,3.7,10.368,8.811a10.581,10.581,0,0,1,2.151-.226c4.761,0,8.884,3.175,10.91,7.811" transform="translate(-597.13 -538.359)" fill="#ecfbff"/>
      <path id="Path_6" data-name="Path 6" d="M10.784,840.333H234.563a12.724,12.724,0,0,0-6.378-2.9,8.757,8.757,0,0,0-2.436-.345,8.625,8.625,0,0,0-4.382,1.194,12.805,12.805,0,0,0-2.832,1.644,9.881,9.881,0,0,0-10.428-3.8,9.883,9.883,0,0,0-16.878-4.1,3.1,3.1,0,0,0-4.515-.979,12.06,12.06,0,0,0-6.8-8.146,12.054,12.054,0,0,0-9.783,0,12.061,12.061,0,0,0-6.743,7.951,3.1,3.1,0,0,0-5.1.667,9.873,9.873,0,0,0-14.715,1.286,15.5,15.5,0,0,0-6.54-1.437c-.142,0-.282.005-.42.01a4.576,4.576,0,0,0-4.424-3.412,4.409,4.409,0,0,0-.54.035,15.653,15.653,0,0,0-4.789-5.1,15.547,15.547,0,0,0-17.293,0,15.649,15.649,0,0,0-4.439,4.522,3.915,3.915,0,0,0-5.084-.83,18.876,18.876,0,0,0-.71-3.692c-.023-.076-.045-.153-.07-.227a18.93,18.93,0,0,0-36.17.105,6.106,6.106,0,0,0-7.952,2.068,15.547,15.547,0,0,0-25.74,6.233,17.43,17.43,0,0,0-18.619,9.251" transform="translate(-11 -521.584)" fill="#ecfbff"/>
    </g>
    <g id="Group_24" data-name="Group 24" transform="translate(22.818 517)">
      <g id="Group_40" data-name="Group 40" clip-path="url(#clip-path)">
        <path id="Path_7" data-name="Path 7" d="M106.776,413.744H94.632l-.007-27.236,12.145-.036Z" transform="translate(176.457 -198.251)" fill="#0e8934"/>
        <g id="Group_39" data-name="Group 39">
          <g id="Group_38" data-name="Group 38" clip-path="url(#clip-path)">
            <path id="Path_8" data-name="Path 8" d="M144.175,368.1s-.732-2.634-6.24-6.957a11.781,11.781,0,0,1-4.27-11.608l.006-.032s0,2.927,3.96,4.649,7.577,7.232,6.544,13.947" transform="translate(119.981 -179.287)" fill="#2dd782"/>
            <path id="Path_9" data-name="Path 9" d="M140.621,353.921c.885.625,1.2,3.317,1.4,4.229,1.012,4.647-.389,9.8,1.512,14.236,1.742,4.066,5.229,6.389,9.49,7.363a22.376,22.376,0,0,1-1.957-7.7,24.921,24.921,0,0,0-10.44-18.127" transform="translate(107.813 -181.553)" fill="#0e8934"/>
            <path id="Path_10" data-name="Path 10" d="M153.858,357.481a41.824,41.824,0,0,0,5.392,1.38,14.5,14.5,0,0,1,11.215,11.318l0,.022a19.451,19.451,0,0,1-6.11-1.793,20.13,20.13,0,0,1-10.5-10.921l0-.006" transform="translate(83.916 -183.379)" fill="#2dd782"/>
            <path id="Path_11" data-name="Path 11" d="M103.641,232.635a.24.24,0,0,1-.135-.022c-.065-.032-.164-.081-.227-.114a6.015,6.015,0,0,1-3.016-4.5,4.534,4.534,0,0,1,.656-3.053,10.754,10.754,0,0,0,1.494-2.692c.176-.749.063-1.539.215-2.29l.007-.034a10.592,10.592,0,0,1,4.166,6.6,6.53,6.53,0,0,1-.7,4.016,3.546,3.546,0,0,1-2.462,2.083" transform="translate(173.644 -112.82)" fill="#0e8934"/>
            <path id="Path_12" data-name="Path 12" d="M125.992,214.722a.363.363,0,0,0,.184-.1c.077-.076.2-.193.27-.27a9.056,9.056,0,0,0,2.183-7.851,6.824,6.824,0,0,0-2.381-4.052c-1.144-1.034-2.583-1.8-3.408-3.141-.6-.987-.818-2.168-1.391-3.172l-.025-.044s-3.94,5.118-2.831,11.4a9.83,9.83,0,0,0,2.9,5.408c1.181,1.125,2.782,2.148,4.5,1.813" transform="translate(142.884 -100.592)" fill="#0e8934"/>
            <path id="Path_13" data-name="Path 13" d="M137.083,357.329h-1.732a26.482,26.482,0,0,0-.331-5.359,6.7,6.7,0,0,0-3.638-5.016,51.4,51.4,0,0,0-5.293-2.357c-3.432-1.21-3.024-6.357-6.456-8.877-3.474-2.552-3.7-4.295-3.263-5.32a1.584,1.584,0,0,1,1.911-.891,23.743,23.743,0,0,1,15.843,14.86,30.134,30.134,0,0,1,2.959,12.96" transform="translate(135.626 -168.995)" fill="#0e8934"/>
            <path id="Path_14" data-name="Path 14" d="M11.957,283.2s11.9-9.684,23.6-6.859c4.487,1.084,9.9,5.122,9.932,10.135.035,4.983-4.8,4.066-8.054,2.67-4.092-1.755-7.409-4.865-11.757-6.052a23.146,23.146,0,0,0-6.381-.751c-1.664.022-6.024-.217-7.344.857" transform="translate(278.001 -141.491)" fill="#2dd782"/>
            <path id="Path_15" data-name="Path 15" d="M54.741,224.3c0,11.477-9.045,13.269-15.185,13.644a15.784,15.784,0,0,0-8.388,3.013c-.38.271-.76.548-1.145.826-2.606,1.889-5.266,3.778-7.857,5.755-.336.244-.635.5-.928.76a9.466,9.466,0,0,0-.88.8l-.814.863c-.265.293-.494.624-.744.934l-.363.472c-.12.158-.217.331-.332.494l-.652,1-.575,1.042c-.2.342-.38.695-.543,1.059a44.462,44.462,0,0,0-3.062,8.8,90.234,90.234,0,0,0-2.107,13.981c-.065.852-.125,1.683-.173,2.492-.288,4.87-.266,8.947-.206,11.792.033,1.434.081,2.552.119,3.312H9.69c-.032-.766-.075-1.884-.1-3.29-.043-2.867-.043-6.971.277-11.885a102.04,102.04,0,0,1,1.819-14.039c.179-.863.375-1.732.591-2.606a45.253,45.253,0,0,1,3.187-8.986,11.6,11.6,0,0,1,.565-1.091l.608-1.075.678-1.037c.119-.173.228-.348.347-.515l.386-.494c.266-.32.5-.662.787-.972l.863-.912a12.468,12.468,0,0,1,.939-.841c.321-.277.647-.549.972-.782,2.617-1.976,5.3-3.855,7.911-5.722s5.174-3.725,7.563-5.625a71,71,0,0,0,6.564-5.831,42.959,42.959,0,0,0,5-6.037c3.1-4.648,4.408-9.719,5.994-15.007Z" transform="translate(269.914 -106.998)" fill="#2dd782"/>
            <path id="Path_16" data-name="Path 16" d="M59.208,319.273s-4.388-11.8,4.539-17.7a25.954,25.954,0,0,1,9.835-4.388s5.749,18.005-14.375,22.09" transform="translate(226.665 -152.448)" fill="#0e8934"/>
            <path id="Path_17" data-name="Path 17" d="M92.278,336.611s-.114.4-.282,1.091c-.082.342-.2.76-.3,1.249s-.228,1.031-.364,1.629-.25,1.249-.391,1.933-.293,1.412-.407,2.166c-.131.754-.261,1.537-.4,2.324s-.239,1.6-.353,2.411-.223,1.613-.331,2.4-.163,1.585-.25,2.34c-.011.081-.017.163-.021.244-.071.673-.131,1.325-.2,1.949-.033.277-.054.548-.076.814-.027.4-.049.782-.071,1.146-.065,1.042-.12,1.933-.157,2.611H86.9c.076-.7.179-1.645.3-2.763.065-.619.125-1.281.244-1.982.1-.7.212-1.438.331-2.2s.217-1.553.364-2.346.3-1.607.451-2.416.287-1.618.471-2.405.348-1.569.51-2.324.354-1.471.516-2.156.326-1.335.488-1.933.315-1.135.446-1.618.266-.9.363-1.248c.206-.7.337-1.081.337-1.081Z" transform="translate(194.715 -172.589)" fill="#0e8934"/>
            <path id="Path_18" data-name="Path 18" d="M76.6,369.432s1.736-7.982,8.2-9.818a.825.825,0,0,1,1.023,1c-.513,1.968-2.388,5.852-9.222,8.818" transform="translate(206.159 -184.457)" fill="#0e8934"/>
            <path id="Path_19" data-name="Path 19" d="M44.628,231.693a3.02,3.02,0,0,0-2.932,2c-1.4,3.915-3.35,11.69-4.327,26.023-.239,3.474-.418,7.335-.521,11.618-.12,4.994-.131,10.56,0,16.765v.831h-3.2c-.01-.624-.027-1.281-.043-1.96-.18-9.235-.158-23.074,1.227-31.147,2.1-12.178-1.373-32.249-2.959-37.369a.751.751,0,0,1,.059-.6.781.781,0,0,1,.477-.369l.022-.005a.737.737,0,0,1,.9.532c.912,3.714,4.957,20.783,4.153,27.548a74.985,74.985,0,0,1,2.894-12.845,8.551,8.551,0,0,0,.179-4.924c-7.264-27.961,28.981-31.68,28.981-31.68,1.135,33.064-17.52,35.79-24.9,35.583m-7.161,13.964c-.006.027-.006.055-.011.081,0,0,.005-.027.011-.081" transform="translate(244.233 -100.6)" fill="#0e8934"/>
            <path id="Path_20" data-name="Path 20" d="M115.532,266.023a20.783,20.783,0,0,1,6.238,15.707c.042-1.305-1.5-3.469-2.216-4.443-4.8-6.554-11.34-5.248-18.3-3.721Z" transform="translate(158.223 -136.463)" fill="#0e8934"/>
            <path id="Path_21" data-name="Path 21" d="M101.949,331.261a.729.729,0,0,1,.807-.821c2.546.3,9.694,2.07,12,12.447,0,0-10.865,2.91-12.807-11.627" transform="translate(164.913 -169.505)" fill="#0e8934"/>
            <path id="Path_22" data-name="Path 22" d="M102.925,305.375s7.868,3.228,7.868,10.894c0,0-6.052,1.816-7.868-10.894" transform="translate(168.397 -156.65)" fill="#0e8934"/>
            <path id="Path_23" data-name="Path 23" d="M125.553,287.163s20.672-4.353,23.6,13.517c0,0-7.388,3.518-14.525,0-7.082-3.49-9.079-13.517-9.079-13.517" transform="translate(119.013 -147.068)" fill="#2dd782"/>
            <path id="Path_24" data-name="Path 24" d="M109.957,307.839l.194.1c.132.066.309.169.539.3a20.649,20.649,0,0,1,1.794,1.217c.348.281.74.571,1.121.914s.791.7,1.188,1.094c.413.381.792.818,1.2,1.244s.772.9,1.158,1.358c.358.478.731.948,1.072,1.428s.659.965.965,1.437l.832,1.389c.259.445.471.883.685,1.279s.407.762.549,1.1l.392.861.341.751-1.516.591-.287-.736-.329-.847c-.119-.331-.289-.688-.468-1.08s-.364-.824-.588-1.265l-.724-1.378-.85-1.432c-.3-.479-.636-.95-.955-1.431-.346-.46-.686-.928-1.042-1.371s-.712-.876-1.089-1.263c-.362-.4-.728-.777-1.088-1.12s-.711-.653-1.033-.944a20.006,20.006,0,0,0-1.661-1.268c-.209-.135-.376-.245-.488-.308l-.177-.1Z" transform="translate(153.906 -157.914)" fill="#0e8934"/>
            <path id="Path_25" data-name="Path 25" d="M114.086,263s13.668-22.43,37.325-4.381c0,0-16.472,15.771-37.325,4.381" transform="translate(122.344 -129.064)" fill="#2dd782"/>
            <path id="Path_26" data-name="Path 26" d="M114.948,306.317H110.2c3.686-38.759-6.054-75.591-6.054-75.591l1.037-.728c5.554,22.216,7.118,49.432,7.547,65.047a37.5,37.5,0,0,0,.564,5.511,33.147,33.147,0,0,0,.89,3.8,12.509,12.509,0,0,0,.76,1.96" transform="translate(163.646 -117.984)" fill="#0e8934"/>
            <path id="Path_27" data-name="Path 27" d="M8.723,351.265a13.828,13.828,0,0,1-3.076.633A44.547,44.547,0,0,1,0,352.367l.316-.3c2.8-2.662,6.371-3.124,9.567-.957Z" transform="translate(319.435 -179.407)" fill="#2dd782"/>
            <path id="Path_28" data-name="Path 28" d="M28.889,355.186a6.119,6.119,0,0,0,.5-1.971,26.993,26.993,0,0,0-.027-6.944,9.9,9.9,0,0,1,1.269-5.935,8.262,8.262,0,0,1,1.882-2.282,9.514,9.514,0,0,1,1.194-.87,8.428,8.428,0,0,1,1.309-.551l.027-.009a1.808,1.808,0,0,0-.3.249,2.651,2.651,0,0,0-.582.852,5.471,5.471,0,0,0,.075,4.139c1.337,3.828-.3,8.375-5.344,13.322" transform="translate(280.205 -172.68)" fill="#2dd782"/>
            <path id="Path_29" data-name="Path 29" d="M55.684,379.451a6.759,6.759,0,0,0,.377-2.1,33.732,33.732,0,0,0-.523-7.282,11.635,11.635,0,0,1-.089-3.319,12.1,12.1,0,0,1,.9-3.127,11.907,11.907,0,0,1,1.7-2.762,11.156,11.156,0,0,1,2.495-2.141l.028-.017a3.984,3.984,0,0,0-.867,1.516,6.379,6.379,0,0,0,.387,4.541,9.492,9.492,0,0,1,.687,3.337,13.216,13.216,0,0,1-.39,3.825,13.5,13.5,0,0,1-1.694,3.888,14.886,14.886,0,0,1-3.018,3.644" transform="translate(241.556 -184.004)" fill="#2dd782"/>
            <path id="Path_30" data-name="Path 30" d="M12.715,381.668s2.3-1.454,9.221-.769A13.006,13.006,0,0,0,28.2,380a11.292,11.292,0,0,0,4.636-3.576l.018-.023s-1.828,1.147-6,.166a12.7,12.7,0,0,0-6.907.2,14.915,14.915,0,0,0-3.637,1.741,19.843,19.843,0,0,0-3.594,3.161" transform="translate(290.274 -192.974)" fill="#2dd782"/>
            <path id="Path_31" data-name="Path 31" d="M40.014,411.543s2.2-1.732,9.184-1.726a12.39,12.39,0,0,0,6.147-1.646,11.341,11.341,0,0,0,4.41-4.348l.015-.027s-1.7,1.494-5.984.909a13.026,13.026,0,0,0-13.773,6.838" transform="translate(250.059 -207.137)" fill="#2dd782"/>
            <path id="Path_32" data-name="Path 32" d="M75.241,390.247s2.811-1.8,4.186-.6a1.068,1.068,0,0,1,.029,1.588c-.74.681-2.385,1.546-5.724.884Z" transform="translate(213.611 -199.667)" fill="#0e8934"/>
            <path id="Path_33" data-name="Path 33" d="M81.524,412.693a4.43,4.43,0,0,0,.577-1.967,13.325,13.325,0,0,0,0-2.825,28.593,28.593,0,0,0-.677-4.388,12.442,12.442,0,0,1,.306-6.7,12.592,12.592,0,0,1,3.786-5.481l.023-.02a4.314,4.314,0,0,0-.712,1.678,7.048,7.048,0,0,0,.725,4.651,8.417,8.417,0,0,1,.592,6.331,17.785,17.785,0,0,1-1.68,3.893,48.49,48.49,0,0,1-2.935,4.827" transform="translate(203.318 -200.734)" fill="#2dd782"/>
            <path id="Path_34" data-name="Path 34" d="M18.192,395.549A217.814,217.814,0,0,1,41.884,366.49a138.59,138.59,0,0,1,10.14-9.481c1.257-1.027,2.222-1.836,2.895-2.346l1.033-.759.349.366-1.032.755-2.889,2.346c-2.5,2.072-6,5.266-10.118,9.466a203.725,203.725,0,0,0-23.317,29.4Z" transform="translate(264.156 -181.544)" fill="#0e8934"/>
            <path id="Path_35" data-name="Path 35" d="M66.509,386.828l6.017-13.582.06.22c.579-5.9,3.049-9.061,6.412-11.162,3.662-2.289,3.96-4.649,3.96-4.649l.007.032A11.782,11.782,0,0,1,78.7,369.3a23.812,23.812,0,0,0-5.662,5.808l.009.034s-.164.251-.421.71a3.133,3.133,0,0,0-.166.4c0-.037,0-.069,0-.106a28.63,28.63,0,0,0-3.37,14.293Z" transform="translate(213.725 -183.468)" fill="#0e8934"/>
            <path id="Path_36" data-name="Path 36" d="M143.867,397.94a12.551,12.551,0,0,1,7.648,10.757,18.745,18.745,0,0,0,1.228,2.344,10.3,10.3,0,0,0,.986,1.356,5.2,5.2,0,0,0,1.016.942,2.08,2.08,0,0,0,.444.258.949.949,0,0,0,.348.136l.3.082-.258,1.29-.479-.171a1.838,1.838,0,0,1-.5-.253,3.2,3.2,0,0,1-.572-.41,6.285,6.285,0,0,1-1.111-1.236,11.216,11.216,0,0,1-.933-1.568,20.16,20.16,0,0,1-1-2.4c-.713-.441-2.117-1.3-4.329-2.57-4-2.307-6.139-6.1-7.143-10.609v-.005a36.267,36.267,0,0,0,4.358,2.058" transform="translate(117.26 -203.078)" fill="#0e8934"/>
            <path id="Path_37" data-name="Path 37" d="M230.034,192.347a1.1,1.1,0,0,0,.784-.324,1.105,1.105,0,0,0,0-1.571,1.15,1.15,0,0,0-1.571,0,1.115,1.115,0,0,0,0,1.571,1.117,1.117,0,0,0,.787.324" transform="translate(-13.319 -97.538)" fill="#01baef"/>
            <path id="Path_38" data-name="Path 38" d="M118.212,290.271a1.109,1.109,0,1,0-.172.013,1.023,1.023,0,0,0,.172-.013m-.876-5.448a1.1,1.1,0,1,0-.2.02,1.015,1.015,0,0,0,.2-.02m-1-5.424a1.1,1.1,0,1,0-.222.023,1.015,1.015,0,0,0,.222-.023M115.2,274a1.116,1.116,0,0,0,.837-1.333h0a1.111,1.111,0,1,0-1.081,1.359A1.231,1.231,0,0,0,115.2,274m-1.273-5.368a1.106,1.106,0,1,0-.278.036,1.142,1.142,0,0,0,.278-.036m-1.42-5.329a1.115,1.115,0,1,0-.31.043,1.11,1.11,0,0,0,.31-.043m-1.581-5.282a1.111,1.111,0,1,0-1.4-.714,1.1,1.1,0,0,0,1.056.767,1.138,1.138,0,0,0,.344-.053m-1.753-5.229a1.1,1.1,0,1,0-.377.07,1.086,1.086,0,0,0,.377-.07m-1.935-5.163a1.106,1.106,0,1,0-.416.082,1.09,1.09,0,0,0,.416-.082m-2.127-5.084a1.122,1.122,0,1,0-.457.1,1.116,1.116,0,0,0,.457-.1m-2.335-4.994a1.108,1.108,0,1,0-.5.119,1.114,1.114,0,0,0,.5-.119m-2.553-4.885a1.115,1.115,0,1,0-.545.142,1.11,1.11,0,0,0,.545-.142m-2.785-4.76a1.11,1.11,0,1,0-.592.172,1.106,1.106,0,0,0,.592-.172M94.417,223.3a1.109,1.109,0,1,0-.644.208,1.107,1.107,0,0,0,.644-.208M91.14,218.87a1.112,1.112,0,1,0-.695.245,1.109,1.109,0,0,0,.695-.245m-3.533-4.23a1.11,1.11,0,1,0-.751.291,1.109,1.109,0,0,0,.751-.291m-3.793-4a1.118,1.118,0,1,0-.8.341,1.112,1.112,0,0,0,.8-.341M79.758,206.9a1.109,1.109,0,1,0-.853.4,1.111,1.111,0,0,0,.853-.4m-4.3-3.443a1.111,1.111,0,1,0-1.552.251,1.127,1.127,0,0,0,.649.209,1.1,1.1,0,0,0,.9-.46m-4.542-3.129a1.11,1.11,0,1,0-1.528.367,1.125,1.125,0,0,0,.582.162,1.1,1.1,0,0,0,.946-.529m-4.763-2.782a1.111,1.111,0,1,0-1.495.476,1.081,1.081,0,0,0,.509.126,1.1,1.1,0,0,0,.985-.6M61.2,195.131a1.112,1.112,0,1,0-1.458.589,1.126,1.126,0,0,0,.433.086,1.109,1.109,0,0,0,1.025-.675m-5.126-2.045a1.11,1.11,0,1,0-1.409.7,1.13,1.13,0,0,0,.357.059,1.112,1.112,0,0,0,1.051-.758M50.8,191.433a1.111,1.111,0,1,0-1.352.8,1.129,1.129,0,0,0,.278.037,1.111,1.111,0,0,0,1.075-.833m-5.371-1.267a1.112,1.112,0,1,0-1.293.89,1.044,1.044,0,0,0,.2.02,1.112,1.112,0,0,0,1.091-.91m-5.451-.88a1.112,1.112,0,1,0-1.227.982c.039,0,.083.007.122.007a1.113,1.113,0,0,0,1.105-.989m-17.524.906h0a1.112,1.112,0,1,0-.119.006c.04,0,.079,0,.119-.006m12.02-1.4a1.111,1.111,0,1,0-1.154,1.065v0h.046a1.111,1.111,0,0,0,1.108-1.069m-6.6,1.039a1.129,1.129,0,1,0-.033,0Z" transform="translate(199.824 -96.237)" fill="#01baef"/>
            <path id="Path_39" data-name="Path 39" d="M20.7,407.526a1.111,1.111,0,0,0,.787-1.895,1.149,1.149,0,0,0-1.571,0,1.11,1.11,0,0,0,.784,1.895" transform="translate(297.962 -207.92)" fill="#01baef"/>
            <path id="Path_40" data-name="Path 40" d="M224.9,210.03a1.109,1.109,0,0,0,.784-1.9,1.144,1.144,0,0,0-1.571,0,1.111,1.111,0,0,0,.787,1.9" transform="translate(-5.684 -106.607)" fill="#01baef"/>
            <path id="Path_41" data-name="Path 41" d="M166.724,302.306a1.1,1.1,0,1,0-.182.017,1.186,1.186,0,0,0,.182-.017m-.913-5.451a1.116,1.116,0,1,0-.2.017,1.014,1.014,0,0,0,.2-.017m-1-5.438a1.113,1.113,0,1,0-.212.02,1.152,1.152,0,0,0,.212-.02M163.737,286a1.117,1.117,0,1,0-.231.023,1.364,1.364,0,0,0,.231-.023m-1.174-5.4a1.108,1.108,0,0,0,.83-1.333h0a1.112,1.112,0,1,0-1.086,1.359,1.1,1.1,0,0,0,.252-.026m-1.276-5.378a1.116,1.116,0,1,0-.275.033,1.126,1.126,0,0,0,.275-.033m-1.389-5.349a1.112,1.112,0,1,0-1.366-.774v0a1.111,1.111,0,0,0,1.068.817,1.139,1.139,0,0,0,.3-.04m-1.511-5.315a1.118,1.118,0,1,0-.321.046,1.08,1.08,0,0,0,.321-.046m-1.644-5.276a1.114,1.114,0,1,0-.351.056,1.072,1.072,0,0,0,.351-.056m-1.8-5.226a1.105,1.105,0,1,0-.384.07,1.11,1.11,0,0,0,.384-.07m-1.965-5.163a1.111,1.111,0,1,0-.42.082,1.1,1.1,0,0,0,.42-.082m-2.15-5.087a1.118,1.118,0,1,0-.463.1,1.154,1.154,0,0,0,.463-.1m-2.365-4.994a1.111,1.111,0,1,0-1.5-.479v0a1.115,1.115,0,0,0,.989.6,1.082,1.082,0,0,0,.509-.126m-2.607-4.869a1.112,1.112,0,1,0-.562.152,1.111,1.111,0,0,0,.562-.152m-2.888-4.71a1.112,1.112,0,0,0,.3-1.544h0a1.111,1.111,0,1,0-.916,1.736,1.1,1.1,0,0,0,.621-.192m-3.205-4.5a1.108,1.108,0,1,0-.691.245,1.089,1.089,0,0,0,.691-.245m-3.572-4.21a1.113,1.113,0,0,0,.017-1.575v0a1.108,1.108,0,1,0-.017,1.571m-4-3.814a1.113,1.113,0,1,0-.866.417,1.109,1.109,0,0,0,.866-.417m-4.462-3.255a1.11,1.11,0,1,0-1.515.42,1.14,1.14,0,0,0,.549.142,1.1,1.1,0,0,0,.966-.563m-4.948-2.447a1.113,1.113,0,1,0-1.4.721,1.085,1.085,0,0,0,.338.053,1.113,1.113,0,0,0,1.058-.774" transform="translate(102.919 -107.498)" fill="#01baef"/>
            <path id="Path_42" data-name="Path 42" d="M119.952,409.1a1.111,1.111,0,0,0,.787-1.895,1.149,1.149,0,0,0-1.571,0,1.11,1.11,0,0,0,.784,1.895" transform="translate(150.376 -208.725)" fill="#01baef"/>
            <path id="Path_43" data-name="Path 43" d="M227.718,200.406a1.111,1.111,0,0,0,.784-1.9,1.149,1.149,0,0,0-1.571,0,1.132,1.132,0,0,0-.324.787,1.112,1.112,0,0,0,1.111,1.111" transform="translate(-9.876 -101.67)" fill="#01baef"/>
            <path id="Path_44" data-name="Path 44" d="M143.142,293.692a1.1,1.1,0,1,0-.2.02,1.017,1.017,0,0,0,.2-.02m-1-5.358a1.123,1.123,0,1,0-.222.02,1.265,1.265,0,0,0,.222-.02M141.032,283a1.114,1.114,0,1,0-.245.026,1.27,1.27,0,0,0,.245-.026m-1.23-5.312a1.11,1.11,0,1,0-.268.033,1.1,1.1,0,0,0,.268-.033m-1.356-5.279a1.117,1.117,0,1,0-.3.039,1.179,1.179,0,0,0,.3-.039m-1.5-5.243a1.11,1.11,0,1,0-.327.05,1.122,1.122,0,0,0,.327-.05m-1.644-5.2a1.11,1.11,0,1,0-.357.059,1.111,1.111,0,0,0,.357-.059m-1.8-5.143a1.117,1.117,0,1,0-.391.07,1.16,1.16,0,0,0,.391-.07m-1.971-5.084a1.109,1.109,0,1,0-.427.086,1.082,1.082,0,0,0,.427-.086m-2.153-5a1.112,1.112,0,1,0-.467.1,1.128,1.128,0,0,0,.467-.1m-2.348-4.919a1.111,1.111,0,1,0-1.5-.476v0a1.109,1.109,0,0,0,.989.6,1.133,1.133,0,0,0,.509-.123m-2.564-4.809a1.106,1.106,0,1,0-.552.149,1.114,1.114,0,0,0,.552-.149m-2.788-4.684a1.109,1.109,0,1,0-.6.179,1.077,1.077,0,0,0,.6-.179m-3.026-4.528a1.111,1.111,0,1,0-1.551-.245,1.113,1.113,0,0,0,1.551.245m-3.284-4.35a1.11,1.11,0,1,0-1.565-.146,1.121,1.121,0,0,0,.857.4,1.1,1.1,0,0,0,.708-.258m-3.549-4.131a1.111,1.111,0,1,0-1.571-.043,1.1,1.1,0,0,0,.807.347,1.115,1.115,0,0,0,.764-.3M108,215.435a1.109,1.109,0,1,0-.82.364,1.109,1.109,0,0,0,.82-.364m-4.108-3.579a1.111,1.111,0,1,0-1.558.192v0a1.116,1.116,0,0,0,1.558-.2M99.5,208.618a1.115,1.115,0,1,0-.933.5,1.11,1.11,0,0,0,.933-.5m-4.647-2.848a1.109,1.109,0,1,0-.985.592,1.113,1.113,0,0,0,.985-.592m-4.895-2.408a1.111,1.111,0,1,0-1.449.606,1.124,1.124,0,0,0,.423.082,1.11,1.11,0,0,0,1.026-.688m-5.1-1.925a1.11,1.11,0,1,0-1.379.748,1.055,1.055,0,0,0,.318.046,1.109,1.109,0,0,0,1.062-.794m-5.275-1.392a1.11,1.11,0,1,0-1.293.89,1.079,1.079,0,0,0,.205.02,1.108,1.108,0,0,0,1.088-.91m-5.4-.814a1.11,1.11,0,0,0-1.035-1.181h0A1.11,1.11,0,1,0,73,200.266a.617.617,0,0,0,.074,0,1.11,1.11,0,0,0,1.107-1.038" transform="translate(150.213 -101.594)" fill="#01baef"/>
            <path id="Path_45" data-name="Path 45" d="M71.162,403.38a1.113,1.113,0,0,0,1.111-1.111,1.134,1.134,0,0,0-.324-.787,1.149,1.149,0,0,0-1.571,0,1.12,1.12,0,0,0-.328.787,1.119,1.119,0,0,0,1.111,1.111" transform="translate(222.927 -205.791)" fill="#01baef"/>
            <path id="Path_46" data-name="Path 46" d="M357.411,164.531l13.4,1.648a.251.251,0,0,1,.135.059c1.531,1.3,2.808,1.244,4,1.606a26.9,26.9,0,0,0,2.945.466l3.257-7.788a.7.7,0,0,0-.4-.833c-.64-.361-4.18.012-4.758.325s-1.033-.953-1.516-.67a38.715,38.715,0,0,0-3.24,2.69l-13.167-1.82Z" transform="translate(-225.924 -81.719)" fill="#f69772"/>
            <rect id="Rectangle_107" data-name="Rectangle 107" width="3.009" height="6.315" transform="translate(143.091 85.306) rotate(-171.123)" fill="#fff"/>
            <path id="Path_47" data-name="Path 47" d="M399.729,71.531l6.358,38.6,32.1,4.585-1.146,7.642-35.908-2.8a4.766,4.766,0,0,1-4.2-3.386L385.071,76.506Z" transform="translate(-296.407 -36.694)" fill="#e8f1f2"/>
            <path id="Path_48" data-name="Path 48" d="M636.948,334.754l-17.617,6.136a4.4,4.4,0,0,0-1.871,1.263c-1.217,1.4-1.087,2.633-1.488,4.189a13.67,13.67,0,0,0-.408,3.357l-2.285,2.068-1.08-3.012,2.582-11.826,19.95-8.35Z" transform="translate(-605.787 -168.553)" fill="#f69772"/>
            <path id="Path_49" data-name="Path 49" d="M663.768,345.278a15.864,15.864,0,0,0-8.992.517l8.2,22.867a1.116,1.116,0,0,0,2.141-.139,5.273,5.273,0,0,0-.873-3.822,2.46,2.46,0,0,1-.323-1.55l.63-5.1-1.668-.363Z" transform="translate(-654.776 -176.901)" fill="#192853"/>
            <path id="Path_50" data-name="Path 50" d="M571.65,281.71l11.212-6.369-1.719,18.152-53.757,19.174-6.761,2.491-4.132-9.14s44.266-21.27,55.158-24.308" transform="translate(-505.088 -141.243)" fill="#e8f1f2"/>
            <path id="Path_51" data-name="Path 51" d="M518.97,380.308l-.177,18.654a4.4,4.4,0,0,0,.557,2.187c.906,1.618,2.111,1.913,3.44,2.816a13.669,13.669,0,0,0,3.021,1.518l1.175,2.85h-3.2l-10.259-6.426-1.12-21.6Z" transform="translate(-447.225 -195.089)" fill="#f69772"/>
            <path id="Path_52" data-name="Path 52" d="M495.669,424.659a15.868,15.868,0,0,0-2.552,8.638l24.294.007a1.116,1.116,0,0,0,.593-2.062,5.276,5.276,0,0,0-3.893-.469,2.461,2.461,0,0,1-1.568-.22l-4.591-2.317-.9,1.447Z" transform="translate(-429.366 -217.84)" fill="#192853"/>
            <path id="Path_53" data-name="Path 53" d="M445.638,48.083l5.053,10.867.235-.3.347-.439.118-.15,4.716-6.045,1.116-1.424.9-4.331-1.409-4.782-7.51,2.069Z" transform="translate(-345.837 -21.277)" fill="#f69772"/>
            <path id="Path_54" data-name="Path 54" d="M460.7,183.55l50.289-89.477c.527-1.307,1.009-2.728,1.479-4.253.848-2.74,1.639-5.754,2.43-8.8.5-1.937,1.02-3.875,1.536-5.766.424-1.547.86-3.049,1.341-4.482a28.307,28.307,0,0,1,4.883-9.022,26.753,26.753,0,0,1,6.706-5.9,36.4,36.4,0,0,1,6.844-3.508c2.877-.986,8.46-1.307,10.558.653,1.422,1.353,1.422,4.987,1.994,7.543a6.2,6.2,0,0,0,.55,1.616q.228.435.419.884a15.242,15.242,0,0,1,1.774,9.545c-1.448,9.985-30.794,149.336-30.794,149.336L520.2,229.1h-10.03s-51.183-34.373-49.464-45.55" transform="translate(-446.701 -26.446)" fill="#fafdfd"/>
            <g id="Group_25" data-name="Group 25" transform="translate(68.603 27.13)" style="mix-blend-mode: multiply;isolation: isolate">
              <g id="Group_24-2" data-name="Group 24">
                <g id="Group_23" data-name="Group 23" clip-path="url(#clip-path-3)">
                  <path id="Path_55" data-name="Path 55" d="M479.852,74.615s.6.041.189-.214c.517-1.193.187-3.561.779-4.807.457-.942.926-1.9,1.414-2.838A27.959,27.959,0,0,1,493.5,56.241l1.8-.536,10.646,8.305s.282,5.972-7.054,8.346L481.573,76.32c-.862,1.116-3.527,5.295-3.527,5.295Z" transform="translate(-478.046 -55.705)" fill="#e8f1f2"/>
                </g>
              </g>
            </g>
            <path id="Path_56" data-name="Path 56" d="M615.834,125.58l-6.172,4.835-.393,4.782a2.851,2.851,0,0,1-.955,1.689,16.069,16.069,0,0,0-1.04,1.5s-.148.89-1.608,1l-1.286.648s-.468.486-1.024-.293a1.844,1.844,0,0,1,.379-1.087,1.071,1.071,0,0,1-.838-1.452s-1.468-.619-.988-1.888a1.06,1.06,0,0,1-.5-1.513c-1.973-.9-.08-3.349,1-3.974l4.4-2.546,6.058-5.249Z" transform="translate(-579 -62.598)" fill="#f69772"/>
            <rect id="Rectangle_109" data-name="Rectangle 109" width="6.315" height="3.01" transform="matrix(-0.653, -0.757, 0.757, -0.653, 32.201, 67.989)" fill="#fff"/>
            <path id="Path_57" data-name="Path 57" d="M539.4,68.627a7.294,7.294,0,0,0,4.978-9.85c-1.595-4.18-6.253-5.847-10.4-4.172L503.234,67.021a19.665,19.665,0,0,0-4.841,3.027l-20.88,18.83,5.086,5.9,23.165-18.21Z" transform="translate(-448.138 -27.681)" fill="#fafdfd"/>
            <g id="Group_28" data-name="Group 28" transform="translate(101.854 22.994)" opacity="0.5" style="mix-blend-mode: multiply;isolation: isolate">
              <g id="Group_27" data-name="Group 27">
                <g id="Group_26" data-name="Group 26" clip-path="url(#clip-path-4)">
                  <path id="Path_58" data-name="Path 58" d="M449.768,53.671l3.7,7.331,4.716-6.045s.13-6.752-1.815-7.743c0,0,.615,3.628-2.885,4.015,0,0-3.864-.451-3.712,2.442" transform="translate(-449.763 -47.214)" fill="#f69772"/>
                </g>
              </g>
            </g>
            <path id="Path_59" data-name="Path 59" d="M424.977,13.581a4.857,4.857,0,0,0,4.515,5.057,4.667,4.667,0,1,0,.436-9.323,4.563,4.563,0,0,0-4.952,4.265" transform="translate(-312.111 -4.776)" fill="#062e40"/>
            <path id="Path_60" data-name="Path 60" d="M430.617,30.921c-.09,1.911.456,3.489,1.217,3.524s1.451-1.484,1.541-3.4-.455-3.489-1.217-3.525-1.451,1.484-1.541,3.4" transform="translate(-313.783 -14.12)" fill="#fff"/>
            <path id="Path_61" data-name="Path 61" d="M431.673,17.087l-.644,13.78,5.342.1,2.373.133-.178,6.394h0a3.513,3.513,0,0,0,.492.354l.053.034a3.839,3.839,0,0,0,5.559-2.029c.34-.959.656-1.919.927-2.767.5-1.581.836-2.757.836-2.757l1.545.073a.536.536,0,0,0,.539-.686l-1.322-4.477a16.957,16.957,0,0,0-.444-7.45Z" transform="translate(-329.144 -8.765)" fill="#f69772"/>
            <path id="Path_62" data-name="Path 62" d="M458.754,17.283l1.755,4.965-1.606,5.26-1.775-.083-3.758-.176s.182,5.062-3.4,5.592l.11-2.356a2.89,2.89,0,0,0-.493-1.755c-1.677-2.485-6.457-10.2-2.526-11.993Z" transform="translate(-348.186 -8.585)" fill="#062e40"/>
            <path id="Path_63" data-name="Path 63" d="M434.173,8.15l.078-1.669a2.648,2.648,0,0,1,2.77-2.522,5.432,5.432,0,0,0,2.872-.668L443.1,1.527A12.307,12.307,0,0,1,449.608.014l.376.018a3.381,3.381,0,0,1,3.208,3.585l-.253,5.411Z" transform="translate(-335.331 0)" fill="#062e40"/>
            <path id="Path_64" data-name="Path 64" d="M436.078,30.665c-.09,1.911.455,3.489,1.217,3.525s1.451-1.485,1.54-3.4-.455-3.489-1.217-3.524-1.451,1.484-1.54,3.4" transform="translate(-321.904 -13.989)" fill="#fff"/>
            <rect id="Rectangle_111" data-name="Rectangle 111" width="11.191" height="1.074" transform="matrix(-0.999, -0.047, 0.047, -0.999, 118.645, 17.198)" fill="#fff"/>
            <path id="Path_65" data-name="Path 65" d="M436.714,51.484a3.411,3.411,0,0,1,.5-4.223c.014-.014,2.859-2.736.1-5.423a9.459,9.459,0,0,1,1.221-3.165l1.879.088s-.2,5.494,5.516,5.4a.546.546,0,0,1,.2,0h.019l0,.005a.549.549,0,0,1,.4.381.556.556,0,0,1-.385.686c-.016,2.316-.277,5.657-2.24,7.254-2.086,1.7-5.727,1.381-7.21-1l-.006-.01" transform="translate(-329.701 -19.838)" fill="#01161e"/>
            <path id="Path_66" data-name="Path 66" d="M456.6,34.46l.084-1.806a2.179,2.179,0,0,0-.529-1.528,1.666,1.666,0,0,0-1.962-.54s-2.988.843-.95,4.253l.02.032,1.592,2.419a.859.859,0,0,0,.676.385l.061,0a.858.858,0,0,0,.9-.816Z" transform="translate(-347.757 -15.625)" fill="#f69772"/>
            <path id="Path_67" data-name="Path 67" d="M461.3,50.915l-2.692.725L464.3,66.988l2.139-4.2Z" transform="translate(-360.474 -26.118)" fill="#e8f1f2"/>
            <path id="Path_68" data-name="Path 68" d="M268.063,204.615l-21.476,6.855-13,4.149L239.7,204.9l2.2-.287,25.385-3.325Z" transform="translate(-52.507 -103.257)" fill="#2c518d"/>
            <path id="Path_69" data-name="Path 69" d="M231.992,202.02l-9.877-5.428,6.217-9.4Z" transform="translate(-10.85 -96.025)" fill="#2c518d"/>
            <path id="Path_70" data-name="Path 70" d="M224.913,200.375a.929.929,0,0,1-1.8.452l-3.675-14.664a.929.929,0,0,1,1.8-.452Z" transform="translate(-2.481 -94.904)" fill="#617daa"/>
            <g id="Group_31" data-name="Group 31" transform="translate(181.078 101.359)" opacity="0.5" style="mix-blend-mode: multiply;isolation: isolate">
              <g id="Group_30" data-name="Group 30">
                <g id="Group_29" data-name="Group 29" clip-path="url(#clip-path-5)">
                  <path id="Path_71" data-name="Path 71" d="M290.683,214.972l-13,4.15,6.113-10.716,2.2-.288c-.565,2.008-.3,4.941,4.686,6.854" transform="translate(-277.681 -208.118)" fill="#2c518d"/>
                </g>
              </g>
            </g>
            <rect id="Rectangle_113" data-name="Rectangle 113" width="31.513" height="37.637" transform="translate(178.716 118.218) rotate(-150.297)" fill="#2c518d"/>
            <g id="Group_34" data-name="Group 34" transform="translate(151.27 100.823)" opacity="0.5" style="mix-blend-mode: multiply;isolation: isolate">
              <g id="Group_33" data-name="Group 33">
                <g id="Group_32" data-name="Group 32" clip-path="url(#clip-path-6)">
                  <rect id="Rectangle_114" data-name="Rectangle 114" width="31.513" height="2.197" transform="translate(27.372 17.524) rotate(-150.297)" fill="#2c518d"/>
                </g>
              </g>
            </g>
            <rect id="Rectangle_116" data-name="Rectangle 116" width="36.206" height="3.621" transform="matrix(-0.869, -0.496, 0.496, -0.869, 178.33, 123.607)" fill="#617daa"/>
            <path id="Path_72" data-name="Path 72" d="M336.982,227.405l-29.246-16.684.283-.5a1.037,1.037,0,0,1,1.415-.387l27.445,15.657a1.036,1.036,0,0,1,.387,1.414Z" transform="translate(-157.96 -107.571)" fill="#2c518d"/>
            <g id="Group_37" data-name="Group 37" transform="translate(167.502 68.98)" opacity="0.5" style="mix-blend-mode: multiply;isolation: isolate">
              <g id="Group_36" data-name="Group 36">
                <g id="Group_35" data-name="Group 35" clip-path="url(#clip-path-7)">
                  <path id="Path_73" data-name="Path 73" d="M300.24,157.25l-12.592-7.183-4.557-2.6-10.223-5.832-3.023,5.3,10.223,5.832-.107.188a2.623,2.623,0,0,0,4.557,2.6l.107-.188,12.592,7.184Z" transform="translate(-269.845 -141.636)" fill="#2c518d"/>
                </g>
              </g>
            </g>
            <path id="Path_74" data-name="Path 74" d="M347.092,148.756a4.838,4.838,0,0,0-7.03,2.807l-4.471,14.845a3.08,3.08,0,0,0,5.624,2.414l7.683-13.467a4.845,4.845,0,0,0-1.805-6.6m1.595-2.8a8.056,8.056,0,0,1,3.006,10.99l-7.683,13.467a6.3,6.3,0,0,1-11.5-4.937l4.471-14.845a8.057,8.057,0,0,1,11.707-4.674" transform="translate(-185.244 -74.331)" fill="#2c518d"/>
            <path id="Path_75" data-name="Path 75" d="M270.307,143.939l29.246,16.684-.283.5a1.037,1.037,0,0,1-1.414.387L270.41,145.851a1.037,1.037,0,0,1-.387-1.414Z" transform="translate(-101.677 -73.837)" fill="#2c518d"/>
            <path id="Path_76" data-name="Path 76" d="M292.488,156.766,278.321,142.4a5.155,5.155,0,0,0-7.313-.028,12.256,12.256,0,0,0-.845.939Z" transform="translate(-94.747 -72.259)" fill="#2c518d"/>
            <path id="Path_77" data-name="Path 77" d="M297.507,157.45a1.363,1.363,0,0,1-1.859.508l-29.08-16.59A1.363,1.363,0,0,1,267.918,139L297,155.59a1.363,1.363,0,0,1,.508,1.86" transform="translate(-97.859 -71.212)" fill="#617daa"/>
            <path id="Path_78" data-name="Path 78" d="M285.561,146.3a2.235,2.235,0,0,1-3.883-2.215l9.347-16.384,3.882,2.214Z" transform="translate(-102.631 -65.506)" fill="#2c518d"/>
            <path id="Path_79" data-name="Path 79" d="M304.164,162.646a1.162,1.162,0,1,1-.434-1.585,1.162,1.162,0,0,1,.434,1.585" transform="translate(-122.077 -82.542)" fill="#fff"/>
            <path id="Path_80" data-name="Path 80" d="M351.558,159.2s1.53-2.641,6.491-2.388a7.757,7.757,0,0,0,3.646-.654s.841-.327,1.169.2a.382.382,0,0,1,.039.319,2.764,2.764,0,0,1-1.838,1.665,20.32,20.32,0,0,1-2.5.713s-3.656,3.27-7.012.145" transform="translate(-204.822 -80.052)" fill="#f69772"/>
            <path id="Path_81" data-name="Path 81" d="M356.254,167.764c.847.059,1.511-.619,1.378-1.217a1.155,1.155,0,0,0-.379-.626,1.27,1.27,0,0,0,1.606-.55,1.506,1.506,0,0,0-.078-1.436,1.034,1.034,0,0,0,.786-.553,1.163,1.163,0,0,0-.76-1.671,12.286,12.286,0,0,0-1.351-.276,3.025,3.025,0,0,0-1.773-.085,1.218,1.218,0,0,0-.34,1.658,1.125,1.125,0,0,0-1.429,1.193,1.2,1.2,0,0,0,.368.645c-.945-.169-1.386.086-1.633.511a1.464,1.464,0,0,0,.039,1.452,1.033,1.033,0,0,0-.806.536,1.151,1.151,0,0,0,.725,1.708,9.062,9.062,0,0,0,1.759.363l.008-.008a2.679,2.679,0,0,0,1.585.009,1.218,1.218,0,0,0,.3-1.653" transform="translate(-201.669 -82.714)" fill="#f69772"/>
          </g>
        </g>
      </g>
    </g>
  </g>
</svg>
