<svg xmlns="http://www.w3.org/2000/svg" xmlns:xlink="http://www.w3.org/1999/xlink" width="1920.216" height="1504" viewBox="0 0 1920.216 1504">
  <defs>
    <linearGradient id="linear-gradient" x1="0.5" y1="0.3" x2="0.5" y2="1" gradientUnits="objectBoundingBox">
      <stop offset="0" stop-color="#ecfbff"/>
      <stop offset="1" stop-color="#fff"/>
    </linearGradient>
  </defs>
  <g id="Group_1421" data-name="Group 1421" transform="translate(0.216 -134)">
    <path id="Path_1" data-name="Path 1" d="M1107.318,846.393A136.485,136.485,0,0,0,909.109,736.72c-4.486-96.9-84.47-174.107-182.472-174.107A181.452,181.452,0,0,0,647.11,580.9c.114-1.52.228-3,.228-4.524a58.617,58.617,0,0,0-58.619-58.581,57.9,57.9,0,0,0-23.417,4.9,200.641,200.641,0,0,0,10.3-63.333c0-110.7-89.753-200.451-200.453-200.451a200.077,200.077,0,0,0-42.424,4.523c-5.018,1.1-9.96,2.357-14.864,3.8A94.689,94.689,0,0,0,158.923,211.4a97.591,97.591,0,0,0-10.72,12.05,95.8,95.8,0,0,0,1.292-12.05c.038-1.254.076-2.546.076-3.839a90.033,90.033,0,0,0-.722-11.6,95.937,95.937,0,0,0-2.015-11.062c-.038-.114-.038-.191-.076-.3a91.013,91.013,0,0,0-2.737-9.01,94.876,94.876,0,0,0-66.564-59.949,69.448,69.448,0,0,0,.684-79.071A69.976,69.976,0,0,0,41.723,9.384a64.309,64.309,0,0,0-7.3-1.862A68.351,68.351,0,0,0,20.663,6.154,70.593,70.593,0,0,0,3.29,8.321,45.25,45.25,0,0,0,0,0V945.953H1187.3a84.471,84.471,0,0,0-79.983-99.56" transform="translate(0 134)" fill="#b9ecfc"/>
    <path id="Path_2" data-name="Path 2" d="M2012.563,407.38a38.269,38.269,0,0,0,1.443,10.4c-19.874,3.47-34.939,20.115-34.939,40.134a39.206,39.206,0,0,0,1.912,12.116,40.173,40.173,0,0,0-32.524-1.685,38.886,38.886,0,0,0-10.271,5.87,87.73,87.73,0,0,0-64.678-27.959c-47.65,0-86.276,36.979-86.276,82.6a79.14,79.14,0,0,0,6.476,31.425v.01c.608,1.421,1.263,2.823,1.954,4.206a82.082,82.082,0,0,0,10.672,16.156,22.1,22.1,0,0,0-11.368,13.4,36.747,36.747,0,0,0-15.693-.4,34.343,34.343,0,0,0-3.676.91,34.979,34.979,0,0,0-18.347,13.116,32.339,32.339,0,0,0,.338,38.132,47.1,47.1,0,0,0-33.537,28.924v.006a42.668,42.668,0,0,0-1.382,4.354c-.011.044-.026.09-.035.14a44.121,44.121,0,0,0-1.377,10.932c0,.623.015,1.243.042,1.855a43.778,43.778,0,0,0,.639,5.816,46.42,46.42,0,0,0-5.4-5.816,47.744,47.744,0,0,0-10.947-7.458,49.652,49.652,0,0,0-43.782,0,47.678,47.678,0,0,0-10.936,7.458,44.934,44.934,0,0,0-14.431,26.94q-3.685-1.052-7.483-1.835a105.071,105.071,0,0,0-21.385-2.182c-55.779,0-101,43.293-101,96.691a92.725,92.725,0,0,0,5.192,30.553,30.548,30.548,0,0,0-11.807-2.364c-16.311,0-29.534,12.659-29.534,28.275,0,.733.058,1.451.115,2.169a94.911,94.911,0,0,0-40.073-8.821c-49.4,0-89.707,37.248-91.967,84.008a70.922,70.922,0,0,0-31.377-7.249c-35.982,0-65.488,26.459-68.5,60.161-22.771.761-41,18.668-41,40.659a38.8,38.8,0,0,0,.7,7.372h855.365V367.543c-22.761.248-41.127,17.987-41.127,39.837" transform="translate(-133.701 33.94)" fill="#ecfbff"/>
    <path id="Path_3" data-name="Path 3" d="M1911.087,804.885A62.769,62.769,0,0,0,1876.4,844.7a13.33,13.33,0,0,0-.673,1.467,16.171,16.171,0,0,0-26.417,3.664,51.521,51.521,0,0,0-76.787,6.714,80.957,80.957,0,0,0-34.128-7.505c-.733.029-1.466.029-2.2.058a23.882,23.882,0,0,0-23.074-17.8,21.846,21.846,0,0,0-2.815.176,81.555,81.555,0,0,0-25.009-26.593,81.172,81.172,0,0,0-113.377,23.573,20.434,20.434,0,0,0-15.774-7.389,20.138,20.138,0,0,0-10.76,3.079,96.967,96.967,0,0,0-3.7-19.263c-.146-.41-.263-.821-.38-1.2a98.777,98.777,0,0,0-188.728.557,31.542,31.542,0,0,0-14.807-3.665,31.876,31.876,0,0,0-26.68,14.455,81.046,81.046,0,0,0-125.252,13.545,31.89,31.89,0,0,0-53.655-10.7,10.013,10.013,0,0,0-14.571-3.136,38.781,38.781,0,0,0-75.2-.646,10.007,10.007,0,0,0-16.447,2.17,31.792,31.792,0,0,0-47.439,4.134,50.172,50.172,0,0,0-21.081-4.633c-.468.03-.909.03-1.378.03A14.752,14.752,0,0,0,941.823,804.8a11.812,11.812,0,0,0-1.759.117,50.152,50.152,0,0,0-85.524-1.877,12.619,12.619,0,0,0-16.39-2.667,58.924,58.924,0,0,0-2.287-11.9c-.088-.235-.146-.5-.234-.733A61.046,61.046,0,0,0,719,788.085a18.735,18.735,0,0,0-3.309-1.384,61.762,61.762,0,0,0-73.005-12.472A82.676,82.676,0,0,0,524.03,703.657c.052-.675.1-1.349.1-2.036a26.526,26.526,0,0,0-37.149-24.32A90.778,90.778,0,0,0,381.675,559.913q-3.409.736-6.725,1.723a42.87,42.87,0,0,0-76.828-19.828,43.086,43.086,0,0,0,.574-5.46c.023-.574.037-1.157.037-1.74a42.44,42.44,0,0,0-.322-5.26,41.8,41.8,0,0,0-.915-5c-.009-.046-.023-.089-.033-.131a41.15,41.15,0,0,0-1.241-4.087v-.005a42.944,42.944,0,0,0-30.136-27.15,31.47,31.47,0,0,0-16.183-48.1,29.688,29.688,0,0,0-3.3-.854,31.655,31.655,0,0,0-14.1.371,20.527,20.527,0,0,0-10.215-12.574,77.5,77.5,0,0,0,9.59-15.166c.62-1.3,1.209-2.613,1.755-3.948v-.009A77.523,77.523,0,0,0,103.8,331.911a34.66,34.66,0,0,0-38.456-3.929,38.333,38.333,0,0,0-29.679-49.044,37.382,37.382,0,0,0,1.3-9.758A37.392,37.392,0,0,0,0,231.788V868.977H0v96.9H1920V801.689a61.905,61.905,0,0,0-8.913,3.2" transform="translate(0 114.212)" fill="#d8f4fd"/>
    <path id="Path_5" data-name="Path 5" d="M1618.441,961.657H815.052a42.989,42.989,0,0,1,22.9-12.16,27.242,27.242,0,0,1,8.745-1.448,27.654,27.654,0,0,1,15.732,5.009,44.915,44.915,0,0,1,10.165,6.9c6.461-10.419,16.948-17.2,28.795-17.191a30.449,30.449,0,0,1,8.645,1.259c4.023-17.764,17.876-30.862,34.331-30.848,10.417.015,19.774,5.269,26.263,13.629,1.914-3.932,5.531-6.583,9.692-6.583a10.05,10.05,0,0,1,6.519,2.477c3.184-15.309,12.332-27.888,24.4-34.178a37.612,37.612,0,0,1,35.123,0c11.852,6.184,20.874,18.422,24.208,33.36a10.5,10.5,0,0,1,8.339-4.4c4.364,0,8.135,2.932,9.967,7.2,6.358-7.038,14.936-11.355,24.389-11.342,11.655.015,21.974,6.591,28.44,16.736a49.02,49.02,0,0,1,23.479-6.031c.509.014,1.011.021,1.507.042,1.855-8.234,8.25-14.315,15.882-14.315a13.629,13.629,0,0,1,1.94.147,62.694,62.694,0,0,1,17.194-21.4,49.229,49.229,0,0,1,62.083,0,62.07,62.07,0,0,1,15.936,18.975,13.364,13.364,0,0,1,10.847-5.961,12.551,12.551,0,0,1,7.406,2.477,91.268,91.268,0,0,1,2.55-15.49c.084-.323.161-.644.252-.952,8.632-32.311,34.439-55.748,64.921-55.72a59.034,59.034,0,0,1,23.556,4.926c19.761,8.563,35.176,27.544,41.378,51.235a19.314,19.314,0,0,1,10.194-2.939c7.686,0,14.439,4.625,18.354,11.615,10.094-11.706,24-18.947,39.354-18.94,24.8.028,45.79,18.94,53.058,45.092a54.154,54.154,0,0,1,11.009-1.154c24.363,0,45.465,16.246,55.835,39.972" transform="translate(301.08 118.366)" fill="#ecfbff"/>
    <path id="Path_6" data-name="Path 6" d="M10.784,967.716H1156a65.116,65.116,0,0,0-32.641-14.831,44.822,44.822,0,0,0-12.467-1.767,44.137,44.137,0,0,0-22.425,6.11,65.532,65.532,0,0,0-14.491,8.414,50.569,50.569,0,0,0-53.367-19.43,50.577,50.577,0,0,0-86.376-21,15.865,15.865,0,0,0-23.108-5.008,61.719,61.719,0,0,0-34.79-41.686,61.685,61.685,0,0,0-50.066,0A61.724,61.724,0,0,0,791.76,919.2a15.869,15.869,0,0,0-26.095,3.413,50.528,50.528,0,0,0-75.307,6.58,79.332,79.332,0,0,0-33.469-7.356c-.724.017-1.442.025-2.15.051a23.42,23.42,0,0,0-22.64-17.459,22.6,22.6,0,0,0-2.764.18,80.106,80.106,0,0,0-24.508-26.1,79.566,79.566,0,0,0-88.5,0,80.079,80.079,0,0,0-22.715,23.142,20.034,20.034,0,0,0-26.019-4.249,96.6,96.6,0,0,0-3.635-18.893c-.119-.392-.231-.785-.359-1.16a96.879,96.879,0,0,0-185.106.538,31.249,31.249,0,0,0-40.7,10.581,79.562,79.562,0,0,0-131.73,31.9,89.2,89.2,0,0,0-95.284,47.343" transform="translate(-11 111.76)" fill="#ecfbff"/>
    <rect id="Rectangle_108" data-name="Rectangle 108" width="1920" height="562" transform="translate(0 1076)" fill="url(#linear-gradient)"/>
  </g>
</svg>
