<svg id="Group_788" data-name="Group 788" xmlns="http://www.w3.org/2000/svg" xmlns:xlink="http://www.w3.org/1999/xlink" width="673" height="673" viewBox="0 0 673 673">
  <defs>
    <clipPath id="clip-path">
      <rect id="Rectangle_1045" data-name="Rectangle 1045" width="673" height="673" transform="translate(0 0)" fill="none"/>
    </clipPath>
    <clipPath id="clip-path-2">
      <rect id="Rectangle_1035" data-name="Rectangle 1035" width="505.97" height="502.178" fill="none"/>
    </clipPath>
    <clipPath id="clip-path-3">
      <path id="Path_950" data-name="Path 950" d="M899.875,862.289c-10.39,10.805-20.22,17.773-27.987,23.279-91.3,64.715-199.331,45.851-222.291,41.244-33.9-6.8-99.44-19.952-146.822-75-71.684-83.278-60.522-214.481-4.919-301.09,10.17-15.842,63.9-103.77,173.09-117.871,66.083-8.534,143.116,8.678,198.9,54.848,117.1,96.916,108.761,292.7,30.028,374.586" transform="translate(-452.554 -430.747)" fill="none"/>
    </clipPath>
    <linearGradient id="linear-gradient" x1="0.056" y1="0.946" x2="0.056" y2="0.946" gradientUnits="objectBoundingBox">
      <stop offset="0" stop-color="#b37cff"/>
      <stop offset="1" stop-color="#f895e7"/>
    </linearGradient>
    <clipPath id="clip-path-4">
      <rect id="Rectangle_1037" data-name="Rectangle 1037" width="252.7" height="279.44" fill="none"/>
    </clipPath>
    <clipPath id="clip-path-5">
      <path id="Path_951" data-name="Path 951" d="M1867.18,1824.19s99.7-251.856,247.8-279.369a4.149,4.149,0,0,1,4.894,4.283c-1.5,31.067-20.469,195.482-252.7,275.086" transform="translate(-1867.18 -1544.75)" fill="none"/>
    </clipPath>
    <linearGradient id="linear-gradient-2" x1="-1.052" y1="1.421" x2="-1.051" y2="1.421" xlink:href="#linear-gradient"/>
    <clipPath id="clip-path-6">
      <rect id="Rectangle_1038" data-name="Rectangle 1038" width="217.426" height="229.44" fill="none"/>
    </clipPath>
    <clipPath id="clip-path-7">
      <rect id="Rectangle_1041" data-name="Rectangle 1041" width="209.566" height="338.414" fill="none"/>
    </clipPath>
    <clipPath id="clip-path-8">
      <path id="Path_953" data-name="Path 953" d="M1734,761.8s48.466-222.4,194.775-337.69a3.337,3.337,0,0,1,5.313,1.805c9.2,37.241,57.121,274.775-200.088,335.885" transform="translate(-1733.999 -423.386)" fill="none"/>
    </clipPath>
    <linearGradient id="linear-gradient-3" x1="-0.604" y1="1.726" x2="-0.603" y2="1.726" gradientUnits="objectBoundingBox">
      <stop offset="0" stop-color="#a737d5"/>
      <stop offset="1" stop-color="#ef497a"/>
    </linearGradient>
    <clipPath id="clip-path-9">
      <rect id="Rectangle_1040" data-name="Rectangle 1040" width="171.588" height="264.302" fill="none"/>
    </clipPath>
    <clipPath id="clip-path-10">
      <rect id="Rectangle_1044" data-name="Rectangle 1044" width="156.926" height="312.954" fill="none"/>
    </clipPath>
    <clipPath id="clip-path-11">
      <path id="Path_955" data-name="Path 955" d="M606.7,810.89S587.8,613.6,473.234,498.8a2.906,2.906,0,0,0-4.781,1.011c-11.808,31.245-77.8,231.649,138.25,311.083" transform="translate(-449.776 -497.936)" fill="none"/>
    </clipPath>
    <linearGradient id="linear-gradient-4" x1="0.02" y1="1.722" x2="0.021" y2="1.722" xlink:href="#linear-gradient-3"/>
    <clipPath id="clip-path-12">
      <rect id="Rectangle_1043" data-name="Rectangle 1043" width="121.203" height="246.276" fill="none"/>
    </clipPath>
    <clipPath id="clip-path-13">
      <path id="Path_957" data-name="Path 957" d="M751.327,431.764c-10.8.82-19.267,11.171-19.535,23.831-1.641,77.421-6.961,344.473-4.421,439.108.269,10.026,7.139,18.072,15.709,18.4,42.386,1.623,197.77,5.735,267.1,2.333,14.44-.709,25.923-14.392,26.223-31.3,1.441-81.263,4.619-309.824-2.936-414.528-.905-12.545-9.322-22.535-20.03-23.788-39.571-4.631-159.9-15-231.182-15-11.871,0-22.375.287-30.926.937" transform="translate(-726.695 -430.827)" fill="none"/>
    </clipPath>
    <linearGradient id="linear-gradient-5" x1="0.003" y1="1.185" x2="0.004" y2="1.185" gradientUnits="objectBoundingBox">
      <stop offset="0" stop-color="#2b3582"/>
      <stop offset="1" stop-color="#150e42"/>
    </linearGradient>
    <clipPath id="clip-path-14">
      <path id="Path_958" data-name="Path 958" d="M841.581,585.024c-9.242.59-16.594,9.264-16.989,20.083-2.281,62.49-9.478,270.379-7.194,347.252.334,11.236,7.9,20.321,17.5,20.978,39.5,2.7,174.271,8.667,232.21,3.239,10.433-.977,18.62-10.848,19.183-23.074,2.936-63.753,11.366-257.326,9.177-333.338-.349-12.126-8.378-22.029-18.708-23.114-37.392-3.928-151.714-12.6-212.692-12.6-8.711,0-16.33.177-22.485.57" transform="translate(-816.957 -584.454)" fill="none"/>
    </clipPath>
    <linearGradient id="linear-gradient-6" x1="-0.158" y1="1.579" x2="-0.158" y2="1.579" gradientUnits="objectBoundingBox">
      <stop offset="0" stop-color="#53d8ff"/>
      <stop offset="1" stop-color="#3840f7"/>
    </linearGradient>
    <clipPath id="clip-path-16">
      <rect id="Rectangle_1049" data-name="Rectangle 1049" width="58.462" height="12.259" fill="none"/>
    </clipPath>
    <clipPath id="clip-path-17">
      <path id="Path_959" data-name="Path 959" d="M1443.166,499.943h0c0,2.376,1.583,4.335,3.61,4.459,10.011.613,38.214,2.349,50.818,3.2,2.485.169,4.436-2.444,3.964-5.3l-.081-.488a4.1,4.1,0,0,0-3.4-3.6c-8.52-.913-34.227-3.446-51.26-2.734-2.046.086-3.655,2.069-3.655,4.464" transform="translate(-1443.166 -495.354)" fill="none"/>
    </clipPath>
    <linearGradient id="linear-gradient-7" x1="-4.366" y1="31.387" x2="-4.363" y2="31.387" xlink:href="#linear-gradient-6"/>
    <clipPath id="clip-path-18">
      <path id="Path_960" data-name="Path 960" d="M1225.846,828.11a59.121,59.121,0,1,0,59.121-59.121,59.121,59.121,0,0,0-59.121,59.121" transform="translate(-1225.846 -768.989)" fill="none"/>
    </clipPath>
    <linearGradient id="linear-gradient-8" x1="-1.573" y1="3.993" x2="-1.571" y2="3.993" xlink:href="#linear-gradient-6"/>
    <clipPath id="clip-path-20">
      <rect id="Rectangle_1055" data-name="Rectangle 1055" width="219.333" height="153.636" fill="none"/>
    </clipPath>
    <clipPath id="clip-path-21">
      <rect id="Rectangle_1052" data-name="Rectangle 1052" width="218.156" height="33.563" fill="none"/>
    </clipPath>
    <clipPath id="clip-path-23">
      <rect id="Rectangle_1054" data-name="Rectangle 1054" width="140.931" height="42.791" fill="none"/>
    </clipPath>
    <clipPath id="clip-path-24">
      <rect id="Rectangle_1056" data-name="Rectangle 1056" width="129.938" height="18.646" fill="none"/>
    </clipPath>
    <clipPath id="clip-path-25">
      <rect id="Rectangle_1057" data-name="Rectangle 1057" width="119.536" height="17.273" fill="none"/>
    </clipPath>
    <clipPath id="clip-path-26">
      <path id="Path_973" data-name="Path 973" d="M2115.415,2338.056s18.812,66.062,27.606,89.514c-.232.117.506,5.695.08,8.445l-2.685,17.325,16.189-21.768-.677-2.808-5.565-3.365s-2.7-49.235-5.634-60.96-11.726-20.52-11.726-20.52l5.863-43.972-23.452-5.863Z" transform="translate(-2115.415 -2294.084)" fill="none"/>
    </clipPath>
    <linearGradient id="linear-gradient-9" x1="-3.709" y1="1.585" x2="-3.707" y2="1.585" gradientUnits="objectBoundingBox">
      <stop offset="0" stop-color="#f9b776"/>
      <stop offset="1" stop-color="#f47960"/>
    </linearGradient>
    <clipPath id="clip-path-27">
      <path id="Path_974" data-name="Path 974" d="M2012.208,2146.992c5.183,23.321,10.362,85.543,11.495,99.681-.128.008-.064.007,0,0-.166,2.758-1.73,5.442-3.188,7.811l-9.193,14.928,23.364-13.787.465-2.851-3.824-5.258.016-.2c-.252.038,11.431-88.2,1.387-103.263l14.657-49.835L2021,2067.843s-14.657,52.766-8.794,79.149" transform="translate(-2010.824 -2067.843)" fill="none"/>
    </clipPath>
    <linearGradient id="linear-gradient-10" x1="-6.057" y1="1.465" x2="-6.054" y2="1.465" xlink:href="#linear-gradient-9"/>
    <clipPath id="clip-path-28">
      <path id="Path_975" data-name="Path 975" d="M2212.376,1452.28c25.5,29.895,0,54.316,0,54.316l5.234,3.79c51.368-29.684,0-87.579,0-87.579Z" transform="translate(-2212.376 -1422.806)" fill="none"/>
    </clipPath>
    <linearGradient id="linear-gradient-11" x1="-7.09" y1="4.737" x2="-7.087" y2="4.737" gradientUnits="objectBoundingBox">
      <stop offset="0" stop-color="#fdf53f"/>
      <stop offset="1" stop-color="#d9aa65"/>
    </linearGradient>
    <clipPath id="clip-path-29">
      <path id="Path_976" data-name="Path 976" d="M2014.486,3076.326c-3.842,2.318-15.635,10.619-15.635,10.619a10.655,10.655,0,0,0-3.03.081,1.972,1.972,0,0,0,.366,3.909h7.456a4.488,4.488,0,0,0,3.563-1.747c2.324-3.02,7.14-8.913,9.443-9.066,3.1-.208,2.7,10.813,2.7,10.813h1.737l2.2-13.694a8.106,8.106,0,0,0-4.254-8.473s-.708,5.24-4.551,7.558" transform="translate(-1994.216 -3068.767)" fill="none"/>
    </clipPath>
    <linearGradient id="linear-gradient-12" x1="-9.518" y1="3.493" x2="-9.513" y2="3.493" gradientUnits="objectBoundingBox">
      <stop offset="0" stop-color="#cb236d"/>
      <stop offset="1" stop-color="#4c246d"/>
    </linearGradient>
    <clipPath id="clip-path-30">
      <path id="Path_977" data-name="Path 977" d="M2248.808,3033.531c-2.643,3.626-10.294,15.851-10.294,15.851a10.657,10.657,0,0,0-2.762,1.25,1.972,1.972,0,0,0,1.854,3.461l6.872-2.891a4.491,4.491,0,0,0,2.607-2.992c.971-3.685,3.125-10.984,5.188-12.019,2.777-1.393,6.685,8.919,6.685,8.919l1.6-.674-3.281-13.476a8.106,8.106,0,0,0-7.206-6.161s1.379,5.105-1.264,8.732" transform="translate(-2234.85 -3024.799)" fill="none"/>
    </clipPath>
    <linearGradient id="linear-gradient-13" x1="-10.395" y1="3.258" x2="-10.39" y2="3.258" xlink:href="#linear-gradient-12"/>
    <clipPath id="clip-path-31">
      <path id="Path_978" data-name="Path 978" d="M1982.773,1820.115s.862,5.284-.4,19.811c-1.161,13.353-6.357,43.249-6.234,73.337.011,2.644-3.905,124.5-3.806,127.135,0,0,40.762-7.832,70.584-9.726l-17.215-100.3a52.913,52.913,0,0,1,.3-19.5c3.156-15.523,8.722-45.809,6.808-57.9-3.066-19.368-19.7-33.263-19.7-33.263Z" transform="translate(-1972.331 -1819.715)" fill="none"/>
    </clipPath>
    <linearGradient id="linear-gradient-14" x1="-1.22" y1="1.919" x2="-1.219" y2="1.919" xlink:href="#linear-gradient-12"/>
    <clipPath id="clip-path-32">
      <path id="Path_979" data-name="Path 979" d="M2090.347,1228.213l-2.1,24.669h19.932l-4.956-37.655Z" transform="translate(-2088.249 -1215.226)" fill="none"/>
    </clipPath>
    <linearGradient id="linear-gradient-15" x1="-19.005" y1="12.018" x2="-18.996" y2="12.018" xlink:href="#linear-gradient-9"/>
    <clipPath id="clip-path-33">
      <path id="Path_980" data-name="Path 980" d="M1980.13,1400.277a12.657,12.657,0,0,0-11.716,10.052l-2.657,12.735a30.671,30.671,0,0,0,.432,14.329l10.674,39.182s9.494,5.705,30.336-.4c0,0,18.3-43.648,10.812-71.569a5.189,5.189,0,0,0-4.725-3.842c-4.974-.274-14.391-.717-23.344-.717-3.431,0-6.792.065-9.81.229" transform="translate(-1965.11 -1400.048)" fill="none"/>
    </clipPath>
    <linearGradient id="linear-gradient-16" x1="-3.426" y1="4.198" x2="-3.424" y2="4.198" gradientUnits="objectBoundingBox">
      <stop offset="0" stop-color="#fdf53f"/>
      <stop offset="1" stop-color="#d93c65"/>
    </linearGradient>
    <clipPath id="clip-path-34">
      <path id="Path_981" data-name="Path 981" d="M1698.587,1419.378l-.1.282c-2.936,7.734-5.588,15.844-8.437,23.438-1.448,3.8-2.918,7.528-4.49,10.95-.795,1.7-1.668,3.271-2.47,4.691a20.749,20.749,0,0,1-2.177,3.114c-.092.08.217.14.32.146.062.008-1.985.336-2.613.441l-2.453-.015a85.484,85.484,0,0,1-11.5-1.577c-8.059-1.5-23.182-9.486-23.182-9.486l-6.762,12.474s9.427,2.609,13.241,5.051c1.92,1.174,3.873,2.324,5.859,3.429,2.025,1.032,4.055,2.072,6.164,3.034a71.565,71.565,0,0,0,13.685,4.649c1.328.222,2.638.455,4,.638a45.946,45.946,0,0,0,4.6.092c.889-.088,1.782-.2,2.673-.326a12.012,12.012,0,0,0,1.4-.251c.611-.183,1.22-.388,1.82-.613a18.976,18.976,0,0,0,3.085-1.563c.847-.558,1.618-1.141,2.367-1.74a32.009,32.009,0,0,0,5.989-6.93,54.8,54.8,0,0,0,3.775-6.684,91.185,91.185,0,0,0,5.2-13.13A122.5,122.5,0,0,0,1714,1422.9a7.983,7.983,0,0,0-7.269-8.638q-.349-.03-.694-.03a7.988,7.988,0,0,0-7.452,5.141" transform="translate(-1634.724 -1414.237)" fill="none"/>
    </clipPath>
    <linearGradient id="linear-gradient-17" x1="-2.954" y1="4.248" x2="-2.952" y2="4.248" xlink:href="#linear-gradient-11"/>
    <clipPath id="clip-path-35">
      <path id="Path_982" data-name="Path 982" d="M1559.725,1596.609s-2.809,3.1-1.311,6.755c1.063,2.592,8.558,7.587,10.889,3.589.729-1.251,3.277-6.037,4.015-7.406l-1.237-2.937-18.72-4.665s-1.5,3.245,6.365,4.665" transform="translate(-1553.246 -1591.944)" fill="none"/>
    </clipPath>
    <linearGradient id="linear-gradient-18" x1="-10.219" y1="13.852" x2="-10.213" y2="13.852" xlink:href="#linear-gradient-9"/>
    <clipPath id="clip-path-36">
      <path id="Path_983" data-name="Path 983" d="M2037.593,1111.8c-.712.42-6.319,20.2-1.62,28.49s19.048-1,22.937-12.987c2.914-8.983.137-19.484-9.411-19.484-3.2,0-7.151,1.177-11.906,3.981" transform="translate(-2034.115 -1107.818)" fill="none"/>
    </clipPath>
    <linearGradient id="linear-gradient-19" x1="-6.995" y1="9.865" x2="-6.991" y2="9.865" xlink:href="#linear-gradient-9"/>
    <clipPath id="clip-path-37">
      <path id="Path_984" data-name="Path 984" d="M2019.337,1065.656c1.623,8.086,21.1,5.723,25.278,17.176,2.147,5.888-2.345,8.314-4.213,21.713-.861,6.175-3.095,22.2,5.186,30.462,4.73,4.719,8.629,2.65,16.527,5.833,18.6,7.5,16.635,26.9,30.463,33.379,14.468,6.778,42.386-2.374,50.555-24.629,5.9-16.069-.024-35.97-12.315-43.75-8.4-5.317-16.922-5.156-24.869-5-8.157.165-15.711.33-21.911-5.429-7.554-7.016-18.218-2.7-21.437-18.47-1.434-7.025,3.219-27.008-17.338-30.41a17.488,17.488,0,0,0-2.864-.232c-12.365,0-24.434,12.518-23.062,19.353" transform="translate(-2019.23 -1046.303)" fill="none"/>
    </clipPath>
    <linearGradient id="linear-gradient-20" x1="-1.815" y1="2.728" x2="-1.814" y2="2.728" xlink:href="#linear-gradient-5"/>
    <clipPath id="clip-path-39">
      <rect id="Rectangle_1071" data-name="Rectangle 1071" width="30.009" height="39.364" fill="none"/>
    </clipPath>
    <clipPath id="clip-path-40">
      <rect id="Rectangle_1072" data-name="Rectangle 1072" width="39.653" height="60.131" fill="none"/>
    </clipPath>
    <clipPath id="clip-path-41">
      <rect id="Rectangle_1073" data-name="Rectangle 1073" width="30.831" height="14.01" fill="none"/>
    </clipPath>
    <clipPath id="clip-path-42">
      <path id="Path_988" data-name="Path 988" d="M2543.386,629.3c0,27.753,23.509,49.014,51.722,47.528,27.378-1.442,48.986-23.888,48.986-50.174s-21.608-47.6-48.986-47.6c-28.212,0-51.722,22.492-51.722,50.246" transform="translate(-2543.386 -579.051)" fill="none"/>
    </clipPath>
    <linearGradient id="linear-gradient-21" x1="-3.69" y1="4.709" x2="-3.688" y2="4.709" xlink:href="#linear-gradient-16"/>
    <clipPath id="clip-path-43">
      <path id="Path_989" data-name="Path 989" d="M2569.4,649.863c0,25.153,21.306,44.421,46.875,43.074,24.813-1.307,44.4-21.65,44.4-45.472s-19.583-43.136-44.4-43.139c-25.568,0-46.875,20.384-46.875,45.537" transform="translate(-2569.401 -604.326)" fill="none"/>
    </clipPath>
    <linearGradient id="linear-gradient-22" x1="-3.819" y1="4.849" x2="-3.817" y2="4.849" xlink:href="#linear-gradient-16"/>
    <clipPath id="clip-path-45">
      <path id="Path_992" data-name="Path 992" d="M2782.611,852.775a6.055,6.055,0,0,0,2.248,4.713,2.162,2.162,0,0,1,.7,2.39l-2.01,5.778a2.163,2.163,0,0,0,2.042,2.873h7.1a2.162,2.162,0,0,0,2.042-2.873l-2.229-6.408a2.147,2.147,0,0,1,.488-2.212,6.067,6.067,0,0,0-4.08-10.323q-.12,0-.239,0a6.068,6.068,0,0,0-6.068,6.068" transform="translate(-2782.611 -846.707)" fill="none"/>
    </clipPath>
    <linearGradient id="linear-gradient-23" x1="-21.721" y1="34.887" x2="-21.714" y2="34.887" xlink:href="#linear-gradient-16"/>
    <clipPath id="clip-path-47">
      <rect id="Rectangle_1081" data-name="Rectangle 1081" width="122.108" height="96.714" fill="none"/>
    </clipPath>
    <clipPath id="clip-path-48">
      <path id="Path_993" data-name="Path 993" d="M589.286,2592.536a2.13,2.13,0,0,1-.709,2.669c-1.882,1.251-3.844,2.436-5.831,3.52a1.932,1.932,0,0,1-2.664-.885l-.017-.036a2.12,2.12,0,0,1,.854-2.759c1.888-1.03,3.751-2.155,5.539-3.344a1.921,1.921,0,0,1,2.725.645,2.076,2.076,0,0,1,.1.19m-15.451,7.89a2.193,2.193,0,0,1,.092.227,2.1,2.1,0,0,1-1.192,2.648c-2.108.788-4.269,1.489-6.423,2.083a1.972,1.972,0,0,1-2.414-1.479,2.08,2.08,0,0,1,1.4-2.531c2.048-.565,4.1-1.231,6.1-1.98a1.942,1.942,0,0,1,2.432,1.032m-16.729,4.116a2.148,2.148,0,0,1,.192.677,2.049,2.049,0,0,1-1.725,2.3c-2.219.275-4.477.451-6.711.525a2.076,2.076,0,0,1-.133-4.145c2.122-.07,4.266-.238,6.373-.5a1.96,1.96,0,0,1,2,1.139m-17.2.081a2.156,2.156,0,0,1,.195,1.142,2,2,0,0,1-2.172,1.837c-2.224-.254-4.464-.613-6.658-1.064a2.078,2.078,0,0,1-1.562-2.434,1.976,1.976,0,0,1,2.314-1.635c2.084.43,4.211.77,6.325,1.011a1.984,1.984,0,0,1,1.559,1.144m-16.792-3.949a2.161,2.161,0,0,1,.1,1.6,1.947,1.947,0,0,1-2.506,1.284c-2.11-.763-4.22-1.633-6.269-2.584a2.118,2.118,0,0,1-1.013-2.734,1.935,1.935,0,0,1,2.6-1.057c1.947.9,3.953,1.731,5.958,2.457a2.01,2.01,0,0,1,1.128,1.041m-15.55-7.75a2.161,2.161,0,0,1-.086,2.014,1.917,1.917,0,0,1-2.716.669c-1.9-1.236-3.777-2.574-5.573-3.976a2.144,2.144,0,0,1-.411-2.9,1.912,1.912,0,0,1,2.761-.425c1.707,1.333,3.488,2.6,5.295,3.778a2.034,2.034,0,0,1,.73.841m-36.438-65.9a2.154,2.154,0,0,1,.2.851c.075,2.226.243,4.479.5,6.7a2.048,2.048,0,0,1-1.72,2.3,2,2,0,0,1-2.2-1.812c-.272-2.334-.449-4.708-.528-7.052a2.028,2.028,0,0,1,1.9-2.141,1.97,1.97,0,0,1,1.838,1.153m22.91,54.739a2.151,2.151,0,0,1-.36,2.376,1.908,1.908,0,0,1-2.792.018c-1.593-1.649-3.138-3.391-4.591-5.177a2.15,2.15,0,0,1,.216-2.923,1.911,1.911,0,0,1,2.784.234c1.379,1.7,2.846,3.351,4.359,4.917a2.083,2.083,0,0,1,.384.555m-20.369-36.871a2.147,2.147,0,0,1,.141.391c.548,2.155,1.192,4.313,1.913,6.416a2.1,2.1,0,0,1-1.188,2.651,1.951,1.951,0,0,1-2.526-1.254c-.758-2.212-1.436-4.484-2.013-6.751a2.08,2.08,0,0,1,1.4-2.535,1.948,1.948,0,0,1,2.276,1.083m9.548,22.818a2.131,2.131,0,0,1-.706,2.667,1.923,1.923,0,0,1-2.726-.639c-1.2-1.979-2.337-4.039-3.375-6.124-.007-.013-.013-.026-.019-.039a2.121,2.121,0,0,1,.851-2.757,1.931,1.931,0,0,1,2.665.881c.987,1.979,2.066,3.936,3.207,5.816.038.063.073.128.1.194" transform="translate(-467.385 -2525.865)" fill="none"/>
    </clipPath>
    <linearGradient id="linear-gradient-24" x1="-0.498" y1="1.856" x2="-0.497" y2="1.856" xlink:href="#linear-gradient"/>
    <clipPath id="clip-path-49">
      <path id="Path_994" data-name="Path 994" d="M473.57,2446.893a2.157,2.157,0,0,1,.185,1.223c-.148,1.058-.277,2.136-.385,3.2a1.994,1.994,0,0,1-2.17,1.839,2.054,2.054,0,0,1-1.755-2.284c.113-1.125.249-2.259.4-3.371a1.949,1.949,0,0,1,3.721-.612" transform="translate(-469.433 -2445.737)" fill="none"/>
    </clipPath>
    <linearGradient id="linear-gradient-25" x1="-11.234" y1="25.894" x2="-11.21" y2="25.894" xlink:href="#linear-gradient"/>
    <clipPath id="clip-path-50">
      <rect id="Rectangle_1085" data-name="Rectangle 1085" width="128.137" height="100.44" fill="none"/>
    </clipPath>
    <clipPath id="clip-path-51">
      <path id="Path_995" data-name="Path 995" d="M636.483,2149.725a2.136,2.136,0,0,1-.62,2.607c-.828.619-1.657,1.268-2.465,1.926a1.912,1.912,0,0,1-2.771-.368,2.14,2.14,0,0,1,.344-2.909c.85-.693,1.724-1.376,2.6-2.028a1.916,1.916,0,0,1,2.754.488,2.124,2.124,0,0,1,.162.284" transform="translate(-630.21 -2148.569)" fill="none"/>
    </clipPath>
    <linearGradient id="linear-gradient-26" x1="-12.286" y1="31.406" x2="-12.266" y2="31.406" xlink:href="#linear-gradient"/>
    <clipPath id="clip-path-52">
      <path id="Path_996" data-name="Path 996" d="M801.709,2111.943q.607,1.282,1.177,2.6a2.114,2.114,0,0,1-.976,2.745,1.941,1.941,0,0,1-2.616-1.032c-.877-2.021-1.831-4-2.845-5.9a2.126,2.126,0,0,1,.756-2.82,1.928,1.928,0,0,1,2.688.8c.628,1.177,1.239,2.393,1.816,3.613m4.846,12.85a2.173,2.173,0,0,1,.124.329c.635,2.216,1.188,4.486,1.643,6.745a2.069,2.069,0,0,1-1.522,2.454,1.982,1.982,0,0,1-2.34-1.605c-.432-2.145-.958-4.3-1.561-6.407a2.086,2.086,0,0,1,1.32-2.579,1.946,1.946,0,0,1,2.336,1.065m-12.357-25.6a2.138,2.138,0,0,1-.577,2.573,1.915,1.915,0,0,1-2.766-.409c-1.258-1.75-2.605-3.467-4-5.1a2.148,2.148,0,0,1,.147-2.927,1.91,1.91,0,0,1,2.788.162c1.473,1.723,2.892,3.532,4.217,5.374a2.13,2.13,0,0,1,.194.33m15.424,43.094a2.161,2.161,0,0,1,.2.777c.156,2.305.221,4.645.191,6.955a1.976,1.976,0,1,1-3.947-.066c.028-2.193-.033-4.415-.182-6.6a2.036,2.036,0,0,1,1.829-2.21,1.966,1.966,0,0,1,1.908,1.149m-27.062-56.012a2.156,2.156,0,0,1-.259,2.261,1.909,1.909,0,0,1-2.782.24c-1.592-1.417-3.266-2.781-4.972-4.056a2.142,2.142,0,0,1-.468-2.892,1.912,1.912,0,0,1,2.751-.484c1.8,1.342,3.558,2.779,5.235,4.271a2.06,2.06,0,0,1,.494.66m-14.049-9.93a2.164,2.164,0,0,1-.016,1.884,1.925,1.925,0,0,1-2.663.873c-1.854-1.02-3.77-1.969-5.7-2.823a2.115,2.115,0,0,1-1.057-2.716,1.937,1.937,0,0,1,2.584-1.1c2.026.9,4.042,1.9,5.993,2.971a2.027,2.027,0,0,1,.854.915m-15.768-6.482a2.161,2.161,0,0,1,.139,1.459,1.961,1.961,0,0,1-2.417,1.461c-2.022-.573-4.088-1.062-6.142-1.455a2.073,2.073,0,0,1-1.594-2.411,1.979,1.979,0,0,1,2.292-1.668c2.161.413,4.336.928,6.463,1.531a2,2,0,0,1,1.258,1.083m-16.73-2.719a2.157,2.157,0,0,1,.2,1.008,2.009,2.009,0,0,1-2.052,1.982c-2.09-.1-4.206-.1-6.292-.007a2.076,2.076,0,0,1-.173-4.143c2.2-.1,4.426-.094,6.625.007a1.978,1.978,0,0,1,1.688,1.154m-16.888,1.2a2.155,2.155,0,0,1,.174.551,2.062,2.062,0,0,1-1.585,2.409c-2.052.391-4.115.878-6.132,1.45a1.972,1.972,0,0,1-2.423-1.462,2.081,2.081,0,0,1,1.386-2.542c2.124-.6,4.3-1.115,6.456-1.526a1.956,1.956,0,0,1,2.124,1.119m-16.2,5.068c.018.038.035.077.051.117a2.108,2.108,0,0,1-1.047,2.715c-1.417.627-2.831,1.308-4.207,2.023q-.746.389-1.481.792a1.932,1.932,0,0,1-2.665-.878,2.1,2.1,0,0,1,.829-2.8q.774-.425,1.558-.833c1.446-.752,2.935-1.468,4.425-2.128a1.938,1.938,0,0,1,2.537.99" transform="translate(-693.334 -2065.911)" fill="none"/>
    </clipPath>
    <linearGradient id="linear-gradient-27" x1="-0.785" y1="2.475" x2="-0.784" y2="2.475" xlink:href="#linear-gradient"/>
    <clipPath id="clip-path-53">
      <path id="Path_997" data-name="Path 997" d="M1311.307,2579.9a2.161,2.161,0,0,1,.184,1.234c-.161,1.109-.347,2.236-.553,3.349a1.975,1.975,0,0,1-2.314,1.634,2.076,2.076,0,0,1-1.561-2.435c.2-1.057.372-2.127.525-3.18a1.948,1.948,0,0,1,3.719-.6" transform="translate(-1307.026 -2578.746)" fill="none"/>
    </clipPath>
    <linearGradient id="linear-gradient-28" x1="-30.771" y1="22.825" x2="-30.748" y2="22.825" xlink:href="#linear-gradient"/>
    <clipPath id="clip-path-54">
      <path id="Path_998" data-name="Path 998" d="M623.481,2189.207l-12.6,4.963a.968.968,0,0,0-.6.933l.323,11.782a49.794,49.794,0,0,0-11.553,11.364l-11.181-1.117a.914.914,0,0,0-.926.563l-5.548,12.876a1.006,1.006,0,0,0,.208,1.1l8.165,8.115a53.9,53.9,0,0,0-.51,16.634l-8.633,7.507a1,1,0,0,0-.274,1.087l4.756,13.247a.926.926,0,0,0,.89.628l11.217-.312a50.615,50.615,0,0,0,10.848,12.161l-1.037,11.74a.98.98,0,0,0,.538.974l12.273,5.857a.89.89,0,0,0,1.051-.215l7.708-8.557a46.626,46.626,0,0,0,15.839.575l7.168,9.086a.9.9,0,0,0,1.036.29l12.6-4.963a.967.967,0,0,0,.6-.933l-.323-11.781a49.811,49.811,0,0,0,11.553-11.364l11.181,1.117a.913.913,0,0,0,.926-.563l5.548-12.876a1,1,0,0,0-.207-1.1l-8.166-8.116a53.9,53.9,0,0,0,.51-16.634l8.634-7.507a1,1,0,0,0,.274-1.087l-4.756-13.247a.927.927,0,0,0-.89-.628l-11.217.311a50.645,50.645,0,0,0-10.847-12.161l1.037-11.741a.979.979,0,0,0-.539-.973l-12.273-5.858a.89.89,0,0,0-1.051.216l-7.708,8.557a46.624,46.624,0,0,0-15.839-.575l-7.168-9.086a.908.908,0,0,0-.712-.352.878.878,0,0,0-.323.062" transform="translate(-580.296 -2189.145)" fill="none"/>
    </clipPath>
    <linearGradient id="linear-gradient-29" x1="-0.604" y1="1.998" x2="-0.603" y2="1.998" xlink:href="#linear-gradient-16"/>
    <clipPath id="clip-path-56">
      <rect id="Rectangle_1088" data-name="Rectangle 1088" width="27.077" height="28.429" fill="none"/>
    </clipPath>
    <clipPath id="clip-path-57">
      <rect id="Rectangle_1089" data-name="Rectangle 1089" width="66.25" height="69.948" fill="none"/>
    </clipPath>
    <clipPath id="clip-path-58">
      <rect id="Rectangle_1092" data-name="Rectangle 1092" width="86.763" height="41.505" fill="none"/>
    </clipPath>
    <clipPath id="clip-path-59">
      <path id="Path_1001" data-name="Path 1001" d="M1540.77,3106.186a1.325,1.325,0,0,1-.263,1.509c-.759.737-1.55,1.46-2.351,2.148a1.18,1.18,0,0,1-1.716-.181,1.322,1.322,0,0,1,.169-1.8c.763-.656,1.517-1.345,2.241-2.048a1.18,1.18,0,0,1,1.723.073,1.3,1.3,0,0,1,.2.3" transform="translate(-1536.162 -3105.473)" fill="none"/>
    </clipPath>
    <linearGradient id="linear-gradient-30" x1="-41.579" y1="16.612" x2="-41.552" y2="16.612" xlink:href="#linear-gradient"/>
    <clipPath id="clip-path-60">
      <path id="Path_1002" data-name="Path 1002" d="M1163.18,3001a1.316,1.316,0,0,1-.441,1.651,52.208,52.208,0,0,1-4.674,2.751q-.5.262-1.016.514a1.238,1.238,0,0,1-1.624-.615,1.307,1.307,0,0,1,.582-1.7q.49-.242.971-.491a49.994,49.994,0,0,0,4.458-2.624,1.187,1.187,0,0,1,1.682.4c.022.038.043.076.061.115m-11.45,5.643a1.345,1.345,0,0,1,.068.17,1.294,1.294,0,0,1-.776,1.616,50.754,50.754,0,0,1-6.275,1.72,1.229,1.229,0,0,1-1.433-1.01,1.276,1.276,0,0,1,.958-1.5,48.468,48.468,0,0,0,5.986-1.641,1.2,1.2,0,0,1,1.473.647m-12.417,2.554a1.344,1.344,0,0,1,.125.48,1.258,1.258,0,0,1-1.13,1.365,50.023,50.023,0,0,1-6.493.047,1.261,1.261,0,0,1-1.153-1.349,1.239,1.239,0,0,1,1.281-1.208,47.673,47.673,0,0,0,6.192-.045,1.215,1.215,0,0,1,1.178.71m-12.643-.731a1.339,1.339,0,0,1,.109.794,1.223,1.223,0,0,1-1.414,1.033,50.807,50.807,0,0,1-6.309-1.623,1.3,1.3,0,0,1-.8-1.6,1.207,1.207,0,0,1,1.525-.842,48.379,48.379,0,0,0,6.015,1.548,1.231,1.231,0,0,1,.878.693m-12.1-3.952a1.337,1.337,0,0,1,.021,1.1,1.2,1.2,0,0,1-1.611.639,52.716,52.716,0,0,1-5.745-3.181,1.317,1.317,0,0,1-.411-1.759,1.185,1.185,0,0,1,1.674-.428,50.163,50.163,0,0,0,5.481,3.034,1.25,1.25,0,0,1,.592.6m-10.822-6.912a1.334,1.334,0,0,1-.134,1.364,1.18,1.18,0,0,1-1.712.208,53.729,53.729,0,0,1-4.835-4.554,1.328,1.328,0,0,1,.011-1.812,1.178,1.178,0,0,1,1.724.016,51.226,51.226,0,0,0,4.61,4.342,1.264,1.264,0,0,1,.336.436m-8.888-9.476a1.322,1.322,0,0,1-.349,1.584,1.182,1.182,0,0,1-1.71-.24,55.971,55.971,0,0,1-3.628-5.661,1.323,1.323,0,0,1,.434-1.752,1.19,1.19,0,0,1,1.669.459,53.056,53.056,0,0,0,3.459,5.4,1.3,1.3,0,0,1,.125.21m-8.573-17.747a1.288,1.288,0,0,1,.079.211,55.086,55.086,0,0,0,1.795,5.335c.1.266.207.525.314.782a1.3,1.3,0,0,1-.632,1.684,1.189,1.189,0,0,1-1.6-.668c-.113-.275-.225-.55-.332-.828a57.7,57.7,0,0,1-1.879-5.588,1.288,1.288,0,0,1,.826-1.587,1.2,1.2,0,0,1,1.435.66" transform="translate(-1083.981 -2969.672)" fill="none"/>
    </clipPath>
    <linearGradient id="linear-gradient-31" x1="-2.13" y1="2.062" x2="-2.128" y2="2.062" xlink:href="#linear-gradient"/>
    <clipPath id="clip-path-61">
      <rect id="Rectangle_1095" data-name="Rectangle 1095" width="53.718" height="66.995" fill="none"/>
    </clipPath>
    <clipPath id="clip-path-62">
      <path id="Path_1003" data-name="Path 1003" d="M1404.868,2618.706a1.31,1.31,0,0,1-.535,1.708,1.194,1.194,0,0,1-1.642-.557,53.772,53.772,0,0,0-3.1-5.507,1.327,1.327,0,0,1,.324-1.778,1.185,1.185,0,0,1,1.694.345,56.685,56.685,0,0,1,3.255,5.774l.007.016m2.513,6a1.313,1.313,0,0,1,.052.128,58.317,58.317,0,0,1,1.855,6.42,1.281,1.281,0,0,1-.9,1.541,1.224,1.224,0,0,1-1.47-.95,55.624,55.624,0,0,0-1.77-6.127,1.3,1.3,0,0,1,.719-1.643,1.2,1.2,0,0,1,1.515.632m-9.5-16.839a1.325,1.325,0,0,1-.289,1.533,1.179,1.179,0,0,1-1.72-.125,52.173,52.173,0,0,0-4.281-4.56,1.327,1.327,0,0,1-.093-1.808,1.179,1.179,0,0,1,1.722-.095,54.573,54.573,0,0,1,4.487,4.781,1.312,1.312,0,0,1,.175.274m12.391,29.572a1.339,1.339,0,0,1,.12.428,57.642,57.642,0,0,1,.325,6.7,1.246,1.246,0,0,1-1.232,1.265,1.259,1.259,0,0,1-1.206-1.3,55.193,55.193,0,0,0-.31-6.389,1.264,1.264,0,0,1,1.075-1.413,1.212,1.212,0,0,1,1.228.7m-21.663-38.318a1.335,1.335,0,0,1-.091,1.3,1.182,1.182,0,0,1-1.7.314,49.915,49.915,0,0,0-5.195-3.347,1.315,1.315,0,0,1-.505-1.733,1.189,1.189,0,0,1,1.649-.527,52.814,52.814,0,0,1,5.447,3.509,1.268,1.268,0,0,1,.393.48m-10.993-6.161a1.337,1.337,0,0,1,.047,1.031,1.2,1.2,0,0,1-1.576.732,49.355,49.355,0,0,0-5.805-1.948,1.29,1.29,0,0,1-.884-1.557,1.211,1.211,0,0,1,1.479-.925,51.589,51.589,0,0,1,6.086,2.042,1.245,1.245,0,0,1,.654.626m-12.077-3.221a1.323,1.323,0,0,1,.117.73,1.229,1.229,0,0,1-1.362,1.107,47.588,47.588,0,0,0-6.077-.43,1.282,1.282,0,0,1,.01-2.561,50.187,50.187,0,0,1,6.374.45,1.228,1.228,0,0,1,.939.7" transform="translate(-1357 -2588.588)" fill="none"/>
    </clipPath>
    <linearGradient id="linear-gradient-32" x1="-3.21" y1="2.825" x2="-3.208" y2="2.825" xlink:href="#linear-gradient"/>
    <clipPath id="clip-path-63">
      <path id="Path_1004" data-name="Path 1004" d="M1637.28,2927.109a1.335,1.335,0,0,1,.116.74c-.138,1.086-.308,2.172-.5,3.229a1.221,1.221,0,0,1-1.43,1.009,1.286,1.286,0,0,1-.964-1.5c.187-1.008.349-2.044.481-3.081a1.2,1.2,0,0,1,2.3-.394" transform="translate(-1634.476 -2926.395)" fill="none"/>
    </clipPath>
    <linearGradient id="linear-gradient-33" x1="-55" y1="21.424" x2="-54.966" y2="21.424" xlink:href="#linear-gradient"/>
    <clipPath id="clip-path-64">
      <path id="Path_1005" data-name="Path 1005" d="M1176.514,2670.5l-8.432,3.321a.647.647,0,0,0-.4.625l.216,7.883a33.319,33.319,0,0,0-7.73,7.6l-7.482-.748a.612.612,0,0,0-.619.377l-3.712,8.617a.673.673,0,0,0,.139.739l5.464,5.431a36.062,36.062,0,0,0-.341,11.131l-5.777,5.024a.668.668,0,0,0-.183.727l3.182,8.864a.62.62,0,0,0,.6.421l7.506-.208a33.885,33.885,0,0,0,7.258,8.138l-.694,7.856a.656.656,0,0,0,.36.652l8.213,3.919a.6.6,0,0,0,.7-.144l5.158-5.726a31.205,31.205,0,0,0,10.6.385l4.8,6.08a.6.6,0,0,0,.693.194l8.432-3.321a.647.647,0,0,0,.4-.625l-.216-7.884a33.324,33.324,0,0,0,7.731-7.6l7.481.748a.612.612,0,0,0,.62-.377l3.712-8.617a.672.672,0,0,0-.138-.739l-5.464-5.431a36.069,36.069,0,0,0,.341-11.131l5.777-5.024a.668.668,0,0,0,.183-.727l-3.182-8.865a.62.62,0,0,0-.6-.42l-7.506.208a33.891,33.891,0,0,0-7.259-8.138l.694-7.856a.656.656,0,0,0-.361-.651l-8.212-3.919a.6.6,0,0,0-.7.144l-5.157,5.726a31.194,31.194,0,0,0-10.6-.385l-4.8-6.08a.609.609,0,0,0-.477-.235.589.589,0,0,0-.216.042" transform="translate(-1147.616 -2670.456)" fill="none"/>
    </clipPath>
    <linearGradient id="linear-gradient-34" x1="-1.968" y1="2.019" x2="-1.967" y2="2.019" xlink:href="#linear-gradient-16"/>
    <clipPath id="clip-path-66">
      <rect id="Rectangle_1098" data-name="Rectangle 1098" width="18.441" height="19.372" fill="none"/>
    </clipPath>
    <clipPath id="clip-path-67">
      <rect id="Rectangle_1099" data-name="Rectangle 1099" width="45.713" height="48.257" fill="none"/>
    </clipPath>
  </defs>
  <g id="Group_789" data-name="Group 789">
    <g id="Group_658" data-name="Group 658">
      <g id="Group_657" data-name="Group 657" clip-path="url(#clip-path)">
        <g id="Group_632" data-name="Group 632" transform="translate(82.094 78.139)" opacity="0.3">
          <g id="Group_631" data-name="Group 631">
            <g id="Group_630" data-name="Group 630" clip-path="url(#clip-path-2)">
              <g id="Group_629" data-name="Group 629" transform="translate(0 0)">
                <g id="Group_628" data-name="Group 628" clip-path="url(#clip-path-3)">
                  <rect id="Rectangle_1034" data-name="Rectangle 1034" width="762.811" height="758.275" transform="translate(-278.39 200.449) rotate(-38.841)" fill="url(#linear-gradient)"/>
                </g>
              </g>
            </g>
          </g>
        </g>
        <g id="Group_637" data-name="Group 637" transform="translate(338.709 280.22)" opacity="0.81">
          <g id="Group_636" data-name="Group 636">
            <g id="Group_635" data-name="Group 635" clip-path="url(#clip-path-4)">
              <g id="Group_634" data-name="Group 634" transform="translate(0 0)">
                <g id="Group_633" data-name="Group 633" clip-path="url(#clip-path-5)">
                  <rect id="Rectangle_1036" data-name="Rectangle 1036" width="299.761" height="275.05" transform="translate(-23.009 277.535) rotate(-85.268)" fill="url(#linear-gradient-2)"/>
                </g>
              </g>
            </g>
          </g>
        </g>
        <g id="Group_640" data-name="Group 640" transform="translate(342.559 320.424)" opacity="0.62">
          <g id="Group_639" data-name="Group 639">
            <g id="Group_638" data-name="Group 638" clip-path="url(#clip-path-6)">
              <path id="Path_952" data-name="Path 952" d="M2105.743,1767.1c-7.563,10.793-15.487,21.3-23.521,31.731-2.006,2.609-4.056,5.183-6.082,7.777-2.042,2.581-4.041,5.2-6.118,7.749l-6.21,7.675c-2.08,2.55-4.116,5.137-6.246,7.646-4.232,5.042-8.423,10.117-12.688,15.131l-12.928,14.927c-8.771,9.816-17.537,19.641-26.577,29.214l-6.728,7.229c-2.216,2.435-4.565,4.742-6.841,7.121l-13.732,14.2-14.086,13.852c-2.354,2.3-4.684,4.632-7.083,6.888l-7.266,6.694c-4.854,4.453-9.658,8.962-14.593,13.323l-15.006,12.858-3.769,3.193c-1.267,1.052-2.5,2.146-3.793,3.163l-7.752,6.127c-2.577,2.051-5.19,4.056-7.783,6.085s-5.194,4.046-7.807,6.046a.456.456,0,0,1-.575-.707l.013-.011q3.746-3.215,7.525-6.383c2.518-2.115,5.016-4.252,7.551-6.344l7.581-6.3c2.5-2.134,4.921-4.359,7.4-6.515l14.844-12.974,14.539-13.315,7.275-6.652c1.216-1.106,2.374-2.273,3.565-3.4l3.566-3.4,14.264-13.617c9.276-9.314,18.709-18.485,27.667-28.115,4.524-4.772,9.1-9.494,13.473-14.409,4.407-4.88,8.855-9.725,13.23-14.634l12.974-14.864c4.28-4.993,8.487-10.048,12.735-15.069,2.139-2.5,4.182-5.075,6.27-7.615l6.235-7.645c2.086-2.542,4.093-5.147,6.143-7.718,2.034-2.583,4.093-5.148,6.107-7.748,8.027-10.416,15.941-20.935,23.477-31.7l.006-.007a.456.456,0,0,1,.747.523" transform="translate(-1888.399 -1766.38)" fill="#fff"/>
            </g>
          </g>
        </g>
        <g id="Group_648" data-name="Group 648" transform="translate(314.55 76.804)" opacity="0.79">
          <g id="Group_647" data-name="Group 647">
            <g id="Group_646" data-name="Group 646" clip-path="url(#clip-path-7)">
              <g id="Group_642" data-name="Group 642" transform="translate(0 -0.001)">
                <g id="Group_641" data-name="Group 641" clip-path="url(#clip-path-8)">
                  <rect id="Rectangle_1039" data-name="Rectangle 1039" width="401.554" height="348.536" transform="translate(-98.669 306.758) rotate(-72.212)" fill="url(#linear-gradient-3)"/>
                </g>
              </g>
              <g id="Group_645" data-name="Group 645" transform="translate(7.664 64.385)" opacity="0.62">
                <g id="Group_644" data-name="Group 644">
                  <g id="Group_643" data-name="Group 643" clip-path="url(#clip-path-9)">
                    <path id="Path_954" data-name="Path 954" d="M1947.826,778.82c-1.68,6.451-3.635,12.807-5.7,19.135s-4.238,12.616-6.545,18.857q-6.942,18.717-15.1,36.958c-1.347,3.043-2.768,6.054-4.148,9.082s-2.889,6-4.328,9-2.974,5.956-4.474,8.927l-2.269,4.449-2.348,4.407c-6.254,11.754-12.843,23.337-19.943,34.607-7.123,11.252-14.524,22.339-22.51,33-.989,1.34-1.958,2.694-2.963,4.021l-3.063,3.946-3.063,3.946c-1.027,1.311-2.023,2.645-3.1,3.916l-6.363,7.7-1.6,1.92-1.655,1.871-3.31,3.742a389.181,389.181,0,0,1-58.467,54.234.4.4,0,0,1-.491-.625l.009-.007,7.716-6.293,3.864-3.136,3.739-3.285,7.47-6.573,7.221-6.844c1.195-1.149,2.427-2.26,3.6-3.427l3.5-3.537c2.32-2.369,4.688-4.69,6.968-7.1,4.481-4.888,9.066-9.679,13.332-14.759l3.252-3.761,1.626-1.88,1.568-1.929,6.291-7.7c1.067-1.269,2.054-2.6,3.071-3.91l3.035-3.939,3.035-3.939c.995-1.325,1.955-2.677,2.934-4.014,7.91-10.644,15.238-21.71,22.287-32.938,7.087-11.209,13.71-22.71,19.979-34.4l2.356-4.381,2.276-4.423c1.505-2.955,3.056-5.887,4.491-8.878,2.945-5.944,5.787-11.938,8.585-17.953q8.331-18.076,15.477-36.672,3.626-9.271,6.879-18.683,1.64-4.7,3.164-9.439c1.033-3.151,2.021-6.325,2.935-9.505l0-.008a.4.4,0,0,1,.767.21" transform="translate(-1776.25 -778.322)" fill="#fff"/>
                  </g>
                </g>
              </g>
            </g>
          </g>
        </g>
        <g id="Group_656" data-name="Group 656" transform="translate(81.59 90.327)" opacity="0.76">
          <g id="Group_655" data-name="Group 655">
            <g id="Group_654" data-name="Group 654" clip-path="url(#clip-path-10)">
              <g id="Group_650" data-name="Group 650" transform="translate(0 -0.001)">
                <g id="Group_649" data-name="Group 649" clip-path="url(#clip-path-11)">
                  <rect id="Rectangle_1042" data-name="Rectangle 1042" width="271.78" height="348.976" transform="translate(-117.711 10.721) rotate(-10.971)" fill="url(#linear-gradient-4)"/>
                </g>
              </g>
              <g id="Group_653" data-name="Group 653" transform="translate(30.198 57.488)" opacity="0.62">
                <g id="Group_652" data-name="Group 652">
                  <g id="Group_651" data-name="Group 651" clip-path="url(#clip-path-12)">
                    <path id="Path_956" data-name="Path 956" d="M617.035,815.2c1.956,11.376,4.486,22.672,7.378,33.854q4.27,16.8,9.615,33.29c1.8,5.487,3.642,10.96,5.573,16.4.932,2.733,1.97,5.428,2.966,8.137l1.512,4.058,1.584,4.03c4.213,10.75,8.752,21.373,13.72,31.792,4.929,10.434,10.116,20.757,15.848,30.775.708,1.257,1.4,2.525,2.12,3.773l2.215,3.718,2.215,3.719c.744,1.236,1.459,2.49,2.249,3.7l4.638,7.308,1.155,1.83,1.209,1.794,2.419,3.589c3.157,4.833,6.622,9.451,9.985,14.143,1.719,2.317,3.524,4.57,5.282,6.858l2.654,3.421c.9,1.131,1.845,2.219,2.757,3.337l5.525,6.67,5.768,6.461,2.888,3.229,3.011,3.114,6.008,6.249.007.008a.4.4,0,0,1-.561.563,337.145,337.145,0,0,1-45.012-52.9l-2.478-3.577-1.239-1.789-1.184-1.824-4.709-7.319c-.8-1.211-1.524-2.467-2.277-3.707l-2.242-3.729-2.242-3.729c-.731-1.252-1.43-2.523-2.147-3.784-5.806-10.047-11.063-20.4-16.061-30.867-4.973-10.482-9.469-21.183-13.659-32l-1.573-4.054-1.5-4.082c-.989-2.725-2.019-5.436-2.943-8.184s-1.923-5.47-2.81-8.23-1.793-5.513-2.641-8.285c-6.811-22.158-12.47-44.7-15.809-67.659a.4.4,0,0,1,.785-.125Z" transform="translate(-616.244 -814.852)" fill="#fff"/>
                  </g>
                </g>
              </g>
            </g>
          </g>
        </g>
      </g>
    </g>
    <g id="Group_660" data-name="Group 660" transform="translate(131.824 78.153)">
      <g id="Group_659" data-name="Group 659" clip-path="url(#clip-path-13)">
        <rect id="Rectangle_1046" data-name="Rectangle 1046" width="580.019" height="512.482" transform="translate(-208.171 374.3) rotate(-61.137)" fill="url(#linear-gradient-5)"/>
      </g>
    </g>
    <g id="Group_662" data-name="Group 662" transform="translate(148.197 106.021)">
      <g id="Group_661" data-name="Group 661" clip-path="url(#clip-path-14)">
        <rect id="Rectangle_1047" data-name="Rectangle 1047" width="436.879" height="341.292" transform="translate(-63.31 387.807) rotate(-80.994)" fill="url(#linear-gradient-6)"/>
      </g>
    </g>
    <g id="Group_669" data-name="Group 669">
      <g id="Group_668" data-name="Group 668" clip-path="url(#clip-path)">
        <g id="Group_667" data-name="Group 667" transform="translate(261.793 89.857)" opacity="0.61">
          <g id="Group_666" data-name="Group 666">
            <g id="Group_665" data-name="Group 665" clip-path="url(#clip-path-16)">
              <g id="Group_664" data-name="Group 664" transform="translate(-0.001 0.001)">
                <g id="Group_663" data-name="Group 663" clip-path="url(#clip-path-17)">
                  <rect id="Rectangle_1048" data-name="Rectangle 1048" width="59.851" height="18.688" transform="matrix(0.995, -0.098, 0.098, 0.995, -1.263, -0.463)" fill="url(#linear-gradient-7)"/>
                </g>
              </g>
            </g>
          </g>
        </g>
      </g>
    </g>
    <g id="Group_671" data-name="Group 671" transform="translate(222.37 139.496)">
      <g id="Group_670" data-name="Group 670" clip-path="url(#clip-path-18)">
        <rect id="Rectangle_1051" data-name="Rectangle 1051" width="135.813" height="135.813" transform="translate(-18.877 115.148) rotate(-80.69)" fill="url(#linear-gradient-8)"/>
      </g>
    </g>
    <g id="Group_691" data-name="Group 691">
      <g id="Group_690" data-name="Group 690" clip-path="url(#clip-path)">
        <path id="Path_961" data-name="Path 961" d="M1487.95,894.527c0,10.011-8.115,20.818-18.126,20.818s-18.126-10.807-18.126-20.818,8.115-17.113,18.126-17.113,18.126,7.1,18.126,17.113" transform="translate(-1188.358 -718.25)" fill="#fff"/>
        <path id="Path_962" data-name="Path 962" d="M1370.995,1151.135h44.248a10.71,10.71,0,0,0,10.2-7.447l2.381-7.442a10.7,10.7,0,0,0-6.464-13.313c-18.008-6.584-36.628-5.739-55.7.607a10.665,10.665,0,0,0-6.834,12.929l1.833,6.759a10.71,10.71,0,0,0,10.337,7.906" transform="translate(-1112.023 -915.499)" fill="#fff"/>
        <g id="Group_683" data-name="Group 683" transform="translate(176.745 318.592)" opacity="0.71">
          <g id="Group_682" data-name="Group 682">
            <g id="Group_681" data-name="Group 681" clip-path="url(#clip-path-20)">
              <g id="Group_674" data-name="Group 674" transform="translate(1.177)" opacity="0.65">
                <g id="Group_673" data-name="Group 673">
                  <g id="Group_672" data-name="Group 672" clip-path="url(#clip-path-21)">
                    <path id="Path_963" data-name="Path 963" d="M1197.749,1789.845H982.042a1.224,1.224,0,0,1-1.224-1.225v-31.114a1.224,1.224,0,0,1,1.224-1.225h215.707a1.225,1.225,0,0,1,1.224,1.225v31.114a1.225,1.225,0,0,1-1.224,1.225" transform="translate(-980.817 -1756.282)" fill="#fff"/>
                  </g>
                </g>
              </g>
              <g id="Group_677" data-name="Group 677" transform="translate(0 54.76)" opacity="0.65">
                <g id="Group_676" data-name="Group 676">
                  <g id="Group_675" data-name="Group 675" clip-path="url(#clip-path-21)">
                    <path id="Path_964" data-name="Path 964" d="M1191.258,2091.716H975.55a1.224,1.224,0,0,1-1.224-1.224v-31.114a1.225,1.225,0,0,1,1.224-1.225h215.708a1.224,1.224,0,0,1,1.224,1.225v31.114a1.224,1.224,0,0,1-1.224,1.224" transform="translate(-974.326 -2058.153)" fill="#fff"/>
                  </g>
                </g>
              </g>
              <g id="Group_680" data-name="Group 680" transform="translate(35.377 110.845)" opacity="0.65">
                <g id="Group_679" data-name="Group 679">
                  <g id="Group_678" data-name="Group 678" clip-path="url(#clip-path-23)">
                    <path id="Path_965" data-name="Path 965" d="M1308.769,2410.123H1170.861a1.511,1.511,0,0,1-1.511-1.512v-39.767a1.511,1.511,0,0,1,1.511-1.511h137.908a1.511,1.511,0,0,1,1.511,1.511v39.767a1.511,1.511,0,0,1-1.511,1.512" transform="translate(-1169.35 -2367.333)" fill="#fff"/>
                  </g>
                </g>
              </g>
            </g>
          </g>
        </g>
        <g id="Group_686" data-name="Group 686" transform="translate(187.586 326.195)" opacity="0.75">
          <g id="Group_685" data-name="Group 685">
            <g id="Group_684" data-name="Group 684" clip-path="url(#clip-path-24)">
              <path id="Path_966" data-name="Path 966" d="M1161.851,1816.837H1036.266a2.177,2.177,0,0,1-2.177-2.177v-14.293a2.177,2.177,0,0,1,2.177-2.177h125.585a2.177,2.177,0,0,1,2.177,2.177v14.293a2.177,2.177,0,0,1-2.177,2.177" transform="translate(-1034.089 -1798.19)" fill="#fff"/>
            </g>
          </g>
        </g>
        <g id="Group_689" data-name="Group 689" transform="translate(184.444 381.544)" opacity="0.75">
          <g id="Group_688" data-name="Group 688">
            <g id="Group_687" data-name="Group 687" clip-path="url(#clip-path-25)">
              <path id="Path_967" data-name="Path 967" d="M1032.079,2110.969a7.655,7.655,0,1,1-7.655-7.655,7.655,7.655,0,0,1,7.655,7.655" transform="translate(-1016.769 -2103.313)" fill="#fff"/>
              <path id="Path_968" data-name="Path 968" d="M1147.865,2113.135a7.655,7.655,0,1,1-7.655-7.655,7.655,7.655,0,0,1,7.655,7.655" transform="translate(-1111.551 -2105.086)" fill="#fff"/>
              <path id="Path_969" data-name="Path 969" d="M1259.3,2118.543a7.655,7.655,0,1,1-7.655-7.655,7.655,7.655,0,0,1,7.655,7.655" transform="translate(-1202.773 -2109.513)" fill="#fff"/>
              <path id="Path_970" data-name="Path 970" d="M1375.087,2120.709a7.655,7.655,0,1,1-7.655-7.655,7.655,7.655,0,0,1,7.655,7.655" transform="translate(-1297.555 -2111.286)" fill="#fff"/>
              <path id="Path_971" data-name="Path 971" d="M1490.855,2119.623a7.655,7.655,0,1,1-7.655-7.655,7.655,7.655,0,0,1,7.655,7.655" transform="translate(-1392.323 -2110.398)" fill="#fff"/>
              <path id="Path_972" data-name="Path 972" d="M1606.641,2121.789a7.655,7.655,0,1,1-7.655-7.655,7.655,7.655,0,0,1,7.655,7.655" transform="translate(-1487.105 -2112.171)" fill="#fff"/>
            </g>
          </g>
        </g>
      </g>
    </g>
    <g id="Group_693" data-name="Group 693" transform="translate(383.74 416.151)">
      <g id="Group_692" data-name="Group 692" clip-path="url(#clip-path-26)">
        <rect id="Rectangle_1059" data-name="Rectangle 1059" width="96.06" height="163.364" transform="matrix(0.932, -0.362, 0.362, 0.932, -53.752, 20.88)" fill="url(#linear-gradient-9)"/>
      </g>
    </g>
    <g id="Group_695" data-name="Group 695" transform="translate(364.767 375.11)">
      <g id="Group_694" data-name="Group 694" clip-path="url(#clip-path-27)">
        <rect id="Rectangle_1060" data-name="Rectangle 1060" width="58.075" height="204.339" transform="matrix(0.996, -0.085, 0.085, 0.996, -21.6, 1.465)" fill="url(#linear-gradient-10)"/>
      </g>
    </g>
    <g id="Group_697" data-name="Group 697" transform="translate(401.329 258.099)">
      <g id="Group_696" data-name="Group 696" clip-path="url(#clip-path-28)">
        <rect id="Rectangle_1061" data-name="Rectangle 1061" width="56.602" height="87.579" transform="translate(0 0)" fill="url(#linear-gradient-11)"/>
      </g>
    </g>
    <g id="Group_699" data-name="Group 699" transform="translate(361.754 556.679)">
      <g id="Group_698" data-name="Group 698" clip-path="url(#clip-path-29)">
        <rect id="Rectangle_1062" data-name="Rectangle 1062" width="37.552" height="35.157" transform="matrix(0.838, -0.546, 0.546, 0.838, -10.888, 6.609)" fill="url(#linear-gradient-12)"/>
      </g>
    </g>
    <g id="Group_701" data-name="Group 701" transform="translate(405.405 548.703)">
      <g id="Group_700" data-name="Group 700" clip-path="url(#clip-path-30)">
        <rect id="Rectangle_1063" data-name="Rectangle 1063" width="38.341" height="39.584" transform="translate(-14.201 7.579) rotate(-30.052)" fill="url(#linear-gradient-13)"/>
      </g>
    </g>
    <g id="Group_703" data-name="Group 703" transform="translate(357.784 330.099)">
      <g id="Group_702" data-name="Group 702" clip-path="url(#clip-path-31)">
        <rect id="Rectangle_1064" data-name="Rectangle 1064" width="228.551" height="163.899" transform="matrix(0.458, -0.889, 0.889, 0.458, -89.94, 174.4)" fill="url(#linear-gradient-14)"/>
      </g>
    </g>
    <g id="Group_705" data-name="Group 705" transform="translate(378.812 220.444)">
      <g id="Group_704" data-name="Group 704" clip-path="url(#clip-path-32)">
        <rect id="Rectangle_1065" data-name="Rectangle 1065" width="19.932" height="37.655" transform="translate(0)" fill="url(#linear-gradient-15)"/>
      </g>
    </g>
    <g id="Group_707" data-name="Group 707" transform="translate(356.474 253.971)">
      <g id="Group_706" data-name="Group 706" clip-path="url(#clip-path-33)">
        <rect id="Rectangle_1066" data-name="Rectangle 1066" width="98.457" height="102.196" transform="matrix(0.789, -0.615, 0.615, 0.789, -40.216, 31.081)" fill="url(#linear-gradient-16)"/>
      </g>
    </g>
    <g id="Group_709" data-name="Group 709" transform="translate(296.542 256.545)">
      <g id="Group_708" data-name="Group 708" clip-path="url(#clip-path-34)">
        <rect id="Rectangle_1067" data-name="Rectangle 1067" width="97.376" height="102.218" transform="translate(-28.722 50.136) rotate(-60.192)" fill="url(#linear-gradient-17)"/>
      </g>
    </g>
    <g id="Group_711" data-name="Group 711" transform="translate(281.761 288.781)">
      <g id="Group_710" data-name="Group 710" clip-path="url(#clip-path-35)">
        <rect id="Rectangle_1068" data-name="Rectangle 1068" width="27.157" height="28.064" transform="translate(-9.581 14.31) rotate(-60.192)" fill="url(#linear-gradient-18)"/>
      </g>
    </g>
    <g id="Group_713" data-name="Group 713" transform="translate(368.992 200.96)">
      <g id="Group_712" data-name="Group 712" clip-path="url(#clip-path-36)">
        <rect id="Rectangle_1069" data-name="Rectangle 1069" width="50.892" height="48.227" transform="matrix(0.564, -0.825, 0.825, 0.564, -21.834, 27.774)" fill="url(#linear-gradient-19)"/>
      </g>
    </g>
    <g id="Group_715" data-name="Group 715" transform="translate(366.291 189.801)">
      <g id="Group_714" data-name="Group 714" clip-path="url(#clip-path-37)">
        <rect id="Rectangle_1070" data-name="Rectangle 1070" width="186.011" height="186.675" transform="translate(-66.359 50.072) rotate(-37.569)" fill="url(#linear-gradient-20)"/>
      </g>
    </g>
    <g id="Group_726" data-name="Group 726">
      <g id="Group_725" data-name="Group 725" clip-path="url(#clip-path)">
        <g id="Group_718" data-name="Group 718" transform="translate(455.928 249.955)" opacity="0.6">
          <g id="Group_717" data-name="Group 717">
            <g id="Group_716" data-name="Group 716" clip-path="url(#clip-path-39)">
              <path id="Path_985" data-name="Path 985" d="M2541.489,1417.27a.538.538,0,0,0,.523-.412c2.632-10.926,1.438-19.887-3.551-26.633-8.278-11.2-24.367-12.3-24.529-12.315a.548.548,0,0,0-.57.5.537.537,0,0,0,.5.57c.157.01,15.759,1.092,23.734,11.887,4.787,6.478,5.919,15.137,3.365,25.735a.539.539,0,0,0,.4.65.585.585,0,0,0,.126.015" transform="translate(-2513.361 -1377.906)" fill="#fff"/>
            </g>
          </g>
        </g>
        <g id="Group_721" data-name="Group 721" transform="translate(391.976 239.191)" opacity="0.72">
          <g id="Group_720" data-name="Group 720">
            <g id="Group_719" data-name="Group 719" clip-path="url(#clip-path-40)">
              <path id="Path_986" data-name="Path 986" d="M2200.208,1378.7a.3.3,0,0,0,.068-.008.271.271,0,0,0,.192-.329c-2.563-9.836-7.062-16.667-13.369-20.3-4.588-2.647-8.885-2.893-12.675-3.11-3.655-.21-6.811-.392-9.352-2.651-5.251-4.67-4.947-15.9.9-33.372a.269.269,0,0,0-.511-.17c-5.926,17.7-6.178,29.117-.75,33.944,2.68,2.384,5.922,2.571,9.678,2.787,3.73.214,7.959.457,12.437,3.04,6.178,3.562,10.591,10.282,13.117,19.975a.269.269,0,0,0,.261.2" transform="translate(-2160.824 -1318.574)" fill="#fff"/>
            </g>
          </g>
        </g>
        <g id="Group_724" data-name="Group 724" transform="translate(371.485 202.52)" opacity="0.72">
          <g id="Group_723" data-name="Group 723">
            <g id="Group_722" data-name="Group 722" clip-path="url(#clip-path-41)">
              <path id="Path_987" data-name="Path 987" d="M2078.425,1130.431a.277.277,0,0,0,.086-.014.27.27,0,0,0,.169-.342c-2.038-6.063-7.91-5.162-14.131-4.205-3.937.606-8.008,1.229-11.461.207-2.576-.764-4.107-1.947-4.549-3.519-.756-2.675,1.891-5.658,1.917-5.689a.269.269,0,0,0-.4-.36c-.118.131-2.871,3.23-2.037,6.193.5,1.76,2.149,3.069,4.915,3.889,3.571,1.057,7.7.424,11.7-.19,6.245-.959,11.644-1.79,13.538,3.846a.269.269,0,0,0,.255.183" transform="translate(-2047.862 -1116.421)" fill="#fff"/>
            </g>
          </g>
        </g>
      </g>
    </g>
    <g id="Group_728" data-name="Group 728" transform="translate(461.374 105.041)">
      <g id="Group_727" data-name="Group 727" clip-path="url(#clip-path-42)">
        <rect id="Rectangle_1075" data-name="Rectangle 1075" width="122.138" height="123.155" transform="matrix(0.261, -0.965, 0.965, 0.261, -25.047, 92.476)" fill="url(#linear-gradient-21)"/>
      </g>
    </g>
    <g id="Group_730" data-name="Group 730" transform="translate(466.093 109.626)">
      <g id="Group_729" data-name="Group 729" clip-path="url(#clip-path-43)">
        <rect id="Rectangle_1076" data-name="Rectangle 1076" width="118.495" height="119.188" transform="matrix(0.391, -0.92, 0.92, 0.391, -32.387, 76.191)" fill="url(#linear-gradient-22)"/>
      </g>
    </g>
    <g id="Group_732" data-name="Group 732">
      <g id="Group_731" data-name="Group 731" clip-path="url(#clip-path)">
        <path id="Path_990" data-name="Path 990" d="M2725.129,700.622h-4.2V683.881a13.032,13.032,0,0,1,11.449-12.925l8.589-1.044a13.019,13.019,0,0,1,14.59,12.925v14.615h-4.2V682.837a8.819,8.819,0,0,0-9.883-8.755l-8.589,1.044a8.827,8.827,0,0,0-7.755,8.755Z" transform="translate(-2227.347 -548.311)" fill="#fff"/>
        <path id="Path_991" data-name="Path 991" d="M2702.958,809.687l36.824-2.04a2.61,2.61,0,0,1,2.754,2.606v29.172a2.61,2.61,0,0,1-2.61,2.609h-35.939a2.609,2.609,0,0,1-2.608-2.524l-.885-27.132a2.61,2.61,0,0,1,2.464-2.691" transform="translate(-2210.619 -661.135)" fill="#fff"/>
      </g>
    </g>
    <g id="Group_734" data-name="Group 734" transform="translate(504.77 153.594)">
      <g id="Group_733" data-name="Group 733" clip-path="url(#clip-path-45)">
        <rect id="Rectangle_1078" data-name="Rectangle 1078" width="22.999" height="14.788" transform="translate(-2.225 21.592) rotate(-84.117)" fill="url(#linear-gradient-23)"/>
      </g>
    </g>
    <g id="Group_752" data-name="Group 752">
      <g id="Group_751" data-name="Group 751" clip-path="url(#clip-path)">
        <g id="Group_741" data-name="Group 741" transform="translate(84.784 443.661)" opacity="0.3">
          <g id="Group_740" data-name="Group 740">
            <g id="Group_739" data-name="Group 739" clip-path="url(#clip-path-47)">
              <g id="Group_736" data-name="Group 736" transform="translate(0 14.535)">
                <g id="Group_735" data-name="Group 735" clip-path="url(#clip-path-48)">
                  <rect id="Rectangle_1079" data-name="Rectangle 1079" width="146.184" height="128.068" transform="translate(-32.783 16.222) rotate(-26.391)" fill="url(#linear-gradient-24)"/>
                </g>
              </g>
              <g id="Group_738" data-name="Group 738" transform="translate(0.372 0)">
                <g id="Group_737" data-name="Group 737" clip-path="url(#clip-path-49)">
                  <rect id="Rectangle_1080" data-name="Rectangle 1080" width="7.439" height="8.885" transform="translate(-3.168 1.374) rotate(-26.391)" fill="url(#linear-gradient-25)"/>
                </g>
              </g>
            </g>
          </g>
        </g>
        <g id="Group_750" data-name="Group 750" transform="translate(114.321 374.759)" opacity="0.3">
          <g id="Group_749" data-name="Group 749">
            <g id="Group_748" data-name="Group 748" clip-path="url(#clip-path-50)">
              <g id="Group_743" data-name="Group 743" transform="translate(0 14.994)">
                <g id="Group_742" data-name="Group 742" clip-path="url(#clip-path-51)">
                  <rect id="Rectangle_1082" data-name="Rectangle 1082" width="9.193" height="9.066" transform="translate(-2.911 1.038) rotate(-26.391)" fill="url(#linear-gradient-26)"/>
                </g>
              </g>
              <g id="Group_745" data-name="Group 745" transform="translate(11.451 0)">
                <g id="Group_744" data-name="Group 744" clip-path="url(#clip-path-52)">
                  <rect id="Rectangle_1083" data-name="Rectangle 1083" width="143.12" height="129.213" transform="translate(-34.612 17.003) rotate(-26.391)" fill="url(#linear-gradient-27)"/>
                </g>
              </g>
              <g id="Group_747" data-name="Group 747" transform="translate(122.776 93.029)">
                <g id="Group_746" data-name="Group 746" clip-path="url(#clip-path-53)">
                  <rect id="Rectangle_1084" data-name="Rectangle 1084" width="7.652" height="9.025" transform="matrix(0.896, -0.444, 0.444, 0.896, -3.255, 1.38)" fill="url(#linear-gradient-28)"/>
                </g>
              </g>
            </g>
          </g>
        </g>
      </g>
    </g>
    <g id="Group_754" data-name="Group 754" transform="translate(105.267 397.114)">
      <g id="Group_753" data-name="Group 753" clip-path="url(#clip-path-54)">
        <rect id="Rectangle_1087" data-name="Rectangle 1087" width="147.694" height="143.623" transform="translate(-30.972 113.055) rotate(-74.717)" fill="url(#linear-gradient-29)"/>
      </g>
    </g>
    <g id="Group_776" data-name="Group 776">
      <g id="Group_775" data-name="Group 775" clip-path="url(#clip-path)">
        <g id="Group_757" data-name="Group 757" transform="translate(149.489 443.607)" opacity="0.56">
          <g id="Group_756" data-name="Group 756">
            <g id="Group_755" data-name="Group 755" clip-path="url(#clip-path-56)">
              <path id="Path_999" data-name="Path 999" d="M849.748,2453.353a14.658,14.658,0,0,1-4.389,17.987,13.163,13.163,0,0,1-18.847-3.593,14.708,14.708,0,0,1-2.216-10.637,14.162,14.162,0,0,1,5.591-9.148,13.163,13.163,0,0,1,18.847,3.593,14.544,14.544,0,0,1,1.014,1.8m-21.429,11.112a11.215,11.215,0,0,0,.785,1.393,10.092,10.092,0,0,0,14.45,2.755,11.252,11.252,0,0,0,2.589-15.17,10.092,10.092,0,0,0-14.45-2.755,10.862,10.862,0,0,0-4.287,7.015,11.321,11.321,0,0,0,.914,6.763" transform="translate(-824.08 -2445.437)" fill="#fff"/>
            </g>
          </g>
        </g>
        <g id="Group_760" data-name="Group 760" transform="translate(129.455 422.737)" opacity="0.56">
          <g id="Group_759" data-name="Group 759">
            <g id="Group_758" data-name="Group 758" clip-path="url(#clip-path-57)">
              <path id="Path_1000" data-name="Path 1000" d="M776.721,2349.811q.758,1.6,1.368,3.3.192.533.367,1.073a36.743,36.743,0,0,1,1.315,5.43l.012.075c.011.071.023.142.033.213.022.139.042.278.062.416a.838.838,0,0,1-.428.864.759.759,0,0,1-.236.077.8.8,0,0,1-.9-.7,34.9,34.9,0,0,0-1.705-6.866,32.3,32.3,0,0,0-23.212-20.9,30.077,30.077,0,0,0-17.652,1.395,31.22,31.22,0,0,0-2.991,1.363,32.274,32.274,0,0,0-14.707,16.034,34.612,34.612,0,0,0-.772,25.476c6.178,17.2,24.506,25.946,40.864,19.5a30.856,30.856,0,0,0,2.953-1.346,31.848,31.848,0,0,0,10.694-9.074.791.791,0,0,1,.267-.227.759.759,0,0,1,.842.095.858.858,0,0,1,.129,1.165A33.439,33.439,0,0,1,761.8,2396.7a32.583,32.583,0,0,1-3.1,1.413c-17.174,6.765-36.42-2.426-42.9-20.473a36.335,36.335,0,0,1,.811-26.744,33.883,33.883,0,0,1,15.439-16.833,33.219,33.219,0,0,1,3.14-1.43,31.628,31.628,0,0,1,25.466.915,33.945,33.945,0,0,1,16.066,16.262" transform="translate(-713.636 -2330.392)" fill="#fff"/>
            </g>
          </g>
        </g>
        <g id="Group_767" data-name="Group 767" transform="translate(196.636 538.703)" opacity="0.3">
          <g id="Group_766" data-name="Group 766">
            <g id="Group_765" data-name="Group 765" clip-path="url(#clip-path-58)">
              <g id="Group_762" data-name="Group 762" transform="translate(82.027 24.634)">
                <g id="Group_761" data-name="Group 761" clip-path="url(#clip-path-59)">
                  <rect id="Rectangle_1090" data-name="Rectangle 1090" width="6.678" height="6.661" transform="translate(-2.126 0.839) rotate(-26.391)" fill="url(#linear-gradient-30)"/>
                </g>
              </g>
              <g id="Group_764" data-name="Group 764" transform="translate(0 0)">
                <g id="Group_763" data-name="Group 763" clip-path="url(#clip-path-60)">
                  <rect id="Rectangle_1091" data-name="Rectangle 1091" width="89.84" height="72.717" transform="translate(-16.732 8.108) rotate(-26.391)" fill="url(#linear-gradient-31)"/>
                </g>
              </g>
            </g>
          </g>
        </g>
        <g id="Group_774" data-name="Group 774" transform="translate(246.162 469.574)" opacity="0.3">
          <g id="Group_773" data-name="Group 773">
            <g id="Group_772" data-name="Group 772" clip-path="url(#clip-path-61)">
              <g id="Group_769" data-name="Group 769" transform="translate(0 0)">
                <g id="Group_768" data-name="Group 768" clip-path="url(#clip-path-62)">
                  <rect id="Rectangle_1093" data-name="Rectangle 1093" width="73.591" height="75.179" transform="translate(-22.802 11.309) rotate(-26.391)" fill="url(#linear-gradient-32)"/>
                </g>
              </g>
              <g id="Group_771" data-name="Group 771" transform="translate(50.335 61.278)">
                <g id="Group_770" data-name="Group 770" clip-path="url(#clip-path-63)">
                  <rect id="Rectangle_1094" data-name="Rectangle 1094" width="5.368" height="6.656" transform="matrix(0.896, -0.444, 0.444, 0.896, -2.459, 1.084)" fill="url(#linear-gradient-33)"/>
                </g>
              </g>
            </g>
          </g>
        </g>
      </g>
    </g>
    <g id="Group_778" data-name="Group 778" transform="translate(208.179 484.425)">
      <g id="Group_777" data-name="Group 777" clip-path="url(#clip-path-64)">
        <rect id="Rectangle_1097" data-name="Rectangle 1097" width="99.998" height="97.381" transform="translate(-22.271 74.691) rotate(-73.434)" fill="url(#linear-gradient-34)"/>
      </g>
    </g>
    <g id="Group_786" data-name="Group 786">
      <g id="Group_785" data-name="Group 785" clip-path="url(#clip-path)">
        <g id="Group_781" data-name="Group 781" transform="translate(237.616 515.358)" opacity="0.56">
          <g id="Group_780" data-name="Group 780">
            <g id="Group_779" data-name="Group 779" clip-path="url(#clip-path-66)">
              <path id="Path_1006" data-name="Path 1006" d="M1327.372,2846.391a10.057,10.057,0,0,1,.812,6.009,9.649,9.649,0,0,1-3.809,6.231,8.966,8.966,0,0,1-12.837-2.447,10,10,0,0,1,2.3-13.478,8.8,8.8,0,0,1,6.895-1.568,9.159,9.159,0,0,1,5.943,4.016,10.039,10.039,0,0,1,.7,1.237m-14.341,7.433a7.3,7.3,0,0,0,.508.9,6.6,6.6,0,0,0,9.443,1.8,7.1,7.1,0,0,0,2.8-4.583,7.385,7.385,0,0,0-1.11-5.33,6.741,6.741,0,0,0-4.371-2.954,6.476,6.476,0,0,0-5.073,1.154,7.346,7.346,0,0,0-2.2,9.013" transform="translate(-1309.889 -2840.979)" fill="#fff"/>
            </g>
          </g>
        </g>
        <g id="Group_784" data-name="Group 784" transform="translate(223.674 500.857)" opacity="0.56">
          <g id="Group_783" data-name="Group 783">
            <g id="Group_782" data-name="Group 782" clip-path="url(#clip-path-67)">
              <path id="Path_1007" data-name="Path 1007" d="M1276.563,2774.447q.516,1.089.934,2.25a25.29,25.29,0,0,1,1.2,4.753c.011.073.021.146.031.219a1.294,1.294,0,0,1-.661,1.334,1.182,1.182,0,0,1-.365.119,1.235,1.235,0,0,1-1.386-1.081,22.546,22.546,0,0,0-1.1-4.445h0c-.028-.079-.057-.158-.086-.236a21.432,21.432,0,0,0-5.832-8.615,20.6,20.6,0,0,0-4.663-3.129l-.041-.02-.127-.061a19.5,19.5,0,0,0-15.7-.564,20.19,20.19,0,0,0-1.937.882,20.9,20.9,0,0,0-9.521,10.381,22.409,22.409,0,0,0-.5,16.491,21.123,21.123,0,0,0,10.75,12.062,19.5,19.5,0,0,0,15.7.564,20.016,20.016,0,0,0,1.911-.87,20.624,20.624,0,0,0,6.923-5.875,1.214,1.214,0,0,1,.412-.35,1.172,1.172,0,0,1,1.3.146,1.326,1.326,0,0,1,.2,1.8,23.087,23.087,0,0,1-7.745,6.573,22.432,22.432,0,0,1-2.138.975,21.82,21.82,0,0,1-17.57-.632,23.587,23.587,0,0,1-12.027-13.493,25.061,25.061,0,0,1,.56-18.451,23.373,23.373,0,0,1,10.652-11.614,22.758,22.758,0,0,1,2.166-.987c11.113-4.376,23.481.925,28.663,11.874" transform="translate(-1233.031 -2761.038)" fill="#fff"/>
            </g>
          </g>
        </g>
      </g>
    </g>
  </g>
</svg>
