<svg xmlns="http://www.w3.org/2000/svg" xmlns:xlink="http://www.w3.org/1999/xlink" width="76.01" height="23.305" viewBox="0 0 76.01 23.305">
  <defs>
    <clipPath id="clip-path">
      <rect id="Rectangle_1006" data-name="Rectangle 1006" width="76.01" height="23.305" fill="none"/>
    </clipPath>
  </defs>
  <g id="Group_1423" data-name="Group 1423" transform="translate(-463 -28)">
    <g id="Group_577" data-name="Group 577" transform="translate(463 28)">
      <path id="Path_752" data-name="Path 752" d="M19.035.223,15.189,22.8H21.34L25.191.223Z" transform="translate(11.587 0.171)" fill="#004790"/>
      <g id="Group_576" data-name="Group 576">
        <g id="Group_575" data-name="Group 575" clip-path="url(#clip-path)">
          <path id="Path_753" data-name="Path 753" d="M39.331.948A15.864,15.864,0,0,0,33.815,0c-6.08,0-10.364,3.062-10.4,7.45-.035,3.244,3.057,5.056,5.391,6.135,2.4,1.107,3.2,1.812,3.193,2.8-.018,1.513-1.914,2.2-3.684,2.2A12.9,12.9,0,0,1,22.522,17.4l-.792-.358L20.865,22.1a19.5,19.5,0,0,0,6.856,1.2c6.47,0,10.667-3.027,10.715-7.714.025-2.567-1.615-4.522-5.165-6.133-2.151-1.045-3.469-1.742-3.455-2.8,0-.938,1.114-1.943,3.526-1.943a11.313,11.313,0,0,1,4.6.866l.554.261Z" transform="translate(15.917 0.001)" fill="#004790"/>
          <path id="Path_754" data-name="Path 754" d="M47.7.235H42.941a3.061,3.061,0,0,0-3.223,1.872L30.582,22.8h6.463S38.1,20.016,38.339,19.4c.705,0,6.983.011,7.882.011.182.79.747,3.383.747,3.383H52.68ZM40.109,14.787c.509-1.3,2.452-6.313,2.452-6.313-.035.062.506-1.306.816-2.154l.416,1.946s1.178,5.389,1.424,6.521Z" transform="translate(23.33 0.18)" fill="#004790"/>
          <path id="Path_755" data-name="Path 755" d="M18.836.232l-6.025,15.4L12.167,12.5C11.047,8.893,7.553,4.985,3.645,3.028L9.154,22.776l6.51-.009L25.353.232Z" transform="translate(2.781 0.178)" fill="#004790"/>
          <path id="Path_756" data-name="Path 756" d="M10,.224H.076L0,.693C7.72,2.563,12.83,7.08,14.947,12.506L12.791,2.13C12.419.7,11.339.273,10,.224" transform="translate(0 0.171)" fill="#fc9200"/>
        </g>
      </g>
    </g>
  </g>
</svg>
