<svg id="Group_563" data-name="Group 563" xmlns="http://www.w3.org/2000/svg" xmlns:xlink="http://www.w3.org/1999/xlink" width="311.032" height="268.089" viewBox="0 0 311.032 268.089">
  <defs>
    <clipPath id="clip-path">
      <rect id="Rectangle_985" data-name="Rectangle 985" width="311.033" height="268.089" fill="none"/>
    </clipPath>
    <clipPath id="clip-path-3">
      <rect id="Rectangle_982" data-name="Rectangle 982" width="24.334" height="64.207" fill="none"/>
    </clipPath>
    <clipPath id="clip-path-4">
      <rect id="Rectangle_983" data-name="Rectangle 983" width="87.486" height="91.601" fill="none"/>
    </clipPath>
  </defs>
  <g id="Group_562" data-name="Group 562" clip-path="url(#clip-path)">
    <g id="Group_561" data-name="Group 561">
      <g id="Group_560" data-name="Group 560" clip-path="url(#clip-path)">
        <path id="Path_629" data-name="Path 629" d="M239.19,126.887A105.073,105.073,0,1,0,134.118,231.959,105.073,105.073,0,0,0,239.19,126.887" transform="translate(19.976 15.003)" fill="#baf4ee"/>
        <g id="Group_556" data-name="Group 556" transform="translate(215.577 153.43)" opacity="0.73">
          <g id="Group_555" data-name="Group 555">
            <g id="Group_554" data-name="Group 554" clip-path="url(#clip-path-3)">
              <path id="Path_630" data-name="Path 630" d="M152.063,104.623v35.326a105.7,105.7,0,0,1-13.04,15.166V104.623h-.019v-.12c-.061-.262-6.4-5.517-11.274-9.509V92.787l5.9-1.524a11.209,11.209,0,0,1,7.242.562c1.023.441,2.086.862,3.149,1.2v4.614c4.874,3.992,7.964,6.6,8.024,6.861v.12Z" transform="translate(-127.729 -90.908)" fill="#7fd6cb"/>
            </g>
          </g>
        </g>
        <path id="Path_631" data-name="Path 631" d="M2.7,4.194,33.529,76.54,56.066,61.124,69.126,80.1l2.356-32.013L98.756,31.468Z" transform="translate(1.854 2.885)" fill="#ffb031"/>
        <path id="Path_632" data-name="Path 632" d="M50.741,50.359,23.21,69.2,45.745,53.784,58.8,72.761l2.358-32.012L17.7,14.866Z" transform="translate(12.174 10.224)" fill="#ff9433"/>
        <path id="Path_633" data-name="Path 633" d="M60.584,48.6,17.7,14.865l43.46,25.883Z" transform="translate(12.174 10.224)" fill="#f73"/>
        <path id="Path_634" data-name="Path 634" d="M42.756,56.45c-.243-1.409-.552-2.815-.916-4.181l2.115-.567c.383,1.43.7,2.9.959,4.375Z" transform="translate(28.776 35.558)" fill="#00c8b7"/>
        <path id="Path_635" data-name="Path 635" d="M34.089,100.163A18.1,18.1,0,0,1,25.3,97.232l1.21-1.824a15.917,15.917,0,0,0,7.727,2.572Zm9.092-1.784-.965-1.965a22.045,22.045,0,0,0,6.547-5.156l1.629,1.462a24.2,24.2,0,0,1-7.21,5.659M19.206,90.241a18.043,18.043,0,0,1-1.885-7.951c0-.223,0-.444.014-.665l.025-.476,2.182.16-.022.4c-.007.2-.01.388-.01.581a15.849,15.849,0,0,0,1.659,6.982Zm84.685-.5-.012-2.189c2.852-.014,5.786-.13,8.719-.346l.16,2.182c-2.982.219-5.966.339-8.867.353m-8.879-.287-1.4-.108c-2.69-.224-5.127-.527-7.451-.93l.371-2.155c2.262.392,4.636.685,7.262.9l1.369.1Zm26.565-1-.3-2.169c2.815-.383,5.718-.862,8.624-1.423l.415,2.149c-2.947.569-5.889,1.055-8.744,1.443M77.464,86.246A42.373,42.373,0,0,1,70.3,83.07c-.343-.192-.685-.393-1.024-.6L70.4,80.6c.319.194.64.381.967.564a40.121,40.121,0,0,0,6.8,3.014Zm-21.843-.871-1.9-1.09a49.212,49.212,0,0,0,3.612-7.8l2.057.741a51.386,51.386,0,0,1-3.77,8.154m83.35-.243-.515-2.127c2.738-.665,5.586-1.418,8.466-2.243l.6,2.106c-2.91.832-5.787,1.592-8.555,2.263m17.007-4.847L155.3,78.2q4.172-1.354,8.305-2.825l.731,2.064q-4.154,1.476-8.361,2.842M61.964,77.4a60.334,60.334,0,0,0-6.516-4.289l-.731-.388,1-1.944c.26.133.522.272.78.412a63.446,63.446,0,0,1,6.754,4.439ZM22.609,74.109,21.08,72.545a18.7,18.7,0,0,1,8.056-4.322l.734,2.066a17.044,17.044,0,0,0-7.261,3.821m24.113-4.273A34.893,34.893,0,0,0,39.135,69l-.886.01L38.2,66.82A37.024,37.024,0,0,1,47.2,67.7ZM61.7,68.547l-2.155-.383a50.624,50.624,0,0,0,.778-8.57l2.187.012a52.761,52.761,0,0,1-.81,8.942" transform="translate(11.913 40.985)" fill="#00c8b7"/>
        <path id="Path_636" data-name="Path 636" d="M109.711,69.816l-.778-2.046q2.043-.78,4.081-1.576l.795,2.039q-2.043.8-4.1,1.583" transform="translate(74.919 45.525)" fill="#00c8b7"/>
        <path id="Path_637" data-name="Path 637" d="M151.111,109.277a2.188,2.188,0,0,1-.209-4.366,51.992,51.992,0,0,0,34.266-17.78,2.188,2.188,0,1,1,3.3,2.874,56.331,56.331,0,0,1-37.142,19.262c-.073.007-.143.01-.214.01" transform="translate(102.423 59.407)" fill="#00c8b7"/>
        <path id="Path_638" data-name="Path 638" d="M196.56,124.052l-76.253,44.967L44.055,124.052a.4.4,0,0,1,.013-.125c.062-.285,4.27-3.8,10.689-9.013.062-.049.111-.1.174-.147,21.056-17.1,65.377-52.108,65.377-52.108s44.32,35.012,65.377,52.108c6.518,5.286,10.8,8.862,10.862,9.159a.4.4,0,0,1,.013.125" transform="translate(30.299 43.095)" fill="#7a4c08"/>
        <path id="Path_639" data-name="Path 639" d="M146.547,40.6H64.276A12.777,12.777,0,0,0,51.5,53.372V177.766a12.776,12.776,0,0,0,12.776,12.776h103.09a12.776,12.776,0,0,0,12.776-12.776V74.191Z" transform="translate(35.419 27.92)" fill="#fff"/>
        <path id="Path_640" data-name="Path 640" d="M107.816,61.414A12.777,12.777,0,0,0,120.592,74.19h20.818L107.816,40.6Z" transform="translate(74.151 27.921)" fill="#e6e8e8"/>
        <path id="Path_641" data-name="Path 641" d="M95.965,53.055H67.582a4.551,4.551,0,0,0-4.552,4.552V85.99a4.552,4.552,0,0,0,4.552,4.552H95.965a4.553,4.553,0,0,0,4.552-4.552V57.607a4.552,4.552,0,0,0-4.552-4.552" transform="translate(43.349 36.489)" fill="#01baef"/>
        <path id="Path_642" data-name="Path 642" d="M134.829,81.438H66.722a3.667,3.667,0,0,0,0,7.335h68.108a3.667,3.667,0,0,0,0-7.335" transform="translate(43.367 56.009)" fill="#d9dbdb"/>
        <path id="Path_643" data-name="Path 643" d="M134.829,92.262H66.722a3.667,3.667,0,0,0,0,7.335h68.108a3.667,3.667,0,0,0,0-7.335" transform="translate(43.367 63.453)" fill="#d9dbdb"/>
        <path id="Path_644" data-name="Path 644" d="M103.9,102.762H66.723a3.667,3.667,0,0,0,0,7.335H103.9a3.667,3.667,0,1,0,0-7.335" transform="translate(43.367 70.675)" fill="#d9dbdb"/>
        <path id="Path_645" data-name="Path 645" d="M196.565,99.034v73.154a9.317,9.317,0,0,1-9.293,9.293H53.327a9.294,9.294,0,0,1-9.266-9.293V99.034l76.251,44.96Z" transform="translate(30.303 68.111)" fill="#ffb031"/>
        <path id="Path_646" data-name="Path 646" d="M192.943,166.161l-49.078-49.078-24.6,14.5-24.606-14.51L45.58,166.158a9.2,9.2,0,0,0,6.7,2.915H186.227a9.245,9.245,0,0,0,6.716-2.911" transform="translate(31.348 80.519)" fill="#ff9433"/>
        <path id="Path_647" data-name="Path 647" d="M160.324,39.626a46,46,0,0,0-41.056,42.248A45.478,45.478,0,0,0,127.3,111.22a11.11,11.11,0,0,1,1.058,10.589l-3.62,8.714,14.8-3.836a11.166,11.166,0,0,1,7.244.562,45.81,45.81,0,1,0,13.543-87.623" transform="translate(81.945 27.096)" fill="#2dd782"/>
        <path id="Path_648" data-name="Path 648" d="M157.191,96.466l2.518-2.518s-2-4.712,6.383-12.66c4.989-4.729,6.108-9.31,5.7-13.055A13.082,13.082,0,0,0,160.32,56.76c-3.745-.407-8.326.711-13.056,5.7-7.946,8.383-12.66,6.383-12.66,6.383l-2.516,2.516Z" transform="translate(90.843 38.984)" fill="#fff"/>
        <path id="Path_649" data-name="Path 649" d="M136,71.144a6.938,6.938,0,0,0,9.7,9.7Z" transform="translate(92.611 48.929)" fill="#fff"/>
        <path id="Path_650" data-name="Path 650" d="M159.264,60.912,157.7,62.48a15.142,15.142,0,0,0-4.832-4.807l1.581-1.58a3.407,3.407,0,1,1,4.819,4.819" transform="translate(105.133 37.889)" fill="#fff"/>
        <g id="Group_559" data-name="Group 559" transform="translate(205.222 66.509)" opacity="0.3">
          <g id="Group_558" data-name="Group 558">
            <g id="Group_557" data-name="Group 557" clip-path="url(#clip-path-4)">
              <path id="Path_651" data-name="Path 651" d="M162.04,39.424A39.567,39.567,0,1,1,121.6,104.108a45.773,45.773,0,0,0,4.025,7.105,11.11,11.11,0,0,1,1.058,10.589l-3.62,8.716,14.8-3.836a11.164,11.164,0,0,1,7.244.56A45.8,45.8,0,1,0,162.04,39.424" transform="translate(-121.595 -39.407)" fill="#0e8934"/>
            </g>
          </g>
        </g>
        <path id="Path_652" data-name="Path 652" d="M6.046,17.47l10,22.95a2.305,2.305,0,0,1-1.2,3.036l-.356.154a2.307,2.307,0,0,1-3.04-1.22L1.806,19.285a2.306,2.306,0,0,1,4.24-1.814" transform="translate(1.117 11.061)" fill="#ffb031"/>
        <path id="Path_653" data-name="Path 653" d="M30.456,112.6a7.353,7.353,0,1,0,7.352,7.352,7.354,7.354,0,0,0-7.352-7.352m0,10.329a2.976,2.976,0,1,1,2.976-2.977,2.978,2.978,0,0,1-2.976,2.977" transform="translate(15.888 77.442)" fill="#baf4ee"/>
        <path id="Path_654" data-name="Path 654" d="M147.2,130.231a7.354,7.354,0,1,0,7.354,7.354,7.352,7.352,0,0,0-7.354-7.354m0,10.331a2.976,2.976,0,1,1,2.975-2.977,2.978,2.978,0,0,1-2.975,2.977" transform="translate(96.182 89.567)" fill="#baf4ee"/>
        <path id="Path_655" data-name="Path 655" d="M182.143,62.564a5.63,5.63,0,1,0,5.63,5.63,5.63,5.63,0,0,0-5.63-5.63m0,7.909a2.279,2.279,0,1,1,2.28-2.278,2.279,2.279,0,0,1-2.28,2.278" transform="translate(121.398 43.029)" fill="#baf4ee"/>
        <path id="Path_656" data-name="Path 656" d="M123.538,9.2a5.953,5.953,0,1,0,5.951,5.953A5.954,5.954,0,0,0,123.538,9.2m0,8.363a2.409,2.409,0,1,1,2.41-2.41,2.41,2.41,0,0,1-2.41,2.41" transform="translate(80.869 6.329)" fill="#baf4ee"/>
        <path id="Path_657" data-name="Path 657" d="M10.843,91.381A6.259,6.259,0,1,0,17.1,97.639a6.258,6.258,0,0,0-6.258-6.258" transform="translate(3.153 62.848)" fill="#baf4ee"/>
        <path id="Path_658" data-name="Path 658" d="M158.924,103.656a4.552,4.552,0,1,0,4.552,4.552,4.553,4.553,0,0,0-4.552-4.552" transform="translate(106.17 71.29)" fill="#baf4ee"/>
        <path id="Path_659" data-name="Path 659" d="M70.464,10.311a6.653,6.653,0,1,0,6.653,6.653,6.653,6.653,0,0,0-6.653-6.653" transform="translate(43.886 7.091)" fill="#baf4ee"/>
        <path id="Path_660" data-name="Path 660" d="M90.832,153.1a4.848,4.848,0,1,0,4.847,4.849,4.849,4.849,0,0,0-4.847-4.849" transform="translate(59.135 105.294)" fill="#baf4ee"/>
        <path id="Path_661" data-name="Path 661" d="M146.775,25.515a5.689,5.689,0,1,0,5.689,5.689,5.689,5.689,0,0,0-5.689-5.689" transform="translate(97.032 17.548)" fill="#baf4ee"/>
        <path id="Path_662" data-name="Path 662" d="M26.359,51.726a3.239,3.239,0,1,0,3.239,3.24,3.239,3.239,0,0,0-3.239-3.24" transform="translate(15.901 35.575)" fill="#baf4ee"/>
        <path id="Path_663" data-name="Path 663" d="M183.265,45.751a5.526,5.526,0,1,0,5.526,5.526,5.525,5.525,0,0,0-5.526-5.526" transform="translate(122.242 31.465)" fill="#baf4ee"/>
        <path id="Path_664" data-name="Path 664" d="M7.891,63.076A3.526,3.526,0,1,0,11.416,66.6a3.526,3.526,0,0,0-3.526-3.526" transform="translate(3.002 43.381)" fill="#baf4ee"/>
        <path id="Path_665" data-name="Path 665" d="M97.686,5.582,99.9,3.367A1.974,1.974,0,0,0,97.109.576L94.895,2.79,92.68.576a1.974,1.974,0,0,0-2.792,2.792L92.1,5.582,89.889,7.8a1.974,1.974,0,0,0,2.792,2.792l2.214-2.214,2.214,2.214A1.974,1.974,0,1,0,99.9,7.8Z" transform="translate(61.425 0)" fill="#baf4ee"/>
        <path id="Path_666" data-name="Path 666" d="M8.373,45.23l2.214-2.214A1.974,1.974,0,1,0,7.8,40.224L5.582,42.439,3.367,40.224A1.974,1.974,0,0,0,.576,43.016L2.79,45.23.576,47.444a1.974,1.974,0,0,0,2.792,2.792l2.214-2.214L7.8,50.236a1.974,1.974,0,0,0,2.792-2.792Z" transform="translate(0 27.269)" fill="#baf4ee"/>
        <path id="Path_667" data-name="Path 667" d="M162.6,125l1.875-1.875a1.671,1.671,0,0,0-2.363-2.365l-1.875,1.877-1.877-1.877a1.672,1.672,0,0,0-2.365,2.365L157.869,125l-1.875,1.875a1.672,1.672,0,0,0,2.365,2.365l1.877-1.875,1.875,1.875a1.671,1.671,0,0,0,2.363-2.365Z" transform="translate(106.95 82.718)" fill="#baf4ee"/>
      </g>
    </g>
  </g>
</svg>
