<svg xmlns="http://www.w3.org/2000/svg" width="100" height="100" viewBox="0 0 100 100">
  <g id="Group_565" data-name="Group 565" transform="translate(-1730.953 -1367.141)">
    <path id="Path_679" data-name="Path 679" d="M415.621,180.719,400.445,195.9a3.148,3.148,0,0,1-2.051.82,3.181,3.181,0,0,1-2.109-.82,3.009,3.009,0,0,1,0-4.16l15.176-15.176a2.942,2.942,0,1,1,4.16,4.16" transform="translate(1375 1219)" fill="#465a61"/>
    <path id="Path_680" data-name="Path 680" d="M415.621,180.719l-9.668,9.668v-8.32l5.508-5.508a2.942,2.942,0,0,1,4.16,4.16" transform="translate(1375 1219)" fill="#3b4a51"/>
    <path id="Path_681" data-name="Path 681" d="M388.99,198.254a2.943,2.943,0,0,1-1.309-.309l-12.953-6.477a2.93,2.93,0,1,1,2.62-5.241L390.3,192.7a2.929,2.929,0,0,1-1.312,5.55" transform="translate(1375 1219)" fill="#465a61"/>
    <path id="Path_682" data-name="Path 682" d="M422.36,173.921a2.929,2.929,0,0,1-1.759-5.272L434.666,158.1a2.928,2.928,0,1,1,3.513,4.685l-14.065,10.545a2.9,2.9,0,0,1-1.754.587" transform="translate(1375 1219)" fill="#3b4a51"/>
    <path id="Path_683" data-name="Path 683" d="M370.8,177.438a8.789,8.789,0,1,0,8.789,8.789,8.777,8.777,0,0,0-8.789-8.789" transform="translate(1375 1219)" fill="#697c86"/>
    <path id="Path_684" data-name="Path 684" d="M394.234,189.157a8.789,8.789,0,1,0,8.789,8.789,8.777,8.777,0,0,0-8.789-8.789" transform="translate(1375 1219)" fill="#c6e2e7"/>
    <path id="Path_685" data-name="Path 685" d="M417.672,165.719a8.789,8.789,0,1,0,8.789,8.789,8.777,8.777,0,0,0-8.789-8.789" transform="translate(1375 1219)" fill="#fdbf00"/>
    <path id="Path_686" data-name="Path 686" d="M441.109,148.141a8.789,8.789,0,1,0,8.789,8.789,8.777,8.777,0,0,0-8.789-8.789" transform="translate(1375 1219)" fill="#e63950"/>
    <path id="Path_687" data-name="Path 687" d="M449.9,180.368v63.555H432.32V180.368a2.9,2.9,0,0,1,2.93-2.93h11.718a2.9,2.9,0,0,1,2.93,2.93" transform="translate(1375 1219)" fill="#e63950"/>
    <path id="Path_688" data-name="Path 688" d="M426.461,197.946v45.977H408.883V197.946a2.9,2.9,0,0,1,2.93-2.93h11.718a2.9,2.9,0,0,1,2.93,2.93" transform="translate(1375 1219)" fill="#fdbf00"/>
    <path id="Path_689" data-name="Path 689" d="M403.023,221.383v22.539H385.445V221.383a2.9,2.9,0,0,1,2.93-2.93h11.718a2.9,2.9,0,0,1,2.93,2.93" transform="translate(1375 1219)" fill="#c6e2e7"/>
    <path id="Path_690" data-name="Path 690" d="M379.586,209.664v34.258H362.008V209.664a2.9,2.9,0,0,1,2.93-2.93h11.718a2.9,2.9,0,0,1,2.93,2.93" transform="translate(1375 1219)" fill="#697c86"/>
    <path id="Path_691" data-name="Path 691" d="M441.109,165.719V148.141a8.789,8.789,0,1,1,0,17.578" transform="translate(1375 1219)" fill="#cc2e43"/>
    <path id="Path_692" data-name="Path 692" d="M449.9,180.368v63.555h-8.789V177.438h5.859a2.9,2.9,0,0,1,2.93,2.93" transform="translate(1375 1219)" fill="#cc2e43"/>
    <path id="Path_693" data-name="Path 693" d="M417.672,183.3V165.719a8.789,8.789,0,1,1,0,17.578" transform="translate(1375 1219)" fill="#ff9f00"/>
    <path id="Path_694" data-name="Path 694" d="M426.461,197.946v45.977h-8.789V195.016h5.859a2.9,2.9,0,0,1,2.93,2.93" transform="translate(1375 1219)" fill="#ff9f00"/>
    <path id="Path_695" data-name="Path 695" d="M394.234,206.735V189.157a8.789,8.789,0,1,1,0,17.578" transform="translate(1375 1219)" fill="#a8d3d8"/>
    <path id="Path_696" data-name="Path 696" d="M403.023,221.383v22.539h-8.789V218.453h5.859a2.9,2.9,0,0,1,2.93,2.93" transform="translate(1375 1219)" fill="#a8d3d8"/>
    <path id="Path_697" data-name="Path 697" d="M370.8,195.016V177.438a8.789,8.789,0,1,1,0,17.578" transform="translate(1375 1219)" fill="#596c76"/>
    <path id="Path_698" data-name="Path 698" d="M379.586,209.664v34.258H370.8V206.734h5.859a2.9,2.9,0,0,1,2.93,2.93" transform="translate(1375 1219)" fill="#596c76"/>
    <path id="Path_699" data-name="Path 699" d="M455.953,245.211a2.9,2.9,0,0,1-2.93,2.93h-94.14a2.93,2.93,0,0,1,0-5.86h94.14a2.9,2.9,0,0,1,2.93,2.93" transform="translate(1375 1219)" fill="#465a61"/>
    <path id="Path_700" data-name="Path 700" d="M455.953,245.211a2.9,2.9,0,0,1-2.93,2.93h-47.07v-5.86h47.07a2.9,2.9,0,0,1,2.93,2.93" transform="translate(1375 1219)" fill="#3b4a51"/>
  </g>
</svg>
