<svg xmlns="http://www.w3.org/2000/svg" width="100" height="99.999" viewBox="0 0 100 99.999">
  <g id="Group_567" data-name="Group 567" transform="translate(-1582 -1220.001)">
    <path id="Path_718" data-name="Path 718" d="M286.492,95.141H262.859a2.93,2.93,0,0,1,0-5.859h23.633a2.932,2.932,0,0,0,2.93-2.93V74.438a2.93,2.93,0,1,1,5.859,0V86.352a8.8,8.8,0,0,1-8.789,8.789" transform="translate(1375 1219)" fill="#8ebac5"/>
    <path id="Path_719" data-name="Path 719" d="M295.281,39.282v5.859l-5.566,1.172a2.66,2.66,0,0,1-.293-1.172V39.282a32.422,32.422,0,1,0-64.844,0v5.859a3.2,3.2,0,0,1-.527,1.641l-5.332-1.641V39.282a38.281,38.281,0,0,1,76.562,0" transform="translate(1375 1219)" fill="#a8d3d8"/>
    <path id="Path_720" data-name="Path 720" d="M295.281,39.282v5.859l-5.566,1.172a2.66,2.66,0,0,1-.293-1.172V39.282A32.618,32.618,0,0,0,257,6.86V1a38.494,38.494,0,0,1,38.281,38.281" transform="translate(1375 1219)" fill="#8ebac5"/>
    <path id="Path_721" data-name="Path 721" d="M298.211,77.368h-5.859a2.928,2.928,0,0,1-2.93-2.93v-29.3a2.927,2.927,0,0,1,2.93-2.929h5.859A8.8,8.8,0,0,1,307,51V68.579a8.8,8.8,0,0,1-8.789,8.789" transform="translate(1375 1219)" fill="#cc2e43"/>
    <path id="Path_722" data-name="Path 722" d="M221.648,77.368h-5.859A8.8,8.8,0,0,1,207,68.579V51a8.8,8.8,0,0,1,8.789-8.789h5.859a2.928,2.928,0,0,1,2.93,2.929v29.3a2.929,2.929,0,0,1-2.93,2.93" transform="translate(1375 1219)" fill="#e63950"/>
    <path id="Path_723" data-name="Path 723" d="M227.508,83.227a8.8,8.8,0,0,1-8.789-8.789v-29.3a8.789,8.789,0,0,1,17.578,0v29.3a8.8,8.8,0,0,1-8.789,8.789" transform="translate(1375 1219)" fill="#596c76"/>
    <path id="Path_724" data-name="Path 724" d="M286.492,83.227a8.8,8.8,0,0,1-8.789-8.789v-29.3a8.789,8.789,0,0,1,17.578,0v29.3a8.8,8.8,0,0,1-8.789,8.789" transform="translate(1375 1219)" fill="#465a61"/>
    <path id="Path_725" data-name="Path 725" d="M257,83.422a8.789,8.789,0,1,0,8.789,8.789A8.777,8.777,0,0,0,257,83.422" transform="translate(1375 1219)" fill="#e63950"/>
    <path id="Path_726" data-name="Path 726" d="M265.789,92.211A8.777,8.777,0,0,1,257,101V83.422a8.776,8.776,0,0,1,8.789,8.789" transform="translate(1375 1219)" fill="#cc2e43"/>
  </g>
</svg>
