<svg id="Group_571" data-name="Group 571" xmlns="http://www.w3.org/2000/svg" xmlns:xlink="http://www.w3.org/1999/xlink" width="100" height="100" viewBox="0 0 100 100">
  <defs>
    <clipPath id="clip-path">
      <rect id="Rectangle_993" data-name="Rectangle 993" width="100" height="100" fill="none"/>
    </clipPath>
  </defs>
  <g id="Group_570" data-name="Group 570" clip-path="url(#clip-path)">
    <path id="Path_738" data-name="Path 738" d="M61.682,86.055v5.156A8.778,8.778,0,0,1,52.893,100H47.034a8.776,8.776,0,0,1-8.789-8.789V86.055Z" fill="#465a61"/>
    <path id="Path_739" data-name="Path 739" d="M49.963,86.055H61.682v5.156A8.778,8.778,0,0,1,52.893,100h-2.93Z" fill="#3b4a51"/>
    <rect id="Rectangle_992" data-name="Rectangle 992" width="17.578" height="9.941" transform="translate(49.963 73.945)" fill="#3b4a51"/>
    <path id="Path_740" data-name="Path 740" d="M85.119,35.156a35.159,35.159,0,0,1-16,29.473,3.208,3.208,0,0,0-1.581,2.578v4.746H32.385V66.914a2.738,2.738,0,0,0-1.349-2.168A35.175,35.175,0,0,1,42.4.761,36.8,36.8,0,0,1,49.962,0,35.152,35.152,0,0,1,85.119,35.156" fill="#ffd400"/>
    <path id="Path_741" data-name="Path 741" d="M85.119,35.156a35.159,35.159,0,0,1-16,29.473,3.208,3.208,0,0,0-1.581,2.578v4.746H49.963V0A35.152,35.152,0,0,1,85.119,35.156" fill="#fdbf00"/>
    <path id="Path_742" data-name="Path 742" d="M58.752,41.016a8.86,8.86,0,0,1-5.8,8.262h-.057v3.457a2.93,2.93,0,0,1-5.86,0V49.278A11.618,11.618,0,0,1,41.7,45.469a2.911,2.911,0,1,1,4.453-3.749,5.3,5.3,0,0,0,3.809,2.226,2.952,2.952,0,0,0,.995-.177,2.928,2.928,0,0,0-.995-5.683,8.777,8.777,0,0,1-3.4-16.874c.118-.059.292-.059.469-.118V17.579a2.93,2.93,0,1,1,5.86,0v3.515a11.533,11.533,0,0,1,4.336,2.578,2.942,2.942,0,0,1-4.1,4.219,4.6,4.6,0,0,0-3.164-1.523,2.373,2.373,0,0,0-1.113.234,2.921,2.921,0,0,0,1.113,5.625,8.778,8.778,0,0,1,8.789,8.789" fill="#ff9f00"/>
    <path id="Path_743" data-name="Path 743" d="M73.4,73.242a2.9,2.9,0,0,1-2.93,2.93H29.455a2.93,2.93,0,0,1,0-5.86H70.47a2.9,2.9,0,0,1,2.93,2.93" fill="#697c86"/>
    <path id="Path_744" data-name="Path 744" d="M73.4,85.352a2.9,2.9,0,0,1-2.93,2.93H29.455a2.93,2.93,0,0,1,0-5.86H70.47a2.9,2.9,0,0,1,2.93,2.93" fill="#697c86"/>
    <path id="Path_745" data-name="Path 745" d="M58.752,41.016a8.86,8.86,0,0,1-5.8,8.262h-.057v3.457a2.9,2.9,0,0,1-2.93,2.929V43.946a2.956,2.956,0,0,0,.995-.177,2.928,2.928,0,0,0-.995-5.683V32.227a8.778,8.778,0,0,1,8.789,8.789" fill="#ff7816"/>
    <path id="Path_746" data-name="Path 746" d="M53.127,27.891a4.6,4.6,0,0,0-3.164-1.523V14.649a2.9,2.9,0,0,1,2.93,2.929v3.516a11.549,11.549,0,0,1,4.336,2.578,2.942,2.942,0,0,1-4.1,4.219" fill="#ff7816"/>
    <path id="Path_747" data-name="Path 747" d="M73.4,85.352a2.9,2.9,0,0,1-2.93,2.93H49.963v-5.86H70.47a2.9,2.9,0,0,1,2.93,2.93" fill="#596c76"/>
    <path id="Path_748" data-name="Path 748" d="M70.471,76.172H49.963V70.313H70.471a2.929,2.929,0,1,1,0,5.859" fill="#596c76"/>
    <path id="Path_749" data-name="Path 749" d="M11.908,61.565a2.92,2.92,0,0,1-2.18-.972,38.18,38.18,0,0,1-8.3-15.125A39.157,39.157,0,0,1,.649,27.886,37.853,37.853,0,0,1,9.728,9.626a2.93,2.93,0,1,1,4.359,3.916A31.978,31.978,0,0,0,6.409,28.961a32.366,32.366,0,0,0,7.678,27.716,2.93,2.93,0,0,1-2.179,4.888" fill="#ff9f00"/>
    <path id="Path_750" data-name="Path 750" d="M88.092,8.654a2.92,2.92,0,0,1,2.18.972,38.18,38.18,0,0,1,8.3,15.125,39.157,39.157,0,0,1,.778,17.582,37.853,37.853,0,0,1-9.079,18.26,2.93,2.93,0,1,1-4.359-3.916,31.97,31.97,0,0,0,7.678-15.419,32.366,32.366,0,0,0-7.678-27.716,2.93,2.93,0,0,1,2.179-4.888" fill="#ff9f00"/>
  </g>
</svg>
