<svg id="Group_569" data-name="Group 569" xmlns="http://www.w3.org/2000/svg" xmlns:xlink="http://www.w3.org/1999/xlink" width="87.416" height="100" viewBox="0 0 87.416 100">
  <defs>
    <clipPath id="clip-path">
      <rect id="Rectangle_990" data-name="Rectangle 990" width="87.416" height="100" fill="none"/>
    </clipPath>
  </defs>
  <g id="Group_568" data-name="Group 568" clip-path="url(#clip-path)">
    <path id="Path_727" data-name="Path 727" d="M65.524,3.117v6.5a3.117,3.117,0,0,1-6.233.115V9.616H28.124a3.117,3.117,0,0,1-6.234,0v-6.5A3.085,3.085,0,0,1,24.943,0c.021,0,.043,0,.064,0h37.4a3.085,3.085,0,0,1,3.117,3.053v.064" fill="#fdbf00"/>
    <path id="Path_728" data-name="Path 728" d="M65.524,3.117v6.5a3.117,3.117,0,0,1-6.233.115V9.616H43.707V0h18.7a3.085,3.085,0,0,1,3.117,3.053v.064" fill="#ff9f00"/>
    <path id="Path_729" data-name="Path 729" d="M84.295,6.5H3.116A3.085,3.085,0,0,0,0,9.554V96.882A3.086,3.086,0,0,0,3.053,100H84.295a3.084,3.084,0,0,0,3.115-3.054c0-.022,0-.042,0-.064V9.617A3.084,3.084,0,0,0,84.357,6.5h-.062" fill="#596c76"/>
    <path id="Path_730" data-name="Path 730" d="M87.416,9.616V96.883A3.086,3.086,0,0,1,84.362,100H43.708V6.5H84.295a3.085,3.085,0,0,1,3.116,3.053c0,.021,0,.043,0,.064" fill="#465a61"/>
    <rect id="Rectangle_988" data-name="Rectangle 988" width="74.95" height="81.033" transform="translate(6.233 12.733)" fill="#deecf1"/>
    <rect id="Rectangle_989" data-name="Rectangle 989" width="37.475" height="81.033" transform="translate(43.708 12.733)" fill="#c6e2e7"/>
    <path id="Path_731" data-name="Path 731" d="M61.474,33.614a3.014,3.014,0,0,1-4.262.1c-.034-.033-.067-.067-.1-.1l-7.168-7.1-6.233,6.17-.934.935a3.085,3.085,0,0,1-4.362-4.362l9.349-9.35a3.016,3.016,0,0,1,4.263-.1q.051.048.1.1l9.35,9.35a3.013,3.013,0,0,1,.1,4.259c-.033.036-.067.07-.1.1" fill="#596c76"/>
    <path id="Path_732" data-name="Path 732" d="M70.008,79.247l4.029-4.028a3.118,3.118,0,0,0-4.408-4.41L65.6,74.84l-4.03-4.031a3.118,3.118,0,0,0-4.407,4.41l4.029,4.028-4.025,4.029a3.117,3.117,0,0,0,4.406,4.409l4.032-4.03,4.028,4.03a3.117,3.117,0,0,0,4.408-4.409Z" fill="#cc2e43"/>
    <path id="Path_733" data-name="Path 733" d="M28.351,50.057l4.029-4.029a3.117,3.117,0,0,0-4.407-4.408l-4.029,4.029-4.03-4.03a3.117,3.117,0,0,0-4.408,4.408l4.03,4.029-4.03,4.03a3.117,3.117,0,0,0,4.408,4.409l4.03-4.031,4.03,4.031a3.117,3.117,0,0,0,4.51-4.3c-.034-.035-.069-.071-.1-.1Z" fill="#e63950"/>
    <path id="Path_734" data-name="Path 734" d="M53.058,23.64V53.248a28.053,28.053,0,0,1-9.35,20.947A28.426,28.426,0,0,1,31.99,80.427a4.357,4.357,0,0,1-.811.125l-1-6.047c.123-.063.186-.063.249-.126A21.851,21.851,0,0,0,46.825,53.248V23.64Z" fill="#596c76"/>
    <path id="Path_735" data-name="Path 735" d="M61.474,29.251a3.013,3.013,0,0,1,.1,4.259c-.034.035-.068.07-.1.1a3.018,3.018,0,0,1-4.266.1c-.033-.032-.065-.063-.1-.1l-7.168-7.106-6.233,6.171V23.954L47.762,19.9a3.016,3.016,0,0,1,4.263-.1c.033.032.066.065.1.1Z" fill="#465a61"/>
    <path id="Path_736" data-name="Path 736" d="M53.058,23.64V53.248a28.053,28.053,0,0,1-9.35,20.947V64.469a21.7,21.7,0,0,0,3.117-11.221V23.64Z" fill="#465a61"/>
    <path id="Path_737" data-name="Path 737" d="M25.007,87.533a9.35,9.35,0,1,1,9.35-9.35,9.35,9.35,0,0,1-9.35,9.35m0-12.467a3.115,3.115,0,1,0,3.117,3.117,3.116,3.116,0,0,0-3.117-3.117" fill="#ff7816"/>
  </g>
</svg>
