<svg xmlns="http://www.w3.org/2000/svg" width="1921.534" height="1028.32" viewBox="0 0 1921.534 1028.32">
  <path id="Union_1" data-name="Union 1" d="M-20.3,614.516c-.128-.375-.239-.769-.359-1.16a96.587,96.587,0,0,1-3.635-18.893,19.957,19.957,0,0,1-10.556,3.02,20.032,20.032,0,0,1-15.463-7.27,80.088,80.088,0,0,1-22.715,23.143A79.022,79.022,0,0,1-117.2,626.8a79.142,79.142,0,0,1-44.322-13.44,80.108,80.108,0,0,1-24.508-26.1,22.721,22.721,0,0,1-2.764.18,23.42,23.42,0,0,1-22.64-17.459c-.708.025-1.426.033-2.15.05a79.337,79.337,0,0,1-33.469-7.356A50.5,50.5,0,0,1-287.6,583.088a50.288,50.288,0,0,1-34.765-13.832,15.884,15.884,0,0,1-14.208,8.78,15.831,15.831,0,0,1-11.886-5.368,61.725,61.725,0,0,1-34.51,40.688,61.181,61.181,0,0,1-24.986,5.308,60.913,60.913,0,0,1-25.08-5.308A61.718,61.718,0,0,1-467.82,571.67a15.79,15.79,0,0,1-9.293,3.021,15.866,15.866,0,0,1-13.815-8.03,50.471,50.471,0,0,1-37.435,16.623A50.621,50.621,0,0,1-577.3,545.66a50.176,50.176,0,0,1-12.323,1.536,50.55,50.55,0,0,1-40.683-20.474h-1.012a65.483,65.483,0,0,1-13.84,7.922,44.14,44.14,0,0,1-22.424,6.11,44.833,44.833,0,0,1-12.468-1.767,65.007,65.007,0,0,1-17.763-5.309,40.4,40.4,0,0,1-8.907,2.639,27.238,27.238,0,0,1-8.745,1.448,27.656,27.656,0,0,1-15.732-5.009,44.62,44.62,0,0,1-9.172-6.034h-1.544c-6.5,9.927-16.728,16.332-28.244,16.325a30.425,30.425,0,0,1-8.645-1.259c-4.023,17.764-17.876,30.862-34.331,30.848-10.417-.014-19.774-5.269-26.263-13.63-1.914,3.932-5.531,6.583-9.691,6.583a10.052,10.052,0,0,1-6.52-2.477c-3.183,15.309-12.332,27.888-24.4,34.178a37.554,37.554,0,0,1-17.6,4.352,37.724,37.724,0,0,1-17.527-4.352c-11.852-6.185-20.874-18.422-24.208-33.36a10.5,10.5,0,0,1-8.339,4.4c-4.364,0-8.135-2.932-9.967-7.2-6.358,7.039-14.935,11.355-24.389,11.342-11.655-.014-21.974-6.591-28.44-16.736a49.023,49.023,0,0,1-23.479,6.031c-.509-.014-1.011-.021-1.507-.041-1.856,8.235-8.25,14.315-15.882,14.315a13.648,13.648,0,0,1-1.94-.148,62.686,62.686,0,0,1-17.194,21.4,50.036,50.036,0,0,1-31.092,11.02,49.974,49.974,0,0,1-30.991-11.02,62.081,62.081,0,0,1-15.935-18.975,13.365,13.365,0,0,1-10.847,5.961,12.555,12.555,0,0,1-7.406-2.476,91.393,91.393,0,0,1-2.55,15.49c-.084.322-.161.643-.252.951-8.632,32.311-34.439,55.749-64.922,55.721a59.044,59.044,0,0,1-23.556-4.926c-19.761-8.564-35.177-27.544-41.378-51.235a19.316,19.316,0,0,1-10.194,2.939c-7.686,0-14.439-4.625-18.354-11.615-10.094,11.706-24,18.947-39.353,18.94-24.8-.028-45.79-18.94-53.058-45.093a54.171,54.171,0,0,1-11.01,1.155c-23.475,0-43.922-15.083-54.657-37.407H-1487v-2.075q-.109-.244-.216-.49h.216V-186.524h-.216l.216-.42V-190h1.658a89.275,89.275,0,0,1,77.718-45.274,89.667,89.667,0,0,1,15.693,1.408,79.615,79.615,0,0,1,75.631-55,79.362,79.362,0,0,1,56.1,23.1,31.221,31.221,0,0,1,26.164-14.165,31.041,31.041,0,0,1,14.532,3.584,97.133,97.133,0,0,1,58.982-62.491,96.5,96.5,0,0,1,33.579-6.007,96.9,96.9,0,0,1,92.544,67.959c.129.375.239.77.359,1.161a96.592,96.592,0,0,1,3.635,18.893,19.949,19.949,0,0,1,10.556-3.02,20.029,20.029,0,0,1,15.463,7.27,80.081,80.081,0,0,1,22.716-23.143,79.02,79.02,0,0,1,44.177-13.44,79.138,79.138,0,0,1,44.321,13.44,80.1,80.1,0,0,1,24.509,26.1,22.544,22.544,0,0,1,2.764-.18,23.42,23.42,0,0,1,22.639,17.459c.708-.025,1.426-.033,2.15-.05a79.333,79.333,0,0,1,33.468,7.356A50.493,50.493,0,0,1-767.1-245.455a50.284,50.284,0,0,1,34.764,13.832,15.886,15.886,0,0,1,14.208-8.78,15.836,15.836,0,0,1,11.887,5.368,61.723,61.723,0,0,1,34.51-40.687,61.175,61.175,0,0,1,24.986-5.308,60.909,60.909,0,0,1,25.079,5.308,61.717,61.717,0,0,1,34.79,41.686,15.79,15.79,0,0,1,9.293-3.021,15.867,15.867,0,0,1,13.815,8.03,50.468,50.468,0,0,1,37.435-16.623,50.62,50.62,0,0,1,48.939,37.625,50.176,50.176,0,0,1,12.323-1.536A50.53,50.53,0,0,1-425.078-190h2.955a65.406,65.406,0,0,1,12.59-7.011,44.135,44.135,0,0,1,22.425-6.11,44.8,44.8,0,0,1,12.467,1.767,65,65,0,0,1,18.382,5.6,40.337,40.337,0,0,1,8.289-2.382,27.23,27.23,0,0,1,8.745-1.448,27.647,27.647,0,0,1,15.731,5.009A44.066,44.066,0,0,1-316.132-190h4.353c6.521-9.092,16.3-14.874,27.244-14.867a30.462,30.462,0,0,1,8.645,1.258c4.023-17.763,17.876-30.861,34.33-30.847,10.417.014,19.775,5.269,26.263,13.63,1.914-3.933,5.531-6.583,9.692-6.583a10.046,10.046,0,0,1,6.519,2.477c3.184-15.309,12.332-27.888,24.405-34.178a37.551,37.551,0,0,1,17.6-4.352,37.727,37.727,0,0,1,17.527,4.352c11.851,6.184,20.874,18.422,24.208,33.359a10.5,10.5,0,0,1,8.339-4.4c4.363,0,8.135,2.932,9.967,7.2,6.358-7.038,14.936-11.355,24.389-11.341,11.654.014,21.974,6.591,28.44,16.736a49.009,49.009,0,0,1,23.479-6.032c.509.014,1.011.022,1.507.042,1.856-8.235,8.251-14.315,15.882-14.315a13.513,13.513,0,0,1,1.94.148,62.7,62.7,0,0,1,17.195-21.4,50.034,50.034,0,0,1,31.092-11.02,49.969,49.969,0,0,1,30.991,11.02,62.068,62.068,0,0,1,15.935,18.975,13.365,13.365,0,0,1,10.847-5.962,12.552,12.552,0,0,1,7.406,2.477,91.187,91.187,0,0,1,2.55-15.49c.084-.322.161-.643.252-.952,8.632-32.31,34.439-55.748,64.922-55.72a59.028,59.028,0,0,1,23.555,4.926c19.761,8.563,35.176,27.544,41.378,51.235a19.311,19.311,0,0,1,10.194-2.938c7.686,0,14.44,4.624,18.354,11.614,10.094-11.705,24-18.947,39.354-18.94,24.8.028,45.79,18.94,53.058,45.093a54.1,54.1,0,0,1,11.009-1.155c22.96,0,43.024,14.43,53.938,35.949H433V526.722h-1.842A89.191,89.191,0,0,1,337.236,571.5a79.562,79.562,0,0,1-131.729,31.9,31.249,31.249,0,0,1-40.7,10.58,96.77,96.77,0,0,1-92.561,68.5h-.078A96.9,96.9,0,0,1-20.3,614.516Z" transform="translate(1488.034 345.343)" fill="#f8f8f8" stroke="rgba(0,0,0,0)" stroke-miterlimit="10" stroke-width="1"/>
</svg>
