<svg xmlns="http://www.w3.org/2000/svg" xmlns:xlink="http://www.w3.org/1999/xlink" width="570" height="426.691" viewBox="0 0 570 426.691">
  <defs>
    <clipPath id="clip-path">
      <rect id="Rectangle_902" data-name="Rectangle 902" width="570" height="426.692" fill="none"/>
    </clipPath>
  </defs>
  <g id="Group_369" data-name="Group 369" transform="translate(0 -0.003)">
    <g id="Group_368" data-name="Group 368" transform="translate(0 0.003)" clip-path="url(#clip-path)">
      <path id="Path_563" data-name="Path 563" d="M1006.88,917.026c0-.079.434-9-3.874-11.048l.3-.292a8.787,8.787,0,0,1,5.036,5.827c.65,2.235.156,2.726.159,2.81Z" transform="translate(-606.769 -547.896)" fill="#a4c8fc"/>
      <path id="Path_564" data-name="Path 564" d="M940.529,870.24S942,881.72,949,885.079s16.878-2.671,16.878-2.671-1.473-11.48-8.473-14.84-16.878,2.672-16.878,2.672" transform="translate(-568.974 -524.221)" fill="#a4c8fc"/>
      <path id="Path_565" data-name="Path 565" d="M1010.391,910.077a52,52,0,0,1,2.339-22.654,42.377,42.377,0,0,0,1.687-20.873h2.811c.072.408.268,9.766-2.725,22.59-2.693,11.54,2.336,20.938,1.265,20.938Z" transform="translate(-611.015 -524.221)" fill="#a4c8fc"/>
      <path id="Path_566" data-name="Path 566" d="M1025.2,885.038c.015-.059,1.356-7.754,4.964-8.63a6.711,6.711,0,0,0-4.808,3.516c-.853,1.6-.554,2.051-.57,2.115Z" transform="translate(-619.921 -530.185)" fill="#a4c8fc"/>
      <path id="Path_567" data-name="Path 567" d="M1042.338,879.4c-5.394-1.09-8.405-8.719-8.405-8.719s5.735-5.864,11.129-4.775,8.405,8.719,8.405,8.719-5.735,5.864-11.13,4.774" transform="translate(-625.479 -523.75)" fill="#a4c8fc"/>
      <path id="Path_568" data-name="Path 568" d="M941.988,770.2a28.277,28.277,0,1,1,39.169,8.062,28.277,28.277,0,0,1-39.169-8.062" transform="translate(-567.034 -439.42)" fill="#ffb93e"/>
      <path id="Path_569" data-name="Path 569" d="M984.081,780.717a25.764,25.764,0,1,1,11.064-16.323,25.594,25.594,0,0,1-11.064,16.323m-27.5-41.75a24.227,24.227,0,1,0,33.559,6.907,24.254,24.254,0,0,0-33.559-6.907" transform="translate(-571.157 -443.689)" fill="#ffa412"/>
      <path id="Path_570" data-name="Path 570" d="M997.614,775.155a4.247,4.247,0,0,0-.873-1.216,3.1,3.1,0,0,0-1.211-.689,5.872,5.872,0,0,0-1.671-.237,15.51,15.51,0,0,0-2.241.162,40.576,40.576,0,0,1-4.117.329,12.829,12.829,0,0,1-3.472-.351,7.543,7.543,0,0,1-2.811-1.363,8.516,8.516,0,0,1-2.967-5.755,7.163,7.163,0,0,1,.447-2.95,8.933,8.933,0,0,1,1.639-2.709,11.92,11.92,0,0,1,2.754-2.307l-1.915-3.824,3.077-1.541,1.942,3.877a10.683,10.683,0,0,1,3.439-.626,8.077,8.077,0,0,1,5.848,2.334,10.736,10.736,0,0,1,2.125,2.97l-5.559,2.784a5.235,5.235,0,0,0-2.558-2.731,3.641,3.641,0,0,0-3.081.213,4.632,4.632,0,0,0-1.37.988,3.13,3.13,0,0,0-.7,1.177,2.915,2.915,0,0,0-.1,1.29,4.313,4.313,0,0,0,.426,1.329,3.937,3.937,0,0,0,.791,1.1,2.915,2.915,0,0,0,1.161.66,5.882,5.882,0,0,0,1.679.231,19.821,19.821,0,0,0,2.349-.137q2.214-.238,4.111-.271a12.985,12.985,0,0,1,3.472.374,7.281,7.281,0,0,1,4.925,4.07,7.789,7.789,0,0,1,.866,3.1,7.07,7.07,0,0,1-.466,2.938,8.632,8.632,0,0,1-1.68,2.674,12.845,12.845,0,0,1-2.787,2.29l1.781,3.555-3.058,1.532-1.771-3.538a14.418,14.418,0,0,1-3.436.849,9.147,9.147,0,0,1-3.419-.221,8.183,8.183,0,0,1-3.122-1.622,9.966,9.966,0,0,1-2.536-3.333l5.559-2.784a6.146,6.146,0,0,0,1.416,1.939,3.97,3.97,0,0,0,1.632.881,3.852,3.852,0,0,0,1.714.035,6.579,6.579,0,0,0,1.651-.57,5.518,5.518,0,0,0,1.471-1.027,3.678,3.678,0,0,0,.822-1.217,2.928,2.928,0,0,0,.2-1.32,3.563,3.563,0,0,0-.382-1.34" transform="translate(-591.786 -455.35)" fill="#ffa412"/>
      <path id="Path_571" data-name="Path 571" d="M1013.937,969.819l0,.023-.563,8.662-2.093,32.161H972.14l-2.3-31.721L969.2,970.2l-.028-.384Z" transform="translate(-586.302 -586.694)" fill="#b4c9f7"/>
      <path id="Path_572" data-name="Path 572" d="M1013.978,969.877l-.563,8.662a68.555,68.555,0,0,0-21.817-3.5c-13.481,0-21.719,3.935-21.719,3.935l-.635-8.742Z" transform="translate(-586.345 -586.729)" fill="#9bb8ea"/>
      <path id="Path_573" data-name="Path 573" d="M1012.29,972.946H964.747l-.544-5.527h48.691Z" transform="translate(-583.295 -585.242)" fill="#b4c9f7"/>
      <path id="Path_574" data-name="Path 574" d="M1014.426,1074.613h-40.58l-.465-1.925h41.56Z" transform="translate(-588.848 -648.924)" fill="#b4c9f7"/>
      <path id="Path_575" data-name="Path 575" d="M686.725,593.88c-.009-.238,1.306-27.1-11.673-33.286l.916-.88c5.945,2.076,12.535,8.5,15.172,17.556,1.96,6.735.47,8.215.48,8.469Z" transform="translate(-408.373 -338.601)" fill="#a4c8fc"/>
      <path id="Path_576" data-name="Path 576" d="M618.607,509.179s-1.483,13.82,5.756,19.7,20.461,1.59,20.461,1.59,1.483-13.821-5.757-19.7-20.46-1.59-20.46-1.59" transform="translate(-374.151 -307.116)" fill="#a4c8fc"/>
      <path id="Path_577" data-name="Path 577" d="M697.3,572.947c-.244-1.352-4.927-32.993,7.048-68.255,11.506-33.879,5.135-62.6,5.084-62.889H717.9c.218,1.228.807,29.422-8.211,68.06-8.114,34.77,7.038,63.083,3.812,63.083Z" transform="translate(-421.164 -267.271)" fill="#a4c8fc"/>
      <path id="Path_578" data-name="Path 578" d="M741.914,497.508c.045-.18,4.086-23.363,14.956-26A20.221,20.221,0,0,0,742.384,482.1c-2.567,4.817-1.668,6.181-1.716,6.373Z" transform="translate(-447.998 -285.24)" fill="#a4c8fc"/>
      <path id="Path_579" data-name="Path 579" d="M416.975,305.681s-11.727-16.559-25.047-21.42c0,0,4.98,38.836-2.3,39.317S387.2,279.9,387.2,279.9s-34.7-19.265-48.784-18.729c0,0,19.946,38.806,12.769,37.479s-29.809-40.745-29.809-40.745-36.208-8.923-43.353,12.425,1.709,32.75,7.052,34.423,40.167,3.26,39,7.726-25.091,10.32-37.959,5.485c0,0,12.37,36.548,31.456,35.852s25.65-12.1,37.453-12.316,20.2,3.451,14.143,6.27-25.819-.472-35.782,7.039-17.937,12.033-.524,16.681,43.7-.6,56.167-8.911c.036-.024,10.21-.832,18.223,46.273,3.088,18.159.713,45.1.713,45.1l6.463-.984c3.586-52.8-15.47-96.7-15.47-96.7s32.332-23.9,18.024-50.59" transform="translate(-166.57 -154.904)" fill="#a4c8fc"/>
      <path id="Path_580" data-name="Path 580" d="M858.6,394.78s-38.955-16.368-25.012-46.145c0,0,11.742-18.643,25.9-24.7,0,0-3.115,42.4,4.811,42.495s.065-47.5.065-47.5S900.845,296,916.154,295.756c0,0-19.345,43.25-11.64,41.388s29.924-45.932,29.924-45.932,38.734-11.8,47.738,10.922.073,35.611-5.622,37.739-43.361,5.9-41.831,10.671,27.814,9.714,41.481,3.715c0,0-11.262,40.356-32,40.725s-28.523-11.612-41.333-11.152-21.7,4.931-14.966,7.631,27.968-2.031,39.212,5.528,20.157,11.992,1.549,18.056-53.074,7.492-61.571-6.387Z" transform="translate(-502.456 -174.316)" fill="#d2e3fc"/>
      <path id="Path_581" data-name="Path 581" d="M999.072,347.276S900.258,392.1,892.738,430.55c0,0,2.368,16.552-5.733,36.763l.829,7.327s7.926-26.127,13.4-30.209c0,0-26.606-29.639,97.837-97.153" transform="translate(-536.594 -210.086)" fill="#a4c8fc"/>
      <path id="Path_582" data-name="Path 582" d="M877.729,643.337s-13.1,25.812-.772,54.031l3.946-1.554s-7.6-31.76-1.154-48.894-2.021-3.583-2.021-3.583" transform="translate(-527.318 -386.111)" fill="#a4c8fc"/>
      <path id="Path_583" data-name="Path 583" d="M445.43,91.036c15.966,16.99,7.66,50.731,7.66,50.731s-34.193,6.195-50.158-10.8-7.66-50.731-7.66-50.731,34.192-6.194,50.158,10.8" transform="translate(-237.814 -47.877)" fill="#a4c8fc"/>
      <path id="Path_584" data-name="Path 584" d="M448.737,91.036c15.966,16.99,7.66,50.731,7.66,50.731L398.579,80.241s34.192-6.194,50.158,10.8" transform="translate(-241.121 -47.877)" fill="#d2e3fc"/>
      <path id="Path_585" data-name="Path 585" d="M1002.625,229.862c-8.332,9.652-27.158,7.056-27.158,7.056s-5.317-18.246,3.015-27.9,27.158-7.056,27.158-7.056,5.317,18.245-3.015,27.9" transform="translate(-589.098 -121.988)" fill="#a4c8fc"/>
      <path id="Path_586" data-name="Path 586" d="M779.049,466.188c-5.586,1.549-12.051-4.18-12.051-4.18s2.591-8.241,8.176-9.791,12.051,4.18,12.051,4.18-2.59,8.241-8.175,9.791" transform="translate(-463.996 -273.41)" fill="#a4c8fc"/>
      <path id="Path_587" data-name="Path 587" d="M511.512,11.654c3.828,9.078-4.423,21.226-4.423,21.226S492.631,30.309,488.8,21.23,493.225,0,493.225,0s14.458,2.572,18.286,11.65" transform="translate(-295.089 -0.004)" fill="#a4c8fc"/>
      <path id="Path_588" data-name="Path 588" d="M527.444,103.93a85.2,85.2,0,1,1,95.174,73.887,85.2,85.2,0,0,1-95.174-73.887" transform="translate(-318.669 -4.89)" fill="#e2810e"/>
      <path id="Path_589" data-name="Path 589" d="M508.777,106.281a85.2,85.2,0,1,1,95.173,73.887,85.2,85.2,0,0,1-95.173-73.887" transform="translate(-307.376 -6.311)" fill="#ffb93e"/>
      <path id="Path_590" data-name="Path 590" d="M614.914,186.775a77.624,77.624,0,1,1,51.619-29.414,77.114,77.114,0,0,1-51.619,29.414M596.1,37.337a72.993,72.993,0,1,0,81.54,63.3,73.077,73.077,0,0,0-81.54-63.3" transform="translate(-319.16 -19.434)" fill="#ffa412"/>
      <path id="Path_591" data-name="Path 591" d="M688.744,161.69a12.792,12.792,0,0,0-.745-4.449,9.366,9.366,0,0,0-2.358-3.476,17.691,17.691,0,0,0-4.2-2.86,46.763,46.763,0,0,0-6.273-2.544,122.351,122.351,0,0,1-11.569-4.583,38.66,38.66,0,0,1-8.919-5.567,22.724,22.724,0,0,1-5.789-7.424,25.649,25.649,0,0,1-.367-19.506,21.577,21.577,0,0,1,5.133-7.382,26.933,26.933,0,0,1,8.033-5.145A35.916,35.916,0,0,1,672.2,96.182L672.109,83.3l10.37-.074.093,13.064A32.221,32.221,0,0,1,692.7,99.166a24.348,24.348,0,0,1,12.707,14.088,32.4,32.4,0,0,1,1.8,10.855l-18.73.134q-.052-7.224-3.285-10.784a10.965,10.965,0,0,0-8.614-3.521,13.955,13.955,0,0,0-5.017.849,9.45,9.45,0,0,0-3.452,2.251,8.8,8.8,0,0,0-1.985,3.357,12.936,12.936,0,0,0-.618,4.159,11.86,11.86,0,0,0,.677,4.028,8.773,8.773,0,0,0,2.26,3.326,17.728,17.728,0,0,0,4.233,2.859,59.82,59.82,0,0,0,6.534,2.753q6.3,2.3,11.474,4.734a39.1,39.1,0,0,1,8.887,5.626,21.947,21.947,0,0,1,7.9,17.556,23.459,23.459,0,0,1-1.779,9.525,21.323,21.323,0,0,1-5.166,7.322,26,26,0,0,1-8.1,5,38.793,38.793,0,0,1-10.579,2.484l.086,11.98-10.305.074-.085-11.921a43.524,43.524,0,0,1-10.419-2.272,27.577,27.577,0,0,1-8.949-5.145,24.665,24.665,0,0,1-6.283-8.535,30.025,30.025,0,0,1-2.422-12.385l18.731-.134a18.5,18.5,0,0,0,1.25,7.125,11.966,11.966,0,0,0,3.241,4.553,11.62,11.62,0,0,0,4.586,2.375,19.885,19.885,0,0,0,5.223.654,16.6,16.6,0,0,0,5.341-.821,11.079,11.079,0,0,0,3.841-2.2,8.82,8.82,0,0,0,2.309-3.3,10.751,10.751,0,0,0,.749-4.13" transform="translate(-389.269 -50.348)" fill="#ffa412"/>
      <path id="Path_592" data-name="Path 592" d="M707.984,752.943l-.005.069-1.7,26.1-6.308,96.9H582.054l-6.943-95.571L573.2,754.1l-.083-1.155Z" transform="translate(-346.706 -455.494)" fill="#739af0"/>
      <path id="Path_593" data-name="Path 593" d="M708.107,753.118l-1.7,26.1a206.582,206.582,0,0,0-65.732-10.529c-40.616,0-65.438,11.857-65.438,11.857l-1.913-26.34Z" transform="translate(-346.835 -455.6)" fill="#618dd8"/>
      <path id="Path_594" data-name="Path 594" d="M703.022,762.364H559.78l-1.64-16.653h146.7Z" transform="translate(-337.647 -451.119)" fill="#739af0"/>
      <path id="Path_595" data-name="Path 595" d="M709.457,1068.678H587.193l-1.4-5.8H711.01Z" transform="translate(-354.376 -642.989)" fill="#618dd8"/>
      <path id="Path_596" data-name="Path 596" d="M531.7,850.582a70.472,70.472,0,0,1,3.17-30.7,57.431,57.431,0,0,0,2.287-28.287h3.809c.1.552.363,13.234-3.693,30.614-3.65,15.64,3.166,28.375,1.715,28.375Z" transform="translate(-321.349 -478.876)" fill="#a4c8fc"/>
      <path id="Path_597" data-name="Path 597" d="M551.764,816.649c.02-.081,1.837-10.509,6.727-11.7a9.1,9.1,0,0,0-6.516,4.764c-1.155,2.166-.75,2.78-.772,2.867Z" transform="translate(-333.42 -486.959)" fill="#a4c8fc"/>
      <path id="Path_598" data-name="Path 598" d="M433.331,789.223s-4.784-7.772-10.622-10.34c0,0,1.111,17.577-2.173,17.582s.175-19.675.175-19.675-15.016-9.652-21.356-9.82c0,0,7.829,18,4.646,17.193s-12.2-19.152-12.2-19.152-15.994-5.054-19.82,4.321-.181,14.75,2.169,15.656,17.936,2.627,17.282,4.6-11.562,3.906-17.2,1.363c0,0,4.494,16.764,13.081,17s11.864-4.689,17.168-4.444,8.969,2.134,6.167,3.224-11.576-.96-16.266,2.123-8.4,4.882-.718,7.472,19.631,1,25.47-2.373c.017-.01,4.607-.078,6.839,21.3.86,8.24-.986,20.264-.986,20.264l2.929-.255a103.5,103.5,0,0,0-4.143-43.852s15.205-9.794,9.556-22.186" transform="translate(-224.023 -461.971)" fill="#a4c8fc"/>
      <path id="Path_599" data-name="Path 599" d="M568.468,802.562c-2.512.7-5.42-1.88-5.42-1.88s1.165-3.707,3.677-4.4,5.42,1.88,5.42,1.88-1.165,3.707-3.677,4.4" transform="translate(-340.616 -481.638)" fill="#a4c8fc"/>
      <path id="Path_600" data-name="Path 600" d="M636.605,665.27c-8.773,5.745-8.7,21.375-8.7,21.375s14.3,6.315,23.071.57,8.7-21.375,8.7-21.375-14.3-6.315-23.071-.57" transform="translate(-379.852 -400.996)" fill="#a4c8fc"/>
      <path id="Path_601" data-name="Path 601" d="M636.605,665.27c-8.773,5.745-8.7,21.375-8.7,21.375l31.771-20.805s-14.3-6.315-23.071-.57" transform="translate(-379.852 -400.996)" fill="#d2e3fc"/>
      <path id="Path_602" data-name="Path 602" d="M646.672,626.87c-2.631,3.566-.3,9.748-.3,9.748s6.593.4,9.225-3.166.3-9.748.3-9.748-6.593-.4-9.225,3.166" transform="translate(-390.446 -377.303)" fill="#a4c8fc"/>
      <path id="Path_603" data-name="Path 603" d="M455.294,639.616a38.323,38.323,0,1,1,42.81,33.235,38.323,38.323,0,0,1-42.81-33.235" transform="translate(-275.247 -360.855)" fill="#e2810e"/>
      <path id="Path_604" data-name="Path 604" d="M446.9,640.673a38.322,38.322,0,1,1,42.809,33.235A38.322,38.322,0,0,1,446.9,640.673" transform="translate(-270.167 -361.495)" fill="#ffb93e"/>
      <path id="Path_605" data-name="Path 605" d="M494.639,676.879a34.916,34.916,0,1,1,23.218-13.231,34.685,34.685,0,0,1-23.218,13.231m-8.464-67.218a32.833,32.833,0,1,0,36.678,28.474,32.87,32.87,0,0,0-36.678-28.474" transform="translate(-275.468 -367.397)" fill="#ffa412"/>
      <path id="Path_606" data-name="Path 606" d="M527.847,665.6a5.765,5.765,0,0,0-.335-2,4.205,4.205,0,0,0-1.061-1.563,7.949,7.949,0,0,0-1.89-1.287,21.1,21.1,0,0,0-2.822-1.144,54.833,54.833,0,0,1-5.2-2.062,17.386,17.386,0,0,1-4.012-2.5,10.227,10.227,0,0,1-2.6-3.34,11.541,11.541,0,0,1-.165-8.774,9.711,9.711,0,0,1,2.309-3.32,12.117,12.117,0,0,1,3.613-2.314,16.165,16.165,0,0,1,4.729-1.158l-.042-5.8,4.664-.034.042,5.876a14.489,14.489,0,0,1,4.557,1.295,10.949,10.949,0,0,1,5.716,6.337,14.58,14.58,0,0,1,.807,4.882l-8.425.06a7.1,7.1,0,0,0-1.477-4.85,4.933,4.933,0,0,0-3.875-1.584,6.277,6.277,0,0,0-2.257.382,4.246,4.246,0,0,0-1.553,1.013,3.963,3.963,0,0,0-.893,1.51,5.819,5.819,0,0,0-.278,1.871,5.344,5.344,0,0,0,.3,1.812,3.954,3.954,0,0,0,1.016,1.5,7.994,7.994,0,0,0,1.9,1.286,26.836,26.836,0,0,0,2.939,1.239q2.835,1.036,5.161,2.129a17.577,17.577,0,0,1,4,2.531,9.871,9.871,0,0,1,3.555,7.9,10.553,10.553,0,0,1-.8,4.284,9.584,9.584,0,0,1-2.323,3.294,11.708,11.708,0,0,1-3.643,2.247,17.45,17.45,0,0,1-4.759,1.117l.039,5.389-4.636.033-.038-5.362a19.548,19.548,0,0,1-4.687-1.022,12.388,12.388,0,0,1-4.025-2.314,11.09,11.09,0,0,1-2.826-3.839,13.51,13.51,0,0,1-1.09-5.57l8.426-.06a8.316,8.316,0,0,0,.562,3.205,5.379,5.379,0,0,0,1.458,2.048A5.219,5.219,0,0,0,519.992,670a8.964,8.964,0,0,0,2.349.294,7.483,7.483,0,0,0,2.4-.369,4.987,4.987,0,0,0,1.728-.988,3.973,3.973,0,0,0,1.039-1.484,4.832,4.832,0,0,0,.337-1.857" transform="translate(-307.003 -381.303)" fill="#ffa412"/>
      <path id="Path_607" data-name="Path 607" d="M536.5,931.546l0,.031-.763,11.739L532.9,986.9H479.859l-3.123-42.988-.86-11.848-.038-.519Z" transform="translate(-287.858 -563.541)" fill="#b4c9f7"/>
      <path id="Path_608" data-name="Path 608" d="M536.558,931.624l-.764,11.739a92.916,92.916,0,0,0-29.566-4.736c-18.269,0-29.435,5.333-29.435,5.333l-.86-11.848Z" transform="translate(-287.916 -563.588)" fill="#9bb8ea"/>
      <path id="Path_609" data-name="Path 609" d="M534.271,935.783H469.839l-.738-7.491h65.988Z" transform="translate(-283.783 -561.572)" fill="#b4c9f7"/>
      <path id="Path_610" data-name="Path 610" d="M537.165,1073.566h-55l-.63-2.609h56.323Z" transform="translate(-291.308 -647.877)" fill="#b4c9f7"/>
      <path id="Path_611" data-name="Path 611" d="M1302.86,1051.873h32.7s.784-4.984-.924-8.765c-1.636-3.629-4.2-5.278-3.586-9.668a11.777,11.777,0,0,1-10.193,3.9c-.579.939-3.74,5.966-5.675,7.355-2.137,1.536-11.667.989-12.325,7.178" transform="translate(-788.166 -625.181)" fill="#ff2e39"/>
      <path id="Path_612" data-name="Path 612" d="M1125.115,1054.119h32.7s1.223-5.216-.924-8.765c-1.9-3.141-1.172-4.93.235-7.528a12.712,12.712,0,0,1-5.508,1.037,11.526,11.526,0,0,1-4.863-1.711c-1.407,1.6-7.434,8.435-9.318,9.788-2.137,1.536-11.667.989-12.325,7.178" transform="translate(-680.639 -627.428)" fill="#ff2e39"/>
      <path id="Path_613" data-name="Path 613" d="M991.9,509.621s-6.057-1.182-7.442,0-7.954,7.856-6.548,10.047,8.15-1.814,9.553-2.192,5.322-1.909,5.322-1.909Z" transform="translate(-591.469 -307.979)" fill="#ffb27d"/>
      <path id="Path_614" data-name="Path 614" d="M1195.258,589.625l30.609,60.851c.223-1.3.5-2.862.811-4.654.917-5.253,2.179-12.441,3.621-20.626,3.318-18.835,7.617-42.913,10.957-60.613l-1.75-.562-18.93-6.107-3.912-12.426-14.1-3.711s-3.149,6.16-5.964,35.257c-.519,3.817-.991,8.026-1.346,12.59" transform="translate(-723.072 -327.75)" fill="#233862"/>
      <path id="Path_615" data-name="Path 615" d="M1012.39,401.3l1.912,16.847s33.464-8.34,37.69-10.944c6.437-3.931,17-15.969,23.881-28.009a7.884,7.884,0,0,0,.491-.884c3.587-6.388,6.093-12.727,6.29-17.788a25.417,25.417,0,0,0-.835-8.059,20.544,20.544,0,0,0-3.636-7.272,3.673,3.673,0,0,0-.688-.836,16.98,16.98,0,0,0-4.668-3.98c-1.179-.492-2.457.1-3.783,1.523v.049a22.559,22.559,0,0,0-3.391,5.012c-.049.049-.1.1-.1.148-.246.442-.491.934-.786,1.474a1.23,1.23,0,0,0-.2.344q-.811,1.7-1.622,3.538c-6.043,13.169-12.481,33.119-17.837,39.065-2.309,2.555-32.722,9.772-32.722,9.772" transform="translate(-612.446 -205.811)" fill="#01161e"/>
      <path id="Path_616" data-name="Path 616" d="M1171.937,307.319a36.955,36.955,0,0,0,13.671,3.2c20.41,1.119,25.043-16.773,25.886-28.647a17.114,17.114,0,0,0-7-.885c-1.447.079-2.958.228-4.2.382-2.5-1.3-6.982-7.639-9.574-18.236l-.88.408-14.727,6.923s1.564,4.792,2.72,9.378c.9,3.589,1.548,7.056,1.007,8.026-1.161.472-1.855.768-1.855.768a.038.038,0,0,1-.006.016,101.119,101.119,0,0,0-5.036,18.665" transform="translate(-708.964 -159.184)" fill="#ffb27d"/>
      <path id="Path_617" data-name="Path 617" d="M1215.2,427.217c.869-13.941,2.693-32.786-18.061-57.8a22.789,22.789,0,0,1-1.929-2.6,18.11,18.11,0,0,1-2.608-7.612c-1.13-10.7-.7-20.731-.795-26.829h0c-1.124-.832-2.21-1.6-3.223-2.332a28.786,28.786,0,0,1-3.923-3.255,5.938,5.938,0,0,1-1.882-3.706,19.726,19.726,0,0,1,.079-3.107c.048-.493.111-.986.186-1.479a42.1,42.1,0,0,1,2.958-9.876c-5.476-2.216-15.214-.9-15.214-.9l-27.513,7.65c-8.736,3.43-11.859,6.308-11.859,6.308,15.3,15.625-19.555,43.721,11.166,50.032,13.313,9.683,7.457,50.625,6.211,63.491-.519,3.817-.991,8.026-1.346,12.591-1.1,13.931-31.224,156.333-31.224,156.333h30.328l55.339-1.723,43.371-.606s-30.8-162.762-30.06-174.59" transform="translate(-675.258 -185.927)" fill="#062e40"/>
      <path id="Path_618" data-name="Path 618" d="M1167.539,148.665c.032-.885.717-10.419,15.24-10.918,0,0-7.141.851-8.375,3.991,0,0,4.863-3.88,8.823-2.632s6.286,8.186,6.309,10.468-2.177,9.638-4.69,10.264a7.672,7.672,0,0,1-3.044,0,34.331,34.331,0,0,1,1.951,3.482c5.8,11.9-.182,23.522-5.088,22.237-3.146-.823-4.037,4.545-4.037,4.545l-30.569-24.747s11.228-23.233,23.48-16.694" transform="translate(-692.099 -83.331)" fill="#2c3a64"/>
      <path id="Path_619" data-name="Path 619" d="M1179.961,271.1s1.565,4.788,2.719,9.377c8.608-2.4,11.222-11.45,12.008-16.3Z" transform="translate(-713.818 -159.815)" fill="#ed985f"/>
      <path id="Path_620" data-name="Path 620" d="M1155.32,237.176s20.594-4.766,17.429-17.546-2.639-22-15.922-19.5-14.62,8.01-14.6,12.533,7.656,25.422,13.094,24.512" transform="translate(-690.99 -120.822)" fill="#ffb27d"/>
      <path id="Path_621" data-name="Path 621" d="M1137.891,201.842c2.214-4.632,4.82-4.385,6.449-3.564,9.677-8.953,19.168-1.639,19.168-1.639a25.152,25.152,0,0,0,11.571,12.431s-3.164,3.24-12.333,3.168a15.1,15.1,0,0,1-8.18-3.08,49.294,49.294,0,0,0,10.738,8.009c-11.479-2.2-19.176-15.486-19.965-16.9-.972,1.436-2.832,4.493-2.989,7.074-.212,3.508.995,10.319-1.014,10.578,0,0-6.766-9.135-3.446-16.081" transform="translate(-687.814 -117.256)" fill="#2c3a64"/>
      <path id="Path_622" data-name="Path 622" d="M1145.279,343.655s-5.393,9.741-6.135,11.967c0,0,4.453-4.228,7.049.719,0,0,3.035-11.52-.914-12.685" transform="translate(-689.126 -207.895)" fill="#01161e"/>
      <path id="Path_623" data-name="Path 623" d="M1120.844,393.677l1.72,17.041s29.925-12.195,35.723-14.161a51.712,51.712,0,0,0,10.024-4.471,5.925,5.925,0,0,0,.688-.492c5.749-4.176,12.579-16.461,17.886-29.63.737-1.818,1.425-3.636,2.113-5.4a134.439,134.439,0,0,0,5.6-18.673,52.761,52.761,0,0,0,1.327-8.894,21.632,21.632,0,0,0,.049-2.506c-.1-14.249-7.174-16.215-7.174-16.215-.147-.049-.295-.1-.492-.147-1.228-.2-2.506.638-3.833,2.26a44.651,44.651,0,0,0-5.258,9.287c-2.8,6.339-5.749,14.545-8.5,22.7-1.523,4.471-3,8.943-4.472,13.07-.835,2.506-1.671,4.865-2.457,7.027a67.674,67.674,0,0,1-4.127,9.582c-.787,1.376-38.82,19.625-38.82,19.625" transform="translate(-678.055 -187.594)" fill="#01161e"/>
      <path id="Path_624" data-name="Path 624" d="M1268.658,321.73c9.459-2.608,16.756,4.778,16.756,4.778-.119-14.227-7.2-16.174-7.2-16.174-2.849-1.18-6.151,3.754-9.556,11.4" transform="translate(-767.476 -187.633)" fill="#01161e"/>
      <path id="Path_625" data-name="Path 625" d="M943.618,550.414l-7.772-18.958a5.256,5.256,0,0,0-6.246-3.062,32.4,32.4,0,0,0-10.139-11.534,24.128,24.128,0,0,0-13.685-4.5,19.392,19.392,0,0,0-7.3,1.446c-11.05,4.528-16,18.49-11.947,32.2l-.6.247s-1.889-.131-5.057-.131c-10.008,0-32.759,1.33-48.72,12.416a4.409,4.409,0,0,0-1.042,2.7,4.241,4.241,0,0,0,.337,1.788s25.622-16.591,49.32.458q2.184,1.564,4.241,2.906l2.126,5.188a16.945,16.945,0,0,0,22.045,9.227l21.7-8.895,4.523-1.854a15.1,15.1,0,0,0,8.22-19.638m-42.077-15.367-8.84,3.627a5.181,5.181,0,0,0-3.047,6.049l-.947.388c-3.6-12.492.791-25.088,10.658-29.133a16.643,16.643,0,0,1,4.251-1.123,20.607,20.607,0,0,1,13.534,3.278,29.78,29.78,0,0,1,10.25,11.116l-1.3.534a5.185,5.185,0,0,0-6.412-2.171l-8.845,3.626a4.372,4.372,0,0,0-5.691-2.387l-1.224.5a4.374,4.374,0,0,0-2.382,5.691" transform="translate(-502.774 -309.951)" fill="#c94c43"/>
      <path id="Path_626" data-name="Path 626" d="M885,628.848q-2.062-1.345-4.241-2.906c-23.7-17.05-49.32-.459-49.32-.459a4.238,4.238,0,0,1-.337-1.788c3.586-2.362,17.029-10.219,33.686-7.535,19.517,3.148,23.048,5.863,20.212,12.687" transform="translate(-502.774 -372.414)" fill="#b23b38"/>
      <path id="Path_627" data-name="Path 627" d="M1046.445,570.053l-4.523,1.853c6.779-3.7-1.617-19.341-6.528-29.666s-12.34-5.606-12.34-5.606a5.905,5.905,0,0,0-5.349-3.274,4.124,4.124,0,0,0-2.735-4l1.224-.5a4.371,4.371,0,0,1,5.691,2.387l8.845-3.627a5.186,5.186,0,0,1,6.412,2.171l1.3-.534a29.778,29.778,0,0,0-10.25-11.116,20.607,20.607,0,0,0-13.534-3.279,9.6,9.6,0,0,0,2.161-2.5,24.128,24.128,0,0,1,13.685,4.5,32.4,32.4,0,0,1,10.139,11.534,5.255,5.255,0,0,1,6.246,3.062l7.772,18.958a15.094,15.094,0,0,1-8.22,19.638" transform="translate(-613.821 -309.952)" fill="#b23b38"/>
      <path id="Path_628" data-name="Path 628" d="M1086.37,529.55s-7.412.921-9.9.356c-4.864-1.13-13.022,4.717-13.022,4.717s-.884,1.867,2.261,3.145c3.145,1.326,7.567,5.945,14.643,3.145,2.318-.9,6.928-2.309,6.928-2.309Z" transform="translate(-643.267 -320.353)" fill="#ffb27d"/>
      <path id="Path_629" data-name="Path 629" d="M828.26,656.8c0-2.951-5.343-12.06-5.343-12.06s-5.344,9.108-5.344,12.06a5.343,5.343,0,0,0,10.687,0" transform="translate(-494.591 -390.038)" fill="#afcdfb"/>
      <path id="Path_630" data-name="Path 630" d="M289.073,565.426l3.316,3.6s10.823-2.191,11.365,10.37c0,0-.14,5.3-3.442,4.829s-1.855-.852-6.548-1.395-8.207-3.57-8.339-7.462l-1.767-3.538Z" transform="translate(-171.599 -342.056)" fill="#ea8e50"/>
      <path id="Path_631" data-name="Path 631" d="M136.55,442.178c3.456-2.7,3.551-5.046,3.551-5.046s-30.6-33.5-33.783-36.328c-2.171-1.929-24.452-28.334-34.4-43.9-4.933-7.722-12.668-6.131-21.426-4.943l-7.212.979C34.574,354.12,30.7,365.5,36.73,372.175c16.988,18.813,46.5,41.488,51.964,46.145,13.56,11.562,41.152,26.974,41.152,26.974a18.719,18.719,0,0,0,6.7-3.116" transform="translate(-20.455 -212.316)" fill="#1e3d70"/>
      <path id="Path_632" data-name="Path 632" d="M298.379,1005.39s7.511,7.544,20.914,6.086c0,0,10.76-.857,12.289,4.67,0,0-17.155,5.789-21.52,7.42a48.876,48.876,0,0,0-9.4,5.12,4.234,4.234,0,0,1-6-1.352c-.577-.966-1.231-2.112-1.938-3.435-1.977-3.7-6.147-15.312-6.147-15.312Z" transform="translate(-173.368 -608.213)" fill="#233862"/>
      <path id="Path_633" data-name="Path 633" d="M170.436,341.131A59.564,59.564,0,1,1,220.8,408.655a59.564,59.564,0,0,1-50.362-67.524" transform="translate(-102.725 -175.522)" fill="#e2810e"/>
      <path id="Path_634" data-name="Path 634" d="M157.421,339.236a59.564,59.564,0,1,1,50.361,67.524,59.564,59.564,0,0,1-50.361-67.524" transform="translate(-94.852 -174.375)" fill="#ffb93e"/>
      <path id="Path_635" data-name="Path 635" d="M216.392,411.387a54.269,54.269,0,1,1,40.264-10.2,53.918,53.918,0,0,1-40.264,10.2m15.171-104.2a51.032,51.032,0,1,0,43.148,57.851,51.09,51.09,0,0,0-43.148-57.851" transform="translate(-102.8 -183.545)" fill="#ffa412"/>
      <path id="Path_636" data-name="Path 636" d="M273.414,397.346a8.959,8.959,0,0,0,.327-3.136,6.54,6.54,0,0,0-.942-2.782,12.341,12.341,0,0,0-2.3-2.71,32.677,32.677,0,0,0-3.753-2.883,85.456,85.456,0,0,1-6.941-5.245,27.016,27.016,0,0,1-4.973-5.413,15.888,15.888,0,0,1-2.517-6.082,17.934,17.934,0,0,1,3.388-13.212,15.083,15.083,0,0,1,4.835-4.018,18.816,18.816,0,0,1,6.372-1.97,25.114,25.114,0,0,1,7.564.225l2.339-8.7,7,1.883-2.372,8.82a22.518,22.518,0,0,1,6.291,3.828,17.023,17.023,0,0,1,5.937,11.861,22.661,22.661,0,0,1-.813,7.649l-12.646-3.4q1.312-4.877-.2-7.879a7.668,7.668,0,0,0-5.148-3.978,9.747,9.747,0,0,0-3.539-.362,6.607,6.607,0,0,0-2.746.873,6.166,6.166,0,0,0-1.963,1.892,9.029,9.029,0,0,0-1.191,2.688,8.291,8.291,0,0,0-.3,2.84,6.145,6.145,0,0,0,.9,2.663,12.408,12.408,0,0,0,2.32,2.716,41.937,41.937,0,0,0,3.89,3.073q3.817,2.726,6.849,5.328a27.33,27.33,0,0,1,4.94,5.447,15.341,15.341,0,0,1,2.053,13.3,16.406,16.406,0,0,1-2.974,6.087,14.912,14.912,0,0,1-4.845,3.971,18.2,18.2,0,0,1-6.388,1.857,27.135,27.135,0,0,1-7.592-.3l-2.175,8.088-6.957-1.871,2.164-8.048a30.429,30.429,0,0,1-6.6-3.473,19.272,19.272,0,0,1-5.072-5.134A17.245,17.245,0,0,1,243,394.923a20.992,20.992,0,0,1,.676-8.8l12.647,3.4a12.921,12.921,0,0,0-.486,5.034,8.366,8.366,0,0,0,1.335,3.672,8.12,8.12,0,0,0,2.648,2.455,13.884,13.884,0,0,0,3.4,1.414,11.587,11.587,0,0,0,3.752.442,7.743,7.743,0,0,0,3-.763,6.165,6.165,0,0,0,2.17-1.792,7.509,7.509,0,0,0,1.274-2.643" transform="translate(-146.879 -206.545)" fill="#ffa412"/>
      <path id="Path_637" data-name="Path 637" d="M93.485,1015.407s-1.89,9.37,9.377,12.3c0,0,6.538.987,5.681,7l-33.294-4.74a26.16,26.16,0,0,1-.091-7.793c.4-4.014,5.964-13.852,5.964-13.852Z" transform="translate(-45.34 -609.986)" fill="#233862"/>
      <path id="Path_638" data-name="Path 638" d="M72.168,294.537c-12.666,4.905-35.741-4.679-35.741-4.679s11.35-9.708,9.537-28.268l8.511,6,9.141,6.45a82.825,82.825,0,0,1-.206,9c-.1,1.48-.237,3.13-.427,4.926a31.022,31.022,0,0,1,9.185,6.56" transform="translate(-22.037 -158.251)" fill="#ffb07b"/>
      <path id="Path_639" data-name="Path 639" d="M25.427,319.038c.828-.684,6.614,1.608,11.906,3.706a22.732,22.732,0,0,0,14.015.885l4.746,3.453c5.8,4.436,15.924,18.672,15.894,28.679-.016,5.09,2.3,9.2,2.484,13.7q.105,2.5.247,4.889.271,4.68.662,8.934c.706,7.676,1.661,14.334,2.71,20.119,1.117,6.143,2.34,11.3,3.473,15.619,1.469,5.61,2.785,9.834,3.527,13.03.525,2.251,10,44.364,22.624,79.011,10.583,29.04,17.945,48.874,30.157,76.551,0,0-91.844,14.088-100.754,9.063,0,0-46.942-248.469-11.69-277.643" transform="translate(-7.445 -192.929)" fill="#d2e3fc"/>
      <path id="Path_640" data-name="Path 640" d="M99.795,472.611c-51.35-34-63.182-86.656-63.182-86.656S79,409,89.423,414.909q.271,4.68.662,8.934c.706,7.675,1.661,14.334,2.709,20.118,1.117,6.143,2.34,11.3,3.473,15.62,1.469,5.609,2.785,9.834,3.527,13.029" transform="translate(-22.149 -233.485)" fill="#a4c8fc"/>
      <path id="Path_641" data-name="Path 641" d="M278.129,579.094l4.51,2.441s10.522-5.357,14.865,6.479c0,0,1.451,5.105-2.1,5.651s-2.173-.254-7.185.642-9.554-.936-10.863-4.614l-2.892-2.847Z" transform="translate(-166.036 -350.324)" fill="#ffb07b"/>
      <path id="Path_642" data-name="Path 642" d="M126.057,449.518c2.43-4.339,3.538-6.3,3.538-6.3s-31.726-34.583-35.028-37.634c-2.249-2.079-24.425-24.3-34.446-40.563a25.657,25.657,0,0,0-23.438-12.147l-7.788.485a11.357,11.357,0,0,0-7.855,18.8c17.447,19.992,48.185,44.71,53.854,49.745,14.073,12.5,46.408,31.854,46.408,31.854a8.958,8.958,0,0,0,4.755-4.239" transform="translate(-11.024 -213.44)" fill="#d2e3fc"/>
      <path id="Path_643" data-name="Path 643" d="M77.617,292.246c-11.6-1.03-17.705-11.622-17.705-11.622a92.344,92.344,0,0,0,8.77-3.834l9.141,6.45a82.828,82.828,0,0,1-.206,9" transform="translate(-36.244 -167.446)" fill="#ea8e50"/>
      <path id="Path_644" data-name="Path 644" d="M71.614,238.934s-19.261,9.977-25.289-2.114-12.574-18.946-.531-25.827,16.75-3.467,19.745.079,10.931,24.956,6.075,27.862" transform="translate(-23.616 -125.237)" fill="#ffb07b"/>
      <path id="Path_645" data-name="Path 645" d="M45.208,181.392a28.367,28.367,0,0,0-.985-7.487s-1.754,4.374-9.948,2.542-21.535-2.3-27.286,6.5c-.365.56-.7,1.142-1.017,1.743a22.082,22.082,0,0,1-.222-5.373c-2.166,3.835-1.332,9.149-1.332,9.149h0c-.045.144-.087.29-.129.436C2.236,190.182,0,194.764,0,194.764a5.824,5.824,0,0,1,3.5-2.3c-1.107,7.341.827,14.957,5.745,17.856,7.191,4.24,7.477,1.846,14.425,8.066,0,0,2.436-2.259,1.279-4.184s-6.107-5.2-2.773-7.268,4.019.9,5.364-.656-3.4-7.359,4.319-11.025,13.363-9.548,13.352-13.86" transform="translate(0 -105.205)" fill="#233862"/>
    </g>
  </g>
</svg>
