<svg xmlns="http://www.w3.org/2000/svg" xmlns:xlink="http://www.w3.org/1999/xlink" width="250" height="280.482" viewBox="0 0 250 280.482">
  <defs>
    <clipPath id="clip-path">
      <rect id="Rectangle_239" data-name="Rectangle 239" width="250" height="280.482" fill="none"/>
    </clipPath>
    <clipPath id="clip-path-3">
      <rect id="Rectangle_161" data-name="Rectangle 161" width="231.235" height="280.482" transform="translate(0.036)" fill="none"/>
    </clipPath>
    <clipPath id="clip-path-4">
      <rect id="Rectangle_162" data-name="Rectangle 162" width="250" height="276.79" transform="translate(0 1.049)" fill="none"/>
    </clipPath>
    <clipPath id="clip-path-5">
      <rect id="Rectangle_164" data-name="Rectangle 164" width="111.372" height="144.425" transform="translate(65.518 43.309)" fill="none"/>
    </clipPath>
    <clipPath id="clip-path-6">
      <rect id="Rectangle_165" data-name="Rectangle 165" width="90.514" height="12.957" transform="translate(35.994 234.203)" fill="none"/>
    </clipPath>
    <clipPath id="clip-path-7">
      <rect id="Rectangle_166" data-name="Rectangle 166" width="39.735" height="5.688" transform="translate(158.728 239.162)" fill="none"/>
    </clipPath>
  </defs>
  <g id="Group_151" data-name="Group 151" clip-path="url(#clip-path)">
    <g id="Group_148" data-name="Group 148">
      <g id="Group_147" data-name="Group 147" clip-path="url(#clip-path)">
        <g id="Group_134" data-name="Group 134" opacity="0.2">
          <g id="Group_133" data-name="Group 133">
            <g id="Group_132" data-name="Group 132" clip-path="url(#clip-path-3)">
              <path id="Path_205" data-name="Path 205" d="M22.928,206.463C54.938,262.4,136.72,314.272,205.082,252.5c32.131-29.034-4.948-56.228,2.429-94.586,4.3-22.365,30.8-91.94,21.969-115.342C208.257-13.636,101.73-6.068,60.732,18.963c-70.888,43.277-74.339,123.654-37.8,187.5" fill="#01baef"/>
            </g>
          </g>
        </g>
        <g id="Group_137" data-name="Group 137" opacity="0.2">
          <g id="Group_136" data-name="Group 136">
            <g id="Group_135" data-name="Group 135" clip-path="url(#clip-path-4)">
              <path id="Path_206" data-name="Path 206" d="M211.848,258.571c-49.978,27.514-165.03,33.467-207.375-36-21.734-35.653,43.141-67.286,36.873-98.932C29.04,61.514,66.257,23.891,84.594,13.057c44.044-26.022,112.293-8.2,125.287,38.429,17.707,63.533,79.543,164.377,1.967,207.085" fill="#01baef"/>
            </g>
          </g>
        </g>
        <g id="Group_140" data-name="Group 140" opacity="0.6">
          <g id="Group_139" data-name="Group 139">
            <g id="Group_138" data-name="Group 138" clip-path="url(#clip-path-5)">
              <rect id="Rectangle_163" data-name="Rectangle 163" width="111.372" height="144.424" transform="translate(65.519 43.309)" fill="#036eed"/>
            </g>
          </g>
        </g>
        <g id="Group_143" data-name="Group 143" opacity="0.1">
          <g id="Group_142" data-name="Group 142">
            <g id="Group_141" data-name="Group 141" clip-path="url(#clip-path-6)">
              <path id="Path_207" data-name="Path 207" d="M126.508,240.682c0,3.578-20.262,6.479-45.257,6.479s-45.257-2.9-45.257-6.479S56.257,234.2,81.251,234.2s45.257,2.9,45.257,6.479" fill="#01161e"/>
            </g>
          </g>
        </g>
        <g id="Group_146" data-name="Group 146" opacity="0.1">
          <g id="Group_145" data-name="Group 145">
            <g id="Group_144" data-name="Group 144" clip-path="url(#clip-path-7)">
              <path id="Path_208" data-name="Path 208" d="M198.463,242.006c0,1.571-8.9,2.844-19.868,2.844s-19.867-1.273-19.867-2.844,8.9-2.844,19.867-2.844,19.868,1.274,19.868,2.844"/>
            </g>
          </g>
        </g>
      </g>
    </g>
    <rect id="Rectangle_168" data-name="Rectangle 168" width="37.125" height="2.272" transform="translate(74.609 81.429)" fill="#fff"/>
    <rect id="Rectangle_169" data-name="Rectangle 169" width="14.774" height="2.272" transform="translate(120.068 81.429)" fill="#fff"/>
    <rect id="Rectangle_170" data-name="Rectangle 170" width="47.447" height="2.273" transform="translate(75.178 117.794)" fill="#fff"/>
    <rect id="Rectangle_171" data-name="Rectangle 171" width="29.548" height="2.273" transform="translate(105.673 89.762)" fill="#fff"/>
    <rect id="Rectangle_172" data-name="Rectangle 172" width="37.125" height="2.273" transform="translate(74.609 148.763)" fill="#fff"/>
    <rect id="Rectangle_173" data-name="Rectangle 173" width="14.774" height="2.273" transform="translate(120.068 148.763)" fill="#fff"/>
    <rect id="Rectangle_174" data-name="Rectangle 174" width="5.683" height="2.273" transform="translate(129.159 157.002)" fill="#fff"/>
    <rect id="Rectangle_175" data-name="Rectangle 175" width="25.002" height="2.273" transform="translate(97.339 157.097)" fill="#fff"/>
    <g id="Group_150" data-name="Group 150">
      <g id="Group_149" data-name="Group 149" clip-path="url(#clip-path)">
        <path id="Path_209" data-name="Path 209" d="M120.525,121.468h0a.92.92,0,0,1,.6-1.173l6.319-2.571c.164-.067.382.065.487.292a.427.427,0,0,1-.09.56l-6.032,3.186a.921.921,0,0,1-1.285-.294" fill="#ffb573"/>
        <path id="Path_210" data-name="Path 210" d="M118.46,124.877h0a2.283,2.283,0,0,1,.619-2.864l1.913-1.726c1.7-1.531,4.277-1.929,5.246-.425s-.457,3.688-2.552,4.6l-2.362,1.031a2.284,2.284,0,0,1-2.864-.619" fill="#ffb573"/>
        <path id="Path_211" data-name="Path 211" d="M73.811,128.947c1.816-2.3,3.393-4.5,4.736-6.526,1.245-1.878,1.18-4.1-.161-5.211a4.741,4.741,0,0,0-5.951-3.361c-2.427.571-4.171,2.667-5.805,4.939a12.689,12.689,0,0,0-1.776,4.4c4.93-.463,5.811,3.249,8.957,5.755" fill="#fafdfd"/>
        <path id="Path_212" data-name="Path 212" d="M74.477,124.727c-2.935-1.425-5.927-3.33-9.5-1.914-.281.827-.562,2.125-.843,2.952a30.79,30.79,0,0,1,9.292,1.735c.376-.941.731-1.87,1.055-2.773" fill="#fafdfd"/>
        <path id="Path_213" data-name="Path 213" d="M64.19,125.3q-.372,3.845-.743,7.69a4.6,4.6,0,0,0,1.118,3.826l1.472,1.4c1.267,1.2,2.945.51,3.557-1.481a75.32,75.32,0,0,0,2.008-8.149c.213-1.123.389-2.216.545-3.286a23.778,23.778,0,0,0-7.957,0" fill="#fafdfd"/>
        <path id="Path_214" data-name="Path 214" d="M108.122,134.879l-13.194-18.03c-3.328-3.923-5.419-4.814-8.894-1.866a4.228,4.228,0,0,0-.5,5.582,96.186,96.186,0,0,0,10.618,13.881c.049.052.1.1.148.147.293-6.291,8.186,3.447,11.82.286" fill="#fafdfd"/>
        <path id="Path_215" data-name="Path 215" d="M120.838,124.64l-1.579-1.854-1.932-1.185s-8.54,9.007-11.963,11.56L93.733,115.522c-3.308,2.258,3.171,13.913,2.3,18.229a26.268,26.268,0,0,0,5.256,9.727,3.993,3.993,0,0,0,2.184,1.134,3.409,3.409,0,0,0,.355.1,1.639,1.639,0,0,0,.726-.113,3.113,3.113,0,0,0,1.807-.944c3.7-2.413,15.934-16.921,15.934-16.921Z" fill="#fafdfd"/>
        <path id="Path_216" data-name="Path 216" d="M78.3,114.1a1.006,1.006,0,0,0,.595,1.265,15.024,15.024,0,0,0,9.749.367,1.007,1.007,0,0,0,.632-1.344,26.034,26.034,0,0,1-1.645-6.769,19.468,19.468,0,0,1,0-4.359,30.891,30.891,0,0,1-8.719.623,24.747,24.747,0,0,1,.623,4.359A17.023,17.023,0,0,1,78.3,114.1" fill="#f9a25a"/>
        <path id="Path_217" data-name="Path 217" d="M95.469,156.954A25.849,25.849,0,0,0,85,159.262c-.517.24-1.36-.246-2.346-.777-2.772-4.361-2.832-16.371-4.834-16.541-8.1,16.265-9.091,42.049-9.091,56.823,0,5.386,2.521,31.015,1.576,36.8l6.481,3.764c.826.144.1-5.886.022-5.051,1.51-16.124,5.178-34.7,6.41-49.952,1.069,16.313.49,47.444.336,51.239.419.726,1.98,3.642,2.815,3.558l3.676-5.07c-1.952-4.666,7.613-42.242,8.169-47.6a69.5,69.5,0,0,0-2.75-29.5" fill="#b7cdcf"/>
        <path id="Path_218" data-name="Path 218" d="M95.663,151.466c.6,4.455,7.877,79,7.877,79-7.2,2.746-30.256.377-38.022,0-3.119-.152,7.6-77.436,6.842-82.929-.827-6-4.3-9.011-4.167-17.236a33.988,33.988,0,0,1,1.423-10.9,9.8,9.8,0,0,1,10.947-7l4.792.07c6.485-.553,11.432,4.68,10.623,10.566-.971,7.073.075,7.466.414,15.283.146,3.366-1.117,10.267-.729,13.145" fill="#fff"/>
        <path id="Path_219" data-name="Path 219" d="M76.8,234.054c.827.511,2.017,1.144,2.921,1.638A22.792,22.792,0,0,0,84.8,237.75a1.693,1.693,0,0,1,1.1,1.716c-.008.243-.015.467-.015.635-5.679-.189-15.339.149-15.579,0-.638-.4-.435-2.379,0-4.535a9,9,0,0,0,2.6,0,9.633,9.633,0,0,0,3.9-1.512"/>
        <path id="Path_220" data-name="Path 220" d="M90.05,234.054c.827.511,2.018,1.144,2.921,1.638a22.792,22.792,0,0,0,5.078,2.058,1.693,1.693,0,0,1,1.1,1.716c-.008.243-.014.467-.014.635-5.68-.189-15.34.149-15.579,0-.639-.4-.436-2.379,0-4.535a8.994,8.994,0,0,0,2.6,0,9.633,9.633,0,0,0,3.9-1.512"/>
        <path id="Path_221" data-name="Path 221" d="M91.281,97.807c.573,5.053-1.741,9.464-5.169,9.853s-6.672-3.392-7.245-8.445,1.741-9.464,5.169-9.853,6.672,3.392,7.245,8.445" fill="#ffb573"/>
        <path id="Path_222" data-name="Path 222" d="M84.633,108.267a7.587,7.587,0,0,0,3-2.356,15.053,15.053,0,0,1-1.382-3.377,9.315,9.315,0,0,1-3.877-1.127c-1.143,2.287,1.061,4.573,2.255,6.86" fill="#012377"/>
        <path id="Path_223" data-name="Path 223" d="M86.947,95.631c.1-.156.191-.316.309-.467,3.09-3.611,5.267-4.682,4.291-10.924a7.791,7.791,0,0,1-4.486,2.926c-3.029.713-3.878.236-7.94,1.382a7.941,7.941,0,0,0-2.538,1.219c-3.22,2.366-3.992,5.187-3.5,8.626a23.215,23.215,0,0,0,13.868-2.762" fill="#012377"/>
        <path id="Path_224" data-name="Path 224" d="M73.079,98.393c2.075,5.764,5.567,5.91,5.981,8.605.285,1.847,2.242,2.133,4.725,1.6.235-.078.526-.186.848-.329-1.194-2.287-3.4-4.574-2.255-6.86a9.33,9.33,0,0,0,3.877,1.127,8.485,8.485,0,0,1,.692-6.9,23.2,23.2,0,0,1-13.868,2.762" fill="#012377"/>
        <path id="Path_225" data-name="Path 225" d="M87.008,103.722c-.528.4-1.449.091-2.056-.7s-.672-1.763-.144-2.168,1.449-.09,2.056.7.672,1.762.144,2.167" fill="#ffb573"/>
        <path id="Path_226" data-name="Path 226" d="M150.377,46.4h0L92.794,54.721V46.4a3.238,3.238,0,0,1,3.238-3.239h14.842l1.383-3.5a10.024,10.024,0,0,1,18.646,0l1.382,3.5h14.853a3.239,3.239,0,0,1,3.239,3.239m-26.138-6.648a2.654,2.654,0,1,0-2.659,2.659,2.653,2.653,0,0,0,2.659-2.659" fill="#063ea6"/>
        <path id="Path_227" data-name="Path 227" d="M150.377,46.4V57.358a3.239,3.239,0,0,1-3.239,3.239H96.032a3.238,3.238,0,0,1-3.238-3.239V54.722Z" fill="#012377"/>
        <rect id="Rectangle_176" data-name="Rectangle 176" width="0.903" height="1.558" transform="translate(142.856 85.807)" fill="#ffffed"/>
        <rect id="Rectangle_177" data-name="Rectangle 177" width="0.903" height="1.558" transform="translate(142.856 88.601)" fill="#ffffed"/>
        <rect id="Rectangle_178" data-name="Rectangle 178" width="0.903" height="1.558" transform="translate(142.856 91.385)" fill="#ffffed"/>
        <rect id="Rectangle_179" data-name="Rectangle 179" width="1.558" height="0.904" transform="translate(153.907 80.35)" fill="#ffffed"/>
        <rect id="Rectangle_180" data-name="Rectangle 180" width="1.558" height="0.904" transform="translate(151.113 80.35)" fill="#ffffed"/>
        <rect id="Rectangle_181" data-name="Rectangle 181" width="1.558" height="0.904" transform="translate(148.328 80.35)" fill="#ffffed"/>
        <rect id="Rectangle_182" data-name="Rectangle 182" width="0.903" height="1.558" transform="translate(160.018 91.401)" fill="#ffffed"/>
        <rect id="Rectangle_183" data-name="Rectangle 183" width="0.903" height="1.558" transform="translate(160.018 88.608)" fill="#ffffed"/>
        <rect id="Rectangle_184" data-name="Rectangle 184" width="0.903" height="1.558" transform="translate(160.018 85.823)" fill="#ffffed"/>
        <rect id="Rectangle_185" data-name="Rectangle 185" width="1.558" height="0.903" transform="translate(148.312 97.512)" fill="#ffffed"/>
        <rect id="Rectangle_186" data-name="Rectangle 186" width="1.558" height="0.903" transform="translate(151.106 97.512)" fill="#ffffed"/>
        <rect id="Rectangle_187" data-name="Rectangle 187" width="1.558" height="0.903" transform="translate(153.891 97.512)" fill="#ffffed"/>
        <rect id="Rectangle_188" data-name="Rectangle 188" width="0.907" height="1.506" transform="translate(142.792 83.061)" fill="#ffffed"/>
        <path id="Path_228" data-name="Path 228" d="M142.792,80.35v1.506h.907v-.6h.6v-.9Z" fill="#ffffed" fill-rule="evenodd"/>
        <rect id="Rectangle_189" data-name="Rectangle 189" width="1.506" height="0.903" transform="translate(145.503 80.35)" fill="#ffffed"/>
        <rect id="Rectangle_190" data-name="Rectangle 190" width="1.506" height="0.907" transform="translate(156.705 80.287)" fill="#ffffed"/>
        <path id="Path_229" data-name="Path 229" d="M160.922,80.287h-1.506v.907h.6v.6h.9Z" fill="#ffffed" fill-rule="evenodd"/>
        <rect id="Rectangle_191" data-name="Rectangle 191" width="0.904" height="1.505" transform="translate(160.018 82.998)" fill="#ffffed"/>
        <rect id="Rectangle_192" data-name="Rectangle 192" width="0.907" height="1.506" transform="translate(160.078 94.2)" fill="#ffffed"/>
        <path id="Path_230" data-name="Path 230" d="M160.985,98.416V96.91h-.907v.6h-.6v.9Z" fill="#ffffed" fill-rule="evenodd"/>
        <rect id="Rectangle_193" data-name="Rectangle 193" width="1.506" height="0.904" transform="translate(156.768 97.513)" fill="#ffffed"/>
        <rect id="Rectangle_194" data-name="Rectangle 194" width="1.506" height="0.907" transform="translate(145.566 97.572)" fill="#ffffed"/>
        <path id="Path_231" data-name="Path 231" d="M142.855,98.479h1.506v-.907h-.6v-.6h-.9Z" fill="#ffffed" fill-rule="evenodd"/>
        <rect id="Rectangle_195" data-name="Rectangle 195" width="0.903" height="1.506" transform="translate(142.855 94.263)" fill="#ffffed"/>
        <rect id="Rectangle_196" data-name="Rectangle 196" width="0.903" height="1.558" transform="translate(142.856 119.143)" fill="#ffffed"/>
        <rect id="Rectangle_197" data-name="Rectangle 197" width="0.903" height="1.558" transform="translate(142.856 121.937)" fill="#ffffed"/>
        <rect id="Rectangle_198" data-name="Rectangle 198" width="0.903" height="1.558" transform="translate(142.856 124.721)" fill="#ffffed"/>
        <rect id="Rectangle_199" data-name="Rectangle 199" width="1.558" height="0.904" transform="translate(153.907 113.686)" fill="#ffffed"/>
        <rect id="Rectangle_200" data-name="Rectangle 200" width="1.558" height="0.904" transform="translate(151.113 113.686)" fill="#ffffed"/>
        <rect id="Rectangle_201" data-name="Rectangle 201" width="1.558" height="0.904" transform="translate(148.328 113.686)" fill="#ffffed"/>
        <rect id="Rectangle_202" data-name="Rectangle 202" width="0.903" height="1.558" transform="translate(160.018 124.737)" fill="#ffffed"/>
        <rect id="Rectangle_203" data-name="Rectangle 203" width="0.903" height="1.558" transform="translate(160.018 121.943)" fill="#ffffed"/>
        <rect id="Rectangle_204" data-name="Rectangle 204" width="0.903" height="1.558" transform="translate(160.018 119.159)" fill="#ffffed"/>
        <rect id="Rectangle_205" data-name="Rectangle 205" width="1.558" height="0.904" transform="translate(148.312 130.848)" fill="#ffffed"/>
        <rect id="Rectangle_206" data-name="Rectangle 206" width="1.558" height="0.904" transform="translate(151.106 130.848)" fill="#ffffed"/>
        <rect id="Rectangle_207" data-name="Rectangle 207" width="1.558" height="0.904" transform="translate(153.891 130.848)" fill="#ffffed"/>
        <rect id="Rectangle_208" data-name="Rectangle 208" width="0.907" height="1.507" transform="translate(142.792 116.396)" fill="#ffffed"/>
        <path id="Path_232" data-name="Path 232" d="M142.792,113.686v1.505h.907v-.6h.6v-.9Z" fill="#ffffed" fill-rule="evenodd"/>
        <rect id="Rectangle_209" data-name="Rectangle 209" width="1.506" height="0.903" transform="translate(145.503 113.686)" fill="#ffffed"/>
        <rect id="Rectangle_210" data-name="Rectangle 210" width="1.506" height="0.907" transform="translate(156.705 113.623)" fill="#ffffed"/>
        <path id="Path_233" data-name="Path 233" d="M160.922,113.623h-1.506v.907h.6v.6h.9Z" fill="#ffffed" fill-rule="evenodd"/>
        <rect id="Rectangle_211" data-name="Rectangle 211" width="0.904" height="1.506" transform="translate(160.018 116.333)" fill="#ffffed"/>
        <rect id="Rectangle_212" data-name="Rectangle 212" width="0.907" height="1.506" transform="translate(160.078 127.535)" fill="#ffffed"/>
        <path id="Path_234" data-name="Path 234" d="M160.985,131.752v-1.5h-.907v.6h-.6v.9Z" fill="#ffffed" fill-rule="evenodd"/>
        <rect id="Rectangle_213" data-name="Rectangle 213" width="1.506" height="0.903" transform="translate(156.768 130.849)" fill="#ffffed"/>
        <rect id="Rectangle_214" data-name="Rectangle 214" width="1.506" height="0.907" transform="translate(145.566 130.908)" fill="#ffffed"/>
        <path id="Path_235" data-name="Path 235" d="M142.855,131.815h1.506v-.907h-.6v-.6h-.9Z" fill="#ffffed" fill-rule="evenodd"/>
        <rect id="Rectangle_215" data-name="Rectangle 215" width="0.903" height="1.506" transform="translate(142.855 127.599)" fill="#ffffed"/>
        <rect id="Rectangle_216" data-name="Rectangle 216" width="0.903" height="1.558" transform="translate(142.856 152.479)" fill="#ffffed"/>
        <rect id="Rectangle_217" data-name="Rectangle 217" width="0.903" height="1.558" transform="translate(142.856 155.272)" fill="#ffffed"/>
        <rect id="Rectangle_218" data-name="Rectangle 218" width="0.903" height="1.558" transform="translate(142.856 158.057)" fill="#ffffed"/>
        <rect id="Rectangle_219" data-name="Rectangle 219" width="1.558" height="0.903" transform="translate(153.907 147.023)" fill="#ffffed"/>
        <rect id="Rectangle_220" data-name="Rectangle 220" width="1.558" height="0.903" transform="translate(151.113 147.023)" fill="#ffffed"/>
        <rect id="Rectangle_221" data-name="Rectangle 221" width="1.558" height="0.903" transform="translate(148.328 147.023)" fill="#ffffed"/>
        <rect id="Rectangle_222" data-name="Rectangle 222" width="0.903" height="1.558" transform="translate(160.018 158.073)" fill="#ffffed"/>
        <rect id="Rectangle_223" data-name="Rectangle 223" width="0.903" height="1.558" transform="translate(160.018 155.279)" fill="#ffffed"/>
        <rect id="Rectangle_224" data-name="Rectangle 224" width="0.903" height="1.558" transform="translate(160.018 152.495)" fill="#ffffed"/>
        <rect id="Rectangle_225" data-name="Rectangle 225" width="1.558" height="0.903" transform="translate(148.312 164.184)" fill="#ffffed"/>
        <rect id="Rectangle_226" data-name="Rectangle 226" width="1.558" height="0.903" transform="translate(151.106 164.184)" fill="#ffffed"/>
        <rect id="Rectangle_227" data-name="Rectangle 227" width="1.558" height="0.903" transform="translate(153.891 164.184)" fill="#ffffed"/>
        <rect id="Rectangle_228" data-name="Rectangle 228" width="0.907" height="1.506" transform="translate(142.792 149.732)" fill="#ffffed"/>
        <path id="Path_236" data-name="Path 236" d="M142.792,147.021v1.506h.907v-.6h.6v-.9Z" fill="#ffffed" fill-rule="evenodd"/>
        <rect id="Rectangle_229" data-name="Rectangle 229" width="1.506" height="0.904" transform="translate(145.503 147.021)" fill="#ffffed"/>
        <rect id="Rectangle_230" data-name="Rectangle 230" width="1.506" height="0.907" transform="translate(156.705 146.959)" fill="#ffffed"/>
        <path id="Path_237" data-name="Path 237" d="M160.922,146.958h-1.506v.907h.6v.6h.9Z" fill="#ffffed" fill-rule="evenodd"/>
        <rect id="Rectangle_231" data-name="Rectangle 231" width="0.904" height="1.506" transform="translate(160.018 149.669)" fill="#ffffed"/>
        <rect id="Rectangle_232" data-name="Rectangle 232" width="0.907" height="1.506" transform="translate(160.078 160.871)" fill="#ffffed"/>
        <path id="Path_238" data-name="Path 238" d="M160.985,165.088v-1.506h-.907v.6h-.6v.9Z" fill="#ffffed" fill-rule="evenodd"/>
        <rect id="Rectangle_233" data-name="Rectangle 233" width="1.506" height="0.903" transform="translate(156.768 164.185)" fill="#ffffed"/>
        <rect id="Rectangle_234" data-name="Rectangle 234" width="1.506" height="0.907" transform="translate(145.566 164.244)" fill="#ffffed"/>
        <path id="Path_239" data-name="Path 239" d="M142.855,165.151h1.506v-.907h-.6v-.6h-.9Z" fill="#ffffed" fill-rule="evenodd"/>
        <rect id="Rectangle_235" data-name="Rectangle 235" width="0.903" height="1.505" transform="translate(142.855 160.935)" fill="#ffffed"/>
        <path id="Path_240" data-name="Path 240" d="M154.629,96l-6.954-6.954,1.608-1.607,5.169,5.168,12.085-14.929,1.767,1.43Z" fill="#02b6ff"/>
        <path id="Path_241" data-name="Path 241" d="M154.629,129.34l-6.954-6.954,1.607-1.607,5.169,5.168,12.085-14.929,1.767,1.43Z" fill="#02b6ff"/>
        <rect id="Rectangle_236" data-name="Rectangle 236" width="2.273" height="22.02" transform="translate(147.163 152.692) rotate(-45)" fill="#ed1c24"/>
        <rect id="Rectangle_237" data-name="Rectangle 237" width="22.02" height="2.273" transform="translate(147.163 166.655) rotate(-45)" fill="#ed1c24"/>
        <path id="Path_242" data-name="Path 242" d="M188.253,214.372h-17.67l3.461,24.731h.006c.063,1.24,1.812,2.238,5.368,2.238s5.305-1,5.368-2.238h.006Z" fill="#f6ecf1"/>
        <path id="Path_243" data-name="Path 243" d="M188.253,214.507c0,1.243-3.956,2.25-8.835,2.25s-8.835-1.007-8.835-2.25,3.955-2.25,8.835-2.25,8.835,1.007,8.835,2.25" fill="#33484a"/>
        <path id="Path_244" data-name="Path 244" d="M177.9,213.6c-.525-21.479,1.659-54.637,3.565-58.743l-.406-.172c-1.915,4.127-4.119,37.417-3.6,58.963.145-.02.291-.033.437-.048" fill="#33484a"/>
        <path id="Path_245" data-name="Path 245" d="M181.7,213.755a128.861,128.861,0,0,1,3.669-26.312c.971-4.38,1.975-8.91,2.84-14.693l-.439-.06c-.863,5.769-1.865,10.292-2.834,14.666a129.146,129.146,0,0,0-3.677,26.329c.147.025.3.04.441.07" fill="#33484a"/>
        <path id="Path_246" data-name="Path 246" d="M178.965,213.52A110.387,110.387,0,0,1,191.837,181.6l-.385-.211A110.792,110.792,0,0,0,178.5,213.555c.154-.01.307-.031.461-.035" fill="#33484a"/>
        <path id="Path_247" data-name="Path 247" d="M209.376,168.217a8.19,8.19,0,0,0,4.63-3.671c-.009.1-.018.191-.026.288-.125.31-.267.636-.439.992-2.329,4.833-5.358,8.034-8.157,8.407a7.542,7.542,0,0,0-3.672,1.517c-.523.411-.927.954-1.481,1.323-1.353.89-3.162.53-4.8.449a12.8,12.8,0,0,0-2.514.128c.013-.115.018-.229.026-.344a3.553,3.553,0,0,1,2.036-2.675,8.5,8.5,0,0,1,3.486-.759c.873-.042,1.969-.174,2.24-.97a4.845,4.845,0,0,0,.088-.912c.156-1.17,1.481-1.806,2.661-2.149,1.965-.577,4.009-.9,5.921-1.624" fill="#5c704d"/>
        <path id="Path_248" data-name="Path 248" d="M185.584,159.559a8.545,8.545,0,0,0-.381-8.465c.576.85,1.094,1.715,1.571,2.585,2.638,6.2.421,8.7,1.346,10.786.578,1.3,1.765,2.521,1.478,3.907a5.933,5.933,0,0,1-1.143,1.98,6.206,6.206,0,0,0-.993,2.693,1.566,1.566,0,0,1-.828-1.141c-.2-.779.3-1.567.283-2.372-.052-1.844-2.633-2.645-3.334-4.363a3.606,3.606,0,0,1,.349-2.971c.474-.92,1.154-1.733,1.652-2.639" fill="#5c704d"/>
        <path id="Path_249" data-name="Path 249" d="M184.585,134.686a23.842,23.842,0,0,1,2.065-4.937,16.6,16.6,0,0,1-.979,8.3A13.259,13.259,0,0,0,184.4,141.3c-.3,2.038.939,4.084.583,6.115-.314,1.81-1.8,3.186-2.9,4.688a6.262,6.262,0,0,0-1.21,2.8,6.919,6.919,0,0,1-1.919-2.653,3.788,3.788,0,0,1,.767-4.409,14.063,14.063,0,0,0,1.9-1.326c.839-.959.564-2.419-.017-3.54a13.731,13.731,0,0,1-1.68-3.364,1.959,1.959,0,0,1,.356-1.718c.794-.857,2.363-.477,3.3-1.181a3.482,3.482,0,0,0,1-2.031" fill="#5c704d"/>
        <path id="Path_250" data-name="Path 250" d="M187.659,134.768c.076,1.088.157,2.174.234,3.262.3,4.128.594,8.325-.38,12.359a9.044,9.044,0,0,1-1.682,3.73c-1.7,2.045-3.524,1.954-4.957.789a6.262,6.262,0,0,1,1.21-2.8c1.107-1.5,2.59-2.879,2.9-4.688.357-2.031-.88-4.077-.583-6.115a13.223,13.223,0,0,1,1.268-3.254,16.627,16.627,0,0,0,.979-8.3c.181-.358.376-.719.567-1.08q.221,3.052.441,6.1" fill="#304b4f"/>
        <path id="Path_251" data-name="Path 251" d="M188.12,164.465c-.924-2.086,1.292-4.588-1.345-10.786a49.139,49.139,0,0,1,4.414,12.293c.4,1.664,1.051,3.007.371,4.684-.464,1.14-2.766,2.982-4.1,2.389a6.2,6.2,0,0,1,.992-2.693,5.953,5.953,0,0,0,1.144-1.98c.287-1.386-.9-2.6-1.479-3.907" fill="#304b4f"/>
        <path id="Path_252" data-name="Path 252" d="M213.54,165.826c.173-.356.315-.683.439-.992-.452,4.676-3.295,8.983-7.145,11.912a27.984,27.984,0,0,1-9.885,4.612c-1.309.344-3.393,1.171-4.724.547a1.818,1.818,0,0,1-.137-3.4,1.8,1.8,0,0,0,.736-.556.917.917,0,0,0,.093-.3,12.731,12.731,0,0,1,2.515-.127c1.636.08,3.446.441,4.8-.449.555-.369.958-.912,1.482-1.323a7.544,7.544,0,0,1,3.672-1.518c2.8-.373,5.827-3.573,8.156-8.406" fill="#304b4f"/>
      </g>
    </g>
  </g>
</svg>
