<svg xmlns="http://www.w3.org/2000/svg" width="392.304" height="309.628" viewBox="0 0 392.304 309.628">
  <g id="Group_1465" data-name="Group 1465" transform="translate(-146.874 -349.627)">
    <g id="Group_1449" data-name="Group 1449" transform="translate(146.874 349.627)">
      <path id="Path_3078" data-name="Path 3078" d="M307.359,420.656c75.1-104.293,197.932-83.583,212.648-3.393,4.618,25.165,3.645,53.227,15.471,68.569,37.193,48.253,31.708,92.46,20.17,99.939-60.16,65.41-260.548,7.561-285.5-24.8-10.2-24.1-2.5-51.231-1.522-78.413C261.44,455.1,292.391,441.443,307.359,420.656Z" transform="translate(-172.301 -349.627)" fill="#dde8fe"/>
      <g id="Group_1427" data-name="Group 1427" transform="translate(220.765 148.508)">
        <g id="Group_1422" data-name="Group 1422" transform="translate(0 0)">
          <rect id="Rectangle_2359" data-name="Rectangle 2359" width="137.689" height="69.971" transform="matrix(0.754, -0.657, 0.657, 0.754, 0, 90.4)" fill="#4951ec"/>
          <g id="Group_1421" data-name="Group 1421" transform="translate(5.55 5.437)">
            <path id="Path_3079" data-name="Path 3079" d="M574.014,593.6l-97.123,84.54-41.573-47.761,97.123-84.541ZM477.3,672.266l90.846-79.077L532.033,551.7l-90.846,79.077Z" transform="translate(-435.317 -545.834)" fill="#dde8fe"/>
          </g>
          <path id="Path_3080" data-name="Path 3080" d="M535.987,605.6c10.35,11.891,9.965,29.167-.858,38.589s-27.988,7.42-38.338-4.47-9.965-29.167.858-38.589S525.637,593.712,535.987,605.6Z" transform="translate(-441.389 -551.028)" fill="#dde8fe"/>
          <path id="Path_3081" data-name="Path 3081" d="M517.152,616.307a4.817,4.817,0,0,0-4.255-.952,4.074,4.074,0,0,0,.322.524c1.6,1.86,3.215,3.706,4.8,5.581a.786.786,0,0,0,1.1.232,34.3,34.3,0,0,1,3.524-1.291c4.2-1.261,7.535.4,9.841,3.8,2.777,4.1,2.586,8-.392,11.988a1.114,1.114,0,0,0,.111,1.758c.436.42.8.913,1.238,1.42l-2.4,2.066-1.856-2.154c-5.954,3.663-10.766,1.26-13.4-1.351l3.886-4.171a7.573,7.573,0,0,0,5.952,1.411l-2.425-2.814c-1.049-1.216-2.118-2.416-3.136-3.658a.914.914,0,0,0-1.255-.322,12.2,12.2,0,0,1-5.607,1.138c-3.989-.268-6.613-2.579-8.177-5.994-1.461-3.188-.749-6.276,1.425-9.014.145-.183.293-.363.434-.549a3.1,3.1,0,0,0,.168-.3l-1.55-1.8,2.434-2.1c.369.428.774.84,1.109,1.3.355.49.676.468,1.165.17a8.6,8.6,0,0,1,7.038-1.157,9.127,9.127,0,0,1,3.641,2.018Zm5.5,10.442,5.554,6.445a4.339,4.339,0,0,0,.166-5.5C527.148,625.993,524.962,625.6,522.656,626.749ZM510.3,617.507a4.175,4.175,0,0,0,.388,4.786,4.025,4.025,0,0,0,4.52.909Z" transform="translate(-444.618 -554.167)" fill="#8fd0d6"/>
          <path id="Path_3082" data-name="Path 3082" d="M481.058,665.317a3.793,3.793,0,1,0-.37,5.351A3.792,3.792,0,0,0,481.058,665.317Z" transform="translate(-438.186 -565.852)" fill="#cbefef"/>
          <path id="Path_3083" data-name="Path 3083" d="M570.4,587.553a3.793,3.793,0,1,0-.371,5.352A3.793,3.793,0,0,0,570.4,587.553Z" transform="translate(-457.429 -549.102)" fill="#dde8fe"/>
        </g>
        <path id="Path_3084" data-name="Path 3084" d="M587.193,594.97l-4.988-5.731-80.938,16.6v5.253Z" transform="translate(-443.973 -549.746)" fill="#bed1f9" style="mix-blend-mode: multiply;isolation: isolate"/>
        <g id="Group_1424" data-name="Group 1424" transform="translate(23.193 42.084)">
          <rect id="Rectangle_2360" data-name="Rectangle 2360" width="137.689" height="69.971" transform="translate(0 25.753) rotate(-10.78)" fill="#7c9af2"/>
          <g id="Group_1423" data-name="Group 1423" transform="translate(5.006 4.101)">
            <path id="Path_3085" data-name="Path 3085" d="M602.518,659.972l-126.49,24.083-11.844-62.2,126.491-24.083ZM479.336,679.19l118.317-22.527-10.288-54.03L469.049,625.16Z" transform="translate(-464.184 -597.768)" fill="#dde8fe"/>
          </g>
          <ellipse id="Ellipse_123" data-name="Ellipse 123" cx="25.983" cy="28.543" rx="25.983" ry="28.543" transform="translate(43.376 24.155) rotate(-10.78)" fill="#dde8fe"/>
          <path id="Path_3086" data-name="Path 3086" d="M551.914,638.01a4.812,4.812,0,0,0-3.2-2.967,4.1,4.1,0,0,0,.014.615c.443,2.413.909,4.821,1.331,7.238.093.529.305.69.837.757a34.028,34.028,0,0,1,3.694.661c4.267,1.029,6.308,4.143,6.585,8.242.333,4.938-1.8,8.214-6.38,10.158-.836.355-1.017.774-.789,1.574.165.582.232,1.193.354,1.85l-3.112.577c-.176-.945-.348-1.879-.518-2.8-6.988.163-9.935-4.336-10.892-7.917l5.458-1.645a7.57,7.57,0,0,0,4.43,4.219l-.677-3.652c-.293-1.579-.613-3.154-.865-4.739a.915.915,0,0,0-.922-.911,12.184,12.184,0,0,1-5.417-1.842c-3.311-2.241-4.413-5.56-4.043-9.3.345-3.49,2.516-5.8,5.773-7.068.217-.085.436-.166.651-.256a2.867,2.867,0,0,0,.293-.17l-.432-2.335,3.159-.585c.1.556.246,1.116.3,1.685.059.6.348.745.92.734a8.6,8.6,0,0,1,6.663,2.547,9.139,9.139,0,0,1,2.129,3.578Zm-.507,11.793,1.55,8.365a4.339,4.339,0,0,0,2.915-4.669C555.667,651.413,553.979,649.97,551.407,649.8ZM545.394,635.6a4.174,4.174,0,0,0-2.076,4.329,4.026,4.026,0,0,0,3.446,3.063Z" transform="translate(-475.021 -600.119)" fill="#92b5f9"/>
          <path id="Path_3087" data-name="Path 3087" d="M497.115,662.03a3.793,3.793,0,1,0-3.016,4.436A3.793,3.793,0,0,0,497.115,662.03Z" transform="translate(-464.651 -606.844)" fill="#cbefef"/>
          <path id="Path_3088" data-name="Path 3088" d="M613.467,639.877a3.793,3.793,0,1,0-3.016,4.435A3.793,3.793,0,0,0,613.467,639.877Z" transform="translate(-489.713 -602.073)" fill="#cbefef"/>
        </g>
        <g id="Group_1426" data-name="Group 1426" transform="translate(4.904 69.619)">
          <rect id="Rectangle_2361" data-name="Rectangle 2361" width="137.689" height="69.971" transform="matrix(0.987, 0.163, -0.163, 0.987, 11.378, 0)" fill="#7c9af2"/>
          <g id="Group_1425" data-name="Group 1425" transform="translate(4.944 4.006)">
            <path id="Path_3089" data-name="Path 3089" d="M567.845,716.158,440.8,695.219l10.3-62.478,127.05,20.939ZM445.577,691.79l118.839,19.585,8.944-54.268L454.521,637.522Z" transform="translate(-440.796 -632.741)" fill="#dde8fe"/>
          </g>
          <path id="Path_3090" data-name="Path 3090" d="M546.843,682.442c-2.564,15.554-16.12,26.271-30.279,23.938s-23.559-16.834-21-32.388,16.12-26.272,30.278-23.938S549.407,666.888,546.843,682.442Z" transform="translate(-447.559 -632.395)" fill="#dde8fe"/>
          <path id="Path_3091" data-name="Path 3091" d="M530.855,672.66a4.815,4.815,0,0,0-1.98-3.885,4.165,4.165,0,0,0-.2.581c-.415,2.418-.806,4.84-1.242,7.254a.786.786,0,0,0,.525,1A34.083,34.083,0,0,1,531.2,679.5c3.652,2.435,4.5,6.061,3.345,10.005-1.387,4.752-4.516,7.093-9.487,7.34-.906.046-1.221.377-1.283,1.206-.046.6-.192,1.2-.3,1.86l-3.12-.53q.242-1.422.476-2.8c-6.617-2.253-7.833-7.491-7.5-11.184l5.691.335a7.574,7.574,0,0,0,2.706,5.486c.229-1.346.426-2.5.622-3.663.268-1.583.511-3.172.819-4.748a.914.914,0,0,0-.552-1.172,12.193,12.193,0,0,1-4.451-3.594c-2.337-3.244-2.229-6.74-.595-10.121,1.526-3.158,4.358-4.577,7.854-4.648.233,0,.466-.005.7-.016a3.22,3.22,0,0,0,.334-.059c.126-.743.256-1.508.4-2.341l3.167.537c-.095.558-.154,1.133-.3,1.686-.152.586.07.819.612,1.006a8.593,8.593,0,0,1,5.378,4.685,9.135,9.135,0,0,1,.766,4.092Zm-4.537,10.9c-.484,2.849-.954,5.617-1.425,8.388a4.338,4.338,0,0,0,4.344-3.38C529.764,686.536,528.675,684.6,526.318,683.557Zm-.754-15.407a4.174,4.174,0,0,0-3.441,3.349,4.027,4.027,0,0,0,2.181,4.063C524.717,673.131,525.131,670.7,525.564,668.15Z" transform="translate(-451.464 -634.791)" fill="#92b5f9"/>
          <path id="Path_3092" data-name="Path 3092" d="M472.857,675.889a3.793,3.793,0,1,0-4.359,3.126A3.793,3.793,0,0,0,472.857,675.889Z" transform="translate(-441.134 -637.078)" fill="#cbefef"/>
          <path id="Path_3093" data-name="Path 3093" d="M589.723,695.149a3.793,3.793,0,1,0-4.359,3.126A3.792,3.792,0,0,0,589.723,695.149Z" transform="translate(-466.306 -641.227)" fill="#dde8fe"/>
        </g>
        <path id="Path_3094" data-name="Path 3094" d="M592.287,673.508l3.824-23.2-94.844-15.725V628.93l100.982,16.632-4.464,26.928Z" transform="translate(-443.973 -558.295)" fill="#bed1f9" style="mix-blend-mode: multiply;isolation: isolate"/>
      </g>
      <g id="Group_1430" data-name="Group 1430" transform="translate(73.157 65.965)">
        <circle id="Ellipse_124" data-name="Ellipse 124" cx="45.271" cy="45.271" r="45.271" transform="translate(0 85.368) rotate(-70.536)" fill="#dde8fe"/>
        <circle id="Ellipse_125" data-name="Ellipse 125" cx="40.715" cy="40.715" r="40.715" transform="matrix(0.782, -0.623, 0.623, 0.782, 0.555, 51.283)" fill="#4951ec"/>
        <g id="Group_1429" data-name="Group 1429" transform="translate(19.668 19.668)">
          <g id="Group_1428" data-name="Group 1428">
            <path id="Path_3095" data-name="Path 3095" d="M329.564,524.48a38.119,38.119,0,1,1,1.33-53.892A38.162,38.162,0,0,1,329.564,524.48Zm-51.6-54.207a36.718,36.718,0,1,0,51.911,1.281A36.76,36.76,0,0,0,277.968,470.273Z" transform="translate(-265.182 -458.768)" fill="#dde8fe"/>
          </g>
        </g>
        <path id="Path_3096" data-name="Path 3096" d="M304.193,488.233c-1.889-1.149-3.759-1.793-5.993-1.033a5.852,5.852,0,0,0,.484.708c2.355,2.482,4.734,4.941,7.066,7.443a1.1,1.1,0,0,0,1.554.248,47.59,47.59,0,0,1,4.821-2.04c5.768-2.046,10.523.038,13.968,4.617,4.15,5.517,4.153,10.966.279,16.725a1.553,1.553,0,0,0,.276,2.44c.636.555,1.179,1.217,1.822,1.892l-3.2,3.043-2.734-2.872c-8.041,5.511-14.908,2.5-18.753-.959l5.126-6.078a10.558,10.558,0,0,0,8.387,1.557l-3.572-3.752c-1.545-1.622-3.116-3.218-4.62-4.878a1.273,1.273,0,0,0-1.77-.362,17.013,17.013,0,0,1-7.731,1.971c-5.575-.1-9.389-3.137-11.8-7.785-2.253-4.341-1.474-8.69,1.365-12.653.189-.264.383-.526.566-.795a4.172,4.172,0,0,0,.213-.422l-2.283-2.4,3.246-3.089c.543.57,1.136,1.117,1.635,1.739.528.659.973.606,1.634.156a11.989,11.989,0,0,1,9.724-2.1,12.736,12.736,0,0,1,5.211,2.56Zm8.385,14.164,8.18,8.594a6.051,6.051,0,0,0-.149-7.674C318.782,501.036,315.711,500.635,312.578,502.4Zm-17.84-12.021a5.823,5.823,0,0,0,.869,6.639,5.616,5.616,0,0,0,6.359.955Z" transform="translate(-250.105 -443.514)" fill="#f3f8ff"/>
      </g>
      <path id="Path_3097" data-name="Path 3097" d="M258.914,487.014a45.288,45.288,0,0,0,56.234,59,51.928,51.928,0,0,0-56.234-59Z" transform="translate(-170.389 -379.169)" fill="#92b5f9" opacity="0.5" style="mix-blend-mode: multiply;isolation: isolate"/>
      <g id="Group_1433" data-name="Group 1433" transform="translate(8.952 95.786)">
        <circle id="Ellipse_126" data-name="Ellipse 126" cx="55.843" cy="55.843" r="55.843" transform="translate(0 57.777) rotate(-31.152)" fill="#dde8fe"/>
        <circle id="Ellipse_127" data-name="Ellipse 127" cx="50.223" cy="50.223" r="50.223" transform="translate(14.124 110.32) rotate(-73.271)" fill="#92b5f9"/>
        <g id="Group_1432" data-name="Group 1432" transform="translate(29.656 29.655)">
          <g id="Group_1431" data-name="Group 1431">
            <path id="Path_3098" data-name="Path 3098" d="M248.755,603.207a47.02,47.02,0,1,1,41.028-52.33A47.074,47.074,0,0,1,248.755,603.207ZM237.66,511.564a45.293,45.293,0,1,0,50.407,39.521A45.344,45.344,0,0,0,237.66,511.564Z" transform="translate(-196.081 -509.505)" fill="#dde8fe"/>
          </g>
        </g>
        <path id="Path_3099" data-name="Path 3099" d="M256.893,544.54c-1.022-2.53-2.4-4.544-5.167-5.438a7.177,7.177,0,0,0-.043,1.057c.5,4.19,1.042,8.376,1.506,12.569.1.919.449,1.218,1.355,1.391a58.887,58.887,0,0,1,6.271,1.533c7.214,2.227,10.382,7.793,10.415,14.861.04,8.514-3.972,13.907-12.048,16.75-1.474.519-1.829,1.22-1.525,2.617.221,1.018.27,2.073.409,3.215l-5.4.654c-.2-1.641-.4-3.264-.588-4.855-12.015-.474-16.587-8.515-17.844-14.768l9.548-2.235a13.028,13.028,0,0,0,7.149,7.72c-.282-2.33-.525-4.337-.768-6.344-.333-2.742-.711-5.481-.975-8.23a1.57,1.57,0,0,0-1.484-1.662,21,21,0,0,1-9.1-3.747c-5.442-4.2-6.976-10.022-5.938-16.4.97-5.954,4.945-9.683,10.674-11.511.383-.122.767-.238,1.146-.369a5.371,5.371,0,0,0,.522-.26c-.156-1.287-.316-2.613-.491-4.056l5.487-.664c.117.964.3,1.942.337,2.925.037,1.04.516,1.316,1.5,1.358A14.785,14.785,0,0,1,263,535.745a15.707,15.707,0,0,1,3.268,6.372Zm-2.144,20.19c.6,4.934,1.178,9.728,1.759,14.529a7.465,7.465,0,0,0,5.508-7.7C261.891,567.954,259.148,565.295,254.75,564.73Zm-8.79-25.038c-2.937,1.641-4.512,4.577-4.032,7.207a6.924,6.924,0,0,0,5.586,5.63C247,548.323,246.494,544.1,245.96,539.693Z" transform="translate(-174.239 -483.482)" fill="#f3f8ff"/>
      </g>
      <g id="Group_1439" data-name="Group 1439" transform="translate(0 167.745)">
        <g id="Group_1434" data-name="Group 1434" transform="translate(25.736)">
          <path id="Path_3100" data-name="Path 3100" d="M254.151,694.322s37.172-39.7,21.783-49.874c0,0-2.344-5.012-16.255,10.078,0,0-7.6,1.473-6.941-7.04s14.271-19.864,7.564-28.169-12.325,4.393-18.027,6.216,1.131-31.582-5.874-36.148-10.727,8.482-15.1,9.5-11.731-39.849-32.631-35.079.048,22.381,8.474,32.7-10.709,2.73-14.253,14.11,32.947,6.486,28.312,17.4-13.933,3.18-16.892,11.4c-4.785,13.286,31.86,4.584,29.875,13.9-1.583,7.429-13.638.88-15.727,6.511S225.687,689.058,254.151,694.322Z" transform="translate(-179.674 -563.422)" fill="#dde8fe"/>
          <path id="Path_3101" data-name="Path 3101" d="M277.811,645.6q-.2-.178-.412-.347c-.829,1.721-1.819,3.589-2.986,5.515-4.29,7.076-11.927,16.4-23.974,20.762a182.036,182.036,0,0,0-8.2-20.966c5.171-16.711,12.377-25.5,17.512-29.927.445-.384.881-.74,1.309-1.075-.115-.138-.228-.27-.342-.4-.417.327-.841.673-1.273,1.046-5.142,4.423-12.329,13.148-17.532,29.645l-.042-.093c-3.494-7.532-7.652-15.433-12.433-23.632a124.567,124.567,0,0,1,1.077-16.726c.829-6.2,2.434-14.026,5.52-20.3a5,5,0,0,0-.5-.165c-3.1,6.326-4.708,14.173-5.539,20.392a127.738,127.738,0,0,0-1.086,15.9q-5.495-9.359-12.045-19.2c-12.164-18.261-24.167-33.342-30.456-40.956-.176.065-.345.133-.512.2,6.25,7.56,18.31,22.694,30.534,41.045,2.056,3.086,4.169,6.346,6.3,9.745a126.023,126.023,0,0,0-15.109-3.545,110.114,110.114,0,0,0-23.854-1.625c-.009.027-.018.054-.027.082-.048.153-.086.3-.12.449a109.4,109.4,0,0,1,23.9,1.608,121.953,121.953,0,0,1,15.633,3.714c4.7,7.545,9.466,15.756,13.824,24.266-12.092-3.091-32.2-1.342-42.122-.179q-.058.275-.089.537c9.961-1.175,30.515-2.984,42.531.267,6.169,12.124,11.494,24.828,14.643,37.05-10.495.366-22.119-5.746-30.061-10.976a125.154,125.154,0,0,1-11.741-8.806,3.122,3.122,0,0,0-.348.391,125.847,125.847,0,0,0,11.793,8.846c8.037,5.293,19.824,11.484,30.49,11.064a94.586,94.586,0,0,1,2.658,15.416l.268.052s.083-.089.239-.258A105.285,105.285,0,0,0,250.6,672.03q1.178-.426,2.329-.923a43.488,43.488,0,0,0,12.381-8.172,55.542,55.542,0,0,0,9.56-11.91C276.015,649.132,276.99,647.3,277.811,645.6Z" transform="translate(-180.524 -563.779)" fill="#fff" opacity="0.46" style="mix-blend-mode: color-dodge;isolation: isolate"/>
        </g>
        <path id="Path_3102" data-name="Path 3102" d="M254.422,707.031s-9.694-32.412-48.524-48.654l2.347,12.209L201.5,657.252s-22.949-8.487-40.521-10.125c0,0,24.393,32.153,31.864,37.465l12.418,1.853-9.713,5.389s13.179,18.212,32.435,24.739S254.422,707.031,254.422,707.031Z" transform="translate(-149.913 -581.452)" fill="#0b0754"/>
        <g id="Group_1438" data-name="Group 1438" transform="translate(0 95.338)">
          <g id="Group_1437" data-name="Group 1437">
            <g id="Group_1435" data-name="Group 1435">
              <path id="Path_3103" data-name="Path 3103" d="M146.874,701.833a60.534,60.534,0,0,0,21.135,21.432c3.926-3.015,8.67-6.513,8.67-6.513l-3.144,9.355c31.358,13.99,68.346-3.774,68.346-3.774-12.9-22.149-27.176-32.3-40.66-35.847-1.98,2.942-4.876,7.351-4.876,7.351l.489-8.285a50.789,50.789,0,0,0-19.014.627c-.228,4.307-.6,9.189-.6,9.189l-5.008-7.686A76,76,0,0,0,146.874,701.833Z" transform="translate(-146.874 -684.933)" fill="#fa7167"/>
            </g>
            <g id="Group_1436" data-name="Group 1436">
              <path id="Path_3104" data-name="Path 3104" d="M201.221,686.486c-1.98,2.942-4.876,7.351-4.876,7.351l.489-8.285a50.789,50.789,0,0,0-19.014.627c-.228,4.307-.6,9.189-.6,9.189l-5.008-7.686a76,76,0,0,0-25.34,14.15c35.27,19.682,95.007,20.5,95.007,20.5C228.984,700.183,214.706,690.031,201.221,686.486Z" transform="translate(-146.874 -684.933)" fill="#e8605d"/>
            </g>
          </g>
        </g>
      </g>
      <g id="Group_1440" data-name="Group 1440" transform="translate(158.386 55.012)">
        <path id="Path_3105" data-name="Path 3105" d="M401.164,419.741c-8.038,37.459-45.477,82.012-45.477,82.012s36.567-16.972,46.286-48.238l-8.857-3.115s5.584-1.468,10.293-2.613A54.4,54.4,0,0,0,401.164,419.741Z" transform="translate(-350.237 -419.741)" fill="#0b0754"/>
        <path id="Path_3106" data-name="Path 3106" d="M353.816,450.925c3.415.248,8.49.673,8.49.673l-6.381-4.453a51.8,51.8,0,0,1,12.567-13.666c3.3,2.334,7.113,4.9,7.113,4.9l-2.442-8.161a78.835,78.835,0,0,1,26.5-10.476c-8.038,37.459-45.477,82.012-45.477,82.012C346.174,479.368,347.827,462.934,353.816,450.925Z" transform="translate(-348.741 -419.741)" fill="#4951ec"/>
      </g>
      <g id="Group_1441" data-name="Group 1441" transform="translate(174.138 94.467)">
        <path id="Path_3107" data-name="Path 3107" d="M426.863,470.8a47.614,47.614,0,0,0-19.14.417c-.973,2.539-2.2,5.557-2.2,5.557l-1.782-4.476c-21.825,6.886-34.921,27.064-34.921,27.064,15.027,2.938,26.36,1.134,34.833-2.7-.034-1.78-.122-4.422-.122-4.422l2.8,3.1a42.182,42.182,0,0,0,9.871-7.381c-1.468-1.6-3.073-3.459-3.073-3.459l5.5.818A43.315,43.315,0,0,0,426.863,470.8Z" transform="translate(-368.817 -470.027)" fill="#fa7167"/>
        <path id="Path_3108" data-name="Path 3108" d="M403.65,496.879c-.034-1.78-.122-4.422-.122-4.422l2.8,3.1a42.182,42.182,0,0,0,9.871-7.381c-1.468-1.6-3.073-3.458-3.073-3.458l5.5.818a43.315,43.315,0,0,0,8.241-14.521c-26,6.355-58.046,28.561-58.046,28.561C383.844,502.513,395.177,500.709,403.65,496.879Z" transform="translate(-368.817 -470.24)" fill="#e8605d"/>
      </g>
      <path id="Path_3109" data-name="Path 3109" d="M428.779,396.9a6.918,6.918,0,0,0-8.478-5.136,10.181,10.181,0,0,0-12.241-5.408,12.542,12.542,0,0,0-22.527,2.191,8.6,8.6,0,0,0-12.785,7.517c0,.282.014.56.041.835Z" transform="translate(-195.525 -356.233)" fill="#fff" opacity="0.8"/>
      <path id="Path_3110" data-name="Path 3110" d="M542.727,523.818a5.387,5.387,0,0,0-6.6-4,7.93,7.93,0,0,0-9.535-4.212,9.768,9.768,0,0,0-17.545,1.707,6.7,6.7,0,0,0-9.959,5.855c0,.22.012.436.032.65Z" transform="translate(-222.738 -384.36)" fill="#fff" opacity="0.8"/>
      <path id="Path_3111" data-name="Path 3111" d="M556.688,427.294a8.67,8.67,0,0,0-10.631-6.439,12.766,12.766,0,0,0-15.348-6.78,15.723,15.723,0,0,0-28.242,2.747,10.786,10.786,0,0,0-16.03,9.425c0,.353.018.7.051,1.047Z" transform="translate(-220.014 -361.871)" fill="#fff" opacity="0.8"/>
      <rect id="Rectangle_2362" data-name="Rectangle 2362" width="155.314" height="119.564" transform="translate(117.382 165.171)" fill="#4951ec"/>
      <path id="Path_3112" data-name="Path 3112" d="M297.353,671.418h-.4V598.831h.4a4.59,4.59,0,1,0,0-9.181h-.4v-.082H275.7v.082h-.4a4.59,4.59,0,0,0,0,9.181h.4v72.587h-.4a4.59,4.59,0,0,0-4.59,4.59h0a4.59,4.59,0,0,0,4.59,4.59h.4v2.268h21.251V680.6h.4a4.591,4.591,0,0,0,4.591-4.59h0A4.59,4.59,0,0,0,297.353,671.418Z" transform="translate(-173.549 -401.309)" fill="#7c9af2"/>
      <path id="Path_3113" data-name="Path 3113" d="M286.33,682.866V589.651l-10.625-.082v.082h-.4a4.59,4.59,0,0,0,0,9.181h.4v72.587h-.4a4.59,4.59,0,0,0-4.59,4.59h0a4.59,4.59,0,0,0,4.59,4.59h.4v2.268Z" transform="translate(-173.549 -401.309)" fill="#bed1f9"/>
      <path id="Path_3114" data-name="Path 3114" d="M348.318,671.418h-.4V598.831h.4a4.59,4.59,0,0,0,0-9.181h-.4v-.082H326.669v.082h-.4a4.59,4.59,0,0,0,0,9.181h.4v72.587h-.4a4.59,4.59,0,0,0-4.59,4.59h0a4.59,4.59,0,0,0,4.59,4.59h.4v2.268h21.252V680.6h.4a4.59,4.59,0,0,0,4.59-4.59h0A4.59,4.59,0,0,0,348.318,671.418Z" transform="translate(-184.526 -401.309)" fill="#7c9af2"/>
      <path id="Path_3115" data-name="Path 3115" d="M337.295,682.866V589.651l-10.626-.082v.082h-.4a4.59,4.59,0,0,0,0,9.181h.4v72.587h-.4a4.59,4.59,0,0,0-4.59,4.59h0a4.59,4.59,0,0,0,4.59,4.59h.4v2.268Z" transform="translate(-184.526 -401.309)" fill="#bed1f9"/>
      <g id="Group_1442" data-name="Group 1442" transform="translate(211.833 188.26)">
        <path id="Path_3116" data-name="Path 3116" d="M443.5,671.418h-.4V598.831h.4a4.59,4.59,0,0,0,0-9.181h-.4v-.082H421.848v.082h-.4a4.59,4.59,0,1,0,0,9.181h.4v72.587h-.4a4.59,4.59,0,0,0-4.591,4.59h0a4.591,4.591,0,0,0,4.591,4.59h.4v2.268H443.1V680.6h.4a4.59,4.59,0,0,0,4.59-4.59h0A4.59,4.59,0,0,0,443.5,671.418Z" transform="translate(-416.86 -589.569)" fill="#7c9af2"/>
        <path id="Path_3117" data-name="Path 3117" d="M432.474,682.866V589.651l-10.626-.082v.082h-.4a4.59,4.59,0,1,0,0,9.181h.4v72.587h-.4a4.59,4.59,0,0,0-4.591,4.59h0a4.591,4.591,0,0,0,4.591,4.59h.4v2.268Z" transform="translate(-416.86 -589.569)" fill="#bed1f9"/>
        <path id="Path_3118" data-name="Path 3118" d="M494.461,671.418h-.4V598.831h.4a4.59,4.59,0,0,0,0-9.181h-.4v-.082H472.812v.082h-.4a4.59,4.59,0,0,0,0,9.181h.4v72.587h-.4a4.59,4.59,0,0,0-4.59,4.59h0a4.59,4.59,0,0,0,4.59,4.59h.4v2.268h21.252V680.6h.4a4.59,4.59,0,0,0,4.59-4.59h0A4.59,4.59,0,0,0,494.461,671.418Z" transform="translate(-427.837 -589.569)" fill="#7c9af2"/>
        <path id="Path_3119" data-name="Path 3119" d="M483.438,682.866V589.651l-10.626-.082v.082h-.4a4.59,4.59,0,0,0,0,9.181h.4v72.587h-.4a4.59,4.59,0,0,0-4.59,4.59h0a4.59,4.59,0,0,0,4.59,4.59h.4v2.268Z" transform="translate(-427.837 -589.569)" fill="#bed1f9"/>
      </g>
      <path id="Rectangle_2363" data-name="Rectangle 2363" d="M13.74,0H219.3a13.741,13.741,0,0,1,13.741,13.741v4.8a0,0,0,0,1,0,0H0a0,0,0,0,1,0,0v-4.8A13.74,13.74,0,0,1,13.74,0Z" transform="translate(73.721 277.833)" fill="#92b5f9"/>
      <rect id="Rectangle_2364" data-name="Rectangle 2364" width="245.947" height="13.257" rx="6.629" transform="translate(67.266 287.102)" fill="#7c9af2"/>
      <path id="Rectangle_2365" data-name="Rectangle 2365" d="M6.629,0H254.148a6.629,6.629,0,0,1,6.629,6.629v0a6.629,6.629,0,0,1-6.629,6.629H6.629A6.629,6.629,0,0,1,0,6.629v0A6.629,6.629,0,0,1,6.629,0Z" transform="translate(59.851 296.37)" fill="#bed1f9"/>
      <path id="Rectangle_2366" data-name="Rectangle 2366" d="M0,0H220.459a0,0,0,0,1,0,0V0a11.488,11.488,0,0,1-11.488,11.488H11.488A11.488,11.488,0,0,1,0,0V0A0,0,0,0,1,0,0Z" transform="translate(79.779 178.714)" fill="#92b5f9"/>
      <path id="Path_3120" data-name="Path 3120" d="M471.8,539.664,357.765,487.407,243.829,539.664Z" transform="translate(-167.757 -379.304)" fill="#92b5f9"/>
      <path id="Path_3121" data-name="Path 3121" d="M458.592,542.5l-95.747-43.959-95.9,43.959,95.822-.441Z" transform="translate(-172.737 -381.703)" fill="#4951ec"/>
      <g id="Group_1443" data-name="Group 1443" transform="translate(108.788 123.734)">
        <path id="Path_3122" data-name="Path 3122" d="M450.791,548.656l-84.032-38.693-80.2,38.684-1.036-2.146,81.208-39.172,85.053,39.163Z" transform="translate(-285.527 -507.329)" fill="#bed1f9"/>
      </g>
      <path id="Rectangle_2367" data-name="Rectangle 2367" d="M4.957,0H249.531a4.956,4.956,0,0,1,4.956,4.956v0a13.581,13.581,0,0,1-13.581,13.581H13.581A13.581,13.581,0,0,1,0,4.957v0A4.957,4.957,0,0,1,4.957,0Z" transform="translate(62.864 160.36)" fill="#7c9af2"/>
      <path id="Rectangle_2368" data-name="Rectangle 2368" d="M12.844,0h0A12.843,12.843,0,0,1,25.687,12.843V45.09a0,0,0,0,1,0,0H0a0,0,0,0,1,0,0V12.844A12.844,12.844,0,0,1,12.844,0Z" transform="translate(177.396 232.743)" fill="#0b0754" opacity="0.5" style="mix-blend-mode: multiply;isolation: isolate"/>
      <path id="Path_3123" data-name="Path 3123" d="M541.084,461.724c5.887.357,11.766,1.028,17.64,1.748-1.856-10.24-2.769-21.636-4.281-32.879q-11.207-.856-22.459-.674c-9.833.165-20.6.654-28.413-5.314-3.345-2.555-5.882-6.144-9.537-8.234-8.058-4.606-18.277-.48-27.427-2.039-1.921-.327-4.145-1.3-4.373-3.232-.273-2.315,2.442-3.729,4.7-4.322a66.492,66.492,0,0,1,35.488.507c3.732,1.1,7.437,2.538,11.325,2.654a10.481,10.481,0,0,0,4.132-.606c6.35-2.482,6.523-11.482,10.829-16.767,2.456-3.014,5.976-4.533,9.831-5.287-7.189-9.611-14.283-17.425-25.134-23.174a7.685,7.685,0,0,0-4.155,3.313c-2.355,4.066-2.2,9.618-4.44,13.748-1.743,3.211-5.67,4.447-9.247,5.192-14.273,2.967-28.991,2.708-43.568,2.524-4.963-.063-10.006-.105-14.786,1.233-5.047,1.412-9.539,4.288-13.946,7.126a12.374,12.374,0,0,0-4.139,3.648,12.075,12.075,0,0,0-1.329,5.025c-.563,5.109-.9,10.587,1.6,15.079,2.627,4.719,7.925,7.382,13.207,8.51s10.744,1,16.107,1.64a56.533,56.533,0,0,1,34.336,17.465c2.307,2.482,4.424,5.2,7.221,7.12,3.375,2.313,7.486,3.271,11.528,3.91C514.757,461.688,527.984,460.93,541.084,461.724Z" transform="translate(-205.142 -352.746)" fill="#fff" opacity="0.4"/>
      <g id="Group_1444" data-name="Group 1444" transform="translate(248.769 77.127)">
        <path id="Path_3124" data-name="Path 3124" d="M497.622,455.632l1.625,12.242-8.7-6.351-26.615-13.6,20.587,1.885s10.487,2.548,11.054,3.061A25.467,25.467,0,0,1,497.622,455.632Z" transform="translate(-463.936 -447.927)" fill="#4951ec"/>
        <path id="Path_3125" data-name="Path 3125" d="M506.738,448.239l-42.8-.313,33.686,7.705Z" transform="translate(-463.936 -447.927)" fill="#7c9af2"/>
        <path id="Path_3126" data-name="Path 3126" d="M483.862,467.948l11.215-9.009-31.142-11.012Z" transform="translate(-463.936 -447.927)" fill="#7c9af2"/>
      </g>
      <g id="Group_1448" data-name="Group 1448" transform="translate(291.136 89.466)">
        <g id="Group_1445" data-name="Group 1445" transform="translate(43.69 58.564)">
          <path id="Path_3127" data-name="Path 3127" d="M574.183,541.261l-.565-.835a11.517,11.517,0,0,0,2.356-2.133l.771.649A12.483,12.483,0,0,1,574.183,541.261Z" transform="translate(-573.618 -538.294)" fill="#7c9af2"/>
        </g>
        <g id="Group_1446" data-name="Group 1446" transform="translate(8.835 3.335)">
          <path id="Path_3128" data-name="Path 3128" d="M570.278,517.885l-.962-.3a28.221,28.221,0,0,0,1.147-6.274l1.005.077A29.259,29.259,0,0,1,570.278,517.885Zm1.156-13.087-1,.1q-.042-.414-.1-.829a26.2,26.2,0,0,0-.534-2.817c-.212-.858-.471-1.722-.77-2.569l.95-.337c.311.878.579,1.774.8,2.664a27.253,27.253,0,0,1,.555,2.926C571.371,504.216,571.4,504.506,571.434,504.8Zm-5.171-11.871a37.3,37.3,0,0,0-3.82-5.147l.756-.666a38.26,38.26,0,0,1,3.924,5.288Zm-31.492-2.384a5.612,5.612,0,0,1-3.557-.461,5.332,5.332,0,0,1-2.02-2.272l.9-.443a4.28,4.28,0,0,0,1.631,1.849,4.644,4.644,0,0,0,2.8.348.486.486,0,0,0,.1-.032c.042-.027.093-.06.144-.093l.559.838c-.057.038-.115.077-.174.114A1.334,1.334,0,0,1,534.772,490.542Zm23.078-7.262a51.473,51.473,0,0,0-5.162-3.853l.552-.843a52.505,52.505,0,0,1,5.263,3.929Zm-18.883,1.332-.987-.207a9.294,9.294,0,0,0,.2-1.882,11.253,11.253,0,0,0-.337-2.716,13.462,13.462,0,0,0-.47-1.509l.943-.355a14.438,14.438,0,0,1,.505,1.623,12.235,12.235,0,0,1,.367,2.96A10.363,10.363,0,0,1,538.967,484.613Zm-8.861-3.1-.909-.435a10.144,10.144,0,0,1,4.709-4.591l.139-.066.428.913-.128.06A9.122,9.122,0,0,0,530.105,481.511Zm16.722-4.519a20.825,20.825,0,0,0-3.982-.931c-.806-.038-1.543-.046-2.252-.025l-.031-1.007c.737-.022,1.5-.014,2.332.026a23.093,23.093,0,0,1,4.227.974Zm-12.725-4.08a21.537,21.537,0,0,0-4.779-4.158l.543-.849a22.539,22.539,0,0,1,5,4.353Z" transform="translate(-529.195 -467.904)" fill="#7c9af2"/>
        </g>
        <g id="Group_1447" data-name="Group 1447" transform="translate(0)">
          <path id="Path_3129" data-name="Path 3129" d="M521.116,465.256a19.41,19.41,0,0,0-3.182-.6l.1-1a20.386,20.386,0,0,1,3.348.631Z" transform="translate(-517.934 -463.653)" fill="#7c9af2"/>
        </g>
      </g>
    </g>
    <g id="Group_1453" data-name="Group 1453" transform="translate(390.639 502.287)">
      <path id="Path_3130" data-name="Path 3130" d="M482.7,718.7v3.765a.563.563,0,0,1-.564.563h-8.831a.637.637,0,0,1-.343-1.175L477.8,718.7A4.959,4.959,0,0,0,482.7,718.7Z" transform="translate(-460.813 -581.784)" fill="#050521"/>
      <path id="Path_3131" data-name="Path 3131" d="M503.422,718.7v3.765a.563.563,0,0,1-.564.563h-8.83a.637.637,0,0,1-.344-1.175l4.838-3.153A4.959,4.959,0,0,0,503.422,718.7Z" transform="translate(-465.276 -581.784)" fill="#050521"/>
      <g id="Group_1451" data-name="Group 1451" transform="translate(9.237)">
        <path id="Path_3132" data-name="Path 3132" d="M473.016,558.463a1.915,1.915,0,1,1-2.561-1.544A2.137,2.137,0,0,1,473.016,558.463Z" transform="translate(-469.331 -546.916)" fill="#ef7f7f"/>
        <path id="Path_3133" data-name="Path 3133" d="M491.168,567.831s.825,7.773,2.239,9.982c0,0-4.136,5.546-9.608,2.195,0,0-.7-6.607-1.644-8.08S491.168,567.831,491.168,567.831Z" transform="translate(-472.08 -549.286)" fill="#fb9390"/>
        <path id="Path_3134" data-name="Path 3134" d="M491.168,567.831s.182,1.718.523,3.768a8.987,8.987,0,0,1-6.183,3.488,8.857,8.857,0,0,1-2.442-.081,10.909,10.909,0,0,0-.91-3.079C481.212,570.455,491.168,567.831,491.168,567.831Z" transform="translate(-472.08 -549.286)" fill="#ef7f7f"/>
        <path id="Path_3135" data-name="Path 3135" d="M472.99,561.073a18.411,18.411,0,0,1-.841-4.616c-.019-.306-.056-.61-.1-.913A9.979,9.979,0,1,1,491.91,554.5a2.158,2.158,0,0,1,1.947-.084,3.005,3.005,0,0,1-2.577,5.268,1.9,1.9,0,0,1-.437-.3,9.355,9.355,0,0,1-9.593,8.241A9.182,9.182,0,0,1,472.99,561.073Z" transform="translate(-469.896 -544.196)" fill="#fb9390"/>
        <g id="Group_1450" data-name="Group 1450" transform="translate(11.673 8.226)">
          <path id="Path_3136" data-name="Path 3136" d="M485.9,554.68l3.154,3.822L488,559.53l-3.155-4.268Z" transform="translate(-484.346 -554.68)" fill="#fff" opacity="0.3"/>
          <path id="Path_3137" data-name="Path 3137" d="M484.479,555.9s3.077,4.011,3.09,4.063l-.206.2-3.155-4Z" transform="translate(-484.208 -554.942)" fill="#fff" opacity="0.3"/>
        </g>
        <path id="Path_3138" data-name="Path 3138" d="M483.905,557.371a2.563,2.563,0,1,0,2.563-2.559A2.56,2.56,0,0,0,483.905,557.371Z" transform="translate(-472.47 -546.482)" fill="#daeef7" opacity="0.3"/>
        <path id="Path_3139" data-name="Path 3139" d="M484.738,557.808a.872.872,0,1,0,.757-.683A.871.871,0,0,0,484.738,557.808Z" transform="translate(-472.646 -546.979)" fill="#0b0754"/>
        <path id="Path_3140" data-name="Path 3140" d="M476.423,557.719a.873.873,0,0,0,1.022,1.128.855.855,0,0,0,.632-.571.873.873,0,0,0-1.021-1.128A.859.859,0,0,0,476.423,557.719Z" transform="translate(-470.849 -546.981)" fill="#0b0754"/>
        <path id="Path_3141" data-name="Path 3141" d="M484.708,554.17a9.344,9.344,0,0,1,1.27-.325,4.456,4.456,0,0,1,1.208-.046,4.1,4.1,0,0,1,1.167.286l.148.053c.049.018.094.046.143.067.095.046.193.09.293.134.2.094.383.214.6.305a3.676,3.676,0,0,0-.4-.575c-.082-.083-.166-.166-.253-.246a1.533,1.533,0,0,0-.282-.219,2.809,2.809,0,0,0-1.36-.5,2.936,2.936,0,0,0-1.43.217A2.665,2.665,0,0,0,484.708,554.17Z" transform="translate(-472.643 -546.112)" fill="#fff"/>
        <path id="Path_3142" data-name="Path 3142" d="M478.908,554.17a2.665,2.665,0,0,0-1.114-.846,2.936,2.936,0,0,0-1.43-.217,2.809,2.809,0,0,0-1.36.5,1.534,1.534,0,0,0-.282.219c-.087.081-.171.163-.253.246a3.68,3.68,0,0,0-.4.575c.222-.091.406-.211.6-.305.1-.044.2-.088.293-.134.049-.021.093-.049.143-.067l.148-.053a4.1,4.1,0,0,1,1.167-.286,4.456,4.456,0,0,1,1.208.046A9.314,9.314,0,0,1,478.908,554.17Z" transform="translate(-470.352 -546.112)" fill="#fff"/>
        <path id="Path_3143" data-name="Path 3143" d="M491.43,559.386c.592-3.085-1.224-3.6-1.8-2.854s.173,6.762-2.8,6.518c-1.867-.153-4.133-1.2-7.764-.81-2.976.316-5.37,1.736-6.529-1.041,0,0-1.584,9.5,8.692,9.527,10.406.026,10.2-11.34,10.2-11.34Z" transform="translate(-470.003 -546.788)" fill="#fff"/>
        <path id="Path_3144" data-name="Path 3144" d="M484.277,565.545a5.729,5.729,0,0,1-1.3.7,4.407,4.407,0,0,1-1.43.292,3.784,3.784,0,0,1-1.43-.249,5.271,5.271,0,0,1-1.277-.743,4.029,4.029,0,0,0,1.225.866,3.589,3.589,0,0,0,.726.233,3.741,3.741,0,0,0,.76.066,3.937,3.937,0,0,0,1.476-.342A4.356,4.356,0,0,0,484.277,565.545Z" transform="translate(-471.379 -548.794)" fill="#fb9390" opacity="0.8"/>
        <path id="Path_3145" data-name="Path 3145" d="M483.461,557.3a2.823,2.823,0,0,0,4.609,2.181.5.5,0,0,0,.9.123,4.15,4.15,0,0,0,2.033.626,2.566,2.566,0,0,0,1.025-.208c1.791-.769,2.518-3.277,2.541-3.388l-.177.083c-.005.027-.725,2.413-2.432,3.146a3.216,3.216,0,0,1-2.919-.417.49.49,0,0,0,.014-.089.5.5,0,0,0-.4-.516,2.821,2.821,0,1,0-5.184-1.542Zm.348,0a2.475,2.475,0,1,1,2.475,2.471A2.476,2.476,0,0,1,483.809,557.3Z" transform="translate(-472.375 -546.411)" fill="#4951ec"/>
        <path id="Path_3146" data-name="Path 3146" d="M481.395,554.68a7.828,7.828,0,0,1-.119,2.184,6.1,6.1,0,0,1-.308,1.079,2.84,2.84,0,0,1-.65,1.019c-.357.281-.526.359-.637.629a.981.981,0,0,0,.057.79,3.023,3.023,0,0,0,1.51,1.291,2.476,2.476,0,0,1-1.983-1.023,1.493,1.493,0,0,1-.206-1.275,1.848,1.848,0,0,1,.791-.927,2.7,2.7,0,0,0,.517-.769,9.2,9.2,0,0,0,.387-.955C480.979,556.062,481.178,555.377,481.395,554.68Z" transform="translate(-471.412 -546.454)" fill="#ef7f7f"/>
      </g>
      <path id="Path_3147" data-name="Path 3147" d="M473.383,636.643c5.187,5.465,15.947-.063,15.947-.063l-1.766,25.513-4.471,39.514s-4.162.792-6.541-.494C476.551,701.112,473.045,651.981,473.383,636.643Z" transform="translate(-460.962 -564.095)" fill="#0b0754"/>
      <path id="Path_3148" data-name="Path 3148" d="M501.393,637.561a14.146,14.146,0,0,0-.687-2.821c-.267,0-11.207-1.51-11.83-1.421s-15.705,3.156-15.705,3.156,9.236,10.249,16.918,12.561c.742,20.439,2.95,51.373,2.95,51.373,2.379,1.286,6.541.494,6.541.494l4.471-39.514,1.766-25.513A26.544,26.544,0,0,1,501.393,637.561Z" transform="translate(-460.921 -563.391)" fill="#0b0754"/>
      <path id="Path_3149" data-name="Path 3149" d="M461.071,638.511a.248.248,0,0,0-.293-.323c-2.946.713-3.216.6-3.22.256a32.254,32.254,0,0,1,4.139-3.154l-.015.026,2.411,1.516s3.3,1.388,3.384,1.416l.006,0c-.047.239-.074.4-.074.4-2.155,6.375-2.312,6.307-2.558,6.267s-.111-2.91-.394-2.851-1.7,3.745-1.909,3.46.692-3.847.464-3.863-1.548,3.561-2.018,3.359,1.107-4.073.668-4.082-1.955,4-2.355,3.744C458.972,644.467,460.558,639.945,461.071,638.511Z" transform="translate(-457.558 -563.817)" fill="#fb9390"/>
      <path id="Path_3150" data-name="Path 3150" d="M474.981,576.5s-8.265,1.92-9.825,18.269-2.963,24.289-4.835,27.091c0,0,0,2.009,8.89,4.687a54.989,54.989,0,0,0,2.807-5.932c.156-.934,1.4-33.787,1.4-33.787Z" transform="translate(-458.153 -551.155)" fill="#92b5f9"/>
      <path id="Path_3151" data-name="Path 3151" d="M478.868,576.5h16.218s-3.535,13.805-9.356,12.664-7.359-9.37-7.359-9.37Z" transform="translate(-462.041 -551.155)" fill="#fff"/>
      <path id="Path_3152" data-name="Path 3152" d="M490.7,583.116l-3.782-2.854-3.873,2.854,3.283,5.394s1.918,0,1.955-.257,2.417-4.972,2.417-4.972Z" transform="translate(-463.047 -551.964)" fill="#dde8fe" style="mix-blend-mode: multiply;isolation: isolate"/>
      <path id="Path_3153" data-name="Path 3153" d="M489.619,587.71l-1.866-5.008h-1.036l-1.653,5.416L487,591.8Z" transform="translate(-463.483 -552.49)" fill="#fa7167"/>
      <path id="Path_3154" data-name="Path 3154" d="M495.223,576.5h-2.377s-3.555,8.067-6.948,10.866a30.816,30.816,0,0,1-5.237-10.866h-1.655v11.6s3.057,6.923,5.049,5.819,4.352-.515,5.68-3.682,2.757-3.683,3.113-5.819a19.786,19.786,0,0,1,1.285-4.493C494.677,578.458,495.223,576.5,495.223,576.5Z" transform="translate(-462.178 -551.155)" fill="#92b5f9"/>
      <path id="Path_3155" data-name="Path 3155" d="M477.217,576.5a18.98,18.98,0,0,0-6.446,15.985c.832,10.38,2.485,27.285,1.652,30.814-.785,3.331,14.467,5.378,30.344,2.106a3.879,3.879,0,0,0,3.08-3.461l.687-7.868s.624-8.081,0-12.552-4.575-12.36-5.2-16.3-7.9-8.719-7.9-8.719-5.406,10.172-9.356,12.664C484.079,589.168,479.3,586.884,477.217,576.5Z" transform="translate(-460.39 -551.155)" fill="#bed1f9"/>
      <path id="Path_3156" data-name="Path 3156" d="M493.3,576.046l-1.576-1.668s-5.536,3.075-9.155.722l-1.455.946,1.841,1.659s7.454.589,7.553.392S493.3,576.046,493.3,576.046Z" transform="translate(-462.632 -550.697)" fill="#fff"/>
      <path id="Path_3157" data-name="Path 3157" d="M489.27,581.586l-1.754-1.324-1.686,1.242.9,1.013a.977.977,0,0,0,1.375.089Z" transform="translate(-463.647 -551.964)" fill="#fa7167"/>
      <path id="Path_3158" data-name="Path 3158" d="M472.251,612.289l-.121-.12.038.475.083-.082,3.16,3.155-2.81,2.807q.034.524.067,1.036l2.7,2.7-2.447,2.443c.018.579.031,1.129.035,1.644l2.592,2.588,3.3-3.291,3.3,3.291,3.3-3.291,3.3,3.291,3.3-3.291,3.3,3.291,3.3-3.291,3.3,3.291,3.244-3.239,1.172,1.171.261-2.979-1.433,1.43-3.063-3.058,3.063-3.058,1.692,1.689c.037-.52.14-2.054.2-3.961l-1.9,1.894-3.108-3.1,3.108-3.1,1.951,1.948c.014-1.4-.007-2.861-.093-4.182l-1.858,1.856L501.92,609l-3.3,3.291-3.3-3.291-3.3,3.291-3.3-3.291-3.3,3.291-3.3-3.291-3.3,3.291-3.3-3.291Zm23.257,9.967,3.116-3.111,3.116,3.111-3.116,3.111Zm-.044-6.539,3.16-3.155,3.16,3.155-3.16,3.155Zm-6.549,6.539,3.116-3.111,3.116,3.111-3.116,3.111Zm-.044-6.539,3.16-3.155,3.16,3.155-3.16,3.155Zm-6.549,6.539,3.116-3.111,3.116,3.111-3.116,3.111Zm-.044-6.539,3.16-3.155,3.16,3.155-3.16,3.155Zm-6.549,6.539,3.116-3.111,3.116,3.111-3.116,3.111Zm-.044-6.539,3.16-3.155,3.16,3.155-3.16,3.155Z" transform="translate(-460.697 -558.154)" fill="#92b5f9"/>
      <g id="Group_1452" data-name="Group 1452" transform="translate(12.155 43.549)">
        <path id="Path_3159" data-name="Path 3159" d="M529.148,640.82l-.742,5.321a2.163,2.163,0,0,1-2.442,1.844l-51.05-7.116a2.163,2.163,0,0,1-1.844-2.442l.741-5.32Z" transform="translate(-473.049 -606.896)" fill="#e8605d"/>
        <path id="Path_3160" data-name="Path 3160" d="M479.857,599.721l51.05,7.116a2.164,2.164,0,0,1,1.844,2.442l-3.393,24.346-55.336-7.713,3.394-24.346A2.163,2.163,0,0,1,479.857,599.721Z" transform="translate(-473.259 -599.7)" fill="#fa7167"/>
        <rect id="Rectangle_2369" data-name="Rectangle 2369" width="55.871" height="7.375" transform="translate(56.663 29.876) rotate(-172.064)" fill="#0b0754"/>
        <rect id="Rectangle_2370" data-name="Rectangle 2370" width="2.459" height="9.172" rx="0.848" transform="translate(46.157 16.698) rotate(-82.065)" fill="#dde8fe"/>
        <rect id="Rectangle_2371" data-name="Rectangle 2371" width="2.459" height="9.172" rx="0.848" transform="translate(32.937 14.855) rotate(-82.065)" fill="#dde8fe"/>
        <path id="Path_3161" data-name="Path 3161" d="M490.044,610.662a4.332,4.332,0,1,0,4.889-3.692A4.332,4.332,0,0,0,490.044,610.662Z" transform="translate(-476.701 -601.257)" fill="#dde8fe"/>
        <path id="Path_3162" data-name="Path 3162" d="M487.4,605.918a4.3,4.3,0,0,1,2.041.858,5.075,5.075,0,0,0-1.04,7.456,4.331,4.331,0,1,1-1-8.314Z" transform="translate(-475.077 -601.031)" fill="#dde8fe"/>
      </g>
      <path id="Path_3163" data-name="Path 3163" d="M506.971,634.208a.248.248,0,0,0-.388-.2c-2.508,1.7-2.8,1.686-2.926,1.368a32.339,32.339,0,0,1,2.771-4.406l-.005.03,2.79.574s3.58.141,3.666.14h.006c.04.241.07.4.07.4.217,6.726.047,6.718-.2,6.766s-1.125-2.686-1.369-2.532-.282,4.1-.574,3.91-.7-3.846-.92-3.781-.2,3.877-.712,3.853-.391-4.2-.806-4.056-.429,4.429-.892,4.332C507.094,640.521,506.993,635.73,506.971,634.208Z" transform="translate(-467.487 -562.886)" fill="#fb9390"/>
      <path id="Path_3164" data-name="Path 3164" d="M499.375,576.5a25.116,25.116,0,0,1,14.347,10.639c5.3,8.563,6.948,15.881-.971,33.164,0,0-7.607,1.09-9.322-.778l5.357-17.283-10.5-12.3Z" transform="translate(-466.33 -551.155)" fill="#bed1f9"/>
      <path id="Path_3165" data-name="Path 3165" d="M500.2,596.877c1.2,1.323,2.424,2.631,3.681,3.9s2.548,2.506,3.913,3.656a24.255,24.255,0,0,0,2.133,1.611,8.631,8.631,0,0,0,2.391,1.179,5.959,5.959,0,0,1-1.28-.417l-.308-.139c-.1-.049-.2-.1-.3-.155l-.3-.158-.291-.171c-.421-.253-.829-.526-1.229-.81-.1.491-.208.982-.328,1.47-.107.461-.216.923-.337,1.38s-.233.918-.356,1.375q-.373,1.37-.782,2.73c-.545,1.813-1.107,3.622-1.718,5.414-.6,1.758-1.215,3.509-1.86,5.251a7.728,7.728,0,0,0,2.089.768,13.861,13.861,0,0,0,2.34.3,23.224,23.224,0,0,0,2.371,0c.79-.043,1.579-.116,2.364-.232a21.649,21.649,0,0,1-2.358.323,20.464,20.464,0,0,1-2.384.073,14.029,14.029,0,0,1-2.377-.26,7.643,7.643,0,0,1-2.267-.8l-.093-.052.037-.1q.97-2.663,1.86-5.358c.6-1.794,1.189-3.59,1.739-5.4s1.084-3.622,1.555-5.451q.192-.759.374-1.522c-.288-.209-.572-.421-.85-.643-.705-.558-1.381-1.15-2.047-1.753s-1.3-1.236-1.938-1.87-1.247-1.291-1.854-1.951-1.2-1.331-1.784-2.013q-1.756-2.037-3.366-4.191Q498.4,594.891,500.2,596.877Z" transform="translate(-465.977 -554.677)" fill="#daeef7"/>
    </g>
    <g id="Group_1464" data-name="Group 1464" transform="translate(244.566 456.368)">
      <g id="Group_1460" data-name="Group 1460" transform="translate(0 62.293)">
        <path id="Path_3166" data-name="Path 3166" d="M280.879,659.674s11.439-11.842,13.516-2.647c1.965,8.7-3.811,56.78-4.434,61.9l6.418,4.172a.829.829,0,0,1-.446,1.529H284.468a.732.732,0,0,1-.732-.732V719l.02-.006Z" transform="translate(-273.43 -584.12)" fill="#fb9390"/>
        <path id="Path_3167" data-name="Path 3167" d="M295.654,740.771l1.51.981a.829.829,0,0,1-.446,1.529H285.252a.732.732,0,0,1-.732-.732v-2.4C292.156,742.581,294.793,741.841,295.654,740.771Z" transform="translate(-274.214 -602.777)" fill="#07085b"/>
        <path id="Path_3168" data-name="Path 3168" d="M302.11,659.674s11.439-11.842,13.516-2.647c1.965,8.7-3.811,56.78-4.434,61.9l6.419,4.172a.83.83,0,0,1-.446,1.529H305.7a.732.732,0,0,1-.732-.732V719l.02-.006Z" transform="translate(-278.003 -584.12)" fill="#fb9390"/>
        <path id="Path_3169" data-name="Path 3169" d="M316.885,740.771l1.51.981a.83.83,0,0,1-.446,1.529H306.483a.732.732,0,0,1-.732-.732v-2.4C313.387,742.581,316.024,741.841,316.885,740.771Z" transform="translate(-278.788 -602.777)" fill="#07085b"/>
        <path id="Path_3170" data-name="Path 3170" d="M297.816,577.258a2.089,2.089,0,0,0-2.982,1.143c-1.22-.7-2.78.181-2.838,1.112-1.237-.4-3.1,1.625-2.523,2.15-1.807.838-2.028,2.157-.938,2.212-1.7,1.046-.9,2.262-.013,2.111-1.723,1.314-.139,2.671.665,2.319-1.175,1.826.339,2.5,1.469,1.67-.831,1.966.805,1.539,1.238,1.281-.7,1.681.478,1.764,1.065,1.273-.209.974.918,1.49,1.762.875-.2,1.724,2,.853,2.328.243,1.2.514,2.836-1.109,2.628-1.691,1.745-.829,1.73-1.819,1.539-2.1,1.249-.144,1.907-2.155,1.559-2.48C301.423,585.875,297.816,577.258,297.816,577.258Z" transform="translate(-274.865 -567.637)" fill="#fff"/>
        <path id="Path_3171" data-name="Path 3171" d="M322.288,582.948a1.906,1.906,0,1,0,2.548-1.539A2.131,2.131,0,0,0,322.288,582.948Z" transform="translate(-282.311 -568.565)" fill="#ef7f7f"/>
        <path id="Path_3172" data-name="Path 3172" d="M302.862,590.743s-.932,7.733-2.372,9.913c0,0,4.034,5.586,9.527,2.325,0,0,.792-6.573,1.752-8.027S302.862,590.743,302.862,590.743Z" transform="translate(-277.654 -570.596)" fill="#fb9390"/>
        <path id="Path_3173" data-name="Path 3173" d="M303.356,590.743s-.206,1.709-.574,3.747a8.936,8.936,0,0,0,6.1,3.565,8.825,8.825,0,0,0,2.431-.046,10.856,10.856,0,0,1,.95-3.055C313.223,593.5,303.356,590.743,303.356,590.743Z" transform="translate(-278.148 -570.596)" fill="#ef7f7f"/>
        <path id="Path_3174" data-name="Path 3174" d="M316.374,587.2a9.714,9.714,0,0,0,.69-1.65,18.378,18.378,0,0,0,.836-4.6c.019-.305.056-.608.1-.91A9.93,9.93,0,1,0,298.24,579a2.145,2.145,0,0,0-1.937-.085,2.994,2.994,0,0,0,2.565,5.249,1.914,1.914,0,0,0,.435-.3,9.309,9.309,0,0,0,9.544,8.212,8.907,8.907,0,0,0,5.955-2.723,4.433,4.433,0,0,0,.324-.326A8.586,8.586,0,0,0,316.374,587.2Z" transform="translate(-276.499 -565.854)" fill="#fb9390"/>
        <path id="Path_3175" data-name="Path 3175" d="M310.39,584.44a.867.867,0,1,1-.909-.821A.866.866,0,0,1,310.39,584.44Z" transform="translate(-279.414 -569.061)" fill="#0b0754"/>
        <path id="Path_3176" data-name="Path 3176" d="M319.457,584.44a.867.867,0,1,1-.91-.821A.867.867,0,0,1,319.457,584.44Z" transform="translate(-281.367 -569.061)" fill="#0b0754"/>
        <g id="Group_1455" data-name="Group 1455" transform="translate(32.894 13.015)">
          <g id="Group_1454" data-name="Group 1454">
            <path id="Path_3177" data-name="Path 3177" d="M314.178,581.653c0,.279-.008.558,0,.836s.024.556.051.832a5.888,5.888,0,0,0,.133.816,2.049,2.049,0,0,0,.311.738c.129.155.2.2.279.314a.928.928,0,0,1,.171.415,1.027,1.027,0,0,1-.271.824,1.71,1.71,0,0,1-.715.467,2.491,2.491,0,0,1-.831.135,3.576,3.576,0,0,0,.411-.072,2.323,2.323,0,0,0,.392-.133,1.707,1.707,0,0,0,.65-.474.914.914,0,0,0,.22-.723.806.806,0,0,0-.15-.349c-.07-.1-.156-.159-.279-.309a1.643,1.643,0,0,1-.208-.386,2.834,2.834,0,0,1-.123-.411,5.26,5.26,0,0,1-.111-.839A8.95,8.95,0,0,1,314.178,581.653Z" transform="translate(-313.309 -581.653)" fill="#ef7f7f"/>
          </g>
        </g>
        <path id="Path_3178" data-name="Path 3178" d="M298.918,577.121s11.538-.765,17.072-7.107c0,0-4.381-7.764-12.337-3.844S298.918,577.121,298.918,577.121Z" transform="translate(-277.177 -565.065)" fill="#fff"/>
        <path id="Path_3179" data-name="Path 3179" d="M313.783,571.263s3.369,5.176,7.713,6.61c0,0,2.741-7.379-6.06-9.378S313.783,571.263,313.783,571.263Z" transform="translate(-279.928 -565.698)" fill="#fff"/>
        <g id="Group_1457" data-name="Group 1457" transform="translate(26.803 11.21)">
          <g id="Group_1456" data-name="Group 1456">
            <path id="Path_3180" data-name="Path 3180" d="M310.357,580.24a5.339,5.339,0,0,0-1.22-.468,3.89,3.89,0,0,0-1.264-.1,3.281,3.281,0,0,0-.62.117c-.1.027-.2.064-.3.1-.051.017-.1.042-.148.061s-.1.039-.147.064a6.507,6.507,0,0,0-1.109.7,3.478,3.478,0,0,1,.994-.909,2.983,2.983,0,0,1,.625-.292,2.936,2.936,0,0,1,.678-.144,3.16,3.16,0,0,1,1.361.174,3.456,3.456,0,0,1,.617.29A2.781,2.781,0,0,1,310.357,580.24Z" transform="translate(-305.547 -579.353)" fill="#fff"/>
          </g>
        </g>
        <g id="Group_1459" data-name="Group 1459" transform="translate(35.105 11.21)">
          <g id="Group_1458" data-name="Group 1458">
            <path id="Path_3181" data-name="Path 3181" d="M316.128,580.24a2.758,2.758,0,0,1,.535-.41,3.477,3.477,0,0,1,.616-.29,3.165,3.165,0,0,1,1.362-.174,2.945,2.945,0,0,1,.678.144,3,3,0,0,1,.625.292,3.487,3.487,0,0,1,.994.909,6.536,6.536,0,0,0-1.109-.7c-.048-.024-.1-.044-.148-.064s-.1-.044-.147-.061c-.1-.035-.2-.072-.3-.1a3.278,3.278,0,0,0-.621-.117,3.885,3.885,0,0,0-1.263.1A5.34,5.34,0,0,0,316.128,580.24Z" transform="translate(-316.128 -579.353)" fill="#fff"/>
          </g>
        </g>
        <path id="Path_3182" data-name="Path 3182" d="M310.972,589.725a4.517,4.517,0,0,0,1.023.561,3.437,3.437,0,0,0,1.129.233,2.938,2.938,0,0,0,1.13-.2,4.048,4.048,0,0,0,1-.595,3.679,3.679,0,0,1-.452.381,3.224,3.224,0,0,1-.516.294,2.883,2.883,0,0,1-.57.181,2.983,2.983,0,0,1-.6.051,3.14,3.14,0,0,1-1.158-.266A3.484,3.484,0,0,1,310.972,589.725Z" transform="translate(-279.912 -570.377)" fill="#ef7f7f"/>
        <path id="Path_3183" data-name="Path 3183" d="M279.058,655l-1.629,45.514s20.685,7.953,36.117,0l-2.054-42.5-13.942-4.927-10.414,1.353Z" transform="translate(-272.687 -584.024)" fill="#fa7167"/>
        <path id="Path_3184" data-name="Path 3184" d="M365.176,592.7a.241.241,0,0,1-.342-.252c.4-2.927.258-3.176-.073-3.146a31.5,31.5,0,0,0-2.649,4.326l.024-.018-2.031,4.177s5.419,1.072,5.455,1.146l0,.006c.227-.069.377-.111.377-.111,5.972-2.725,5.892-2.87,5.828-3.1s-2.836.182-2.807-.1,3.466-2.025,3.168-2.2-3.665,1.055-3.7.836,3.3-1.856,3.058-2.292-3.843,1.48-3.895,1.055,3.685-2.293,3.4-2.655C370.748,590.071,366.517,592.059,365.176,592.7Z" transform="translate(-290.495 -570.285)" fill="#fb9390"/>
        <path id="Path_3185" data-name="Path 3185" d="M303.251,608.2s-1.749-7.105,14.256-7.879c15.193-.735,29.478-4.846,32.012-6.939,0,0,2.06,1.59,4.314,6.939,0,0-17.756,10.135-38.7,12.881C300.423,615.128,303.251,608.2,303.251,608.2Z" transform="translate(-278.202 -571.164)" fill="#e8605d"/>
        <path id="Path_3186" data-name="Path 3186" d="M311.851,639.394a30.306,30.306,0,0,1-.045-4.638c.4-5.95,1.033-12.874,1.452-18.1.49-6.136-2.314-10.117-3.526-13.094a3.74,3.74,0,0,0-2.322-2.388l0,.008s-1.968-.28-2.249-.319-5.907.448-5.907.448l-5.05-.661c-1.855.19-3.021.408-3.021.408s-7.089,4.659-7.7,8.508-4.456,11.545-5.064,15.909,0,12.246,0,12.246l.35,4.006c-.5,6.282-.235,18.405-.172,19.235.1,1.245,21.314,1.325,26.68-1.16,0,0,2.987,3.207,3.969,3.129,3.051-.245,3.154-.667,3.154-.667Z" transform="translate(-272.842 -572.729)" fill="#fa7167"/>
        <path id="Path_3187" data-name="Path 3187" d="M286.038,656.707a.241.241,0,0,1,.368-.212c2.519,1.54,2.8,1.512,2.91,1.2a31.47,31.47,0,0,0-2.9-4.164l.006.029-2.689.69s-3.478.305-3.561.308h-.007c-.027.236-.049.39-.049.39.1,6.563.262,6.547.5,6.584s.972-2.67,1.216-2.531.463,3.987.738,3.783.506-3.78.723-3.728.373,3.769.87,3.721.188-4.113.6-3.99.62,4.3,1.066,4.18C286.208,662.867,286.086,658.193,286.038,656.707Z" transform="translate(-273.267 -584.12)" fill="#fb9390"/>
        <path id="Path_3188" data-name="Path 3188" d="M289.721,601.169a24.465,24.465,0,0,0-13.975,10.381c-5.166,8.355-6.769,15.5.945,32.358,0,0,7.411,1.063,9.081-.76l-5.218-16.863,10.232-12Z" transform="translate(-271.385 -572.841)" fill="#fa7167"/>
        <path id="Path_3189" data-name="Path 3189" d="M290.026,621.047c-1.173,1.291-2.361,2.567-3.586,3.806s-2.482,2.445-3.812,3.567a23.7,23.7,0,0,1-2.078,1.572,8.4,8.4,0,0,1-2.329,1.15,5.79,5.79,0,0,0,1.246-.407l.3-.136c.1-.048.195-.1.292-.151l.291-.155.283-.167c.41-.246.808-.512,1.2-.791.1.48.2.959.32,1.434.1.45.209.9.328,1.346s.227.9.347,1.342q.363,1.338.763,2.664c.53,1.769,1.077,3.534,1.674,5.283.583,1.714,1.182,3.422,1.812,5.123a7.529,7.529,0,0,1-2.035.749,13.54,13.54,0,0,1-2.28.3,22.449,22.449,0,0,1-2.309,0c-.77-.042-1.539-.113-2.3-.226a20.945,20.945,0,0,0,2.3.315,19.757,19.757,0,0,0,2.322.072,13.717,13.717,0,0,0,2.316-.253,7.469,7.469,0,0,0,2.208-.785l.09-.051-.036-.1c-.63-1.732-1.229-3.477-1.812-5.228s-1.158-3.5-1.695-5.266-1.056-3.534-1.515-5.32q-.186-.741-.364-1.484c.281-.2.557-.412.829-.627.687-.544,1.346-1.123,1.994-1.711s1.269-1.205,1.888-1.824,1.215-1.259,1.806-1.9,1.171-1.3,1.738-1.964q1.71-1.988,3.279-4.089Q291.784,619.109,290.026,621.047Z" transform="translate(-272.842 -576.278)" fill="#fff"/>
        <path id="Path_3190" data-name="Path 3190" d="M311.811,601.18l-13.206-.531s8.106,15.166,10.693,22.74C309.3,623.389,312.961,607.4,311.811,601.18Z" transform="translate(-277.248 -572.729)" fill="#dde8fe"/>
        <path id="Path_3191" data-name="Path 3191" d="M308.308,603.241a9.658,9.658,0,0,0,3.655,2.7,21.239,21.239,0,0,0-.152-4.759l-4.452.168-7.688-.291-1.065-.408s1.036,1.939,2.486,4.775C302.949,606.085,305.56,606.1,308.308,603.241Z" transform="translate(-277.248 -572.729)" fill="#bed1f9" style="mix-blend-mode: multiply;isolation: isolate"/>
        <path id="Path_3192" data-name="Path 3192" d="M298.605,600.589s10.8,5.673,13.206.531C311.811,601.121,308.894,599.886,298.605,600.589Z" transform="translate(-277.248 -572.67)" fill="#fb9390"/>
      </g>
      <g id="Group_1463" data-name="Group 1463" transform="translate(41.972)">
        <path id="Path_3193" data-name="Path 3193" d="M412.442,524.333a43.938,43.938,0,1,1-48.9-38.34A43.938,43.938,0,0,1,412.442,524.333Z" transform="translate(-324.879 -485.671)" fill="#f3f8ff"/>
        <path id="Path_3194" data-name="Path 3194" d="M409.266,526.078A39.516,39.516,0,1,1,365.287,491.6,39.516,39.516,0,0,1,409.266,526.078Z" transform="translate(-326.094 -486.885)" fill="#92b5f9"/>
        <g id="Group_1462" data-name="Group 1462" transform="translate(6.944 6.944)">
          <g id="Group_1461" data-name="Group 1461">
            <path id="Path_3195" data-name="Path 3195" d="M375.175,568.248a37,37,0,1,1,32.282-41.175A37.038,37.038,0,0,1,375.175,568.248Zm-8.729-72.107a35.637,35.637,0,1,0,39.661,31.1A35.677,35.677,0,0,0,366.446,496.141Z" transform="translate(-333.73 -494.521)" fill="#dde8fe"/>
          </g>
        </g>
        <path id="Path_3196" data-name="Path 3196" d="M381.578,522.088c-.8-1.99-1.886-3.575-4.065-4.278a5.607,5.607,0,0,0-.034.832c.394,3.3.82,6.59,1.184,9.889.08.723.354.958,1.066,1.094a46.229,46.229,0,0,1,4.934,1.207c5.677,1.752,8.169,6.131,8.194,11.692.032,6.7-3.125,10.943-9.479,13.18-1.16.408-1.44.96-1.2,2.059.174.8.213,1.631.321,2.53l-4.252.515c-.156-1.291-.311-2.569-.463-3.82-9.453-.373-13.05-6.7-14.04-11.62l7.513-1.758a10.249,10.249,0,0,0,5.625,6.074c-.222-1.834-.413-3.412-.6-4.991-.261-2.158-.559-4.312-.767-6.475a1.235,1.235,0,0,0-1.167-1.308,16.516,16.516,0,0,1-7.16-2.949c-4.282-3.308-5.489-7.885-4.672-12.9.763-4.686,3.892-7.619,8.4-9.057.3-.1.6-.187.9-.29a4.065,4.065,0,0,0,.41-.206c-.122-1.012-.249-2.056-.386-3.19l4.318-.523c.092.759.237,1.528.264,2.3.029.818.406,1.036,1.182,1.069a11.632,11.632,0,0,1,8.783,4.005,12.362,12.362,0,0,1,2.572,5.014Zm-1.686,15.886c.469,3.882.926,7.655,1.383,11.432a5.873,5.873,0,0,0,4.334-6.06C385.511,540.51,383.352,538.418,379.892,537.974Zm-6.916-19.7a5.653,5.653,0,0,0-3.173,5.671,5.45,5.45,0,0,0,4.4,4.43C373.8,525.064,373.4,521.744,372.976,518.274Z" transform="translate(-332.934 -490.435)" fill="#f3f8ff"/>
      </g>
    </g>
  </g>
</svg>
