<svg xmlns="http://www.w3.org/2000/svg" xmlns:xlink="http://www.w3.org/1999/xlink" width="269.898" height="177.59" viewBox="0 0 269.898 177.59">
  <defs>
    <clipPath id="clip-path">
      <rect id="Rectangle_119" data-name="Rectangle 119" width="269.898" height="177.59" fill="none"/>
    </clipPath>
    <clipPath id="clip-path-3">
      <rect id="Rectangle_108" data-name="Rectangle 108" width="22.861" height="21.235" fill="none"/>
    </clipPath>
    <clipPath id="clip-path-4">
      <rect id="Rectangle_110" data-name="Rectangle 110" width="6.899" height="11.3" fill="none"/>
    </clipPath>
    <clipPath id="clip-path-5">
      <rect id="Rectangle_112" data-name="Rectangle 112" width="10.655" height="9.018" fill="none"/>
    </clipPath>
    <clipPath id="clip-path-6">
      <rect id="Rectangle_115" data-name="Rectangle 115" width="23.326" height="14.362" fill="none"/>
    </clipPath>
    <clipPath id="clip-path-7">
      <rect id="Rectangle_117" data-name="Rectangle 117" width="24.911" height="17.14" fill="none"/>
    </clipPath>
  </defs>
  <g id="Group_1413" data-name="Group 1413" transform="translate(0 -21)">
    <g id="Group_40" data-name="Group 40" transform="translate(0 21)" clip-path="url(#clip-path)">
      <path id="Path_7" data-name="Path 7" d="M104.583,588.824H94.63L94.624,386.5l9.954-.03Z" transform="translate(127.546 -232.212)" fill="#0e8934"/>
      <g id="Group_39" data-name="Group 39">
        <g id="Group_38" data-name="Group 38" clip-path="url(#clip-path)">
          <path id="Path_8" data-name="Path 8" d="M142.236,364.746s-.6-2.159-5.114-5.7a9.655,9.655,0,0,1-3.5-9.513l.005-.026s0,2.4,3.245,3.81,6.21,5.927,5.363,11.431" transform="translate(74.258 -210)" fill="#2dd782"/>
          <path id="Path_9" data-name="Path 9" d="M140.621,353.921c.725.513.982,2.719,1.144,3.466.829,3.808-.319,8.033,1.239,11.668,1.428,3.333,4.285,5.236,7.777,6.034a18.338,18.338,0,0,1-1.6-6.312,20.425,20.425,0,0,0-8.557-14.856" transform="translate(62.988 -212.653)" fill="#0e8934"/>
          <path id="Path_10" data-name="Path 10" d="M153.858,357.481a34.272,34.272,0,0,0,4.419,1.131,11.883,11.883,0,0,1,9.192,9.275l0,.018a15.941,15.941,0,0,1-5.007-1.47,16.5,16.5,0,0,1-8.6-8.95l0,0" transform="translate(41.014 -214.792)" fill="#2dd782"/>
          <path id="Path_11" data-name="Path 11" d="M103.022,230.343a.2.2,0,0,1-.111-.018c-.053-.026-.135-.066-.186-.094a4.929,4.929,0,0,1-2.472-3.685,3.716,3.716,0,0,1,.537-2.5,8.814,8.814,0,0,0,1.225-2.207c.144-.613.051-1.261.176-1.877l.006-.028a8.681,8.681,0,0,1,3.414,5.411,5.352,5.352,0,0,1-.572,3.291,2.906,2.906,0,0,1-2.018,1.708" transform="translate(124.232 -132.147)" fill="#0e8934"/>
          <path id="Path_12" data-name="Path 12" d="M124.622,211.361a.3.3,0,0,0,.15-.079c.063-.062.161-.158.222-.222a7.422,7.422,0,0,0,1.789-6.434,5.593,5.593,0,0,0-1.951-3.321,13.272,13.272,0,0,1-2.793-2.574c-.5-.809-.67-1.777-1.14-2.6l-.021-.036a13.064,13.064,0,0,0-2.32,9.346,8.057,8.057,0,0,0,2.373,4.433,4.377,4.377,0,0,0,3.69,1.486" transform="translate(95.741 -117.824)" fill="#0e8934"/>
          <path id="Path_13" data-name="Path 13" d="M133.316,352.3H131.9a21.7,21.7,0,0,0-.271-4.392,5.49,5.49,0,0,0-2.981-4.111,42.123,42.123,0,0,0-4.338-1.931c-2.812-.992-2.479-5.21-5.291-7.275-2.848-2.091-3.035-3.52-2.674-4.36a1.3,1.3,0,0,1,1.566-.73,19.459,19.459,0,0,1,12.984,12.178,24.7,24.7,0,0,1,2.425,10.621" transform="translate(90.188 -197.945)" fill="#0e8934"/>
          <path id="Path_14" data-name="Path 14" d="M11.957,281.87s9.756-7.936,19.345-5.622c3.678.888,8.112,4.2,8.14,8.306.028,4.084-3.934,3.332-6.6,2.189-3.354-1.439-6.072-3.987-9.635-4.96a18.968,18.968,0,0,0-5.23-.615c-1.363.018-4.937-.178-6.019.7" transform="translate(225.684 -165.729)" fill="#2dd782"/>
          <path id="Path_15" data-name="Path 15" d="M46.591,221.461c0,9.406-7.413,10.875-12.446,11.182a12.937,12.937,0,0,0-6.875,2.47c-.312.222-.623.449-.939.677-2.136,1.548-4.316,3.1-6.439,4.716-.275.2-.52.41-.761.623a7.758,7.758,0,0,0-.721.655l-.667.707c-.218.24-.4.512-.61.766l-.3.387c-.1.129-.178.271-.272.4l-.534.819-.471.854c-.16.28-.311.57-.445.868a36.44,36.44,0,0,0-2.51,7.213,73.953,73.953,0,0,0-1.727,11.458c-.053.7-.1,1.379-.142,2.042-.236,3.991-.218,7.333-.169,9.664.027,1.175.067,2.092.1,2.714h-1c-.026-.627-.062-1.544-.08-2.7-.036-2.349-.036-5.713.227-9.74a83.629,83.629,0,0,1,1.491-11.506c.147-.708.307-1.42.485-2.136a37.088,37.088,0,0,1,2.612-7.364,9.512,9.512,0,0,1,.463-.894l.5-.881.556-.85c.1-.142.187-.285.285-.422l.316-.405c.218-.263.414-.543.645-.8l.708-.748a10.219,10.219,0,0,1,.77-.689c.263-.227.53-.45.8-.641,2.145-1.619,4.343-3.159,6.483-4.69s4.24-3.053,6.2-4.61a58.192,58.192,0,0,0,5.38-4.779,35.208,35.208,0,0,0,4.1-4.948c2.541-3.809,3.613-7.965,4.912-12.3Z" transform="translate(219.486 -125.328)" fill="#2dd782"/>
          <path id="Path_16" data-name="Path 16" d="M59.013,315.288s-3.6-9.673,3.72-14.509a21.271,21.271,0,0,1,8.061-3.6s4.712,14.757-11.781,18.1" transform="translate(175.279 -178.562)" fill="#0e8934"/>
          <path id="Path_17" data-name="Path 17" d="M91.308,336.581s-.094.325-.232.895c-.067.28-.16.623-.245,1.023s-.187.845-.3,1.335-.2,1.023-.321,1.584-.24,1.157-.334,1.775-.214,1.259-.325,1.9-.2,1.313-.289,1.976-.182,1.322-.271,1.971-.134,1.3-.2,1.918c-.009.067-.014.133-.018.2-.058.552-.107,1.086-.16,1.6-.027.227-.044.449-.062.667-.022.325-.04.641-.058.939-.053.854-.1,1.584-.129,2.14H86.9c.062-.574.147-1.348.245-2.265.053-.507.1-1.05.2-1.625s.174-1.179.271-1.806.178-1.273.3-1.922.245-1.317.37-1.98.235-1.326.386-1.971.285-1.286.418-1.9.29-1.206.423-1.767.267-1.094.4-1.584.258-.93.365-1.326.218-.738.3-1.023c.169-.57.276-.886.276-.886Z" transform="translate(143.902 -202.155)" fill="#0e8934"/>
          <path id="Path_18" data-name="Path 18" d="M76.6,367.655s1.423-6.542,6.72-8.046a.676.676,0,0,1,.838.82c-.421,1.613-1.957,4.8-7.558,7.227" transform="translate(155.14 -216.055)" fill="#0e8934"/>
          <path id="Path_19" data-name="Path 19" d="M42.319,225.273a2.475,2.475,0,0,0-2.4,1.642c-1.148,3.208-2.745,9.58-3.546,21.327-.2,2.848-.343,6.011-.427,9.522-.1,4.093-.107,8.654,0,13.74v.681H33.317c-.008-.511-.022-1.05-.035-1.606-.147-7.569-.129-18.911,1.005-25.527,1.718-9.981-1.126-26.431-2.425-30.627a.616.616,0,0,1,.049-.494.64.64,0,0,1,.391-.3l.018,0a.6.6,0,0,1,.734.436c.748,3.044,4.063,17.033,3.4,22.577a61.455,61.455,0,0,1,2.372-10.528,7.008,7.008,0,0,0,.146-4.036C33.024,199.158,62.73,196.11,62.73,196.11c.93,27.1-14.359,29.332-20.41,29.163M36.45,236.717c0,.022,0,.045-.009.067,0,0,0-.022.009-.067" transform="translate(194.422 -117.833)" fill="#0e8934"/>
          <path id="Path_20" data-name="Path 20" d="M112.955,266.023a17.033,17.033,0,0,1,5.113,12.873c.035-1.07-1.231-2.843-1.816-3.641-3.932-5.372-9.294-4.3-15-3.05Z" transform="translate(111.405 -159.84)" fill="#0e8934"/>
          <path id="Path_21" data-name="Path 21" d="M101.947,331.112a.6.6,0,0,1,.662-.673c2.087.246,7.945,1.7,9.835,10.2,0,0-8.9,2.385-10.5-9.529" transform="translate(116.764 -198.542)" fill="#0e8934"/>
          <path id="Path_22" data-name="Path 22" d="M102.925,305.375s6.448,2.646,6.448,8.929c0,0-4.96,1.488-6.448-8.929" transform="translate(119.442 -183.484)" fill="#0e8934"/>
          <path id="Path_23" data-name="Path 23" d="M125.553,287.079s16.942-3.568,19.345,11.078c0,0-6.055,2.883-11.9,0-5.8-2.86-7.441-11.078-7.441-11.078" transform="translate(74.886 -172.261)" fill="#2dd782"/>
          <path id="Path_24" data-name="Path 24" d="M109.909,307.839l.159.08c.109.054.253.139.441.245a16.928,16.928,0,0,1,1.47,1c.285.23.607.468.918.749s.649.572.974.9.649.671.983,1.019.633.738.949,1.113c.293.392.6.777.879,1.171s.54.791.791,1.177l.682,1.139c.212.365.386.724.561,1.048s.333.624.45.9l.321.706.28.616-1.242.484-.236-.6-.27-.694c-.1-.271-.237-.564-.383-.885s-.3-.675-.482-1.037l-.593-1.129-.7-1.174c-.248-.393-.521-.779-.782-1.173-.284-.377-.562-.76-.854-1.123s-.584-.718-.893-1.035-.6-.637-.891-.918-.583-.535-.847-.774a16.4,16.4,0,0,0-1.361-1.039c-.172-.111-.309-.2-.4-.252l-.145-.084Z" transform="translate(106.344 -184.965)" fill="#0e8934"/>
          <path id="Path_25" data-name="Path 25" d="M114.086,260.946s11.2-18.383,30.59-3.59c0,0-13.5,12.925-30.59,3.59" transform="translate(79.684 -151.173)" fill="#2dd782"/>
          <path id="Path_26" data-name="Path 26" d="M113,292.547H109.11c3.021-31.766-4.961-61.952-4.961-61.952l.85-.6c4.552,18.208,5.834,40.513,6.185,53.31a30.737,30.737,0,0,0,.463,4.516,27.168,27.168,0,0,0,.73,3.115,10.251,10.251,0,0,0,.623,1.606" transform="translate(115.328 -138.195)" fill="#0e8934"/>
          <path id="Path_27" data-name="Path 27" d="M7.149,350.989a11.332,11.332,0,0,1-2.521.519A36.512,36.512,0,0,1,0,351.893l.259-.246a5.958,5.958,0,0,1,7.841-.785Z" transform="translate(261.799 -210.14)" fill="#2dd782"/>
          <path id="Path_28" data-name="Path 28" d="M28.889,351.837a5.015,5.015,0,0,0,.411-1.616,22.123,22.123,0,0,0-.022-5.691,8.112,8.112,0,0,1,1.04-4.864,6.771,6.771,0,0,1,1.543-1.87,7.8,7.8,0,0,1,.978-.713,6.911,6.911,0,0,1,1.073-.451l.022-.007a1.482,1.482,0,0,0-.249.2,2.172,2.172,0,0,0-.477.7,4.484,4.484,0,0,0,.062,3.392c1.1,3.137-.244,6.864-4.379,10.918" transform="translate(224.435 -202.26)" fill="#2dd782"/>
          <path id="Path_29" data-name="Path 29" d="M55.627,375.707a5.54,5.54,0,0,0,.309-1.723,27.645,27.645,0,0,0-.429-5.968,9.536,9.536,0,0,1-.073-2.72,9.916,9.916,0,0,1,.742-2.563,9.759,9.759,0,0,1,1.395-2.264,9.142,9.142,0,0,1,2.044-1.755l.023-.014a3.265,3.265,0,0,0-.711,1.243,5.228,5.228,0,0,0,.317,3.721,7.779,7.779,0,0,1,.563,2.735,10.832,10.832,0,0,1-.319,3.135A11.064,11.064,0,0,1,58.1,372.72a12.2,12.2,0,0,1-2.473,2.987" transform="translate(187.982 -215.525)" fill="#2dd782"/>
          <path id="Path_30" data-name="Path 30" d="M12.715,380.679s1.887-1.192,7.558-.63a10.66,10.66,0,0,0,5.131-.736,9.255,9.255,0,0,0,3.8-2.931l.014-.019s-1.5.94-4.916.136a10.409,10.409,0,0,0-5.661.162,12.225,12.225,0,0,0-2.98,1.427,16.262,16.262,0,0,0-2.945,2.59" transform="translate(235.605 -226.031)" fill="#2dd782"/>
          <path id="Path_31" data-name="Path 31" d="M40.014,410.145s1.8-1.419,7.527-1.415a10.155,10.155,0,0,0,5.038-1.349,9.3,9.3,0,0,0,3.614-3.563l.012-.022s-1.4,1.224-4.9.745a10.675,10.675,0,0,0-11.288,5.6" transform="translate(197.721 -242.621)" fill="#2dd782"/>
          <path id="Path_32" data-name="Path 32" d="M74.969,390.064s2.3-1.475,3.431-.492a.876.876,0,0,1,.024,1.3c-.607.558-1.955,1.267-4.691.725Z" transform="translate(161.766 -233.871)" fill="#0e8934"/>
          <path id="Path_33" data-name="Path 33" d="M81.448,408.835a3.63,3.63,0,0,0,.473-1.612,10.921,10.921,0,0,0,0-2.315,23.434,23.434,0,0,0-.555-3.6,10.2,10.2,0,0,1,.251-5.491,10.32,10.32,0,0,1,3.1-4.492l.019-.016a3.536,3.536,0,0,0-.583,1.375,5.777,5.777,0,0,0,.594,3.812,6.9,6.9,0,0,1,.485,5.189,14.576,14.576,0,0,1-1.377,3.19,39.743,39.743,0,0,1-2.406,3.956" transform="translate(152 -235.12)" fill="#2dd782"/>
          <path id="Path_34" data-name="Path 34" d="M18.192,388.035a178.515,178.515,0,0,1,19.417-23.816,113.584,113.584,0,0,1,8.31-7.77c1.03-.841,1.821-1.5,2.373-1.922l.847-.622.286.3-.846.619-2.367,1.923c-2.046,1.7-4.916,4.316-8.293,7.758a166.966,166.966,0,0,0-19.11,24.1Z" transform="translate(213.212 -212.643)" fill="#0e8934"/>
          <path id="Path_35" data-name="Path 35" d="M66.509,381.565l4.931-11.132.049.18c.475-4.832,2.5-7.426,5.255-9.148,3-1.876,3.245-3.81,3.245-3.81l.006.026a9.656,9.656,0,0,1-3.5,9.514,19.515,19.515,0,0,0-4.641,4.76l.008.028s-.135.206-.345.582a2.568,2.568,0,0,0-.136.331c0-.03,0-.057,0-.087a23.464,23.464,0,0,0-2.762,11.714Z" transform="translate(163.162 -214.897)" fill="#0e8934"/>
          <path id="Path_36" data-name="Path 36" d="M143.081,397.568a10.286,10.286,0,0,1,6.268,8.816,15.366,15.366,0,0,0,1.007,1.921,8.442,8.442,0,0,0,.808,1.111,4.258,4.258,0,0,0,.833.772,1.705,1.705,0,0,0,.364.212.778.778,0,0,0,.285.111l.247.067-.211,1.057-.392-.141a1.505,1.505,0,0,1-.412-.208,2.628,2.628,0,0,1-.469-.336,5.151,5.151,0,0,1-.911-1.013,9.19,9.19,0,0,1-.765-1.285,16.523,16.523,0,0,1-.819-1.967c-.584-.362-1.735-1.062-3.548-2.106-3.282-1.89-5.031-5-5.854-8.7v0a29.727,29.727,0,0,0,3.572,1.686" transform="translate(70.931 -237.866)" fill="#0e8934"/>
          <path id="Path_37" data-name="Path 37" d="M229.833,191.949a.9.9,0,0,0,.642-.266.906.906,0,0,0,0-1.288.943.943,0,0,0-1.287,0,.914.914,0,0,0,0,1.288.915.915,0,0,0,.645.266" transform="translate(-52.221 -114.247)" fill="#01baef"/>
          <path id="Path_38" data-name="Path 38" d="M100.713,271.747a.909.909,0,1,0-.141.011.843.843,0,0,0,.141-.011M100,267.282a.9.9,0,1,0-.16.016.833.833,0,0,0,.16-.016m-.821-4.446a.905.905,0,1,0-.182.019.832.832,0,0,0,.182-.019m-.927-4.421a.914.914,0,0,0,.686-1.092h0a.911.911,0,1,0-.886,1.114,1.007,1.007,0,0,0,.2-.022m-1.043-4.4a.906.906,0,1,0-.228.03.935.935,0,0,0,.228-.03m-1.164-4.367a.914.914,0,1,0-.254.035.91.91,0,0,0,.254-.035m-1.3-4.329a.91.91,0,1,0-1.147-.585.9.9,0,0,0,.865.629.933.933,0,0,0,.282-.044m-1.437-4.286a.9.9,0,1,0-.309.057.89.89,0,0,0,.309-.057M91.722,236.8a.907.907,0,1,0-.341.067.894.894,0,0,0,.341-.067m-1.743-4.167a.919.919,0,1,0-.374.079.914.914,0,0,0,.374-.079m-1.914-4.093a.908.908,0,1,0-.409.1.913.913,0,0,0,.409-.1m-2.093-4a.914.914,0,1,0-.447.117.909.909,0,0,0,.447-.117m-2.282-3.9a.91.91,0,1,0-.485.141.906.906,0,0,0,.485-.141m-2.478-3.776a.909.909,0,1,0-.528.171.908.908,0,0,0,.528-.171m-2.686-3.633a.911.911,0,1,0-.57.2.909.909,0,0,0,.57-.2m-2.9-3.467a.91.91,0,1,0-.615.239.909.909,0,0,0,.615-.239m-3.109-3.277a.917.917,0,1,0-.659.279.911.911,0,0,0,.659-.279M69.2,203.421a.909.909,0,1,0-.7.328.911.911,0,0,0,.7-.328M65.671,200.6a.911.911,0,1,0-1.272.206.923.923,0,0,0,.532.171.906.906,0,0,0,.74-.377m-3.722-2.564a.91.91,0,1,0-1.252.3.922.922,0,0,0,.477.133.9.9,0,0,0,.775-.433m-3.9-2.28a.91.91,0,1,0-1.225.39.886.886,0,0,0,.418.1.9.9,0,0,0,.807-.493m-4.061-1.981a.911.911,0,1,0-1.2.483.923.923,0,0,0,.355.07.909.909,0,0,0,.84-.553m-4.2-1.676a.91.91,0,1,0-1.155.572.926.926,0,0,0,.293.049.911.911,0,0,0,.862-.621m-4.316-1.355a.91.91,0,1,0-1.108.653.925.925,0,0,0,.228.03.911.911,0,0,0,.881-.683m-4.4-1.038a.911.911,0,1,0-1.06.729.855.855,0,0,0,.165.016.911.911,0,0,0,.894-.746m-4.467-.721a.911.911,0,1,0-1.006.805c.032,0,.068.006.1.006a.912.912,0,0,0,.906-.811m-14.362.743h0a.911.911,0,1,0-.1.005c.033,0,.065,0,.1-.005m9.851-1.15a.91.91,0,1,0-.946.873v0h.038a.911.911,0,0,0,.908-.876m-5.408.851a.925.925,0,1,0-.027,0Z" transform="translate(159.939 -112.723)" fill="#01baef"/>
          <path id="Path_39" data-name="Path 39" d="M20.5,407.129a.91.91,0,0,0,.645-1.553.942.942,0,0,0-1.287,0,.909.909,0,0,0,.642,1.553" transform="translate(240.666 -243.537)" fill="#01baef"/>
          <path id="Path_40" data-name="Path 40" d="M224.7,209.631a.909.909,0,0,0,.642-1.553.937.937,0,0,0-1.287,0,.911.911,0,0,0,.645,1.553" transform="translate(-45.037 -124.87)" fill="#01baef"/>
          <path id="Path_41" data-name="Path 41" d="M158.4,285.571a.9.9,0,1,0-.149.014.973.973,0,0,0,.149-.014m-.748-4.467a.915.915,0,1,0-.162.014.827.827,0,0,0,.162-.014m-.816-4.457a.912.912,0,1,0-.174.016.947.947,0,0,0,.174-.016m-.884-4.441a.916.916,0,1,0-.19.019,1.119,1.119,0,0,0,.19-.019m-.962-4.427a.908.908,0,0,0,.68-1.092h0a.911.911,0,1,0-.89,1.114.9.9,0,0,0,.206-.022m-1.046-4.408a.914.914,0,1,0-.225.027.923.923,0,0,0,.225-.027m-1.139-4.383a.911.911,0,1,0-1.119-.634v0a.91.91,0,0,0,.875.669.933.933,0,0,0,.244-.033m-1.239-4.356a.916.916,0,1,0-.263.038.884.884,0,0,0,.263-.038m-1.348-4.324a.913.913,0,1,0-.287.046.878.878,0,0,0,.287-.046m-1.472-4.283a.906.906,0,1,0-.315.057.91.91,0,0,0,.315-.057m-1.61-4.231a.911.911,0,1,0-.344.067.9.9,0,0,0,.344-.067m-1.762-4.17a.916.916,0,1,0-.38.081.946.946,0,0,0,.38-.081m-1.938-4.093a.91.91,0,1,0-1.228-.393v0a.914.914,0,0,0,.81.494.887.887,0,0,0,.418-.1m-2.136-3.99a.912.912,0,1,0-.461.125.911.911,0,0,0,.461-.125m-2.367-3.86a.911.911,0,0,0,.244-1.266h0a.91.91,0,1,0-.751,1.423.9.9,0,0,0,.509-.157M136.311,222a.908.908,0,1,0-.566.2.893.893,0,0,0,.566-.2m-2.928-3.451a.912.912,0,0,0,.014-1.29v0a.908.908,0,1,0-.014,1.288m-3.275-3.126a.912.912,0,1,0-.71.342.909.909,0,0,0,.71-.342m-3.657-2.668a.91.91,0,1,0-1.241.344.935.935,0,0,0,.45.117.9.9,0,0,0,.792-.461m-4.055-2.006a.912.912,0,1,0-1.144.591.889.889,0,0,0,.277.044.912.912,0,0,0,.867-.634" transform="translate(62.586 -125.913)" fill="#01baef"/>
          <path id="Path_42" data-name="Path 42" d="M119.751,408.7a.91.91,0,0,0,.645-1.553.942.942,0,0,0-1.287,0,.909.909,0,0,0,.642,1.553" transform="translate(101.8 -244.48)" fill="#01baef"/>
          <path id="Path_43" data-name="Path 43" d="M227.518,200.007a.91.91,0,0,0,.642-1.556.942.942,0,0,0-1.287,0,.928.928,0,0,0-.266.645.912.912,0,0,0,.911.911" transform="translate(-48.981 -119.087)" fill="#01baef"/>
          <path id="Path_44" data-name="Path 44" d="M130.3,276.435a.9.9,0,1,0-.162.016.834.834,0,0,0,.162-.016m-.819-4.391a.92.92,0,1,0-.182.016,1.038,1.038,0,0,0,.182-.016m-.911-4.375a.913.913,0,1,0-.2.022,1.039,1.039,0,0,0,.2-.022m-1.008-4.354a.91.91,0,1,0-.22.027.9.9,0,0,0,.22-.027m-1.112-4.326a.916.916,0,1,0-.244.032.966.966,0,0,0,.244-.032m-1.225-4.3a.91.91,0,1,0-.268.041.92.92,0,0,0,.268-.041m-1.347-4.259a.91.91,0,1,0-.293.049.91.91,0,0,0,.293-.049m-1.474-4.215a.916.916,0,1,0-.32.057.951.951,0,0,0,.32-.057m-1.616-4.166a.909.909,0,1,0-.35.07.887.887,0,0,0,.35-.07m-1.765-4.1a.912.912,0,1,0-.382.084.924.924,0,0,0,.382-.084m-1.925-4.031a.91.91,0,1,0-1.228-.39v0a.909.909,0,0,0,.81.493.929.929,0,0,0,.418-.1m-2.1-3.941a.906.906,0,1,0-.453.122.913.913,0,0,0,.453-.122m-2.285-3.839a.909.909,0,1,0-.491.146.883.883,0,0,0,.491-.146m-2.48-3.711a.91.91,0,1,0-1.271-.2.912.912,0,0,0,1.271.2m-2.692-3.565a.91.91,0,1,0-1.282-.119.919.919,0,0,0,.7.331.9.9,0,0,0,.58-.212m-2.909-3.386a.911.911,0,1,0-1.288-.035.9.9,0,0,0,.661.285.914.914,0,0,0,.626-.249m-3.137-3.18a.909.909,0,1,0-.672.3.909.909,0,0,0,.672-.3m-3.367-2.933a.911.911,0,1,0-1.277.157v0a.915.915,0,0,0,1.277-.16m-3.592-2.654a.914.914,0,1,0-.764.412.91.91,0,0,0,.764-.412m-3.809-2.334a.909.909,0,1,0-.807.485.912.912,0,0,0,.807-.485M86.715,202.4a.91.91,0,1,0-1.187.5.921.921,0,0,0,.347.067.91.91,0,0,0,.841-.564m-4.183-1.577a.909.909,0,1,0-1.13.613.865.865,0,0,0,.26.038.908.908,0,0,0,.87-.651m-4.324-1.141a.91.91,0,1,0-1.06.729.885.885,0,0,0,.168.016.908.908,0,0,0,.892-.746m-4.424-.667a.91.91,0,0,0-.849-.968h0a.91.91,0,1,0-.117,1.816.507.507,0,0,0,.06,0,.91.91,0,0,0,.908-.851" transform="translate(110.125 -118.997)" fill="#01baef"/>
          <path id="Path_45" data-name="Path 45" d="M70.962,402.982a.912.912,0,0,0,.911-.911.929.929,0,0,0-.266-.645.941.941,0,0,0-1.287,0,.918.918,0,0,0-.269.645.917.917,0,0,0,.911.911" transform="translate(170.065 -241.044)" fill="#01baef"/>
          <path id="Path_46" data-name="Path 46" d="M357.411,163.588l10.986,1.351a.206.206,0,0,1,.111.049,6.811,6.811,0,0,0,3.279,1.316,22.041,22.041,0,0,0,2.414.382l2.669-6.382a.576.576,0,0,0-.328-.683,9.287,9.287,0,0,0-3.9.266c-.47.246-.847-.781-1.243-.549a31.733,31.733,0,0,0-2.656,2.2l-10.791-1.491Z" transform="translate(-249.648 -95.717)" fill="#f69772"/>
          <rect id="Rectangle_107" data-name="Rectangle 107" width="2.466" height="5.176" transform="translate(117.273 69.914) rotate(-171.123)" fill="#fff"/>
          <path id="Path_47" data-name="Path 47" d="M397.085,71.531l5.211,31.637,26.306,3.758-.94,6.263-29.429-2.3a3.906,3.906,0,0,1-3.438-2.775l-9.724-32.508Z" transform="translate(-312.405 -42.979)" fill="#e8f1f2"/>
          <path id="Path_48" data-name="Path 48" d="M632.483,333.64l-14.438,5.029a3.61,3.61,0,0,0-1.533,1.035c-1,1.146-.891,2.158-1.219,3.433a11.2,11.2,0,0,0-.335,2.751l-1.873,1.7-.885-2.468,2.116-9.693,16.35-6.843Z" transform="translate(-606.944 -197.427)" fill="#f69772"/>
          <path id="Path_49" data-name="Path 49" d="M662.145,345.2a13,13,0,0,0-7.37.423l6.721,18.741a.915.915,0,0,0,1.755-.114,4.321,4.321,0,0,0-.716-3.133,2.017,2.017,0,0,1-.265-1.27l.516-4.183-1.367-.3Z" transform="translate(-654.776 -207.204)" fill="#192853"/>
          <path id="Path_50" data-name="Path 50" d="M561.7,280.561l9.189-5.22-1.409,14.877-44.058,15.714-5.541,2.042-3.387-7.491S552.77,283.05,561.7,280.561" transform="translate(-507.145 -165.439)" fill="#e8f1f2"/>
          <path id="Path_51" data-name="Path 51" d="M517.786,380.308l-.145,15.288a3.609,3.609,0,0,0,.457,1.793c.742,1.326,1.73,1.567,2.82,2.308a11.2,11.2,0,0,0,2.476,1.244l.963,2.335h-2.622l-8.408-5.266-.918-17.7Z" transform="translate(-458.986 -228.508)" fill="#f69772"/>
          <path id="Path_52" data-name="Path 52" d="M495.207,424.659a13,13,0,0,0-2.091,7.079l19.91.006a.915.915,0,0,0,.486-1.69,4.324,4.324,0,0,0-3.19-.384,2.017,2.017,0,0,1-1.285-.18l-3.763-1.9-.742,1.186Z" transform="translate(-440.867 -255.156)" fill="#192853"/>
          <path id="Path_53" data-name="Path 53" d="M445.638,46.891l4.141,8.906.193-.247.284-.36.1-.123,3.865-4.954.914-1.167.734-3.549-1.155-3.919-6.155,1.7Z" transform="translate(-363.844 -24.922)" fill="#f69772"/>
          <path id="Path_54" data-name="Path 54" d="M460.7,159.734,501.913,86.4c.432-1.071.827-2.236,1.212-3.486.7-2.245,1.344-4.716,1.992-7.215.414-1.588.836-3.176,1.259-4.726.348-1.268.7-2.5,1.1-3.673a23.2,23.2,0,0,1,4-7.394,21.927,21.927,0,0,1,5.5-4.839,29.83,29.83,0,0,1,5.609-2.875c2.358-.808,6.933-1.071,8.653.535,1.165,1.109,1.165,4.087,1.635,6.182a5.084,5.084,0,0,0,.451,1.325q.187.357.344.724a12.492,12.492,0,0,1,1.454,7.823c-1.187,8.184-25.238,122.391-25.238,122.391l-.423,5.891h-8.22s-41.948-28.171-40.539-37.331" transform="translate(-449.22 -30.976)" fill="#fafdfd"/>
          <g id="Group_25" data-name="Group 25" transform="translate(56.225 22.235)" style="mix-blend-mode: multiply;isolation: isolate">
            <g id="Group_24" data-name="Group 24">
              <g id="Group_23" data-name="Group 23" clip-path="url(#clip-path-3)">
                <path id="Path_55" data-name="Path 55" d="M479.526,71.2s.495.034.154-.175c.424-.978.153-2.919.639-3.94.374-.772.759-1.553,1.159-2.326a22.914,22.914,0,0,1,9.23-8.618l1.473-.439,8.725,6.807s.231,4.895-5.781,6.84L480.937,72.6c-.706.915-2.891,4.34-2.891,4.34Z" transform="translate(-478.046 -55.705)" fill="#e8f1f2"/>
              </g>
            </g>
          </g>
          <path id="Path_56" data-name="Path 56" d="M613.077,124.939l-5.058,3.962-.322,3.919a2.336,2.336,0,0,1-.782,1.384,13.175,13.175,0,0,0-.852,1.228s-.121.729-1.318.819l-1.054.531s-.383.4-.839-.24a1.511,1.511,0,0,1,.311-.891.877.877,0,0,1-.687-1.19s-1.2-.507-.81-1.547a.868.868,0,0,1-.409-1.24c-1.617-.736-.065-2.745.819-3.257l3.605-2.087,4.965-4.3Z" transform="translate(-582.889 -73.322)" fill="#f69772"/>
          <rect id="Rectangle_109" data-name="Rectangle 109" width="5.176" height="2.467" transform="matrix(-0.653, -0.757, 0.757, -0.653, 26.391, 55.722)" fill="#fff"/>
          <path id="Path_57" data-name="Path 57" d="M528.234,65.98a5.978,5.978,0,0,0,4.08-8.072,6.354,6.354,0,0,0-8.524-3.42l-25.2,10.176a16.117,16.117,0,0,0-3.968,2.481L477.513,82.578l4.169,4.837L500.667,72.49Z" transform="translate(-453.438 -32.423)" fill="#fafdfd"/>
          <g id="Group_28" data-name="Group 28" transform="translate(83.476 18.845)" opacity="0.5" style="mix-blend-mode: multiply;isolation: isolate">
            <g id="Group_27" data-name="Group 27">
              <g id="Group_26" data-name="Group 26" clip-path="url(#clip-path-4)">
                <path id="Path_58" data-name="Path 58" d="M449.767,52.506l3.028,6.008,3.865-4.954s.106-5.534-1.487-6.346c0,0,.5,2.973-2.365,3.29,0,0-3.166-.37-3.042,2" transform="translate(-449.763 -47.214)" fill="#f69772"/>
              </g>
            </g>
          </g>
          <path id="Path_59" data-name="Path 59" d="M424.976,12.811a3.981,3.981,0,0,0,3.7,4.145,3.825,3.825,0,1,0,.358-7.641,3.74,3.74,0,0,0-4.058,3.5" transform="translate(-332.475 -5.594)" fill="#062e40"/>
          <path id="Path_60" data-name="Path 60" d="M430.615,30.308c-.073,1.566.374,2.859,1,2.888s1.189-1.217,1.263-2.782-.373-2.859-1-2.889-1.189,1.217-1.263,2.783" transform="translate(-334.862 -16.538)" fill="#fff"/>
          <path id="Path_61" data-name="Path 61" d="M431.557,17.087l-.528,11.294,4.378.085,1.945.109-.146,5.24h0a2.883,2.883,0,0,0,.4.29l.043.028a3.146,3.146,0,0,0,4.556-1.663c.279-.786.538-1.573.76-2.268.41-1.3.685-2.259.685-2.259L444.92,28a.439.439,0,0,0,.441-.562l-1.084-3.669a13.9,13.9,0,0,0-.364-6.106Z" transform="translate(-347.527 -10.267)" fill="#f69772"/>
          <path id="Path_62" data-name="Path 62" d="M456.372,17.184l1.439,4.069-1.316,4.311-1.455-.068-3.08-.144s.149,4.148-2.786,4.583l.09-1.931a2.368,2.368,0,0,0-.4-1.439c-1.374-2.036-5.292-8.356-2.07-9.829Z" transform="translate(-365.753 -10.056)" fill="#062e40"/>
          <path id="Path_63" data-name="Path 63" d="M434.173,6.679l.064-1.368a2.171,2.171,0,0,1,2.27-2.067A4.452,4.452,0,0,0,438.86,2.7l2.627-1.446a10.087,10.087,0,0,1,5.336-1.24l.308.014a2.771,2.771,0,0,1,2.629,2.939L449.553,7.4Z" transform="translate(-353.165 0)" fill="#062e40"/>
          <path id="Path_64" data-name="Path 64" d="M436.076,30.053c-.073,1.566.373,2.86,1,2.889s1.189-1.217,1.263-2.783-.373-2.859-1-2.888-1.189,1.217-1.263,2.782" transform="translate(-342.503 -16.385)" fill="#fff"/>
          <rect id="Rectangle_111" data-name="Rectangle 111" width="9.172" height="0.88" transform="matrix(-0.999, -0.047, 0.047, -0.999, 97.238, 14.095)" fill="#fff"/>
          <path id="Path_65" data-name="Path 65" d="M436.622,49.172a2.8,2.8,0,0,1,.412-3.461c.012-.012,2.343-2.242.083-4.445a7.751,7.751,0,0,1,1-2.594l1.54.072a4.2,4.2,0,0,0,4.521,4.423.448.448,0,0,1,.165,0h.016l0,0a.45.45,0,0,1,.33.312.456.456,0,0,1-.316.562c-.013,1.9-.227,4.636-1.836,5.945a4.147,4.147,0,0,1-5.909-.816l-.005-.008" transform="translate(-348.918 -23.237)" fill="#01161e"/>
          <path id="Path_66" data-name="Path 66" d="M455.861,33.738l.069-1.48a1.786,1.786,0,0,0-.433-1.253,1.365,1.365,0,0,0-1.608-.443s-2.449.691-.778,3.486l.016.026,1.3,1.982a.7.7,0,0,0,.554.315l.05,0a.7.7,0,0,0,.734-.669Z" transform="translate(-366.661 -18.301)" fill="#f69772"/>
          <path id="Path_67" data-name="Path 67" d="M460.817,50.915l-2.206.594,4.659,12.578,1.753-3.444Z" transform="translate(-378.181 -30.592)" fill="#e8f1f2"/>
          <path id="Path_68" data-name="Path 68" d="M261.842,204.015l-17.6,5.618-10.655,3.4,5.01-8.782,1.8-.236,20.8-2.725Z" transform="translate(-85.18 -120.945)" fill="#2c518d"/>
          <path id="Path_69" data-name="Path 69" d="M230.21,199.344l-8.095-4.449,5.1-7.7Z" transform="translate(-48.969 -112.474)" fill="#2c518d"/>
          <path id="Path_70" data-name="Path 70" d="M223.92,197.6a.762.762,0,0,1-1.478.37l-3.012-12.018a.762.762,0,0,1,1.478-.37Z" transform="translate(-41.621 -111.162)" fill="#617daa"/>
          <g id="Group_31" data-name="Group 31" transform="translate(148.406 83.07)" opacity="0.5" style="mix-blend-mode: multiply;isolation: isolate">
            <g id="Group_30" data-name="Group 30">
              <g id="Group_29" data-name="Group 29" clip-path="url(#clip-path-5)">
                <path id="Path_71" data-name="Path 71" d="M288.337,213.735l-10.655,3.4,5.01-8.783,1.8-.236c-.463,1.646-.248,4.049,3.84,5.617" transform="translate(-277.682 -208.118)" fill="#2c518d"/>
              </g>
            </g>
          </g>
          <rect id="Rectangle_113" data-name="Rectangle 113" width="25.827" height="30.846" transform="translate(146.47 96.888) rotate(-150.297)" fill="#2c518d"/>
          <g id="Group_34" data-name="Group 34" transform="translate(123.976 82.632)" opacity="0.5" style="mix-blend-mode: multiply;isolation: isolate">
            <g id="Group_33" data-name="Group 33">
              <g id="Group_32" data-name="Group 32" clip-path="url(#clip-path-6)">
                <rect id="Rectangle_114" data-name="Rectangle 114" width="25.827" height="1.801" transform="translate(22.433 14.362) rotate(-150.297)" fill="#2c518d"/>
              </g>
            </g>
          </g>
          <rect id="Rectangle_116" data-name="Rectangle 116" width="29.673" height="2.967" transform="matrix(-0.869, -0.496, 0.496, -0.869, 146.154, 101.305)" fill="#617daa"/>
          <path id="Path_72" data-name="Path 72" d="M331.705,224.211l-23.969-13.674.232-.408a.85.85,0,0,1,1.16-.317l22.493,12.832a.849.849,0,0,1,.317,1.159Z" transform="translate(-184.984 -125.999)" fill="#2c518d"/>
          <g id="Group_37" data-name="Group 37" transform="translate(137.279 56.534)" opacity="0.5" style="mix-blend-mode: multiply;isolation: isolate">
            <g id="Group_36" data-name="Group 36">
              <g id="Group_35" data-name="Group 35" clip-path="url(#clip-path-7)">
                <path id="Path_73" data-name="Path 73" d="M294.756,154.433l-10.32-5.887-3.735-2.131-8.379-4.78-2.478,4.343,8.379,4.779-.088.154a2.15,2.15,0,0,0,3.735,2.131l.088-.154,10.32,5.887Z" transform="translate(-269.845 -141.635)" fill="#2c518d"/>
              </g>
            </g>
          </g>
          <path id="Path_74" data-name="Path 74" d="M344.412,148.061a3.965,3.965,0,0,0-5.762,2.3l-3.665,12.167a2.524,2.524,0,0,0,4.609,1.979l6.3-11.037a3.971,3.971,0,0,0-1.48-5.409m1.307-2.291a6.6,6.6,0,0,1,2.464,9.007l-6.3,11.037a5.162,5.162,0,0,1-9.426-4.046l3.664-12.167a6.6,6.6,0,0,1,9.594-3.831" transform="translate(-211.767 -87.064)" fill="#2c518d"/>
          <path id="Path_75" data-name="Path 75" d="M270.231,143.939,294.2,157.613l-.232.408a.85.85,0,0,1-1.159.317l-22.493-12.831a.85.85,0,0,1-.317-1.159Z" transform="translate(-132.028 -86.486)" fill="#2c518d"/>
          <path id="Path_76" data-name="Path 76" d="M288.46,153.9l-11.611-11.775a4.225,4.225,0,0,0-5.994-.023,10.043,10.043,0,0,0-.692.77Z" transform="translate(-126.397 -84.637)" fill="#2c518d"/>
          <path id="Path_77" data-name="Path 77" d="M291.8,154.088a1.117,1.117,0,0,1-1.524.417l-23.833-13.6a1.117,1.117,0,0,1,1.107-1.941l23.833,13.6a1.117,1.117,0,0,1,.417,1.524" transform="translate(-128.175 -83.41)" fill="#617daa"/>
          <path id="Path_78" data-name="Path 78" d="M284.807,142.941a1.832,1.832,0,0,1-3.182-1.815l7.661-13.428,3.182,1.815Z" transform="translate(-134.883 -76.727)" fill="#2c518d"/>
          <path id="Path_79" data-name="Path 79" d="M303.772,162.333a.953.953,0,1,1-.356-1.3.952.952,0,0,1,.356,1.3" transform="translate(-154.539 -96.681)" fill="#fff"/>
          <path id="Path_80" data-name="Path 80" d="M351.558,158.629s1.254-2.165,5.32-1.957a6.357,6.357,0,0,0,2.988-.536s.689-.268.958.164a.313.313,0,0,1,.032.262,2.266,2.266,0,0,1-1.506,1.365,16.656,16.656,0,0,1-2.045.584s-3,2.68-5.747.119" transform="translate(-231.297 -93.765)" fill="#f69772"/>
          <path id="Path_81" data-name="Path 81" d="M355.44,166.588c.695.049,1.238-.507,1.13-1a.946.946,0,0,0-.311-.513,1.041,1.041,0,0,0,1.316-.451,1.234,1.234,0,0,0-.064-1.177.848.848,0,0,0,.644-.453.953.953,0,0,0-.623-1.369,10.068,10.068,0,0,0-1.108-.226,2.479,2.479,0,0,0-1.453-.07,1,1,0,0,0-.279,1.359.922.922,0,0,0-1.172.978.983.983,0,0,0,.3.528c-.774-.138-1.136.07-1.338.419a1.2,1.2,0,0,0,.032,1.19.847.847,0,0,0-.661.439.943.943,0,0,0,.594,1.4,7.427,7.427,0,0,0,1.442.3l.007-.006a2.2,2.2,0,0,0,1.3.008,1,1,0,0,0,.242-1.355" transform="translate(-228.747 -96.883)" fill="#f69772"/>
        </g>
      </g>
    </g>
  </g>
</svg>
