<svg xmlns="http://www.w3.org/2000/svg" xmlns:xlink="http://www.w3.org/1999/xlink" width="595.216" height="843.338" viewBox="0 0 595.216 843.338">
  <defs>
    <linearGradient id="linear-gradient" x1="0.5" x2="0.5" y2="1" gradientUnits="objectBoundingBox">
      <stop offset="0" stop-color="#d8f4fd"/>
      <stop offset="1" stop-color="#fff"/>
    </linearGradient>
  </defs>
  <g id="Group_1412" data-name="Group 1412" transform="translate(0.216)">
    <g id="Group_1413" data-name="Group 1413">
      <rect id="Rectangle_904" data-name="Rectangle 904" width="595" height="362" fill="url(#linear-gradient)"/>
      <g id="Group_45" data-name="Group 45" transform="translate(-0.216 550)">
        <path id="Path_1" data-name="Path 1" d="M343.239,262.359a42.307,42.307,0,0,0-61.44-34,56.588,56.588,0,0,0-81.213-48.3c.035-.471.071-.931.071-1.4a18.17,18.17,0,0,0-18.17-18.159,17.948,17.948,0,0,0-7.259,1.52,62.145,62.145,0,0,0-72.092-80.364c-1.555.342-3.087.731-4.607,1.179a29.351,29.351,0,0,0-49.267-17.31,30.25,30.25,0,0,0-3.323,3.735,29.7,29.7,0,0,0,.4-3.735c.012-.389.024-.789.024-1.19a27.907,27.907,0,0,0-.224-3.594,29.738,29.738,0,0,0-.625-3.429c-.012-.035-.012-.059-.024-.094a28.212,28.212,0,0,0-.848-2.793A29.409,29.409,0,0,0,24.01,35.844a21.527,21.527,0,0,0,.212-24.51A21.691,21.691,0,0,0,12.933,2.909a19.934,19.934,0,0,0-2.262-.577A21.187,21.187,0,0,0,6.4,1.908a21.882,21.882,0,0,0-5.385.672A14.026,14.026,0,0,0,0,0V293.22H368.032a26.184,26.184,0,0,0-24.793-30.861" transform="translate(0.067 0)" fill="#b9ecfc"/>
        <path id="Path_2" data-name="Path 2" d="M1514.833,383.049a14.894,14.894,0,0,0,.562,4.047,16.1,16.1,0,0,0-13.6,15.622,15.258,15.258,0,0,0,.744,4.716,15.637,15.637,0,0,0-12.66-.656,15.135,15.135,0,0,0-4,2.285,34.148,34.148,0,0,0-25.176-10.883c-18.547,0-33.582,14.394-33.582,32.151a30.8,30.8,0,0,0,2.521,12.232v0c.237.553.492,1.1.76,1.637a31.957,31.957,0,0,0,4.154,6.289,8.6,8.6,0,0,0-4.425,5.215,14.305,14.305,0,0,0-6.108-.154,13.379,13.379,0,0,0-1.431.354,13.615,13.615,0,0,0-7.141,5.105,12.588,12.588,0,0,0,.131,14.843,18.334,18.334,0,0,0-13.054,11.258v0a16.588,16.588,0,0,0-.538,1.695c0,.017-.01.035-.014.054a17.181,17.181,0,0,0-.536,4.255c0,.242.006.484.017.722a17.056,17.056,0,0,0,.249,2.264,18.07,18.07,0,0,0-2.1-2.264,18.587,18.587,0,0,0-4.261-2.9,19.326,19.326,0,0,0-17.042,0,18.558,18.558,0,0,0-4.257,2.9,17.491,17.491,0,0,0-5.617,10.486q-1.434-.409-2.912-.714a40.9,40.9,0,0,0-8.324-.849c-21.711,0-39.313,16.851-39.313,37.636a36.094,36.094,0,0,0,2.021,11.892,11.891,11.891,0,0,0-4.6-.92,11.259,11.259,0,0,0-11.5,11.006c0,.285.023.565.045.844a36.943,36.943,0,0,0-15.6-3.434c-19.229,0-34.918,14.5-35.8,32.7a27.6,27.6,0,0,0-12.213-2.822c-14.006,0-25.491,10.3-26.663,23.417-8.864.3-15.959,7.266-15.959,15.826a15.107,15.107,0,0,0,.273,2.87h332.945V367.543c-8.859.1-16.009,7-16.009,15.506" transform="translate(-935.629 -338.443)" fill="#ecfbff"/>
        <path id="Path_3" data-name="Path 3" d="M592.386,409.433a19.457,19.457,0,0,0-10.751,12.342,4.124,4.124,0,0,0-.209.455,5.013,5.013,0,0,0-8.189,1.136,15.97,15.97,0,0,0-23.8,2.081,25.094,25.094,0,0,0-10.579-2.326c-.227.009-.454.009-.682.018a7.4,7.4,0,0,0-7.152-5.516,6.772,6.772,0,0,0-.873.055,25.28,25.28,0,0,0-7.752-8.243,25.161,25.161,0,0,0-35.144,7.307,6.334,6.334,0,0,0-4.889-2.29,6.242,6.242,0,0,0-3.335.954,30.058,30.058,0,0,0-1.145-5.971c-.045-.127-.081-.254-.118-.373a30.618,30.618,0,0,0-58.5.173,9.777,9.777,0,0,0-4.59-1.136,9.881,9.881,0,0,0-8.27,4.481,25.122,25.122,0,0,0-38.825,4.2,9.885,9.885,0,0,0-16.632-3.317,3.1,3.1,0,0,0-4.517-.972,12.021,12.021,0,0,0-23.311-.2,3.1,3.1,0,0,0-5.1.673,9.855,9.855,0,0,0-14.7,1.281,15.552,15.552,0,0,0-6.535-1.436c-.145.009-.282.009-.427.009a4.573,4.573,0,0,0-4.417-3.408,3.661,3.661,0,0,0-.545.036,15.546,15.546,0,0,0-26.51-.582,3.912,3.912,0,0,0-5.08-.827,18.266,18.266,0,0,0-.709-3.69c-.027-.073-.045-.155-.073-.227a18.923,18.923,0,0,0-36.153.109,5.8,5.8,0,0,0-1.026-.429,19.145,19.145,0,0,0-22.63-3.866,25.627,25.627,0,0,0-36.779-21.875c.016-.209.032-.418.032-.631a8.222,8.222,0,0,0-11.515-7.539A28.139,28.139,0,0,0,118.309,333.5q-1.057.228-2.085.534a13.288,13.288,0,0,0-23.815-6.146,13.353,13.353,0,0,0,.178-1.692c.007-.178.011-.359.011-.539a13.155,13.155,0,0,0-.1-1.63,12.957,12.957,0,0,0-.284-1.55c0-.014-.007-.028-.01-.041a12.758,12.758,0,0,0-.385-1.267v0a13.312,13.312,0,0,0-9.341-8.416,9.755,9.755,0,0,0-5.016-14.91,9.2,9.2,0,0,0-1.024-.265,9.813,9.813,0,0,0-4.371.115,6.363,6.363,0,0,0-3.166-3.9,24.021,24.021,0,0,0,2.973-4.7c.192-.4.375-.81.544-1.224v0a24.03,24.03,0,0,0-40.244-25.04,10.744,10.744,0,0,0-11.92-1.218,11.882,11.882,0,0,0-9.2-15.2,11.587,11.587,0,0,0,.4-3.025A11.591,11.591,0,0,0,0,231.788V429.3H0v30.036H595.149V408.442a19.2,19.2,0,0,0-2.763.991" transform="translate(0.067 -166.074)" fill="#d8f4fd"/>
        <path id="Path_5" data-name="Path 5" d="M1064.081,872.087H815.052a13.326,13.326,0,0,1,7.1-3.769,8.445,8.445,0,0,1,2.711-.449,8.572,8.572,0,0,1,4.876,1.553,13.922,13.922,0,0,1,3.151,2.138,10.6,10.6,0,0,1,8.926-5.329,9.437,9.437,0,0,1,2.68.39c1.247-5.506,5.541-9.566,10.642-9.562a10.349,10.349,0,0,1,8.141,4.225,3.4,3.4,0,0,1,3-2.041,3.115,3.115,0,0,1,2.021.768,15.313,15.313,0,0,1,7.565-10.594,11.659,11.659,0,0,1,10.887,0,15.266,15.266,0,0,1,7.5,10.341,3.255,3.255,0,0,1,2.585-1.364,3.446,3.446,0,0,1,3.089,2.232,10.155,10.155,0,0,1,7.56-3.516,10.56,10.56,0,0,1,8.816,5.188,15.2,15.2,0,0,1,7.278-1.87c.158,0,.313.007.467.013A5.3,5.3,0,0,1,928.975,856a4.219,4.219,0,0,1,.6.046,19.434,19.434,0,0,1,5.33-6.632,15.26,15.26,0,0,1,19.244,0,19.24,19.24,0,0,1,4.94,5.882,4.143,4.143,0,0,1,3.362-1.848,3.891,3.891,0,0,1,2.3.768,28.283,28.283,0,0,1,.79-4.8c.026-.1.05-.2.078-.3,2.676-10.015,10.675-17.281,20.124-17.272a18.3,18.3,0,0,1,7.3,1.527c6.125,2.654,10.9,8.538,12.826,15.881a5.987,5.987,0,0,1,3.16-.911,6.611,6.611,0,0,1,5.689,3.6,16.1,16.1,0,0,1,12.2-5.871c7.686.009,14.194,5.871,16.447,13.977a16.788,16.788,0,0,1,3.412-.358c7.552,0,14.093,5.036,17.307,12.39" transform="translate(-469.014 -578.845)" fill="#ecfbff"/>
        <path id="Path_6" data-name="Path 6" d="M10.784,858.472H365.77a20.184,20.184,0,0,0-10.118-4.6,13.894,13.894,0,0,0-3.864-.548,13.681,13.681,0,0,0-6.951,1.894,20.314,20.314,0,0,0-4.492,2.608,15.675,15.675,0,0,0-16.542-6.023,15.678,15.678,0,0,0-26.774-6.51,4.918,4.918,0,0,0-7.163-1.552,19.131,19.131,0,0,0-10.784-12.922,19.121,19.121,0,0,0-15.519,0,19.133,19.133,0,0,0-10.7,12.612,4.919,4.919,0,0,0-8.089,1.058,15.662,15.662,0,0,0-23.343,2.039,24.59,24.59,0,0,0-10.374-2.28c-.225.005-.447.008-.666.016a7.26,7.26,0,0,0-7.018-5.412,7.011,7.011,0,0,0-.857.056,24.831,24.831,0,0,0-7.6-8.089,24.664,24.664,0,0,0-27.432,0A24.823,24.823,0,0,0,160.448,838a6.21,6.21,0,0,0-8.065-1.317,29.944,29.944,0,0,0-1.127-5.856c-.037-.121-.072-.243-.111-.36a30.03,30.03,0,0,0-57.378.167,9.686,9.686,0,0,0-12.615,3.28A24.662,24.662,0,0,0,40.32,843.8a27.649,27.649,0,0,0-29.536,14.675" transform="translate(-10.784 -565.399)" fill="#ecfbff"/>
      </g>
    </g>
  </g>
</svg>
