<svg xmlns="http://www.w3.org/2000/svg" width="594.827" height="293.146" viewBox="0 0 594.827 293.146">
  <g id="Group_1394" data-name="Group 1394" transform="translate(-175.784 760)">
    <g id="Group_1393" data-name="Group 1393" transform="translate(175.784 -760)">
      <path id="Path_1" data-name="Path 1" d="M343.015,262.188a42.279,42.279,0,0,0-61.4-33.974,56.551,56.551,0,0,0-81.16-48.269c.035-.471.071-.931.071-1.4A18.158,18.158,0,0,0,182.368,160.4a17.936,17.936,0,0,0-7.254,1.519,62.1,62.1,0,0,0-72.045-80.312c-1.554.341-3.085.73-4.6,1.178a29.332,29.332,0,0,0-49.235-17.3,30.231,30.231,0,0,0-3.321,3.733,29.674,29.674,0,0,0,.4-3.733c.012-.388.024-.789.024-1.189a27.889,27.889,0,0,0-.224-3.592,29.718,29.718,0,0,0-.624-3.427c-.012-.035-.012-.059-.024-.094a28.193,28.193,0,0,0-.848-2.791,29.39,29.39,0,0,0-20.62-18.57,21.513,21.513,0,0,0,.212-24.494,21.677,21.677,0,0,0-11.281-8.42,19.921,19.921,0,0,0-2.261-.577A21.173,21.173,0,0,0,6.4,1.906a21.868,21.868,0,0,0-5.382.671A14.017,14.017,0,0,0,0,0V293.029H367.791a26.167,26.167,0,0,0-24.776-30.841" transform="translate(0.067 0)" fill="#b9ecfc"/>
      <path id="Path_2" data-name="Path 2" d="M1450.069,379.883a11.853,11.853,0,0,0,.447,3.22,12.809,12.809,0,0,0-10.823,12.432,12.143,12.143,0,0,0,.592,3.753,12.444,12.444,0,0,0-10.075-.522,12.043,12.043,0,0,0-3.182,1.818,27.176,27.176,0,0,0-20.035-8.661c-14.761,0-26.726,11.455-26.726,25.586a24.513,24.513,0,0,0,2.006,9.735v0c.188.44.391.874.605,1.3a25.419,25.419,0,0,0,3.306,5,6.847,6.847,0,0,0-3.522,4.15,11.382,11.382,0,0,0-4.861-.123,10.639,10.639,0,0,0-1.139.282,10.835,10.835,0,0,0-5.683,4.063,10.018,10.018,0,0,0,.1,11.812,14.591,14.591,0,0,0-10.389,8.96v0a13.251,13.251,0,0,0-.428,1.349c0,.014-.008.028-.011.043a13.655,13.655,0,0,0-.427,3.386c0,.193,0,.385.013.575a13.557,13.557,0,0,0,.2,1.8,14.381,14.381,0,0,0-1.673-1.8,14.8,14.8,0,0,0-3.391-2.31,15.381,15.381,0,0,0-13.562,0,14.765,14.765,0,0,0-3.388,2.31,13.919,13.919,0,0,0-4.47,8.345q-1.141-.326-2.318-.568a32.546,32.546,0,0,0-6.624-.676c-17.279,0-31.286,13.411-31.286,29.952a28.724,28.724,0,0,0,1.608,9.464,9.461,9.461,0,0,0-3.657-.732,8.96,8.96,0,0,0-9.149,8.759c0,.227.018.45.036.672a29.4,29.4,0,0,0-12.413-2.733c-15.3,0-27.788,11.538-28.489,26.023a21.97,21.97,0,0,0-9.72-2.245c-11.146,0-20.286,8.2-21.219,18.636a12.872,12.872,0,0,0-12.7,12.595,12.024,12.024,0,0,0,.217,2.284h264.967V367.543a12.616,12.616,0,0,0-12.74,12.34" transform="translate(-867.985 -284.685)" fill="#ecfbff"/>
      <path id="Path_3" data-name="Path 3" d="M592,409.317a19.444,19.444,0,0,0-10.744,12.334,4.129,4.129,0,0,0-.208.454,5.009,5.009,0,0,0-8.183,1.135,15.96,15.96,0,0,0-23.786,2.08,25.078,25.078,0,0,0-10.572-2.325c-.227.009-.454.009-.681.018a7.4,7.4,0,0,0-7.148-5.513,6.769,6.769,0,0,0-.872.054,25.264,25.264,0,0,0-7.747-8.238,25.145,25.145,0,0,0-35.121,7.3,6.33,6.33,0,0,0-4.886-2.289,6.239,6.239,0,0,0-3.333.954,30.037,30.037,0,0,0-1.145-5.967c-.045-.127-.081-.254-.118-.372a30.6,30.6,0,0,0-58.462.172,9.771,9.771,0,0,0-4.587-1.135,9.874,9.874,0,0,0-8.265,4.478,25.106,25.106,0,0,0-38.8,4.2,9.879,9.879,0,0,0-16.621-3.315,3.1,3.1,0,0,0-4.514-.971,12.013,12.013,0,0,0-23.3-.2,3.1,3.1,0,0,0-5.095.672,9.848,9.848,0,0,0-14.7,1.281,15.542,15.542,0,0,0-6.53-1.435c-.145.009-.282.009-.427.009a4.57,4.57,0,0,0-4.414-3.406,3.657,3.657,0,0,0-.545.036,15.536,15.536,0,0,0-26.493-.581,3.909,3.909,0,0,0-5.077-.826,18.256,18.256,0,0,0-.708-3.687c-.027-.073-.045-.155-.072-.227a18.91,18.91,0,0,0-36.129.109,5.8,5.8,0,0,0-1.025-.429,19.132,19.132,0,0,0-22.615-3.864,25.611,25.611,0,0,0-36.755-21.861c.016-.209.032-.418.032-.631a8.217,8.217,0,0,0-11.508-7.534,28.12,28.12,0,0,0-32.622-36.363q-1.056.228-2.083.534a13.28,13.28,0,0,0-23.8-6.142,13.348,13.348,0,0,0,.178-1.691c.007-.178.011-.358.011-.539a13.145,13.145,0,0,0-.1-1.629,12.948,12.948,0,0,0-.283-1.549c0-.014-.007-.028-.01-.041a12.745,12.745,0,0,0-.384-1.266v0a13.3,13.3,0,0,0-9.335-8.41,9.748,9.748,0,0,0-5.013-14.9,9.187,9.187,0,0,0-1.023-.265,9.8,9.8,0,0,0-4.368.115,6.359,6.359,0,0,0-3.164-3.9,24.005,24.005,0,0,0,2.971-4.7c.192-.4.375-.809.544-1.223v0A24.015,24.015,0,0,0,32.153,262.8a10.737,10.737,0,0,0-11.913-1.217,11.874,11.874,0,0,0-9.194-15.192,11.58,11.58,0,0,0,.4-3.023A11.583,11.583,0,0,0,0,231.788V429.171H0v30.017H594.76v-50.86a19.175,19.175,0,0,0-2.761.99" transform="translate(0.067 -166.117)" fill="#d8f4fd"/>
      <path id="Path_5" data-name="Path 5" d="M1063.919,872.06H815.052a13.316,13.316,0,0,1,7.093-3.767,8.438,8.438,0,0,1,2.709-.449,8.566,8.566,0,0,1,4.873,1.552,13.918,13.918,0,0,1,3.149,2.137,10.593,10.593,0,0,1,8.92-5.325,9.432,9.432,0,0,1,2.678.39c1.246-5.5,5.537-9.56,10.635-9.556a10.343,10.343,0,0,1,8.135,4.222,3.4,3.4,0,0,1,3-2.039,3.113,3.113,0,0,1,2.019.767,15.3,15.3,0,0,1,7.56-10.587,11.651,11.651,0,0,1,10.88,0,15.256,15.256,0,0,1,7.5,10.334,3.253,3.253,0,0,1,2.583-1.363,3.443,3.443,0,0,1,3.087,2.23,10.149,10.149,0,0,1,7.555-3.513,10.553,10.553,0,0,1,8.81,5.185,15.185,15.185,0,0,1,7.273-1.868c.158,0,.313.007.467.013a5.3,5.3,0,0,1,4.92-4.434,4.215,4.215,0,0,1,.6.046,19.42,19.42,0,0,1,5.326-6.628,15.25,15.25,0,0,1,19.232,0A19.228,19.228,0,0,1,959,855.283a4.14,4.14,0,0,1,3.36-1.847,3.888,3.888,0,0,1,2.294.767,28.264,28.264,0,0,1,.79-4.8c.026-.1.05-.2.078-.295,2.674-10.009,10.668-17.269,20.111-17.261a18.288,18.288,0,0,1,7.3,1.526c6.121,2.653,10.9,8.532,12.818,15.871a5.983,5.983,0,0,1,3.158-.91,6.606,6.606,0,0,1,5.685,3.6,16.09,16.09,0,0,1,12.191-5.867c7.681.009,14.184,5.867,16.436,13.968a16.775,16.775,0,0,1,3.41-.358c7.547,0,14.084,5.033,17.3,12.382" transform="translate(-469.24 -579.01)" fill="#ecfbff"/>
      <path id="Path_6" data-name="Path 6" d="M10.784,858.44H365.539a20.171,20.171,0,0,0-10.111-4.594,13.886,13.886,0,0,0-3.862-.547,13.671,13.671,0,0,0-6.947,1.893,20.3,20.3,0,0,0-4.489,2.606,15.665,15.665,0,0,0-16.532-6.019,15.667,15.667,0,0,0-26.757-6.506,4.915,4.915,0,0,0-7.158-1.551,19.119,19.119,0,0,0-10.777-12.913,19.109,19.109,0,0,0-15.509,0,19.121,19.121,0,0,0-10.69,12.6,4.916,4.916,0,0,0-8.083,1.057,15.652,15.652,0,0,0-23.328,2.038,24.575,24.575,0,0,0-10.368-2.279c-.224.005-.447.008-.666.016a7.255,7.255,0,0,0-7.013-5.408,7.014,7.014,0,0,0-.856.056,24.816,24.816,0,0,0-7.592-8.084,24.648,24.648,0,0,0-27.414,0,24.807,24.807,0,0,0-7.037,7.169,6.206,6.206,0,0,0-8.06-1.316,29.924,29.924,0,0,0-1.126-5.853c-.037-.121-.071-.243-.111-.359a30.01,30.01,0,0,0-57.34.167,9.68,9.68,0,0,0-12.606,3.278A24.646,24.646,0,0,0,40.3,843.774,27.631,27.631,0,0,0,10.784,858.44" transform="translate(-10.784 -565.559)" fill="#ecfbff"/>
    </g>
  </g>
</svg>
