<svg xmlns="http://www.w3.org/2000/svg" width="653.587" height="503.732" viewBox="0 0 653.587 503.732">
  <g id="Group_1419" data-name="Group 1419" transform="translate(-179.647 -88.354)">
    <g id="Group_1418" data-name="Group 1418" transform="translate(179.647 79.878)">
      <g id="Group_1417" data-name="Group 1417" transform="translate(0)">
        <g id="Group_1409" data-name="Group 1409" transform="translate(2.447 21.975)" opacity="0.4">
          <path id="Path_3036" data-name="Path 3036" d="M130.528-35.006a49.2,49.2,0,0,1,14.446,6.184,40.71,40.71,0,0,1,10.548,9.659,25.708,25.708,0,0,1,5.145,11.313,3.441,3.441,0,0,1-.716,2.783,3.651,3.651,0,0,1-2.422,1.338L144.166-1.918a4.268,4.268,0,0,1-3.175-.494,9.525,9.525,0,0,1-2.1-2.485Q130.4-18.021,116.374-16.123q-8.744,1.184-13.474,5.941A12.559,12.559,0,0,0,99.023.842a10.482,10.482,0,0,0,3,6.062,38.11,38.11,0,0,0,6.224,5.035q3.7,2.442,8,5.048a58.269,58.269,0,0,1,8.207,6.028,40.467,40.467,0,0,1,6.96,7.958A28.942,28.942,0,0,1,135.659,41.9a3.677,3.677,0,0,1-.81,3.3,4.592,4.592,0,0,1-3.036,1.753l-12.541,1.7a3.807,3.807,0,0,1-3.146-.917,6.462,6.462,0,0,1-1.907-2.932,13.616,13.616,0,0,0-3.969-6.352,47.78,47.78,0,0,0-6.754-5.215q-3.766-2.422-8.005-5.129a57.435,57.435,0,0,1-7.966-6.143,35.263,35.263,0,0,1-6.464-8.029,29.451,29.451,0,0,1-3.619-11.18,28.994,28.994,0,0,1,1.531-14.741,32.841,32.841,0,0,1,7.749-11.632A41.432,41.432,0,0,1,98.89-31.729a54.123,54.123,0,0,1,14.8-4.191A43.393,43.393,0,0,1,130.528-35.006Zm3.449,91.75a4.552,4.552,0,0,1,5.058,3.851L141,75.107a4.548,4.548,0,0,1-3.851,5.061l-14.185,1.923a4.55,4.55,0,0,1-5.056-3.854l-1.967-14.511a4.547,4.547,0,0,1,3.849-5.058Z" transform="translate(-77.12 36.346)" fill="none" stroke="#938ffd" stroke-linecap="round" stroke-linejoin="round" stroke-width="1"/>
        </g>
        <g id="Group_1410" data-name="Group 1410" transform="translate(0.389 214.484)">
          <path id="Path_3037" data-name="Path 3037" d="M71.762,163.892A108.273,108.273,0,0,0,78.5,183.953a4.665,4.665,0,0,0,5.3,2.636l22.789-5.226a81.638,81.638,0,0,0,7.87,11.091l-12.416,19.792a4.655,4.655,0,0,0,.758,5.871,107.753,107.753,0,0,0,35.675,22.37,4.649,4.649,0,0,0,5.615-1.876l12.405-19.794A82.05,82.05,0,0,0,169.9,221.07l5.223,22.791a4.663,4.663,0,0,0,4.677,3.616,107.147,107.147,0,0,0,41.054-9.409,4.663,4.663,0,0,0,2.639-5.3l-5.223-22.789a81.931,81.931,0,0,0,11.091-7.87l19.8,12.413a4.627,4.627,0,0,0,5.873-.755A107.694,107.694,0,0,0,277.4,178.1a4.67,4.67,0,0,0-1.884-5.612l-19.794-12.408a82.258,82.258,0,0,0,2.252-13.409l22.789-5.226a4.666,4.666,0,0,0,3.621-4.677,107.5,107.5,0,0,0-9.411-41.054,4.662,4.662,0,0,0-5.3-2.636L246.891,98.3a81.935,81.935,0,0,0-7.87-11.091l12.413-19.8a4.672,4.672,0,0,0-.747-5.874,107.787,107.787,0,0,0-35.675-22.373,4.66,4.66,0,0,0-5.615,1.886l-12.413,19.8A81.852,81.852,0,0,0,183.57,58.59L178.347,35.8a4.657,4.657,0,0,0-4.679-3.616,107.822,107.822,0,0,0-41.054,9.409,4.657,4.657,0,0,0-2.634,5.293L135.2,69.679a82.126,82.126,0,0,0-11.091,7.87L104.322,65.132a4.65,4.65,0,0,0-5.868.755,107.718,107.718,0,0,0-22.373,35.675,4.663,4.663,0,0,0,1.876,5.617l19.794,12.405A82.052,82.052,0,0,0,95.5,133l-22.789,5.223a4.664,4.664,0,0,0-3.621,4.679A108.477,108.477,0,0,0,71.762,163.892Zm76.962-41.627A32.827,32.827,0,0,1,169.349,107.6a34.332,34.332,0,0,1,5.215-.781A33.454,33.454,0,0,1,207.4,127.4a33.108,33.108,0,0,1-28.487,45.441H178.9a33.464,33.464,0,0,1-32.829-20.583A33.02,33.02,0,0,1,148.724,122.266Z" transform="translate(-69.087 -32.183)" fill="#c2c2ff"/>
        </g>
        <g id="Group_1411" data-name="Group 1411" transform="translate(266.185 214.281)" opacity="0.2">
          <path id="Path_3038" data-name="Path 3038" d="M50.11,208.666a69.607,69.607,0,0,0,10.409,8.766,3,3,0,0,0,3.789-.324L75.08,206.62a52.3,52.3,0,0,0,8.029,3.462l-.2,15.021a2.993,2.993,0,0,0,2.378,2.971,69.282,69.282,0,0,0,27.073.361,2.984,2.984,0,0,0,2.456-2.908l.2-15.018a52.763,52.763,0,0,0,8.118-3.245l10.488,10.772a3,3,0,0,0,3.778.423,68.968,68.968,0,0,0,19.4-18.893,3,3,0,0,0-.319-3.791L145.99,185a52.806,52.806,0,0,0,3.462-8.032l15.021.2a2.974,2.974,0,0,0,2.973-2.378,69.234,69.234,0,0,0,.361-27.073,3,3,0,0,0-2.911-2.453l-15.021-.2a52.785,52.785,0,0,0-3.245-8.12L157.4,126.466a3,3,0,0,0,.423-3.778,69.024,69.024,0,0,0-18.893-19.405,3,3,0,0,0-3.791.324l-10.77,10.485a52.5,52.5,0,0,0-8.029-3.459l.2-15.023a3,3,0,0,0-2.372-2.976A69.282,69.282,0,0,0,87.1,92.27a3,3,0,0,0-2.453,2.913l-.2,15.023a52.737,52.737,0,0,0-8.12,3.245l-10.488-10.77a2.993,2.993,0,0,0-3.778-.423A69.337,69.337,0,0,0,42.65,121.152a3,3,0,0,0,.324,3.788l10.485,10.77A53.089,53.089,0,0,0,50,143.742l-15.018-.206a3,3,0,0,0-2.973,2.38,69.267,69.267,0,0,0-.361,27.071,3,3,0,0,0,2.908,2.459l15.018.2a53.051,53.051,0,0,0,3.245,8.12l-10.77,10.485a3,3,0,0,0-.423,3.783A69.668,69.668,0,0,0,50.11,208.666Zm28.356-48.592a21.112,21.112,0,0,1,6.427-14.948,22.059,22.059,0,0,1,2.6-2.174,21.515,21.515,0,0,1,24.915.329,21.288,21.288,0,0,1-.457,34.481l0,0a21.519,21.519,0,0,1-24.913-.329A21.239,21.239,0,0,1,78.466,160.074Z" transform="translate(-30.487 -91.11)" fill="#938ffd"/>
        </g>
        <circle id="Ellipse_112" data-name="Ellipse 112" cx="42.599" cy="42.599" r="42.599" transform="translate(112.465 111.986) rotate(-45)" fill="#2e317b"/>
        <path id="Path_3039" data-name="Path 3039" d="M560.084,265.043,446.687,80.9a33.4,33.4,0,0,0-40.456-13.639,194.463,194.463,0,0,0-163.8,0A33.4,33.4,0,0,0,201.968,80.9L88.574,265.043a33.411,33.411,0,0,0,28.45,50.931H531.633a33.412,33.412,0,0,0,28.45-50.931ZM218.423,181.617v67.532H176.836Zm211.812,67.532V181.617l41.585,67.532Z" transform="translate(-83.612 196.234)" fill="#ffb900"/>
        <g id="Group_1412" data-name="Group 1412" transform="translate(211.028 154.748)">
          <path id="Path_3040" data-name="Path 3040" d="M194.069,149.142h0a29.687,29.687,0,0,1-29.689-29.689V19.264h59.375V119.453A29.687,29.687,0,0,1,194.069,149.142Z" transform="translate(-164.38 -6.741)" fill="#e19b00"/>
          <path id="Path_3041" data-name="Path 3041" d="M194.069,144.349h0A29.688,29.688,0,0,1,164.38,114.66V14.471h59.375V114.66A29.687,29.687,0,0,1,194.069,144.349Z" transform="translate(-164.38 -14.471)" fill="#ff9e9b"/>
          <path id="Path_3042" data-name="Path 3042" d="M164.38,82.46a29.688,29.688,0,0,0,59.375,0V17.4H164.38Z" transform="translate(-164.38 -9.747)" fill="#ff9e9b" opacity="0.5" style="mix-blend-mode: multiply;isolation: isolate"/>
        </g>
        <path id="Path_3043" data-name="Path 3043" d="M231.415,184.238H125.708V183.7a52.852,52.852,0,0,1,52.854-52.851h0A52.854,52.854,0,0,1,231.415,183.7Z" transform="translate(-15.721 327.97)" fill="#e19b00"/>
        <path id="Path_3044" data-name="Path 3044" d="M209.821,146.828h0a63.066,63.066,0,0,1-57.776-67.948l8-98.9L285.771-9.844l-8,98.9A63.066,63.066,0,0,1,209.821,146.828Z" transform="translate(26.418 84.659)" fill="#ff9e9b"/>
        <ellipse id="Ellipse_113" data-name="Ellipse 113" cx="4.122" cy="4.666" rx="4.122" ry="4.666" transform="translate(228.631 138.914)" fill="#2e317b"/>
        <ellipse id="Ellipse_114" data-name="Ellipse 114" cx="4.122" cy="4.666" rx="4.122" ry="4.666" transform="translate(279.274 138.914)" fill="#2e317b"/>
        <path id="Path_3045" data-name="Path 3045" d="M168.745,23.746c-.557,7.608,2.918,14.867,9.526,18.295s14.543,2.09,20.442-2.743Z" transform="translate(53.594 155.235)" fill="#fff"/>
        <path id="Path_3046" data-name="Path 3046" d="M230.3,181.367H133.81v-.489a48.247,48.247,0,0,1,48.247-48.247h0A48.247,48.247,0,0,1,230.3,180.878Z" transform="translate(-2.654 330.841)" fill="#ff9e9b"/>
        <path id="Path_3047" data-name="Path 3047" d="M215.428,171.281H151.285v-.324a32.071,32.071,0,0,1,32.072-32.072h0a32.073,32.073,0,0,1,32.072,32.072Z" transform="translate(25.529 340.927)" fill="#5142b2"/>
        <g id="Group_1413" data-name="Group 1413" transform="translate(253.36 315.378)">
          <path id="Path_3048" data-name="Path 3048" d="M496.936,165.563H203.718a23.134,23.134,0,0,1-23.136-23.133h339.49A23.134,23.134,0,0,1,496.936,165.563Z" transform="translate(-180.582 31.267)" fill="#7c7efd"/>
          <path id="Path_3049" data-name="Path 3049" d="M464.2,249.647H229.672a10.287,10.287,0,0,1-10.017-12.622L255.305,83.906a10.292,10.292,0,0,1,10.02-7.956H499.852a10.288,10.288,0,0,1,10.02,12.62L474.219,241.691A10.292,10.292,0,0,1,464.2,249.647Z" transform="translate(-118.007 -75.95)" fill="#5142b2"/>
          <path id="Path_3050" data-name="Path 3050" d="M467.3,249.647H232.769a10.289,10.289,0,0,1-10.02-12.622L258.4,83.906a10.292,10.292,0,0,1,10.02-7.956H502.95a10.288,10.288,0,0,1,10.02,12.62L477.316,241.691A10.292,10.292,0,0,1,467.3,249.647Z" transform="translate(-113.016 -75.95)" fill="#938ffd"/>
          <circle id="Ellipse_115" data-name="Ellipse 115" cx="27.213" cy="27.213" r="27.213" transform="translate(230.182 59.635)" fill="#a6a5fb"/>
        </g>
        <path id="Path_3051" data-name="Path 3051" d="M215.883-40.923c41.355-5.578,80.17,29.1,86.694,77.45l-149.764,20.2C146.289,8.379,174.528-35.343,215.883-40.923Z" transform="translate(26.483 49.989)" fill="#2e317b"/>
        <path id="Path_3052" data-name="Path 3052" d="M220.028,20.535A28.611,28.611,0,0,1,187.852-3.994l56.7-7.65A28.612,28.612,0,0,1,220.028,20.535Z" transform="translate(84.503 98.159)" fill="#2e317b"/>
        <path id="Path_3053" data-name="Path 3053" d="M217.394,29.682c-27.761,11.964-56.193,7.906-63.506-9.064L254.417-22.7C261.727-5.734,245.152,17.721,217.394,29.682Z" transform="translate(29.727 80.322)" fill="#2e317b"/>
        <path id="Path_3054" data-name="Path 3054" d="M143.334,21.879A22.891,22.891,0,1,0,170.687,4.564,22.891,22.891,0,0,0,143.334,21.879Z" transform="translate(11.799 123.392)" fill="#ff9e9b"/>
        <path id="Path_3055" data-name="Path 3055" d="M180.213,8.958s3.9,25.093,13.341,33.8c-9.051,4.092-10.961,0-10.961,0" transform="translate(72.183 131.385)" fill="none" stroke="#ff9e9b" stroke-miterlimit="10" stroke-width="0.911" opacity="0.5" style="mix-blend-mode: multiply;isolation: isolate"/>
        <path id="Path_3056" data-name="Path 3056" d="M194.044,7.577a18.293,18.293,0,0,1,8.272,1.1,3.429,3.429,0,0,0,4.113-1.212h0c.836-1.343-.026-3.381-2.075-4.157a24.009,24.009,0,0,0-10.872-1.447c-2.179.214-3.548,1.954-3.091,3.467h0A3.427,3.427,0,0,0,194.044,7.577Z" transform="translate(88.456 119.757)" fill="#2e317b"/>
        <path id="Path_3057" data-name="Path 3057" d="M179.968,7.577a18.3,18.3,0,0,0-8.275,1.1,3.43,3.43,0,0,1-4.113-1.212h0c-.836-1.343.029-3.381,2.075-4.157A24.026,24.026,0,0,1,180.53,1.863c2.179.214,3.546,1.954,3.088,3.467h0A3.424,3.424,0,0,1,179.968,7.577Z" transform="translate(51.301 119.757)" fill="#2e317b"/>
        <circle id="Ellipse_116" data-name="Ellipse 116" cx="22.848" cy="22.848" r="22.848" transform="translate(151.291 68.774) rotate(-65.195)" fill="#2e317b"/>
        <path id="Path_3058" data-name="Path 3058" d="M186.237,4.677a37.289,37.289,0,0,0,41.94,31.97,37.289,37.289,0,0,0,31.97-41.94,37.293,37.293,0,0,0-41.94-31.97A37.293,37.293,0,0,0,186.237,4.677Z" transform="translate(81.352 56.296)" fill="#2e317b"/>
        <path id="Path_3059" data-name="Path 3059" d="M147.6,17.136A10.982,10.982,0,1,0,160.724,8.83,10.982,10.982,0,0,0,147.6,17.136Z" transform="translate(19.152 130.745)" fill="#2e317b"/>
        <path id="Path_3060" data-name="Path 3060" d="M178.564,57.589A30.75,30.75,0,0,1,154.189,39.9c-3.95-8.685-2.79-18.052-2.132-27.246" transform="translate(25.674 137.348)" fill="none" stroke="#fff" stroke-linecap="round" stroke-linejoin="round" stroke-width="1.713"/>
        <path id="Path_3061" data-name="Path 3061" d="M160.826,37.589l16.9,1.317a4.726,4.726,0,0,0,5.079-4.342h0a4.727,4.727,0,0,0-4.345-5.079l-16.9-1.319Z" transform="translate(40.916 162.362)" fill="#2e317b"/>
        <path id="Path_3062" data-name="Path 3062" d="M149.16,15.523a6.819,6.819,0,1,0,8.149-5.16A6.817,6.817,0,0,0,149.16,15.523Z" transform="translate(21.83 133.38)" fill="none" stroke="#fff" stroke-linecap="round" stroke-linejoin="round" stroke-width="0.244"/>
        <g id="Group_1414" data-name="Group 1414" transform="translate(405.668 180.786)" opacity="0.4">
          <path id="Path_3063" data-name="Path 3063" d="M346.375,68.525,249.1,24.437l28.754,65.908Z" transform="translate(-222.381 -24.437)" fill="none" stroke="#938ffd" stroke-linecap="round" stroke-linejoin="round" stroke-width="1"/>
          <path id="Path_3064" data-name="Path 3064" d="M265.6,24.437,238.876,83.393l97.271,44.089,26.722-58.956" transform="translate(-238.876 -24.437)" fill="none" stroke="#938ffd" stroke-linecap="round" stroke-linejoin="round" stroke-width="1"/>
          <path id="Path_3065" data-name="Path 3065" d="M288.584,77.123l-49.708,6.27L265.6,24.437" transform="translate(-238.876 -24.437)" fill="none" stroke="#938ffd" stroke-linecap="round" stroke-linejoin="round" stroke-width="1"/>
          <path id="Path_3066" data-name="Path 3066" d="M265.369,58.753l28.05,41.514,26.722-58.956" transform="translate(-196.148 2.777)" fill="none" stroke="#938ffd" stroke-linecap="round" stroke-linejoin="round" stroke-width="1"/>
        </g>
        <path id="Path_3069" data-name="Path 3069" d="M130.347-47.4h.219a11.121,11.121,0,0,0,11.12,11.123v.219a11.118,11.118,0,0,0-11.12,11.12h-.219a11.121,11.121,0,0,0-11.123-11.12v-.219A11.123,11.123,0,0,0,130.347-47.4Z" transform="translate(-35.8 221.568)" fill="#938ffd"/>
        <path id="Path_3077" data-name="Path 3077" d="M130.347-47.4h.219a11.121,11.121,0,0,0,11.12,11.123v.219a11.118,11.118,0,0,0-11.12,11.12h-.219a11.121,11.121,0,0,0-11.123-11.12v-.219A11.123,11.123,0,0,0,130.347-47.4Z" transform="translate(453.613 242.368)" fill="#938ffd"/>
        <path id="Path_3071" data-name="Path 3071" d="M318.121,6.4a3.445,3.445,0,1,0,3.446-3.444A3.444,3.444,0,0,0,318.121,6.4Z" transform="translate(294.596 121.704)" fill="#938ffd"/>
        <circle id="Ellipse_118" data-name="Ellipse 118" cx="3.445" cy="3.445" r="3.445" transform="translate(115.852 160.597)" fill="#938ffd"/>
        <circle id="Ellipse_119" data-name="Ellipse 119" cx="3.445" cy="3.445" r="3.445" transform="translate(599.148 262.15)" fill="#938ffd"/>
        <path id="Path_3072" data-name="Path 3072" d="M98.7-57.048a3.446,3.446,0,0,0,3.446,3.444,3.443,3.443,0,0,0,3.444-3.444,3.446,3.446,0,0,0-3.444-3.446A3.448,3.448,0,0,0,98.7-57.048Z" transform="translate(-68.899 200.459)" fill="#938ffd"/>
        <path id="Path_3076" data-name="Path 3076" d="M98.7-57.048a3.446,3.446,0,0,0,3.446,3.444,3.443,3.443,0,0,0,3.444-3.444,3.446,3.446,0,0,0-3.444-3.446A3.448,3.448,0,0,0,98.7-57.048Z" transform="translate(420.514 221.259)" fill="#938ffd"/>
        <path id="Path_3075" data-name="Path 3075" d="M267,6.417V17.074c.3,1.947.614,3.888.917,5.847,4.507,27.967,27.337,50.458,55.472,54.664,2.328.34,4.643.614,6.974.93h6.477a11.827,11.827,0,0,1,1.356-.287c2.89-.4,5.805-.562,8.64-1.165A66.546,66.546,0,0,0,399.6,2.349a66.536,66.536,0,0,0-55.785-56.441c-2.315-.358-4.669-.619-6.971-.933h-6.477c-2.331.314-4.646.588-6.974.933a66.487,66.487,0,0,0-54.8,51.346C267.918.279,267.508,3.349,267,6.417ZM292.115,31.6c.854-.784,17.456-13.484,19.376-14.182,1.152-.41,2.979-.5,5.095,1.406.925.847,7.347,9.3,7.587,9.628.081.107.329.442.361.481a1.22,1.22,0,0,0,.486-.128,57.392,57.392,0,0,0,12.727-9.774,57.955,57.955,0,0,0,8.565-13.579c.076-.285.084-.428.1-.442a2.956,2.956,0,0,0-.525-.361c-.392-.235-9.382-5.847-10.3-6.676-2.1-1.928-2.169-3.749-1.863-4.943.536-2.038,11.65-19.7,12.34-20.6,1.787-2.357,4.026-1.453,5.1-1.029,1.131.449,10.754,5.037,13.2,7.162a11.4,11.4,0,0,1,3.661,8.149c.07,3.282-5.145,25.427-19.983,41.7s-36.4,23.512-39.677,23.745c-.233.021-.481.026-.732.026a11.374,11.374,0,0,1-7.734-2.921c-2.317-2.231-7.749-11.334-8.337-12.473C291.033,35.766,289.933,33.629,292.115,31.6Z" transform="translate(117.697 83.255)" fill="#d8d8ff"/>
      </g>
    </g>
  </g>
</svg>
