<svg id="Group_1492" data-name="Group 1492" xmlns="http://www.w3.org/2000/svg" width="570" height="427.647" viewBox="0 0 570 427.647">
  <g id="Group_1469" data-name="Group 1469" transform="translate(27.364)">
    <path id="Path_3201" data-name="Path 3201" d="M479.415,487.364a83.066,83.066,0,0,0,82.824-82.822h0a83.069,83.069,0,0,0-82.824-82.825h0A35.121,35.121,0,0,1,444.4,286.7h0a35.122,35.122,0,0,1,35.018-35.02h4.169a36.515,36.515,0,0,0,36.408-36.409h0a36.515,36.515,0,0,0-36.408-36.409H470.8a14.218,14.218,0,0,1-14.175-14.174h0A14.218,14.218,0,0,1,470.8,150.51h9.395a9.811,9.811,0,0,0,9.782-9.781h0a9.811,9.811,0,0,0-9.782-9.782H417.038a15.416,15.416,0,0,1-15.371-15.371h0A15.416,15.416,0,0,1,417.038,100.2h18.884a9.811,9.811,0,0,0,9.782-9.782h0a9.811,9.811,0,0,0-9.782-9.782H159.354A12.8,12.8,0,0,0,146.588,93.4h0a12.8,12.8,0,0,0,12.765,12.764H178.72a20.117,20.117,0,0,1,20.058,20.058h0a20.117,20.117,0,0,1-20.058,20.059H103.8a12.8,12.8,0,0,0-12.765,12.765h0A12.8,12.8,0,0,0,103.8,171.814H116.06a18.55,18.55,0,0,1,18.5,18.495h0a18.55,18.55,0,0,1-18.5,18.5H99.377a47.648,47.648,0,0,0-47.509,47.509h0a47.648,47.648,0,0,0,47.509,47.509h5.439a45.83,45.83,0,0,1,45.7,45.7h0a45.83,45.83,0,0,1-45.7,45.7H93.039A46.209,46.209,0,0,0,46.965,441.29h0a46.209,46.209,0,0,0,46.074,46.074Zm-352.726-381.2A12.765,12.765,0,1,1,139.455,93.4a12.765,12.765,0,0,1-12.765,12.765Zm380.957,44.343a9.783,9.783,0,1,1,9.784-9.782A9.783,9.783,0,0,1,507.646,150.511Z" transform="translate(-46.965 -80.637)" fill="#b7cdcf" fill-rule="evenodd"/>
    <path id="Path_3202" data-name="Path 3202" d="M65.9,478.46V467.933H55.5c-.1-.137-.193-.276-.29-.417H89.744V453.8H48.7c-.039-.138-.076-.277-.113-.417H65.9V439.669H46.99c.005-.139.01-.279.016-.417H89.744V425.537H49.75c.051-.141.105-.279.157-.417H65.9V411.4H58.04q.18-.211.362-.418H89.744V397.27H79.458c.474-.147.953-.284,1.433-.417h32.7V394.36c.139-.028.28-.052.418-.081v2.574h47.281V383.137H135.676c.149-.137.3-.277.448-.417h1.319v-1.3c.139-.143.28-.284.417-.428v1.724H185.14V369.005H146.113c.066-.139.13-.277.2-.417h14.983V354.873h-11.1c.018-.141.034-.279.048-.417H185.14V340.74H149.65c-.028-.139-.052-.279-.081-.418h11.723V326.607H144.3c-.081-.139-.163-.28-.246-.418H185.14V312.474H137.859v5.571c-.137-.146-.277-.286-.417-.428v-5.143h-5.966c-.194-.139-.39-.28-.586-.417h30.4V298.342H114.011v6.419c-.138-.028-.279-.053-.418-.08v-6.34H77.29c-.258-.138-.517-.276-.774-.417H89.744V284.209H60.978c-.1-.139-.205-.277-.305-.418H65.9V270.076H53.91c-.043-.138-.085-.277-.125-.417H89.744V255.944H51.867c0-.139,0-.279.005-.418H65.9V241.81H54.143c.044-.139.09-.277.137-.417H89.744V227.678H61.53c.105-.139.213-.279.32-.417H65.9v-4.575c.137-.138.277-.272.418-.408v4.983h47.28V213.546H78.747c.294-.143.59-.281.887-.418H89.744v-3.335l.418-.082v3.417h47.281V199.412h-5.306c.079-.138.156-.276.232-.417h28.923V185.279H133.849c-.039-.138-.081-.277-.124-.417h3.718V171.147H99.735c-.365-.122-.721-.262-1.069-.417h14.926V157.015h-22.4c.023-.139.047-.279.075-.418h46.174V146.283h.417V156.6H185.14V145.221q.209-.072.418-.148V156.6h47.281V142.882H189.852q.3-.2.6-.417H208.99V128.75H198.613c.018-.139.033-.279.047-.418h34.18V114.617H195.046c-.1-.141-.2-.28-.307-.418H208.99V100.484H161.71v5.682h-.418v-5.682h-12.55c-.091-.138-.181-.277-.269-.418H185.14V86.351H148.721c.094-.141.191-.28.29-.417h12.28v-5.3h.418v5.3H208.99v-5.3h.417v5.3h47.281v-5.3h.418v5.3h47.28v-5.3h.418v5.3h47.281v-5.3h.418v5.3h47.281v-5.3h.417v5.3h44.4c.071.137.141.276.205.417H424.049v13.715h13.482a9.709,9.709,0,0,1-1.616.136H417.032a15.218,15.218,0,0,0-2.921.282H400.2V114.2h1.523q-.019.209-.03.418H376.351v13.715h32.133q.323.217.656.418H400.2v13.715h47.282v-11.52h.417v11.52h41.914c-.025.139-.053.279-.086.417H471.748v7.628h-.417v-7.628H424.049V156.6h35.12q-.144.207-.281.418H447.9V170.73H457.98c.067.139.134.28.205.417H424.049v13.715h47.282v-6h.417v6h31.79c.209.138.414.276.619.417H495.6V199h20.523c.07.139.141.277.208.417H471.748v13.715h47.28V206.99q.239,1.011.418,2.046v4.093h.474c.009.139.018.279.024.418H495.6v13.715h22.345c-.049.138-.1.279-.147.417H471.748v13.715H508.87c-.144.141-.291.279-.44.417H495.6v7.814c-.139.048-.276.1-.417.146v-7.96H447.9v13.715h15.6c-.263.137-.524.275-.784.418H424.049v13.715h24.8c-.077.139-.157.276-.234.417H447.9v1.39c-.143.294-.284.588-.417.887v-2.276H400.2v13.715h44.312c-.013.139-.023.279-.033.418h-20.43v13.715h22.2c.048.139.1.277.148.417H400.2v13.715h47.282V301.043c.133.3.274.593.417.887v10.127h7.42c.149.141.3.28.45.417h-31.72v13.715h47.282v-5.42l.417.1v5.324H506.19q.589.205,1.177.418H495.6v13.714h35.959c.171.141.344.277.516.418H519.445v13.717h25.806c.106.138.215.276.32.417H543.3v13.715h10.673c.067.138.133.277.2.417H519.445v13.715H559.29c.039.138.076.279.114.417H543.3v13.715H561.87l.037.417H519.445v13.717H561.98c-.01.139-.025.277-.037.418H543.3V425.12h16.331c-.036.138-.075.276-.112.417h-40.07v13.715h35.108c-.065.138-.128.277-.2.417H543.3v13.715h2.887c-.1.139-.2.279-.3.417H519.445v13.715h13.6c-.162.141-.327.279-.493.417H495.6V481.65h13.961c-.362.142-.727.279-1.093.417H471.748v5.3h-.417v-5.3H424.049v5.3h-.417v-5.3H376.351v5.3h-.418v-5.3H328.652v5.3h-.417v-5.3H280.955v5.3h-.418v-5.3H233.256v5.3h-.417v-5.3H185.558v5.3h-.418v-5.3H137.859v5.3h-.417v-5.3H90.162v5.2c-.139-.009-.28-.016-.418-.027v-5.178H71.655c-.258-.137-.517-.275-.774-.417h42.712V467.933H66.313v10.833c-.141-.1-.28-.2-.418-.305ZM137.3,100.484c.2-.3.383-.6.555-.912V87.233q-.2-.359-.417-.7v13.536h-21.65c.086.141.176.28.267.418Zm.02-14.133c-.094-.141-.19-.28-.29-.417H116.329c-.1.137-.2.276-.289.417Zm360.77,56.531h19.089c.032-.138.06-.277.085-.417H498.01c.024.139.054.279.085.417ZM495.18,467.933H447.9V481.65H495.18V467.933Zm-47.7,0H400.2V481.65h47.282V467.933Zm-47.7,0H352.5V481.65h47.281V467.933Zm-47.7,0H304.8V481.65h47.281V467.933Zm-47.7,0h-47.28V481.65h47.28V467.933Zm-47.7,0H209.407V481.65h47.281V467.933Zm-47.7,0H161.71V481.65H208.99V467.933Zm-47.7,0H114.011V481.65h47.281V467.933ZM519.028,453.8h-47.28v13.715h47.28V453.8Zm-47.7,0H424.049v13.715h47.282V453.8Zm-47.7,0H376.351v13.715h47.281V453.8Zm-47.7,0H328.652v13.715h47.281V453.8Zm-47.7,0H280.955v13.715h47.281V453.8Zm-47.7,0H233.256v13.715h47.281V453.8Zm-47.7,0H185.558v13.715h47.281V453.8Zm-47.7,0H137.859v13.715H185.14V453.8Zm-47.7,0H90.162v13.715h47.281V453.8Zm405.435-14.132H495.6v13.715h47.281V439.669Zm-47.7,0H447.9v13.715H495.18V439.669Zm-47.7,0H400.2v13.715h47.282V439.669Zm-47.7,0H352.5v13.715h47.281V439.669Zm-47.7,0H304.8v13.715h47.281V439.669Zm-47.7,0h-47.28v13.715h47.28V439.669Zm-47.7,0H209.407v13.715h47.281V439.669Zm-47.7,0H161.71v13.715H208.99V439.669Zm-47.7,0H114.011v13.715h47.281V439.669Zm-47.7,0H66.313v13.715h47.28V439.669Zm405.435-14.132h-47.28v13.715h47.28V425.537Zm-47.7,0H424.049v13.715h47.282V425.537Zm-47.7,0H376.351v13.715h47.281V425.537Zm-47.7,0H328.652v13.715h47.281V425.537Zm-47.7,0H280.955v13.715h47.281V425.537Zm-47.7,0H233.256v13.715h47.281V425.537Zm-47.7,0H185.558v13.715h47.281V425.537Zm-47.7,0H137.859v13.715H185.14V425.537Zm-47.7,0H90.162v13.715h47.281V425.537ZM542.878,411.4H495.6V425.12h47.281V411.4Zm-47.7,0H447.9V425.12H495.18V411.4Zm-47.7,0H400.2V425.12h47.282V411.4Zm-47.7,0H352.5V425.12h47.281V411.4Zm-47.7,0H304.8V425.12h47.281V411.4Zm-47.7,0h-47.28V425.12h47.28V411.4Zm-47.7,0H209.407V425.12h47.281V411.4Zm-47.7,0H161.71V425.12H208.99V411.4Zm-47.7,0H114.011V425.12h47.281V411.4Zm-47.7,0H66.313V425.12h47.28V411.4ZM519.028,397.27h-47.28v13.717h47.28V397.27Zm-47.7,0H424.049v13.717h47.282V397.27Zm-47.7,0H376.351v13.717h47.281V397.27Zm-47.7,0H328.652v13.717h47.281V397.27Zm-47.7,0H280.955v13.717h47.281V397.27Zm-47.7,0H233.256v13.717h47.281V397.27Zm-47.7,0H185.558v13.717h47.281V397.27Zm-47.7,0H137.859v13.717H185.14V397.27Zm-47.7,0H90.162v13.717h47.281V397.27Zm405.435-14.132H495.6v13.715h47.281V383.137Zm-47.7,0H447.9v13.715H495.18V383.137Zm-47.7,0H400.2v13.715h47.282V383.137Zm-47.7,0H352.5v13.715h47.281V383.137Zm-47.7,0H304.8v13.715h47.281V383.137Zm-47.7,0h-47.28v13.715h47.28V383.137Zm-47.7,0H209.407v13.715h47.281V383.137Zm-47.7,0H161.71v13.715H208.99V383.137Zm310.037-14.132h-47.28v13.715h47.28V369.005Zm-47.7,0H424.049v13.715h47.282V369.005Zm-47.7,0H376.351v13.715h47.281V369.005Zm-47.7,0H328.652v13.715h47.281V369.005Zm-47.7,0H280.955v13.715h47.281V369.005Zm-47.7,0H233.256v13.715h47.281V369.005Zm-47.7,0H185.558v13.715h47.281V369.005Zm310.038-14.132H495.6v13.715h47.281V354.873Zm-47.7,0H447.9v13.715H495.18V354.873Zm-47.7,0H400.2v13.715h47.282V354.873Zm-47.7,0H352.5v13.715h47.281V354.873Zm-47.7,0H304.8v13.715h47.281V354.873Zm-47.7,0h-47.28v13.715h47.28V354.873Zm-47.7,0H209.407v13.715h47.281V354.873Zm-47.7,0H161.71v13.715H208.99V354.873ZM519.028,340.74h-47.28v13.717h47.28V340.74Zm-47.7,0H424.049v13.717h47.282V340.74Zm-47.7,0H376.351v13.717h47.281V340.74Zm-47.7,0H328.652v13.717h47.281V340.74Zm-47.7,0H280.955v13.717h47.281V340.74Zm-47.7,0H233.256v13.717h47.281V340.74Zm-47.7,0H185.558v13.717h47.281V340.74ZM495.18,326.607H447.9v13.714H495.18V326.607Zm-47.7,0H400.2v13.714h47.282V326.607Zm-47.7,0H352.5v13.714h47.281V326.607Zm-47.7,0H304.8v13.714h47.281V326.607Zm-47.7,0h-47.28v13.714h47.28V326.607Zm-47.7,0H209.407v13.714h47.281V326.607Zm-47.7,0H161.71v13.714H208.99V326.607Zm214.642-14.133H376.351v13.715h47.281V312.474Zm-47.7,0H328.652v13.715h47.281V312.474Zm-47.7,0H280.955v13.715h47.281V312.474Zm-47.7,0H233.256v13.715h47.281V312.474Zm-47.7,0H185.558v13.715h47.281V312.474Zm166.944-14.132H352.5v13.715h47.281V298.342Zm-47.7,0H304.8v13.715h47.281V298.342Zm-47.7,0h-47.28v13.715h47.28V298.342Zm-47.7,0H209.407v13.715h47.281V298.342Zm-47.7,0H161.71v13.715H208.99V298.342Zm214.642-14.132H376.351v13.715h47.281V284.209Zm-47.7,0H328.652v13.715h47.281V284.209Zm-47.7,0H280.955v13.715h47.281V284.209Zm-47.7,0H233.256v13.715h47.281V284.209Zm-47.7,0H185.558v13.715h47.281V284.209Zm-47.7,0H137.859v13.715H185.14V284.209Zm-47.7,0H90.162v13.715h47.281V284.209Zm262.341-14.133H352.5v13.715h47.281V270.076Zm-47.7,0H304.8v13.715h47.281V270.076Zm-47.7,0h-47.28v13.715h47.28V270.076Zm-47.7,0H209.407v13.715h47.281V270.076Zm-47.7,0H161.71v13.715H208.99V270.076Zm-47.7,0H114.011v13.715h47.281V270.076Zm-47.7,0H66.313v13.715h47.28V270.076Zm310.04-14.132H376.351v13.715h47.281V255.944Zm-47.7,0H328.652v13.715h47.281V255.944Zm-47.7,0H280.955v13.715h47.281V255.944Zm-47.7,0H233.256v13.715h47.281V255.944Zm-47.7,0H185.558v13.715h47.281V255.944Zm-47.7,0H137.859v13.715H185.14V255.944Zm-47.7,0H90.162v13.715h47.281V255.944Zm310.04-14.133H400.2v13.715h47.282V241.81Zm-47.7,0H352.5v13.715h47.281V241.81Zm-47.7,0H304.8v13.715h47.281V241.81Zm-47.7,0h-47.28v13.715h47.28V241.81Zm-47.7,0H209.407v13.715h47.281V241.81Zm-47.7,0H161.71v13.715H208.99V241.81Zm-47.7,0H114.011v13.715h47.281V241.81Zm-47.7,0H66.313v13.715h47.28V241.81Zm357.739-14.132H424.049v13.715h47.282V227.678Zm-47.7,0H376.351v13.715h47.281V227.678Zm-47.7,0H328.652v13.715h47.281V227.678Zm-47.7,0H280.955v13.715h47.281V227.678Zm-47.7,0H233.256v13.715h47.281V227.678Zm-47.7,0H185.558v13.715h47.281V227.678Zm-47.7,0H137.859v13.715H185.14V227.678Zm-47.7,0H90.162v13.715h47.281V227.678ZM495.18,213.546H447.9v13.715H495.18V213.546Zm-47.7,0H400.2v13.715h47.282V213.546Zm-47.7,0H352.5v13.715h47.281V213.546Zm-47.7,0H304.8v13.715h47.281V213.546Zm-47.7,0h-47.28v13.715h47.28V213.546Zm-47.7,0H209.407v13.715h47.281V213.546Zm-47.7,0H161.71v13.715H208.99V213.546Zm-47.7,0H114.011v13.715h47.281V213.546Zm310.04-14.133H424.049v13.715h47.282V199.412Zm-47.7,0H376.351v13.715h47.281V199.412Zm-47.7,0H328.652v13.715h47.281V199.412Zm-47.7,0H280.955v13.715h47.281V199.412Zm-47.7,0H233.256v13.715h47.281V199.412Zm-47.7,0H185.558v13.715h47.281V199.412Zm-47.7,0H137.859v13.715H185.14V199.412Zm310.04-14.133H447.9V199H495.18V185.279Zm-47.7,0H400.2V199h47.282V185.279Zm-47.7,0H352.5V199h47.281V185.279Zm-47.7,0H304.8V199h47.281V185.279Zm-47.7,0h-47.28V199h47.28V185.279Zm-47.7,0H209.407V199h47.281V185.279Zm-47.7,0H161.71V199H208.99V185.279Zm214.642-14.132H376.351v13.715h47.281V171.147Zm-47.7,0H328.652v13.715h47.281V171.147Zm-47.7,0H280.955v13.715h47.281V171.147Zm-47.7,0H233.256v13.715h47.281V171.147Zm-47.7,0H185.558v13.715h47.281V171.147Zm-47.7,0H137.859v13.715H185.14V171.147Zm262.342-14.132H400.2V170.73h47.282V157.015Zm-47.7,0H352.5V170.73h47.281V157.015Zm-47.7,0H304.8V170.73h47.281V157.015Zm-47.7,0h-47.28V170.73h47.28V157.015Zm-47.7,0H209.407V170.73h47.281V157.015Zm-47.7,0H161.71V170.73H208.99V157.015Zm-47.7,0H114.011V170.73h47.281V157.015Zm262.341-14.132H376.351V156.6h47.281V142.882Zm-47.7,0H328.652V156.6h47.281V142.882Zm-47.7,0H280.955V156.6h47.281V142.882Zm-47.7,0H233.256V156.6h47.281V142.882ZM399.783,128.75H352.5v13.715h47.281V128.75Zm-47.7,0H304.8v13.715h47.281V128.75Zm-47.7,0h-47.28v13.715h47.28V128.75Zm-47.7,0H209.407v13.715h47.281V128.75Zm119.245-14.133H328.652v13.715h47.281V114.617Zm-47.7,0H280.955v13.715h47.281V114.617Zm-47.7,0H233.256v13.715h47.281V114.617Zm119.247-14.132H352.5V114.2h47.281V100.484Zm-47.7,0H304.8V114.2h47.281V100.484Zm-47.7,0h-47.28V114.2h47.28V100.484Zm-47.7,0H209.407V114.2h47.281V100.484ZM423.632,86.351H376.351v13.715h47.281V86.351Zm-47.7,0H328.652v13.715h47.281V86.351Zm-47.7,0H280.955v13.715h47.281V86.351Zm-47.7,0H233.256v13.715h47.281V86.351Zm-47.7,0H185.558v13.715h47.281Z" transform="translate(-46.958 -80.637)" fill="#c8dee1" fill-rule="evenodd"/>
  </g>
  <g id="Group_1472" data-name="Group 1472" transform="translate(159.888 82.577)">
    <g id="Group_1470" data-name="Group 1470" transform="translate(9.985 50.144)">
      <rect id="Rectangle_2375" data-name="Rectangle 2375" width="2.141" height="4.153" rx="0.845" fill="#abc4c8"/>
      <rect id="Rectangle_2376" data-name="Rectangle 2376" width="2.141" height="4.153" rx="0.845" transform="translate(0 4.838)" fill="#abc4c8"/>
      <rect id="Rectangle_2377" data-name="Rectangle 2377" width="2.141" height="4.153" rx="0.845" transform="translate(0 9.61)" fill="#abc4c8"/>
      <rect id="Rectangle_2378" data-name="Rectangle 2378" width="2.141" height="4.153" rx="0.845" transform="translate(0 14.382)" fill="#abc4c8"/>
      <rect id="Rectangle_2379" data-name="Rectangle 2379" width="2.141" height="4.153" rx="0.845" transform="translate(0 19.154)" fill="#abc4c8"/>
      <rect id="Rectangle_2380" data-name="Rectangle 2380" width="2.141" height="4.153" rx="0.845" transform="translate(0 23.926)" fill="#abc4c8"/>
      <rect id="Rectangle_2381" data-name="Rectangle 2381" width="2.141" height="4.152" rx="0.845" transform="translate(0 28.699)" fill="#abc4c8"/>
      <rect id="Rectangle_2382" data-name="Rectangle 2382" width="2.141" height="4.153" rx="0.845" transform="translate(0 33.47)" fill="#abc4c8"/>
    </g>
    <path id="Path_3203" data-name="Path 3203" d="M161.941,214.1a1.082,1.082,0,0,1,.954.723l2.616,8.266a.513.513,0,0,1-.494.725h-7.578a.514.514,0,0,1-.5-.725l2.616-8.266a1.084,1.084,0,0,1,.954-.723Z" transform="translate(-150.171 -127.624)" fill="#fff" fill-rule="evenodd"/>
    <rect id="Rectangle_2383" data-name="Rectangle 2383" width="5.272" height="259.241" rx="0.966" transform="translate(30.058 55.194)" fill="#7a9297"/>
    <rect id="Rectangle_2384" data-name="Rectangle 2384" width="14.534" height="28.55" rx="2.664" transform="translate(25.427 32.933)" fill="#7a9297"/>
    <path id="Rectangle_2385" data-name="Rectangle 2385" d="M2.663,0H11.87a2.664,2.664,0,0,1,2.664,2.664V19.137A2.664,2.664,0,0,1,11.87,21.8H2.664A2.664,2.664,0,0,1,0,19.137V2.663A2.663,2.663,0,0,1,2.663,0Z" transform="translate(25.427 303.534)" fill="#7a9297"/>
    <path id="Path_3204" data-name="Path 3204" d="M195.94,405.227H166.319a2.911,2.911,0,0,1-2.9-2.9h0a2.911,2.911,0,0,1,2.9-2.9H195.94a2.912,2.912,0,0,1,2.9,2.9h0A2.912,2.912,0,0,1,195.94,405.227Z" transform="translate(-148.435 -78.205)" fill="#7a9297" fill-rule="evenodd"/>
    <path id="Path_3205" data-name="Path 3205" d="M184.283,145.829h13.688A5.7,5.7,0,0,1,203,149.645l13.794,43.581c.665,2.1-.509,3.816-2.608,3.816h-59.8c-2.1,0-3.274-1.718-2.609-3.816l13.794-43.581a5.7,5.7,0,0,1,5.026-3.816Z" transform="translate(-151.589 -145.829)" fill="#fff" fill-rule="evenodd"/>
    <path id="Path_3206" data-name="Path 3206" d="M210.64,168.192l1.574,4.972H156.122l1.573-4.972Zm2.527,7.981,3.146,9.945H152.022l3.148-9.945Z" transform="translate(-151.474 -139.866)" fill="#c8dee1" fill-rule="evenodd"/>
    <g id="Group_1471" data-name="Group 1471" transform="translate(10.456 54.036)">
      <circle id="Ellipse_128" data-name="Ellipse 128" cx="0.6" cy="0.6" r="0.6" fill="#7a9297"/>
      <path id="Path_3207" data-name="Path 3207" d="M160.443,193.457a.6.6,0,1,0-.6-.6A.6.6,0,0,0,160.443,193.457Z" transform="translate(-159.844 -187.485)" fill="#7a9297" fill-rule="evenodd"/>
      <path id="Path_3208" data-name="Path 3208" d="M160.443,197.225a.6.6,0,1,0-.6-.6A.6.6,0,0,0,160.443,197.225Z" transform="translate(-159.844 -186.48)" fill="#7a9297" fill-rule="evenodd"/>
      <path id="Path_3209" data-name="Path 3209" d="M160.443,200.992a.6.6,0,1,0-.6-.6A.6.6,0,0,0,160.443,200.992Z" transform="translate(-159.844 -185.475)" fill="#7a9297" fill-rule="evenodd"/>
      <circle id="Ellipse_129" data-name="Ellipse 129" cx="0.6" cy="0.6" r="0.6" transform="translate(0 19.088)" fill="#7a9297"/>
      <circle id="Ellipse_130" data-name="Ellipse 130" cx="0.6" cy="0.6" r="0.6" transform="translate(0 23.86)" fill="#7a9297"/>
      <circle id="Ellipse_131" data-name="Ellipse 131" cx="0.6" cy="0.6" r="0.6" transform="translate(0 28.632)" fill="#7a9297"/>
    </g>
  </g>
  <g id="Group_1477" data-name="Group 1477" transform="translate(227.382 45.095)">
    <g id="Group_1475" data-name="Group 1475">
      <path id="Path_3210" data-name="Path 3210" d="M258.51,265.322h14.543c6.483,0,10.917-2.142,16.469-11.757l12.562-21.756s4.784-7.853,17.049-7.853h36.794c4.73,0,14.016.7,17.171,8.235S388.422,269.3,388.422,269.3l-23.21,1.789-22.25,37.844s-30.661,2.454-36.794,1.753-29.436-2.1-29.436-2.1Z" transform="translate(-190.571 -87.513)" fill="#ea574d" fill-rule="evenodd"/>
      <path id="Path_3211" data-name="Path 3211" d="M305.593,179.071a19.374,19.374,0,0,0-8.449,5.376c-2.233,2.4-26.675,48.688-28.577,51.79s-2.894,11.335.054,16.768,20.245,36.114,20.245,36.114l6.592-9.822s-13.86-30.652-14.467-32.2-.825-3.006.9-5.336S300.765,218.8,300.765,218.8,313.129,189.417,305.593,179.071Z" transform="translate(-188.372 -99.482)" fill="#141a33" fill-rule="evenodd"/>
      <path id="Rectangle_2386" data-name="Rectangle 2386" d="M1.088,0H2.683a1.09,1.09,0,0,1,1.09,1.09V125.4a1.089,1.089,0,0,1-1.089,1.089H1.09A1.09,1.09,0,0,1,0,125.4V1.088A1.088,1.088,0,0,1,1.088,0Z" transform="translate(131.043 232.711)" fill="#00000f"/>
      <path id="Rectangle_2387" data-name="Rectangle 2387" d="M4.07,0h5.968a4.07,4.07,0,0,1,4.07,4.07v7.167a4.069,4.069,0,0,1-4.069,4.069H4.069A4.069,4.069,0,0,1,0,11.237V4.07A4.07,4.07,0,0,1,4.07,0Z" transform="translate(125.875 229.184)" fill="#141a33"/>
      <path id="Rectangle_2388" data-name="Rectangle 2388" d="M2.177,0H9.6a2.178,2.178,0,0,1,2.178,2.178V5.369A2.178,2.178,0,0,1,9.6,7.547H2.178A2.178,2.178,0,0,1,0,5.369V2.177A2.177,2.177,0,0,1,2.177,0Z" transform="translate(127.041 351.649)" fill="#141a33"/>
      <path id="Rectangle_2389" data-name="Rectangle 2389" d="M3.343,0H38.35a3.343,3.343,0,0,1,3.343,3.343v4.9a3.342,3.342,0,0,1-3.342,3.342H3.343A3.343,3.343,0,0,1,0,8.244v-4.9A3.343,3.343,0,0,1,3.343,0Z" transform="translate(112.084 355.422)" fill="#030822"/>
      <path id="Path_3212" data-name="Path 3212" d="M341.863,299.962h0a3.651,3.651,0,0,0-3.64-3.64H292.562a3.652,3.652,0,0,0-3.642,3.64h0a3.652,3.652,0,0,0,3.642,3.64h45.661A3.651,3.651,0,0,0,341.863,299.962Z" transform="translate(-182.462 -68.215)" fill="#030822" fill-rule="evenodd"/>
      <path id="Path_3213" data-name="Path 3213" d="M353.692,298.444h0a2.058,2.058,0,0,0-2.052-2.052H283.3a2.058,2.058,0,0,0-2.053,2.052h0A2.059,2.059,0,0,0,283.3,300.5H351.64A2.058,2.058,0,0,0,353.692,298.444Z" transform="translate(-184.508 -68.197)" fill="#00000f" fill-rule="evenodd"/>
      <path id="Path_3214" data-name="Path 3214" d="M301.04,291.717h46.312a4.043,4.043,0,0,1,4.031,4.032h0a4.044,4.044,0,0,1-4.031,4.032H301.04a4.043,4.043,0,0,1-4.031-4.032h0A4.042,4.042,0,0,1,301.04,291.717Z" transform="translate(-180.305 -69.443)" fill="#c83c4a" fill-rule="evenodd"/>
      <path id="Path_3215" data-name="Path 3215" d="M280.213,291.717h39.481a4.043,4.043,0,0,1,4.032,4.032h0a4.044,4.044,0,0,1-4.032,4.032H280.213a4.043,4.043,0,0,1-4.031-4.032h0A4.042,4.042,0,0,1,280.213,291.717Z" transform="translate(-185.859 -69.443)" fill="#da5252" fill-rule="evenodd"/>
      <path id="Path_3216" data-name="Path 3216" d="M347.885,232.19c2.65,6.332,11.672,28.234,14.483,35.06h3.738a3.31,3.31,0,0,1,3.062,2.048S357,239.724,353.843,232.19s-12.441-8.235-17.171-8.235h-5.957C335.445,223.955,344.731,224.655,347.885,232.19Z" transform="translate(-171.317 -87.513)" fill="#d84743" fill-rule="evenodd"/>
      <path id="Path_3217" data-name="Path 3217" d="M246.342,263.235a3.311,3.311,0,1,1,0-6.622h17.871a3.313,3.313,0,0,1,3.1,2.136l17.958,39.739h60.426l21.651-38.266a3.3,3.3,0,0,1,2.87-1.671v-.01h19.274a3.31,3.31,0,1,1,0,6.621H372.136L350.614,303.2a3.313,3.313,0,0,1-3,1.908H283.136v0a3.306,3.306,0,0,1-3.013-1.949l-18.04-39.922Z" transform="translate(-194.699 -78.804)" fill="#ec6957" fill-rule="evenodd"/>
      <g id="Group_1474" data-name="Group 1474" transform="translate(0 157.014)">
        <path id="Path_3218" data-name="Path 3218" d="M260.388,407.81s-20.957-99.036-22.02-110.22c-1.018-10.731-6.924-26.15,61.284-36.77,2.87-.447,5.11-3.353,8.249-3.782,0,0,54.335,2.632,60.314,5.048s-9.7,22.857-60.583,27.686-37.859,22-37.859,22,1.839,91,3.053,95.79S265.332,414.811,260.388,407.81Z" transform="translate(-196.094 -235.705)" fill="#00000f" fill-rule="evenodd"/>
        <path id="Path_3219" data-name="Path 3219" d="M314.89,256.094c-2.312,1.039-6.292,10-9.185,11.064-11.408,4.217-25.969,8.675-32.867,13.349-7.362,4.987-10.4,12.277-12.644,18.087-2.949,7.625-37.574,87.334-39.59,90.681s4.052,8.71,6.459,9.928,5.694-3.265,5.694-3.265,43.639-74.7,56.3-93.13l54.021.063s17.341-2.787,26.763-15.006c10.147-13.154,1.776-45.235-2.692-45.663-8.474-.812-34.755-4.929-48.342,1.716C310.563,247.947,318.633,256.127,314.89,256.094Z" transform="translate(-200.787 -240.196)" fill="#030822" fill-rule="evenodd"/>
        <path id="Path_3220" data-name="Path 3220" d="M314.888,256.094c-2.31,1.04-6.29,10-9.183,11.064-.923.342-1.87.685-2.83,1.03,0,0,28.091-6.243,36.462,3.058s7.44,23.066-19.16,24-30.717.931-34.518,0-32.415,56.733-39.887,64.918c-2.88,3.157-7.315,1.83-11.679-.988-6.921,15.8-12.7,28.793-13.49,30.1-2.017,3.347,4.052,8.711,6.459,9.929s5.694-3.265,5.694-3.265,43.639-74.7,56.3-93.13l54.022.063s17.339-2.787,26.763-15.006c10.146-13.154,1.775-45.235-2.693-45.663-8.474-.812-34.755-4.93-48.342,1.716C310.563,247.947,318.633,256.127,314.888,256.094Z" transform="translate(-200.787 -240.196)" fill="#00000f" fill-rule="evenodd"/>
        <g id="Group_1473" data-name="Group 1473" transform="translate(0 138.286)">
          <path id="Rectangle_2390" data-name="Rectangle 2390" d="M1.152,0H8.929A1.152,1.152,0,0,1,10.08,1.152V11.5a1.151,1.151,0,0,1-1.151,1.151H1.152A1.152,1.152,0,0,1,0,11.5V1.152A1.152,1.152,0,0,1,1.152,0Z" transform="matrix(0.457, -0.89, 0.89, 0.457, 9.804, 17.295)" fill="#d84743"/>
          <path id="Path_3221" data-name="Path 3221" d="M230.735,374.375a8.111,8.111,0,0,0,.35,1.131c.132.241-1.443,3.111-1.572,3.411-.5,1.172-1.586,1.966-2.806,1.34l-7.359-3.777,4.38-5.7,4.228-1.021Z" transform="translate(-201.015 -343.932)" fill="#f2dddc" fill-rule="evenodd"/>
          <rect id="Rectangle_2391" data-name="Rectangle 2391" width="18.987" height="12.653" rx="1.446" transform="translate(13.163 16.892) rotate(-62.828)" fill="#d84743"/>
          <path id="Path_3222" data-name="Path 3222" d="M228.178,375.5c.822-.624,1.968.707,3.1-.747,3.9-5.038,8.627-15.921,8-16.244l-4.152-2.132c-.485-.248.156.4-2.312.688-1.987-1.02-5.939,4.854-9.624,7.231-2.076,1.339-2.117,1.135-3.06.651l-1.134-.583c-.728-.374-2.836-.626.215-2.849s5.819-4.494,6.464-5.751.12-3.689-.232-4.329-2.215-.4-2.721-.214a2.436,2.436,0,0,0-1.369,1.374l-2.229,4.341c-.516,1.006-9.263,4.323-10.529,6.789l-1.371,2.67a2.7,2.7,0,0,0-.282,1.514,4.274,4.274,0,0,1-.033.892l18.592,9.543A6.854,6.854,0,0,0,228.178,375.5Z" transform="translate(-204.333 -348.929)" fill="#ec6957" fill-rule="evenodd"/>
          <path id="Path_3223" data-name="Path 3223" d="M234.037,378.113s3.4-6.628,4.036-7.861-.155-2.761.725-4.474,2.428-4.73,2.735-5.329-.611-2.338-1.074-2.578l-4.127-2.136s.566,2.523.576,2.792c.016.452-1.8,3.5-2.669,5.2s-.034,3.563-.274,4.031l-1.386,2.7c-.565,1.1-2.879,3.2-6.4,1.136s-2.043-3.619-6.748-6.033-5.488-2.816-7.2-3.7a2.445,2.445,0,0,1-1.4-1.4,4.7,4.7,0,0,0-2.256,2.008l-1.371,2.67a2.359,2.359,0,0,0-.187,1.564,3.95,3.95,0,0,1,.049.932l20.145,10.34a5.277,5.277,0,0,1,.459-2.037l.214-.988a2.62,2.62,0,0,1,2.15.319c1.338.688,2.427,1.248,2.788,1.431a7.193,7.193,0,0,1,1.2,1.441Z" transform="translate(-204.318 -347.671)" fill="#ea5a50" fill-rule="evenodd"/>
          <path id="Path_3224" data-name="Path 3224" d="M228.438,372.655s.817,1.2.949,1.44-1.443,3.108-1.572,3.41a4.693,4.693,0,0,1-2.172,1.244,2.115,2.115,0,0,1-1.234-.212l-16.81-8.629-2.15-1.1a1.036,1.036,0,0,1-.467-1.381c.246-.479,1.072-2.087,1.3-2.533s1.194-.535,1.194-.535a4,4,0,0,0,3.395,1.506c2.014-.286,3.815-.357,5.456,1.329S222.98,375.149,228.438,372.655Z" transform="translate(-204.874 -345.372)" fill="#fff" fill-rule="evenodd"/>
          <path id="Path_3225" data-name="Path 3225" d="M227.37,371.434s.817,1.2.949,1.44-1.443,3.108-1.572,3.41a4.693,4.693,0,0,1-2.172,1.244,2.115,2.115,0,0,1-1.234-.212l-12.416-6.373c-1.073-1.059-2.044-2.008-2.044-2.008l11.785,6.051c1.538.788,2.638.68,2.912.146l1.164-2.266a1.051,1.051,0,0,0-.076-.855A6.207,6.207,0,0,0,227.37,371.434Z" transform="translate(-203.806 -344.151)" fill="#f2dddc" fill-rule="evenodd"/>
          <path id="Path_3226" data-name="Path 3226" d="M216.472,371.668a21.729,21.729,0,0,0,3.615,4.094L207.6,369.351l-2.15-1.1a1.036,1.036,0,0,1-.467-1.381c.049-.1.125-.244.214-.418,0,0,1.429,1.924,3.395,1.506C210.532,367.543,213.81,367.959,216.472,371.668Z" transform="translate(-204.874 -344.814)" fill="#00000f" fill-rule="evenodd"/>
          <path id="Path_3227" data-name="Path 3227" d="M216.291,359.956c-.171-.177-.106-.418.144-.537a.7.7,0,0,1,.763.106l2.635,2.732,4.49.926c.291.058.461.274.379.478a.6.6,0,0,1-.678.262l-3.225-.664,1.891,1.963c.171.177.106.417-.143.536a.707.707,0,0,1-.763-.105l-2.635-2.732L214.658,362c-.291-.061-.461-.275-.379-.48a.6.6,0,0,1,.678-.262l3.225.665-1.891-1.962Zm14.261-2.835-4.492-.925-2.635-2.731a.7.7,0,0,0-.763-.106c-.251.119-.315.358-.143.536l1.891,1.961-3.225-.664a.6.6,0,0,0-.678.263c-.084.2.087.419.379.48l4.492.923,2.633,2.733a.712.712,0,0,0,.764.106c.248-.119.314-.36.142-.537l-1.891-1.962,3.226.664a.6.6,0,0,0,.676-.262c.084-.205-.086-.419-.377-.48Zm-3.115,3.031-4.492-.925-2.635-2.733a.71.71,0,0,0-.763-.106c-.251.119-.315.361-.143.537l1.891,1.962-3.225-.664a.6.6,0,0,0-.678.262c-.082.205.087.421.379.48l4.492.925,2.633,2.732a.7.7,0,0,0,.764.105c.25-.119.314-.358.143-.536l-1.892-1.961,3.226.664a.6.6,0,0,0,.678-.262C227.9,360.427,227.729,360.213,227.438,360.152Z" transform="translate(-202.372 -348.323)" fill="#fff" fill-rule="evenodd"/>
        </g>
      </g>
      <path id="Path_3228" data-name="Path 3228" d="M325.414,161.035l-.071,4.92s.348,10.468.386,11.6.575,1.511,1.961,2.419c1.867,2.884-2.721,15.488-6.267,16.031s-20.02-.5-21.2-1.365c-.827-.608,7.263-11.643,6.73-13.433a4.482,4.482,0,0,0,1.894-.884c3.4-3,2.713-11.106.105-13.941C307,164.268,325.414,161.035,325.414,161.035Z" transform="translate(-179.465 -104.292)" fill="#dc5748" fill-rule="evenodd"/>
      <path id="Path_3229" data-name="Path 3229" d="M298.035,191.487c2.93-1.723,4.682-.37,8.027,2.721s6.407,2.744,8.219,3.407,2.722,29.71-8.84,34.317c-4.278,1.706-7.025.034-8.811-3.4C293.424,222.367,290.419,195.966,298.035,191.487Z" transform="translate(-181.307 -96.373)" fill="#f6f5f4" fill-rule="evenodd"/>
      <path id="Path_3230" data-name="Path 3230" d="M353.679,273.567c-1.376,3.135-6.113,5.732-11.777,7.685-8.433-3.3-22.761,1.752-33.553,1.238-12.264-.584-17.288-3.387-17.288-3.387l-.793.561a3.479,3.479,0,0,1-.863-.856h0c-1.4-2.142-.709-5.335-.162-8.183.986-5.115,5.266-1.539,3.411-25.708s-8.264-65.4,17.652-68.463c0,0-.261.59-.659,1.676l1.08.042s-2.326,7.354,2.546,9.753,10.17-1.013,12.472-3.83a1.471,1.471,0,0,1,1.167-.585c1.61-2.081,3.388-4.184,5.355-6.318,5.514.849,14.259,4.9,14.259,4.9,4.413,1.935,9.195,6.007,10.065,10.415,1.231,6.257-5.058,27.5-9.382,41.178C339.969,256.574,357.7,264.412,353.679,273.567Z" transform="translate(-182.553 -100.181)" fill="#cfc9d0" fill-rule="evenodd"/>
      <path id="Path_3231" data-name="Path 3231" d="M310.421,193.083s-11.855,45.144-13.607,54.139a6.884,6.884,0,0,0,.949,4.16c1.27,2.265,5.358,9.8,6,10.674s1.111.233,1.928-.526,6.074-6.25,6.95-7.3c.491-.588.9-1.362.858-3.387-.265-12.555-1.309-24.027-.666-37.6.346-7.334.888-14.346,1.587-19.076l3.709-3.651-1.606-3.241a8.716,8.716,0,0,0-4.526-.993,3.969,3.969,0,0,0-3.272,2.015Z" transform="translate(-180.366 -97.567)" fill="#9e9ba5" fill-rule="evenodd"/>
      <path id="Path_3232" data-name="Path 3232" d="M297.154,280.627a24.86,24.86,0,0,1-6.093-1.986l-.793.561a3.478,3.478,0,0,1-.863-.856h0c-1.4-2.142-.709-5.335-.162-8.183.986-5.115,5.266-1.539,3.411-25.708-1.659-21.614-6.955-56.867,10.478-66.273,3.853,2.655,6.223,7.092,6.181,14.017l-.3,1.574a16.635,16.635,0,0,0-1.306,1.55c-.116.262-2.892,32.356-2.892,32.356Z" transform="translate(-182.553 -99.72)" fill="#9e9ba5" fill-rule="evenodd"/>
      <path id="Path_3233" data-name="Path 3233" d="M309.592,192.25s-11.856,45.144-13.608,54.139a6.892,6.892,0,0,0,.95,4.16c1.269,2.265,5.358,9.8,6,10.674s1.112.233,1.928-.526,6.075-6.25,6.951-7.3c.49-.588.9-1.362.858-3.387-.265-12.555-1.308-24.027-.668-37.6.346-7.334.889-14.346,1.588-19.076l-.993-3.955S309.653,190.788,309.592,192.25Z" transform="translate(-180.588 -96.734)" fill="#ea574d" fill-rule="evenodd"/>
      <path id="Path_3234" data-name="Path 3234" d="M302.986,260.464c.82-.759,6.075-6.25,6.951-7.3.49-.588.9-1.362.858-3.387-.265-12.555-1.308-24.027-.668-37.6.346-7.334.889-14.346,1.588-19.076L311,190.249l-1.572.78-.5.8a5.118,5.118,0,0,1,1.008,1.322c.35.722-2.024,24.61-2.541,30.223s-1.227,27.332-1.14,28.734S302.986,260.464,302.986,260.464Z" transform="translate(-178.711 -96.502)" fill="#d84743" fill-rule="evenodd"/>
      <path id="Path_3235" data-name="Path 3235" d="M303.692,209.59c-3.252,12.667-6.808,26.8-7.708,31.408a6.892,6.892,0,0,0,.95,4.16c.377.675,1.008,1.819,1.723,3.116l4.191-28.974S303.218,215.028,303.692,209.59Z" transform="translate(-180.588 -91.344)" fill="#d84743" fill-rule="evenodd"/>
      <path id="Path_3236" data-name="Path 3236" d="M305.383,188.293l1.694,4.789a3.777,3.777,0,0,1,4,1.08l3.709-3.651-1.607-3.241a8.711,8.711,0,0,0-4.526-.993A3.964,3.964,0,0,0,305.383,188.293Z" transform="translate(-178.072 -97.567)" fill="#ea574d" fill-rule="evenodd"/>
      <path id="Path_3237" data-name="Path 3237" d="M308.763,193.031a3.529,3.529,0,0,1,1.763,1.132l3.709-3.651-1.607-3.241a8.711,8.711,0,0,0-4.526-.993,4.777,4.777,0,0,0-.551.077l-.1.22a27.965,27.965,0,0,1,2.562,1.905c.569.569-1.249,4.549-1.249,4.549Z" transform="translate(-177.521 -97.567)" fill="#d84743" fill-rule="evenodd"/>
      <path id="Path_3238" data-name="Path 3238" d="M327.033,176.193a11.359,11.359,0,0,1,2.049,1.6,2.594,2.594,0,0,1-.014,2.12c-.491,1.293-12.774,16.653-12.774,16.653s-.408.55-.958-.056-5.3-7.605-5.3-7.605l15.385-13.143C325.888,175.255,326.6,175.919,327.033,176.193Z" transform="translate(-176.83 -100.414)" fill="#fff" fill-rule="evenodd"/>
      <path id="Path_3239" data-name="Path 3239" d="M308.236,176.141c0-.008-.019-.006-.057-.019a4.908,4.908,0,0,0-3.938.808c-2.194,2.1-.358,14.886.289,17.067a.086.086,0,0,1,0,.029.961.961,0,0,0,1.226.187c.7-.427,4.435-5.823,4.435-5.823C309.622,187.32,305.3,181.906,308.236,176.141Z" transform="translate(-178.655 -100.302)" fill="#fff" fill-rule="evenodd"/>
      <path id="Path_3240" data-name="Path 3240" d="M328.4,176.647s-17.363,36.873-19.288,54.221,12.383,53.5,13.316,55.483,19,10.534,27.37,10.582c0,0,1.335-.041,1.657-.421s1.577-1.809,2.015-2.365a3.265,3.265,0,0,0,.408-2.949c-.379-1.4-8.789-45.321-9.841-51.045s6.658-35.976,7.827-41.582S354.658,182.684,328.4,176.647Z" transform="translate(-177.125 -100.129)" fill="#141a33" fill-rule="evenodd"/>
      <path id="Path_3241" data-name="Path 3241" d="M324.207,184.009c-5.268,12.1-13.783,33.049-15.1,44.9a31.367,31.367,0,0,0-.176,3.272,32.2,32.2,0,0,1,7.456-11.528c3.182-3.208,7.842-7.411,10.575-9.69,4.2-3.5,9.462-6.891,8.76-10.745s-3.271-15.419-3.271-15.419Z" transform="translate(-177.125 -98.166)" fill="#3f4154" fill-rule="evenodd"/>
      <path id="Path_3242" data-name="Path 3242" d="M318.128,297.274H329.9l19.413-36.11,23.114.95-22.715,39.875a3.314,3.314,0,0,1-3,1.908H318.128Z" transform="translate(-174.673 -77.591)" fill="#d84743" fill-rule="evenodd"/>
      <path id="Path_3243" data-name="Path 3243" d="M316.811,298.082h9.207l21.651-38.266a3.3,3.3,0,0,1,2.87-1.671v-.01h19.274a3.31,3.31,0,1,1,0,6.621H352.461L330.939,302.8a3.313,3.313,0,0,1-3,1.908H316.811Z" transform="translate(-175.024 -78.399)" fill="#ec6957" fill-rule="evenodd"/>
      <path id="Path_3244" data-name="Path 3244" d="M308.944,176.734s-3.467,45.115-4.4,50.488-8.712,48.029-9.378,51.229-9.6,4.058-9.6,4.058,5.082-42.205,5.141-43.373.175-32.531.175-36.385,4.469-17.931,5.2-19.448S301.727,178.134,308.944,176.734Z" transform="translate(-183.358 -100.106)" fill="#141a33" fill-rule="evenodd"/>
      <path id="Path_3245" data-name="Path 3245" d="M305.175,186.985c-1.1,13.77-2.832,34.837-3.452,38.4-.176,1.011-.594,3.34-1.162,6.479,0,0-4.759-35.638-4.409-36.922s5.842-11.33,5.842-11.33Z" transform="translate(-180.538 -98.271)" fill="#3f4154" fill-rule="evenodd"/>
      <path id="Path_3246" data-name="Path 3246" d="M305.413,176.734s-.566,7.363-1.3,16.495c-2.494-3.279-5.639-7.616-5.282-8.189.583-.932,4.706-7.862,4.718-7.884C304.15,177,304.774,176.858,305.413,176.734Z" transform="translate(-179.827 -100.106)" fill="#575a6d" fill-rule="evenodd"/>
      <path id="Path_3247" data-name="Path 3247" d="M331.955,178.081c.014.06,2.669,11.424,2.727,12.3.046.687-12.943,7.551-18.554,10.482,5.064-12.982,10.352-24.215,10.352-24.215C328.46,177.1,330.279,177.582,331.955,178.081Z" transform="translate(-175.206 -100.129)" fill="#575a6d" fill-rule="evenodd"/>
      <path id="Path_3248" data-name="Path 3248" d="M338.71,181.7a19.365,19.365,0,0,1,7.257,6.9c1.73,2.778,21.566,55.186,22.837,58.595s.661,11.681-3.281,16.445c-1.6,1.935-6.323,7.5-11.368,13.43-4.468,5.252-12.451,4.889-18.658,5.287,4.446-6.255,18.277-25.72,19.024-26.894.892-1.4,1.39-2.793.142-5.412s-18.2-29.943-18.2-29.943S329.324,190.4,338.71,181.7Z" transform="translate(-170.477 -98.782)" fill="#141a33" fill-rule="evenodd"/>
      <path id="Path_3249" data-name="Path 3249" d="M368.84,238.833a18.912,18.912,0,0,1-3.711,9.568c-1.72,2.082-7.062,8.37-12.526,14.792-.755.885-5.478,5.434-9.724,5.434-.255,0-7.223-1.744-7.534-1.849,1.007-1.419,2.414-3.4,4.012-5.644,3.993-.2,13.431-.723,13.89-1.32.584-.76,10.863-11.8,12.906-14.659A17.94,17.94,0,0,0,368.84,238.833Z" transform="translate(-170.082 -83.546)" fill="#030822" fill-rule="evenodd"/>
      <path id="Path_3250" data-name="Path 3250" d="M338.18,218.236l0-.005h0l-.723-13.32c5.815,9.562,14.426,25.7,16.231,29.522,3.406,7.212,3.691,11.247,3.691,12.349s-.9.475-1.454.8-4.143,4.265-4.143,4.265c.987-1.4,1.64-2.343,1.786-2.574.892-1.4,1.39-2.793.142-5.412C352.771,241.9,343.009,226.046,338.18,218.236Z" transform="translate(-169.52 -92.592)" fill="#030822" fill-rule="evenodd"/>
      <path id="Path_3251" data-name="Path 3251" d="M321.627,280.78l.156.091c1.137.253,11.128,7.775,19.832,7.879l4.921-11.076a11.009,11.009,0,0,1,.267-12.833c-2.537-13.164-5.548-28.948-6.151-32.225-.547-2.986,1.288-12.648,3.336-22l-2.315-5.7s-4.873,21.006-5.447,22.6-8.643.118-9.636.058,6.949,2.979,8.409,3.68,4.088,27.157,3.971,29.377S322.507,279.979,321.627,280.78Z" transform="translate(-173.74 -92.592)" fill="#030822" fill-rule="evenodd"/>
      <path id="Path_3252" data-name="Path 3252" d="M301.013,178.452A46.669,46.669,0,0,0,289.9,201.205a.33.33,0,0,1-.1.181,73.341,73.341,0,0,1,2.384-10.1,45.945,45.945,0,0,1,7.259-12.051Q300.181,178.837,301.013,178.452Z" transform="translate(-182.226 -99.647)" fill="#030822" fill-rule="evenodd"/>
      <path id="Path_3253" data-name="Path 3253" d="M338.018,214.178a.33.33,0,1,1-.66.014c0-.079-.507-22.748,4.915-29.814q.2.205.408.424C337.515,191.488,338.017,214.1,338.018,214.178Z" transform="translate(-169.549 -98.067)" fill="#030822" fill-rule="evenodd"/>
      <path id="Rectangle_2392" data-name="Rectangle 2392" d="M3.366,0H13.417a3.365,3.365,0,0,1,3.365,3.365v1.8a3.366,3.366,0,0,1-3.366,3.366H3.365A3.365,3.365,0,0,1,0,5.161v-1.8A3.366,3.366,0,0,1,3.366,0Z" transform="translate(156.669 175.806)" fill="#f08a71"/>
      <path id="Path_3254" data-name="Path 3254" d="M294.163,140.572a11.72,11.72,0,0,0-1.156,4.574c.028,2.2,4.655,3.1,6.236,3.1s44.336,1.581,44.336,1.581A1.612,1.612,0,0,0,344.9,148.3c0-1.279-7.33-17.268-7.33-17.268Z" transform="translate(-181.372 -112.292)" fill="#2a0d09" fill-rule="evenodd"/>
      <path id="Path_3255" data-name="Path 3255" d="M297.015,147.658a6.805,6.805,0,1,1-6.8,6.806A6.806,6.806,0,0,1,297.015,147.658Z" transform="translate(-182.118 -107.859)" fill="#e9695b" fill-rule="evenodd"/>
      <path id="Path_3256" data-name="Path 3256" d="M333.823,147.658a6.805,6.805,0,1,1-6.8,6.806A6.807,6.807,0,0,1,333.823,147.658Z" transform="translate(-172.302 -107.859)" fill="#e9695b" fill-rule="evenodd"/>
      <path id="Path_3257" data-name="Path 3257" d="M317.666,120.487h0A23.379,23.379,0,0,1,340.977,143.8v21.184a23.38,23.38,0,0,1-23.311,23.312h0a23.381,23.381,0,0,1-23.312-23.312V143.8A23.381,23.381,0,0,1,317.666,120.487Z" transform="translate(-181.013 -115.105)" fill="#f5ac83" fill-rule="evenodd"/>
      <path id="Path_3258" data-name="Path 3258" d="M327.186,122.122l.049.022a23.389,23.389,0,0,1,13.742,21.242v21.188a23.379,23.379,0,0,1-23.312,23.31h0a23.106,23.106,0,0,1-8.368-1.563c22.8.175,25.33-15.327,25.331-28.3,0-19.155-20.915-12.263-38.052-12.263-.763,0-1.5-.019-2.222-.052v-2.321a23.158,23.158,0,0,1,.8-6.05c9.207-5.794,21.958-13.309,27.959-14.527,1.792-.365,3.025-.613,3.858-.78l.148.066C327,122.132,326.98,122.148,327.186,122.122Z" transform="translate(-181.013 -114.694)" fill="#ee9073" fill-rule="evenodd"/>
      <path id="Path_3259" data-name="Path 3259" d="M329.127,139.053v7.172c0,2.816.512,3.648,1.92,4.671,0,0-.864,2.722.7,3.36a2.458,2.458,0,0,1,2.241-2.422v-18.5a9.474,9.474,0,0,1-5.039,4.124A7.5,7.5,0,0,1,329.127,139.053Z" transform="translate(-171.786 -111.68)" fill="#4f3a38" fill-rule="evenodd"/>
      <path id="Path_3260" data-name="Path 3260" d="M345.455,152.248a19.152,19.152,0,0,0-5.319-4.351l.005,0-.1-.052c-.214-.123-.431-.241-.651-.356a13.669,13.669,0,0,1-5.5-5.42c-1.944,1.336-9.9,1.134-12.9,1-.338-.018-.679-.034-1.018-.049l-.057,0-.073,0h0c-13.322-.528-26.212,2.7-26.276,6.076-11.541-24.264,17.319-47.628,42.986-21.115C350.116,128.625,348.915,142.552,345.455,152.248Z" transform="translate(-181.923 -116.238)" fill="#4f3a38" fill-rule="evenodd"/>
      <path id="Path_3261" data-name="Path 3261" d="M290.962,135.137a21.783,21.783,0,0,1,3.815-11.373c6.2,3.759,21.162,10.26,38.035-1.01q1.208,1.018,2.412,2.177C329.792,130.686,315.556,141.817,290.962,135.137Z" transform="translate(-181.917 -114.5)" fill="#6a514f" fill-rule="evenodd"/>
      <path id="Path_3262" data-name="Path 3262" d="M340.152,148.981a19.152,19.152,0,0,0-5.319-4.351l.005,0-.1-.052c-.214-.123-.431-.241-.651-.356a13.669,13.669,0,0,1-5.5-5.42c-1.944,1.336-9.9,1.134-12.9,1-.338-.018-.679-.034-1.018-.049l-.057,0-.073,0h0c-1.243-.049-2.48-.066-3.7-.052,17.147-.664,25.327-6.75,29.048-11.2C343.872,133.435,342.561,142.232,340.152,148.981Z" transform="translate(-176.621 -112.97)" fill="#2a0d09" fill-rule="evenodd"/>
      <path id="Path_3263" data-name="Path 3263" d="M318.642,155.564a3.157,3.157,0,1,0,3.248,3.062A3.158,3.158,0,0,0,318.642,155.564Z" transform="translate(-175.353 -105.751)" fill="#e9695b" fill-rule="evenodd"/>
      <path id="Path_3264" data-name="Path 3264" d="M299.078,156.2a3.157,3.157,0,1,0,3.25,3.062A3.159,3.159,0,0,0,299.078,156.2Z" transform="translate(-180.57 -105.581)" fill="#e9695b" fill-rule="evenodd"/>
      <path id="Path_3265" data-name="Path 3265" d="M296.845,147.9a.717.717,0,0,1-.7-1.25c.013-.006,4.158-2.47,8.081-.369a.718.718,0,1,1-.678,1.267C300.336,145.828,296.854,147.9,296.845,147.9Z" transform="translate(-180.634 -108.452)" fill="#00000f" fill-rule="evenodd"/>
      <path id="Path_3266" data-name="Path 3266" d="M321.23,146.614a.717.717,0,0,0,.578-1.314c-.011-.005-4.378-2.053-8.078.421a.718.718,0,0,0,.8,1.194C317.556,144.892,321.22,146.61,321.23,146.614Z" transform="translate(-175.931 -108.701)" fill="#00000f" fill-rule="evenodd"/>
      <path id="Rectangle_2393" data-name="Rectangle 2393" d="M1.581,0h.844A1.581,1.581,0,0,1,4.005,1.581V5.037A1.581,1.581,0,0,1,2.424,6.618H1.58A1.58,1.58,0,0,1,0,5.038V1.581A1.581,1.581,0,0,1,1.581,0Z" transform="translate(140.307 41.222)" fill="#00000f"/>
      <rect id="Rectangle_2394" data-name="Rectangle 2394" width="4.007" height="6.618" rx="1.581" transform="translate(117.969 42.426)" fill="#00000f"/>
    </g>
    <g id="Group_1476" data-name="Group 1476" transform="translate(124.635 54.419)">
      <path id="Path_3267" data-name="Path 3267" d="M314.243,160.092a5.5,5.5,0,0,1-10.973.666h.009a.952.952,0,0,1,.889-1l9.06-.551a.952.952,0,0,1,1.006.889Z" transform="translate(-303.27 -159.201)" fill="#00000f" fill-rule="evenodd"/>
      <path id="Path_3268" data-name="Path 3268" d="M311.853,163.682a5.5,5.5,0,0,1-6.318.771,3.424,3.424,0,0,1,3.015-2.214A3.465,3.465,0,0,1,311.853,163.682Z" transform="translate(-302.666 -158.395)" fill="#d84743" fill-rule="evenodd"/>
      <path id="Path_3269" data-name="Path 3269" d="M303.885,159.758l8.513-.517a1.929,1.929,0,0,1-.806,2.156c-.755.3-6.926.513-7.391.054A3.264,3.264,0,0,1,303.885,159.758Z" transform="translate(-303.106 -159.19)" fill="#fff" fill-rule="evenodd"/>
    </g>
  </g>
  <g id="Group_1478" data-name="Group 1478" transform="translate(94.024 232.707)">
    <path id="Path_3270" data-name="Path 3270" d="M231.824,271.446l13.087,165.035H239.1L221.518,279.218H122.984L105.4,436.482H99.591l13.087-165.035Z" transform="translate(-99.591 -262.461)" fill="#062e40" fill-rule="evenodd"/>
    <path id="Path_3271" data-name="Path 3271" d="M418.639,271.446l13.087,165.035H425.92L408.334,279.218H309.8L292.215,436.482h-5.808l13.087-165.035Z" transform="translate(-49.774 -262.461)" fill="#062e40" fill-rule="evenodd"/>
    <path id="Path_3272" data-name="Path 3272" d="M420.488,264.353H107.9a5.026,5.026,0,0,0-5.012,5.011h0a5.027,5.027,0,0,0,5.012,5.011H420.488a5.026,5.026,0,0,0,5.011-5.011h0A5.025,5.025,0,0,0,420.488,264.353Z" transform="translate(-98.713 -264.353)" fill="#f1a272" fill-rule="evenodd"/>
    <path id="Path_3273" data-name="Path 3273" d="M424.872,264.353H292.621a5.026,5.026,0,0,0-5.011,5.011h0a5.027,5.027,0,0,0,5.011,5.011H424.872a5.027,5.027,0,0,0,5.011-5.011h0A5.026,5.026,0,0,0,424.872,264.353Z" transform="translate(-49.453 -264.353)" fill="#c37744" fill-rule="evenodd"/>
  </g>
  <path id="Path_3274" data-name="Path 3274" d="M33.932,406.571H50.985a5.416,5.416,0,0,1,5.4,5.4h0a5.415,5.415,0,0,1-5.4,5.4h-8.1a4.3,4.3,0,0,0-4.286,4.285h0a4.3,4.3,0,0,0,4.286,4.286h517.8a4.3,4.3,0,0,0,4.286-4.286h0a4.3,4.3,0,0,0-4.286-4.285h-7.73a5.415,5.415,0,0,1-5.4-5.4h0a5.415,5.415,0,0,1,5.4-5.4h33.84a8.6,8.6,0,0,0,8.57-8.572h0a8.6,8.6,0,0,0-8.57-8.569H33.932A8.6,8.6,0,0,0,25.362,398h0a8.6,8.6,0,0,0,8.57,8.572ZM31.3,425.939a4.286,4.286,0,1,1,4.285-4.286A4.286,4.286,0,0,1,31.3,425.939Z" transform="translate(-25.362 1.708)" fill="#036eed" fill-rule="evenodd"/>
  <path id="Path_3275" data-name="Path 3275" d="M242.825,104.815h45a5.959,5.959,0,0,1,5.943,5.943v41.924a.664.664,0,0,1-1.132.469l-10.127-10.127H242.825a5.961,5.961,0,0,1-5.943-5.943V110.758A5.96,5.96,0,0,1,242.825,104.815Z" transform="translate(31.043 -74.19)" fill="#01baef" fill-rule="evenodd"/>
  <g id="Group_1479" data-name="Group 1479" transform="translate(280.212 44.44)">
    <path id="Path_3276" data-name="Path 3276" d="M250.255,123.066a3.673,3.673,0,1,0-3.673-3.673A3.681,3.681,0,0,0,250.255,123.066Z" transform="translate(-246.582 -115.721)" fill="#fff" fill-rule="evenodd"/>
    <path id="Path_3277" data-name="Path 3277" d="M260.111,123.066a3.673,3.673,0,1,0-3.672-3.673A3.68,3.68,0,0,0,260.111,123.066Z" transform="translate(-243.953 -115.721)" fill="#fff" fill-rule="evenodd"/>
    <path id="Path_3278" data-name="Path 3278" d="M269.968,123.066a3.673,3.673,0,1,0-3.672-3.673A3.68,3.68,0,0,0,269.968,123.066Z" transform="translate(-241.325 -115.721)" fill="#fff" fill-rule="evenodd"/>
  </g>
  <g id="Group_1485" data-name="Group 1485" transform="translate(109.486 146.624)">
    <g id="Group_1483" data-name="Group 1483">
      <g id="Group_1480" data-name="Group 1480" transform="translate(26.036 29.043)">
        <path id="Path_3279" data-name="Path 3279" d="M149.449,220.056c7.661-3.31,8.874,5.25,5.472,12-2.3,4.569-10.6,16.269-16.191,26.221h-6.378C134.534,243.224,141.531,223.477,149.449,220.056Z" transform="translate(-132.353 -219.321)" fill="#0e8934" fill-rule="evenodd"/>
        <path id="Path_3280" data-name="Path 3280" d="M134.151,257.582c5.439-18.241,17.964-35.432,18.015-35.5a.339.339,0,0,1,.47-.079.332.332,0,0,1,.079.465c-.051.068-12.444,17.081-17.87,35.115Z" transform="translate(-131.874 -218.622)" fill="#2dd782" fill-rule="evenodd"/>
      </g>
      <g id="Group_1481" data-name="Group 1481" transform="translate(14.88)">
        <path id="Path_3281" data-name="Path 3281" d="M135.61,199.12c-7.724-7.573-13,2.028-11.924,11.672,1.02,9.145,9.937,40.53,8.872,53.726l3.043,0C142.522,247.606,145.5,208.814,135.61,199.12Z" transform="translate(-123.546 -196.393)" fill="#2dd782" fill-rule="evenodd"/>
        <path id="Path_3282" data-name="Path 3282" d="M133.183,263.654c6.422-26.67-3.89-63.556-3.924-63.682a.448.448,0,0,0-.531-.314.412.412,0,0,0-.3.516c.034.125,10.359,37.054,3.873,63.478Z" transform="translate(-122.248 -195.525)" fill="#0e8934" fill-rule="evenodd"/>
      </g>
      <g id="Group_1482" data-name="Group 1482" transform="translate(0 18.552)">
        <path id="Path_3283" data-name="Path 3283" d="M119.728,211.96c-8.1-3.866-9.652,5.231-6.21,12.6,2.851,6.1,15.01,24.029,19.844,35.647l4.014-.137C136.929,243.794,129.287,216.524,119.728,211.96Z" transform="translate(-111.799 -211.039)" fill="#c8dee1" fill-rule="evenodd"/>
        <path id="Path_3284" data-name="Path 3284" d="M135.115,259.37c-3.678-21.9-19.623-45.295-19.681-45.38a.365.365,0,0,0-.5-.1.351.351,0,0,0-.1.493c.057.085,15.9,23.327,19.565,45.015Z" transform="translate(-111.005 -210.295)" fill="#7a9297" fill-rule="evenodd"/>
      </g>
    </g>
    <g id="Group_1484" data-name="Group 1484" transform="translate(14.151 64.753)">
      <path id="Rectangle_2395" data-name="Rectangle 2395" d="M1.022,0H25.39a1.023,1.023,0,0,1,1.023,1.023V7.449a1.023,1.023,0,0,1-1.023,1.023H1.023A1.023,1.023,0,0,1,0,7.448V1.022A1.022,1.022,0,0,1,1.022,0Z" fill="#2c3049"/>
      <path id="Path_3285" data-name="Path 3285" d="M143.729,251.29h-15.65l-4.086,3.688,3.338,12.858h17.146l3.338-12.858Z" transform="translate(-122.697 -246.506)" fill="#2c3049" fill-rule="evenodd"/>
      <path id="Path_3286" data-name="Path 3286" d="M123.993,254.2l.686,2.643h22.449l.687-2.643Z" transform="translate(-122.697 -245.73)" fill="#141a33" fill-rule="evenodd"/>
    </g>
  </g>
  <g id="Group_1486" data-name="Group 1486" transform="translate(141.843 223.136)">
    <path id="Path_3287" data-name="Path 3287" d="M202.062,256.8H170.049a4.785,4.785,0,0,0,0,9.571h32.012a4.785,4.785,0,0,0,0-9.571Z" transform="translate(-129.897 -256.797)" fill="#3b3a3a" fill-rule="evenodd"/>
    <path id="Path_3288" data-name="Path 3288" d="M137.783,257.237h40.939a4.24,4.24,0,0,1,4.227,4.227h0a4.24,4.24,0,0,1-4.227,4.228H137.783Z" transform="translate(-137.226 -256.68)" fill="#fff" fill-rule="evenodd"/>
    <path id="Path_3289" data-name="Path 3289" d="M137.9,256.8a.557.557,0,0,0,0,1.115h40.939a3.671,3.671,0,0,1,0,7.342H137.9a.557.557,0,1,0,0,1.115h40.939a4.785,4.785,0,0,0,0-9.571Z" transform="translate(-137.343 -256.797)" fill="#242525" fill-rule="evenodd"/>
    <path id="Path_3290" data-name="Path 3290" d="M194.158,261.581a4.8,4.8,0,0,0-4.785-4.784h4.162a4.785,4.785,0,0,1,0,9.571h-4.162a4.8,4.8,0,0,0,4.785-4.787Z" transform="translate(-123.468 -256.797)" fill="#242525" fill-rule="evenodd"/>
    <path id="Path_3291" data-name="Path 3291" d="M189.4,261.581a4.8,4.8,0,0,0-4.785-4.784h4.162a4.785,4.785,0,0,1,0,9.571h-4.162a4.8,4.8,0,0,0,4.785-4.787Z" transform="translate(-124.738 -256.797)" fill="#242525" fill-rule="evenodd"/>
  </g>
  <g id="Group_1487" data-name="Group 1487" transform="translate(146.627 214.757)">
    <path id="Path_3292" data-name="Path 3292" d="M145.31,250.182h28.033a4.19,4.19,0,0,1,0,8.379H145.31a4.19,4.19,0,0,1,0-8.379Z" transform="translate(-141.12 -250.182)" fill="#c8dee1" fill-rule="evenodd"/>
    <path id="Path_3293" data-name="Path 3293" d="M202.257,250.567H166.409a3.713,3.713,0,0,0-3.7,3.7h0a3.714,3.714,0,0,0,3.7,3.7h35.848Z" transform="translate(-135.363 -250.079)" fill="#fff" fill-rule="evenodd"/>
    <path id="Path_3294" data-name="Path 3294" d="M202.36,250.182a.488.488,0,0,1,0,.975H166.512a3.214,3.214,0,0,0,0,6.427H202.36a.488.488,0,0,1,0,.977H166.512a4.19,4.19,0,0,1,0-8.379Z" transform="translate(-135.466 -250.182)" fill="#7a9297" fill-rule="evenodd"/>
    <path id="Path_3295" data-name="Path 3295" d="M146.214,254.371a4.2,4.2,0,0,1,4.19-4.189H146.76a4.19,4.19,0,0,0,0,8.379H150.4a4.2,4.2,0,0,1-4.19-4.19Z" transform="translate(-140.733 -250.182)" fill="#7a9297" fill-rule="evenodd"/>
    <path id="Path_3296" data-name="Path 3296" d="M150.383,254.371a4.2,4.2,0,0,1,4.19-4.189h-3.644a4.19,4.19,0,0,0,0,8.379h3.644a4.2,4.2,0,0,1-4.19-4.19Z" transform="translate(-139.622 -250.182)" fill="#7a9297" fill-rule="evenodd"/>
  </g>
  <g id="Group_1488" data-name="Group 1488" transform="translate(205.663 165.927)">
    <path id="Path_3297" data-name="Path 3297" d="M199.141,265.7H299.606A3.2,3.2,0,0,0,302.8,262.5h0a3.2,3.2,0,0,0-3.191-3.189H199.141a3.2,3.2,0,0,0-3.191,3.189h0A3.2,3.2,0,0,0,199.141,265.7Z" transform="translate(-185.535 -198.917)" fill="#141a33" fill-rule="evenodd"/>
    <path id="Path_3298" data-name="Path 3298" d="M199.039,264.986H299.5a3.2,3.2,0,0,0,2.706-1.506,3.2,3.2,0,0,0-2.706-1.5H199.039a3.2,3.2,0,0,0-2.706,1.5A3.2,3.2,0,0,0,199.039,264.986Z" transform="translate(-185.432 -198.206)" fill="#030822" fill-rule="evenodd"/>
    <path id="Path_3299" data-name="Path 3299" d="M198.853,272.031h80.356a3.625,3.625,0,0,0,3.661-4.175l-6.406-52.049a4.874,4.874,0,0,0-4.689-4.175H191.421a3.625,3.625,0,0,0-3.662,4.175l6.407,52.049A4.874,4.874,0,0,0,198.853,272.031Z" transform="translate(-187.727 -211.632)" fill="#030822" fill-rule="evenodd"/>
    <path id="Path_3300" data-name="Path 3300" d="M198.853,272.031h77.985a3.624,3.624,0,0,0,3.661-4.175l-6.406-52.049a4.874,4.874,0,0,0-4.688-4.175H191.421a3.625,3.625,0,0,0-3.662,4.175l6.407,52.049A4.874,4.874,0,0,0,198.853,272.031Z" transform="translate(-187.727 -211.632)" fill="#2c3049" fill-rule="evenodd"/>
    <path id="Path_3301" data-name="Path 3301" d="M201.957,272.031h8.024l63.342-53.172-.376-3.051a4.671,4.671,0,0,0-1.1-2.446l-69.892,58.67Zm60.778-60.4-69.1,58a4.519,4.519,0,0,1-.619-1.778l-1-8.094,57.337-48.13Z" transform="translate(-186.582 -211.632)" fill="#3a3f57" fill-rule="evenodd"/>
    <path id="Path_3302" data-name="Path 3302" d="M264.042,265.7H282.3a3.2,3.2,0,0,0,3.191-3.192h0a3.2,3.2,0,0,0-3.191-3.189H264.042a3.2,3.2,0,0,0-3.191,3.189h0A3.2,3.2,0,0,0,264.042,265.7Z" transform="translate(-168.228 -198.917)" fill="#2c3049" fill-rule="evenodd"/>
    <rect id="Rectangle_2396" data-name="Rectangle 2396" width="86.79" height="3.19" rx="1.259" transform="translate(10.416 58.802)" fill="#00000f"/>
    <path id="Path_3303" data-name="Path 3303" d="M224.587,229.14a9.1,9.1,0,0,1,8.845,8.022,7.111,7.111,0,0,1-7.2,8.023,9.1,9.1,0,0,1-8.845-8.023A7.109,7.109,0,0,1,224.587,229.14Z" transform="translate(-179.829 -206.963)" fill="#242942" fill-rule="evenodd"/>
  </g>
  <g id="Group_1489" data-name="Group 1489" transform="translate(378.234 223.136)">
    <path id="Path_3304" data-name="Path 3304" d="M388.686,256.8H356.674a4.785,4.785,0,0,0,0,9.571h32.011a4.785,4.785,0,0,0,0-9.571Z" transform="translate(-316.522 -256.797)" fill="#3b3a3a" fill-rule="evenodd"/>
    <path id="Path_3305" data-name="Path 3305" d="M324.408,257.237h40.937a4.24,4.24,0,0,1,4.227,4.227h0a4.24,4.24,0,0,1-4.227,4.228H324.408Z" transform="translate(-323.851 -256.68)" fill="#fff" fill-rule="evenodd"/>
    <path id="Path_3306" data-name="Path 3306" d="M324.525,256.8a.557.557,0,0,0,0,1.115h40.937a3.671,3.671,0,0,1,0,7.342H324.525a.557.557,0,1,0,0,1.115h40.937a4.785,4.785,0,0,0,0-9.571Z" transform="translate(-323.968 -256.797)" fill="#242525" fill-rule="evenodd"/>
    <path id="Path_3307" data-name="Path 3307" d="M380.782,261.581A4.8,4.8,0,0,0,376,256.8h4.161a4.785,4.785,0,0,1,0,9.571H376a4.8,4.8,0,0,0,4.784-4.787Z" transform="translate(-310.093 -256.797)" fill="#242525" fill-rule="evenodd"/>
    <path id="Path_3308" data-name="Path 3308" d="M376.022,261.581a4.8,4.8,0,0,0-4.785-4.784H375.4a4.785,4.785,0,0,1,0,9.571h-4.162a4.8,4.8,0,0,0,4.785-4.787Z" transform="translate(-311.363 -256.797)" fill="#242525" fill-rule="evenodd"/>
  </g>
  <g id="Group_1490" data-name="Group 1490" transform="translate(383.019 214.757)">
    <path id="Path_3309" data-name="Path 3309" d="M331.935,250.182h28.031a4.19,4.19,0,0,1,0,8.379H331.935a4.19,4.19,0,0,1,0-8.379Z" transform="translate(-327.745 -250.182)" fill="#c8dee1" fill-rule="evenodd"/>
    <path id="Path_3310" data-name="Path 3310" d="M388.881,250.567H353.033a3.711,3.711,0,0,0-3.7,3.7h0a3.712,3.712,0,0,0,3.7,3.7h35.848Z" transform="translate(-321.988 -250.079)" fill="#fff" fill-rule="evenodd"/>
    <path id="Path_3311" data-name="Path 3311" d="M388.984,250.182a.488.488,0,0,1,0,.975H353.136a3.214,3.214,0,0,0,0,6.427h35.848a.488.488,0,0,1,0,.977H353.136a4.19,4.19,0,0,1,0-8.379Z" transform="translate(-322.092 -250.182)" fill="#7a9297" fill-rule="evenodd"/>
    <path id="Path_3312" data-name="Path 3312" d="M332.838,254.371a4.2,4.2,0,0,1,4.191-4.189h-3.644a4.19,4.19,0,0,0,0,8.379h3.644a4.2,4.2,0,0,1-4.191-4.19Z" transform="translate(-327.359 -250.182)" fill="#7a9297" fill-rule="evenodd"/>
    <path id="Path_3313" data-name="Path 3313" d="M337.007,254.371a4.2,4.2,0,0,1,4.19-4.189h-3.644a4.19,4.19,0,0,0,0,8.379H341.2a4.2,4.2,0,0,1-4.19-4.19Z" transform="translate(-326.247 -250.182)" fill="#7a9297" fill-rule="evenodd"/>
  </g>
  <g id="Group_1491" data-name="Group 1491" transform="translate(393.837 206.377)">
    <path id="Path_3314" data-name="Path 3314" d="M377.231,243.566H356.384a4.19,4.19,0,0,0,0,8.38h20.847a4.19,4.19,0,0,0,0-8.38Z" transform="translate(-332.044 -243.566)" fill="#e9695b" fill-rule="evenodd"/>
    <path id="Path_3315" data-name="Path 3315" d="M336.671,243.951H361.7a3.713,3.713,0,0,1,3.7,3.7h0a3.712,3.712,0,0,1-3.7,3.7H336.671Z" transform="translate(-336.183 -243.463)" fill="#fff" fill-rule="evenodd"/>
    <path id="Path_3316" data-name="Path 3316" d="M336.774,243.566a.488.488,0,0,0,0,.975H361.8a3.214,3.214,0,0,1,0,6.428H336.774a.488.488,0,0,0,0,.977H361.8a4.19,4.19,0,0,0,0-8.38Z" transform="translate(-336.286 -243.566)" fill="#f08a71" fill-rule="evenodd"/>
    <path id="Path_3317" data-name="Path 3317" d="M371.822,247.756a4.2,4.2,0,0,0-4.189-4.19h3.644a4.19,4.19,0,0,1,0,8.38h-3.644a4.2,4.2,0,0,0,4.189-4.19Z" transform="translate(-327.927 -243.566)" fill="#f08a71" fill-rule="evenodd"/>
    <path id="Path_3318" data-name="Path 3318" d="M367.654,247.756a4.2,4.2,0,0,0-4.189-4.19h3.644a4.19,4.19,0,0,1,0,8.38h-3.644a4.2,4.2,0,0,0,4.189-4.19Z" transform="translate(-329.038 -243.566)" fill="#f08a71" fill-rule="evenodd"/>
  </g>
</svg>
